<svg width="2961" height="2987" viewBox="0 0 2961 2987" fill="none" xmlns="http://www.w3.org/2000/svg">
<g filter="url(#filter0_d_17_24)">
<path d="M1494.64 79.4313C1486.29 79.4313 1477.86 79.5832 1469.38 79.8159C1373.96 111.146 1270.67 95.0668 1169.74 95.0668C956.268 95.0668 739.918 112.002 526.995 127.207C462.839 131.788 372.366 156.43 311.962 183.668C235.769 218.027 216.809 286.674 152.65 326.126C84.5505 368.001 99.2207 499.135 67.8928 572.82C6.04515 718.289 77.5513 888.664 132.246 1026.25C191.66 1175.71 177.838 1250.97 146.372 1410.19C122.238 1532.3 110.271 1636.76 110.271 1768.07C110.271 1898.65 71.6368 2018.34 67.8928 2146.8C64.347 2268.46 118.086 2358.21 170.7 2461.25C219.541 2556.89 204.864 2727.59 230.344 2834.76C250.308 2918.73 594.04 2849.33 672.181 2846.92C818.791 2842.42 966.591 2846.92 1113.23 2846.92C1170.91 2846.92 1228.06 2849.29 1285.1 2838.24C1328.6 2829.81 1373.14 2800.02 1416.16 2800.02C1467.47 2800.02 1498.73 2738.45 1549.58 2737.48C1640.55 2735.74 1731.68 2737.48 1822.68 2737.48C1913.12 2737.48 1985.11 2785.02 2038.5 2870.38C2080.24 2937.12 2168.77 2940.25 2237.05 2937.26C2353.53 2932.17 2468.18 2925.1 2584.71 2925.1C2699.19 2925.1 2787.78 2785.99 2852.33 2688.83C2914.07 2595.89 2907.26 2481.92 2907.26 2372.65C2907.26 2270.4 2932.25 2116.56 2900.2 2024.32C2879.63 1965.12 2883.33 1895.49 2868.02 1834.09C2845.54 1743.87 2821.02 1657.03 2791.11 1566.55C2770.21 1503.32 2780.13 1428.05 2780.13 1361.55C2780.13 1220.34 2818.4 1090.16 2835.85 955.022C2858.1 782.635 2863.72 604.666 2819.37 435.574C2799.87 361.241 2770.55 314.789 2723.62 260.109C2682.03 211.646 2670.82 190.093 2611.4 165.427C2564.54 145.977 2506.15 146.179 2462.29 124.601C2382.12 85.1666 2381.36 69.5983 2279.43 82.9059C2072.85 109.876 1872.18 118.997 1664.94 88.1177C1607.93 79.6226 1552.38 79.4313 1494.64 79.4313Z" fill="#CC33F2"/>
<path d="M1113.23 48.1602C1205.2 23.4839 1236.63 66.4275 1324.34 78.5626C1379.71 86.2228 1438.77 79.4313 1494.64 79.4313C1552.38 79.4313 1607.93 79.6226 1664.94 88.1177C1872.18 118.997 2072.85 109.876 2279.43 82.9059C2381.36 69.5983 2382.12 85.1666 2462.29 124.601C2506.15 146.179 2564.54 145.977 2611.4 165.427C2670.82 190.093 2682.03 211.646 2723.62 260.109C2770.55 314.789 2799.87 361.241 2819.37 435.574C2863.72 604.666 2858.1 782.635 2835.85 955.022C2818.4 1090.16 2780.13 1220.34 2780.13 1361.55C2780.13 1428.05 2770.21 1503.32 2791.11 1566.55C2821.02 1657.03 2845.54 1743.87 2868.02 1834.09C2883.33 1895.49 2879.63 1965.12 2900.2 2024.32C2932.25 2116.56 2907.26 2270.4 2907.26 2372.65C2907.26 2481.92 2914.07 2595.89 2852.33 2688.83C2787.78 2785.99 2699.19 2925.1 2584.71 2925.1C2468.18 2925.1 2353.53 2932.17 2237.05 2937.26C2168.77 2940.25 2080.24 2937.12 2038.5 2870.38C1985.11 2785.02 1913.12 2737.48 1822.68 2737.48C1731.68 2737.48 1640.55 2735.74 1549.58 2737.48C1498.73 2738.45 1467.47 2800.02 1416.16 2800.02C1373.14 2800.02 1328.6 2829.81 1285.1 2838.24C1228.06 2849.29 1170.91 2846.92 1113.23 2846.92C966.591 2846.92 818.791 2842.42 672.181 2846.92C594.04 2849.33 250.308 2918.73 230.344 2834.76C204.864 2727.59 219.541 2556.89 170.7 2461.25C118.086 2358.21 64.347 2268.46 67.8928 2146.8C71.6368 2018.34 110.271 1898.65 110.271 1768.07C110.271 1636.76 122.238 1532.3 146.372 1410.19C177.838 1250.97 191.66 1175.71 132.246 1026.25C77.5513 888.664 6.04515 718.289 67.8928 572.82C99.2207 499.135 84.5505 368.001 152.65 326.126C216.809 286.674 235.769 218.027 311.962 183.668C372.366 156.43 462.839 131.788 526.995 127.207C739.918 112.002 956.268 95.0668 1169.74 95.0668C1284.73 95.0668 1402.77 115.937 1508.77 63.7957" stroke="#FAF2F2" stroke-width="80" stroke-linecap="round"/>
<path d="M322.165 267.058C382.214 260.411 432.966 210.705 491.679 204.516C525.544 200.946 559.825 230.666 588.993 246.21C646.401 276.805 693.214 282.693 755.368 282.693C865.219 282.693 977.092 275.517 1086.55 286.168C1156.25 292.95 1222.22 298.329 1292.16 298.329C1368.09 298.329 1440.46 267.058 1515.83 267.058C1594.29 267.058 1667.01 235.787 1743.42 235.787C1921.57 235.787 2099.71 235.787 2277.86 235.787C2376.19 235.787 2589.68 255.645 2621.6 385.193C2652.63 511.131 2603.67 667.498 2645.93 789.112C2666.14 847.273 2666.16 957.131 2667.12 1019.3C2668.64 1118.94 2674.44 1225.48 2660.05 1324.19C2622 1585.33 2695.37 1847.18 2695.37 2113.79C2695.37 2260.07 2733.72 2575.45 2609.83 2669.72C2589.88 2684.9 2569.74 2729.18 2546.26 2736.61C2530.84 2741.48 2508.95 2729.6 2497.6 2745.29C2469.63 2784 2341.88 2819.03 2295.91 2814.78C2240.72 2809.69 2199.07 2798.38 2157 2761.8C2063.73 2680.69 1914.67 2674.93 1799.14 2674.93C1685.65 2674.93 1568.02 2643.66 1452.26 2643.66C1267.7 2643.66 1095.09 2649.55 915.466 2699.25C793.963 2732.88 675.238 2753.11 548.184 2753.11C430.009 2753.11 378.981 2726.68 304.899 2622.81C273.822 2579.24 293.912 2439.06 293.912 2388.28C293.912 2293.17 314.642 2143.73 251.533 2065.15C203.914 2005.85 196.195 1828.69 224.066 1751.57C277.89 1602.63 302.061 1461.96 336.291 1305.95C365.98 1170.64 335.093 1032.93 301.76 901.166C264.401 753.485 288.268 537.571 311.177 393.88C320.786 333.616 408.921 315.163 448.516 290.511C503.186 256.474 523.866 269.235 576.436 298.329" stroke="#111010" stroke-width="80" stroke-linecap="round"/>
</g>
<defs>
<filter id="filter0_d_17_24" x="0.000976562" y="0.64209" width="2960.55" height="2985.36" filterUnits="userSpaceOnUse" color-interpolation-filters="sRGB">
<feFlood flood-opacity="0" result="BackgroundImageFix"/>
<feColorMatrix in="SourceAlpha" type="matrix" values="0 0 0 0 0 0 0 0 0 0 0 0 0 0 0 0 0 0 127 0" result="hardAlpha"/>
<feOffset dy="4"/>
<feGaussianBlur stdDeviation="2"/>
<feComposite in2="hardAlpha" operator="out"/>
<feColorMatrix type="matrix" values="0 0 0 0 0 0 0 0 0 0 0 0 0 0 0 0 0 0 0.25 0"/>
<feBlend mode="normal" in2="BackgroundImageFix" result="effect1_dropShadow_17_24"/>
<feBlend mode="normal" in="SourceGraphic" in2="effect1_dropShadow_17_24" result="shape"/>
</filter>
</defs>
</svg>
