<svg width="463" height="480" viewBox="0 0 463 480" fill="none" xmlns="http://www.w3.org/2000/svg">
<path d="M1 133.488L14.3333 126.11L19.6667 154.57L25 165.111L19.6667 174.598V198.842L30.3333 208.329L14.3333 217.816V257.872L25 266.304L14.3333 281.062V309.522V321.117L25 332.712L14.3333 349.578V372.768L30.3333 380.147L14.3333 388.579V425.473L30.3333 443.392L14.3333 453.933L25 477.123H14.3333L5 447.609L14.3333 439.176L5 425.473V388.579L14.3333 380.147L5 372.768V349.578L14.3333 337.983L5 332.712V321.117L14.3333 309.522L5 273.683L14.3333 266.304L5 257.872V212.546L14.3333 208.329L1 203.059V174.598L14.3333 165.111L1 154.57V133.488Z" fill="#290558"/>
<path d="M14.3333 126.11L1 133.488V154.57L14.3333 165.111L1 174.598V203.059L14.3333 208.329L5 212.546V257.872L14.3333 266.304L5 273.683L14.3333 309.522L5 321.117V332.712L14.3333 337.983L5 349.578V372.768L14.3333 380.147L5 388.579V425.473L14.3333 439.176L5 447.609L14.3333 477.123H25L14.3333 453.933L30.3333 443.392L14.3333 425.473V388.579L30.3333 380.147L14.3333 372.768V349.578L25 332.712L14.3333 321.117V281.062L25 266.304L14.3333 257.872V217.816L30.3333 208.329L19.6667 198.842V174.598L25 165.111L19.6667 154.57L14.3333 126.11Z" stroke="#3D1374"/>
<path d="M450.333 126.11H17V155.624L26.3333 163.003L17 169.328V198.842L26.3333 206.221L17 215.708V257.872L26.3333 266.304L17 280.008V320.063L26.3333 332.712L17 347.47V375.93L26.3333 383.309L17 388.579V423.365L26.3333 441.284L17 451.825L26.3333 479.232H450.333L459.667 441.284L450.333 431.797L459.667 423.365V383.309L450.333 375.93V353.794L459.667 341.145L450.333 332.712L459.667 326.388L450.333 272.629L442.333 257.872L450.333 251.547V215.708L442.333 206.221L450.333 198.842V169.328L442.333 163.003L450.333 155.624V126.11Z" fill="#4A1D86" stroke="black"/>
<g filter="url(#filter0_d_41_2)">
<path d="M55.6667 165.111H117L126.333 170.382L137 165.111H227.667L257 170.382L266.333 165.111H309L338.333 170.382H357L365 165.111H395.667V241.006L405 250.493V304.252L395.667 342.199L405 359.065V440.23L395.667 445.501L371.667 440.23L357 445.501H154.333L145 440.23L137 445.501H77L55.6667 425.473V404.391L62.3334 388.579L55.6667 379.093V319.009V250.493L62.3334 241.006L55.6667 229.411V165.111Z" fill="#7654A2"/>
<path d="M77 445.501H137L145 440.23L154.333 445.501H357L371.667 440.23L395.667 445.501L405 440.23V359.065L395.667 342.199L405 304.252V250.493L395.667 241.006V165.111H365L357 170.382H338.333L309 165.111H266.333L257 170.382L227.667 165.111H137L126.333 170.382L117 165.111H55.6667V229.411L62.3334 241.006L55.6667 250.493V319.009V379.093L62.3334 388.579L55.6667 404.391V425.473M77 445.501V431.797L55.6667 425.473M77 445.501L55.6667 425.473" stroke="black"/>
</g>
<path d="M369 425.473C362.715 429.889 360.315 435.772 355.667 441.284" stroke="#100202" stroke-linecap="round"/>
<path d="M127.667 176.706C127.667 178.785 127.248 180.591 129 181.977" stroke="#100202" stroke-linecap="round"/>
<path d="M242.333 174.598C245.075 174.598 246.484 175.652 249 175.652C252.9 175.652 251.791 176.755 254.333 177.76" stroke="#100202" stroke-linecap="round"/>
<path d="M354.333 177.76C360.375 178.357 359.667 191.122 359.667 194.626" stroke="#100202" stroke-linecap="round"/>
<path d="M397 206.221H442.333L450.333 214.654H397V206.221Z" fill="#4A1D86" stroke="black"/>
<path d="M55.6667 205.167H26.3333L17 216.762H55.6667V205.167Z" fill="#4A1D86" stroke="black"/>
<path d="M405 257.872H443.667L451.667 267.358H405V257.872Z" fill="#4A1D86"/>
<path d="M57 267.358H27.6667L18.3333 257.872H57V267.358Z" fill="#4A1D86"/>
<path d="M405 257.872H443.667L451.667 267.358H405V257.872Z" stroke="black"/>
<path d="M57 267.358H27.6667L18.3333 257.872H57V267.358Z" stroke="black"/>
<path d="M399.667 330.604H451.667L459.667 343.253H393L399.667 330.604Z" fill="#4A1D86" stroke="black"/>
<path d="M55.6667 333.766H29L19.6667 348.524H55.6667V333.766Z" fill="#4A1D86" stroke="black"/>
<path d="M406.333 385.417H461L450.333 378.038H406.333V385.417Z" fill="#4A1D86" stroke="black"/>
<path d="M406.333 431.797H451.667L459.667 442.338H406.333V431.797Z" fill="#4A1D86"/>
<path d="M71.6667 442.338H29L22.3333 431.797H58.3333L71.6667 442.338Z" fill="#4A1D86"/>
<path d="M406.333 431.797H451.667L459.667 442.338H406.333V431.797Z" stroke="black"/>
<path d="M71.6667 442.338H29L22.3333 431.797H58.3333L71.6667 442.338Z" stroke="black"/>
<path d="M54.3333 373.822H19.6667L27.6667 385.417H62.3333L54.3333 373.822Z" fill="#4A1D86" stroke="black"/>
<path d="M18.3333 155.624H451.667L442.333 165.111H29L18.3333 155.624Z" fill="#4A1D86" stroke="black"/>
<path d="M338 126V60.8205H356.667L367.333 2H390V126H338Z" fill="#4A1D86" stroke="black"/>
<path d="M85 126V2L118.133 38H140V126H85Z" fill="#4A1D86" stroke="black"/>
<path d="M121.473 113.865C124.651 113.865 126.936 112.499 130.114 112.499" stroke="#130101" stroke-linecap="round"/>
<path d="M128.386 113.865C128.801 117.148 130.114 120.043 130.114 123.429" stroke="#130101" stroke-linecap="round"/>
<path d="M97 105C97 79.6261 89 67.0382 89 43" stroke="#130101" stroke-linecap="round"/>
<path d="M118 96C109.066 96 105.18 90.2258 101 64" stroke="#130101" stroke-linecap="round"/>
<path d="M377 72C374.238 78.9308 370.333 88.7994 370.333 99.1818C370.333 107.253 369.914 114.345 367 118" stroke="#130101" stroke-linecap="round"/>
<path d="M365 40.2394C369.786 38.9162 378.715 29.4652 382 44" stroke="#130101" stroke-linecap="round"/>
<defs>
<filter id="filter0_d_41_2" x="54.1667" y="163.611" width="358.333" height="289.419" filterUnits="userSpaceOnUse" color-interpolation-filters="sRGB">
<feFlood flood-opacity="0" result="BackgroundImageFix"/>
<feColorMatrix in="SourceAlpha" type="matrix" values="0 0 0 0 0 0 0 0 0 0 0 0 0 0 0 0 0 0 127 0" result="hardAlpha"/>
<feOffset dx="3" dy="3"/>
<feGaussianBlur stdDeviation="2"/>
<feComposite in2="hardAlpha" operator="out"/>
<feColorMatrix type="matrix" values="0 0 0 0 0 0 0 0 0 0 0 0 0 0 0 0 0 0 0.9 0"/>
<feBlend mode="hue" in2="BackgroundImageFix" result="effect1_dropShadow_41_2"/>
<feBlend mode="normal" in="SourceGraphic" in2="effect1_dropShadow_41_2" result="shape"/>
</filter>
</defs>
</svg>
