<svg width="697" height="355" viewBox="0 0 697 355" fill="none" xmlns="http://www.w3.org/2000/svg">
<path d="M1 8.48841L21.1449 1.10974L29.2029 29.5703L37.2609 40.1113L29.2029 49.5981V73.8423L45.3188 83.3292L21.1449 92.816V132.872L37.2609 141.304L21.1449 156.062V184.522V196.117L37.2609 207.712L21.1449 224.578V247.768L45.3188 255.147L21.1449 263.579V300.473L45.3188 318.392L21.1449 328.933L37.2609 352.123H21.1449L7.04348 322.609L21.1449 314.176L7.04348 300.473V263.579L21.1449 255.147L7.04348 247.768V224.578L21.1449 212.983L7.04348 207.712V196.117L21.1449 184.522L7.04348 148.683L21.1449 141.304L7.04348 132.872V87.5456L21.1449 83.3292L1 78.0587V49.5981L21.1449 40.1113L1 29.5703V8.48841Z" fill="#290558"/>
<path d="M21.1449 1.10974L1 8.48841V29.5703L21.1449 40.1113L1 49.5981V78.0587L21.1449 83.3292L7.04348 87.5456V132.872L21.1449 141.304L7.04348 148.683L21.1449 184.522L7.04348 196.117V207.712L21.1449 212.983L7.04348 224.578V247.768L21.1449 255.147L7.04348 263.579V300.473L21.1449 314.176L7.04348 322.609L21.1449 352.123H37.2609L21.1449 328.933L45.3188 318.392L21.1449 300.473V263.579L45.3188 255.147L21.1449 247.768V224.578L37.2609 207.712L21.1449 196.117V156.062L37.2609 141.304L21.1449 132.872V92.816L45.3188 83.3292L29.2029 73.8423V49.5981L37.2609 40.1113L29.2029 29.5703L21.1449 1.10974Z" stroke="#3D1374"/>
<path d="M679.884 1.10974H25.1739V30.6244L39.2753 38.0031L25.1739 44.3276V73.8423L39.2753 81.221L25.1739 90.7078V132.872L39.2753 141.304L25.1739 155.008V195.063L39.2753 207.712L25.1739 222.47V250.93L39.2753 258.309L25.1739 263.579V298.365L39.2753 316.284L25.1739 326.825L39.2753 354.232H679.884L693.986 316.284L679.884 306.797L693.986 298.365V258.309L679.884 250.93V228.794L693.986 216.145L679.884 207.712L693.986 201.388L679.884 147.629L667.797 132.872L679.884 126.547V90.7078L667.797 81.221L679.884 73.8423V44.3276L667.797 38.0031L679.884 30.6244V1.10974Z" fill="#4A1D86" stroke="black"/>
<g filter="url(#filter0_d_42_37)">
<path d="M83.5943 40.1113H176.261L190.362 45.3817L206.478 40.1113H343.464L387.783 45.3817L401.884 40.1113H466.348L510.667 45.3817H538.87L550.957 40.1113H597.29V116.006L611.391 125.493V179.252L597.29 217.199L611.391 234.065V315.23L597.29 320.501L561.029 315.23L538.87 320.501H232.667L218.565 315.23L206.478 320.501H115.826L83.5943 300.473V279.391L93.6667 263.579L83.5943 254.093V194.009V125.493L93.6667 116.006L83.5943 104.411V40.1113Z" fill="#7654A2"/>
<path d="M115.826 320.501H206.478L218.565 315.23L232.667 320.501H538.87L561.029 315.23L597.29 320.501L611.391 315.23V234.065L597.29 217.199L611.391 179.252V125.493L597.29 116.006V40.1113H550.957L538.87 45.3817H510.667L466.348 40.1113H401.884L387.783 45.3817L343.464 40.1113H206.478L190.362 45.3817L176.261 40.1113H83.5943V104.411L93.6667 116.006L83.5943 125.493V194.009V254.093L93.6667 263.579L83.5943 279.391V300.473M115.826 320.501V306.797L83.5943 300.473M115.826 320.501L83.5943 300.473" stroke="black"/>
</g>
<path d="M557 300.473C547.505 304.889 543.878 310.772 536.855 316.284" stroke="#100202" stroke-linecap="round"/>
<path d="M192.377 51.7063C192.377 53.785 191.744 55.5914 194.391 56.9768" stroke="#100202" stroke-linecap="round"/>
<path d="M365.623 49.5981C369.765 49.5981 371.894 50.6522 375.696 50.6522C381.589 50.6522 379.913 51.7555 383.754 52.7604" stroke="#100202" stroke-linecap="round"/>
<path d="M534.841 52.7604C543.969 53.3574 542.899 66.1225 542.899 69.6259" stroke="#100202" stroke-linecap="round"/>
<path d="M599.304 81.221H667.797L679.884 89.6537H599.304V81.221Z" fill="#4A1D86" stroke="black"/>
<path d="M83.5942 80.1669H39.2753L25.1739 91.7619H83.5942V80.1669Z" fill="#4A1D86" stroke="black"/>
<path d="M611.391 132.872H669.812L681.899 142.359H611.391V132.872Z" fill="#4A1D86"/>
<path d="M85.6087 142.359H41.2899L27.1884 132.872H85.6087V142.359Z" fill="#4A1D86"/>
<path d="M611.391 132.872H669.812L681.899 142.359H611.391V132.872Z" stroke="black"/>
<path d="M85.6087 142.359H41.2899L27.1884 132.872H85.6087V142.359Z" stroke="black"/>
<path d="M603.333 205.604H681.899L693.986 218.253H593.261L603.333 205.604Z" fill="#4A1D86" stroke="black"/>
<path d="M83.5942 208.766H43.3043L29.2029 223.524H83.5942V208.766Z" fill="#4A1D86" stroke="black"/>
<path d="M613.406 260.417H696L679.884 253.039H613.406V260.417Z" fill="#4A1D86" stroke="black"/>
<path d="M613.406 306.797H681.899L693.986 317.338H613.406V306.797Z" fill="#4A1D86"/>
<path d="M107.768 317.338H43.3044L33.2319 306.797H87.6232L107.768 317.338Z" fill="#4A1D86"/>
<path d="M613.406 306.797H681.899L693.986 317.338H613.406V306.797Z" stroke="black"/>
<path d="M107.768 317.338H43.3044L33.2319 306.797H87.6232L107.768 317.338Z" stroke="black"/>
<path d="M81.5797 248.822H29.2029L41.2898 260.417H93.6667L81.5797 248.822Z" fill="#4A1D86" stroke="black"/>
<path d="M27.1884 30.6244H681.899L667.797 40.1113H43.3044L27.1884 30.6244Z" fill="#4A1D86" stroke="black"/>
<defs>
<filter id="filter0_d_42_37" x="82.0943" y="38.6113" width="536.797" height="289.403" filterUnits="userSpaceOnUse" color-interpolation-filters="sRGB">
<feFlood flood-opacity="0" result="BackgroundImageFix"/>
<feColorMatrix in="SourceAlpha" type="matrix" values="0 0 0 0 0 0 0 0 0 0 0 0 0 0 0 0 0 0 127 0" result="hardAlpha"/>
<feOffset dx="3" dy="3"/>
<feGaussianBlur stdDeviation="2"/>
<feComposite in2="hardAlpha" operator="out"/>
<feColorMatrix type="matrix" values="0 0 0 0 0 0 0 0 0 0 0 0 0 0 0 0 0 0 0.9 0"/>
<feBlend mode="hue" in2="BackgroundImageFix" result="effect1_dropShadow_42_37"/>
<feBlend mode="normal" in="SourceGraphic" in2="effect1_dropShadow_42_37" result="shape"/>
</filter>
</defs>
</svg>
