<svg width="348" height="422" viewBox="0 0 348 422" fill="none" xmlns="http://www.w3.org/2000/svg">
<path d="M1 47L11 40L15 67L19 77L15 86V109L23 118L11 127V165L19 173L11 187V214V225L19 236L11 252V274L23 281L11 289V324L23 341L11 351L19 373H11L4 345L11 337L4 324V289L11 281L4 274V252L11 241L4 236V225L11 214L4 180L11 173L4 165V122L11 118L1 113V86L11 77L1 67V47Z" fill="#830576" stroke="#B75FAE"/>
<path d="M338 40H13V68L20 75L13 81V109L20 116L13 125V165L20 173L13 186V224L20 236L13 250V277L20 284L13 289V322L20 339L13 349L20 375H338L345 339L338 330L345 322V284L338 277V256L345 244L338 236L345 230L338 179L332 165L338 159V125L332 116L338 109V81L332 75L338 68V40Z" fill="#E20DC0" stroke="black"/>
<g filter="url(#filter0_d_12_41)">
<path d="M42 77H88L95 82L103 77H171L193 82L200 77H232L254 82H268L274 77H297V149L304 158V209L297 245L304 261V338L297 343L279 338L268 343H116L109 338L103 343H58L42 324V304L47 289L42 280V223V158L47 149L42 138V77Z" fill="#FEC5FC"/>
<path d="M58 343H103L109 338L116 343H268L279 338L297 343L304 338V261L297 245L304 209V158L297 149V77H274L268 82H254L232 77H200L193 82L171 77H103L95 82L88 77H42V138L47 149L42 158V223V280L47 289L42 304V324M58 343V330L42 324M58 343L42 324" stroke="black"/>
</g>
<path d="M277 324C272.287 328.19 270.486 333.771 267 339" stroke="#100202" stroke-linecap="round"/>
<path d="M96 88C96 89.972 95.6857 91.6857 97 93" stroke="#100202" stroke-linecap="round"/>
<path d="M182 86C184.056 86 185.113 87 187 87C189.925 87 189.093 88.0467 191 89" stroke="#100202" stroke-linecap="round"/>
<path d="M266 89C270.531 89.5664 270 101.676 270 105" stroke="#100202" stroke-linecap="round"/>
<path d="M298 116H332L338 124H298V116Z" fill="#E20DC0" stroke="black"/>
<path d="M42 115H20L13 126H42V115Z" fill="#E20DC0" stroke="black"/>
<path d="M304 165H333L339 174H304V165Z" fill="#E20DC0"/>
<path d="M43 174H21L14 165H43V174Z" fill="#E20DC0"/>
<path d="M304 165H333L339 174H304V165Z" stroke="black"/>
<path d="M43 174H21L14 165H43V174Z" stroke="black"/>
<path d="M300 234H339L345 246H295L300 234Z" fill="#E20DC0" stroke="black"/>
<path d="M42 237H22L15 251H42V237Z" fill="#E20DC0" stroke="black"/>
<path d="M305 286H346L338 279H305V286Z" fill="#E20DC0" stroke="black"/>
<path d="M305 330H339L345 340H305V330Z" fill="#E20DC0"/>
<path d="M54 340H22L17 330H44L54 340Z" fill="#E20DC0"/>
<path d="M305 330H339L345 340H305V330Z" stroke="black"/>
<path d="M54 340H22L17 330H44L54 340Z" stroke="black"/>
<path d="M41 275H15L21 286H47L41 275Z" fill="#E20DC0" stroke="black"/>
<path d="M14 68H339L332 77H22L14 68Z" fill="#E20DC0" stroke="black"/>
<path d="M252 413.5V374.5H292.5V413.5C278.439 423.799 269.519 423.492 252 413.5Z" fill="#E20DC0" stroke="black"/>
<path d="M253.5 40V19.5H267.5L275.5 1H292.5V40H253.5Z" fill="#E20DC0" stroke="black"/>
<path d="M64 412V374.5H103V412C91.2338 422.435 82.6793 422.389 64 412Z" fill="#E20DC0" stroke="black"/>
<path d="M64 40V9L89 18H105.5V40H64Z" fill="#E20DC0" stroke="black"/>
<path d="M99.1317 384.814C99.1317 392.336 96.2857 394.027 92.0751 400.152C89.1476 404.41 88.4389 410.088 86.1706 414.625" stroke="#130101" stroke-linecap="round"/>
<path d="M78.394 408.144C77.8006 403.397 68.2002 383.518 78.394 383.518" stroke="#130101" stroke-linecap="round"/>
<path d="M68.0251 379.63C68.0251 373.365 68.0251 392.159 68.0251 398.423C68.0251 404.023 69.5343 407.274 71.9134 412.033" stroke="#130101" stroke-linecap="round"/>
<path d="M91.3551 28.3839C93.7385 28.3839 95.4522 27.0878 97.8356 27.0878" stroke="#130101" stroke-linecap="round"/>
<path d="M96.5395 28.3839C96.8509 31.498 97.8356 34.2448 97.8356 37.4567" stroke="#130101" stroke-linecap="round"/>
<path d="M73.2095 34.8645C73.2095 28.4992 66.729 25.3414 66.729 19.3112" stroke="#130101" stroke-linecap="round"/>
<path d="M88.7629 32.2723C81.9518 32.2723 78.9885 30.869 75.8018 24.4956" stroke="#130101" stroke-linecap="round"/>
<path d="M283.179 23.1995C281.031 25.3476 277.995 28.4063 277.995 31.6242C277.995 34.1257 277.669 36.3237 275.403 37.4567" stroke="#130101" stroke-linecap="round"/>
<path d="M274.107 12.8306C277.755 12.3745 284.563 9.11717 287.068 14.1267" stroke="#130101" stroke-linecap="round"/>
<path d="M261.146 414.625C260.656 410.219 251.534 392.861 257.257 389.999" stroke="#130101" stroke-linecap="round"/>
<path d="M284.476 396.479C284.476 401.15 286.16 404.438 284.764 409.152C284.3 410.718 284.839 412.381 284.404 413.905C284.126 414.877 282.458 414.771 281.883 415.921" stroke="#130101" stroke-linecap="round"/>
<path d="M268.922 413.329C268.419 409.3 263.057 401.769 267.338 397.487C270.727 394.098 275.366 391.961 279.291 389.999" stroke="#130101" stroke-linecap="round"/>
<path d="M88.7629 383.518C90.4704 383.732 91.7192 392.573 91.2831 394.535C90.729 397.029 87.5614 398.162 86.4587 400.368C85.6352 402.014 85.7052 403.891 84.8745 405.552" stroke="#130101" stroke-linecap="round"/>
<path d="M255.961 388.703C259.009 388.703 261.044 387.407 263.738 387.407" stroke="#130101" stroke-linecap="round"/>
<defs>
<filter id="filter0_d_12_41" x="40.5" y="75.5" width="271" height="275.046" filterUnits="userSpaceOnUse" color-interpolation-filters="sRGB">
<feFlood flood-opacity="0" result="BackgroundImageFix"/>
<feColorMatrix in="SourceAlpha" type="matrix" values="0 0 0 0 0 0 0 0 0 0 0 0 0 0 0 0 0 0 127 0" result="hardAlpha"/>
<feOffset dx="3" dy="3"/>
<feGaussianBlur stdDeviation="2"/>
<feComposite in2="hardAlpha" operator="out"/>
<feColorMatrix type="matrix" values="0 0 0 0 0 0 0 0 0 0 0 0 0 0 0 0 0 0 0.9 0"/>
<feBlend mode="hue" in2="BackgroundImageFix" result="effect1_dropShadow_12_41"/>
<feBlend mode="normal" in="SourceGraphic" in2="effect1_dropShadow_12_41" result="shape"/>
</filter>
</defs>
</svg>
