<svg width="42" height="412" viewBox="0 0 42 412" fill="none" xmlns="http://www.w3.org/2000/svg">
<path d="M1 405V2L9 15L26 2H41V405C25.379 410.071 16.621 410.66 1 405Z" fill="#E20DC0" stroke="black"/>
<path d="M37 370C37 372.074 36.0576 378.178 34.7778 379.778C33.0091 381.989 33.7768 387.531 32.9444 390.444C31.3029 396.19 27 400.554 27 407" stroke="#0D0000" stroke-opacity="0.5" stroke-linecap="round"/>
<path d="M6 373C6 375.532 8 376.574 8 379.5C8 382.689 9 385.469 9 388.5C9 394.125 7.51564 403.031 10 408" stroke="#0D0000" stroke-opacity="0.5" stroke-linecap="round"/>
<path d="M27 377C26.7286 379.171 22.515 381.606 21.2222 383.222C19.5907 385.262 18.9117 389.11 17.2222 391.222C16.4196 392.226 16.4196 400.774 17.2222 401.778C19.0431 404.054 17.6522 408.304 19 411" stroke="#0D0000" stroke-opacity="0.5" stroke-linecap="round"/>
<path d="M26 9C26.6468 14.1741 34.9861 11 38 11" stroke="#0D0000" stroke-opacity="0.5" stroke-linecap="round"/>
<path d="M17 17C14.665 17.2594 13.9653 19.3449 12 20" stroke="#0D0000" stroke-opacity="0.5" stroke-linecap="round"/>
<path d="M35 22C35 26.375 36.8357 29.9502 37 34.2222C37.2122 39.7384 38 45.2237 38 51" stroke="#0D0000" stroke-opacity="0.5" stroke-linecap="round"/>
<path d="M6 27C6 32.2575 6.50115 36.1826 9 40.5556C11.7783 45.4175 13.6614 50.3228 16 55" stroke="#0D0000" stroke-opacity="0.5" stroke-linecap="round"/>
<path d="M28 29C28 33.1007 28.7615 40.0481 26.2222 43.2222C22.1233 48.3459 28.7409 56.4197 21 59" stroke="#0D0000" stroke-opacity="0.5" stroke-linecap="round"/>
</svg>
