<svg width="348" height="337" viewBox="0 0 348 337" fill="none" xmlns="http://www.w3.org/2000/svg">
<path d="M1 8L11 1L15 28L19 38L15 47V70L23 79L11 88V126L19 134L11 148V175V186L19 197L11 213V235L23 242L11 250V285L23 302L11 312L19 334H11L4 306L11 298L4 285V250L11 242L4 235V213L11 202L4 197V186L11 175L4 141L11 134L4 126V83L11 79L1 74V47L11 38L1 28V8Z" fill="#830576"/>
<path d="M11 1L1 8V28L11 38L1 47V74L11 79L4 83V126L11 134L4 141L11 175L4 186V197L11 202L4 213V235L11 242L4 250V285L11 298L4 306L11 334H19L11 312L23 302L11 285V250L23 242L11 235V213L19 197L11 186V148L19 134L11 126V88L23 79L15 70V47L19 38L15 28L11 1Z" stroke="#B75FAE"/>
<path d="M338 1H13V29L20 36L13 42V70L20 77L13 86V126L20 134L13 147V185L20 197L13 211V238L20 245L13 250V283L20 300L13 310L20 336H338L345 300L338 291L345 283V245L338 238V217L345 205L338 197L345 191L338 140L332 126L338 120V86L332 77L338 70V42L332 36L338 29V1Z" fill="#E20DC0" stroke="black"/>
<g filter="url(#filter0_d_12_41)">
<path d="M42 38H88L95 43L103 38H171L193 43L200 38H232L254 43H268L274 38H297V110L304 119V170L297 206L304 222V299L297 304L279 299L268 304H116L109 299L103 304H58L42 285V265L47 250L42 241V184V119L47 110L42 99V38Z" fill="#FEC5FC"/>
<path d="M58 304H103L109 299L116 304H268L279 299L297 304L304 299V222L297 206L304 170V119L297 110V38H274L268 43H254L232 38H200L193 43L171 38H103L95 43L88 38H42V99L47 110L42 119V184V241L47 250L42 265V285M58 304V291L42 285M58 304L42 285" stroke="black"/>
</g>
<path d="M277 285C272.287 289.19 270.486 294.771 267 300" stroke="#100202" stroke-linecap="round"/>
<path d="M96 49C96 50.972 95.6857 52.6857 97 54" stroke="#100202" stroke-linecap="round"/>
<path d="M182 47C184.056 47 185.113 48 187 48C189.925 48 189.093 49.0467 191 50" stroke="#100202" stroke-linecap="round"/>
<path d="M266 50C270.531 50.5664 270 62.6763 270 66" stroke="#100202" stroke-linecap="round"/>
<path d="M298 77H332L338 85H298V77Z" fill="#E20DC0" stroke="black"/>
<path d="M42 76H20L13 87H42V76Z" fill="#E20DC0" stroke="black"/>
<path d="M304 126H333L339 135H304V126Z" fill="#E20DC0"/>
<path d="M43 135H21L14 126H43V135Z" fill="#E20DC0"/>
<path d="M304 126H333L339 135H304V126Z" stroke="black"/>
<path d="M43 135H21L14 126H43V135Z" stroke="black"/>
<path d="M300 195H339L345 207H295L300 195Z" fill="#E20DC0" stroke="black"/>
<path d="M42 198H22L15 212H42V198Z" fill="#E20DC0" stroke="black"/>
<path d="M305 247H346L338 240H305V247Z" fill="#E20DC0" stroke="black"/>
<path d="M305 291H339L345 301H305V291Z" fill="#E20DC0"/>
<path d="M54 301H22L17 291H44L54 301Z" fill="#E20DC0"/>
<path d="M305 291H339L345 301H305V291Z" stroke="black"/>
<path d="M54 301H22L17 291H44L54 301Z" stroke="black"/>
<path d="M41 236H15L21 247H47L41 236Z" fill="#E20DC0" stroke="black"/>
<path d="M14 29H339L332 38H22L14 29Z" fill="#E20DC0" stroke="black"/>
<defs>
<filter id="filter0_d_12_41" x="40.5" y="36.5" width="271" height="275.046" filterUnits="userSpaceOnUse" color-interpolation-filters="sRGB">
<feFlood flood-opacity="0" result="BackgroundImageFix"/>
<feColorMatrix in="SourceAlpha" type="matrix" values="0 0 0 0 0 0 0 0 0 0 0 0 0 0 0 0 0 0 127 0" result="hardAlpha"/>
<feOffset dx="3" dy="3"/>
<feGaussianBlur stdDeviation="2"/>
<feComposite in2="hardAlpha" operator="out"/>
<feColorMatrix type="matrix" values="0 0 0 0 0 0 0 0 0 0 0 0 0 0 0 0 0 0 0.9 0"/>
<feBlend mode="hue" in2="BackgroundImageFix" result="effect1_dropShadow_12_41"/>
<feBlend mode="normal" in="SourceGraphic" in2="effect1_dropShadow_12_41" result="shape"/>
</filter>
</defs>
</svg>
