<svg width="499" height="504" viewBox="0 0 499 4043" fill="none" xmlns="http://www.w3.org/2000/svg">
<path d="M198.764 703.285C194.984 597.442 175.331 485.567 143.945 383.506C130.273 356.024 111.677 328.921 107.13 299.361C100.006 253.058 42.5334 236.973 40.4199 198.93C38.6373 166.843 59.8588 122.678 90.2224 98.2253C103.116 87.8416 117.658 81.0125 132.787 80.1719C164.226 78.4254 265.099 38.5918 280.868 66.9766L281.031 67.2702C316.441 131.008 370.303 227.959 370.303 304.493C370.303 433.088 370.366 562.398 383.499 687.157C392.734 774.894 431.651 865.812 393.762 951.064C373.532 996.581 373.698 1045.08 350.51 1088.88C324.977 1137.11 305.841 1191.19 304.327 1247.23C300.088 1404.06 352.139 1546.89 343.913 1703.2C339.923 1779 304.327 1847.6 304.327 1927.52V2207.55C304.327 2384.42 330.717 2568.36 330.717 2745.63C330.717 2832.21 343.913 2913.12 343.913 3002.21C343.913 3079.04 350.436 3183.7 327.785 3257.32C292.318 3372.58 309.954 3424.63 361.506 3546.15C406.957 3653.28 486.321 3725.4 449.475 3851.11C434.34 3902.74 420.115 3947.16 370.303 3972.06C350.773 3981.83 305.209 4015.73 280.868 3996.25C239.49 3963.15 180.006 3991 132.787 3946.41C86.4972 3902.69 66.8105 3863.35 66.8105 3798.32C66.8105 3733.53 61.7169 3640.4 106.397 3590.13C163.257 3526.16 145.983 3359.51 145.983 3279.31C145.983 3140.53 132.787 3004.95 132.787 2867.32C132.787 2676.81 172.373 2494.49 172.373 2299.92C172.373 2085.52 159.178 1874.37 159.178 1660.68C159.178 1512 143.137 1351.75 162.11 1204.71C173.97 1112.8 211.959 1027.37 211.959 934.203C211.959 856.689 201.524 780.566 198.764 703.285Z" fill="#F10086"/>
<path d="M172.373 40.5859C38.4107 40.5859 106.397 172.224 106.397 251.711C106.397 285.18 128.721 335.828 139.385 369.003C173.425 474.906 194.804 592.405 198.764 703.285C201.524 780.566 211.959 856.689 211.959 934.203C211.959 1027.37 173.97 1112.8 162.11 1204.71C143.137 1351.75 159.178 1512 159.178 1660.68C159.178 1874.37 172.373 2085.52 172.373 2299.92C172.373 2494.49 132.787 2676.81 132.787 2867.32C132.787 3004.95 145.983 3140.53 145.983 3279.31C145.983 3359.51 163.257 3526.16 106.397 3590.13C61.7169 3640.4 66.8105 3733.53 66.8105 3798.32C66.8105 3863.35 86.4972 3902.69 132.787 3946.41C180.006 3991 239.49 3963.15 280.868 3996.25C305.209 4015.73 350.773 3981.83 370.303 3972.06C420.115 3947.16 434.34 3902.74 449.475 3851.11C486.321 3725.4 406.957 3653.28 361.506 3546.15C309.954 3424.63 292.318 3372.58 327.785 3257.32C350.436 3183.7 343.913 3079.04 343.913 3002.21C343.913 2913.12 330.717 2832.21 330.717 2745.63C330.717 2568.36 304.327 2384.42 304.327 2207.55C304.327 2114.21 304.327 2020.86 304.327 1927.52C304.327 1847.6 339.923 1779 343.913 1703.2C352.139 1546.89 300.088 1404.06 304.327 1247.23C305.841 1191.19 324.977 1137.11 350.51 1088.88C373.698 1045.08 373.532 996.581 393.762 951.064C431.651 865.812 392.734 774.894 383.499 687.157C370.366 562.398 370.303 433.088 370.303 304.493C370.303 227.842 316.275 130.71 280.868 66.9766C265.099 38.5918 164.226 78.4254 132.787 80.1719C82.03 82.9918 37.8803 153.218 40.4199 198.93C42.5334 236.973 100.006 253.058 107.13 299.361C114.534 347.489 159.178 389.103 159.178 436.446" stroke="#FEF4F4" stroke-width="80" stroke-linecap="round"/>
</svg>
