<svg width="1440" height="1024" viewBox="0 0 1440 1024" fill="none" xmlns="http://www.w3.org/2000/svg">
<g clip-path="url(#clip0_189_18)">
<path d="M-19.8399 401.167C-17.8469 400.27 -15.7906 399.614 -13.8053 398.592C-11.5839 397.452 -9.8674 395.611 -7.59028 394.489C-1.34644 391.415 5.79788 391.325 12.4334 389.591C21.2097 387.301 29.9092 388.03 38.6548 386.228C44.2401 385.076 48.587 381.685 52.9876 378.306C58.9492 373.728 65.7307 370.213 71.4772 365.398C76.1332 361.496 79.5873 358.307 85.8254 357.739C91.4356 357.228 97.2724 354.813 101.47 351.099C105.728 347.334 110.582 342.791 115.885 340.641C121.754 338.262 126.552 338.458 131.942 334.651C139.593 329.244 146.778 323.931 154.874 319.147C160.285 315.95 164.843 311.893 170.557 309.159C176.221 306.448 181.411 302.283 186.752 298.946C193.468 294.751 200.1 290.965 206.359 286.08C218.328 276.742 232.043 269.079 244.901 261.072C250.834 257.378 256.385 252.983 262.809 250.119C268.857 247.423 274.654 247.003 280.008 242.646C284.315 239.142 288.664 235.713 292.991 232.232C295.029 230.592 297.578 226.213 300.86 227.111C302.111 227.455 303.183 228.78 304.085 229.669C308.023 233.551 311.898 237.641 315.816 241.6C320.839 246.672 326.244 251.981 332.739 255.136C338.085 257.732 343.919 259.582 349.47 261.704C357.473 264.761 362.572 270.333 368.826 275.806C375.761 281.879 383.694 286.99 391.092 292.478C397.148 296.971 401.829 301.696 406.074 307.828C409.576 312.889 412.953 316.555 418.492 319.312C422.451 321.282 425.882 324.018 430.104 325.44C436.028 327.439 438.769 332.266 443.911 335.482C450.061 339.33 456.877 336.334 463.455 335.931C465.989 335.776 468.856 336.534 471.323 335.808C473.819 335.075 477.841 331.859 479.71 329.985C483.056 326.627 483.807 322.885 488.584 326.011C491.936 328.203 494.198 328.87 498.149 329.853C504.86 331.523 510.789 334.251 517.749 335.355C524.019 336.35 530.148 337.918 536.415 338.938C542.361 339.906 548.423 338.988 554.271 340.03C558.62 340.806 563.483 342.822 567.133 345.299C573.252 349.452 575.754 347.528 582.493 345.856C586.145 344.951 587.844 345.493 591.471 346.132C595.134 346.777 599.032 346.649 602.784 347.236C605.224 347.618 607.259 347.386 609.64 347.48C612.994 347.614 616.099 348.705 619.459 348.862C625.476 349.143 631.925 349.266 637.914 348.511C651.951 346.741 666.264 347.517 680.411 347.517C685.991 347.517 691.833 348.016 697.401 347.553C700.698 347.278 703.714 346.207 706.573 348.225C708.514 349.594 711.127 353.374 712.842 355.139C717.663 360.102 723.922 363.89 729.502 367.966C735 371.983 740.745 376.217 746.837 379.287C753.937 382.866 762.09 385.684 769.555 388.539C778.736 392.049 786.748 390.882 795.966 388.798C799.009 388.111 800.78 387.238 803.84 387.201C805.944 387.176 808.049 387.197 810.153 387.197C819.167 387.197 828.779 386.274 837.665 387.777C842.117 388.53 846.305 391.22 850.847 391.195C858.28 391.154 865.841 387.556 872.461 384.772C876.716 382.983 881.124 382.015 885.459 380.493C888.696 379.356 891.855 377.753 895.157 376.825C898.431 375.906 901.81 375.858 905.061 374.919C907.683 374.16 910.053 372.822 912.698 372.114C917.343 370.871 920.565 368.566 924.748 366.235C928.252 364.284 934.978 358.854 939.319 360.557C941.706 361.494 943.944 364.931 945.935 366.601C957.367 376.194 973.294 381.211 986.979 386.107C1007.2 393.339 1028.95 398.18 1047.83 408.638C1057.99 414.265 1065.77 420.358 1069.6 431.365C1073.49 442.53 1080.45 454.484 1080.27 466.585C1080.17 473.599 1077.4 480.031 1074.49 486.25C1066.7 502.95 1052.47 516.958 1039.27 529.49C1019.14 548.598 993.281 565.492 967.086 574.873C933.486 586.906 898.051 592.608 862.464 594.121C834.013 595.331 805.468 594.782 777.014 595.863C727.029 597.76 677.347 603.061 627.663 608.544C454.604 627.645 279.085 640.703 105.968 614.969C86.244 612.037 66.4104 608.598 47.2046 603.053C21.9163 595.751 -3.4546 582.885 -24.4095 566.986C-35.797 558.344 -46.0056 548.139 -51.422 534.523C-56.7231 521.19 -58.7333 507.103 -58.4972 492.778C-58.2418 477.272 -57.5064 461.042 -54.5612 445.786C-52.6796 436.04 -46.0133 427.83 -38.821 421.475C-36.1272 419.096 -33.3336 416.83 -30.684 414.4C-29.5973 413.403 -26.8248 411.489 -26.3237 409.932C-26.0261 409.01 -26.6252 408.26 -26.4639 407.421C-26.0357 405.17 -24.6245 403.999 -22.7295 402.728C-21.7887 402.106 -20.821 401.607 -19.8399 401.167Z" fill="url(#paint0_linear_189_18)"/>
<path d="M816.257 445.592C815.558 445.264 814.823 444.989 814.051 444.776C809.694 443.576 803.255 445.024 798.687 444.891C789.083 444.613 780.845 438.2 771.677 435.81C765.006 434.07 758.085 433.304 751.507 431.263C746.409 429.681 741.613 427.225 736.94 424.67C729.148 420.411 722.4 414.162 712.994 415.615C708.891 416.249 704.914 417.452 700.84 416.032C696.697 414.586 695.683 411.431 693.475 407.868C689.46 401.392 680.102 402.563 673.344 402.569C665.537 402.574 658.005 403.932 650.246 403.84C647.706 403.809 644.993 403.529 642.491 404.07C638.922 404.842 635.539 407.355 632.44 409.191C623.408 414.542 614.634 420.394 605.727 425.916C598.721 430.259 592.026 436.23 584.622 439.797C580.531 441.769 576.222 440.473 571.906 441.245C567.308 442.069 562.456 441.737 558.341 443.876C555.957 445.116 554.434 446.533 551.422 446.166C545.906 445.494 541.87 440.252 536.475 438.659C526.625 435.75 515.399 439.636 505.918 436.149C500.398 434.12 495.938 430.028 491.301 426.557C484.658 421.584 477.417 417.529 469.415 415.243C462.614 413.3 455.491 412.528 448.869 409.98C442.782 407.637 437.028 404.621 431.301 401.54C426.316 398.857 421.132 398.062 415.998 395.912C414.048 395.094 412.264 393.913 410.302 393.095C406.773 391.625 403.023 390.985 399.454 389.601C386.642 384.632 376.798 375.145 365.497 367.796C361.117 364.948 357.684 361.78 354.495 357.704C352.853 355.605 350.885 352.263 348.418 351.472C347.706 358.783 338.665 364.85 332.795 367.778C320.935 373.694 308.772 379.077 296.697 384.546C281.074 391.623 266.281 401.958 248.941 404.498C241.119 405.644 235.25 404.777 227.683 403.358C218.064 401.555 208.347 400.935 198.624 402.175C191.748 403.052 184.997 404.172 178.064 403.352C170.1 402.409 162.946 399.362 155.14 398.053C147.675 396.801 140.008 397.874 132.616 399.239C127.614 400.163 122.628 401.601 117.707 402.903C112.274 404.339 104.78 407.363 98.8969 406.357C94.6595 405.633 91.8256 402.607 88.1756 400.689C84.4374 398.725 80.847 398.483 76.696 398.629C69.2099 398.894 61.9254 400.689 54.3913 399.952C44.8009 399.013 35.2528 391.676 28.12 385.867C11.9728 372.716 -5.76035 364.691 -25.2291 357.973C-29.0077 356.669 -35.0557 353.184 -38.7555 356.364C-40.9079 358.213 -43.4634 368.009 -43.5536 368.306C-47.768 382.028 -51.4122 395.939 -55.4615 409.713C-61.6362 430.712 -68.0951 451.724 -73.0813 473.052C-76.1475 486.169 -79.2176 500.972 -69.1818 512.06C-64.833 516.864 -58.0861 519.764 -52.2435 521.747C-43.4115 524.746 -33.8922 527.063 -24.8874 529.183C6.29533 536.523 37.7257 543.068 69.3347 548.27C107.23 554.504 145.251 560.573 183.239 566.21C222.758 572.076 263.235 577.076 303.158 579.157C385.891 583.467 469.186 578.425 551.529 570.277C602.97 565.187 653.992 556.679 705.855 558.985C718.431 559.544 730.971 560.64 743.539 561.312C757.981 562.086 769.92 557.666 782.016 549.898C792.526 543.147 801.375 534.125 808.277 523.732C813.006 516.611 815.767 508.931 818.878 501.042C820.773 496.238 824.094 491.751 825.344 486.766C826.719 481.287 828.341 476.016 828.219 470.314C828.034 461.96 824.862 449.637 816.257 445.592Z" fill="url(#paint1_linear_189_18)"/>
</g>
<defs>
<linearGradient id="paint0_linear_189_18" x1="510.882" y1="194.56" x2="510.882" y2="538.374" gradientUnits="userSpaceOnUse">
<stop stop-color="#5D6783"/>
<stop offset="1" stop-color="#F5BA9D"/>
</linearGradient>
<linearGradient id="paint1_linear_189_18" x1="376.085" y1="351.471" x2="376.085" y2="465.398" gradientUnits="userSpaceOnUse">
<stop stop-color="#5D6783"/>
<stop offset="1" stop-color="#F5BA9D"/>
</linearGradient>
<clipPath id="clip0_189_18">
<rect width="1440" height="1024" fill="white"/>
</clipPath>
</defs>
</svg>
