<svg width="1440" height="1024" viewBox="0 0 1440 1024" fill="none" xmlns="http://www.w3.org/2000/svg">
<g clip-path="url(#clip0_189_14)">
<path d="M352.118 581.436C352.911 581.215 353.72 581.036 354.557 580.939C357.533 580.595 359.441 581.146 361.952 579.869C360.9 580.405 353.23 582.311 354.011 579.134C354.322 577.872 363.277 577.532 364.758 577.605C366.524 577.692 368.223 578.272 369.993 578.318C376.759 578.5 384.054 575.06 390.332 573.007C400.51 569.68 410.709 566.193 421.334 564.596C431.718 563.033 442.028 562.526 452.408 560.867C460.345 559.6 469.284 557.077 476.158 552.59C478.038 551.363 479.224 549.637 481.282 548.625C483.183 547.69 484.673 548.322 486.465 547.788C487.912 547.356 488.016 546.039 489.214 545.42C491.28 544.355 492.359 545.797 494.047 546.477C500.026 548.886 508.537 543.007 514.627 540.728C520.197 538.643 525.229 536.059 530.949 534.611C533.036 534.083 533.904 533.401 536.035 533.935C537.682 534.348 538.418 535.844 539.641 536.78C542.92 539.29 547.315 540.498 551.192 541.97C555.677 543.675 559.45 545.175 564.276 545.219C571.893 545.286 577.824 544.818 584.986 542.005C590.181 539.964 595.455 538.318 600.637 536.204C604.934 534.452 610.207 531.742 614.905 531.136C616.581 530.919 618.478 530.997 620.177 531.072C623.169 531.205 622.449 531.508 624.553 533.303C626.938 535.337 629.95 537.105 632.559 538.937C637.941 542.713 641.699 548.408 646.598 552.788C660.678 565.371 673.058 579.543 686.682 592.612C695.19 600.772 706.364 606.826 716.511 612.713C719.931 614.696 723.519 616.338 727.044 618.121C731.276 620.264 735.54 621.337 739.845 623.15C743.664 624.759 746.504 627.744 750.084 629.716C753.629 631.669 756.787 633.481 760.065 635.828C762.344 637.46 764.859 638.041 767.074 639.852C769.95 642.202 772.567 643.239 775.622 645.23C778.965 647.409 782.484 649.352 784.669 652.708C786.378 655.333 787.835 656.817 791.074 656.573C793.901 656.36 794.066 655.402 796.424 653.922C799.676 651.881 803.453 650.395 806.826 648.377C811.29 645.706 816.332 643.83 820.577 640.823C823.363 638.85 825.761 637.031 829.185 636.311C833.677 635.367 836.344 637.413 840.269 639.237C847.511 642.601 854.686 645.967 861.915 649.363C872.191 654.19 884.31 655.316 893.455 662.237C897.047 664.956 900.426 668.709 905.053 669.397C910.145 670.153 916.541 667.517 921.51 666.732C926.087 666.01 931.801 664.267 936.428 664.412C940.116 664.53 943.353 665.803 947.174 665.547C957.776 664.843 968.717 661.344 978.777 658.207C1001.01 651.274 1023.53 641.259 1043 628.37C1049.29 624.21 1055.02 619.431 1061.49 615.541C1066.47 612.551 1071.14 609.297 1075.32 605.234C1077.01 603.593 1080.38 599.403 1082.98 599.094C1085.35 598.81 1085.41 599.849 1087.24 601.139C1091.28 603.984 1097.11 605.269 1101.71 606.484C1115.4 610.1 1129 614.652 1142.52 618.876C1170.11 627.5 1197.7 636.697 1224.57 647.338C1233.99 651.068 1245.35 657.879 1255.91 656.293C1271.5 653.952 1285.88 647.57 1300.57 642.071C1305.54 640.209 1310.04 638.441 1315.38 638.617C1319.6 638.756 1320.82 637.291 1323.98 634.62C1336.41 624.121 1347.97 613.965 1362.62 606.601C1386.11 594.789 1404.79 574.883 1424.77 558.283C1443.33 542.859 1463.69 529.701 1483.49 515.983C1488.23 512.7 1492.95 509.432 1497.45 505.819C1500.29 503.538 1503.19 500.166 1506.61 498.897C1506.47 501.754 1505.3 504.859 1504.93 507.668C1504 514.716 1503.95 521.707 1503.98 528.812C1504.05 549.7 1504.01 570.517 1503.08 591.389C1502.37 607.229 1501.48 623.065 1501.41 638.924C1501.35 652.165 1467.76 1017.81 1466.5 1031.01C1465.72 1039.17 1465.22 1047.31 1461.67 1054.81C1458.47 1061.54 1453.92 1066.44 1447.88 1070.68C1441.78 1074.08 1435.41 1076.83 1428.77 1078.92C1418.85 1082.68 1408.76 1085.93 1398.51 1088.67C1368.78 1097.48 1338.66 1105.38 1308.4 1112.09C1234.56 1128.46 1160.49 1143.03 1085.65 1153.92C982.37 1168.95 878.465 1179.98 774.002 1177.17C690.77 1174.93 607.91 1171.05 526.044 1154.75C495.973 1148.76 466.186 1141.45 436.698 1133.03C417.093 1127.64 397.939 1120.99 379.233 1113.09C362.081 1107.01 345.598 1099.44 329.787 1090.37C305.85 1074.06 283.121 1052.23 272.066 1025C265.548 1008.95 296.55 637.475 303.128 620.896C307.599 609.625 313.459 599.396 322.464 591.234C329.061 585.253 335.119 583.845 343.655 583.609C346.713 583.523 349.319 582.217 352.118 581.436Z" fill="url(#paint0_linear_189_14)"/>
</g>
<defs>
<linearGradient id="paint0_linear_189_14" x1="902.975" y1="589.96" x2="902.975" y2="728.2" gradientUnits="userSpaceOnUse">
<stop stop-color="#102D52"/>
<stop offset="1" stop-color="#124162"/>
</linearGradient>
<clipPath id="clip0_189_14">
<rect width="1440" height="1024" fill="white"/>
</clipPath>
</defs>
</svg>
