<svg width="1440" height="1024" viewBox="0 0 1440 1024" fill="none" xmlns="http://www.w3.org/2000/svg">
<g clip-path="url(#clip0_227_22)">
<path d="M1404.56 146.548C1404.54 143.526 1404.97 139.65 1406.38 136.935C1406.81 136.098 1406.82 135.935 1407.56 135.284C1408.57 134.385 1410.09 134.604 1411.01 133.863C1412.15 132.938 1413.14 130.77 1413.19 129.351C1413.26 127.711 1411.58 126.1 1412.09 124.411C1412.38 123.47 1413.11 123.297 1413.59 122.524C1415.23 119.907 1418.12 116.351 1415.8 113.388C1415.11 112.497 1413.9 111.862 1413.1 111.071C1412.04 110.032 1411.41 108.771 1410.27 107.899C1407.72 105.965 1404.55 104.56 1402.24 102.383C1400.27 100.522 1398.73 98.2681 1396.66 96.4499C1394.71 94.7449 1393.13 92.9613 1391.71 90.7878C1389.12 86.8288 1387.73 87.0918 1383.33 87.4912C1380.35 87.7619 1377.8 86.2182 1375.63 84.2214C1370.49 79.4925 1366.49 74.8576 1359.35 73.2774C1354.49 72.2041 1347.62 73.7229 1343.09 75.6697C1339.56 77.1865 1336.28 79.2928 1332.93 81.1571C1329.56 83.0368 1326.39 84.5901 1324.19 87.9347C1320.53 93.5027 1321.02 99.7485 1320.94 106.073C1320.89 110.641 1322.9 115.06 1321.78 119.724C1320.64 124.509 1317.87 124.956 1314.01 126.594C1312.3 127.316 1310.36 128.537 1309 129.766C1307.64 131 1307.15 132.636 1306.01 134.08C1305.17 135.155 1303.91 136.795 1302.69 137.446C1300.73 138.479 1297.61 137.217 1295.62 136.532C1291.94 135.265 1288.88 133.955 1284.92 133.984C1281.21 134.011 1278.34 134.917 1274.96 136.474C1270.61 138.481 1266.05 140.435 1262.43 143.594C1259.56 146.109 1257.45 148.516 1255.52 151.805C1253.59 155.117 1252.2 158.898 1249.97 161.999C1246.75 166.492 1241.2 169.694 1235.6 169.731C1231.64 169.757 1228.12 168.473 1224.61 166.804C1221.93 165.53 1219.75 164.717 1216.78 165.24C1212.13 166.06 1207.62 166.361 1202.93 166.916C1194.08 167.962 1186.21 171.935 1177.56 173.836C1170.62 175.362 1163.69 176.443 1156.66 177.426C1151.58 178.136 1146.25 180.196 1141.53 182.201C1135.81 184.632 1130.42 186.25 1124.3 187.404C1113.84 189.376 1103.26 190.755 1092.77 192.644C1086.28 193.813 1079.77 194.746 1073.4 196.49C1066.31 198.431 1059.24 198.92 1052 199.921C1042.01 201.301 1032.43 204.74 1022.41 205.957C1009.86 207.482 996.826 203.455 984.495 201.843C973.668 200.426 963.103 199.368 952.199 199.364C948.835 199.362 945.446 199.187 942.09 199.431C938.279 199.708 934.7 200.952 930.875 200.725C923 200.26 915.051 199.777 907.206 198.863C905.284 198.638 894.716 197.722 895.713 201.723C896.277 203.993 902.436 205.064 904.249 205.598C909.016 207 913.73 208.269 918.649 209.002C927.391 210.306 935.852 208.989 944.663 208.952C952.979 208.918 960.57 211.172 968.749 212.126C981.606 213.624 994.207 212.159 1007.05 211.769C1013.91 211.562 1020.66 212.7 1027.5 212.85C1033.79 212.988 1040.11 212.798 1046.4 212.8C1051.93 212.802 1057.63 212.343 1063.13 212.994C1064.65 213.174 1070.01 213.464 1070.44 215.657C1070.81 217.517 1066.2 218.698 1065.07 219.084C1059.91 220.851 1054.51 220.299 1049.17 220.996C1042.19 221.908 1035.65 223.208 1029.23 226.121C1026.17 227.511 1019.27 228.876 1017.76 232.04C1018.64 235.333 1026.09 233.937 1028.16 233.926C1036.36 233.878 1044.54 234.181 1052.71 233.367C1065.55 232.088 1078.41 231.482 1091.29 230.798C1103.58 230.147 1115.85 228.972 1128.14 228.327C1156.01 226.862 1184.29 230.443 1212.02 226.726C1226.16 224.831 1238.59 218.113 1252.43 215.242C1262.15 213.224 1271.36 213.773 1281.17 214.716C1288.54 215.425 1295.98 215.645 1303.25 217.13C1309.65 218.437 1315.59 218.554 1322.12 218.579C1327.98 218.602 1333.69 217.744 1339.51 217.554C1344.23 217.4 1349.99 216.73 1354.27 219.034C1357.06 220.538 1358.07 222.638 1357.43 225.77C1356.83 228.771 1354.79 231.547 1351.51 231.656C1347.92 231.777 1343.95 230.704 1340.38 230.318C1338.06 230.067 1335.77 229.859 1333.46 229.556C1332.12 229.379 1330.24 228.734 1329.09 229.798C1329.95 230.84 1332.08 232.203 1333.26 232.937C1337.36 235.473 1343.04 236.485 1347.69 237.103C1355.78 238.18 1363.7 236.804 1371.77 236.084C1376.94 235.621 1383.07 234.369 1388.28 235.001C1391.23 235.356 1394.13 236.111 1397.06 236.568C1404.03 237.656 1411.01 238.96 1418.08 238.785C1426.09 238.587 1434.15 237.439 1442.12 236.562C1451.08 235.575 1460.13 235.266 1469.06 233.962C1480.38 232.309 1491.45 229.057 1502.8 227.682C1513.2 226.42 1524.21 226.856 1534.64 227.688C1546.44 228.627 1558.01 227.885 1569.65 225.677C1575.37 224.591 1581.09 222.874 1586.93 222.494C1592.31 222.145 1597.72 222.362 1603.1 222.4C1612.36 222.467 1620.86 221.634 1629.97 219.971C1638.76 218.368 1647.72 217.992 1656.6 217.093C1664.03 216.34 1671.89 215.594 1679.35 215.642C1686.41 215.686 1693.61 216.11 1700.63 215.198C1703.42 214.835 1706.17 214.645 1708.98 214.714C1710.23 214.745 1712.92 215.409 1713.35 213.777C1712.8 212.679 1710.8 211.947 1709.74 211.312C1705.89 208.989 1702.13 208.04 1697.8 207.015C1692.67 205.802 1687.47 204.874 1682.37 203.586C1677.47 202.351 1672.83 200.564 1667.83 199.784C1663.99 199.183 1657.66 200.742 1654.64 197.889C1653.23 196.551 1652.33 194.5 1651.23 192.88C1649.81 190.766 1647.79 189.741 1646.31 187.886C1644.82 186.01 1645.08 183.213 1644.32 181.047C1643.64 179.098 1642.58 178.371 1640.93 177.261C1638.76 175.805 1636.4 174.753 1634.17 173.421C1631.82 172.021 1629.95 171.9 1627.38 171.284C1624.39 170.568 1621.68 169.082 1618.61 168.64C1614.57 168.058 1605.65 167.018 1603.84 162.479C1602.98 160.313 1604.46 157.333 1604.89 155.056C1605.52 151.74 1606.51 147.896 1606.08 144.55C1605.5 140.047 1603.04 136.294 1601.08 132.423C1599.37 129.059 1597.19 126.006 1595.72 122.514C1594.38 119.336 1593.18 116.788 1591.24 113.86C1589.9 111.829 1588.05 109.901 1586.84 107.801C1585.09 104.779 1585.12 101.102 1583.06 98.1971C1581.09 95.4342 1577.27 93.5123 1574.31 91.8649C1569.34 89.0963 1563.97 86.5542 1558.82 84.1139C1550.66 80.2528 1542.19 76.6432 1533.18 79.4176C1528.2 80.9536 1522.35 84.5017 1518.52 88.0307C1515.54 90.7782 1514.16 94.1478 1512.08 97.5558C1509.52 101.766 1506.42 105.624 1503.33 109.448C1501.87 111.244 1498.91 116.27 1496.58 116.739C1493.13 117.436 1491.25 112.344 1487.99 111.668C1486.68 111.395 1485.51 111.937 1484.17 112.025C1482.76 112.117 1481.27 111.988 1479.86 111.992C1477.84 111.998 1477.45 111.829 1476.49 113.839C1475.58 115.723 1474.83 117.58 1474.38 119.62C1472.69 119.235 1471.33 116.633 1470.19 115.347C1467.54 112.363 1465.02 112.119 1461.4 111.044C1454.75 109.072 1447 107.38 1440.89 111.384C1436.68 114.143 1433.74 117.497 1431 121.667C1429.07 124.618 1429.63 126.861 1429.5 130.154C1429.4 132.792 1428.06 135.393 1427.29 137.937C1426.81 139.531 1425.8 143.219 1424.44 144.463C1422.56 146.182 1418.33 146.149 1415.99 147.514C1415.53 147.785 1415.17 147.768 1414.76 148.186C1414.36 148.601 1414.35 149.555 1414.02 149.843C1413.05 150.678 1411.7 150.385 1410.27 150.392C1405.69 150.423 1404.58 148.822 1404.56 146.548Z" fill="url(#paint0_linear_227_22)"/>
<path d="M-14.2497 215.133C-12.226 213.608 -10.2119 212.045 -8.28421 210.479C-2.61255 205.871 3.52762 201.768 9.48538 197.488C14.5139 193.876 15.7273 190.242 18.5689 184.966C19.744 182.785 20.5849 181.151 22.2879 179.428C23.2787 178.428 24.6169 177.622 25.5385 176.512C27.9577 173.593 28.7103 169.677 31.0047 166.655C32.9554 164.086 34.7776 162.068 36.4364 159.243C42.2176 149.4 51.2454 141.307 62.6598 139.185C75.1417 136.866 86.1779 142.612 98.5945 142.43C103.74 142.353 108.92 141.994 113.983 143.046C119.989 144.294 126.146 148.05 131.296 151.362C137.334 155.246 144.813 159.979 147.935 166.664C151.274 173.816 152.896 182.704 153.745 190.499C154.616 198.507 156.175 205.921 156.162 214.009C156.156 217.051 156.123 220.096 156.152 223.135C156.185 226.635 156.966 227.632 158.443 230.727C160.305 234.63 160.296 239.384 163.817 242.305C168.035 245.801 174.114 247.36 179.482 247.421C182.846 247.46 185.365 246.571 188.543 245.707C191.352 244.943 192.15 244.925 194.575 246.651C196.745 248.197 198.461 249.965 200.318 251.855C201.814 253.377 204.075 254.504 205.183 256.261C207.616 260.122 207.29 265.823 207.334 270.114C207.403 276.995 211.352 282.273 214.793 287.914C217.623 292.557 217.323 297.251 218.727 302.341C220.201 307.692 222.859 312.83 226.543 317.017C233.148 324.521 243.261 323.939 250.918 329.269C258.425 334.495 267.272 337.321 276.423 338.049C282.077 338.498 288.817 337.598 294.459 336.734C299.624 335.945 304.733 333.777 308.865 330.644C317.242 324.294 321.712 314.834 331.558 310.668C339.973 307.105 348.244 303.543 355.857 298.418C359.206 296.164 362.454 293.179 366.114 291.395C369.178 289.901 373.035 289.475 376.324 288.671C385.043 286.537 392.712 281.843 401.325 279.272C405.643 277.984 410.207 277.554 414.705 278.107C419.248 278.665 421.544 280.795 424.816 283.84C427.241 286.098 429.808 287.586 432.419 289.506C435.656 291.885 436.851 297.779 438.404 301.325C439.732 304.355 440.904 307.571 443.1 310.107C445.965 313.416 448.426 315.303 450.847 319.037C455.58 326.345 462.505 329.947 471.076 330.592C474.573 330.855 478.044 331.281 481.329 332.575C484.438 333.798 486.719 336.106 490.088 336.765C499.922 338.687 509.659 334.589 518.533 341.087C522.02 343.64 524.641 346.029 528.682 347.845C534.694 350.546 539.924 351.119 546.465 351.063C552.771 351.009 559.625 350.182 565.878 351.261C570.363 352.034 574.649 354.135 579.161 354.778C583.039 355.331 585.499 355.298 589.03 357.28C592.706 359.342 595.788 362.971 598.897 365.782C602.195 368.765 603.733 369.675 607.711 371.161C612.212 372.841 614.666 376.969 618.868 379.243C624.938 382.526 631.45 378.778 637.721 379.419C642.049 379.863 646.163 380.852 650.239 382.226C654.089 383.524 658.054 385.588 661.959 386.591C667.156 387.925 672.555 388.943 677.857 389.82C681.833 390.479 687.672 390.089 691.181 392.283C691.256 395.348 684.287 396.544 682.123 397.151C672.828 399.756 662.005 400.655 652.432 401.306C637.195 402.342 621.973 403.606 606.694 403.606C582.248 403.606 557.734 401.905 533.309 400.987C503.709 399.875 474.146 398.283 444.532 397.439C406.29 396.35 368.067 396.477 329.83 395.649C291.51 394.82 253.473 391.577 215.094 391.898C175.759 392.228 136.708 393.497 97.383 391.7C67.9321 390.354 38.4236 389.739 8.99579 388.09C-18.5159 386.548 -45.7607 382.372 -73.1956 380.043C-111.165 376.82 -149.65 376.643 -187.745 376.633C-201.025 376.63 -214.306 376.601 -227.587 376.63C-239.333 376.655 -251.214 376.958 -262.867 375.099C-270.284 373.917 -277.484 371.833 -284.949 370.814C-289.576 370.182 -293.729 370.392 -298.154 368.98C-285.402 367.149 -273.701 361.487 -261.189 358.716C-253.712 357.059 -246.698 355.026 -239.435 352.597C-234.047 350.796 -227.827 349.465 -223.313 345.833C-216.481 340.334 -215.176 332.546 -210.305 325.915C-206.146 320.255 -198.443 318.173 -194.478 312.386C-191.646 308.255 -190.12 303.182 -189.123 298.326C-187.082 288.39 -184.475 279.268 -179.07 270.492C-172.051 259.093 -164.513 248.99 -152.096 243.337C-144.769 240.002 -136.438 238.687 -128.616 237.003C-122.709 235.732 -117.505 235.633 -111.519 237.028C-102.727 239.079 -93.3402 240.233 -85.1629 244.159C-79.3319 246.959 -74.5492 251.995 -68.2247 253.519C-64.9588 254.306 -61.2628 255.28 -57.8605 254.84C-55.2205 254.498 -49.3953 253.798 -47.2103 252.281C-45.4957 251.09 -44.7815 248.806 -43.8733 247.064C-42.4852 244.399 -41.673 243.113 -39.6359 240.876C-35.2007 236.011 -32.2612 230.445 -28.185 225.422C-27.1847 224.189 -26.0807 223.043 -24.8058 222.091C-22.6593 220.484 -20.1383 219.458 -17.9648 217.874C-16.7322 216.985 -15.49 216.066 -14.2497 215.133Z" fill="url(#paint1_linear_227_22)"/>
<path d="M-35.0741 185.832C-33.8511 185.519 -32.6357 185.208 -31.6008 184.67C-27.5016 182.55 -22.8418 181.805 -18.1666 182.237C-3.06003 183.629 9.10123 191.54 21.1108 200.249C30.1233 206.785 36.54 217.252 39.3969 227.857C41.1902 234.513 41.6049 241.535 42.0715 248.408C42.2981 251.741 41.3745 254.677 41.2267 257.962C41.1096 260.543 41.2824 263.206 41.2805 265.792C41.2766 271.012 40.9982 276.3 41.2344 281.513C41.4168 285.541 41.8161 290.147 44.7134 293.094C46.4529 294.865 48.3115 297.217 50.3563 298.637C53.4034 300.757 57.6446 302.257 60.9912 304.002C65.7816 306.5 71.7144 308.602 77.1556 308.886C81.1723 309.096 82.6584 307.352 85.6593 304.941C89.052 302.214 91.5345 301.661 95.9332 302.303C101.342 303.092 106.438 304.008 111.428 301.164C114.287 299.534 116.155 296.955 119.027 295.341C122.717 293.265 126.327 291.587 130.522 290.781C135.253 289.871 142.027 287.102 146.759 288.987C152.364 291.218 156.951 295.725 161.81 299.15C176.182 309.284 170.281 329.194 175.11 343.496C176.71 348.235 180.699 351.015 184.518 353.922C190.182 358.232 196.524 362.635 203.096 365.365C208.157 367.467 214.336 366.396 219.672 366.402C224.633 366.408 229.197 366.377 234.096 367.149C237.591 367.698 241.175 366.811 244.631 367.295C248.89 367.892 252.12 371.162 254.208 374.746C256.896 379.358 258.882 384.659 260.988 389.565C263.177 394.664 261.94 398.758 256.877 401.448C248.904 405.683 238.789 403.295 230.276 403.009C211.302 402.375 192.431 401.219 173.444 402.442C146.932 404.151 120.649 406.814 94.0478 406.808C61.5461 406.801 29.4667 404.26 -2.79504 400.451C-28.3694 397.433 -53.4908 391.208 -78.4546 385.034C-99.0351 379.944 -120.232 379.732 -141.271 378.317C-159.832 377.069 -178.164 373.999 -196.696 372.523C-213.281 371.202 -229.658 368.257 -246.272 367.308C-263.237 366.338 -280.009 366.803 -296.918 368.731C-303.44 369.474 -309.782 370.849 -316.239 371.989C-321.776 373.13 -327.371 373.719 -333.024 373.761C-335.936 374.274 -338.713 374.026 -341.351 373.014C-330.593 369.556 -318.024 367.108 -309.623 359.138C-304.275 354.066 -302.041 348.354 -300.407 341.434C-299.998 339.7 -299.122 338.523 -297.982 337.17C-294.169 332.648 -291.306 327.833 -288.278 322.714C-286.508 319.723 -285.056 317.027 -284.131 313.677C-283.071 309.841 -282.835 305.92 -281.303 302.209C-280.644 300.611 -279.84 298.432 -278.538 297.213C-276.441 295.252 -272.676 294.726 -270.213 293.377C-267.588 291.938 -265.04 290.328 -262.978 288.154C-259.482 284.466 -258.51 280.484 -257.205 275.661C-254.146 264.362 -247.881 253.859 -238.855 246.196C-234.695 242.664 -230.115 240.11 -224.711 239.021C-217.996 237.67 -210.14 237.213 -203.314 236.927C-183.427 236.093 -167.498 250.778 -147.968 252.008C-143.84 252.269 -136.901 251.745 -135.763 246.966C-135.118 244.259 -135.302 241.452 -134.538 238.741C-133.403 234.719 -130.707 232.029 -127.804 229.147C-124.055 225.424 -120.08 222.442 -115.877 219.266C-112.757 216.909 -109.946 214.155 -106.688 211.982C-104.507 210.527 -102.629 209.181 -101.015 207.065C-98.5704 203.862 -96.7119 201.994 -93.1618 200.022C-90.5602 198.577 -88.0143 196.946 -84.8885 197.473C-81.9836 197.96 -80.1077 200.095 -77.844 201.731C-73.643 204.767 -69.6879 201.025 -65.2642 199.796C-62.2747 198.966 -59.4312 198.742 -56.4207 197.705C-54.1992 196.941 -51.6034 196.824 -49.4895 195.794C-47.7404 194.944 -46.6805 193.339 -44.9295 192.584C-44.148 192.248 -43.3935 192.509 -42.6197 191.92C-41.6213 191.158 -41.4485 189.798 -40.7688 188.813C-39.4805 186.955 -37.2629 186.39 -35.0741 185.832Z" fill="url(#paint2_linear_227_22)"/>
<path d="M804.872 322.822C804.465 323.016 803.975 322.916 803.347 322.284C802.276 321.205 802.593 319.961 802.28 318.523C802.142 317.887 801.681 317.452 801.679 316.86C801.679 316.286 802.23 315.455 802.266 314.754C802.359 312.984 802.841 311.511 802.956 309.806C803.144 307.028 802.981 298.901 798.824 299.542C795.85 300.001 790.775 302.86 788.85 298.96C787.563 296.357 790.735 292.603 788.452 290.239C787.546 289.301 786.098 288.684 785.081 287.834C783.644 286.632 782.761 286.127 781.026 285.585C779.874 285.226 778.576 284.587 777.372 284.491C776.204 284.399 775.091 284.915 773.956 285.078C772.159 285.34 771.491 286.017 770.137 287.123C767.476 289.297 763.89 290.009 760.81 291.322C759.107 292.048 757.256 291.956 755.49 292.401C753.637 292.868 752.656 294.026 751.496 295.462C750.048 297.255 748.798 299.048 748.274 301.324C747.522 304.595 747.466 308.082 747.111 311.409C746.817 314.145 746.686 315.474 743.674 315.439C740.832 315.405 736.324 314.566 733.861 316.236C731.839 317.607 730.057 319.508 728.258 321.151C726.636 322.632 724.664 323.663 723.078 325.226C720.603 327.664 719.017 330.523 718.195 333.902C717.305 337.567 717.418 340.906 713.975 343.316C712.347 344.454 710.203 344.886 708.259 345.042C705.733 345.244 704.007 344.332 701.634 343.852C699.948 343.51 697.632 343.433 695.958 343.805C693.395 344.374 691.425 346.409 688.921 347.235C685.557 348.342 682 348.319 678.57 349.047C675.66 349.665 673.072 350.641 670.309 351.685C666.857 352.993 663.278 352.659 659.68 352.689C658.403 352.699 657.272 352.67 656.072 353.19C654.922 353.69 654.271 354.542 653.05 354.828C650.41 355.443 647.589 354.062 644.992 354.016C642.594 353.972 640.238 354.742 637.836 354.815C635.384 354.89 632.97 354.6 630.521 354.915C626.855 355.387 623.307 356.188 619.914 357.57C616.449 358.981 610.883 358.572 607.317 358.125C601.845 357.439 596.49 355.585 590.98 354.897C587.607 354.477 584.105 354.784 580.716 354.767C577.398 354.749 574.234 354.678 570.97 355.383C563.607 356.971 556.345 359.465 548.874 360.554C544.912 361.13 541.212 360.748 537.251 360.467C531.487 360.058 525.715 360.21 519.94 359.799C509.081 359.025 498.336 358.925 487.456 358.92C479.891 358.916 472.43 358.662 464.878 358.348C458.21 358.071 451.408 359.164 444.828 360.101C441.118 360.629 437.754 361.362 434.191 362.531C431.011 363.574 426.649 364.511 424.243 367.082C420.849 370.71 428.844 371.336 431.004 371.407C439.826 371.693 448.645 369.086 457.383 370.588C463.82 371.693 470.153 373.769 476.673 374.341C483.882 374.975 491.086 373.326 498.29 373.395C506.072 373.468 513.516 372.108 521.255 371.482C529.298 370.833 537.642 371.173 545.712 371.294C553.481 371.409 561.114 374.706 568.935 373.986C573.053 373.608 577.525 372.849 581.415 374.931C581.662 379.589 566.521 378.609 567.654 382.278C570.78 383.484 575.027 381.741 578.083 381.153C581.309 380.535 584.665 380.355 587.922 379.911C592.151 379.335 595.314 380.746 599.355 381.555C606.192 382.922 613.319 382.645 620.226 383.78C630.238 385.425 640.036 384.557 650.049 383.5C659.724 382.478 670.107 380.531 679.817 382.088C687.671 383.35 695.432 383.469 703.306 384.281C707.735 384.738 712.055 385.101 716.506 385.157C720.319 385.205 724.026 384.093 727.886 384.415C730.061 384.596 732.519 384.761 732.565 387.211C732.58 387.983 732.284 388.757 732.908 389.26C733.742 389.932 735.952 388.776 736.887 388.649C739.961 388.236 743.307 388.589 746.412 388.589C748.493 388.589 750.572 388.588 752.654 388.605C756.559 388.639 760.368 387.904 764.262 387.827C768.876 387.737 773.538 388.609 778.178 388.618C782.437 388.626 786.661 388.63 790.881 387.983C796.57 387.111 802.044 385.262 807.765 384.415C813.358 383.588 818.957 382.868 824.606 382.534C835.959 381.86 847.308 381.199 858.661 380.481C864.665 380.101 870.645 379.556 876.666 379.602C883.559 379.654 890.477 379.055 897.356 379.331C904.885 379.635 912.294 379.928 919.797 378.978C925.914 378.202 932.007 377.179 938.087 376.156C942.313 375.445 946.339 374.764 950.635 374.762C953.945 374.76 956.738 375.328 959.97 376.015C961.882 376.422 964.076 377.204 966.023 376.737C966.392 376.649 968.337 375.992 968.441 375.309C968.652 373.903 964.067 373.464 963.103 373.256C963.203 372.381 964.412 372.27 964.478 371.338C964.522 370.701 963.253 368.919 963.153 368.138C962.736 364.814 964.85 361.427 965.668 358.351C966.306 355.951 967.314 352.397 965.785 350.293C965.048 349.279 963.9 348.677 963.164 347.638C962.385 346.538 961.966 345.019 961.582 343.731C960.718 340.839 960.624 337.548 961.112 334.561C961.548 331.896 961.911 329.784 961.162 327.155C960.843 326.04 960.361 325.076 959.922 324.012C959.263 322.421 959.148 320.42 958.078 319.051C954.411 314.357 950.83 309.871 946.466 305.765C944.212 303.643 942.594 302.858 939.527 302.462C933.629 301.702 927.963 303.718 922.309 305.077C918.772 305.928 914.794 306.604 912.786 309.992C912.064 311.21 911.618 312.736 911.225 314.099C910.883 315.282 910.818 317.784 910.119 318.832C908.072 321.902 904.735 317.663 904.339 315.29C903.477 310.098 907.11 305.551 907.166 300.396C907.208 296.6 907.838 292.977 908.339 289.203C908.909 284.911 909.959 281.538 907.617 277.541C905.962 274.716 904.026 272.504 902.786 269.427C901.171 265.42 900.714 261.142 898.864 257.225C895.271 249.626 887.223 243.772 879.216 241.529C875.395 240.458 871.498 241.362 867.648 241.949C860.965 242.971 854.262 245.152 848.423 248.575C844.672 250.776 840.751 252.73 837.894 256.065C836.387 257.824 834.622 259.646 833.87 261.893C833.082 264.241 833.336 266.802 833.317 269.223C833.275 274.449 832.051 279.683 832.309 284.888C832.382 286.382 832.445 287.757 832.218 289.251C831.786 292.115 831.234 295.721 827.755 296.14C824.21 296.566 820.679 296.633 817.358 298.296C815.578 299.189 813.888 300.748 813.013 302.583C812.204 304.277 812.7 306.294 812.281 308.136C811.705 310.666 810.463 312.671 808.992 314.735C808.318 315.679 807.543 316.355 807.191 317.511C806.807 318.774 806.823 319.727 806.208 320.957C805.834 321.727 805.431 322.553 804.872 322.822Z" fill="url(#paint3_linear_227_22)"/>
</g>
<defs>
<linearGradient id="paint0_linear_227_22" x1="1304.49" y1="249.161" x2="1304.49" y2="99.7565" gradientUnits="userSpaceOnUse">
<stop stop-color="#FBB294" stop-opacity="0"/>
<stop offset="1" stop-color="#FFEFEE"/>
</linearGradient>
<linearGradient id="paint1_linear_227_22" x1="196.515" y1="420.16" x2="196.515" y2="181.499" gradientUnits="userSpaceOnUse">
<stop stop-color="#FBB294" stop-opacity="0"/>
<stop offset="1" stop-color="#FFEFEE"/>
</linearGradient>
<linearGradient id="paint2_linear_227_22" x1="-39.6604" y1="420.838" x2="-39.6604" y2="218.468" gradientUnits="userSpaceOnUse">
<stop stop-color="#FBB294" stop-opacity="0"/>
<stop offset="1" stop-color="#FFEFEE"/>
</linearGradient>
<linearGradient id="paint3_linear_227_22" x1="695.939" y1="381" x2="695.939" y2="277.433" gradientUnits="userSpaceOnUse">
<stop stop-color="#FBB294" stop-opacity="0"/>
<stop offset="1" stop-color="#FFEFEE"/>
</linearGradient>
<clipPath id="clip0_227_22">
<rect width="1440" height="1024" fill="white"/>
</clipPath>
</defs>
</svg>
