<svg width="1440" height="1024" viewBox="0 0 1440 1024" fill="none" xmlns="http://www.w3.org/2000/svg">
<g clip-path="url(#clip0_189_20)">
<path d="M738.879 552.262C740.851 551.031 743.08 550.313 745.667 550.521C750.111 550.876 754.268 553.001 758.74 553.45C765.734 554.153 773.508 553.151 780.338 551.615C785.025 550.563 789.164 548.232 793.645 546.669C797.474 545.333 801.195 544.373 804.952 542.729C816.006 537.898 827.747 533.953 837.521 526.718C844.612 521.471 851.637 516.636 858.847 511.639C862.351 509.21 865.887 507.881 869.117 504.988C871.279 503.05 875.873 497.686 878.792 497.223C880.837 496.899 881.476 498.402 882.553 499.817C884.448 502.304 886.462 504.126 888.893 506.192C892.7 509.431 895.797 512.741 900.467 514.663C904.892 516.485 909.631 516.901 913.959 519.011C921.658 522.765 928.618 527.523 936.991 529.652C940.543 530.556 943.619 530.288 947.202 530.485C951.188 530.704 954.701 531.883 958.779 531.849C962.525 531.818 967.218 532.522 970.881 531.726C972.916 531.284 973.821 530.583 976.002 530.543C977.889 530.508 979.671 530.731 981.478 530.266C987.247 528.78 991.375 522.333 996.323 519.031C1001.82 515.362 1007.84 512.942 1012.82 508.511C1018.02 503.886 1023.59 499.75 1029.12 495.514C1039.08 487.888 1049.28 480.777 1059.2 473.112C1070.53 464.362 1081.11 454.634 1092.13 445.5C1098.67 440.086 1104.65 434.103 1111.01 428.499C1118.18 422.186 1124.61 415.02 1131.85 408.821C1138.85 402.823 1146.44 397.541 1153.75 391.936C1159.69 387.386 1164.39 381.754 1170.04 376.937C1174.12 373.454 1175.86 372.227 1180.1 374.72C1182.41 376.075 1184.98 377.118 1187.43 378.174C1192.51 380.364 1196.95 383.58 1201.83 386.165C1206.86 388.834 1212.01 391.796 1216.91 394.714C1223.37 398.57 1228.77 404.303 1234.89 408.702C1241.18 413.221 1247.71 417.745 1254.44 421.593C1261.73 425.755 1270.06 426.631 1277.42 430.699C1286.84 435.898 1296.08 443.365 1307.18 443.603C1319.47 443.866 1331.74 444.448 1343.75 447.607C1347.78 448.666 1351.08 451.214 1355.17 452.211C1359.16 453.184 1363.16 453.808 1367.26 453.81C1374.62 453.812 1381.65 450.659 1388.86 451.166C1393.36 451.481 1395.49 455.125 1399.19 457.504C1413.42 466.655 1428.94 473.843 1443.72 482.038C1453.02 487.195 1462.63 491.465 1472.96 493.996C1478.22 495.284 1482.87 494.328 1488.19 493.483C1497.39 492.022 1506.49 490.186 1515.3 487.091C1522.97 484.398 1530.43 481.047 1538.1 478.304C1541.76 476.994 1547.07 474.448 1551.19 475.397C1553.8 475.998 1555.4 477.827 1556.55 480.314C1557.71 482.841 1557.73 485.68 1558.05 488.386C1559.16 497.882 1560.47 507.378 1561.89 516.83C1564.62 534.878 1566.73 552.992 1569.01 571.101C1572.08 595.527 1574.36 621.566 1567.96 645.71C1565.12 656.403 1479.54 1077.13 1472.97 1086.12C1462.95 1099.82 1449.88 1110.42 1435.42 1119.1C1420.69 1127.94 1405.04 1133.26 1388.6 1137.96C1364.28 1144.91 1339.64 1150.83 1314.96 1156.38C1254.03 1170.06 1191.84 1175.2 1129.63 1178.75C1075.41 1181.85 1021.39 1184.64 967.061 1184.22C921.455 1183.86 875.204 1179.82 830.865 1168.64C797.271 1160.17 762.393 1150.24 733.22 1131.13C712.778 1117.75 695.895 1101.12 678.225 1084.51C667.489 1074.42 657.881 1062.88 649.147 1051C641.891 1041.14 715.528 621.271 712.404 609.251C710.177 600.677 707.735 590.62 710.289 581.868C711.815 576.638 713.501 572.462 718.022 569.392C723.448 565.708 729.162 562.417 733.419 557.327C735.039 555.394 736.821 553.548 738.879 552.262Z" fill="url(#paint0_linear_189_20)"/>
<path d="M673.032 558.193C681.633 556.28 690.173 558.782 698.633 560.51C705.03 561.818 711.163 564.005 717.583 565.212C723.557 566.335 729.674 567.132 735.762 567.159C740.631 567.18 745.517 565.61 750.362 566.082C753.733 566.41 756.523 568.209 759.814 568.793C762.573 569.283 765.939 569.607 768.698 569.58C772.584 569.542 774.703 567.674 778.094 566.241C780.628 565.172 783.806 564.582 786.569 564.312C788.923 564.081 790.908 564.678 792.959 565.727C795.553 567.054 796.422 567.261 799.374 566.163C807.868 563.002 817.5 559.435 824.844 553.961C826.709 555.299 828.366 556.766 830.383 557.885C832.709 559.174 835.116 559.955 837.639 560.765C842.145 562.211 846.337 564.139 850.595 566.197C858.512 570.024 867.261 570.448 875.118 574.242C880.329 576.757 885.284 579.737 890.382 582.465C895.748 585.336 901.074 586.764 907.07 587.761C917.06 589.42 926.99 589.998 936.757 592.912C940.202 593.939 943.564 595.356 946.864 596.779C950.576 598.38 953.646 601.039 957.332 602.629C959.937 603.752 962.981 604.839 965.784 605.296C968.833 605.793 971.934 605.227 974.994 605.519C977.544 605.763 979.986 606.646 982.561 606.396C985.673 606.097 988.941 604.576 991.794 603.353C997.721 600.813 1004.74 596.257 1011.35 597.236C1013.74 597.589 1015.93 597.81 1018.05 598.749C1023.23 601.047 1026.92 605.532 1031.93 608.153C1036.52 610.551 1043.81 612.991 1049.04 613.208C1054.87 613.448 1060.37 607.619 1064.78 604.522C1070.36 600.6 1076.03 597.067 1082.32 594.406C1088.88 591.629 1095.78 590.343 1102.61 588.425C1114.67 585.036 1125.89 579.591 1137.76 575.672C1151.65 571.086 1165.95 567.812 1179.83 563.227C1194.82 558.27 1206.02 545.92 1218.31 536.491C1228.97 528.314 1239.26 519.29 1250.85 512.403C1252.08 511.667 1254.35 509.83 1255.77 509.569C1257.05 509.333 1256.79 509.743 1257.75 510.102C1259.91 510.907 1261.73 512.562 1263.76 513.628C1267.22 515.448 1270.73 517.268 1274.22 519.046C1284.63 524.347 1296.71 525.495 1307.47 530.038C1313.15 532.434 1319.07 534.239 1324.68 536.767C1331.11 539.663 1337.05 543.395 1342.92 547.278C1347.16 550.083 1351.75 552.193 1356.27 554.502C1361.06 556.954 1365.87 559.542 1371.42 559.569C1375.52 559.589 1379.57 558.233 1383.6 557.655C1388.11 557.006 1392.69 556.543 1397.25 556.44C1400.63 556.363 1403.9 556.277 1407.12 557.392C1409.88 558.346 1412.38 559.448 1415.36 559.521C1419.89 559.631 1424.25 557.991 1428.52 556.714C1434.45 554.942 1440.57 554.044 1446.53 552.383C1454.52 550.15 1464.44 547.057 1471.02 553.763C1474.99 557.811 1477.66 563.212 1480.16 568.244C1485.18 578.366 1490.08 588.565 1494.21 599.087C1497.33 607.011 1500.28 615.1 1502.47 623.329C1504.91 632.443 1502.15 640.637 1496.33 647.828C1489.85 655.819 1437.29 1051.88 1428.52 1057C1418.75 1062.7 1408.61 1067.82 1398.21 1072.29C1368.74 1084.99 1337.38 1093.19 1306.39 1101.18C1290.55 1105.26 1274.56 1109.36 1258.48 1112.38C1237.86 1116.26 1216.97 1118.31 1196.13 1120.48C1164.63 1123.75 1133.15 1127.07 1101.61 1129.93C1028.88 1136.53 956.307 1144.58 883.29 1147.34C850.558 1148.57 817.645 1150.24 784.982 1147.18C755.282 1144.41 725.545 1138.8 698.878 1124.99C668.715 1109.36 638.611 1089.33 620.377 1059.84C610.654 1044.11 653.2 635.672 652.743 617.599C652.524 608.936 654.665 600.744 657.088 592.486C659.438 584.477 661.195 576.262 664.321 568.499C665.212 566.287 666.248 564.072 667.233 561.921C667.437 561.478 667.254 560.998 667.587 560.57C668.693 559.145 671.1 558.646 672.748 558.26C672.842 558.235 672.938 558.214 673.032 558.193Z" fill="url(#paint1_linear_189_20)"/>
</g>
<defs>
<linearGradient id="paint0_linear_189_20" x1="1140.63" y1="397.12" x2="1140.63" y2="508.584" gradientUnits="userSpaceOnUse">
<stop stop-color="#2F4C6D"/>
<stop offset="1" stop-color="#3C5473"/>
</linearGradient>
<linearGradient id="paint1_linear_189_20" x1="1078.04" y1="597.76" x2="1078.04" y2="672.739" gradientUnits="userSpaceOnUse">
<stop stop-color="#2F4C6D"/>
<stop offset="1" stop-color="#3C5473"/>
</linearGradient>
<clipPath id="clip0_189_20">
<rect width="1440" height="1024" fill="white"/>
</clipPath>
</defs>
</svg>
