<svg width="1440" height="1024" viewBox="0 0 1440 1024" fill="none" xmlns="http://www.w3.org/2000/svg">
<path d="M254.773 371.945V283.505H288.973V314.585H306.013V283.505H340.213V371.945H306.013V338.105H288.973V371.945H254.773ZM347.476 371.945L367.036 283.505H426.196L445.636 371.945H409.876L407.836 358.865H385.276L383.236 371.945H347.476ZM388.756 337.145H404.356L399.076 303.785H394.036L388.756 337.145ZM464.938 371.945L451.618 360.545V294.905L464.938 283.505H523.258L536.578 294.905V320.585H501.538V301.865H485.818V353.585H501.778V334.505H536.938V360.545L523.618 371.945H464.938ZM547.625 371.945V283.505H581.825V314.825L602.105 283.505H640.985L610.985 324.305L640.145 371.945H601.745L581.825 334.145V371.945H547.625Z" fill="#F72585"/>
<path d="M679.939 493.067L653.339 461.987V428.387H732.019V451.907H772.059V410.467H707.659V365.107H772.059V327.867H732.019V350.827H653.339V317.787L679.939 286.707H825.819L852.419 317.787V365.107L829.459 387.787L852.419 410.187V461.987L825.819 493.067H679.939ZM880.403 493.067V440.707H941.443V493.067H880.403ZM1003.21 493.067L972.134 466.467V313.307L1003.21 286.707H1140.97L1172.05 313.307V466.467L1140.97 493.067H1003.21ZM1051.93 450.227H1092.25V329.547H1051.93V450.227Z" fill="#F72585"/>
<path d="M288.553 489.799L270.793 474.599V433.159H316.393V465.319H335.113V371.879H380.553V474.599L362.793 489.799H288.553ZM396.5 489.799V371.879H437.78L463.54 429.479V371.879H504.5V489.799H463.54L437.62 429.639L437.46 489.799H396.5ZM538.323 489.799L520.563 474.599V371.879H566.163V465.319H587.443V371.879H633.043V474.599L615.283 489.799H538.323Z" fill="#F72585"/>
<path d="M261.773 382.481V294.041H295.973V325.121H313.013V294.041H347.213V382.481H313.013V348.641H295.973V382.481H261.773ZM354.476 382.481L374.036 294.041H433.196L452.636 382.481H416.876L414.836 369.401H392.276L390.236 382.481H354.476ZM395.756 347.681H411.356L406.076 314.321H401.036L395.756 347.681ZM471.938 382.481L458.618 371.081V305.441L471.938 294.041H530.258L543.578 305.441V331.121H508.538V312.401H492.818V364.121H508.778V345.041H543.938V371.081L530.618 382.481H471.938ZM554.625 382.481V294.041H588.825V325.361L609.105 294.041H647.985L617.985 334.841L647.145 382.481H608.745L588.825 344.681V382.481H554.625Z" fill="#00ADEE"/>
<path d="M687.248 503.604L660.648 472.524V438.924H739.328V462.444H779.368V421.004H714.968V375.644H779.368V338.404H739.328V361.364H660.648V328.324L687.248 297.244H833.128L859.728 328.324V375.644L836.768 398.324L859.728 420.724V472.524L833.128 503.604H687.248ZM887.713 503.604V451.244H948.753V503.604H887.713ZM1010.52 503.604L979.443 477.004V323.844L1010.52 297.244H1148.28L1179.36 323.844V477.004L1148.28 503.604H1010.52ZM1059.24 460.764H1099.56V340.084H1059.24V460.764Z" fill="#00ADEE"/>
<path d="M295.553 500.335L277.793 485.135V443.695H323.393V475.855H342.113V382.415H387.553V485.135L369.793 500.335H295.553ZM403.5 500.335V382.415H444.78L470.54 440.015V382.415H511.5V500.335H470.54L444.62 440.175L444.46 500.335H403.5ZM545.323 500.335L527.563 485.135V382.415H573.163V475.855H594.443V382.415H640.043V485.135L622.283 500.335H545.323Z" fill="#00ADEE"/>
<path d="M269.773 394.189V305.749H303.973V336.829H321.013V305.749H355.213V394.189H321.013V360.349H303.973V394.189H269.773ZM362.476 394.189L382.036 305.749H441.196L460.636 394.189H424.876L422.836 381.109H400.276L398.236 394.189H362.476ZM403.756 359.389H419.356L414.076 326.029H409.036L403.756 359.389ZM479.938 394.189L466.618 382.789V317.149L479.938 305.749H538.258L551.578 317.149V342.829H516.538V324.109H500.818V375.829H516.778V356.749H551.938V382.789L538.618 394.189H479.938ZM562.625 394.189V305.749H596.825V337.069L617.105 305.749H655.985L625.985 346.549L655.145 394.189H616.745L596.825 356.389V394.189H562.625Z" fill="white"/>
<path d="M695.37 515.311L668.77 484.231V450.631H747.45V474.151H787.49V432.711H723.09V387.351H787.49V350.111H747.45V373.071H668.77V340.031L695.37 308.951H841.25L867.85 340.031V387.351L844.89 410.031L867.85 432.431V484.231L841.25 515.311H695.37ZM895.835 515.311V462.951H956.875V515.311H895.835ZM1018.65 515.311L987.566 488.711V335.551L1018.65 308.951H1156.41L1187.49 335.551V488.711L1156.41 515.311H1018.65ZM1067.37 472.471H1107.69V351.791H1067.37V472.471Z" fill="white"/>
<path d="M303.553 512.043L285.793 496.843V455.403H331.393V487.563H350.113V394.123H395.553V496.843L377.793 512.043H303.553ZM411.5 512.043V394.123H452.78L478.54 451.723V394.123H519.5V512.043H478.54L452.62 451.883L452.46 512.043H411.5ZM553.323 512.043L535.563 496.843V394.123H581.163V487.563H602.443V394.123H648.043V496.843L630.283 512.043H553.323Z" fill="white"/>
</svg>
