<?xml version="1.0" standalone="no"?>
<!DOCTYPE svg PUBLIC "-//W3C//DTD SVG 20010904//EN"
 "http://www.w3.org/TR/2001/REC-SVG-20010904/DTD/svg10.dtd">
<svg version="1.0" xmlns="http://www.w3.org/2000/svg"
 width="537.000000pt" height="537.000000pt" viewBox="0 0 537.000000 537.000000"
 preserveAspectRatio="xMidYMid meet">
<metadata>
Created by potrace 1.14, written by Peter Selinger 2001-2017
</metadata>
<g transform="translate(0.000000,537.000000) scale(0.100000,-0.100000)"
fill="#000000" stroke="none">
<path d="M2588 5225 c-2 -1 -50 -5 -108 -8 -128 -7 -207 -19 -370 -52 -158
-32 -145 -29 -248 -61 -283 -87 -593 -242 -817 -409 -319 -237 -575 -532 -753
-866 -84 -158 -194 -438 -216 -554 -2 -11 -12 -56 -21 -100 -9 -44 -19 -98
-21 -120 -3 -22 -7 -51 -10 -65 -17 -95 -23 -360 -10 -509 35 -410 175 -808
405 -1152 318 -474 774 -826 1331 -1026 141 -50 335 -101 460 -119 19 -3 49
-7 65 -11 17 -3 41 -7 55 -8 14 -1 63 -6 110 -10 195 -19 495 -9 675 21 17 3
41 7 55 9 20 3 188 39 225 49 372 98 736 281 1030 519 359 290 654 705 796
1117 57 165 99 332 114 449 4 30 8 62 10 72 2 10 7 60 11 111 67 901 -371
1764 -1155 2276 -379 248 -830 402 -1281 438 -74 5 -328 13 -332 9z m317 -89
c44 -3 91 -8 105 -11 14 -2 43 -6 65 -9 69 -8 118 -17 185 -32 36 -9 73 -17
82 -19 65 -14 232 -66 303 -94 145 -59 248 -106 335 -154 474 -263 831 -635
1060 -1102 122 -249 184 -454 225 -745 16 -114 21 -330 11 -465 -6 -78 -26
-226 -31 -235 -2 -3 -6 -22 -9 -44 -30 -187 -129 -459 -244 -671 -41 -75 -182
-292 -206 -318 -6 -7 -29 -35 -50 -62 -43 -54 -265 -279 -331 -334 -332 -281
-775 -488 -1220 -570 -237 -43 -515 -58 -725 -37 -41 4 -82 8 -90 8 -16 1
-217 33 -264 43 -68 14 -249 66 -346 101 -402 141 -823 428 -1089 744 -25 30
-52 61 -59 68 -28 30 -152 212 -201 295 -185 315 -308 720 -321 1054 -6 168 0
366 14 440 3 11 8 43 11 70 12 86 55 255 92 368 264 796 953 1422 1802 1635
64 16 136 32 161 35 24 4 47 8 51 10 3 2 34 7 70 11 35 3 67 8 71 10 4 3 51 7
105 10 54 4 99 7 100 8 5 4 264 -2 338 -8z"/>
<path d="M1135 4092 c-69 -22 -153 -108 -179 -181 -18 -52 -19 -97 -19 -1078
0 -563 2 -1026 5 -1029 4 -3 38 -5 77 -5 l71 0 0 -39 0 -40 198 0 c188 0 201
1 242 23 29 15 51 36 64 62 20 38 21 57 22 395 1 195 2 358 3 361 0 3 159 6
351 6 l350 0 0 -383 0 -383 78 -3 77 -3 -2 -38 -1 -39 151 4 c129 3 159 6 198
25 60 27 119 86 150 149 l24 49 3 1045 2 1045 -77 0 -78 0 1 38 1 38 -233 -3
-234 -3 -27 -28 -28 -27 -3 -440 c-2 -408 -4 -440 -20 -441 -91 -5 -674 0
-680 5 -4 4 -8 195 -8 424 -1 230 -2 422 -3 427 0 6 -32 9 -76 8 l-75 -2 0 39
0 40 -137 -1 c-100 0 -152 -5 -188 -17z"/>
<path d="M3733 3299 c-21 -10 -48 -34 -58 -51 -19 -32 -20 -60 -25 -808 l-5
-775 -23 -33 c-46 -63 -48 -64 -428 -64 -313 0 -344 -1 -345 -16 0 -10 -1 -97
0 -194 0 -188 4 -211 53 -254 12 -12 33 -25 46 -29 12 -3 22 -13 22 -20 0 -22
57 -82 88 -93 43 -15 600 -12 682 4 205 39 376 174 464 366 61 131 60 115 61
1031 l1 837 -58 0 -58 0 0 60 0 61 -189 -1 c-165 -1 -194 -4 -228 -21z"/>
</g>
</svg>
