<svg width="1440" height="1024" viewBox="0 0 1440 1024" fill="none" xmlns="http://www.w3.org/2000/svg">
<g clip-path="url(#clip0_268_120)">
<path d="M228.546 637.741C219.247 624.904 213.216 609.723 211.155 594.008C213.232 595.364 216.13 595.316 218.164 593.896C212.538 579.431 207.68 577.098 206.613 561.613C208.465 562.819 210.712 563.406 212.917 563.273C211.833 559.648 210.755 556.024 209.671 552.405C212.634 554.786 216.947 555.335 220.411 553.771C214.774 537.096 202.262 516.657 200.741 499.117C202.572 502.56 207.296 504.097 210.803 502.4C206.784 492.712 200.074 476.928 197.955 466.658C200.138 468.456 202.647 469.866 205.326 470.784C202.134 465.633 200.72 459.409 201.376 453.388C203.004 456.921 207.44 460.236 210.926 458.501C204.862 441.682 194.298 418.782 190.834 401.242C193.444 402.337 195.708 404.242 197.224 406.633C195.564 402.892 195.062 398.643 195.804 394.618C197.208 396.193 199.786 396.545 201.558 395.397C194.629 376.603 190.669 357.258 186.302 337.711C186.911 342.382 191.661 346.097 196.337 345.574C194.416 343.326 193.487 340.263 193.845 337.327C192.404 339.115 195.996 341.341 197.731 339.836C199.471 338.33 199.316 335.64 199.012 333.361C192.964 288.096 184.84 243.108 174.666 198.585C177.65 200.923 181.194 203.4 184.888 202.572C178.312 186.404 174.148 169.254 172.579 151.868C174.127 153.005 175.68 154.142 177.228 155.279C176.614 151.89 176.005 148.5 175.397 145.11C176.411 147.662 179.384 149.258 182.064 148.697C170.145 105.712 163.606 62.4323 159.613 18C155.956 56.1603 150.01 94.1018 141.827 131.552C144.907 131.59 147.987 130.437 150.288 128.387C145.729 147.769 140.178 166.916 133.655 185.726C138.144 184.483 142.281 181.995 145.478 178.616C131.675 217.486 121.522 257.648 115.191 298.408C120.3 295.996 124.773 292.248 128.045 287.642C128.403 290.097 128.766 292.547 129.123 295.003C134.68 289.868 139.665 284.114 143.957 277.879C140.877 290.887 134.653 303.138 125.958 313.29C129.79 314.534 134.253 313.595 137.258 310.915C135.747 326.982 130.148 342.643 121.143 356.036C123.172 356.596 125.371 356.548 127.372 355.902C123.652 365.612 119.926 375.316 116.206 385.026C110.489 399.934 104.708 415.147 103.848 431.091C109.25 426.645 113.921 421.313 117.609 415.372C117.882 420.101 117.076 424.894 115.266 429.271C118.218 428.497 120.807 426.416 122.195 423.699C120.198 443.422 116.862 463.743 112.207 483.013C113.51 481.374 115.197 484.684 114.69 486.712C110.248 504.466 105.802 522.219 101.361 539.973C103.112 538.318 104.857 536.664 106.608 535.009C106.763 540.47 106.912 545.935 107.067 551.396C110.793 549.17 113.969 546.021 116.227 542.306C118.245 550.644 116.638 559.793 111.893 566.94C115.255 566.097 118.453 564.597 121.255 562.552C116.35 585.873 95.8042 604.342 94 628.106C97.2187 625.341 100.443 622.576 103.662 619.806C103.437 623.084 103.213 626.356 102.989 629.633C105.359 628.288 107.734 626.938 110.104 625.592C107.633 634.693 105.156 643.8 102.685 652.901C112.656 654.07 123.006 647.59 126.315 638.11C125.824 639.332 124.746 643.394 124.912 644.702C125.077 646.004 126.166 647.296 127.479 647.189C128.178 647.131 128.787 646.709 129.347 646.277C132.283 644.029 134.883 641.339 137.029 638.329C136.714 641.248 137.103 644.243 138.155 646.987C139.324 648.689 142.105 647.398 143.167 645.625C144.229 643.853 144.859 641.547 146.754 640.731C149.77 646.971 156.149 651.049 162.826 652.912C169.499 654.769 190.461 650.52 197.389 650.445C199.524 650.419 201.867 650.323 203.447 648.881C205.027 647.446 210.659 649.81 208.577 649.341C212.548 650.606 216.856 650.814 220.929 649.944C220.192 648.454 219.461 646.965 218.724 645.471C221.698 646.303 224.847 646.485 227.9 646.01C228.653 645.892 229.48 645.684 229.902 645.049C231.226 643.069 227.975 640.069 228.546 637.741Z" fill="#2E2865"/>
<path d="M163.494 684.778C163.883 666.976 164.118 651.048 164.503 633.246C155.962 633.465 148.735 632.392 141.379 628.042C140.781 651.128 140.183 674.22 139.585 697.306C147.208 692.47 155.871 689.609 163.494 684.778Z" fill="#2E2865"/>
<path d="M377.49 992.958C387.991 975.055 394.159 954.139 395.208 932.909C395.807 924.537 396.407 916.151 397.006 907.78C394.721 908.938 392.424 910.084 390.139 911.243C388.865 884.559 393.298 857.576 403.012 833.06C404.335 829.719 405.784 826.229 405.509 822.588C405.222 818.961 402.45 815.266 399.129 815.702C401.963 807.126 403.524 798.045 403.724 788.923C401.314 790.314 398.404 790.655 395.782 789.85C400.29 769.889 402.899 749.422 403.549 728.874C400.827 728.411 398.092 731.343 398.479 734.329C399.678 717.285 400.889 700.227 402.1 683.184C401.276 686.783 398.18 689.619 394.784 689.878C400.989 647.146 409.679 604.837 420.779 563.305C415.773 566.754 410.766 570.217 405.759 573.667C413.975 560.441 415.823 543.861 417.446 527.976C419.893 504.006 422.328 480.049 424.775 456.079C429.033 414.315 434.439 374.009 433.677 332C438.859 379.804 446.862 427.241 457.625 473.927C454.591 474.895 451.17 474.322 448.548 472.4C452.793 494.502 457.051 516.591 461.296 538.693C458.025 535.584 454.766 532.489 451.495 529.381C455.266 571.745 481.524 610.141 479.264 652.628C476.729 648.074 474.182 643.519 471.635 638.965C472.309 646.178 472.983 653.391 473.657 660.604C467.402 655.109 461.771 648.782 456.939 641.788C458.674 661.954 464.792 681.657 474.644 698.823C471.797 698.509 468.95 698.196 466.104 697.882C475.044 733.142 483.996 768.416 492.936 803.676C489.24 800.431 485.544 797.173 481.848 793.927C482.073 799.354 482.997 804.74 484.583 809.88C482.672 808.08 480.749 806.281 478.839 804.494C480.525 829.856 484.308 855.039 490.139 879.651C486.481 878.955 483.072 876.855 480.637 873.801C484.62 890.19 488.616 906.58 492.599 922.955C489.602 922.696 486.93 919.942 486.53 916.683C481.124 949.816 511.702 981.068 505.047 1013.93C498.068 1011.02 493.485 1009.82 487.704 1004.66C486.83 1008.37 487.63 1012.5 489.802 1015.5C486.069 1013.22 482.335 1010.96 478.59 1008.69C477.553 1008.07 476.392 1007.41 475.218 1007.68C474.069 1007.96 473.271 1009.05 472.347 1009.82C468.663 1012.97 462.245 1010.27 461.459 1005.23C457.975 1008.61 453.58 1011.76 449.01 1010.83C444.44 1009.91 441.419 1002.58 445.152 999.543C444.702 1000.16 444.141 1000.65 443.579 1001.12C429.782 1012.97 413.163 1020.88 395.807 1023.85C394.559 1024.07 393.085 1024.18 392.236 1023.16C391.262 1021.99 391.737 1020.13 392.311 1018.69C394.471 1013.22 397.318 1008.08 400.739 1003.44C394.808 1005.31 388.89 1007.19 382.959 1009.06C380.824 1009.74 378.552 1010.41 376.404 1009.77C374.257 1009.13 372.421 1006.61 373.171 1004.33C376.629 1002.28 375.368 996.571 377.49 992.958Z" fill="#2E2865"/>
<path d="M166.49 769.245C176.991 752.662 183.159 733.288 184.208 713.622C184.807 705.868 185.407 698.1 186.006 690.345C183.721 691.418 181.424 692.479 179.139 693.553C177.865 668.836 182.298 643.841 192.012 621.132C193.335 618.038 194.784 614.804 194.509 611.432C194.222 608.072 191.45 604.65 188.129 605.054C190.963 597.109 192.524 588.698 192.724 580.248C190.314 581.537 187.404 581.852 184.782 581.107C189.29 562.617 191.899 543.659 192.549 524.625C189.827 524.196 187.092 526.911 187.479 529.677C188.678 513.89 189.889 498.089 191.1 482.302C190.276 485.636 187.18 488.263 183.784 488.503C189.989 448.92 198.679 409.729 209.779 371.258C204.773 374.453 199.766 377.661 194.759 380.856C202.975 368.605 204.823 353.247 206.446 338.533C208.893 316.329 211.328 294.138 213.775 271.934C218.033 233.248 223.439 195.913 222.677 157C227.859 201.281 235.862 245.221 246.625 288.467C243.591 289.364 240.17 288.833 237.548 287.052C241.793 307.526 246.051 327.987 250.296 348.46C247.025 345.58 243.766 342.714 240.495 339.834C244.266 379.076 270.524 414.642 268.264 453.998C265.729 449.779 263.182 445.56 260.635 441.342C261.309 448.023 261.983 454.705 262.657 461.386C256.402 456.296 250.771 450.436 245.939 443.956C247.674 462.636 253.792 480.887 263.644 496.788C260.797 496.498 257.95 496.207 255.104 495.917C264.044 528.578 272.996 561.253 281.936 593.914C278.24 590.908 274.544 587.89 270.848 584.884C271.073 589.91 271.997 594.899 273.583 599.661C271.672 597.993 269.749 596.326 267.839 594.672C269.525 618.164 273.308 641.492 279.139 664.289C275.481 663.645 272.072 661.7 269.637 658.871C273.62 674.052 277.616 689.234 281.599 704.402C278.602 704.162 275.93 701.611 275.53 698.593C270.124 729.284 300.702 758.232 294.047 788.67C287.068 785.98 282.485 784.869 276.704 780.082C275.83 783.517 276.63 787.345 278.802 790.123C275.069 788.014 271.335 785.917 267.59 783.82C266.553 783.239 265.392 782.633 264.218 782.886C263.069 783.138 262.271 784.149 261.347 784.869C257.663 787.786 251.245 785.286 250.459 780.612C246.975 783.745 242.58 786.662 238.01 785.804C233.44 784.945 230.419 778.162 234.152 775.346C233.702 775.914 233.141 776.369 232.579 776.811C218.782 787.786 202.163 795.112 184.807 797.865C183.559 798.067 182.085 798.168 181.236 797.221C180.262 796.135 180.737 794.417 181.311 793.078C183.471 788.014 186.318 783.252 189.739 778.958C183.808 780.688 177.89 782.431 171.959 784.162C169.824 784.793 167.552 785.412 165.404 784.818C163.257 784.225 161.421 781.888 162.171 779.779C165.629 777.885 164.368 772.592 166.49 769.245Z" fill="#2E2865"/>
<path d="M628 898.354C612.576 889.307 601.385 878.092 595.814 866.082C601.751 867.778 608.914 868.127 615.297 867.026C603.263 857.262 593.697 846.589 586.948 835.401C589.733 834.938 592.917 835.252 595.225 836.231C591.022 834.23 588.142 831.398 587.25 828.382C594.811 829.824 603.646 829.09 610.092 826.476C595.782 821.677 585.738 813.216 583.509 804.09C587.807 806.389 594.286 807.368 600.112 806.608C598.042 804.799 596.992 802.639 597.151 800.498C600.923 800.699 604.712 800.9 608.5 801.101C604.028 799.362 601.481 796.232 602.149 793.234C608.485 795.192 617.192 794.414 622.078 791.46C608.516 783.462 597.199 774.318 588.667 764.45C594.938 765.743 602.054 765.735 608.31 764.441C594.986 759.021 585.228 751.023 581.169 742.204C584.225 742.877 587.743 742.903 590.847 742.282C587.218 740.709 584.194 738.725 582.029 736.478C587.584 736.557 593.124 736.636 598.679 736.714C594.509 734.826 592.073 731.846 592.248 728.882C596.562 728.751 600.892 728.62 605.205 728.48C597.756 723.751 591.723 718.358 587.409 712.571C591.707 712.58 595.512 711.968 599.809 711.977C583.255 703.245 572.589 691.226 570.249 678.682C573.242 679.941 577.206 680.474 580.931 680.107C577.397 673.971 573.879 667.834 570.345 661.707C573.974 661.847 577.667 661.471 580.962 660.606C572.892 656.13 567.05 650.448 564.249 644.347C567.48 645.239 570.711 646.13 573.927 647.022C573.736 643.727 573.545 640.431 573.354 637.136C575.996 638.832 581.599 637.521 582.904 635.405C584.21 633.29 582.698 631 581.201 628.919C572.144 616.306 563.071 603.693 554.013 591.079C559.028 592.679 564.042 594.27 569.04 595.869C569.263 593.903 569.485 591.936 569.708 589.969C570.711 593.23 580.103 594.34 583.462 591.595C572.51 588.736 567.814 581.656 565.14 575.17C562.943 569.847 561.399 564.454 559.871 559.069C559.155 556.57 558.439 554.078 557.738 551.578C555.08 542.269 552.422 532.968 549.779 523.659C552.294 525.294 557.07 525.705 560.38 524.586C550.4 511.291 542.918 497.427 538.079 483.293C539.846 484.683 542.887 485.566 545.975 485.574C545.545 483.267 545.115 480.95 544.685 478.643C547.933 479.805 551.196 480.968 554.443 482.122C553.393 477.795 552.326 473.477 551.276 469.15C552.167 470.479 556.13 470.199 557.42 468.975C558.709 467.751 558.168 466.222 557.579 464.849C551.275 450.059 544.988 435.27 538.685 420.48C541.836 421.459 544.988 422.438 548.14 423.417C538.143 406.127 533.591 388.138 532.397 370C524.645 397.08 514.585 423.967 502.296 450.54C506.292 450.811 510.478 450.155 513.598 448.757C516.145 464.159 512.356 479.867 502.614 494.368C505.225 493.293 507.852 492.218 510.462 491.151C510.08 510.854 505.066 530.521 495.61 549.524C500.306 548.021 504.366 545.897 507.326 543.388C508.154 548.379 507.055 553.466 504.111 558.204C507.724 557.968 511.21 557.173 514.059 555.931C513.534 570.634 505.893 585.24 492.108 597.845C496.709 598.885 502.439 598.116 505.639 596.027C502.758 603.937 497.059 611.533 488.989 618.273C498.842 615.65 507.231 611.411 512.818 606.245C506.196 616.49 497.298 626.279 486.362 635.344C491.01 635.737 495.961 634.863 499.319 633.063C499.383 638.272 496.757 643.491 491.806 647.94C496.359 652.756 494.926 659.076 488.4 663.149C491.631 664.154 495.865 664.111 499.049 663.053C500.083 670.413 497.823 677.904 492.538 684.687C496.597 683.743 500.657 682.808 504.7 681.864C492.777 702.344 476.7 722.099 456.85 740.63C463.233 738.253 469.633 735.866 476.016 733.489C475.729 736.094 475.442 738.707 475.156 741.312C479.072 740.604 482.685 739.398 485.614 737.807C485.805 739.555 485.996 741.295 486.187 743.043C492.141 741.496 497.632 739.389 502.312 736.836C498.938 744.17 487.429 753.078 479.645 759.319C481.985 759.528 484.325 759.738 486.665 759.948C485.328 763.759 483.99 767.579 482.653 771.399C481.03 780.052 474.408 788.4 463.982 794.947C469.76 796.695 477.289 796.529 482.797 794.528C481.794 802.552 477.878 810.471 471.368 817.674C478.133 814.991 484.898 812.316 491.679 809.632C485.025 824.684 473.23 839.055 457.105 851.755C465.59 850.514 473.453 848.014 479.645 844.588C472.657 852.77 465.685 860.96 458.697 869.141C463.759 867.909 468.821 866.676 473.883 865.444C469.951 875.557 460.894 885.059 448 892.611C454.861 893.52 462.453 892.62 468.025 890.234C467.961 894.543 464.3 898.8 458.283 901.571C467.69 902.655 477.735 901.973 486.394 899.674C498.699 896.405 508.822 895.505 521.557 892.769C520.888 895.199 518.724 897.506 515.492 899.211C522.353 899.045 529.102 897.76 534.673 895.548C534.291 897.515 534.928 899.534 536.488 901.317C540.579 899.324 543.635 896.693 545.179 893.818C554.332 898.975 566.334 904.586 578.925 902.585C577.795 900.749 576.665 898.913 575.519 897.078C590.943 901.641 610.522 899.281 628 898.354Z" fill="#2E2865"/>
<path d="M416.936 765.105C405.416 715.223 398.33 664.313 395.803 613.175C396.794 614.33 397.784 615.493 398.767 616.647C396.416 610.959 395.198 604.815 395.181 598.654C397.062 600.197 399.035 601.393 400.916 602.936C395.148 582.524 390.37 561.827 386.592 540.952C388.607 543.404 390.622 545.856 392.637 548.309C391.63 544.458 391.311 540.429 391.714 536.477C393.704 536.881 395.702 537.277 397.692 537.682C392.486 511.363 385.618 484.016 376.886 458.649C379.01 462.003 382.831 464.22 386.794 464.38C380.639 433.401 374.485 402.421 368.331 371.433C370.707 372.192 373.075 372.942 375.451 373.7C371.32 362.054 367.189 350.407 363.066 338.76C366.618 343.176 370.178 347.584 373.729 352C372.252 350.188 371.79 347.592 372.546 345.376C372.764 348.974 375.988 352.135 379.582 352.261C375.493 328.496 369.859 305 362.73 281.976C364.049 282.827 365.72 283.114 367.248 282.743C359.557 258.388 351.933 236.105 347.181 211C343.68 236.35 336.073 261.118 324.747 284.049C327.568 284.024 330.372 283.097 332.656 281.437C332.228 290.294 329.86 299.042 325.779 306.904C327.677 306.517 329.499 305.716 331.077 304.587C324.302 326.414 317.526 348.25 310.751 370.077C314.865 367.068 318.256 363.082 320.565 358.523C317.904 380.881 314.697 403.171 310.935 425.369C315.326 423.541 318.509 419.099 318.861 414.346C318.013 420.49 317.157 426.642 316.309 432.785C318.374 431.959 320.095 430.299 321.002 428.26C319.684 466.832 314.571 505.27 305.78 542.848C310.557 540.472 314.134 535.803 315.184 530.552C315.385 539.19 313.941 547.862 310.952 555.961C312.841 554.798 314.73 553.627 316.619 552.455C316.191 559.846 314.025 567.136 310.348 573.549C315.041 572.31 318.785 568.038 319.415 563.209C319.088 587.665 313.899 613.824 306.578 637.151C309.332 637.261 312.102 636.072 313.924 633.999C312.102 642.991 311.607 652.253 312.463 661.388C315.041 657.503 317.627 653.618 320.204 649.733C315.746 683.148 310.851 716.504 305.511 749.793C307.19 748.242 308.87 746.683 310.549 745.132C308.811 755.49 306.628 765.763 304 775.926C312.337 776.92 321.011 776.095 329.163 774.055C328.693 775.176 328.995 776.583 329.894 777.409C337.366 777.982 344.838 778.555 352.311 779.12C353.545 779.213 354.796 779.305 356.014 779.112C360.145 778.446 363.1 774.662 367.063 773.314C370.673 776.406 374.477 779.6 379.094 780.688C383.712 781.775 389.38 780.013 391.118 775.581C400.782 778.025 410.815 778.994 420.773 778.437C421.671 775.066 419.807 767.044 416.936 765.105Z" fill="#2E2865"/>
<path d="M346.797 852.826C334.883 802.069 327.555 750.266 324.941 698.231C325.966 699.406 326.991 700.589 328.006 701.764C325.575 695.975 324.316 689.724 324.299 683.455C326.244 685.025 328.284 686.242 330.229 687.812C324.264 667.042 319.323 645.981 315.416 624.74C317.5 627.236 319.584 629.731 321.668 632.227C320.626 628.308 320.296 624.209 320.712 620.187C322.77 620.599 324.837 621.002 326.895 621.413C321.511 594.633 314.409 566.805 305.378 540.994C307.575 544.407 311.526 546.662 315.624 546.825C309.259 515.302 302.895 483.779 296.53 452.248C298.987 453.02 301.436 453.783 303.893 454.555C299.621 442.704 295.349 430.853 291.086 419.002C294.759 423.495 298.44 427.98 302.113 432.473C300.585 430.63 300.107 427.989 300.889 425.733C301.115 429.395 304.449 432.611 308.165 432.739C303.937 408.557 298.11 384.649 290.738 361.221C292.102 362.087 293.83 362.379 295.41 362.002C287.456 337.219 279.572 314.546 274.657 289C271.036 314.795 263.17 339.997 251.456 363.331C254.374 363.305 257.274 362.362 259.635 360.672C259.193 369.685 256.744 378.586 252.524 386.587C254.486 386.193 256.371 385.378 258.003 384.229C250.996 406.439 243.989 428.657 236.981 450.868C241.236 447.806 244.744 443.75 247.132 439.111C244.379 461.861 241.062 484.543 237.172 507.13C241.714 505.269 245.005 500.75 245.369 495.914C244.492 502.165 243.606 508.425 242.729 514.676C244.866 513.836 246.645 512.147 247.583 510.071C246.22 549.321 240.932 588.433 231.841 626.67C236.782 624.252 240.481 619.501 241.566 614.158C241.774 622.948 240.281 631.772 237.19 640.013C239.143 638.83 241.097 637.638 243.051 636.446C242.608 643.966 240.368 651.384 236.565 657.91C241.418 656.649 245.291 652.301 245.942 647.388C245.604 672.273 240.237 698.891 232.666 722.627C235.514 722.739 238.379 721.53 240.263 719.42C238.379 728.57 237.867 737.994 238.753 747.29C241.418 743.337 244.093 739.384 246.758 735.43C242.148 769.431 237.085 803.373 231.563 837.245C233.3 835.667 235.036 834.081 236.773 832.503C234.975 843.042 232.718 853.495 230 863.837C238.622 864.849 247.592 864.009 256.023 861.933C255.537 863.074 255.85 864.506 256.779 865.346C264.507 865.929 272.235 866.513 279.963 867.087C281.239 867.181 282.533 867.276 283.792 867.078C288.064 866.401 291.121 862.551 295.219 861.179C298.953 864.326 302.886 867.576 307.662 868.682C312.437 869.788 318.299 867.996 320.096 863.486C330.09 865.972 340.467 866.958 350.765 866.393C351.694 862.962 349.766 854.799 346.797 852.826Z" fill="#2E2865"/>
<path d="M296.976 725.317C297.933 735.394 296.433 746.087 295.049 756.106C305.278 759.88 316.058 766.537 325.236 772.42C325.584 757.199 325.642 741.972 325.396 726.752C321.172 724.542 316.362 720.065 311.624 719.573C306.792 719.08 296.52 720.478 296.976 725.317Z" fill="#2E2865"/>
<path d="M242.608 713.66C250.113 702.425 256.256 690.283 260.871 677.584C258.582 677.272 256.293 676.961 254.003 676.649C263.522 666.623 270.223 653.945 273.136 640.428C271.122 641.724 268.767 642.478 266.384 642.601C268.188 639.783 269.999 636.965 271.81 634.147C269.543 634.712 267.007 634.089 265.261 632.531C272.621 626.026 278.67 618.043 282.944 609.205C281.3 608.386 279.648 607.574 278.004 606.756C285.299 595.035 290.21 581.843 292.369 568.209C290.066 570.976 286.038 572.172 282.604 571.107C292.5 554.249 298.882 535.327 301.207 515.919C300.07 516.318 298.933 516.716 297.795 517.115C306.46 490.405 314.341 463.789 318.42 436C322.368 461.804 327.845 487.369 334.814 512.522C332.669 513.463 329.888 512.486 328.794 510.421C329.627 514.101 330.46 517.781 331.293 521.461C329.967 520.853 328.634 520.251 327.309 519.643C329.808 542.97 334.053 566.115 340.001 588.812C338.335 587.102 336.668 585.392 335.002 583.683C335.147 586.899 335.835 590.094 337.031 593.079C335.56 592.072 334.089 591.065 332.619 590.058C336.458 606.785 343.072 622.875 352.099 637.472C350.78 638.356 348.948 638.421 347.571 637.624C348.071 642.239 349.476 646.759 351.679 650.852C350.961 649.889 349.244 650.664 348.984 651.837C348.723 653.011 349.375 654.177 349.998 655.206C352.83 659.886 355.663 664.566 358.488 669.245C356.011 668.318 353.526 667.398 351.048 666.471C351.041 670.716 352.49 674.947 355.105 678.286C352.142 676.628 349.179 674.968 346.209 673.302C348.266 690.189 354.163 706.605 363.32 720.941C360.27 721.057 357.192 720.094 354.75 718.261C354.424 721.724 355.417 725.295 357.496 728.091C353.562 727.273 349.839 726.671 347.397 723.476C348.259 727.026 349.752 730.424 351.78 733.459C347.868 732.148 343.963 730.837 340.051 729.526C339.957 731.655 339.863 733.785 339.769 735.915C331.199 735.575 322.723 733.075 315.334 728.714C313.197 730.917 311.052 733.126 308.915 735.328C307.09 733.887 305.264 732.438 303.439 730.989C300.534 732.894 297.404 734.444 294.13 735.596C294.825 734.357 295.513 733.119 296.202 731.873C292.471 736.792 286.27 739.733 280.097 739.515C280.213 737.639 281.249 735.843 282.821 734.807C270.607 739.001 257.655 741.022 244.745 740.747C244.282 735.009 245.701 729.134 248.737 724.237C246.448 726.461 243.18 727.642 240 727.396C240.514 724.665 242.391 722.216 244.897 721.021C243.695 721.789 242.181 722.042 240.797 721.702C240.782 719.398 241.319 715.595 242.608 713.66Z" fill="#2E2865"/>
<path d="M135.911 576.704C136.256 576.685 136.607 576.723 136.951 576.679C136.626 576.864 136.256 576.825 135.911 576.704Z" fill="#2E2865"/>
<path d="M-64 575.778C-34.2971 566.735 -11.7295 542.272 4.74944 515.964C6.86834 512.581 7.04691 509.512 6.84906 505.529C5.52156 508.465 3.19207 510.941 0.332829 512.428C0.115833 510.909 0.0903012 509.365 0.249857 507.84C-2.78809 514.745 -10.102 519.538 -17.6458 519.57C-11.2189 513.232 -5.70478 505.97 -1.32019 498.075C-3.99434 498.598 -6.75138 498.687 -9.45107 498.336C-9.0809 496.058 -7.12152 494.424 -5.34726 492.943C5.59189 483.81 14.4313 472.176 20.2966 459.188C18.2415 461.453 15.7907 463.355 13.0846 464.785C13.4676 463.311 13.8569 461.836 14.2462 460.362C11.9295 461.613 9.22334 462.111 6.613 461.773C6.78532 460.381 6.95756 458.99 7.1235 457.599C3.33883 460.049 -1.4222 460.949 -5.84509 460.049C-1.8179 457.65 1.73053 454.439 4.51318 450.661C1.51353 452.378 -1.94554 453.284 -5.40471 453.259C-5.23878 451.931 -5.07925 450.61 -4.91331 449.289C-8.95965 451.127 -13.6377 451.05 -18.0223 450.285C0.862705 440.15 13.8377 423.211 20.7241 402.909C17.8649 407.556 13.2633 411.11 8.04262 412.7C8.56596 411.295 8.73198 409.764 8.52136 408.283C4.81967 411.206 0.11598 412.846 -4.54305 413.593C14.6037 396.84 27.4574 373.053 30.9868 347.862C29.889 349.471 28 350.518 26.047 350.594C30.2912 343.503 31.1335 335.577 30.4506 327.344C29.3081 329.584 26.8702 331.109 24.3556 331.154C26.7617 328.78 28.1338 325.391 28.0572 322.014C23.8258 326.399 18.6946 329.922 13.0782 332.29C13.2186 327.21 21.4453 324.631 20.4816 319.64C18.2542 321.81 15.4524 323.374 12.4399 324.14C16.1289 320.591 20.1369 316.162 19.32 311.107C15.7268 316.864 10.7679 321.127 4.33458 323.297C12.1337 315.434 14.5014 303.895 18.1329 293.435C21.7516 283.013 26.9276 273.139 33.4502 264.236C30.1123 265.538 26.2575 265.455 22.977 264.006C32.7546 249.2 40.2601 232.893 45.1553 215.833C42.5067 216.963 39.5326 217.307 36.6926 216.822C43.9364 208.577 47.2678 197.025 45.5127 186.188C43.1322 189.845 39.373 192.589 35.1671 193.744C40.3878 188.9 44.4596 182.831 46.9614 176.161C40.3367 185.026 30.1571 191.147 19.2244 192.844C26.2321 180.029 32.0526 166.556 36.5776 152.668C34.4524 152.496 32.3333 152.324 30.2081 152.145C33.4885 144.939 37.3626 138.002 41.7727 131.422C40.2219 130.528 38.2497 130.407 36.5967 131.096C42.2386 122.365 46.2211 112.569 48.257 102.37C46.6232 102.332 45.0086 101.725 43.7576 100.679C49.1762 91.7434 53.2863 82.0105 55.9094 71.8947C54.467 73.7902 51.6651 74.4986 49.4888 73.5285C54.6903 62.1745 56.7328 51.963 57.5178 39.5049C62.0747 52.6523 66.6316 65.7997 71.1885 78.9407C71.5204 79.9044 71.8331 81.0468 71.246 81.8765C70.9077 82.3551 70.2119 82.3743 69.7141 82.1509C72.9435 87.6715 76.173 93.1859 79.4024 98.7065C78.2599 97.7811 77.1112 96.8492 75.9688 95.9238C79.8938 103.959 83.8189 112.001 87.744 120.036C78.9748 114.26 71.699 106.237 66.8038 96.9513C69.8737 114.26 77.1048 130.809 87.7121 144.824C85.7016 143.957 83.6976 143.088 81.6872 142.221C85.5421 149.107 90.4628 155.394 96.2132 160.799C89.0651 157.161 82.6318 152.119 77.392 146.05C80.015 156.849 84.5208 167.194 90.6414 176.468C86.6142 174.578 83.0786 171.662 80.4619 168.069C83.2318 182.326 88.4078 196.706 96.0537 209.062C92.7732 207.6 89.6906 205.679 86.9271 203.381C88.9886 206.777 91.0436 210.179 93.105 213.574C91.7265 212.987 90.3543 212.406 88.9757 211.819C99.6596 237.999 115.475 261.715 131.181 285.234C125.195 282.062 120.236 277.001 117.192 270.95C117.147 272.788 117.102 274.626 117.064 276.464C113.93 273.037 111.16 269.272 108.831 265.257C109.622 266.668 106.693 266.77 105.538 265.64C102.78 262.941 100.349 259.896 98.3257 256.609C98.2618 258.313 98.2045 260.024 98.1406 261.728C92.1477 259.711 87.0739 255.122 84.4763 249.359C90.1501 260.988 95.6706 272.712 101.344 284.347C99.5319 283.53 97.7258 282.719 95.9132 281.902C101.53 293.001 107.146 304.099 112.769 315.205C113.349 316.36 113.943 317.751 113.324 318.887C112.935 319.608 111.869 319.723 111.218 319.398C122.112 341.633 137.8 361.501 156.934 377.214C153.826 377.616 150.577 376.812 148.011 375.012C149.786 376.997 151.56 378.982 153.34 380.967C148.056 378.331 143.014 375.229 138.279 371.7C141.514 378.255 146.288 384.043 152.096 388.479C147.909 388.217 143.786 387.024 140.117 385.001C139.983 387.662 140.857 390.368 142.529 392.442C135.317 388.313 128.718 383.124 122.999 377.087C122.533 379.678 122.821 382.397 123.829 384.835C116.164 381.095 109.405 375.517 104.268 368.713C104.261 371.304 104.255 373.896 104.248 376.487C101.817 373.819 99.3787 371.151 96.9471 368.483C103.655 384.841 111.32 401.065 120.6 416.114C129.879 431.163 141.897 444.885 157.17 453.788C153.36 454.21 149.403 452.978 146.505 450.47C150.635 455.78 155.677 460.381 161.338 464.019C153.787 462.883 146.69 458.913 141.782 453.061C141.961 455.116 142.695 457.12 143.876 458.818C138.323 456.118 133.332 452.263 129.318 447.572C129.592 451.618 129.867 455.665 130.141 459.711C127.135 456.718 124.423 453.437 122.042 449.921C122.916 450.974 121.512 452.646 120.153 452.531C118.787 452.416 117.76 451.286 116.879 450.24C113.637 446.398 110.394 442.562 107.152 438.72C123.267 479.892 156.525 512.76 196.542 531.569C193.925 531.447 191.308 531.326 188.692 531.205C191.487 534.345 195.004 536.847 198.897 538.449C192.17 540.644 184.224 538.398 179.642 533.011C183.05 539.54 187.332 545.616 192.336 551.022C185.29 546.305 179.029 540.408 173.911 533.649C175.04 538.2 177.459 542.425 180.81 545.705C172.149 541.621 164.12 536.196 157.106 529.68C159.499 534.753 163.316 539.144 168 542.233C156.953 536.413 147.303 527.969 140.066 517.796C141.099 525.123 144.61 532.079 149.894 537.268C139.013 529.265 129.414 519.519 121.576 508.516C121.461 513.111 122.821 517.738 125.412 521.536C119.425 518.683 113.962 514.739 109.373 509.946C110.401 514.209 112.488 518.217 115.392 521.504C111.09 520.234 107.146 517.77 104.121 514.464C104.146 516.615 104.165 518.766 104.191 520.917C101.217 520.259 98.4852 518.555 96.5897 516.168C102.697 526.776 110.458 537.223 119.879 545.035C118.123 545.444 116.183 544.978 114.798 543.816C115.366 546.095 116.541 548.22 118.168 549.918C112.041 547.722 106.144 544.869 100.617 541.436C111.473 556.159 126.701 567.616 143.863 573.959C141.17 575.498 137.876 575.951 134.87 575.204C134.749 575.887 135.292 576.48 135.93 576.704C132.017 576.934 128.029 575.798 124.914 573.417C135.209 584.509 152.173 585.364 167.299 585.454C164.65 588.032 161.408 589.998 157.898 591.166C160.501 592.168 163.112 593.164 165.716 594.166C162.199 594.721 158.682 595.27 155.159 595.825C157.361 597.114 159.557 598.41 161.759 599.699C149.109 603.133 135.419 602.641 123.05 598.301C126.082 601.467 129.592 604.173 133.428 606.305C129.241 607.485 124.487 606.42 121.2 603.573C130.314 615.808 142.893 628.068 155.906 636.033C151.349 637.048 146.454 636.461 142.267 634.393C143.563 637.207 145.21 639.862 147.156 642.275C143.397 641.701 139.887 639.671 137.506 636.71C137.64 638.56 137.774 640.418 137.908 642.269C134.806 641.458 131.903 639.92 129.477 637.82C145.739 659.909 172.226 674.135 199.625 675.501C197.046 677.116 195.636 677.971 192.713 678.8C196.306 678.405 200.007 679.119 203.192 680.83C199.631 682.591 195.425 683.006 191.589 681.979C196.606 685.929 202.682 688.514 209 689.395C201.558 691.38 193.383 690.454 186.579 686.848C190.6 694.992 197.276 701.796 205.343 705.976C190.409 706.48 176.323 699.67 162.939 693.014C164.682 696.517 167.113 699.689 170.043 702.287C165.033 702.191 160.055 700.551 155.964 697.654C156.787 699.141 157.604 700.634 158.427 702.121C145.726 700.111 133.639 694.392 124.033 685.853C123.848 688.591 124.952 691.392 126.956 693.262C120.766 692.809 114.817 689.657 110.969 684.787C129.324 718.281 162.601 745.712 199.746 754.596C193.153 756.255 187.32 757.43 180.995 754.947C186.649 762.312 194.978 767.577 204.054 769.537C199.516 770.328 194.793 769.996 190.415 768.567C190.989 770.73 192.476 772.638 194.436 773.717C190.798 773.462 187.262 771.853 184.69 769.262C184.62 770.985 185.06 772.721 185.941 774.202C179.106 773.481 172.481 770.826 167.037 766.626C168.651 770.43 170.892 773.972 173.63 777.061C165.946 774.872 158.523 771.764 151.573 767.813C152.683 770.966 154.304 773.947 156.347 776.595C151.873 775.364 147.603 773.372 143.78 770.736C143.506 773.959 144.208 777.266 145.778 780.099C141.45 779.008 137.327 777.093 133.696 774.489C133.402 776.238 133.6 778.07 134.251 779.716C126.618 776.238 119.744 771.107 114.23 764.788C114.913 772.817 118.532 780.559 124.257 786.226C120.683 784.471 117.109 782.716 113.535 780.961C114.607 783.067 115.679 785.167 116.751 787.273C108.831 785.09 101.581 780.514 96.2003 774.298C96.2705 778.408 98.1151 782.461 101.172 785.211C94.4517 783.029 88.3056 779.199 83.2508 774.266C83.104 783.475 83.0147 792.666 82.9509 801.85C84.5911 805.379 86.1228 808.877 88.28 812.215C90.8329 816.165 93.7114 819.892 96.5834 823.613C96.1367 823.735 95.6261 823.556 95.3453 823.186C95.3517 823.473 95.358 823.766 95.3644 824.054C91.6499 820.429 88.229 816.503 85.1528 812.323C84.3103 811.174 83.5445 809.974 82.8743 808.717C82.7084 840.245 82.8999 871.71 82.9318 903.436C83.0977 903.583 83.2764 903.812 83.5572 904.112C84.9677 905.619 86.2059 907.227 87.744 908.618C87.9355 908.797 88.146 908.995 88.1715 909.257C88.2034 909.518 87.9227 909.805 87.693 909.678C87.6802 909.895 87.6609 910.112 87.6482 910.322C87.5205 910.341 87.3865 910.303 87.2972 910.214C87.2653 910.456 87.227 910.693 87.1951 910.935C85.7081 909.946 84.2976 908.861 82.9254 907.718C82.9318 922.059 82.9126 936.445 82.7849 950.932C82.1659 951.456 82.9191 951.686 82.1405 951.475C77.5389 950.198 71.3225 949.465 66.7783 950.932C66.9698 928.639 66.9378 906.589 66.8804 884.608C65.4763 885.355 64.0723 886.108 62.6619 886.855C61.8386 887.295 60.9961 887.742 60.3451 888.418C60.1472 888.15 59.777 888.016 59.4515 888.106C59.2472 887.78 59.0431 887.448 58.8389 887.123C58.7751 887.021 58.7112 886.912 58.7431 886.797C58.7622 886.708 58.8388 886.644 58.909 886.58C61.1045 884.742 63.2362 882.675 65.5657 881.002C66.0954 880.619 66.5103 880.447 66.8677 880.377C66.7656 844.566 66.6571 808.941 67.2571 773.111C66.6827 775.861 65.4891 778.478 63.7276 780.667C62.4959 780.948 61.3342 779.308 62.0107 778.242C57.1858 785.626 49.1443 790.821 40.4325 792.181C41.9706 787.917 43.5087 783.654 45.0468 779.397C41.1345 785.211 34.3757 789.009 27.3743 789.315C29.072 787.081 30.7762 784.848 32.4738 782.614C19.2945 791.013 3.29419 794.9 -12.2657 793.476C-11.4169 791.817 -9.92982 790.553 -8.22577 789.794C-12.7763 790.713 -17.6331 790.132 -21.7432 787.956C-19.8222 786.386 -17.633 785.135 -15.3035 784.273C-18.9733 784.918 -22.8347 784.414 -26.2173 782.85C-23.1091 780.648 -19.586 779.033 -15.8843 778.127C-19.5924 778.453 -24.8577 777.336 -24.494 773.634C-21.8389 773.117 -19.9242 772.473 -17.2245 772.287C-4.16011 771.375 6.44071 761.706 15.3375 752.094C18.9563 748.188 22.658 743.816 23.1878 738.513C19.4222 742.457 12.7592 739.432 7.42364 740.593C8.95537 739.208 10.1297 737.434 10.8062 735.481C8.34267 736.853 5.52807 737.594 2.71351 737.6C4.43671 735.839 5.75783 733.681 6.53646 731.339C2.87944 732.998 -3.36883 734.76 -7.3641 735.143C16.3523 722.914 34.9757 701.151 43.3938 675.833C40.6622 679.675 36.1308 682.183 31.4207 682.457C31.4335 679.573 32.0208 676.694 33.144 674.039C30.9358 676.496 28.2297 678.507 25.2492 679.924C25.8619 677.256 26.0661 674.499 25.8555 671.767C19.0776 681.941 8.48929 689.516 -3.33061 692.644C-2.92214 690.971 -2.51357 689.299 -2.10511 687.621C-4.6963 688.967 -7.29383 690.32 -9.88502 691.667C-8.0214 688.833 -6.15794 686 -4.29433 683.166C-7.3578 685.278 -11.4678 685.783 -14.9461 684.461C6.01952 667.274 21.9049 643.96 30.2273 618.163C27.1766 619.746 23.7557 620.601 20.3221 620.652C23.6536 617.882 26.1172 614.072 27.2787 609.891C22.6197 615.31 15.0057 618.029 7.96607 616.784C9.1787 615.686 9.95727 614.116 10.1041 612.489C6.35131 614.346 1.92847 614.812 -2.13063 613.778C-0.362747 612.47 0.92008 610.517 1.41789 608.372C-0.579744 610.542 -3.85391 611.436 -6.68124 610.587C-3.17739 608.985 -0.247806 606.158 1.48178 602.718C-1.84336 606.279 -6.62379 607.454 -11.4934 607.645C5.22164 590.26 16.046 571.624 21.8283 548.207C18.0181 554.481 11.6614 559.159 4.53247 560.927C5.84721 558.897 6.58755 556.504 6.65137 554.092C3.44111 559.229 -1.66482 563.154 -7.4535 564.935C-7.80453 563.467 -8.14918 561.999 -8.5002 560.525C-12.8082 564.731 -16.7461 569.307 -20.2754 574.176C-18.7565 571.247 -17.9268 567.947 -18.131 564.648C-24.6536 575.74 -35.8608 583.973 -48.3892 586.89C-44.1258 584.043 -40.7751 579.863 -38.9179 575.083C-42.7983 576.87 -46.8318 578.331 -50.9547 579.442C-47.8401 578.229 -45.3574 575.51 -44.432 572.3C-50.2398 575.153 -57.5539 576.129 -64 575.778Z" fill="#2E2865"/>
<path d="M608.997 637.755C608.533 638.649 607.99 639.503 607.285 640.226C607.833 639.39 608.409 638.569 608.997 637.755Z" fill="#2E2865"/>
<path d="M698.319 639.196C698.516 639.185 698.717 639.207 698.914 639.182C698.728 639.287 698.516 639.266 698.319 639.196Z" fill="#2E2865"/>
<path d="M584 638.667C600.986 633.495 613.891 619.506 623.314 604.462C624.526 602.528 624.628 600.773 624.515 598.495C623.756 600.174 622.424 601.59 620.789 602.44C620.665 601.572 620.65 600.689 620.741 599.816C619.004 603.765 614.821 606.506 610.508 606.524C614.183 602.9 617.336 598.747 619.843 594.232C618.314 594.532 616.738 594.583 615.194 594.382C615.405 593.079 616.526 592.145 617.54 591.298C623.796 586.075 628.851 579.422 632.205 571.995C631.03 573.29 629.628 574.378 628.081 575.196C628.3 574.353 628.522 573.509 628.745 572.666C627.42 573.382 625.873 573.666 624.38 573.473C624.478 572.677 624.577 571.882 624.672 571.086C622.508 572.488 619.785 573.002 617.256 572.488C619.559 571.115 621.588 569.279 623.179 567.119C621.464 568.101 619.486 568.619 617.508 568.604C617.602 567.845 617.694 567.09 617.789 566.334C615.475 567.385 612.8 567.342 610.292 566.904C621.092 561.108 628.511 551.422 632.449 539.812C630.814 542.469 628.183 544.502 625.197 545.411C625.497 544.608 625.592 543.732 625.471 542.885C623.354 544.557 620.665 545.495 618 545.922C628.949 536.341 636.3 522.739 638.318 508.334C637.69 509.253 636.61 509.852 635.493 509.896C637.92 505.841 638.402 501.308 638.011 496.6C637.358 497.881 635.964 498.753 634.526 498.779C635.902 497.421 636.687 495.483 636.643 493.552C634.223 496.06 631.289 498.074 628.077 499.428C628.157 496.523 632.862 495.049 632.311 492.195C631.037 493.436 629.435 494.33 627.712 494.768C629.822 492.739 632.114 490.206 631.646 487.315C629.592 490.607 626.756 493.045 623.077 494.286C627.537 489.79 628.891 483.191 630.968 477.209C633.037 471.249 635.997 465.603 639.727 460.512C637.818 461.257 635.614 461.209 633.738 460.381C639.329 451.913 643.621 442.589 646.42 432.833C644.906 433.479 643.205 433.676 641.581 433.399C645.723 428.683 647.628 422.077 646.625 415.88C645.263 417.972 643.114 419.541 640.709 420.201C643.694 417.431 646.022 413.961 647.453 410.147C643.665 415.216 637.844 418.716 631.592 419.687C635.599 412.358 638.928 404.654 641.515 396.712C640.3 396.614 639.088 396.515 637.873 396.413C639.749 392.293 641.964 388.325 644.486 384.562C643.599 384.052 642.471 383.982 641.526 384.376C644.752 379.384 647.03 373.781 648.194 367.949C647.26 367.927 646.336 367.581 645.621 366.982C648.72 361.872 651.07 356.307 652.57 350.522C651.745 351.606 650.143 352.011 648.898 351.456C651.873 344.964 653.041 339.124 653.49 332C656.096 339.518 658.701 347.037 661.307 354.551C661.497 355.102 661.676 355.756 661.34 356.23C661.147 356.504 660.749 356.515 660.464 356.387C662.311 359.544 664.158 362.697 666.004 365.854C665.351 365.325 664.694 364.792 664.041 364.263C666.285 368.858 668.53 373.457 670.774 378.051C665.76 374.749 661.599 370.161 658.8 364.851C660.555 374.749 664.69 384.212 670.756 392.227C669.607 391.73 668.461 391.234 667.311 390.738C669.515 394.676 672.329 398.271 675.618 401.362C671.53 399.282 667.851 396.398 664.855 392.928C666.355 399.103 668.931 405.019 672.431 410.322C670.128 409.242 668.107 407.574 666.61 405.519C668.194 413.672 671.154 421.895 675.526 428.961C673.65 428.125 671.888 427.026 670.307 425.713C671.486 427.654 672.661 429.599 673.84 431.541C673.052 431.205 672.267 430.873 671.479 430.537C677.588 445.508 686.632 459.07 695.614 472.519C692.191 470.706 689.355 467.811 687.614 464.352C687.588 465.403 687.563 466.454 687.541 467.505C685.749 465.545 684.165 463.392 682.833 461.096C683.286 461.903 681.61 461.961 680.95 461.315C679.373 459.771 677.983 458.03 676.826 456.151C676.789 457.125 676.756 458.103 676.72 459.078C673.293 457.924 670.391 455.3 668.906 452.005C672.15 458.654 675.307 465.359 678.552 472.012C677.515 471.545 676.483 471.082 675.446 470.614C678.658 476.961 681.869 483.308 685.085 489.658C685.417 490.319 685.756 491.115 685.402 491.764C685.18 492.177 684.57 492.242 684.198 492.056C690.428 504.772 699.399 516.133 710.341 525.119C708.563 525.348 706.705 524.889 705.238 523.859C706.253 524.994 707.267 526.129 708.286 527.264C705.264 525.757 702.381 523.983 699.673 521.965C701.523 525.713 704.253 529.024 707.574 531.56C705.18 531.41 702.822 530.728 700.724 529.571C700.647 531.093 701.147 532.64 702.103 533.827C697.979 531.465 694.205 528.498 690.935 525.046C690.669 526.527 690.833 528.082 691.41 529.476C687.026 527.338 683.161 524.148 680.223 520.257C680.22 521.739 680.216 523.221 680.213 524.702C678.822 523.177 677.428 521.651 676.037 520.126C679.873 529.48 684.256 538.757 689.563 547.363C694.87 555.969 701.742 563.816 710.476 568.907C708.297 569.148 706.034 568.444 704.377 567.009C706.738 570.046 709.622 572.677 712.859 574.758C708.541 574.108 704.483 571.838 701.676 568.491C701.778 569.666 702.198 570.812 702.873 571.783C699.698 570.239 696.844 568.035 694.548 565.352C694.705 567.666 694.862 569.98 695.019 572.294C693.3 570.582 691.749 568.706 690.388 566.696C690.888 567.298 690.085 568.254 689.308 568.188C688.526 568.123 687.939 567.477 687.435 566.878C685.581 564.681 683.727 562.487 681.873 560.29C691.088 583.834 710.107 602.63 732.99 613.386C731.494 613.316 729.998 613.247 728.501 613.178C730.1 614.973 732.111 616.404 734.337 617.32C730.49 618.576 725.946 617.291 723.326 614.211C725.275 617.944 727.724 621.419 730.585 624.51C726.556 621.813 722.976 618.44 720.049 614.575C720.695 617.178 722.078 619.594 723.994 621.47C719.041 619.134 714.45 616.032 710.439 612.305C711.808 615.207 713.99 617.718 716.669 619.484C710.351 616.156 704.833 611.327 700.694 605.51C701.286 609.7 703.293 613.678 706.315 616.645C700.092 612.068 694.603 606.495 690.121 600.203C690.056 602.831 690.833 605.477 692.315 607.648C688.891 606.017 685.767 603.762 683.143 601.021C683.731 603.459 684.924 605.751 686.585 607.63C684.125 606.904 681.87 605.495 680.14 603.605C680.154 604.835 680.165 606.064 680.18 607.294C678.479 606.918 676.917 605.944 675.833 604.579C679.326 610.645 683.764 616.619 689.151 621.086C688.147 621.32 687.037 621.054 686.245 620.389C686.57 621.692 687.242 622.908 688.172 623.879C684.669 622.623 681.296 620.992 678.136 619.028C684.344 627.448 693.052 633.999 702.866 637.627C701.326 638.506 699.443 638.766 697.724 638.339C697.654 638.729 697.964 639.068 698.329 639.196C696.092 639.328 693.811 638.678 692.03 637.317C697.917 643.66 707.618 644.149 716.268 644.2C714.753 645.674 712.899 646.798 710.892 647.466C712.381 648.039 713.873 648.609 715.362 649.182C713.351 649.499 711.341 649.813 709.326 650.131C710.585 650.868 711.841 651.609 713.1 652.346C705.866 654.309 698.037 654.028 690.964 651.547C692.698 653.357 694.705 654.904 696.899 656.123C694.505 656.798 691.786 656.189 689.906 654.561C695.118 661.558 702.311 668.569 709.753 673.124C707.147 673.704 704.348 673.368 701.954 672.185C702.694 673.795 703.636 675.313 704.749 676.693C702.6 676.364 700.592 675.204 699.231 673.51C699.308 674.569 699.384 675.631 699.461 676.689C697.687 676.226 696.027 675.346 694.64 674.145C703.939 686.777 719.085 694.912 734.753 695.693C733.279 696.616 732.472 697.105 730.801 697.58C732.855 697.354 734.972 697.762 736.793 698.74C734.757 699.748 732.352 699.985 730.158 699.397C733.027 701.657 736.501 703.135 740.115 703.638C735.859 704.773 731.184 704.244 727.293 702.182C729.593 706.839 733.41 710.73 738.023 713.12C729.483 713.408 721.428 709.514 713.775 705.708C714.771 707.711 716.162 709.525 717.837 711.011C714.972 710.956 712.125 710.018 709.786 708.361C710.257 709.211 710.724 710.065 711.194 710.916C703.932 709.766 697.019 706.496 691.527 701.613C691.421 703.179 692.052 704.781 693.198 705.85C689.658 705.591 686.256 703.788 684.056 701.003C694.552 720.157 713.581 735.843 734.822 740.923C731.052 741.872 727.717 742.544 724.1 741.124C727.333 745.336 732.096 748.347 737.286 749.467C734.691 749.92 731.99 749.73 729.487 748.912C729.815 750.15 730.665 751.241 731.786 751.858C729.706 751.712 727.684 750.792 726.213 749.31C726.173 750.296 726.425 751.288 726.928 752.135C723.019 751.723 719.231 750.204 716.118 747.803C717.041 749.978 718.322 752.004 719.888 753.77C715.494 752.518 711.249 750.741 707.275 748.482C707.91 750.285 708.837 751.989 710.005 753.504C707.446 752.799 705.005 751.661 702.819 750.153C702.662 751.996 703.063 753.887 703.961 755.507C701.486 754.883 699.129 753.788 697.052 752.299C696.884 753.299 696.997 754.347 697.37 755.288C693.005 753.299 689.074 750.365 685.921 746.752C686.311 751.343 688.381 755.77 691.654 759.011C689.61 758.007 687.567 757.004 685.523 756C686.136 757.204 686.749 758.405 687.362 759.61C682.833 758.361 678.687 755.745 675.61 752.19C675.65 754.54 676.705 756.858 678.453 758.431C674.61 757.183 671.096 754.993 668.205 752.172C668.121 757.438 668.07 762.694 668.034 767.945C668.972 769.964 669.847 771.964 671.081 773.873C672.541 776.132 674.187 778.263 675.829 780.391C675.574 780.46 675.282 780.358 675.121 780.146C675.125 780.311 675.129 780.478 675.132 780.643C673.008 778.57 671.052 776.325 669.293 773.935C668.811 773.278 668.373 772.591 667.99 771.872C667.895 789.902 668.004 807.895 668.023 826.037C668.118 826.121 668.22 826.253 668.38 826.424C669.187 827.285 669.895 828.205 670.774 829.001C670.884 829.103 671.004 829.216 671.019 829.366C671.037 829.515 670.877 829.68 670.745 829.607C670.738 829.731 670.727 829.855 670.72 829.975C670.647 829.986 670.57 829.964 670.519 829.913C670.501 830.052 670.479 830.187 670.461 830.326C669.61 829.76 668.804 829.139 668.019 828.486C668.023 836.687 668.012 844.913 667.939 853.198C667.585 853.497 668.015 853.629 667.57 853.508C664.939 852.778 661.384 852.359 658.785 853.198C658.895 840.45 658.877 827.84 658.844 815.271C658.041 815.698 657.238 816.128 656.431 816.555C655.961 816.807 655.479 817.063 655.106 817.45C654.993 817.296 654.782 817.22 654.595 817.271C654.479 817.085 654.362 816.895 654.245 816.709C654.209 816.65 654.172 816.588 654.19 816.523C654.201 816.471 654.245 816.435 654.285 816.398C655.541 815.347 656.76 814.165 658.092 813.209C658.395 812.99 658.632 812.891 658.836 812.851C658.778 792.373 658.716 772 659.059 751.511C658.731 753.084 658.048 754.58 657.041 755.832C656.336 755.993 655.672 755.055 656.059 754.445C653.3 758.668 648.701 761.639 643.72 762.416C644.599 759.978 645.479 757.54 646.358 755.106C644.121 758.431 640.256 760.602 636.252 760.778C637.223 759.5 638.198 758.223 639.168 756.945C631.632 761.748 622.482 763.971 613.584 763.157C614.07 762.208 614.92 761.486 615.894 761.051C613.292 761.577 610.515 761.245 608.164 760C609.263 759.102 610.515 758.387 611.847 757.894C609.748 758.263 607.54 757.975 605.606 757.08C607.383 755.821 609.398 754.898 611.515 754.38C609.394 754.566 606.383 753.927 606.591 751.81C608.11 751.515 609.205 751.146 610.748 751.04C618.219 750.518 624.281 744.989 629.369 739.493C631.438 737.259 633.555 734.759 633.858 731.726C631.705 733.982 627.895 732.252 624.843 732.916C625.719 732.124 626.391 731.109 626.778 729.993C625.369 730.777 623.759 731.201 622.15 731.204C623.135 730.197 623.891 728.963 624.336 727.624C622.245 728.573 618.672 729.58 616.387 729.799C629.949 722.806 640.599 710.361 645.413 695.883C643.851 698.08 641.26 699.514 638.566 699.671C638.573 698.021 638.909 696.375 639.552 694.857C638.289 696.262 636.741 697.412 635.037 698.222C635.387 696.697 635.504 695.12 635.384 693.558C631.508 699.376 625.453 703.708 618.694 705.496C618.927 704.54 619.161 703.584 619.394 702.624C617.913 703.394 616.427 704.168 614.946 704.938C616.011 703.317 617.077 701.697 618.143 700.076C616.391 701.284 614.04 701.573 612.051 700.817C624.041 690.989 633.125 677.656 637.884 662.904C636.139 663.809 634.183 664.299 632.219 664.328C634.125 662.744 635.533 660.565 636.198 658.174C633.533 661.273 629.179 662.828 625.154 662.116C625.847 661.488 626.292 660.59 626.376 659.66C624.23 660.722 621.701 660.988 619.38 660.397C620.391 659.649 621.124 658.532 621.409 657.306C620.267 658.547 618.394 659.058 616.778 658.572C618.781 657.656 620.457 656.039 621.446 654.072C619.544 656.109 616.81 656.78 614.026 656.89C623.584 646.948 629.774 636.291 633.081 622.9C630.902 626.488 627.267 629.163 623.19 630.174C623.942 629.014 624.365 627.645 624.402 626.265C622.566 629.203 619.646 631.448 616.336 632.466C616.135 631.627 615.938 630.787 615.737 629.944C613.274 632.349 611.022 634.966 609.004 637.751C609.872 636.076 610.347 634.189 610.23 632.302C606.5 638.645 600.091 643.353 592.927 645.021C595.365 643.393 597.281 641.003 598.343 638.269C596.124 639.291 593.818 640.127 591.46 640.762C593.241 640.068 594.661 638.514 595.19 636.678C591.869 638.309 587.686 638.868 584 638.667Z" fill="#2E2865"/>
<path d="M702.568 692.888C702.242 693.516 701.86 694.116 701.365 694.624C701.75 694.037 702.155 693.46 702.568 692.888Z" fill="#2E2865"/>
<path d="M765.344 693.901C765.483 693.893 765.624 693.909 765.763 693.891C765.632 693.965 765.483 693.95 765.344 693.901Z" fill="#2E2865"/>
<path d="M685 693.529C696.938 689.894 706.008 680.062 712.63 669.489C713.482 668.13 713.554 666.896 713.474 665.296C712.941 666.475 712.005 667.471 710.855 668.068C710.768 667.458 710.758 666.837 710.822 666.224C709.601 668.999 706.662 670.926 703.63 670.939C706.213 668.392 708.429 665.473 710.191 662.3C709.116 662.51 708.008 662.546 706.923 662.405C707.072 661.489 707.86 660.832 708.573 660.237C712.969 656.567 716.522 651.891 718.879 646.671C718.053 647.581 717.068 648.346 715.98 648.92C716.134 648.328 716.291 647.735 716.447 647.143C715.516 647.646 714.429 647.846 713.379 647.71C713.449 647.151 713.518 646.591 713.585 646.032C712.064 647.017 710.15 647.379 708.373 647.017C709.991 646.053 711.417 644.763 712.536 643.244C711.33 643.934 709.94 644.298 708.549 644.288C708.616 643.754 708.68 643.223 708.747 642.693C707.121 643.431 705.241 643.4 703.478 643.093C711.068 639.019 716.283 632.212 719.051 624.053C717.902 625.92 716.052 627.349 713.954 627.987C714.164 627.423 714.231 626.807 714.146 626.212C712.659 627.387 710.768 628.046 708.896 628.346C716.591 621.613 721.757 612.053 723.175 601.929C722.734 602.576 721.975 602.996 721.19 603.027C722.896 600.177 723.234 596.992 722.96 593.683C722.501 594.583 721.521 595.196 720.51 595.214C721.477 594.26 722.029 592.898 721.998 591.541C720.297 593.303 718.235 594.719 715.978 595.671C716.034 593.629 719.341 592.592 718.953 590.587C718.058 591.459 716.932 592.087 715.721 592.395C717.204 590.969 718.815 589.189 718.486 587.157C717.042 589.471 715.049 591.184 712.464 592.056C715.598 588.896 716.55 584.259 718.009 580.055C719.464 575.866 721.544 571.898 724.165 568.32C722.824 568.843 721.275 568.81 719.956 568.227C723.886 562.276 726.902 555.723 728.87 548.867C727.805 549.321 726.61 549.459 725.468 549.264C728.38 545.95 729.719 541.307 729.013 536.952C728.056 538.422 726.546 539.525 724.855 539.989C726.954 538.042 728.59 535.603 729.595 532.922C726.933 536.485 722.842 538.945 718.448 539.627C721.264 534.477 723.604 529.062 725.422 523.48C724.568 523.411 723.716 523.342 722.862 523.27C724.181 520.374 725.738 517.586 727.51 514.941C726.887 514.582 726.094 514.534 725.43 514.811C727.697 511.302 729.298 507.364 730.116 503.266C729.46 503.25 728.811 503.006 728.308 502.586C730.486 498.995 732.137 495.083 733.192 491.017C732.612 491.779 731.486 492.064 730.611 491.674C732.702 487.111 733.523 483.007 733.838 478C735.67 483.284 737.501 488.568 739.332 493.849C739.466 494.237 739.591 494.696 739.355 495.029C739.22 495.222 738.94 495.229 738.74 495.139C740.038 497.358 741.336 499.574 742.634 501.793C742.174 501.421 741.713 501.047 741.254 500.675C742.831 503.904 744.409 507.136 745.986 510.365C742.462 508.044 739.538 504.82 737.57 501.088C738.804 508.044 741.71 514.695 745.973 520.328C745.165 519.979 744.36 519.63 743.552 519.281C745.101 522.049 747.079 524.576 749.39 526.748C746.517 525.286 743.931 523.26 741.826 520.821C742.88 525.161 744.691 529.318 747.15 533.045C745.532 532.286 744.111 531.114 743.059 529.67C744.173 535.4 746.253 541.179 749.326 546.145C748.007 545.558 746.768 544.786 745.658 543.862C746.486 545.227 747.312 546.594 748.141 547.958C747.587 547.723 747.035 547.489 746.481 547.253C750.775 557.775 757.131 567.306 763.444 576.759C761.038 575.484 759.045 573.45 757.821 571.018C757.803 571.757 757.785 572.495 757.77 573.234C756.51 571.857 755.397 570.343 754.461 568.73C754.779 569.297 753.602 569.338 753.137 568.884C752.029 567.799 751.052 566.575 750.239 565.254C750.213 565.939 750.19 566.627 750.164 567.312C747.756 566.501 745.717 564.657 744.673 562.341C746.953 567.014 749.172 571.726 751.452 576.402C750.724 576.074 749.998 575.748 749.269 575.42C751.526 579.88 753.784 584.341 756.043 588.804C756.277 589.268 756.515 589.827 756.267 590.284C756.11 590.574 755.682 590.62 755.42 590.489C759.799 599.426 766.104 607.411 773.793 613.726C772.544 613.887 771.239 613.564 770.208 612.841C770.921 613.639 771.634 614.436 772.349 615.234C770.225 614.175 768.199 612.928 766.296 611.509C767.596 614.144 769.515 616.47 771.849 618.253C770.167 618.148 768.509 617.668 767.035 616.855C766.981 617.925 767.332 619.012 768.004 619.846C765.106 618.186 762.453 616.101 760.155 613.674C759.968 614.716 760.083 615.809 760.489 616.788C757.408 615.285 754.692 613.043 752.627 610.309C752.624 611.351 752.622 612.392 752.619 613.433C751.642 612.361 750.662 611.289 749.685 610.217C752.381 616.791 755.461 623.311 759.191 629.36C762.92 635.408 767.75 640.923 773.888 644.501C772.357 644.67 770.767 644.175 769.602 643.167C771.262 645.301 773.288 647.151 775.563 648.613C772.529 648.156 769.677 646.561 767.704 644.208C767.776 645.034 768.071 645.84 768.545 646.522C766.314 645.437 764.308 643.888 762.695 642.003C762.805 643.629 762.915 645.255 763.026 646.881C761.817 645.678 760.727 644.36 759.77 642.946C760.122 643.37 759.558 644.042 759.011 643.996C758.462 643.949 758.049 643.495 757.695 643.075C756.392 641.531 755.089 639.989 753.786 638.445C760.263 654.992 773.629 668.202 789.712 675.761C788.66 675.712 787.609 675.663 786.557 675.615C787.68 676.877 789.094 677.882 790.658 678.526C787.955 679.408 784.761 678.505 782.92 676.341C784.29 678.965 786.011 681.406 788.022 683.579C785.19 681.683 782.674 679.313 780.616 676.597C781.07 678.426 782.043 680.124 783.389 681.442C779.908 679.801 776.682 677.62 773.863 675.002C774.825 677.041 776.358 678.805 778.241 680.047C773.801 677.708 769.923 674.314 767.014 670.226C767.43 673.17 768.84 675.966 770.964 678.051C766.591 674.835 762.733 670.918 759.583 666.496C759.537 668.343 760.083 670.202 761.125 671.729C758.719 670.582 756.523 668.997 754.679 667.071C755.092 668.784 755.931 670.395 757.098 671.716C755.369 671.205 753.784 670.215 752.568 668.887C752.578 669.751 752.586 670.615 752.596 671.48C751.401 671.216 750.303 670.531 749.541 669.571C751.996 673.835 755.115 678.033 758.901 681.173C758.196 681.337 757.416 681.15 756.859 680.683C757.087 681.599 757.559 682.453 758.213 683.135C755.751 682.253 753.381 681.106 751.16 679.726C755.523 685.644 761.643 690.248 768.54 692.798C767.458 693.416 766.134 693.598 764.926 693.298C764.877 693.572 765.095 693.811 765.352 693.901C763.78 693.993 762.176 693.536 760.925 692.58C765.062 697.038 771.88 697.381 777.959 697.417C776.895 698.454 775.592 699.244 774.181 699.713C775.227 700.116 776.276 700.516 777.323 700.919C775.91 701.142 774.496 701.362 773.08 701.585C773.965 702.104 774.848 702.624 775.733 703.142C770.649 704.522 765.147 704.325 760.176 702.581C761.394 703.853 762.805 704.941 764.346 705.797C762.664 706.272 760.753 705.843 759.432 704.699C763.095 709.617 768.15 714.544 773.38 717.745C771.549 718.153 769.582 717.917 767.899 717.086C768.42 718.217 769.081 719.284 769.864 720.254C768.353 720.023 766.942 719.207 765.986 718.017C766.039 718.761 766.093 719.507 766.147 720.251C764.9 719.925 763.733 719.307 762.759 718.463C769.294 727.341 779.939 733.058 790.951 733.607C789.915 734.256 789.348 734.6 788.173 734.933C789.617 734.774 791.105 735.062 792.385 735.749C790.953 736.457 789.263 736.624 787.722 736.211C789.738 737.798 792.18 738.837 794.719 739.191C791.728 739.989 788.442 739.617 785.708 738.168C787.324 741.441 790.007 744.175 793.249 745.855C787.247 746.058 781.586 743.321 776.207 740.646C776.907 742.054 777.885 743.329 779.062 744.373C777.048 744.334 775.048 743.675 773.404 742.51C773.734 743.108 774.063 743.708 774.394 744.306C769.289 743.498 764.431 741.2 760.571 737.768C760.496 738.868 760.94 739.994 761.745 740.746C759.257 740.564 756.867 739.296 755.32 737.339C762.697 750.801 776.071 761.825 791 765.396C788.35 766.063 786.006 766.534 783.464 765.537C785.736 768.497 789.084 770.613 792.731 771.4C790.907 771.718 789.009 771.585 787.25 771.01C787.48 771.88 788.078 772.647 788.865 773.08C787.403 772.978 785.982 772.331 784.949 771.29C784.921 771.983 785.097 772.68 785.451 773.275C782.704 772.986 780.042 771.918 777.854 770.231C778.503 771.759 779.403 773.183 780.504 774.424C777.415 773.545 774.432 772.296 771.639 770.708C772.085 771.975 772.737 773.173 773.557 774.237C771.759 773.742 770.043 772.942 768.507 771.883C768.397 773.178 768.679 774.507 769.31 775.645C767.571 775.207 765.914 774.437 764.454 773.391C764.336 774.094 764.416 774.83 764.677 775.492C761.61 774.094 758.847 772.031 756.631 769.492C756.905 772.719 758.36 775.83 760.661 778.108C759.224 777.402 757.788 776.697 756.351 775.992C756.782 776.838 757.213 777.682 757.644 778.529C754.461 777.651 751.547 775.812 749.385 773.314C749.413 774.966 750.154 776.595 751.383 777.7C748.682 776.823 746.212 775.284 744.18 773.301C744.121 777.002 744.085 780.696 744.06 784.387C744.719 785.806 745.334 787.211 746.201 788.553C747.227 790.14 748.384 791.638 749.539 793.134C749.359 793.183 749.154 793.111 749.041 792.962C749.044 793.077 749.046 793.195 749.049 793.311C747.556 791.854 746.181 790.276 744.945 788.596C744.606 788.135 744.298 787.652 744.029 787.147C743.962 799.818 744.039 812.464 744.052 825.215C744.119 825.274 744.19 825.366 744.303 825.486C744.87 826.092 745.368 826.738 745.986 827.297C746.063 827.369 746.148 827.449 746.158 827.554C746.171 827.659 746.058 827.774 745.966 827.723C745.96 827.81 745.953 827.898 745.948 827.982C745.896 827.99 745.842 827.975 745.806 827.939C745.794 828.036 745.778 828.131 745.765 828.228C745.168 827.831 744.601 827.395 744.049 826.936C744.052 832.699 744.044 838.481 743.993 844.303C743.744 844.514 744.047 844.606 743.734 844.521C741.885 844.008 739.386 843.714 737.56 844.303C737.637 835.344 737.624 826.482 737.601 817.648C737.037 817.948 736.472 818.251 735.905 818.551C735.575 818.728 735.236 818.907 734.974 819.179C734.895 819.071 734.746 819.017 734.615 819.053C734.533 818.923 734.451 818.789 734.369 818.658C734.343 818.617 734.318 818.574 734.331 818.528C734.338 818.492 734.369 818.466 734.397 818.44C735.28 817.702 736.136 816.871 737.073 816.199C737.285 816.045 737.452 815.975 737.596 815.947C737.555 801.555 737.511 787.237 737.752 772.837C737.521 773.942 737.042 774.994 736.334 775.874C735.839 775.987 735.372 775.327 735.644 774.899C733.705 777.867 730.473 779.955 726.972 780.501C727.59 778.788 728.208 777.074 728.826 775.363C727.254 777.7 724.537 779.226 721.723 779.349C722.406 778.452 723.091 777.554 723.773 776.656C718.476 780.032 712.046 781.594 705.792 781.022C706.133 780.355 706.731 779.847 707.416 779.542C705.587 779.911 703.635 779.678 701.983 778.803C702.755 778.172 703.635 777.669 704.571 777.323C703.096 777.582 701.544 777.379 700.185 776.751C701.434 775.866 702.85 775.217 704.338 774.853C702.847 774.984 700.731 774.535 700.878 773.047C701.945 772.839 702.714 772.58 703.799 772.506C709.05 772.139 713.31 768.253 716.886 764.39C718.34 762.82 719.828 761.063 720.041 758.932C718.527 760.517 715.85 759.301 713.705 759.768C714.321 759.211 714.793 758.498 715.065 757.713C714.075 758.265 712.943 758.562 711.812 758.565C712.505 757.857 713.036 756.99 713.349 756.049C711.879 756.716 709.368 757.424 707.762 757.577C717.294 752.663 724.778 743.916 728.162 733.741C727.064 735.285 725.243 736.293 723.35 736.403C723.355 735.244 723.591 734.087 724.042 733.02C723.155 734.007 722.067 734.815 720.869 735.385C721.116 734.313 721.198 733.205 721.113 732.107C718.389 736.195 714.134 739.24 709.383 740.497C709.547 739.825 709.711 739.153 709.876 738.478C708.834 739.019 707.79 739.563 706.749 740.104C707.498 738.966 708.247 737.827 708.996 736.688C707.765 737.537 706.113 737.74 704.715 737.209C713.141 730.301 719.525 720.931 722.87 710.563C721.644 711.199 720.269 711.543 718.889 711.563C720.228 710.45 721.218 708.919 721.685 707.239C719.813 709.417 716.752 710.509 713.923 710.009C714.411 709.568 714.723 708.937 714.782 708.283C713.274 709.029 711.497 709.216 709.865 708.801C710.576 708.275 711.091 707.49 711.292 706.628C710.489 707.5 709.173 707.86 708.036 707.518C709.445 706.875 710.622 705.738 711.317 704.356C709.981 705.787 708.06 706.259 706.102 706.336C712.82 699.349 717.171 691.859 719.494 682.448C717.963 684.969 715.408 686.849 712.543 687.56C713.072 686.744 713.369 685.782 713.395 684.813C712.105 686.878 710.053 688.455 707.726 689.171C707.585 688.581 707.446 687.991 707.305 687.398C705.574 689.089 703.991 690.928 702.573 692.885C703.183 691.708 703.517 690.382 703.435 689.055C700.813 693.513 696.309 696.822 691.274 697.994C692.987 696.85 694.334 695.17 695.081 693.249C693.521 693.967 691.9 694.555 690.243 695.001C691.495 694.514 692.492 693.421 692.864 692.131C690.53 693.277 687.591 693.67 685 693.529Z" fill="#2E2865"/>
<path d="M869.079 679.306C869.72 679.79 870.403 680.214 871.159 680.483C870.455 680.108 869.774 679.695 869.079 679.306Z" fill="#2E2865"/>
<path d="M850.406 435.983C849.843 435.568 849.281 435.153 848.718 434.74C849.217 435.236 849.768 435.678 850.406 435.983Z" fill="#2E2865"/>
<path d="M880.133 648.867C877.537 646.265 875.261 643.338 873.381 640.179C872.391 638.521 871.483 636.652 871.748 634.739C872.489 635.431 873.496 635.832 874.511 635.838C874.283 635.322 874.197 634.748 874.26 634.188C875.708 635.604 877.889 636.225 879.865 635.78C879.403 635.351 879.357 634.549 879.77 634.073C881.76 635.994 885.316 637.191 888.08 637.191C881.382 632.308 875.977 625.673 872.547 618.128C873.738 618.021 874.872 617.395 875.599 616.446C869.723 611.124 865.05 604.484 862.019 597.158C864.566 599.612 867.534 601.631 870.756 603.1C870.594 602.399 870.43 601.698 870.268 600.997C871.86 602.015 873.917 602.272 875.714 601.683C865.717 593.327 859.702 581.668 857.06 568.907C858.387 571.221 860.675 572.963 863.256 573.632C862.172 571.945 861.09 570.254 860.005 568.567C862.322 570.352 864.739 572.005 867.242 573.514C868.589 574.324 870.28 575.106 871.656 574.344C869.334 573.017 867.332 571.14 865.858 568.91C868.688 570.505 872.16 571.786 875.105 570.416C874.171 568.973 872.873 567.814 871.633 566.623C866.207 561.405 861.655 555.278 858.231 548.575C857.499 547.141 856.804 545.609 856.87 544.003C859.685 547.404 864.329 548.543 868.641 549.489C869.071 549.584 869.795 549.613 870.19 549.417C865.927 548.834 862.223 546.033 859.619 542.607C857.014 539.183 855.356 535.15 853.726 531.167C853.507 530.628 853.282 530.065 853.319 529.485C854.937 531.207 857.68 531.752 859.835 530.78C854.906 527.204 851.64 521.423 851.121 515.354C852.552 516.456 854.294 517.146 856.091 517.319C855.63 516.592 855.552 515.631 855.895 514.841C859.175 518.164 864.525 519.07 869.149 518.426C865.492 515.357 861.984 512.014 859.466 507.962C856.948 503.906 855.477 499.048 856.175 494.327C857.458 495.025 858.578 496.014 859.431 497.2C856.08 492.103 854.343 485.959 854.534 479.861C857.181 483.268 858.909 487.064 859.319 491.359C858.226 480.106 850.752 470.074 850.469 458.77C851.055 460.42 852.765 461.597 854.516 461.553C851.309 457.53 848.987 452.805 847.758 447.812C847.426 446.459 847.259 444.806 848.303 443.886C849.786 446.214 851.072 449.041 852.552 451.368C850.983 447.8 849.417 444.232 847.847 440.667C846.82 438.328 845.785 435.657 846.78 433.306C847.426 433.782 848.075 434.258 848.721 434.737C847.579 433.603 846.823 432.071 846.751 430.462C847.821 432.051 850.045 432.749 851.831 432.054C849.313 428.656 847.268 424.906 845.771 420.952C847.423 421.408 849.22 421.31 850.815 420.678C847.568 414.69 845.272 408.185 844.04 401.482C844.571 402.526 845.808 403.161 846.965 402.982C845.303 398.935 843.642 394.885 841.983 390.838C843.117 390.893 844.253 390.945 845.387 391C838.046 378.579 834.29 364.425 833.979 350C829.557 364.61 824.267 378.957 818.149 392.944C821.319 392.326 824.152 390.157 825.571 387.256C823.624 394.588 820.361 401.565 815.983 407.761C817.814 407.441 819.427 406.077 820.047 404.323C818.994 409.209 817.212 413.94 814.771 418.304C816.003 417.632 817.235 416.957 818.469 416.285C814.004 427.517 809.539 438.746 805.074 449.978C808.498 445.369 811.921 440.762 815.342 436.153C815.795 440.457 814.76 444.907 812.452 448.568C814.832 448.294 816.958 446.462 817.581 444.146C815.758 451.19 813.173 458.502 809.311 464.666C809.923 465.355 811.206 465.223 811.665 464.426C809.744 469.864 806.141 474.617 804.514 480.15C803.565 483.377 803.32 486.767 802.622 490.058C799.781 503.436 789.826 513.987 780.285 523.786C783.599 522.664 786.584 520.581 788.777 517.852C786.475 524.391 782.682 530.397 777.767 535.286C780.492 534.124 783.002 532.456 785.131 530.394C785.33 531.239 785.529 532.084 785.731 532.932C790.773 530.619 794.995 526.604 797.626 521.72C797.369 522.528 798.31 523.627 799.288 523.535C800.441 523.425 801.269 522.416 801.961 521.49C804.932 517.503 807.901 513.514 810.872 509.528C811.255 509.011 812.363 508.861 812.631 509.444C812.899 510.027 812.694 510.71 812.487 511.316C804.416 534.646 790.501 555.927 772.37 572.68C774.49 573.9 777.542 573.015 778.681 570.851C778.355 573.038 777.219 575.094 775.54 576.534C777.994 576.404 780.386 575.29 782.064 573.491C781.88 574.76 781.447 575.991 780.792 577.096C785.185 575.152 788.935 571.783 791.335 567.621C791.523 569.573 790.992 571.59 789.858 573.193C795.893 569.282 800.675 563.473 803.358 556.804C797.199 574.356 787.21 590.18 774.383 603.648C775.684 603.749 776.982 603.849 778.283 603.95C776.668 607.954 774.328 611.664 771.412 614.848C776.411 613.789 781.089 611.257 784.704 607.645C784.438 609.595 783.486 611.444 782.056 612.794C786.489 612.217 790.666 609.852 793.444 606.345C789.737 615.563 783.671 623.374 776.166 629.885C777.487 629.836 778.808 629.787 780.129 629.737C779.875 631.56 778.871 633.265 777.4 634.37C779.379 634.627 781.433 634.272 783.215 633.372C781.935 635.085 780.34 636.565 778.531 637.707C780.951 638.059 783.495 637.456 785.503 636.06C784.897 637.252 784.026 638.31 782.97 639.129C786.628 638.939 790.213 637.557 793.054 635.25C792.898 637.84 791.006 640.24 788.523 640.993C790.204 641.163 791.926 640.906 793.481 640.251C787.556 645.7 780.873 650.321 773.682 653.941C775.895 655.126 778.603 655.34 780.974 654.518C780.184 655.646 779.194 656.632 778.061 657.417C784.115 658.732 790.677 657.532 795.875 654.163C794.6 656.456 792.688 658.392 790.412 659.695C791.877 659.975 793.438 659.742 794.759 659.044C794.029 662.964 790.343 665.545 786.87 667.509C783.002 669.699 779.013 671.672 774.925 673.414C776.52 673.87 778.202 674.025 779.855 673.867C779.122 674.568 778.39 675.269 777.66 675.97C781.245 676.304 784.923 675.583 788.116 673.919C786.841 676.371 784.698 678.364 782.16 679.457C783.717 680.161 785.676 679.866 786.962 678.739C786.492 679.405 786.019 680.074 785.549 680.74C789.801 681.245 794.251 679.734 797.315 676.74C792.982 682.261 787.112 687.536 781.012 691.006C780.559 691.263 780.074 691.546 779.855 692.019C779.52 692.748 780.002 693.645 780.697 694.049C781.392 694.453 782.235 694.488 783.036 694.517C781.923 695.419 780.81 696.322 779.696 697.225C780.64 697.064 781.629 697.182 782.509 697.563C781.283 698.803 780.054 700.043 778.825 701.284C783.916 701.589 788.967 699.864 793.354 697.266C797.741 694.667 801.56 691.223 805.325 687.781C802.302 692.255 798.477 696.181 794.087 699.322C795.094 699.296 796.106 699.461 797.055 699.804C795.924 700.782 794.794 701.76 793.663 702.737C795.468 702.844 797.303 702.313 798.777 701.266C800.381 702.772 802.985 702.106 804.973 701.162C807.549 699.939 809.972 698.399 812.172 696.585C812.207 697.292 812.244 697.998 812.279 698.702C812.605 698.731 812.931 698.676 813.257 698.662C812.726 719.626 812.573 740.544 811.994 761.511C811.818 767.923 811.682 774.335 811.526 780.747C808.737 782.294 806.118 784.538 803.32 786.052C803.473 787.038 803.629 788.025 803.781 789.014C803.825 789.3 803.929 789.649 804.214 789.698C804.347 789.721 804.48 789.666 804.604 789.611C806.525 788.766 808.359 787.719 810.067 786.499C810.505 786.185 810.941 785.853 811.267 785.426C811.339 785.334 811.359 785.218 811.42 785.12C810.886 807.608 810.462 830.098 810.145 852.594C808.694 853.993 807.246 855.394 805.795 856.793C805.03 857.532 804.211 858.648 804.788 859.539C804.927 859.404 805.137 859.352 805.322 859.404C805.599 859.966 806.38 860.529 806.657 861.091C807.658 859.32 808.841 857.659 810.101 856.064C810.038 860.676 809.977 865.288 809.923 869.9C807.901 871.374 805.939 872.932 804.113 874.645C804.376 875.251 804.327 876.318 803.931 876.846C804.206 877.576 804.076 878.444 803.6 879.061C805.954 878.121 807.935 876.465 809.859 874.81C809.674 891.052 809.516 907.294 809.412 923.534L833.613 924.751C832.505 901.11 831.859 873.03 831.464 843.822C831.507 843.831 831.55 843.839 831.593 843.848C832.998 844.18 833.953 846.052 835.358 845.711C835.381 845.322 835.407 844.935 835.43 844.546C836.01 844.485 836.592 844.422 837.172 844.361C835.026 842.807 833.111 840.952 831.403 838.927C831.146 818.707 831.005 798.048 830.904 778.019C831.804 778.997 832.966 779.934 833.558 780.508C833.497 780.286 833.78 780.119 834.008 780.127C834.236 780.139 834.469 780.237 834.688 780.173C834.988 780.09 835.231 779.718 835.525 779.822C835.536 779.314 835.265 778.849 834.994 778.42C833.788 776.513 832.39 774.733 830.878 773.055C830.783 753.296 830.725 734.276 830.633 717.013C832.865 718.596 835.098 720.183 837.331 721.769C839.214 723.104 841.127 724.46 843.304 725.23C843.074 724.881 842.843 724.532 842.612 724.18C843.457 724.276 844.302 724.371 845.15 724.469C842.064 721.795 838.828 719.291 835.461 716.978C834.025 715.991 832.283 714.451 830.618 713.788C830.575 705.971 830.52 698.569 830.454 691.629C830.618 691.378 830.8 691.142 830.947 690.879C831.305 692.122 831.66 693.366 832.017 694.609C833.105 693.487 834.189 692.365 835.277 691.24C836.439 692.91 837.636 694.618 839.301 695.792C840.962 696.965 843.215 697.522 845.064 696.674C843.258 694.819 841.799 692.63 840.775 690.253C844.897 693.005 849.258 695.843 854.199 696.239C853.861 695.581 853.527 694.923 853.189 694.263C855.373 695.477 857.934 696.002 860.418 695.74C859.665 695.264 859.157 694.424 859.082 693.536C861.28 693.657 863.496 693.527 865.665 693.155C859.215 689.622 853.527 684.704 849.102 678.834C851.369 680.028 853.634 681.222 855.901 682.413C854.606 680.98 853.737 679.163 853.44 677.25C858.647 682.523 866.146 686.345 873.147 688.777C869.446 687.594 866.81 684.395 864.393 681.355C862.697 679.22 861 677.089 859.304 674.954C858.886 674.426 858.465 673.651 858.912 673.149C862.221 675.338 865.633 677.366 869.1 679.298C867.889 678.378 866.905 677.149 866.383 675.719C869.792 678.597 874.09 681.669 878.322 680.259C874.393 678.868 870.825 676.474 868.047 673.368C870.185 674.164 872.498 674.969 874.699 674.366C870.187 671.64 866.654 667.328 864.866 662.369C866.792 663.468 869.068 663.944 871.275 663.708C869.106 663.154 867.427 661.481 865.867 659.877C862.624 656.546 860.276 653.866 859.867 649.236C861.257 650.961 862.737 652.675 864.644 653.803C866.55 654.93 868.976 655.395 871.001 654.495C866.585 651.607 863.265 647.082 861.834 642.002C865.89 645.72 870.323 649.617 875.783 650.286C875.457 649.666 875.354 648.931 875.486 648.244C876.712 649.363 878.645 649.614 880.133 648.867Z" fill="#2E2865"/>
<path d="M844.487 978.298C840.798 973.421 839.563 966.778 841.256 960.902C840.033 960.36 838.718 959.731 838.124 958.531C837.532 957.331 838.251 955.479 839.589 955.548C838.153 955.465 839.205 953.151 838.865 951.753C838.62 950.752 837.527 950.253 836.829 949.494C835.118 947.645 836.63 944.022 839.148 943.936C838.317 943.405 837.423 942.793 837.152 941.844C836.88 940.895 837.729 939.655 838.663 939.97C838.914 938.643 837.423 937.748 836.531 936.736C835.64 935.721 836.283 933.387 837.443 934.079C836.206 932.758 837.186 930.653 837.244 928.844C837.319 926.444 835.551 924.292 833.419 923.185C831.288 922.077 828.833 921.812 826.445 921.564C824.056 921.316 821.665 921.068 819.277 920.82C816.911 920.574 813.563 920.713 811.194 920.465C807.009 922.614 803.412 925.89 800.88 929.857C802.302 929.929 803.741 929.623 805.01 928.98C804.699 930.318 803.977 931.558 802.968 932.49C803.421 933.335 804.869 933.324 805.313 932.476C805.301 933.722 803.845 934.328 802.703 934.821C801.56 935.311 800.343 936.615 801.082 937.616C801.817 937.454 802.625 937.642 803.216 938.109C801.947 939.9 800.308 941.426 798.434 942.563C799.212 943.627 800.234 944.515 801.393 945.144C800.819 946.099 799.985 946.898 799.01 947.434C799.807 947.495 800.6 947.553 801.396 947.61C801.782 949.67 800.355 951.908 798.321 952.422C798.826 952.768 799.334 953.117 799.838 953.463C798.615 955.378 797.989 957.671 798.07 959.944C795.967 962.95 794.747 966.561 794.594 970.227C794.519 972.007 794.854 974.072 796.383 974.987C802.478 978.636 810.918 976.807 818.022 976.824C826.26 976.842 836.35 976.974 844.487 978.298Z" fill="#2E2865"/>
<path d="M944.334 794.288C944.763 794.612 945.22 794.896 945.725 795.075C945.255 794.825 944.799 794.549 944.334 794.288Z" fill="#2E2865"/>
<path d="M931.843 631.518C931.466 631.24 931.09 630.962 930.714 630.687C931.048 631.018 931.416 631.314 931.843 631.518Z" fill="#2E2865"/>
<path d="M951.729 773.926C949.992 772.186 948.47 770.227 947.211 768.114C946.55 767.005 945.942 765.755 946.119 764.475C946.615 764.938 947.289 765.207 947.968 765.21C947.815 764.865 947.758 764.481 947.8 764.107C948.769 765.054 950.227 765.469 951.549 765.172C951.24 764.884 951.21 764.348 951.485 764.03C952.817 765.315 955.196 766.115 957.044 766.115C952.564 762.849 948.948 758.411 946.654 753.363C947.451 753.292 948.209 752.873 948.695 752.238C944.765 748.678 941.639 744.236 939.611 739.335C941.315 740.977 943.3 742.328 945.456 743.31C945.348 742.841 945.238 742.372 945.129 741.904C946.195 742.585 947.57 742.756 948.772 742.363C942.085 736.773 938.062 728.974 936.294 720.437C937.182 721.985 938.712 723.15 940.439 723.598C939.713 722.469 938.99 721.338 938.264 720.21C939.814 721.404 941.431 722.51 943.105 723.519C944.006 724.061 945.137 724.584 946.058 724.074C944.504 723.187 943.165 721.931 942.179 720.439C944.072 721.506 946.395 722.363 948.365 721.446C947.74 720.482 946.872 719.706 946.042 718.909C942.413 715.419 939.368 711.32 937.077 706.836C936.587 705.877 936.122 704.852 936.167 703.778C938.05 706.052 941.157 706.815 944.041 707.448C944.329 707.511 944.813 707.53 945.077 707.399C942.226 707.01 939.748 705.136 938.006 702.844C936.263 700.553 935.154 697.856 934.064 695.191C933.917 694.83 933.766 694.454 933.791 694.066C934.874 695.218 936.709 695.583 938.15 694.932C934.853 692.54 932.668 688.673 932.321 684.613C933.278 685.35 934.444 685.812 935.646 685.927C935.337 685.441 935.285 684.798 935.515 684.27C937.708 686.493 941.288 687.099 944.381 686.668C941.934 684.615 939.588 682.379 937.903 679.668C936.219 676.955 935.235 673.706 935.702 670.547C936.56 671.014 937.309 671.676 937.88 672.469C935.638 669.059 934.476 664.949 934.604 660.87C936.375 663.149 937.531 665.688 937.805 668.561C937.074 661.034 932.074 654.323 931.885 646.761C932.277 647.865 933.421 648.652 934.592 648.623C932.447 645.932 930.893 642.771 930.071 639.431C929.849 638.526 929.737 637.42 930.436 636.805C931.428 638.362 932.288 640.253 933.278 641.81C932.229 639.423 931.181 637.036 930.131 634.651C929.444 633.087 928.751 631.3 929.417 629.727C929.849 630.046 930.284 630.364 930.716 630.684C929.952 629.926 929.446 628.901 929.398 627.825C930.114 628.888 931.601 629.355 932.796 628.89C931.111 626.617 929.743 624.108 928.742 621.463C929.847 621.768 931.05 621.702 932.117 621.28C929.944 617.274 928.408 612.923 927.584 608.439C927.939 609.137 928.767 609.562 929.541 609.442C928.429 606.735 927.318 604.026 926.208 601.319C926.967 601.355 927.727 601.39 928.485 601.427C923.575 593.118 921.062 583.65 920.854 574C917.896 583.773 914.357 593.371 910.264 602.727C912.385 602.314 914.28 600.863 915.229 598.922C913.927 603.827 911.744 608.495 908.815 612.639C910.041 612.425 911.119 611.512 911.534 610.339C910.83 613.608 909.637 616.772 908.005 619.692C908.829 619.242 909.653 618.791 910.479 618.341C907.492 625.855 904.505 633.366 901.518 640.88C903.808 637.797 906.099 634.715 908.387 631.632C908.69 634.511 907.997 637.488 906.454 639.937C908.046 639.753 909.468 638.528 909.884 636.979C908.665 641.69 906.936 646.582 904.352 650.705C904.761 651.166 905.62 651.078 905.927 650.545C904.642 654.182 902.232 657.362 901.144 661.063C900.509 663.222 900.345 665.49 899.878 667.691C897.977 676.64 891.318 683.699 884.935 690.253C887.152 689.503 889.149 688.11 890.616 686.284C889.076 690.659 886.539 694.676 883.251 697.946C885.074 697.169 886.753 696.054 888.177 694.674C888.31 695.239 888.443 695.805 888.578 696.372C891.951 694.824 894.776 692.139 896.536 688.872C896.364 689.412 896.993 690.147 897.647 690.085C898.419 690.012 898.973 689.337 899.436 688.717C901.423 686.051 903.409 683.382 905.396 680.716C905.653 680.37 906.394 680.27 906.573 680.66C906.753 681.049 906.616 681.507 906.477 681.912C901.078 697.518 891.77 711.754 879.641 722.961C881.059 723.777 883.1 723.185 883.862 721.738C883.644 723.2 882.884 724.576 881.761 725.539C883.403 725.452 885.003 724.707 886.126 723.503C886.002 724.352 885.713 725.176 885.275 725.915C888.214 724.615 890.722 722.361 892.327 719.577C892.453 720.883 892.098 722.232 891.339 723.305C895.376 720.688 898.575 716.802 900.37 712.341C896.25 724.082 889.568 734.668 880.987 743.677C881.858 743.744 882.726 743.812 883.596 743.879C882.516 746.558 880.951 749.039 879 751.169C882.344 750.461 885.474 748.767 887.891 746.351C887.714 747.655 887.077 748.892 886.12 749.795C889.086 749.409 891.88 747.827 893.738 745.481C891.258 751.648 887.201 756.873 882.18 761.228C883.064 761.195 883.947 761.162 884.831 761.13C884.661 762.349 883.99 763.489 883.006 764.228C884.329 764.4 885.703 764.163 886.896 763.561C886.039 764.707 884.972 765.697 883.762 766.461C885.381 766.696 887.083 766.293 888.426 765.359C888.021 766.156 887.438 766.864 886.732 767.412C889.178 767.285 891.577 766.361 893.477 764.817C893.373 766.55 892.107 768.155 890.446 768.659C891.571 768.772 892.723 768.601 893.763 768.163C889.8 771.808 885.329 774.899 880.519 777.32C881.999 778.113 883.81 778.256 885.396 777.706C884.868 778.461 884.206 779.121 883.448 779.645C887.498 780.525 891.887 779.723 895.365 777.469C894.512 779.003 893.232 780.298 891.71 781.17C892.69 781.357 893.734 781.201 894.618 780.734C894.13 783.356 891.664 785.083 889.34 786.397C886.753 787.861 884.084 789.181 881.35 790.347C882.417 790.652 883.542 790.756 884.648 790.65C884.158 791.119 883.668 791.587 883.179 792.056C885.578 792.28 888.038 791.798 890.174 790.684C889.321 792.325 887.888 793.658 886.19 794.389C887.231 794.86 888.542 794.663 889.402 793.909C889.088 794.354 888.771 794.802 888.457 795.248C891.301 795.585 894.278 794.574 896.327 792.572C893.429 796.265 889.503 799.794 885.422 802.115C885.119 802.287 884.794 802.476 884.648 802.792C884.424 803.281 884.746 803.881 885.211 804.151C885.676 804.421 886.24 804.444 886.776 804.463C886.031 805.067 885.286 805.671 884.542 806.275C885.173 806.167 885.834 806.246 886.423 806.501C885.603 807.331 884.781 808.16 883.959 808.99C887.365 809.195 890.743 808.041 893.678 806.302C896.613 804.564 899.168 802.26 901.686 799.958C899.664 802.951 897.105 805.577 894.168 807.678C894.842 807.661 895.519 807.771 896.154 808C895.397 808.654 894.641 809.308 893.885 809.963C895.092 810.034 896.32 809.679 897.306 808.978C898.378 809.986 900.121 809.54 901.45 808.909C903.173 808.091 904.794 807.061 906.266 805.847C906.29 806.32 906.315 806.792 906.338 807.263C906.556 807.282 906.774 807.246 906.992 807.236C906.637 821.26 906.535 835.253 906.147 849.279C906.029 853.568 905.938 857.858 905.834 862.147C903.968 863.181 902.216 864.683 900.345 865.696C900.447 866.356 900.551 867.015 900.653 867.677C900.682 867.868 900.752 868.102 900.943 868.135C901.032 868.15 901.12 868.113 901.203 868.077C902.488 867.511 903.716 866.811 904.858 865.995C905.151 865.784 905.443 865.562 905.661 865.277C905.709 865.215 905.722 865.138 905.763 865.072C905.406 880.115 905.122 895.16 904.91 910.208C903.939 911.144 902.971 912.082 902 913.018C901.489 913.512 900.941 914.258 901.327 914.855C901.419 914.764 901.56 914.729 901.684 914.764C901.869 915.14 902.392 915.517 902.577 915.893C903.247 914.708 904.038 913.597 904.881 912.53C904.839 915.615 904.798 918.7 904.761 921.786C903.409 922.772 902.097 923.814 900.875 924.96C901.051 925.365 901.018 926.079 900.754 926.432C900.937 926.92 900.85 927.501 900.532 927.914C902.106 927.285 903.432 926.177 904.719 925.07C904.595 935.935 904.489 946.8 904.42 957.664L920.609 958.478C919.868 942.663 919.436 923.879 919.171 904.341C919.2 904.346 919.229 904.352 919.258 904.358C920.198 904.58 920.836 905.832 921.776 905.604C921.792 905.344 921.809 905.085 921.824 904.825C922.212 904.784 922.602 904.742 922.99 904.701C921.554 903.661 920.273 902.421 919.131 901.066C918.959 887.54 918.864 873.721 918.797 860.322C919.399 860.976 920.177 861.603 920.572 861.987C920.532 861.838 920.721 861.727 920.873 861.732C921.026 861.74 921.182 861.806 921.329 861.763C921.529 861.707 921.691 861.458 921.888 861.528C921.896 861.188 921.714 860.877 921.533 860.59C920.726 859.315 919.791 858.124 918.78 857.001C918.716 843.784 918.677 831.06 918.616 819.512C920.109 820.571 921.603 821.632 923.096 822.694C924.356 823.587 925.635 824.494 927.092 825.009C926.938 824.776 926.783 824.542 926.629 824.307C927.194 824.37 927.76 824.434 928.327 824.5C926.262 822.711 924.097 821.036 921.846 819.489C920.885 818.829 919.719 817.798 918.606 817.355C918.577 812.126 918.54 807.174 918.496 802.532C918.606 802.364 918.727 802.206 918.826 802.03C919.065 802.862 919.302 803.693 919.542 804.525C920.269 803.774 920.995 803.024 921.722 802.271C922.5 803.389 923.301 804.531 924.414 805.316C925.525 806.101 927.032 806.474 928.269 805.907C927.061 804.666 926.085 803.201 925.4 801.611C928.157 803.452 931.075 805.351 934.38 805.615C934.154 805.175 933.93 804.735 933.705 804.293C935.165 805.106 936.879 805.457 938.54 805.281C938.036 804.963 937.697 804.402 937.647 803.807C939.117 803.888 940.599 803.801 942.05 803.553C937.735 801.189 933.93 797.899 930.97 793.972C932.487 794.771 934.002 795.57 935.518 796.367C934.652 795.408 934.071 794.192 933.873 792.913C937.355 796.44 942.372 798.997 947.055 800.624C944.58 799.832 942.816 797.693 941.199 795.659C940.064 794.231 938.93 792.805 937.795 791.377C937.515 791.024 937.234 790.505 937.533 790.169C939.746 791.634 942.029 792.99 944.348 794.283C943.538 793.667 942.88 792.846 942.53 791.888C944.811 793.814 947.686 795.869 950.517 794.926C947.889 793.996 945.502 792.394 943.644 790.316C945.074 790.848 946.621 791.387 948.093 790.984C945.075 789.16 942.712 786.275 941.515 782.959C942.804 783.694 944.327 784.012 945.803 783.854C944.352 783.483 943.229 782.364 942.185 781.291C940.016 779.063 938.446 777.27 938.172 774.173C939.102 775.327 940.091 776.473 941.367 777.228C942.642 777.982 944.265 778.293 945.62 777.691C942.665 775.759 940.445 772.732 939.487 769.334C942.2 771.821 945.166 774.428 948.819 774.876C948.601 774.461 948.531 773.969 948.62 773.51C949.44 774.258 950.733 774.426 951.729 773.926Z" fill="#2E2865"/>
<path d="M927.883 994.298C925.415 991.035 924.589 986.591 925.722 982.661C924.904 982.298 924.024 981.877 923.627 981.075C923.231 980.272 923.711 979.033 924.607 979.079C923.646 979.023 924.35 977.476 924.122 976.54C923.958 975.871 923.227 975.537 922.76 975.029C921.616 973.792 922.627 971.369 924.312 971.311C923.756 970.956 923.158 970.547 922.976 969.912C922.795 969.277 923.362 968.448 923.987 968.658C924.155 967.77 923.158 967.172 922.561 966.495C921.965 965.816 922.396 964.255 923.171 964.718C922.343 963.834 922.999 962.426 923.038 961.216C923.088 959.61 921.905 958.171 920.479 957.43C919.054 956.689 917.412 956.511 915.814 956.345C914.216 956.18 912.617 956.014 911.019 955.848C909.437 955.684 907.196 955.776 905.612 955.61C902.813 957.048 900.406 959.24 898.712 961.893C899.664 961.941 900.626 961.737 901.475 961.306C901.267 962.202 900.785 963.031 900.109 963.655C900.412 964.22 901.381 964.212 901.678 963.645C901.67 964.479 900.696 964.884 899.932 965.214C899.168 965.542 898.353 966.414 898.847 967.083C899.339 966.975 899.88 967.101 900.275 967.413C899.426 968.612 898.33 969.632 897.076 970.393C897.597 971.105 898.28 971.699 899.056 972.12C898.672 972.758 898.114 973.293 897.462 973.652C897.994 973.692 898.525 973.731 899.058 973.769C899.316 975.147 898.361 976.644 897.001 976.988C897.338 977.219 897.678 977.453 898.016 977.684C897.198 978.966 896.779 980.5 896.833 982.02C895.426 984.031 894.61 986.446 894.508 988.899C894.458 990.089 894.681 991.471 895.704 992.083C899.781 994.524 905.427 993.3 910.18 993.312C915.69 993.323 922.44 993.412 927.883 994.298Z" fill="#2E2865"/>
<path d="M-16.5 566.5L16.5 584.5H89.5H151.5L186.5 608.5L299.5 626.5L330.5 664L421 699.5L454 730L520.5 752.5L586.5 779H646.5L717 807.5L770 838.5H832L898.5 887L960 933.5L1024.5 973.5L1048.5 1044H-16.5V566.5Z" fill="#2E2865" stroke="#2E2865"/>
</g>
<defs>
<clipPath id="clip0_268_120">
<rect width="1440" height="1024" fill="white"/>
</clipPath>
</defs>
</svg>
