<svg width="1440" height="1024" viewBox="0 0 1440 1024" fill="none" xmlns="http://www.w3.org/2000/svg">
<g clip-path="url(#clip0_268_118)">
<path d="M289.333 835.096C278.529 820.18 271.52 802.541 269.126 784.281C271.539 785.857 274.907 785.801 277.27 784.151C270.733 767.343 265.089 764.633 263.848 746.64C266 748.042 268.612 748.724 271.173 748.569C269.914 744.358 268.661 740.146 267.402 735.941C270.844 738.707 275.856 739.346 279.881 737.529C273.331 718.153 258.793 694.405 257.026 674.025C259.153 678.025 264.642 679.811 268.717 677.839C264.047 666.582 256.251 648.242 253.788 636.309C256.325 638.399 259.24 640.036 262.354 641.103C258.645 635.118 257.001 627.886 257.764 620.89C259.655 624.996 264.81 628.848 268.86 626.832C261.814 607.289 249.54 580.681 245.515 560.301C248.547 561.572 251.177 563.786 252.939 566.565C251.01 562.217 250.427 557.28 251.289 552.604C252.92 554.433 255.916 554.843 257.975 553.509C249.924 531.671 245.322 509.194 240.249 486.482C240.956 491.909 246.476 496.225 251.909 495.618C249.676 493.007 248.597 489.447 249.013 486.035C247.338 488.113 251.512 490.699 253.528 488.95C255.55 487.201 255.37 484.075 255.016 481.427C247.989 428.832 238.549 376.56 226.728 324.827C230.195 327.544 234.313 330.422 238.605 329.46C230.964 310.674 226.126 290.746 224.303 270.545C226.102 271.866 227.906 273.188 229.705 274.509C228.992 270.57 228.285 266.632 227.578 262.693C228.756 265.658 232.211 267.513 235.324 266.861C221.475 216.915 213.877 166.627 209.238 115C204.989 159.34 198.08 203.425 188.572 246.94C192.151 246.983 195.729 245.644 198.402 243.262C193.106 265.782 186.655 288.03 179.076 309.886C184.292 308.441 189.099 305.551 192.814 301.625C176.775 346.789 164.979 393.455 157.623 440.815C163.558 438.011 168.756 433.658 172.558 428.305C172.973 431.158 173.395 434.005 173.811 436.858C180.267 430.891 186.06 424.205 191.047 416.961C187.468 432.076 180.236 446.31 170.133 458.107C174.586 459.552 179.771 458.46 183.263 455.347C181.508 474.015 175.002 492.213 164.538 507.774C166.895 508.425 169.451 508.369 171.776 507.619C167.453 518.901 163.124 530.176 158.801 541.458C152.159 558.781 145.442 576.457 144.443 594.983C150.72 589.817 156.147 583.621 160.432 576.718C160.749 582.213 159.812 587.783 157.71 592.868C161.14 591.969 164.148 589.55 165.76 586.393C163.441 609.311 159.564 632.922 154.156 655.312C155.669 653.408 157.629 657.254 157.04 659.611C151.88 680.239 146.713 700.868 141.553 721.496C143.587 719.574 145.615 717.651 147.65 715.728C147.829 722.073 148.003 728.424 148.183 734.769C152.512 732.183 156.203 728.523 158.826 724.207C161.17 733.895 159.304 744.525 153.79 752.83C157.697 751.85 161.412 750.107 164.669 747.732C158.969 774.829 135.096 796.289 133 823.901C136.74 820.688 140.486 817.476 144.226 814.257C143.966 818.065 143.705 821.867 143.445 825.675C146.198 824.112 148.958 822.543 151.712 820.98C148.84 831.555 145.963 842.136 143.091 852.71C154.677 854.069 166.703 846.539 170.548 835.524C169.978 836.944 168.725 841.664 168.917 843.184C169.109 844.697 170.375 846.198 171.9 846.074C172.713 846.006 173.42 845.516 174.071 845.013C177.482 842.402 180.503 839.276 182.996 835.778C182.63 839.171 183.083 842.65 184.305 845.838C185.663 847.817 188.894 846.316 190.129 844.257C191.363 842.198 192.095 839.518 194.296 838.569C197.801 845.82 205.212 850.558 212.971 852.723C220.724 854.881 245.08 849.944 253.131 849.857C255.612 849.826 258.334 849.715 260.17 848.04C262.006 846.372 268.549 849.119 266.131 848.574C270.745 850.044 275.75 850.285 280.483 849.274C279.627 847.544 278.777 845.814 277.921 844.077C281.376 845.044 285.035 845.255 288.583 844.703C289.457 844.567 290.419 844.325 290.909 843.587C292.447 841.286 288.669 837.8 289.333 835.096Z" fill="#10032B"/>
<path d="M213.747 889.75C214.2 869.065 214.473 850.558 214.919 829.873C204.996 830.128 196.598 828.881 188.051 823.826C187.357 850.651 186.662 877.482 185.967 904.306C194.824 898.687 204.89 895.363 213.747 889.75Z" fill="#10032B"/>
<path d="M4.09021 847.863C7.73334 851.798 12.234 854.927 17.228 856.828C15.0196 854.625 13.7719 851.48 13.8622 848.35C17.7052 853.267 23.0119 857.007 28.915 858.954C28.18 857.316 27.4449 855.678 26.7098 854.04C29.3438 855.503 31.9811 856.965 34.6151 858.43C30.4948 853.917 28.0381 847.895 27.8092 841.767C31.7457 846.774 36.7526 850.917 42.3882 853.839C41.9529 852.562 41.8691 851.164 42.1528 849.842C44.7997 851.951 47.8432 853.553 51.0736 854.537C49.9904 852.328 49.5777 849.79 49.9001 847.346C52.6921 849.488 55.8419 851.155 59.1788 852.253C57.7312 850.164 56.6157 847.84 55.8871 845.4C60.9907 848.652 66.4811 851.285 72.207 853.225C70.2468 850.775 68.6831 848.003 67.5999 845.049C71.5589 848.438 76.4659 850.693 81.5985 851.486C80.9859 850.329 80.7151 848.99 80.828 847.684C82.6785 849.744 85.2868 851.1 88.0239 851.421C86.5828 850.528 85.5253 849.026 85.1707 847.359C88.4237 848.601 91.9798 849.023 95.4327 848.584C88.6494 846.771 82.5528 842.469 78.5454 836.665C83.2331 838.777 87.679 838.095 92.7116 837.068C64.9916 828.983 40.8406 806.928 28.1735 780.795C30.9075 784.636 35.2857 787.249 39.9411 787.814C38.4936 786.32 37.7585 784.149 37.9938 782.072C44.9416 788.913 53.8656 793.696 63.3796 795.675C62.8122 794.512 62.2448 793.352 61.6774 792.188C64.6628 794.538 68.3607 795.961 72.1393 796.214C70.0179 794.135 68.2962 791.639 67.1066 788.909C76.9688 794.447 87.363 800.133 98.6503 800.28C92.7116 796.812 87.9143 791.395 85.1675 785.059C90.1743 788.042 96.3161 789.043 102 787.795C97.2607 786.898 92.7664 784.714 89.1201 781.533C91.9798 782.453 95.1716 782.284 97.9184 781.071C95.5746 779.658 92.8051 778.979 90.0809 779.154C92.3183 778.625 93.4145 778.023 95.4166 776.889C74.7862 774.875 55.3003 763.108 43.8035 745.723C45.5573 747.406 47.6981 748.677 50.0065 749.405C49.971 747.991 49.9356 746.574 49.9001 745.161C51.5895 747.5 54.1719 749.167 56.9864 749.739C55.6033 747.835 54.4556 745.759 53.5755 743.572C56.6608 745.291 60.3362 745.911 63.8084 745.304C54.2718 738.779 45.2092 729.004 38.7644 719.372C41.1469 721.657 44.6933 722.635 47.898 721.891C45.0802 720.133 42.5268 717.946 40.3506 715.43C49.5325 719.174 59.8493 720.038 69.5181 717.874C67.9029 716.815 66.2909 715.752 64.6757 714.693C67.3516 714.397 70.0243 714.101 72.7002 713.806C70.7691 712.951 68.8379 712.1 66.9067 711.245C69.5955 710.485 72.1102 709.1 74.2026 707.235C62.7864 706.627 50.0129 705.37 42.6364 696.567C44.9029 698.49 47.8722 699.495 50.8318 699.459C50.3579 699.267 49.971 698.796 50.0871 698.283C52.331 698.958 54.8328 698.731 56.9187 697.655C44.1968 692.212 33.1062 682.954 25.4331 671.37C29.4857 674.181 33.8349 676.559 38.3807 678.451C37.2136 677.102 36.4044 675.445 36.053 673.69C37.0556 674.619 38.5032 675.042 39.8444 674.798C33.0095 668.517 27.5255 660.292 23.2892 652.006C24.6336 653.887 26.6357 655.281 28.857 655.889C28.915 654.251 28.9731 652.617 29.0343 650.979C31.2009 653.604 34.0896 655.619 37.291 656.74C35.2147 654.137 33.7801 651.015 33.1578 647.736C36.4495 651.544 40.4344 654.742 44.8545 657.124C43.033 654.141 42.1689 650.573 42.4204 647.079C47.9496 655.726 54.8489 663.483 62.7768 669.963C58.9724 665.829 56.5705 660.412 56.0515 654.8C61.1551 662.797 68.1415 669.566 76.2724 674.385C72.8453 671.873 70.121 668.393 68.4929 664.448C73.5578 669.654 79.4255 674.07 85.8187 677.482C83.4039 674.87 81.7275 671.568 81.0375 668.065C84.6645 673.388 89.1781 678.1 94.3333 681.94C90.7482 677.648 87.7338 672.874 85.3899 667.789C88.6591 672.049 94.5783 674.041 99.7303 672.611C96.8513 671.253 94.285 669.228 92.2861 666.739C94.2592 666.924 96.229 667.11 98.1989 667.295C68.6606 651.56 44.7256 625.372 34.0154 593.475C36.327 596.51 38.6386 599.548 40.9502 602.583C41.5789 603.412 42.3172 604.302 43.3425 604.442C44.3677 604.582 45.4832 603.36 44.861 602.525C46.531 605.28 48.4654 607.877 50.6287 610.259C50.5642 607.171 50.4998 604.081 50.4353 600.994C53.3014 604.705 56.9316 607.815 61.0261 610.067C60.1943 608.738 59.7172 607.185 59.6495 605.615C63.1507 610.239 68.3607 613.515 74.0221 614.649C69.876 611.682 66.2361 608 63.3055 603.815C65.4011 605.826 68.3511 606.905 71.2365 606.72C60.0235 599.402 51.4412 588.532 44.9706 576.756C38.4968 564.979 33.29 552.361 28.8022 539.678C30.5432 541.794 32.2874 543.912 34.0283 546.028C34.125 544.059 34.2218 542.086 34.3185 540.117C37.9552 545.479 42.8621 549.956 48.5138 553.079C47.8432 551.191 47.7174 549.112 48.1623 547.159C52.2633 551.952 57.0606 556.137 62.3576 559.536C61.168 557.895 60.6038 555.809 60.8004 553.788C63.5022 555.455 66.5714 556.514 69.718 556.862C65.4881 553.284 62.0933 548.709 59.8816 543.607C63.3281 546.46 67.0292 549.004 70.9206 551.195C69.6503 549.622 68.3801 548.049 67.1098 546.476C68.983 547.939 71.4074 548.663 73.7674 548.468C59.8816 535.834 48.7427 520.158 41.3081 502.857C41.7917 503.127 42.5977 503.075 42.9169 502.542C43.4231 501.697 43.0265 500.619 42.6267 499.722C38.7805 491.078 34.931 482.434 31.0848 473.79C32.4228 474.473 33.7607 475.158 35.0987 475.841C31.2267 466.791 27.4771 457.676 23.6051 448.626C25.3622 453.1 29.0311 456.775 33.4834 458.524C33.5898 457.227 33.6962 455.934 33.8026 454.637C35.2147 457.211 36.9396 459.609 38.9288 461.764C39.7606 462.664 41.9723 462.69 41.4274 461.588C43.0458 464.727 44.9996 467.691 47.2467 470.407C47.3434 469.01 47.4434 467.613 47.5401 466.215C49.6228 470.924 53.1886 474.957 57.5926 477.579C46.5697 459.131 35.4727 440.525 28.3347 420.225C29.3535 420.718 30.3723 421.212 31.3911 421.706C29.9564 419.048 28.5249 416.39 27.0903 413.732C29.0956 415.581 31.3524 417.147 33.7768 418.379C28.4443 408.708 25.0462 397.585 23.46 386.637C25.3106 389.464 27.8769 391.81 30.8462 393.39C26.5551 386.114 23.5181 378.087 21.919 369.775C25.662 374.581 30.3368 378.643 35.6048 381.665C31.4556 377.35 27.9672 372.388 25.3009 367.013C26.784 367.744 28.2702 368.475 29.7565 369.206C22.2446 358.168 17.3731 345.319 15.6676 332.041C19.0335 339.281 24.2402 345.644 30.656 350.349C27.9769 344.094 25.2977 337.838 22.6186 331.586C23.4504 332.334 24.2789 333.078 25.1107 333.825C22.87 329.513 20.6261 325.198 18.3854 320.886C18.753 321.074 19.2785 321.084 19.5493 320.73C20.0232 320.119 19.8266 319.238 19.6073 318.491C16.6316 308.326 13.6591 298.165 10.6833 288C9.65484 297.453 7.74945 305.148 3.42284 313.597C5.03162 314.412 7.16913 313.97 8.32655 312.58C5.98592 320.184 2.54269 327.44 -1.86452 334.046C-0.955355 334.888 0.24075 335.408 1.47232 335.492C-0.426619 343.174 -3.77637 350.489 -8.34478 356.93C-7.07452 356.462 -5.58826 356.624 -4.44696 357.362C-8.00948 362.207 -11.1787 367.348 -13.9094 372.713C-12.3135 372.921 -10.7177 373.129 -9.12177 373.337C-13.0325 383.742 -17.9007 393.78 -23.6427 403.281C-15.3312 402.381 -7.42917 398.085 -2.11601 391.576C-4.24062 396.558 -7.5291 401.033 -11.6397 404.532C-8.41893 403.804 -5.48831 401.852 -3.56035 399.154C-2.62217 407.46 -5.5399 416.127 -11.3012 422.142C-9.17657 422.613 -6.91977 422.454 -4.87897 421.69C-9.17335 434.493 -15.4182 446.63 -23.3203 457.546C-20.8991 458.767 -17.991 458.969 -15.4247 458.095C-20.6572 464.633 -24.9162 471.961 -28.0177 479.76C-31.1288 487.591 -33.3244 496.284 -39.4887 501.987C-34.5559 500.563 -30.6646 497.502 -27.7468 493.249C-27.3084 497.125 -30.4872 500.349 -33.3985 502.919C-31.0998 502.445 -28.9268 501.353 -27.1697 499.783C-26.6184 503.611 -32.9181 505.285 -33.2051 509.142C-28.8817 507.537 -24.8871 505.044 -21.5342 501.857C-21.5954 504.43 -22.7496 506.958 -24.6486 508.677C-22.7496 508.733 -20.8571 507.66 -19.9157 505.997C-19.6901 512.284 -20.6057 518.286 -24.0618 523.528C-22.5884 523.541 -21.128 522.813 -20.2381 521.627C-23.7942 540.669 -34.3367 558.301 -49.3767 570.367C-45.8335 569.964 -42.2258 568.888 -39.3275 566.796C-39.2243 567.93 -39.4048 569.09 -39.8465 570.139C-35.8488 569.116 -32.2508 566.578 -29.9295 563.143C-35.8423 578.341 -46.2333 590.764 -60.8477 597.8C-57.5689 598.541 -54.0418 598.768 -50.921 597.511C-51.0919 598.511 -51.2627 599.512 -51.4336 600.516C-48.8254 600.656 -46.1849 600.091 -43.8572 598.895C-46.0914 601.667 -48.8802 603.984 -52.0075 605.664C-48.7029 606.505 -45.0791 605.992 -42.1323 604.26C-42.3097 605.313 -42.4902 606.366 -42.6675 607.418C-40.7106 607.769 -38.6472 607.487 -36.8579 606.619C-37.2028 607.727 -37.5446 608.835 -37.8896 609.943C-35.7972 608.956 -33.8789 607.594 -32.2508 605.943C-37.1351 615.614 -44.2183 624.15 -52.7974 630.708C-54.1901 631.771 -55.7247 632.94 -56.0858 634.663C-54.0612 635.027 -51.9752 635.056 -49.9409 634.754C-53.5292 640.603 -57.9461 645.929 -63.0239 650.524C-57.3303 650.771 -51.6367 647.381 -49.0994 642.237C-49.2735 643.391 -49.309 644.571 -49.2026 645.734C-46.9941 644.704 -45.1436 642.907 -44.041 640.72C-44.0313 643.758 -44.2763 646.085 -45.9947 648.584C-59.3647 668.013 -77.2643 685.814 -100 691.637C-95.1479 692.138 -89.5961 691.653 -85.1212 689.697C-85.9337 692.105 -87.9068 694.087 -90.299 694.9C-87.1459 694.201 -84.0508 693.236 -81.059 692.014C-82.6291 695.582 -85.3082 698.643 -88.6257 700.658C-79.0633 698.887 -70.3166 693.022 -65.0002 684.816C-64.9647 687.335 -65.7063 689.814 -66.9572 691.988C-64.1168 688.41 -60.9831 685.067 -57.585 682.022C-57.3722 683.153 -57.1627 684.283 -56.9499 685.411C-52.5169 684.264 -48.5223 681.46 -45.9205 677.664C-46.0527 679.5 -46.6975 681.294 -47.7615 682.789C-42.3226 681.697 -37.3576 678.366 -34.2593 673.729C-39.4564 691.335 -48.2805 705.126 -61.5151 717.757C-57.8332 717.786 -54.1805 717.062 -51.5464 714.472C-52.9779 717.026 -55.2863 719.07 -57.988 720.165C-55.8859 720.909 -53.3841 720.344 -51.7979 718.768C-52.2493 720.383 -53.2874 721.822 -54.6673 722.755C-51.6399 723.688 -48.2838 723.489 -45.3854 722.209C-45.5498 723.444 -46.1946 724.61 -47.1489 725.403C-41.8776 726.599 -36.039 724.805 -32.3281 720.847C-33.3502 723.987 -35.3426 726.794 -37.9573 728.783C-35.3619 728.867 -32.7505 728.338 -30.3937 727.243C-37.5865 746.574 -50.3987 763.745 -66.8314 776.07C-64.2522 777.195 -61.1314 776.961 -58.7456 775.463C-60.2512 777.552 -61.7601 779.638 -63.2657 781.728C-61.2604 780.795 -59.2583 779.863 -57.2529 778.927C-57.6205 780.184 -57.988 781.445 -58.3523 782.703C-49.3219 780.747 -41.062 775.362 -35.5844 767.862C-35.5231 769.945 -35.7746 772.038 -36.3324 774.043C-34.0304 773.071 -31.9187 771.638 -30.1648 769.851C-31.1062 771.83 -31.6543 774 -31.7672 776.194C-28.2046 776.155 -24.6937 774.41 -22.4949 771.583C-29.7457 790.544 -44.5729 806.434 -62.9046 814.893C-59.874 814.743 -55.0961 813.626 -52.2783 812.491C-52.9521 814.243 -54.0225 815.839 -55.3862 817.119C-53.2584 817.213 -51.108 816.755 -49.2026 815.796C-49.7829 817.255 -50.734 818.562 -51.9365 819.563C-47.8743 818.87 -42.9512 821.412 -39.9658 818.545C-40.5494 822.559 -43.4993 825.75 -46.3687 828.593C-53.4228 835.586 -61.7665 842.563 -71.6578 842.794C-73.7018 842.842 -75.1687 843.262 -77.1934 843.561C-77.5996 846.365 -73.6663 847.401 -70.8582 847.288C-73.6825 847.85 -76.4003 848.948 -78.8215 850.515C-76.3261 851.824 -73.4278 852.347 -70.6358 851.99C-72.4251 852.562 -74.1209 853.436 -75.6265 854.563C-72.6024 856.367 -68.9593 856.981 -65.4903 856.445C-66.8024 856.962 -67.9663 857.868 -68.6659 859.103C-56.9692 860.741 -44.7567 858.356 -34.5108 852.435C-35.8746 854.073 -37.2351 855.714 -38.5988 857.352C-33.305 857.368 -28.066 854.723 -24.9065 850.437C-26.2187 853.624 -27.5308 856.812 -28.843 860C-22.2177 859.272 -15.9663 855.607 -12.0653 850.164C-12.6134 850.953 -11.7977 852.24 -10.8563 852.071C-9.45061 850.469 -8.45439 848.519 -7.92566 846.449C-7.92566 846.449 -0.900557 854.849 4.46741 856.754C4.45451 856.721 2.02685 852.13 4.09021 847.863Z" fill="#10032B"/>
<path d="M421.423 929.873C431.766 913.652 437.841 894.701 438.874 875.465C439.464 867.88 440.055 860.282 440.645 852.696C438.395 853.746 436.132 854.784 433.881 855.834C432.627 831.657 436.993 807.208 446.561 784.995C447.864 781.968 449.291 778.805 449.02 775.507C448.737 772.221 446.007 768.873 442.736 769.268C445.527 761.497 447.065 753.269 447.262 745.004C444.888 746.264 442.022 746.573 439.44 745.844C443.879 727.758 446.45 709.214 447.089 690.596C444.408 690.176 441.715 692.832 442.096 695.538C443.277 680.095 444.47 664.64 445.663 649.197C444.851 652.458 441.801 655.028 438.456 655.263C444.568 616.544 453.128 578.209 464.061 540.578C459.129 543.704 454.198 546.841 449.266 549.967C457.358 537.983 459.179 522.961 460.777 508.568C463.188 486.849 465.586 465.143 467.996 443.424C472.19 405.583 477.515 369.064 476.765 331C481.869 374.314 489.752 417.295 500.353 459.596C497.364 460.473 493.995 459.954 491.412 458.212C495.594 478.238 499.787 498.252 503.969 518.278C500.746 515.462 497.537 512.657 494.314 509.841C498.029 548.225 523.892 583.015 521.666 621.511C519.169 617.385 516.66 613.258 514.152 609.132C514.816 615.667 515.48 622.203 516.144 628.738C509.982 623.759 504.436 618.027 499.677 611.689C501.386 629.961 507.412 647.813 517.115 663.367C514.311 663.083 511.508 662.799 508.704 662.515C517.509 694.463 526.327 726.423 535.132 758.372C531.492 755.431 527.852 752.479 524.211 749.538C524.433 754.455 525.343 759.335 526.905 763.993C525.023 762.362 523.129 760.731 521.248 759.113C522.908 782.092 526.634 804.91 532.377 827.209C528.774 826.579 525.417 824.677 523.019 821.909C526.942 836.759 530.877 851.609 534.8 866.447C531.849 866.212 529.217 863.716 528.823 860.764C523.498 890.785 553.616 919.1 547.062 948.874C540.187 946.243 535.673 945.156 529.979 940.473C529.118 943.834 529.906 947.577 532.046 950.295C528.368 948.232 524.691 946.181 521.002 944.13C519.981 943.562 518.837 942.969 517.681 943.216C516.55 943.463 515.763 944.451 514.853 945.156C511.225 948.009 504.903 945.563 504.128 940.992C500.697 944.056 496.368 946.91 491.867 946.07C487.366 945.23 484.39 938.596 488.067 935.841C487.624 936.396 487.071 936.841 486.517 937.274C472.928 948.009 456.559 955.175 439.464 957.868C438.235 958.066 436.783 958.165 435.947 957.238C434.988 956.176 435.455 954.495 436.021 953.186C438.149 948.232 440.952 943.574 444.322 939.374C438.481 941.067 432.651 942.771 426.81 944.464C424.707 945.082 422.469 945.687 420.353 945.106C418.238 944.526 416.43 942.24 417.168 940.177C420.575 938.324 419.332 933.147 421.423 929.873Z" fill="#10032B"/>
<path d="M644 972.186C633.374 960.865 625.665 946.83 621.827 931.801C625.918 933.923 630.852 934.36 635.249 932.982C626.959 920.764 620.369 907.407 615.719 893.406C617.638 892.826 619.831 893.22 621.421 894.445C618.527 891.94 616.542 888.396 615.928 884.622C621.137 886.427 627.223 885.508 631.664 882.238C621.805 876.232 614.886 865.644 613.351 854.224C616.312 857.101 620.775 858.326 624.788 857.374C623.362 855.11 622.639 852.408 622.748 849.728C625.347 849.98 627.957 850.231 630.567 850.483C627.486 848.306 625.731 844.39 626.192 840.638C630.556 843.088 636.554 842.115 639.921 838.418C630.578 828.409 622.781 816.967 616.904 804.617C621.224 806.236 626.126 806.225 630.435 804.606C621.257 797.824 614.535 787.815 611.739 776.778C613.844 777.621 616.268 777.653 618.406 776.877C615.906 774.908 613.822 772.425 612.331 769.613C616.158 769.712 619.974 769.81 623.801 769.909C620.928 767.546 619.25 763.816 619.371 760.108C622.343 759.944 625.325 759.779 628.297 759.604C623.165 753.687 619.009 746.937 616.037 739.696C618.998 739.707 621.619 738.941 624.58 738.952C613.176 728.025 605.828 712.984 604.216 697.287C606.278 698.862 609.009 699.529 611.574 699.07C609.14 691.391 606.717 683.712 604.282 676.044C606.782 676.219 609.326 675.749 611.596 674.666C606.037 669.066 602.012 661.955 600.082 654.32C602.308 655.436 604.535 656.552 606.75 657.667C606.618 653.543 606.486 649.42 606.355 645.296C608.175 647.418 612.035 645.777 612.934 643.13C613.833 640.483 612.792 637.617 611.761 635.014C605.521 619.229 599.271 603.444 593.031 587.66C596.486 589.662 599.94 591.653 603.383 593.654C603.537 591.193 603.69 588.732 603.844 586.271C604.534 590.351 611.004 591.74 613.318 588.305C605.774 584.728 602.539 575.868 600.696 567.752C599.183 561.09 598.12 554.341 597.067 547.603C596.573 544.474 596.08 541.357 595.597 538.228C593.766 526.579 591.935 514.94 590.115 503.29C591.847 505.336 595.137 505.85 597.418 504.45C590.542 487.812 585.388 470.464 582.055 452.776C583.272 454.515 585.366 455.62 587.494 455.631C587.198 452.743 586.902 449.844 586.606 446.956C588.843 448.411 591.091 449.866 593.328 451.31C592.604 445.895 591.869 440.491 591.145 435.077C591.759 436.74 594.49 436.39 595.378 434.858C596.266 433.327 595.893 431.412 595.488 429.695C591.145 411.187 586.814 392.679 582.472 374.171C584.643 375.396 586.814 376.621 588.985 377.846C582.099 356.209 578.962 333.698 578.14 311C572.8 344.888 565.87 378.535 557.404 411.789C560.156 412.128 563.04 411.307 565.19 409.557C566.944 428.831 564.334 448.488 557.623 466.635C559.422 465.29 561.231 463.944 563.029 462.609C562.766 487.265 559.312 511.877 552.798 535.658C556.033 533.776 558.83 531.118 560.869 527.979C561.44 534.225 560.683 540.591 558.654 546.52C561.143 546.225 563.545 545.229 565.507 543.676C565.146 562.075 559.882 580.353 550.386 596.126C553.555 597.428 557.503 596.466 559.707 593.851C557.722 603.751 553.796 613.256 548.237 621.69C555.024 618.408 560.804 613.103 564.652 606.639C560.091 619.459 553.961 631.71 546.427 643.053C549.629 643.546 553.04 642.452 555.353 640.198C555.397 646.718 553.588 653.248 550.178 658.816C553.314 664.843 552.327 672.752 547.831 677.849C550.057 679.107 552.974 679.052 555.167 677.729C555.88 686.939 554.323 696.314 550.682 704.802C553.478 703.621 556.275 702.45 559.06 701.269C550.847 726.898 539.771 751.619 526.097 774.809C530.494 771.834 534.902 768.848 539.3 765.872C539.102 769.132 538.905 772.403 538.707 775.663C541.405 774.777 543.894 773.267 545.912 771.276C546.044 773.464 546.175 775.641 546.307 777.828C550.408 775.892 554.191 773.256 557.415 770.062C555.09 779.239 547.162 790.386 541.8 798.196C543.412 798.459 545.024 798.721 546.636 798.984C545.715 803.753 544.793 808.533 543.872 813.313C542.754 824.143 538.192 834.589 531.01 842.782C534.99 844.97 540.177 844.762 543.971 842.257C543.28 852.299 540.583 862.209 536.098 871.222C540.758 867.864 545.419 864.517 550.09 861.159C545.506 879.995 537.381 897.978 526.273 913.872C532.117 912.319 537.534 909.191 541.8 904.903C536.986 915.141 532.183 925.391 527.369 935.629C530.856 934.087 534.343 932.544 537.83 931.002C535.122 943.658 528.882 955.548 520 964.999C524.726 966.137 529.957 965.01 533.795 962.024C533.751 967.417 531.229 972.744 527.084 976.211C533.564 977.568 540.484 976.715 546.449 973.838C554.926 969.747 561.9 968.62 570.672 965.196C570.212 968.237 568.721 971.125 566.495 973.258C571.221 973.05 575.87 971.442 579.708 968.675C579.445 971.136 579.884 973.663 580.958 975.894C583.777 973.4 585.882 970.108 586.946 966.509C593.251 972.963 601.519 979.985 610.193 977.48C609.414 975.183 608.636 972.886 607.846 970.589C618.472 976.299 631.96 973.346 644 972.186Z" fill="#10032B"/>
<path d="M459.005 920.496C447.683 871.839 440.718 822.179 438.233 772.297C439.207 773.423 440.181 774.558 441.147 775.684C438.836 770.135 437.639 764.142 437.623 758.133C439.471 759.637 441.411 760.805 443.259 762.309C437.59 742.399 432.894 722.21 429.18 701.848C431.161 704.24 433.142 706.632 435.122 709.024C434.132 705.267 433.818 701.338 434.214 697.483C436.17 697.877 438.134 698.264 440.09 698.658C434.974 672.986 428.223 646.31 419.64 621.566C421.728 624.838 425.483 627 429.378 627.157C423.329 596.938 417.28 566.72 411.231 536.493C413.567 537.233 415.894 537.964 418.229 538.704C414.169 527.344 410.109 515.983 406.057 504.622C409.548 508.93 413.046 513.229 416.537 517.537C415.085 515.769 414.631 513.237 415.374 511.075C415.588 514.586 418.757 517.668 422.29 517.791C418.271 494.61 412.733 471.691 405.727 449.233C407.022 450.063 408.665 450.343 410.167 449.981C402.607 426.224 395.114 404.489 390.443 380C387.002 404.727 379.525 428.887 368.392 451.255C371.165 451.23 373.921 450.326 376.166 448.707C375.745 457.346 373.418 465.879 369.407 473.549C371.272 473.171 373.063 472.39 374.615 471.288C367.955 492.579 361.295 513.879 354.635 535.17C358.679 532.235 362.013 528.347 364.282 523.899C361.666 545.708 358.514 567.451 354.817 589.104C359.133 587.32 362.261 582.988 362.607 578.352C361.774 584.344 360.932 590.345 360.098 596.338C362.128 595.532 363.82 593.913 364.711 591.924C363.416 629.549 358.39 667.042 349.75 703.697C354.445 701.379 357.961 696.825 358.992 691.704C359.19 700.13 357.771 708.589 354.833 716.488C356.69 715.354 358.547 714.211 360.403 713.069C359.983 720.278 357.854 727.389 354.239 733.644C358.852 732.436 362.533 728.268 363.152 723.558C362.83 747.414 357.73 772.93 350.534 795.684C353.24 795.791 355.964 794.632 357.755 792.61C355.964 801.381 355.477 810.415 356.319 819.326C358.852 815.537 361.394 811.747 363.927 807.957C359.545 840.552 354.734 873.088 349.485 905.559C351.136 904.047 352.786 902.526 354.437 901.013C352.729 911.116 350.583 921.137 348 931.051C356.195 932.021 364.72 931.215 372.733 929.226C372.271 930.319 372.568 931.692 373.451 932.497C380.796 933.056 388.14 933.615 395.485 934.166C396.698 934.257 397.928 934.347 399.125 934.158C403.185 933.509 406.09 929.818 409.985 928.502C413.534 931.519 417.272 934.635 421.811 935.695C426.35 936.756 431.92 935.038 433.628 930.714C443.127 933.098 452.989 934.043 462.777 933.5C463.66 930.212 461.828 922.386 459.005 920.496Z" fill="#10032B"/>
<path d="M735.018 903.175C736.545 919.273 734.15 936.354 731.94 952.359C748.28 958.388 765.5 969.023 780.163 978.42C780.718 954.106 780.811 929.781 780.417 905.467C773.67 901.937 765.986 894.785 758.418 893.998C750.699 893.211 734.289 895.445 735.018 903.175Z" fill="#10032B"/>
<path d="M648.166 884.554C660.155 866.605 669.969 847.209 677.341 826.922C673.684 826.424 670.027 825.927 666.37 825.429C681.576 809.413 692.281 789.161 696.933 767.566C693.716 769.638 689.955 770.842 686.148 771.038C689.029 766.537 691.922 762.035 694.815 757.533C691.193 758.436 687.143 757.44 684.354 754.952C696.111 744.56 705.774 731.807 712.602 717.689C709.975 716.381 707.337 715.085 704.71 713.777C716.363 695.052 724.21 673.979 727.658 652.199C723.978 656.62 717.544 658.53 712.058 656.828C727.867 629.899 738.062 599.672 741.777 568.669C739.96 569.305 738.143 569.941 736.326 570.578C750.167 527.91 762.758 485.392 769.273 441C775.58 482.222 784.329 523.061 795.462 563.241C792.036 564.745 787.593 563.183 785.845 559.885C787.176 565.764 788.507 571.643 789.838 577.522C787.72 576.549 785.59 575.589 783.473 574.617C787.465 611.88 794.247 648.855 803.748 685.112C801.086 682.381 798.425 679.649 795.763 676.918C795.994 682.057 797.094 687.16 799.003 691.928C796.654 690.319 794.305 688.711 791.955 687.102C798.089 713.823 808.655 739.526 823.074 762.845C820.968 764.257 818.04 764.361 815.841 763.088C816.64 770.46 818.885 777.681 822.403 784.219C821.257 782.68 818.514 783.919 818.098 785.793C817.681 787.668 818.723 789.531 819.718 791.174C824.243 798.65 828.768 806.126 833.281 813.602C829.323 812.121 825.354 810.651 821.396 809.17C821.384 815.951 823.699 822.71 827.877 828.045C823.143 825.395 818.41 822.744 813.666 820.083C816.952 847.058 826.372 873.282 841 896.184C836.128 896.369 831.21 894.83 827.31 891.902C826.789 897.434 828.374 903.139 831.696 907.606C825.412 906.298 819.463 905.338 815.564 900.234C816.941 905.905 819.325 911.333 822.565 916.181C816.316 914.087 810.078 911.992 803.829 909.898C803.678 913.3 803.528 916.702 803.377 920.104C789.687 919.56 776.147 915.568 764.343 908.601C760.929 912.119 757.504 915.649 754.09 919.167C751.174 916.864 748.258 914.55 745.341 912.235C740.701 915.279 735.701 917.755 730.47 919.595C731.581 917.616 732.681 915.638 733.78 913.647C727.82 921.505 717.914 926.203 708.054 925.856C708.239 922.859 709.894 919.989 712.406 918.334C692.894 925.034 672.203 928.263 651.58 927.823C650.84 918.658 653.108 909.272 657.957 901.449C654.3 905.002 649.08 906.889 644 906.495C644.822 902.132 647.819 898.221 651.823 896.311C649.902 897.538 647.484 897.943 645.273 897.399C645.25 893.719 646.106 887.643 648.166 884.554Z" fill="#10032B"/>
<path d="M38.1446 622.415C37.53 623.601 36.809 624.733 35.875 625.691C36.6009 624.583 37.3655 623.494 38.1446 622.415Z" fill="#10032B"/>
<path d="M156.581 624.327C156.842 624.312 157.109 624.341 157.37 624.308C157.123 624.448 156.842 624.419 156.581 624.327Z" fill="#10032B"/>
<path d="M5 623.625C27.522 616.768 44.6337 598.219 57.1287 578.271C58.7353 575.706 58.8707 573.379 58.7207 570.359C57.7141 572.585 55.9478 574.463 53.7798 575.59C53.6153 574.439 53.5959 573.268 53.7169 572.111C51.4134 577.347 45.8677 580.981 40.1477 581.005C45.0208 576.2 49.2019 570.693 52.5265 564.707C50.4988 565.104 48.4083 565.171 46.3613 564.905C46.642 563.178 48.1276 561.939 49.473 560.816C57.7675 553.891 64.4699 545.069 68.9172 535.221C67.3589 536.939 65.5006 538.381 63.4488 539.465C63.7391 538.347 64.0344 537.229 64.3296 536.111C62.5729 537.06 60.521 537.437 58.5417 537.181C58.6724 536.126 58.803 535.071 58.9288 534.016C56.0591 535.874 52.4491 536.557 49.0955 535.874C52.1491 534.055 54.8396 531.621 56.9496 528.756C54.6751 530.058 52.0523 530.745 49.4294 530.725C49.5552 529.719 49.6762 528.717 49.802 527.715C46.7339 529.109 43.1868 529.051 39.8622 528.47C54.1816 520.786 64.0198 507.942 69.2414 492.548C67.0734 496.071 63.5842 498.767 59.6257 499.972C60.0225 498.907 60.1484 497.746 59.9887 496.623C57.1819 498.839 53.6154 500.083 50.0827 500.649C64.6006 487.946 74.3468 469.91 77.0229 450.81C76.1906 452.029 74.7582 452.823 73.2774 452.881C76.4955 447.504 77.1342 441.494 76.6163 435.251C75.7501 436.95 73.9016 438.106 71.9949 438.14C73.8193 436.34 74.8597 433.77 74.8016 431.21C71.5932 434.535 67.7025 437.206 63.4439 439.002C63.5504 435.15 69.7882 433.195 69.0575 429.41C67.3686 431.056 65.2441 432.241 62.96 432.822C65.7571 430.131 68.7961 426.773 68.1767 422.94C65.4522 427.305 61.6921 430.538 56.8141 432.183C62.7277 426.221 64.523 417.472 67.2766 409.54C70.0205 401.638 73.9451 394.151 78.8908 387.401C76.3599 388.388 73.437 388.325 70.9496 387.226C78.3634 375.999 84.0544 363.635 87.7661 350.7C85.7578 351.556 83.5028 351.817 81.3493 351.45C86.8419 345.197 89.3679 336.438 88.0371 328.221C86.2321 330.994 83.3817 333.075 80.1926 333.951C84.1512 330.278 87.2386 325.676 89.1356 320.619C84.1124 327.34 76.3939 331.981 68.1042 333.268C73.4177 323.551 77.8311 313.335 81.2622 302.805C79.6507 302.675 78.044 302.544 76.4325 302.408C78.9199 296.945 81.8574 291.685 85.2013 286.695C84.0254 286.018 82.53 285.926 81.2766 286.448C85.5546 279.828 88.5742 272.4 90.118 264.667C88.8791 264.638 87.6548 264.178 86.7063 263.384C90.8149 256.609 93.9313 249.23 95.9203 241.559C94.8266 242.997 92.7021 243.534 91.0519 242.798C94.9959 234.189 96.5446 226.446 97.1399 217C100.595 226.969 104.05 236.938 107.506 246.902C107.757 247.633 107.994 248.499 107.549 249.128C107.293 249.491 106.765 249.505 106.388 249.336C108.836 253.522 111.285 257.703 113.734 261.889C112.867 261.187 111.996 260.481 111.13 259.779C114.106 265.872 117.082 271.969 120.059 278.062C113.409 273.682 107.893 267.599 104.181 260.558C106.509 273.682 111.992 286.231 120.034 296.858C118.51 296.2 116.991 295.541 115.466 294.883C118.389 300.105 122.12 304.872 126.48 308.97C121.06 306.212 116.182 302.389 112.209 297.787C114.198 305.975 117.615 313.819 122.256 320.851C119.202 319.418 116.521 317.207 114.537 314.482C116.637 325.293 120.562 336.196 126.359 345.565C123.872 344.457 121.535 343 119.439 341.258C121.002 343.833 122.561 346.412 124.124 348.986C123.078 348.541 122.038 348.101 120.993 347.656C129.094 367.506 141.085 385.489 152.995 403.322C148.455 400.917 144.695 397.079 142.387 392.492C142.353 393.885 142.319 395.279 142.29 396.673C139.914 394.074 137.814 391.219 136.048 388.175C136.648 389.244 134.426 389.322 133.551 388.465C131.46 386.418 129.616 384.11 128.082 381.618C128.034 382.91 127.99 384.207 127.942 385.499C123.398 383.97 119.551 380.49 117.581 376.12C121.883 384.937 126.069 393.827 130.371 402.649C128.997 402.03 127.627 401.415 126.253 400.796C130.511 409.211 134.77 417.627 139.033 426.047C139.474 426.923 139.924 427.978 139.454 428.839C139.159 429.386 138.351 429.473 137.858 429.226C146.118 446.087 158.013 461.151 172.521 473.065C170.165 473.37 167.701 472.761 165.756 471.396C167.101 472.901 168.446 474.406 169.797 475.911C165.79 473.912 161.967 471.56 158.376 468.884C160.83 473.854 164.449 478.243 168.853 481.607C165.679 481.408 162.552 480.503 159.77 478.969C159.668 480.987 160.331 483.039 161.599 484.612C156.131 481.481 151.127 477.547 146.791 472.969C146.437 474.933 146.655 476.995 147.42 478.844C141.608 476.008 136.483 471.778 132.587 466.62C132.583 468.584 132.578 470.549 132.573 472.514C130.729 470.491 128.881 468.468 127.037 466.445C132.123 478.848 137.935 491.15 144.971 502.561C152.007 513.972 161.12 524.376 172.7 531.127C169.811 531.446 166.811 530.512 164.614 528.611C167.745 532.637 171.568 536.126 175.86 538.884C170.135 538.023 164.754 535.013 161.033 530.575C161.168 532.134 161.725 533.653 162.62 534.94C158.41 532.893 154.626 529.97 151.582 526.414C151.79 529.482 151.998 532.55 152.206 535.618C149.927 533.348 147.87 530.861 146.065 528.194C146.728 528.993 145.663 530.261 144.632 530.174C143.597 530.087 142.818 529.23 142.15 528.436C139.692 525.523 137.233 522.615 134.775 519.702C146.994 550.92 172.211 575.842 202.554 590.103C200.57 590.011 198.585 589.919 196.601 589.827C198.721 592.208 201.387 594.105 204.339 595.32C199.239 596.985 193.214 595.281 189.739 591.197C192.323 596.148 195.571 600.755 199.365 604.853C194.022 601.277 189.275 596.806 185.394 591.681C186.25 595.131 188.084 598.335 190.625 600.822C184.058 597.725 177.97 593.612 172.652 588.671C174.467 592.518 177.36 595.847 180.912 598.19C172.536 593.776 165.219 587.374 159.731 579.66C160.515 585.216 163.177 590.49 167.184 594.425C158.933 588.356 151.654 580.967 145.712 572.624C145.624 576.108 146.655 579.617 148.62 582.496C144.081 580.333 139.938 577.342 136.459 573.708C137.238 576.94 138.821 579.98 141.022 582.472C137.761 581.509 134.77 579.641 132.476 577.134C132.496 578.765 132.51 580.396 132.529 582.027C130.274 581.528 128.203 580.236 126.766 578.426C131.397 586.469 137.282 594.391 144.424 600.314C143.094 600.624 141.622 600.271 140.572 599.39C141.003 601.118 141.893 602.729 143.127 604.016C138.482 602.352 134.01 600.188 129.819 597.585C138.051 608.749 149.598 617.436 162.61 622.246C160.568 623.412 158.071 623.756 155.792 623.189C155.7 623.707 156.111 624.157 156.595 624.327C153.629 624.501 150.604 623.64 148.243 621.834C156.048 630.245 168.911 630.894 180.38 630.961C178.372 632.916 175.914 634.407 173.252 635.293C175.226 636.052 177.206 636.807 179.18 637.567C176.514 637.988 173.847 638.404 171.176 638.825C172.845 639.803 174.51 640.785 176.18 641.763C166.588 644.366 156.208 643.993 146.829 640.703C149.128 643.103 151.79 645.155 154.698 646.771C151.524 647.666 147.918 646.858 145.426 644.7C152.337 653.977 161.875 663.273 171.742 669.313C168.287 670.082 164.575 669.637 161.401 668.069C162.383 670.203 163.631 672.216 165.107 674.045C162.257 673.61 159.595 672.071 157.79 669.826C157.892 671.229 157.994 672.637 158.095 674.041C155.743 673.426 153.542 672.26 151.703 670.668C164.033 687.416 184.116 698.203 204.891 699.239C202.936 700.463 201.867 701.111 199.65 701.741C202.375 701.441 205.181 701.983 207.596 703.279C204.896 704.615 201.707 704.93 198.798 704.15C202.602 707.146 207.209 709.106 212 709.774C206.357 711.279 200.158 710.577 195 707.843C198.048 714.018 203.11 719.176 209.227 722.346C197.903 722.728 187.223 717.565 177.075 712.518C178.396 715.174 180.24 717.579 182.461 719.549C178.662 719.476 174.888 718.233 171.786 716.036C172.41 717.163 173.029 718.296 173.654 719.423C164.023 717.899 154.858 713.563 147.575 707.088C147.434 709.164 148.272 711.288 149.791 712.706C145.097 712.363 140.587 709.972 137.669 706.28C151.587 731.676 176.818 752.476 204.983 759.212C199.984 760.47 195.561 761.36 190.765 759.478C195.053 765.063 201.368 769.055 208.25 770.541C204.809 771.141 201.228 770.889 197.908 769.805C198.344 771.446 199.471 772.892 200.957 773.71C198.198 773.517 195.517 772.297 193.567 770.333C193.514 771.639 193.848 772.955 194.516 774.078C189.333 773.531 184.31 771.518 180.182 768.334C181.406 771.218 183.105 773.904 185.181 776.246C179.354 774.586 173.726 772.229 168.456 769.234C169.298 771.625 170.527 773.884 172.076 775.893C168.684 774.959 165.446 773.449 162.547 771.45C162.339 773.894 162.872 776.401 164.062 778.55C160.781 777.722 157.655 776.27 154.901 774.296C154.679 775.622 154.829 777.011 155.322 778.259C149.535 775.622 144.323 771.731 140.142 766.94C140.659 773.028 143.403 778.898 147.744 783.195C145.034 781.864 142.324 780.534 139.614 779.203C140.427 780.8 141.24 782.392 142.053 783.989C136.048 782.334 130.55 778.864 126.471 774.151C126.524 777.267 127.922 780.34 130.24 782.426C125.145 780.771 120.484 777.867 116.652 774.127C116.54 781.11 116.473 788.078 116.424 795.042C117.668 797.718 118.829 800.37 120.465 802.901C122.401 805.896 124.583 808.722 126.761 811.544C126.422 811.636 126.035 811.5 125.822 811.219C125.827 811.437 125.832 811.66 125.837 811.878C123.02 809.129 120.426 806.153 118.094 802.983C117.455 802.112 116.874 801.202 116.366 800.249C116.24 824.155 116.386 848.012 116.41 872.069C116.536 872.18 116.671 872.354 116.884 872.582C117.954 873.724 118.892 874.943 120.059 875.998C120.204 876.134 120.363 876.284 120.383 876.482C120.407 876.68 120.194 876.898 120.02 876.801C120.01 876.966 119.996 877.13 119.986 877.29C119.889 877.305 119.788 877.276 119.72 877.208C119.696 877.392 119.667 877.571 119.642 877.755C118.515 877.005 117.445 876.182 116.405 875.316C116.41 886.19 116.395 897.097 116.298 908.082C115.829 908.479 116.4 908.653 115.81 908.494C112.321 907.526 107.607 906.969 104.162 908.082C104.307 891.179 104.283 874.459 104.239 857.793C103.174 858.359 102.11 858.93 101.04 859.496C100.416 859.83 99.7772 860.169 99.2836 860.682C99.1336 860.478 98.8529 860.377 98.606 860.445C98.4512 860.198 98.2964 859.946 98.1416 859.699C98.0932 859.622 98.0447 859.54 98.0689 859.453C98.0834 859.385 98.1415 859.336 98.1948 859.288C99.8595 857.894 101.476 856.326 103.242 855.059C103.644 854.768 103.958 854.637 104.229 854.584C104.152 827.431 104.07 800.418 104.525 773.251C104.089 775.336 103.184 777.32 101.848 778.98C100.914 779.193 100.034 777.949 100.547 777.141C96.8881 782.74 90.7907 786.679 84.1851 787.71C85.3514 784.478 86.5176 781.245 87.6839 778.017C84.7174 782.426 79.5925 785.305 74.2838 785.538C75.5711 783.844 76.8632 782.15 78.1505 780.456C68.1574 786.825 56.0253 789.772 44.2271 788.693C44.8707 787.434 45.9983 786.476 47.2904 785.9C43.8399 786.597 40.1573 786.157 37.0409 784.507C38.4975 783.316 40.1574 782.368 41.9237 781.714C39.1411 782.203 36.2132 781.821 33.6484 780.635C36.0052 778.966 38.6765 777.741 41.4833 777.054C38.6717 777.301 34.6793 776.454 34.9551 773.647C36.9683 773.255 38.4201 772.767 40.4671 772.626C50.3731 771.934 58.4111 764.603 65.157 757.315C67.9009 754.353 70.7077 751.038 71.1094 747.017C68.2542 750.007 63.202 747.714 59.1564 748.594C60.3178 747.544 61.2082 746.199 61.7212 744.718C59.8532 745.759 57.7191 746.32 55.585 746.325C56.8916 744.989 57.8933 743.353 58.4837 741.577C55.7108 742.836 50.9731 744.171 47.9437 744.462C65.9264 735.19 80.0475 718.688 86.4305 699.49C84.3593 702.404 80.9233 704.305 77.352 704.513C77.3616 702.326 77.8069 700.144 78.6587 698.13C76.9843 699.994 74.9324 701.518 72.6725 702.592C73.137 700.569 73.2919 698.479 73.1322 696.408C67.9929 704.122 59.9644 709.866 51.0021 712.237C51.3118 710.969 51.6216 709.701 51.9313 708.428C49.9665 709.449 47.997 710.475 46.0322 711.497C47.4453 709.348 48.8583 707.199 50.2713 705.051C47.9485 706.652 44.8321 707.035 42.1947 706.033C58.0917 693.001 70.1367 675.323 76.4471 655.763C74.1339 656.963 71.5401 657.611 68.9365 657.65C71.4626 655.55 73.3306 652.661 74.2113 649.491C70.6787 653.599 64.9054 655.661 59.5677 654.717C60.4871 653.885 61.0775 652.694 61.1888 651.46C58.3433 652.869 54.9897 653.222 51.9119 652.438C53.2524 651.446 54.2251 649.965 54.6026 648.339C53.0879 649.985 50.6053 650.662 48.4615 650.018C51.1182 648.804 53.3396 646.66 54.651 644.052C52.1298 646.752 48.505 647.642 44.8127 647.788C57.4867 634.605 65.6942 620.475 70.0786 602.719C67.1895 607.476 62.3696 611.024 56.9642 612.364C57.9611 610.825 58.5224 609.01 58.5708 607.181C56.1367 611.077 52.2651 614.053 47.8759 615.403C47.6098 614.29 47.3484 613.177 47.0823 612.059C43.8158 615.248 40.8299 618.718 38.1538 622.41C39.3055 620.189 39.9346 617.687 39.7798 615.185C34.834 623.596 26.3363 629.839 16.8368 632.05C20.0694 629.892 22.6101 626.722 24.0183 623.097C21.076 624.452 18.0177 625.561 14.8915 626.403C17.2531 625.483 19.1356 623.422 19.8373 620.988C15.4335 623.151 9.88767 623.891 5 623.625Z" fill="#10032B"/>
<path d="M567.924 686.417C567.258 687.702 566.477 688.929 565.464 689.968C566.251 688.767 567.08 687.587 567.924 686.417Z" fill="#10032B"/>
<path d="M696.294 688.489C696.577 688.473 696.866 688.504 697.149 688.468C696.881 688.62 696.577 688.588 696.294 688.489Z" fill="#10032B"/>
<path d="M532 687.728C556.411 680.296 574.958 660.191 588.501 638.571C590.242 635.791 590.389 633.268 590.226 629.995C589.135 632.408 587.221 634.443 584.871 635.665C584.693 634.417 584.672 633.147 584.803 631.894C582.306 637.569 576.295 641.508 570.095 641.534C575.377 636.326 579.909 630.357 583.512 623.869C581.315 624.299 579.049 624.372 576.83 624.084C577.134 622.211 578.745 620.868 580.203 619.652C589.193 612.146 596.458 602.584 601.278 591.91C599.589 593.772 597.575 595.335 595.351 596.51C595.666 595.298 595.986 594.087 596.305 592.875C594.402 593.903 592.177 594.312 590.032 594.034C590.174 592.891 590.315 591.747 590.452 590.604C587.341 592.618 583.429 593.358 579.794 592.618C583.103 590.646 586.02 588.008 588.307 584.903C585.841 586.313 582.999 587.058 580.156 587.037C580.292 585.946 580.423 584.861 580.56 583.775C577.234 585.285 573.389 585.223 569.786 584.593C585.306 576.264 595.97 562.343 601.629 545.658C599.279 549.477 595.498 552.398 591.207 553.704C591.637 552.551 591.774 551.292 591.601 550.075C588.558 552.477 584.693 553.825 580.864 554.439C596.599 540.67 607.163 521.122 610.063 500.419C609.161 501.741 607.609 502.601 606.004 502.664C609.492 496.837 610.184 490.322 609.623 483.556C608.684 485.397 606.68 486.651 604.614 486.687C606.591 484.736 607.719 481.951 607.656 479.176C604.178 482.78 599.961 485.675 595.346 487.621C595.461 483.446 602.222 481.327 601.43 477.225C599.599 479.008 597.297 480.293 594.821 480.923C597.853 478.007 601.147 474.366 600.475 470.212C597.522 474.943 593.447 478.447 588.16 480.231C594.569 473.769 596.515 464.285 599.5 455.688C602.474 447.123 606.727 439.009 612.088 431.692C609.345 432.762 606.177 432.694 603.481 431.503C611.516 419.334 617.685 405.933 621.708 391.913C619.531 392.841 617.087 393.124 614.753 392.726C620.706 385.949 623.444 376.455 622.001 367.549C620.045 370.555 616.956 372.81 613.499 373.759C617.79 369.778 621.136 364.79 623.192 359.309C617.748 366.595 609.382 371.625 600.397 373.02C606.156 362.488 610.939 351.415 614.658 340.002C612.912 339.86 611.17 339.718 609.423 339.572C612.119 333.65 615.303 327.948 618.928 322.541C617.653 321.806 616.032 321.707 614.674 322.273C619.311 315.098 622.584 307.046 624.257 298.665C622.914 298.633 621.587 298.135 620.559 297.275C625.012 289.931 628.39 281.933 630.546 273.619C629.36 275.177 627.058 275.759 625.269 274.962C629.544 265.631 631.222 257.239 631.868 247C635.613 257.805 639.358 268.61 643.103 279.41C643.375 280.202 643.632 281.141 643.15 281.822C642.872 282.216 642.3 282.232 641.891 282.048C644.545 286.585 647.199 291.117 649.853 295.654C648.914 294.893 647.97 294.128 647.031 293.367C650.257 299.971 653.483 306.58 656.709 313.183C649.502 308.436 643.522 301.843 639.499 294.211C642.022 308.436 647.965 322.037 656.682 333.555C655.03 332.842 653.383 332.129 651.731 331.415C654.899 337.075 658.943 342.241 663.669 346.684C657.794 343.694 652.507 339.551 648.201 334.562C650.357 343.437 654.06 351.94 659.09 359.561C655.78 358.008 652.874 355.611 650.724 352.658C653 364.376 657.254 376.193 663.538 386.348C660.842 385.147 658.308 383.568 656.037 381.68C657.731 384.47 659.42 387.266 661.114 390.056C659.981 389.573 658.854 389.096 657.721 388.614C666.501 410.129 679.499 429.62 692.407 448.948C687.487 446.342 683.411 442.182 680.91 437.21C680.873 438.72 680.836 440.231 680.805 441.742C678.229 438.925 675.953 435.83 674.038 432.531C674.689 433.69 672.281 433.774 671.332 432.846C669.066 430.627 667.068 428.125 665.405 425.424C665.352 426.824 665.305 428.23 665.253 429.631C660.328 427.973 656.158 424.202 654.023 419.466C658.686 429.022 663.223 438.658 667.886 448.219C666.396 447.548 664.912 446.882 663.422 446.211C668.038 455.332 672.654 464.453 677.275 473.58C677.752 474.529 678.24 475.672 677.731 476.606C677.411 477.199 676.535 477.293 676 477.026C684.954 495.3 697.846 511.628 713.571 524.541C711.017 524.872 708.347 524.211 706.238 522.732C707.697 524.363 709.155 525.994 710.618 527.626C706.275 525.459 702.131 522.91 698.24 520.01C700.899 525.396 704.822 530.154 709.595 533.799C706.155 533.584 702.766 532.603 699.75 530.941C699.64 533.128 700.359 535.352 701.733 537.056C695.806 533.663 690.382 529.399 685.683 524.437C685.3 526.566 685.536 528.801 686.365 530.804C680.065 527.731 674.51 523.146 670.288 517.555C670.283 519.684 670.278 521.814 670.272 523.943C668.274 521.751 666.27 519.559 664.272 517.366C669.785 530.809 676.084 544.143 683.71 556.511C691.337 568.879 701.213 580.156 713.765 587.473C710.634 587.819 707.382 586.807 705.001 584.745C708.394 589.109 712.538 592.891 717.19 595.881C710.985 594.947 705.153 591.685 701.119 586.875C701.266 588.564 701.869 590.211 702.839 591.606C698.276 589.387 694.175 586.219 690.875 582.364C691.101 585.689 691.326 589.015 691.552 592.34C689.082 589.88 686.852 587.184 684.896 584.294C685.614 585.16 684.461 586.534 683.343 586.439C682.221 586.345 681.376 585.417 680.653 584.556C677.988 581.399 675.323 578.246 672.659 575.089C685.903 608.925 713.235 635.938 746.122 651.395C743.972 651.296 741.821 651.196 739.671 651.096C741.968 653.677 744.858 655.733 748.058 657.05C742.529 658.854 735.999 657.008 732.233 652.581C735.034 657.946 738.554 662.94 742.666 667.382C736.875 663.506 731.73 658.66 727.523 653.105C728.452 656.845 730.439 660.317 733.193 663.013C726.076 659.656 719.477 655.198 713.713 649.843C715.68 654.013 718.816 657.621 722.666 660.16C713.587 655.376 705.656 648.437 699.708 640.076C700.558 646.098 703.443 651.815 707.786 656.079C698.843 649.502 690.954 641.492 684.513 632.45C684.419 636.226 685.536 640.029 687.665 643.15C682.745 640.805 678.256 637.564 674.484 633.625C675.329 637.128 677.044 640.422 679.43 643.124C675.895 642.08 672.654 640.055 670.168 637.338C670.189 639.106 670.204 640.873 670.225 642.641C667.781 642.101 665.536 640.7 663.978 638.739C668.998 647.456 675.376 656.042 683.118 662.462C681.675 662.798 680.081 662.415 678.943 661.461C679.409 663.333 680.375 665.08 681.712 666.475C676.677 664.671 671.83 662.326 667.288 659.504C676.21 671.605 688.725 681.02 702.829 686.233C700.616 687.498 697.909 687.87 695.439 687.256C695.339 687.818 695.785 688.305 696.309 688.489C693.094 688.678 689.816 687.744 687.256 685.788C695.717 694.904 709.658 695.607 722.089 695.68C719.912 697.799 717.248 699.415 714.363 700.374C716.503 701.198 718.648 702.016 720.788 702.84C717.898 703.296 715.008 703.747 712.113 704.203C713.922 705.263 715.727 706.328 717.536 707.387C707.14 710.209 695.89 709.805 685.725 706.238C688.216 708.84 691.101 711.064 694.253 712.816C690.812 713.786 686.905 712.91 684.204 710.571C691.694 720.626 702.032 730.702 712.727 737.248C708.982 738.082 704.959 737.599 701.518 735.9C702.583 738.213 703.936 740.395 705.535 742.378C702.446 741.905 699.561 740.237 697.605 737.804C697.715 739.325 697.825 740.851 697.935 742.372C695.386 741.706 693 740.442 691.007 738.716C704.371 756.87 726.138 768.561 748.656 769.684C746.537 771.011 745.378 771.714 742.975 772.395C745.928 772.07 748.971 772.658 751.588 774.063C748.661 775.511 745.205 775.852 742.052 775.007C746.175 778.254 751.168 780.379 756.361 781.102C750.245 782.734 743.526 781.973 737.935 779.009C741.239 785.702 746.726 791.294 753.355 794.729C741.082 795.144 729.506 789.547 718.507 784.076C719.939 786.956 721.937 789.563 724.345 791.698C720.227 791.619 716.136 790.271 712.774 787.89C713.45 789.112 714.122 790.339 714.798 791.561C704.361 789.909 694.426 785.209 686.532 778.191C686.38 780.442 687.288 782.744 688.935 784.281C683.847 783.908 678.958 781.317 675.796 777.315C690.881 804.842 718.229 827.386 748.755 834.687C743.337 836.051 738.543 837.016 733.345 834.975C737.992 841.028 744.837 845.355 752.296 846.966C748.567 847.616 744.685 847.343 741.087 846.168C741.559 847.946 742.781 849.515 744.391 850.401C741.402 850.191 738.496 848.87 736.382 846.74C736.325 848.156 736.686 849.583 737.41 850.8C731.793 850.207 726.348 848.025 721.874 844.574C723.201 847.7 725.042 850.611 727.292 853.15C720.977 851.351 714.877 848.796 709.165 845.549C710.078 848.14 711.41 850.59 713.089 852.767C709.412 851.754 705.903 850.118 702.761 847.952C702.535 850.6 703.112 853.318 704.403 855.646C700.846 854.749 697.458 853.176 694.473 851.036C694.232 852.473 694.395 853.978 694.93 855.332C688.657 852.473 683.008 848.256 678.476 843.063C679.037 849.662 682.011 856.024 686.716 860.682C683.779 859.239 680.841 857.797 677.904 856.354C678.785 858.085 679.666 859.811 680.548 861.542C674.038 859.748 668.08 855.987 663.658 850.879C663.716 854.256 665.232 857.587 667.744 859.848C662.221 858.054 657.17 854.907 653.016 850.852C652.895 858.421 652.822 865.974 652.769 873.522C654.117 876.422 655.376 879.297 657.149 882.04C659.247 885.287 661.613 888.35 663.973 891.408C663.606 891.507 663.186 891.36 662.956 891.056C662.961 891.292 662.966 891.534 662.971 891.77C659.919 888.79 657.107 885.565 654.579 882.129C653.887 881.185 653.257 880.199 652.706 879.165C652.57 905.076 652.727 930.935 652.754 957.009C652.89 957.129 653.037 957.318 653.268 957.565C654.427 958.803 655.444 960.124 656.709 961.268C656.866 961.415 657.039 961.577 657.06 961.792C657.086 962.007 656.855 962.243 656.667 962.138C656.656 962.317 656.64 962.495 656.63 962.668C656.525 962.684 656.415 962.652 656.341 962.579C656.315 962.778 656.284 962.972 656.257 963.172C655.035 962.359 653.876 961.467 652.748 960.528C652.754 972.314 652.738 984.137 652.633 996.043C652.124 996.473 652.743 996.662 652.103 996.489C648.322 995.44 643.213 994.837 639.478 996.043C639.636 977.722 639.609 959.6 639.562 941.536C638.408 942.149 637.254 942.768 636.095 943.382C635.419 943.744 634.726 944.111 634.191 944.667C634.029 944.447 633.724 944.337 633.457 944.41C633.289 944.142 633.121 943.87 632.953 943.602C632.901 943.518 632.848 943.429 632.875 943.335C632.89 943.261 632.953 943.209 633.011 943.156C634.815 941.646 636.567 939.946 638.482 938.572C638.917 938.257 639.258 938.116 639.552 938.058C639.468 908.627 639.379 879.349 639.872 849.903C639.4 852.164 638.419 854.314 636.971 856.113C635.959 856.344 635.004 854.996 635.56 854.12C631.595 860.189 624.986 864.458 617.826 865.575C619.09 862.072 620.354 858.568 621.618 855.069C618.403 859.848 612.849 862.969 607.095 863.22C608.49 861.385 609.89 859.549 611.286 857.713C600.454 864.615 587.305 867.81 574.517 866.64C575.215 865.276 576.437 864.238 577.837 863.614C574.097 864.369 570.106 863.892 566.728 862.103C568.307 860.813 570.106 859.785 572.02 859.077C569.005 859.606 565.831 859.192 563.051 857.907C565.606 856.097 568.501 854.77 571.543 854.026C568.496 854.293 564.168 853.375 564.467 850.333C566.649 849.908 568.223 849.378 570.442 849.226C581.179 848.476 589.891 840.53 597.202 832.631C600.176 829.421 603.219 825.828 603.654 821.469C600.559 824.71 595.083 822.224 590.698 823.179C591.957 822.041 592.922 820.583 593.478 818.978C591.454 820.105 589.141 820.714 586.827 820.719C588.244 819.271 589.329 817.498 589.969 815.573C586.964 816.937 581.829 818.385 578.545 818.7C598.036 808.65 613.342 790.764 620.26 769.956C618.015 773.114 614.291 775.175 610.42 775.401C610.431 773.03 610.913 770.665 611.836 768.483C610.022 770.502 607.798 772.154 605.348 773.319C605.852 771.126 606.02 768.86 605.846 766.615C600.276 774.976 591.574 781.202 581.86 783.772C582.196 782.398 582.532 781.024 582.867 779.644C580.738 780.751 578.603 781.863 576.474 782.97C578.005 780.641 579.537 778.312 581.068 775.983C578.551 777.719 575.173 778.134 572.314 777.048C589.544 762.923 602.6 743.762 609.439 722.561C606.932 723.862 604.121 724.565 601.299 724.607C604.037 722.331 606.061 719.199 607.016 715.764C603.187 720.217 596.93 722.451 591.144 721.428C592.141 720.526 592.781 719.236 592.901 717.898C589.817 719.425 586.182 719.808 582.846 718.958C584.299 717.883 585.354 716.278 585.763 714.515C584.121 716.299 581.43 717.033 579.107 716.335C581.986 715.019 584.394 712.695 585.815 709.868C583.082 712.795 579.154 713.76 575.152 713.917C588.889 699.63 597.785 684.314 602.537 665.069C599.405 670.225 594.181 674.07 588.322 675.523C589.403 673.855 590.011 671.888 590.064 669.905C587.425 674.128 583.229 677.353 578.472 678.817C578.183 677.61 577.9 676.404 577.612 675.192C574.071 678.649 570.835 682.41 567.934 686.412C569.183 684.004 569.865 681.293 569.697 678.581C564.336 687.697 555.126 694.463 544.83 696.86C548.333 694.521 551.087 691.085 552.613 687.157C549.424 688.625 546.109 689.826 542.721 690.739C545.281 689.743 547.321 687.508 548.082 684.87C543.309 687.214 537.298 688.017 532 687.728Z" fill="#10032B"/>
<path d="M364.472 531.31C365.281 531.922 366.145 532.458 367.101 532.797C366.211 532.323 365.35 531.802 364.472 531.31Z" fill="#10032B"/>
<path d="M340.864 223.701C340.153 223.175 339.442 222.65 338.731 222.129C339.362 222.756 340.058 223.314 340.864 223.701Z" fill="#10032B"/>
<path d="M378.446 492.83C375.164 489.541 372.287 485.839 369.909 481.846C368.658 479.749 367.51 477.387 367.845 474.969C368.782 475.844 370.055 476.351 371.339 476.358C371.051 475.705 370.941 474.98 371.021 474.272C372.852 476.063 375.609 476.847 378.107 476.285C377.523 475.742 377.465 474.728 377.986 474.126C380.502 476.555 384.999 478.068 388.492 478.068C380.025 471.895 373.191 463.508 368.855 453.968C370.361 453.834 371.794 453.042 372.713 451.842C365.285 445.115 359.378 436.72 355.545 427.458C358.765 430.561 362.518 433.114 366.591 434.97C366.387 434.084 366.179 433.198 365.974 432.312C367.987 433.599 370.587 433.923 372.859 433.18C360.22 422.615 352.617 407.876 349.277 391.744C350.954 394.668 353.846 396.871 357.11 397.717C355.739 395.584 354.371 393.447 353 391.313C355.928 393.571 358.984 395.66 362.149 397.567C363.852 398.592 365.989 399.58 367.728 398.617C364.793 396.94 362.262 394.566 360.399 391.747C363.976 393.764 368.367 395.383 372.09 393.651C370.908 391.828 369.267 390.362 367.699 388.856C360.84 382.259 355.086 374.514 350.757 366.039C349.831 364.227 348.952 362.291 349.036 360.259C352.595 364.559 358.466 365.999 363.918 367.195C364.461 367.316 365.376 367.352 365.876 367.104C360.486 366.367 355.804 362.827 352.511 358.495C349.219 354.166 347.122 349.068 345.062 344.032C344.784 343.35 344.5 342.639 344.547 341.906C346.593 344.083 350.061 344.773 352.785 343.544C346.553 339.022 342.425 331.714 341.769 324.042C343.577 325.435 345.78 326.306 348.052 326.525C347.468 325.606 347.37 324.392 347.804 323.393C351.95 327.594 358.714 328.739 364.56 327.926C359.936 324.046 355.502 319.819 352.318 314.696C349.135 309.569 347.275 303.428 348.157 297.459C349.78 298.341 351.195 299.592 352.274 301.091C348.037 294.647 345.842 286.88 346.083 279.171C349.43 283.478 351.614 288.277 352.132 293.706C350.75 279.481 341.302 266.798 340.945 252.508C341.685 254.593 343.847 256.081 346.061 256.027C342.006 250.94 339.07 244.967 337.517 238.654C337.097 236.944 336.886 234.855 338.206 233.691C340.08 236.634 341.707 240.208 343.577 243.151C341.594 238.64 339.614 234.129 337.63 229.622C336.332 226.665 335.023 223.288 336.281 220.316C337.098 220.918 337.918 221.519 338.735 222.125C337.291 220.692 336.335 218.755 336.244 216.72C337.597 218.73 340.409 219.612 342.666 218.733C339.482 214.438 336.897 209.697 335.004 204.698C337.094 205.274 339.366 205.15 341.382 204.351C337.276 196.781 334.373 188.558 332.816 180.084C333.487 181.404 335.052 182.206 336.514 181.98C334.414 176.864 332.313 171.744 330.216 166.628C331.65 166.697 333.086 166.763 334.519 166.832C325.239 151.13 320.491 133.236 320.097 115C314.507 133.47 307.819 151.608 300.085 169.29C304.093 168.509 307.673 165.767 309.468 162.099C307.006 171.368 302.882 180.189 297.346 188.022C299.662 187.617 301.7 185.892 302.484 183.675C301.153 189.853 298.9 195.833 295.815 201.35C297.372 200.501 298.929 199.647 300.49 198.798C294.845 212.997 289.2 227.193 283.555 241.393C287.884 235.566 292.212 229.742 296.537 223.915C297.109 229.356 295.8 234.982 292.883 239.61C295.892 239.263 298.579 236.948 299.367 234.02C297.062 242.924 293.795 252.168 288.912 259.961C289.685 260.833 291.308 260.665 291.888 259.659C289.459 266.532 284.904 272.542 282.848 279.536C281.648 283.616 281.338 287.901 280.456 292.062C276.864 308.974 264.28 322.313 252.217 334.701C256.407 333.282 260.181 330.649 262.952 327.2C260.042 335.467 255.247 343.059 249.033 349.24C252.479 347.77 255.652 345.662 258.343 343.055C258.595 344.123 258.846 345.192 259.101 346.264C265.476 343.339 270.814 338.263 274.14 332.09C273.815 333.111 275.004 334.5 276.24 334.384C277.699 334.245 278.745 332.969 279.621 331.798C283.377 326.759 287.129 321.715 290.885 316.676C291.37 316.023 292.77 315.834 293.109 316.57C293.448 317.307 293.189 318.171 292.927 318.937C282.724 348.43 265.133 375.334 242.211 396.513C244.891 398.056 248.749 396.936 250.189 394.201C249.777 396.966 248.34 399.566 246.218 401.385C249.321 401.221 252.344 399.814 254.467 397.538C254.233 399.143 253.686 400.7 252.859 402.096C258.412 399.638 263.153 395.379 266.187 390.117C266.424 392.586 265.753 395.135 264.32 397.163C271.948 392.218 277.994 384.874 281.386 376.443C273.6 398.632 260.972 418.637 244.756 435.663C246.401 435.79 248.041 435.918 249.686 436.046C247.644 441.107 244.687 445.797 241 449.822C247.319 448.484 253.234 445.282 257.803 440.717C257.468 443.182 256.264 445.519 254.456 447.226C260.061 446.497 265.341 443.507 268.852 439.072C264.167 450.727 256.498 460.601 247.01 468.832C248.68 468.77 250.35 468.708 252.02 468.646C251.699 470.95 250.43 473.106 248.57 474.502C251.072 474.827 253.668 474.378 255.922 473.24C254.303 475.406 252.286 477.277 250 478.721C253.059 479.166 256.275 478.404 258.813 476.639C258.048 478.145 256.946 479.483 255.612 480.519C260.236 480.278 264.768 478.532 268.36 475.614C268.163 478.889 265.771 481.923 262.631 482.875C264.757 483.09 266.934 482.765 268.9 481.937C261.41 488.826 252.961 494.667 243.87 499.244C246.667 500.743 250.091 501.013 253.088 499.973C252.089 501.399 250.838 502.646 249.405 503.638C257.059 505.301 265.355 503.784 271.926 499.525C270.315 502.424 267.897 504.871 265.02 506.519C266.872 506.873 268.845 506.577 270.515 505.695C269.593 510.65 264.932 513.914 260.542 516.397C255.652 519.165 250.609 521.659 245.442 523.862C247.458 524.438 249.584 524.635 251.673 524.434C250.747 525.32 249.821 526.207 248.898 527.093C253.431 527.516 258.08 526.604 262.117 524.5C260.505 527.6 257.796 530.119 254.587 531.501C256.556 532.391 259.032 532.019 260.659 530.593C260.064 531.436 259.466 532.282 258.872 533.124C264.247 533.762 269.873 531.851 273.746 528.066C268.269 535.046 260.848 541.715 253.136 546.102C252.563 546.427 251.951 546.784 251.673 547.382C251.25 548.305 251.859 549.439 252.738 549.949C253.617 550.46 254.682 550.503 255.696 550.54C254.288 551.681 252.88 552.823 251.473 553.964C252.665 553.76 253.916 553.909 255.028 554.391C253.478 555.959 251.925 557.527 250.372 559.095C256.808 559.481 263.193 557.301 268.739 554.015C274.286 550.73 279.114 546.376 283.872 542.025C280.051 547.681 275.216 552.644 269.666 556.615C270.938 556.582 272.218 556.79 273.418 557.224C271.988 558.46 270.559 559.696 269.129 560.933C271.412 561.068 273.731 560.397 275.595 559.073C277.622 560.976 280.915 560.134 283.428 558.942C286.684 557.395 289.747 555.448 292.529 553.155C292.573 554.048 292.621 554.941 292.664 555.831C293.076 555.868 293.488 555.798 293.9 555.78C293.23 582.283 293.036 608.728 292.303 635.235C292.081 643.341 291.909 651.447 291.713 659.553C288.186 661.508 284.875 664.345 281.338 666.26C281.531 667.507 281.728 668.754 281.922 670.004C281.976 670.365 282.108 670.807 282.469 670.869C282.636 670.898 282.804 670.829 282.961 670.759C285.389 669.691 287.709 668.367 289.867 666.825C290.422 666.427 290.972 666.008 291.384 665.468C291.476 665.351 291.501 665.206 291.578 665.082C290.903 693.51 290.367 721.942 289.966 750.382C288.132 752.15 286.301 753.922 284.467 755.691C283.501 756.625 282.465 758.036 283.194 759.163C283.369 758.991 283.635 758.926 283.869 758.991C284.219 759.702 285.207 760.413 285.557 761.124C286.823 758.885 288.318 756.785 289.911 754.769C289.831 760.599 289.754 766.43 289.685 772.261C287.129 774.124 284.649 776.093 282.341 778.26C282.673 779.025 282.611 780.375 282.111 781.042C282.458 781.964 282.294 783.062 281.692 783.842C284.667 782.654 287.173 780.561 289.605 778.467C289.371 799.001 289.171 819.535 289.04 840.065L319.634 841.604C318.234 811.717 317.417 776.217 316.917 739.293C316.972 739.303 317.027 739.314 317.082 739.325C318.857 739.745 320.064 742.111 321.84 741.681C321.87 741.189 321.902 740.7 321.931 740.208C322.664 740.131 323.401 740.051 324.134 739.974C321.421 738.009 319 735.664 316.841 733.104C316.516 707.542 316.338 681.425 316.21 656.104C317.348 657.34 318.817 658.525 319.565 659.251C319.488 658.97 319.846 658.759 320.134 658.769C320.422 658.784 320.717 658.908 320.994 658.828C321.374 658.722 321.68 658.252 322.052 658.383C322.066 657.741 321.724 657.154 321.381 656.611C319.857 654.2 318.088 651.95 316.177 649.828C316.057 624.849 315.984 600.804 315.867 578.979C318.69 580.981 321.512 582.987 324.335 584.993C326.716 586.681 329.133 588.395 331.887 589.368C331.595 588.927 331.303 588.486 331.011 588.041C332.08 588.161 333.148 588.282 334.22 588.406C330.319 585.025 326.227 581.86 321.972 578.936C320.156 577.688 317.953 575.741 315.849 574.903C315.794 565.02 315.725 555.663 315.641 546.89C315.849 546.572 316.079 546.273 316.265 545.942C316.717 547.513 317.165 549.085 317.618 550.657C318.992 549.238 320.363 547.82 321.738 546.397C323.208 548.509 324.721 550.668 326.825 552.152C328.926 553.636 331.774 554.34 334.111 553.268C331.828 550.923 329.983 548.155 328.689 545.15C333.899 548.629 339.413 552.217 345.66 552.717C345.233 551.885 344.81 551.054 344.383 550.219C347.144 551.754 350.382 552.418 353.522 552.086C352.57 551.484 351.928 550.423 351.833 549.3C354.612 549.453 357.412 549.289 360.155 548.819C352.001 544.352 344.81 538.134 339.216 530.714C342.082 532.223 344.945 533.733 347.811 535.239C346.174 533.427 345.076 531.129 344.701 528.712C351.283 535.378 360.764 540.209 369.614 543.283C364.935 541.788 361.602 537.744 358.546 533.901C356.402 531.202 354.258 528.507 352.114 525.809C351.585 525.142 351.053 524.161 351.618 523.526C355.801 526.294 360.114 528.858 364.498 531.301C362.966 530.138 361.723 528.584 361.063 526.775C365.373 530.415 370.806 534.298 376.156 532.515C371.189 530.757 366.678 527.731 363.167 523.803C365.869 524.81 368.793 525.827 371.576 525.065C365.872 521.619 361.405 516.168 359.145 509.899C361.58 511.289 364.458 511.89 367.247 511.591C364.505 510.891 362.383 508.776 360.41 506.749C356.311 502.537 353.343 499.149 352.825 493.296C354.583 495.477 356.453 497.643 358.864 499.069C361.274 500.495 364.341 501.082 366.901 499.944C361.318 496.294 357.121 490.573 355.312 484.151C360.439 488.851 366.044 493.778 372.947 494.624C372.535 493.84 372.403 492.91 372.571 492.042C374.121 493.457 376.564 493.774 378.446 492.83Z" fill="#10032B"/>
<path d="M333.381 909.298C328.717 903.131 327.157 894.733 329.297 887.305C327.751 886.62 326.088 885.825 325.337 884.308C324.59 882.791 325.498 880.45 327.19 880.538C325.374 880.432 326.705 877.507 326.274 875.739C325.964 874.473 324.582 873.842 323.7 872.883C321.537 870.546 323.448 865.966 326.632 865.857C325.581 865.186 324.451 864.412 324.108 863.213C323.765 862.013 324.837 860.445 326.019 860.843C326.336 859.165 324.451 858.035 323.324 856.755C322.197 855.471 323.011 852.521 324.476 853.396C322.912 851.726 324.152 849.064 324.225 846.778C324.32 843.744 322.084 841.024 319.39 839.623C316.695 838.223 313.592 837.887 310.572 837.574C307.553 837.26 304.53 836.947 301.511 836.633C298.52 836.323 294.287 836.498 291.293 836.185C286.002 838.901 281.455 843.044 278.253 848.058C280.051 848.149 281.87 847.762 283.475 846.949C283.081 848.641 282.169 850.209 280.893 851.387C281.465 852.455 283.296 852.441 283.858 851.369C283.843 852.944 282.002 853.71 280.557 854.333C279.113 854.953 277.575 856.602 278.508 857.867C279.438 857.663 280.459 857.9 281.207 858.491C279.602 860.755 277.531 862.684 275.161 864.121C276.145 865.466 277.436 866.589 278.902 867.384C278.176 868.591 277.122 869.601 275.89 870.28C276.896 870.356 277.899 870.429 278.906 870.502C279.394 873.106 277.589 875.936 275.018 876.585C275.657 877.022 276.298 877.463 276.936 877.901C275.39 880.322 274.599 883.221 274.701 886.095C272.043 889.895 270.5 894.46 270.307 899.095C270.212 901.345 270.635 903.956 272.568 905.112C280.273 909.724 290.943 907.413 299.924 907.434C310.339 907.456 323.094 907.624 333.381 909.298Z" fill="#10032B"/>
<path d="M1 1027H1084.5L1006 996.5L917.5 986L899 977C895.167 975.5 886.5 971.9 882.5 969.5C878.5 967.1 836.5 961.833 816 959.5L790.5 953.5C785 951.333 772.4 946.2 766 943C759.6 939.8 735.667 934.333 724.5 932H683.5C677.1 932 636.5 927.667 617 925.5L582.5 917.5H537.5C531.9 917.5 518.833 908.833 513 904.5L460 893H422C418 893 375.667 884.333 355 880L324 873.5H282L238.5 868.5L205.5 860.5L169 853L137.5 847H117H95.5L73 842L56.5 836L36 842H1V1027Z" fill="#10032B"/>
<path d="M724.5 932C735.667 934.333 759.6 939.8 766 943C772.4 946.2 785 951.333 790.5 953.5L816 959.5C836.5 961.833 878.5 967.1 882.5 969.5C886.5 971.9 895.167 975.5 899 977L917.5 986L1006 996.5L1084.5 1027H1V842H36L56.5 836L73 842L95.5 847H117H137.5L169 853L205.5 860.5L238.5 868.5L282 873.5H324L355 880C375.667 884.333 418 893 422 893M724.5 932C713.5 932 689.9 932 683.5 932M724.5 932H683.5M683.5 932C677.1 932 636.5 927.667 617 925.5L582.5 917.5M582.5 917.5C569.833 917.5 543.1 917.5 537.5 917.5M582.5 917.5H537.5M537.5 917.5C531.9 917.5 518.833 908.833 513 904.5L460 893M460 893C449 893 426 893 422 893M460 893H422" stroke="#10032B"/>
</g>
<defs>
<clipPath id="clip0_268_118">
<rect width="1440" height="1024" fill="white"/>
</clipPath>
</defs>
</svg>
