<svg width="1440" height="1024" viewBox="0 0 1440 1024" fill="none" xmlns="http://www.w3.org/2000/svg">
<g clip-path="url(#clip0_283_177)">
<path d="M921.546 840.854C912.247 826.103 906.216 808.658 904.155 790.6C906.232 792.158 909.13 792.103 911.164 790.471C905.538 773.848 900.68 771.168 899.613 753.374C901.465 754.76 903.712 755.435 905.917 755.281C904.833 751.117 903.755 746.952 902.671 742.793C905.634 745.529 909.947 746.16 913.411 744.363C907.774 725.201 895.262 701.715 893.741 681.559C895.572 685.516 900.296 687.282 903.803 685.331C899.784 674.199 893.074 656.061 890.955 644.259C893.138 646.326 895.647 647.946 898.326 649.001C895.134 643.082 893.72 635.93 894.376 629.011C896.004 633.071 900.44 636.88 903.926 634.887C897.862 615.559 887.298 589.245 883.834 569.09C886.444 570.347 888.708 572.537 890.224 575.285C888.564 570.985 888.062 566.102 888.804 561.478C890.208 563.287 892.786 563.692 894.558 562.373C887.629 540.776 883.669 518.547 879.302 496.085C879.911 501.452 884.661 505.721 889.337 505.12C887.416 502.538 886.487 499.017 886.845 495.643C885.404 497.698 888.996 500.256 890.731 498.526C892.471 496.797 892.316 493.705 892.012 491.086C885.964 439.071 877.84 387.375 867.666 336.213C870.65 338.9 874.194 341.746 877.888 340.795C871.312 322.216 867.148 302.508 865.579 282.53C867.127 283.837 868.68 285.143 870.228 286.45C869.614 282.555 869.005 278.66 868.397 274.765C869.411 277.697 872.384 279.531 875.064 278.887C863.145 229.491 856.606 179.758 852.613 128.7C848.956 172.551 843.01 216.15 834.827 259.185C837.907 259.228 840.987 257.903 843.288 255.547C838.729 277.819 833.178 299.821 826.655 321.437C831.144 320.008 835.281 317.149 838.478 313.267C824.675 357.933 814.522 404.084 808.191 450.922C813.3 448.149 817.773 443.843 821.045 438.55C821.403 441.371 821.766 444.187 822.123 447.008C827.68 441.108 832.665 434.495 836.957 427.331C833.877 442.279 827.653 456.356 818.958 468.023C822.79 469.452 827.253 468.372 830.258 465.293C828.747 483.756 823.148 501.752 814.143 517.142C816.172 517.786 818.371 517.731 820.372 516.989C816.652 528.146 812.926 539.298 809.206 550.455C803.489 567.587 797.708 585.068 796.848 603.39C802.25 598.28 806.921 592.153 810.609 585.326C810.882 590.76 810.076 596.268 808.266 601.298C811.218 600.409 813.807 598.017 815.195 594.895C813.198 617.559 809.862 640.91 805.207 663.054C806.51 661.17 808.197 664.973 807.69 667.304C803.248 687.705 798.802 708.106 794.361 728.507C796.112 726.606 797.857 724.704 799.608 722.803C799.763 729.078 799.912 735.359 800.067 741.634C803.793 739.076 806.969 735.457 809.227 731.188C811.245 740.769 809.638 751.282 804.893 759.495C808.255 758.526 811.453 756.803 814.255 754.453C809.35 781.252 788.804 802.475 787 829.783C790.219 826.605 793.443 823.428 796.662 820.245C796.437 824.011 796.213 827.771 795.989 831.537C798.359 829.991 800.734 828.44 803.104 826.894C800.633 837.352 798.156 847.816 795.685 858.274C805.656 859.618 816.006 852.171 819.315 841.278C818.824 842.682 817.746 847.35 817.912 848.853C818.077 850.349 819.166 851.834 820.479 851.711C821.178 851.644 821.787 851.159 822.347 850.662C825.283 848.08 827.883 844.988 830.029 841.529C829.714 844.884 830.103 848.325 831.155 851.478C832.324 853.435 835.105 851.95 836.167 849.914C837.229 847.878 837.859 845.228 839.754 844.289C842.77 851.46 849.149 856.146 855.826 858.287C862.499 860.421 883.461 855.539 890.389 855.453C892.524 855.422 894.867 855.312 896.447 853.655C898.027 852.005 903.659 854.723 901.577 854.183C905.548 855.637 909.856 855.876 913.929 854.876C913.192 853.165 912.461 851.454 911.724 849.736C914.698 850.693 917.847 850.901 920.9 850.356C921.653 850.221 922.48 849.981 922.902 849.251C924.226 846.976 920.975 843.529 921.546 840.854Z" fill="#2E2865"/>
<path d="M856.494 894.905C856.883 874.449 857.118 856.146 857.503 835.689C848.962 835.941 841.735 834.708 834.379 829.709C833.781 856.238 833.183 882.773 832.585 909.301C840.208 903.744 848.871 900.456 856.494 894.905Z" fill="#2E2865"/>
<path d="M721.95 888.733C731.188 870.701 736.614 849.634 737.536 828.251C738.064 819.819 738.591 811.372 739.118 802.94C737.108 804.107 735.087 805.261 733.077 806.428C731.957 779.552 735.856 752.373 744.401 727.68C745.566 724.316 746.84 720.8 746.598 717.133C746.346 713.48 743.907 709.758 740.985 710.197C743.479 701.559 744.852 692.413 745.028 683.225C742.908 684.626 740.348 684.969 738.042 684.159C742.007 664.053 744.303 643.438 744.874 622.742C742.479 622.275 740.074 625.228 740.414 628.236C741.469 611.069 742.534 593.888 743.6 576.721C742.875 580.347 740.151 583.203 737.163 583.464C742.622 540.423 750.267 497.808 760.032 455.976C755.627 459.451 751.222 462.939 746.818 466.413C754.045 453.092 755.671 436.392 757.099 420.392C759.252 396.249 761.394 372.119 763.546 347.975C767.292 305.909 772.048 265.313 771.378 223C775.936 271.15 782.977 318.929 792.445 365.952C789.776 366.927 786.766 366.351 784.46 364.414C788.194 386.676 791.94 408.925 795.674 431.187C792.796 428.055 789.93 424.938 787.052 421.807C790.369 464.477 813.468 503.151 811.48 545.944C809.25 541.357 807.01 536.77 804.769 532.183C805.362 539.448 805.955 546.713 806.548 553.978C801.045 548.444 796.092 542.071 791.841 535.026C793.368 555.338 798.75 575.183 807.416 592.474C804.912 592.158 802.407 591.842 799.903 591.526C807.768 627.041 815.643 662.57 823.507 698.084C820.256 694.816 817.005 691.534 813.754 688.265C813.951 693.731 814.764 699.156 816.159 704.333C814.479 702.52 812.787 700.708 811.107 698.908C812.589 724.453 815.918 749.819 821.047 774.608C817.829 773.907 814.83 771.792 812.688 768.716C816.192 785.223 819.707 801.731 823.211 818.225C820.575 817.964 818.224 815.19 817.873 811.908C813.117 845.28 840.016 876.758 834.162 909.855C828.022 906.93 823.991 905.722 818.905 900.517C818.136 904.252 818.84 908.414 820.751 911.435C817.467 909.142 814.182 906.861 810.887 904.582C809.975 903.95 808.954 903.291 807.921 903.565C806.911 903.84 806.208 904.939 805.395 905.722C802.155 908.894 796.509 906.175 795.817 901.093C792.753 904.499 788.886 907.672 784.866 906.738C780.846 905.804 778.188 898.429 781.472 895.367C781.077 895.985 780.582 896.479 780.088 896.96C767.951 908.894 753.331 916.859 738.064 919.853C736.965 920.073 735.669 920.183 734.922 919.153C734.065 917.972 734.483 916.104 734.988 914.648C736.888 909.141 739.393 903.964 742.402 899.295C737.185 901.176 731.979 903.071 726.761 904.953C724.883 905.639 722.884 906.312 720.995 905.667C719.106 905.021 717.491 902.481 718.15 900.187C721.193 898.127 720.083 892.373 721.95 888.733Z" fill="#2E2865"/>
<path d="M1486 606.666C1470.58 596.278 1459.39 583.401 1453.81 569.61C1459.75 571.557 1466.91 571.959 1473.3 570.694C1461.26 559.483 1451.7 547.228 1444.95 534.381C1447.73 533.849 1450.92 534.211 1453.22 535.335C1449.02 533.037 1446.14 529.785 1445.25 526.322C1452.81 527.978 1461.65 527.135 1468.09 524.134C1453.78 518.624 1443.74 508.908 1441.51 498.43C1445.81 501.07 1452.29 502.194 1458.11 501.321C1456.04 499.243 1454.99 496.764 1455.15 494.305C1458.92 494.536 1462.71 494.767 1466.5 494.998C1462.03 493 1459.48 489.407 1460.15 485.965C1466.48 488.213 1475.19 487.32 1480.08 483.927C1466.52 474.744 1455.2 464.246 1446.67 452.914C1452.94 454.4 1460.05 454.389 1466.31 452.904C1452.99 446.681 1443.23 437.498 1439.17 427.371C1442.23 428.144 1445.74 428.174 1448.85 427.461C1445.22 425.654 1442.19 423.376 1440.03 420.797C1445.58 420.887 1451.12 420.977 1456.68 421.068C1452.51 418.9 1450.07 415.477 1450.25 412.075C1454.56 411.924 1458.89 411.774 1463.21 411.613C1455.76 406.183 1449.72 399.991 1445.41 393.346C1449.71 393.356 1453.51 392.654 1457.81 392.664C1441.25 382.637 1430.59 368.837 1428.25 354.434C1431.24 355.88 1435.21 356.492 1438.93 356.07C1435.4 349.025 1431.88 341.979 1428.35 334.943C1431.97 335.104 1435.67 334.672 1438.96 333.679C1430.89 328.54 1425.05 322.016 1422.25 315.01C1425.48 316.034 1428.71 317.058 1431.93 318.082C1431.74 314.298 1431.54 310.514 1431.35 306.73C1434 308.677 1439.6 307.172 1440.9 304.743C1442.21 302.314 1440.7 299.684 1439.2 297.296C1430.14 282.813 1421.07 268.33 1412.01 253.847C1417.03 255.684 1422.04 257.51 1427.04 259.347C1427.26 257.089 1427.49 254.831 1427.71 252.572C1428.71 256.316 1438.1 257.591 1441.46 254.439C1430.51 251.157 1425.81 243.027 1423.14 235.58C1420.94 229.468 1419.4 223.275 1417.87 217.093C1417.16 214.222 1416.44 211.362 1415.74 208.491C1413.08 197.802 1410.42 187.123 1407.78 176.434C1410.29 178.311 1415.07 178.783 1418.38 177.498C1408.4 162.232 1400.92 146.314 1396.08 130.085C1397.85 131.681 1400.89 132.694 1403.97 132.704C1403.54 130.055 1403.12 127.395 1402.69 124.745C1405.93 126.08 1409.2 127.415 1412.44 128.74C1411.39 123.772 1410.33 118.814 1409.28 113.846C1410.17 115.371 1414.13 115.05 1415.42 113.645C1416.71 112.24 1416.17 110.483 1415.58 108.908C1409.28 91.9255 1402.99 74.9436 1396.68 57.9616C1399.84 59.0857 1402.99 60.2098 1406.14 61.3339C1396.14 41.4814 1391.59 20.8261 1390.4 0C1382.64 31.0936 1372.58 61.9662 1360.3 92.4776C1364.29 92.7888 1368.48 92.0359 1371.6 90.43C1374.14 108.115 1370.36 126.151 1360.61 142.801C1363.22 141.567 1365.85 140.332 1368.46 139.108C1368.08 161.731 1363.07 184.313 1353.61 206.133C1358.31 204.406 1362.37 201.968 1365.33 199.087C1366.15 204.818 1365.06 210.659 1362.11 216.099C1365.72 215.828 1369.21 214.915 1372.06 213.49C1371.53 230.371 1363.89 247.142 1350.11 261.615C1354.71 262.81 1360.44 261.927 1363.64 259.528C1360.76 268.611 1355.06 277.333 1346.99 285.071C1356.84 282.06 1365.23 277.192 1370.82 271.261C1364.2 283.024 1355.3 294.265 1344.36 304.673C1349.01 305.124 1353.96 304.121 1357.32 302.053C1357.38 308.035 1354.76 314.027 1349.81 319.135C1354.36 324.666 1352.93 331.922 1346.4 336.599C1349.63 337.753 1353.87 337.703 1357.05 336.489C1358.08 344.94 1355.82 353.541 1350.54 361.33C1354.6 360.246 1358.66 359.172 1362.7 358.088C1350.78 381.603 1334.7 404.286 1314.85 425.564C1321.23 422.834 1327.63 420.094 1334.02 417.364C1333.73 420.355 1333.44 423.356 1333.16 426.347C1337.07 425.534 1340.69 424.149 1343.61 422.322C1343.81 424.33 1344 426.327 1344.19 428.334C1350.14 426.558 1355.63 424.139 1360.31 421.208C1356.94 429.629 1345.43 439.856 1337.64 447.023C1339.98 447.263 1342.32 447.504 1344.66 447.745C1343.33 452.121 1341.99 456.507 1340.65 460.893C1339.03 470.829 1332.41 480.414 1321.98 487.932C1327.76 489.939 1335.29 489.748 1340.8 487.45C1339.79 496.664 1335.88 505.757 1329.37 514.027C1336.13 510.946 1342.9 507.875 1349.68 504.793C1343.03 522.076 1331.23 538.577 1315.11 553.16C1323.59 551.735 1331.45 548.865 1337.64 544.93C1330.66 554.324 1323.68 563.729 1316.7 573.123C1321.76 571.708 1326.82 570.293 1331.88 568.878C1327.95 580.49 1318.89 591.4 1306 600.071C1312.86 601.115 1320.45 600.081 1326.02 597.341C1325.96 602.29 1322.3 607.177 1316.28 610.359C1325.69 611.603 1335.73 610.821 1344.39 608.181C1356.7 604.427 1366.82 603.394 1379.56 600.252C1378.89 603.042 1376.72 605.692 1373.49 607.649C1380.35 607.458 1387.1 605.983 1392.67 603.444C1392.29 605.702 1392.93 608.02 1394.49 610.068C1398.58 607.78 1401.64 604.759 1403.18 601.457C1412.33 607.378 1424.33 613.822 1436.92 611.523C1435.79 609.415 1434.66 607.308 1433.52 605.2C1448.94 610.439 1468.52 607.73 1486 606.666Z" fill="#2E2865"/>
<path d="M1114.84 816.639C1105.88 771.57 1100.37 725.572 1098.4 679.369C1099.17 680.412 1099.94 681.463 1100.71 682.506C1098.88 677.366 1097.93 671.815 1097.92 666.249C1099.38 667.643 1100.92 668.724 1102.38 670.117C1097.89 651.675 1094.18 632.975 1091.24 614.114C1092.81 616.33 1094.37 618.546 1095.94 620.762C1095.16 617.282 1094.91 613.642 1095.22 610.071C1096.77 610.437 1098.32 610.795 1099.87 611.16C1095.82 587.381 1090.48 562.672 1083.69 539.753C1085.34 542.784 1088.31 544.786 1091.39 544.931C1086.61 516.941 1081.82 488.951 1077.04 460.953C1078.88 461.638 1080.72 462.316 1082.57 463.001C1079.36 452.478 1076.15 441.955 1072.94 431.433C1075.7 435.422 1078.47 439.405 1081.23 443.394C1080.08 441.757 1079.73 439.412 1080.31 437.41C1080.48 440.661 1082.99 443.516 1085.79 443.631C1082.61 422.158 1078.22 400.93 1072.68 380.127C1073.7 380.896 1075 381.155 1076.19 380.82C1070.21 358.815 1064.28 338.683 1060.59 316C1057.86 338.904 1051.95 361.282 1043.14 382.001C1045.33 381.978 1047.51 381.14 1049.29 379.64C1048.95 387.643 1047.11 395.546 1043.94 402.651C1045.42 402.3 1046.83 401.577 1048.06 400.557C1042.79 420.278 1037.52 440.006 1032.25 459.727C1035.45 457.009 1038.09 453.407 1039.88 449.288C1037.81 469.489 1035.32 489.629 1032.39 509.685C1035.81 508.032 1038.28 504.019 1038.56 499.725C1037.9 505.276 1037.23 510.834 1036.57 516.385C1038.18 515.639 1039.52 514.139 1040.22 512.296C1039.2 547.147 1035.22 581.876 1028.38 615.828C1032.1 613.68 1034.88 609.462 1035.7 604.718C1035.86 612.523 1034.73 620.358 1032.41 627.675C1033.88 626.625 1035.35 625.566 1036.81 624.508C1036.48 631.186 1034.8 637.772 1031.94 643.566C1035.59 642.447 1038.5 638.587 1038.99 634.224C1038.73 656.32 1034.7 679.955 1029 701.031C1031.15 701.13 1033.3 700.057 1034.72 698.184C1033.3 706.308 1032.92 714.676 1033.58 722.93C1035.59 719.42 1037.6 715.91 1039.6 712.399C1036.14 742.59 1032.33 772.727 1028.18 802.804C1029.48 801.403 1030.79 799.994 1032.09 798.593C1030.74 807.951 1029.04 817.233 1027 826.416C1033.48 827.314 1040.23 826.568 1046.57 824.725C1046.21 825.738 1046.44 827.01 1047.14 827.756C1052.95 828.273 1058.76 828.791 1064.58 829.301C1065.54 829.385 1066.51 829.469 1067.46 829.294C1070.67 828.692 1072.97 825.274 1076.05 824.055C1078.86 826.85 1081.82 829.735 1085.41 830.718C1089 831.7 1093.41 830.109 1094.76 826.104C1102.27 828.312 1110.08 829.187 1117.82 828.685C1118.52 825.639 1117.07 818.39 1114.84 816.639Z" fill="#2E2865"/>
<path d="M758.089 910.606C752.674 884.265 749.343 857.381 748.155 830.377C748.621 830.986 749.087 831.6 749.548 832.21C748.443 829.206 747.871 825.962 747.863 822.709C748.747 823.523 749.675 824.155 750.559 824.97C747.847 814.191 745.601 803.261 743.825 792.238C744.773 793.533 745.72 794.828 746.667 796.123C746.194 794.089 746.043 791.962 746.233 789.875C747.168 790.088 748.108 790.297 749.043 790.511C746.596 776.613 743.368 762.171 739.263 748.776C740.261 750.547 742.057 751.718 743.92 751.802C741.027 735.443 738.134 719.084 735.241 702.72C736.358 703.121 737.471 703.517 738.588 703.917C736.646 697.767 734.704 691.617 732.766 685.466C734.436 687.798 736.109 690.126 737.779 692.458C737.084 691.501 736.867 690.13 737.222 688.96C737.325 690.86 738.841 692.529 740.53 692.596C738.608 680.046 735.959 667.639 732.608 655.48C733.228 655.93 734.014 656.081 734.732 655.885C731.117 643.024 727.533 631.257 725.299 618C723.653 631.386 720.077 644.466 714.753 656.575C716.079 656.562 717.397 656.072 718.471 655.196C718.269 659.873 717.156 664.492 715.238 668.644C716.13 668.44 716.987 668.017 717.729 667.421C714.544 678.947 711.358 690.477 708.173 702.004C710.107 700.415 711.702 698.31 712.787 695.902C711.536 707.709 710.028 719.48 708.26 731.202C710.324 730.236 711.82 727.891 711.986 725.381C711.587 728.625 711.185 731.874 710.786 735.118C711.757 734.682 712.566 733.805 712.992 732.728C712.373 753.097 709.969 773.395 705.837 793.239C708.083 791.984 709.764 789.519 710.257 786.746C710.352 791.308 709.673 795.887 708.268 800.164C709.156 799.55 710.044 798.931 710.932 798.312C710.731 802.215 709.713 806.065 707.984 809.451C710.19 808.797 711.95 806.541 712.246 803.991C712.093 816.906 709.653 830.719 706.212 843.038C707.506 843.096 708.809 842.468 709.665 841.373C708.809 846.122 708.576 851.013 708.978 855.837C710.19 853.785 711.406 851.734 712.617 849.682C710.522 867.327 708.221 884.942 705.71 902.52C706.5 901.701 707.289 900.878 708.079 900.059C707.262 905.529 706.235 910.954 705 916.321C708.919 916.846 712.996 916.41 716.829 915.333C716.608 915.925 716.75 916.668 717.172 917.104C720.685 917.406 724.198 917.709 727.71 918.007C728.29 918.056 728.879 918.105 729.451 918.003C731.393 917.651 732.782 915.653 734.645 914.941C736.342 916.574 738.13 918.261 740.301 918.835C742.472 919.409 745.136 918.479 745.953 916.138C750.496 917.429 755.212 917.941 759.893 917.647C760.315 915.867 759.439 911.63 758.089 910.606Z" fill="#2E2865"/>
<path d="M1347.49 618.611C1346.67 628.47 1347.95 638.932 1349.13 648.735C1340.42 652.427 1331.24 658.941 1323.43 664.696C1323.13 649.805 1323.08 634.906 1323.29 620.015C1326.89 617.853 1330.98 613.472 1335.02 612.99C1339.13 612.509 1347.88 613.876 1347.49 618.611Z" fill="#2E2865"/>
<path d="M1393.78 607.206C1387.39 596.213 1382.16 584.334 1378.23 571.909C1380.18 571.604 1382.13 571.299 1384.08 570.994C1375.97 561.185 1370.27 548.781 1367.79 535.555C1369.5 536.824 1371.51 537.561 1373.54 537.681C1372 534.924 1370.46 532.167 1368.92 529.41C1370.85 529.963 1373.01 529.353 1374.49 527.829C1368.22 521.464 1363.07 513.653 1359.44 505.006C1360.84 504.205 1362.24 503.411 1363.64 502.61C1357.43 491.142 1353.25 478.235 1351.41 464.896C1353.37 467.603 1356.8 468.773 1359.73 467.731C1351.3 451.237 1345.87 432.724 1343.89 413.736C1344.85 414.125 1345.82 414.515 1346.79 414.905C1339.41 388.772 1332.7 362.731 1329.23 335.542C1325.87 360.789 1321.21 385.802 1315.27 410.411C1317.1 411.333 1319.47 410.376 1320.4 408.356C1319.69 411.957 1318.98 415.557 1318.27 419.158C1319.4 418.562 1320.53 417.974 1321.66 417.379C1319.53 440.202 1315.92 462.847 1310.86 485.054C1312.27 483.381 1313.69 481.708 1315.11 480.035C1314.99 483.182 1314.4 486.308 1313.38 489.228C1314.64 488.243 1315.89 487.258 1317.14 486.273C1313.87 502.639 1308.24 518.381 1300.55 532.663C1301.68 533.528 1303.24 533.592 1304.41 532.812C1303.98 537.327 1302.79 541.75 1300.91 545.754C1301.52 544.812 1302.98 545.57 1303.21 546.718C1303.43 547.867 1302.87 549.008 1302.34 550.014C1299.93 554.593 1297.52 559.172 1295.11 563.75C1297.22 562.843 1299.34 561.943 1301.45 561.036C1301.45 565.189 1300.22 569.329 1297.99 572.596C1300.52 570.973 1303.04 569.35 1305.57 567.72C1303.82 584.241 1298.8 600.303 1291 614.33C1293.6 614.443 1296.22 613.5 1298.3 611.707C1298.57 615.095 1297.73 618.59 1295.96 621.325C1299.31 620.524 1302.48 619.936 1304.56 616.81C1303.82 620.283 1302.55 623.608 1300.83 626.578C1304.16 625.295 1307.48 624.012 1310.81 622.729C1310.89 624.813 1310.97 626.896 1311.05 628.98C1318.35 628.647 1325.57 626.202 1331.86 621.935C1333.68 624.09 1335.5 626.251 1337.32 628.406C1338.88 626.996 1340.43 625.578 1341.99 624.161C1344.46 626.025 1347.12 627.541 1349.91 628.668C1349.32 627.456 1348.73 626.244 1348.15 625.025C1351.32 629.838 1356.6 632.716 1361.86 632.503C1361.76 630.667 1360.88 628.909 1359.54 627.896C1369.94 632 1380.97 633.977 1391.96 633.708C1392.35 628.094 1391.15 622.346 1388.56 617.555C1390.51 619.731 1393.29 620.886 1396 620.645C1395.56 617.973 1393.96 615.577 1391.83 614.408C1392.85 615.159 1394.14 615.407 1395.32 615.074C1395.33 612.82 1394.88 609.099 1393.78 607.206Z" fill="#2E2865"/>
<path d="M867.545 586.146C866.942 587.483 866.234 588.761 865.317 589.842C866.029 588.592 866.78 587.363 867.545 586.146Z" fill="#2E2865"/>
<path d="M983.84 588.303C984.097 588.287 984.358 588.319 984.615 588.281C984.372 588.44 984.097 588.407 983.84 588.303Z" fill="#2E2865"/>
<path d="M835 587.511C857.115 579.774 873.917 558.844 886.186 536.337C887.764 533.443 887.897 530.816 887.749 527.409C886.761 529.921 885.027 532.039 882.898 533.312C882.736 532.012 882.717 530.691 882.836 529.386C880.574 535.294 875.129 539.394 869.512 539.422C874.297 534 878.403 527.786 881.667 521.031C879.676 521.479 877.623 521.556 875.613 521.255C875.889 519.306 877.348 517.908 878.669 516.641C886.813 508.828 893.395 498.873 897.761 487.762C896.231 489.7 894.407 491.327 892.392 492.55C892.677 491.289 892.967 490.028 893.257 488.766C891.532 489.836 889.517 490.262 887.574 489.973C887.702 488.783 887.83 487.592 887.954 486.402C885.136 488.499 881.591 489.269 878.298 488.499C881.296 486.446 883.938 483.699 886.01 480.467C883.777 481.935 881.201 482.711 878.626 482.689C878.75 481.553 878.868 480.423 878.992 479.293C875.979 480.865 872.496 480.8 869.232 480.144C883.292 471.473 892.953 456.982 898.08 439.612C895.951 443.588 892.525 446.629 888.638 447.989C889.028 446.787 889.151 445.477 888.994 444.21C886.238 446.711 882.736 448.114 879.268 448.753C893.523 434.42 903.093 414.069 905.721 392.517C904.903 393.893 903.497 394.789 902.043 394.854C905.203 388.788 905.83 382.006 905.321 374.962C904.471 376.879 902.656 378.184 900.783 378.222C902.575 376.191 903.596 373.291 903.539 370.403C900.389 374.154 896.569 377.168 892.387 379.194C892.492 374.847 898.617 372.641 897.899 368.371C896.241 370.228 894.155 371.566 891.912 372.221C894.658 369.185 897.643 365.396 897.034 361.071C894.359 365.996 890.667 369.644 885.877 371.5C891.684 364.773 893.447 354.901 896.15 345.951C898.845 337.035 902.698 328.588 907.555 320.97C905.07 322.084 902.199 322.013 899.757 320.774C907.037 308.106 912.625 294.155 916.27 279.559C914.298 280.526 912.083 280.82 909.969 280.405C915.362 273.351 917.842 263.468 916.536 254.196C914.763 257.325 911.964 259.673 908.833 260.661C912.72 256.517 915.752 251.324 917.614 245.618C912.682 253.202 905.103 258.439 896.963 259.891C902.181 248.927 906.514 237.4 909.883 225.518C908.301 225.371 906.723 225.223 905.141 225.071C907.583 218.906 910.468 212.97 913.751 207.341C912.596 206.576 911.128 206.473 909.897 207.062C914.098 199.593 917.063 191.211 918.579 182.485C917.362 182.453 916.16 181.934 915.229 181.038C919.263 173.394 922.323 165.067 924.276 156.412C923.202 158.034 921.116 158.64 919.496 157.81C923.369 148.096 924.889 139.36 925.474 128.701C928.867 139.949 932.259 151.198 935.652 162.441C935.899 163.265 936.132 164.242 935.695 164.952C935.443 165.362 934.925 165.378 934.554 165.187C936.959 169.91 939.363 174.628 941.768 179.351C940.917 178.559 940.062 177.762 939.211 176.97C942.133 183.845 945.056 190.725 947.978 197.6C941.449 192.658 936.032 185.794 932.388 177.85C934.673 192.658 940.057 206.817 947.954 218.808C946.458 218.065 944.965 217.322 943.469 216.58C946.339 222.471 950.002 227.85 954.284 232.475C948.962 229.362 944.172 225.049 940.271 219.856C942.224 229.095 945.578 237.946 950.135 245.88C947.137 244.264 944.505 241.768 942.556 238.694C944.619 250.892 948.472 263.195 954.165 273.766C951.723 272.515 949.427 270.872 947.37 268.906C948.905 271.811 950.435 274.721 951.97 277.626C950.943 277.124 949.922 276.627 948.895 276.125C956.85 298.523 968.625 318.813 980.319 338.935C975.861 336.221 972.169 331.891 969.903 326.715C969.869 328.287 969.836 329.86 969.808 331.432C967.475 328.5 965.412 325.279 963.678 321.844C964.267 323.051 962.086 323.138 961.226 322.172C959.173 319.862 957.363 317.257 955.856 314.445C955.809 315.903 955.766 317.367 955.719 318.824C951.257 317.099 947.479 313.173 945.545 308.242C949.77 318.191 953.88 328.222 958.104 338.176C956.755 337.477 955.41 336.784 954.06 336.085C958.242 345.58 962.423 355.076 966.61 364.577C967.042 365.565 967.484 366.755 967.023 367.727C966.733 368.344 965.94 368.443 965.455 368.164C973.566 387.188 985.246 404.186 999.492 417.629C997.178 417.973 994.759 417.285 992.849 415.745C994.17 417.443 995.491 419.142 996.817 420.84C992.882 418.585 989.128 415.931 985.603 412.911C988.012 418.519 991.566 423.472 995.89 427.267C992.773 427.043 989.703 426.022 986.971 424.291C986.871 426.568 987.522 428.883 988.767 430.657C983.398 427.125 978.484 422.685 974.227 417.52C973.88 419.737 974.094 422.063 974.845 424.149C969.138 420.949 964.106 416.177 960.28 410.356C960.276 412.573 960.271 414.79 960.266 417.007C958.456 414.724 956.641 412.442 954.83 410.159C959.824 424.154 965.531 438.034 972.44 450.91C979.349 463.785 988.297 475.525 999.668 483.142C996.831 483.502 993.885 482.449 991.728 480.303C994.802 484.846 998.556 488.783 1002.77 491.895C997.149 490.923 991.865 487.527 988.211 482.52C988.344 484.278 988.891 485.993 989.77 487.445C985.636 485.135 981.92 481.837 978.931 477.824C979.135 481.286 979.34 484.747 979.544 488.209C977.306 485.648 975.286 482.842 973.514 479.833C974.165 480.734 973.12 482.165 972.108 482.066C971.091 481.968 970.326 481.002 969.67 480.106C967.256 476.819 964.842 473.537 962.428 470.25C974.426 505.475 999.188 533.596 1028.98 549.687C1027.03 549.583 1025.09 549.48 1023.14 549.376C1025.22 552.062 1027.84 554.203 1030.73 555.573C1025.73 557.452 1019.81 555.53 1016.4 550.921C1018.94 556.507 1022.12 561.705 1025.85 566.33C1020.6 562.295 1015.94 557.25 1012.13 551.467C1012.97 555.36 1014.77 558.975 1017.27 561.782C1010.82 558.287 1004.84 553.646 999.62 548.071C1001.4 552.412 1004.24 556.169 1007.73 558.811C999.506 553.832 992.322 546.608 986.933 537.904C987.703 544.172 990.316 550.124 994.251 554.563C986.149 547.716 979.002 539.378 973.167 529.964C973.082 533.896 974.094 537.855 976.023 541.104C971.566 538.663 967.498 535.288 964.082 531.188C964.847 534.835 966.401 538.264 968.563 541.076C965.36 539.99 962.424 537.882 960.171 535.054C960.19 536.894 960.204 538.734 960.223 540.574C958.009 540.011 955.975 538.554 954.564 536.511C959.111 545.587 964.89 554.525 971.903 561.208C970.597 561.558 969.152 561.159 968.121 560.166C968.544 562.115 969.418 563.933 970.63 565.386C966.068 563.507 961.677 561.066 957.562 558.129C965.645 570.726 976.983 580.527 989.76 585.955C987.755 587.271 985.303 587.658 983.065 587.019C982.975 587.604 983.379 588.111 983.854 588.303C980.941 588.499 977.971 587.527 975.652 585.491C983.317 594.981 995.947 595.712 1007.21 595.789C1005.24 597.995 1002.82 599.677 1000.21 600.676C1002.15 601.533 1004.09 602.385 1006.03 603.242C1003.41 603.717 1000.79 604.187 998.171 604.662C999.81 605.765 1001.44 606.873 1003.08 607.976C993.666 610.914 983.474 610.493 974.265 606.78C976.522 609.489 979.135 611.804 981.991 613.628C978.874 614.638 975.334 613.726 972.887 611.291C979.672 621.758 989.038 632.247 998.727 639.062C995.334 639.93 991.69 639.428 988.572 637.659C989.537 640.067 990.763 642.338 992.212 644.402C989.413 643.911 986.8 642.174 985.028 639.641C985.127 641.224 985.227 642.813 985.327 644.397C983.018 643.703 980.856 642.387 979.05 640.591C991.157 659.489 1010.88 671.66 1031.28 672.829C1029.36 674.21 1028.31 674.942 1026.13 675.652C1028.81 675.313 1031.56 675.925 1033.93 677.388C1031.28 678.895 1028.15 679.25 1025.29 678.371C1029.03 681.751 1033.55 683.962 1038.26 684.716C1032.72 686.414 1026.63 685.622 1021.56 682.537C1024.56 689.504 1029.53 695.325 1035.53 698.902C1024.42 699.333 1013.93 693.507 1003.96 687.812C1005.26 690.809 1007.07 693.523 1009.25 695.746C1005.52 695.664 1001.82 694.26 998.77 691.781C999.383 693.054 999.991 694.331 1000.6 695.604C991.148 693.884 982.148 688.991 974.997 681.685C974.859 684.028 975.681 686.425 977.173 688.025C972.564 687.637 968.135 684.94 965.27 680.773C978.936 709.429 1003.71 732.898 1031.37 740.498C1026.46 741.918 1022.12 742.923 1017.41 740.799C1021.62 747.1 1027.82 751.605 1034.57 753.281C1031.2 753.958 1027.68 753.674 1024.42 752.451C1024.85 754.302 1025.95 755.935 1027.41 756.858C1024.7 756.639 1022.07 755.263 1020.16 753.046C1020.11 754.521 1020.43 756.006 1021.09 757.273C1016 756.656 1011.07 754.384 1007.01 750.791C1008.22 754.045 1009.88 757.076 1011.92 759.719C1006.2 757.846 1000.68 755.187 995.501 751.807C996.327 754.504 997.534 757.054 999.055 759.32C995.724 758.266 992.545 756.563 989.699 754.308C989.494 757.065 990.017 759.894 991.186 762.318C987.964 761.384 984.895 759.746 982.191 757.518C981.972 759.014 982.12 760.582 982.604 761.99C976.921 759.014 971.803 754.624 967.698 749.219C968.206 756.088 970.901 762.711 975.163 767.56C972.502 766.058 969.841 764.557 967.18 763.055C967.978 764.857 968.777 766.653 969.575 768.455C963.678 766.588 958.28 762.673 954.274 757.355C954.326 760.871 955.7 764.338 957.976 766.692C952.972 764.824 948.396 761.548 944.633 757.327C944.524 765.206 944.457 773.069 944.409 780.927C945.631 783.946 946.771 786.939 948.377 789.794C950.278 793.174 952.421 796.363 954.559 799.546C954.227 799.65 953.847 799.497 953.638 799.181C953.642 799.426 953.647 799.678 953.652 799.923C950.886 796.822 948.339 793.464 946.049 789.887C945.422 788.904 944.851 787.878 944.352 786.802C944.229 813.776 944.372 840.695 944.395 867.839C944.519 867.964 944.652 868.161 944.861 868.418C945.911 869.706 946.833 871.082 947.978 872.273C948.121 872.425 948.277 872.595 948.296 872.819C948.32 873.043 948.111 873.288 947.94 873.179C947.931 873.365 947.916 873.55 947.907 873.731C947.812 873.747 947.712 873.714 947.645 873.638C947.622 873.845 947.593 874.047 947.569 874.255C946.462 873.408 945.412 872.48 944.39 871.503C944.395 883.772 944.381 896.08 944.286 908.475C943.825 908.922 944.386 909.119 943.806 908.939C940.38 907.847 935.752 907.219 932.369 908.475C932.511 889.402 932.487 870.536 932.445 851.731C931.399 852.37 930.354 853.014 929.304 853.653C928.691 854.03 928.063 854.412 927.579 854.991C927.431 854.761 927.156 854.647 926.913 854.723C926.761 854.445 926.609 854.161 926.457 853.882C926.41 853.795 926.362 853.702 926.386 853.604C926.4 853.527 926.457 853.473 926.51 853.418C928.144 851.845 929.731 850.076 931.466 848.646C931.86 848.318 932.169 848.171 932.435 848.111C932.359 817.473 932.278 786.993 932.725 756.339C932.297 758.692 931.409 760.931 930.097 762.804C929.18 763.044 928.315 761.641 928.819 760.729C925.227 767.047 919.239 771.491 912.753 772.654C913.898 769.007 915.044 765.359 916.189 761.717C913.276 766.692 908.244 769.941 903.031 770.203C904.295 768.292 905.564 766.38 906.828 764.469C897.015 771.655 885.103 774.98 873.518 773.763C874.15 772.343 875.257 771.262 876.526 770.612C873.138 771.398 869.522 770.902 866.461 769.04C867.892 767.696 869.522 766.626 871.256 765.889C868.524 766.44 865.649 766.009 863.13 764.671C865.445 762.788 868.068 761.406 870.824 760.631C868.063 760.909 864.143 759.954 864.413 756.787C866.39 756.344 867.816 755.793 869.826 755.635C879.553 754.854 887.445 746.581 894.069 738.358C896.764 735.016 899.52 731.276 899.914 726.738C897.11 730.113 892.15 727.525 888.177 728.519C889.318 727.334 890.192 725.816 890.696 724.145C888.861 725.319 886.766 725.952 884.67 725.958C885.953 724.451 886.937 722.605 887.517 720.601C884.794 722.021 880.142 723.528 877.167 723.855C894.825 713.393 908.69 694.774 914.958 673.113C912.924 676.4 909.55 678.546 906.044 678.78C906.053 676.312 906.49 673.85 907.327 671.578C905.683 673.68 903.668 675.4 901.449 676.613C901.905 674.33 902.057 671.971 901.9 669.634C896.854 678.338 888.971 684.819 880.17 687.495C880.474 686.064 880.779 684.634 881.083 683.198C879.153 684.35 877.219 685.507 875.29 686.66C876.678 684.235 878.065 681.811 879.453 679.386C877.172 681.194 874.112 681.625 871.522 680.495C887.132 665.79 898.959 645.844 905.155 623.773C902.884 625.127 900.337 625.859 897.78 625.903C900.261 623.533 902.095 620.273 902.96 616.696C899.491 621.332 893.822 623.658 888.581 622.593C889.484 621.654 890.063 620.311 890.173 618.919C887.379 620.508 884.086 620.906 881.064 620.022C882.38 618.902 883.335 617.231 883.706 615.397C882.218 617.253 879.781 618.018 877.676 617.292C880.284 615.921 882.465 613.502 883.753 610.559C881.278 613.606 877.718 614.611 874.093 614.774C886.538 599.9 894.597 583.956 898.902 563.922C896.065 569.29 891.332 573.292 886.025 574.805C887.003 573.068 887.555 571.021 887.602 568.957C885.212 573.352 881.41 576.71 877.101 578.234C876.839 576.978 876.583 575.722 876.321 574.461C873.114 578.059 870.182 581.974 867.554 586.14C868.685 583.634 869.303 580.811 869.151 577.988C864.295 587.478 855.95 594.522 846.623 597.017C849.797 594.582 852.292 591.005 853.674 586.916C850.785 588.445 847.782 589.695 844.713 590.645C847.032 589.608 848.88 587.281 849.569 584.535C845.245 586.976 839.799 587.811 835 587.511Z" fill="#2E2865"/>
<path d="M629.558 791.277C629.078 792.341 628.515 793.357 627.786 794.217C628.352 793.223 628.949 792.246 629.558 791.277Z" fill="#2E2865"/>
<path d="M722.047 792.993C722.252 792.98 722.459 793.006 722.663 792.976C722.471 793.102 722.252 793.075 722.047 792.993Z" fill="#2E2865"/>
<path d="M603.675 792.363C621.263 786.209 634.625 769.564 644.383 751.664C645.638 749.362 645.743 747.274 645.626 744.564C644.84 746.561 643.461 748.246 641.768 749.258C641.639 748.225 641.624 747.174 641.719 746.136C639.92 750.834 635.589 754.096 631.122 754.117C634.928 749.805 638.193 744.863 640.789 739.492C639.206 739.848 637.573 739.908 635.975 739.67C636.194 738.119 637.354 737.008 638.405 736C644.882 729.786 650.116 721.869 653.589 713.032C652.372 714.574 650.921 715.868 649.319 716.841C649.545 715.837 649.776 714.834 650.006 713.831C648.635 714.682 647.032 715.021 645.487 714.791C645.589 713.844 645.691 712.897 645.789 711.951C643.548 713.618 640.729 714.231 638.11 713.618C640.494 711.985 642.595 709.801 644.243 707.23C642.467 708.398 640.419 709.015 638.371 708.998C638.469 708.095 638.563 707.196 638.661 706.297C636.266 707.547 633.496 707.495 630.899 706.974C642.082 700.078 649.764 688.553 653.842 674.739C652.149 677.9 649.424 680.319 646.333 681.4C646.643 680.445 646.741 679.403 646.617 678.395C644.425 680.384 641.639 681.5 638.881 682.008C650.218 670.609 657.829 654.424 659.919 637.284C659.269 638.378 658.15 639.09 656.994 639.143C659.507 634.318 660.006 628.924 659.601 623.322C658.925 624.847 657.481 625.884 655.992 625.915C657.417 624.299 658.23 621.993 658.184 619.696C655.679 622.68 652.64 625.077 649.315 626.688C649.398 623.231 654.269 621.477 653.699 618.081C652.38 619.557 650.721 620.621 648.937 621.142C651.121 618.728 653.494 615.714 653.011 612.275C650.883 616.192 647.947 619.093 644.137 620.569C648.755 615.219 650.157 607.368 652.308 600.25C654.45 593.159 657.515 586.441 661.378 580.383C659.401 581.269 657.119 581.212 655.176 580.226C660.966 570.151 665.41 559.056 668.308 547.448C666.74 548.217 664.979 548.451 663.297 548.121C667.587 542.511 669.559 534.651 668.52 527.277C667.11 529.765 664.885 531.632 662.394 532.419C665.485 529.122 667.896 524.993 669.378 520.455C665.455 526.487 659.428 530.651 652.954 531.806C657.103 523.086 660.55 513.919 663.229 504.47C661.971 504.352 660.716 504.235 659.458 504.113C661.4 499.211 663.694 494.49 666.306 490.013C665.387 489.405 664.219 489.322 663.241 489.791C666.581 483.851 668.94 477.185 670.145 470.245C669.178 470.219 668.222 469.807 667.481 469.095C670.689 463.015 673.123 456.392 674.676 449.509C673.822 450.799 672.163 451.281 670.874 450.621C673.954 442.896 675.164 435.947 675.629 427.471C678.327 436.416 681.025 445.362 683.723 454.304C683.92 454.959 684.105 455.737 683.757 456.301C683.557 456.627 683.145 456.64 682.85 456.488C684.763 460.244 686.675 463.996 688.587 467.753C687.911 467.123 687.23 466.489 686.554 465.859C688.878 471.327 691.202 476.798 693.526 482.266C688.334 478.336 684.026 472.877 681.127 466.558C682.945 478.336 687.227 489.596 693.507 499.132C692.317 498.542 691.13 497.951 689.94 497.361C692.223 502.046 695.136 506.324 698.541 510.002C694.309 507.527 690.499 504.096 687.397 499.966C688.95 507.314 691.618 514.353 695.242 520.663C692.857 519.378 690.764 517.393 689.214 514.948C690.855 524.65 693.919 534.434 698.447 542.841C696.504 541.846 694.679 540.539 693.043 538.976C694.263 541.286 695.48 543.601 696.701 545.911C695.884 545.512 695.072 545.116 694.256 544.717C700.582 562.53 709.946 578.667 719.247 594.67C715.702 592.512 712.766 589.068 710.963 584.951C710.937 586.202 710.91 587.452 710.887 588.703C709.032 586.371 707.392 583.809 706.012 581.078C706.481 582.037 704.746 582.107 704.062 581.338C702.43 579.501 700.99 577.43 699.792 575.193C699.754 576.353 699.72 577.517 699.682 578.676C696.134 577.304 693.13 574.181 691.591 570.26C694.951 578.172 698.22 586.15 701.58 594.066C700.506 593.51 699.437 592.959 698.364 592.403C701.689 599.955 705.015 607.507 708.344 615.063C708.688 615.849 709.039 616.795 708.673 617.568C708.442 618.059 707.811 618.137 707.426 617.916C713.877 633.046 723.166 646.564 734.495 657.256C732.655 657.529 730.731 656.982 729.212 655.757C730.263 657.108 731.313 658.458 732.368 659.809C729.239 658.015 726.253 655.905 723.449 653.503C725.365 657.963 728.192 661.902 731.631 664.92C729.152 664.742 726.711 663.93 724.538 662.554C724.458 664.364 724.976 666.206 725.966 667.617C721.696 664.807 717.788 661.277 714.402 657.169C714.126 658.932 714.296 660.782 714.893 662.441C710.355 659.896 706.353 656.1 703.31 651.471C703.307 653.234 703.303 654.997 703.299 656.76C701.859 654.945 700.416 653.13 698.976 651.315C702.948 662.445 707.486 673.484 712.981 683.724C718.476 693.964 725.592 703.3 734.635 709.358C732.379 709.645 730.036 708.807 728.32 707.1C730.765 710.713 733.751 713.844 737.103 716.319C732.632 715.546 728.43 712.845 725.524 708.863C725.63 710.261 726.064 711.625 726.763 712.78C723.476 710.943 720.52 708.32 718.143 705.128C718.306 707.882 718.468 710.635 718.631 713.388C716.851 711.351 715.245 709.119 713.835 706.727C714.353 707.443 713.522 708.581 712.717 708.503C711.908 708.424 711.299 707.656 710.778 706.944C708.858 704.329 706.938 701.719 705.018 699.105C714.561 727.119 734.254 749.484 757.948 762.282C756.399 762.199 754.85 762.116 753.3 762.034C754.955 764.171 757.038 765.873 759.343 766.963C755.36 768.457 750.655 766.928 747.941 763.263C749.959 767.706 752.495 771.84 755.458 775.518C751.286 772.309 747.579 768.296 744.548 763.697C745.217 766.793 746.649 769.668 748.633 771.9C743.505 769.121 738.751 765.43 734.597 760.996C736.015 764.449 738.274 767.436 741.048 769.538C734.507 765.578 728.793 759.832 724.507 752.91C725.12 757.896 727.198 762.629 730.327 766.16C723.884 760.714 718.2 754.083 713.559 746.596C713.491 749.723 714.296 752.871 715.831 755.455C712.286 753.514 709.051 750.83 706.334 747.569C706.942 750.47 708.178 753.197 709.897 755.433C707.35 754.569 705.015 752.893 703.224 750.643C703.239 752.107 703.25 753.57 703.265 755.034C701.504 754.586 699.886 753.427 698.764 751.803C702.381 759.02 706.976 766.129 712.554 771.444C711.515 771.722 710.366 771.405 709.546 770.615C709.882 772.165 710.578 773.611 711.541 774.767C707.913 773.273 704.421 771.331 701.149 768.995C707.577 779.014 716.594 786.809 726.756 791.125C725.161 792.172 723.211 792.48 721.431 791.972C721.359 792.437 721.681 792.84 722.058 792.992C719.742 793.149 717.38 792.376 715.536 790.756C721.631 798.304 731.676 798.885 740.633 798.946C739.064 800.701 737.145 802.038 735.066 802.833C736.608 803.515 738.154 804.192 739.695 804.874C737.613 805.252 735.531 805.625 733.445 806.003C734.749 806.88 736.049 807.762 737.352 808.639C729.862 810.975 721.756 810.641 714.432 807.688C716.227 809.842 718.306 811.683 720.577 813.133C718.098 813.937 715.283 813.212 713.336 811.275C718.733 819.6 726.181 827.942 733.887 833.361C731.189 834.052 728.29 833.652 725.811 832.245C726.578 834.16 727.553 835.967 728.706 837.608C726.48 837.218 724.401 835.837 722.992 833.822C723.071 835.081 723.151 836.345 723.23 837.604C721.393 837.053 719.674 836.006 718.238 834.577C727.867 849.607 743.55 859.287 759.774 860.216C758.247 861.315 757.412 861.897 755.681 862.461C757.809 862.192 760 862.678 761.886 863.842C759.778 865.041 757.287 865.323 755.016 864.624C757.986 867.312 761.584 869.071 765.325 869.67C760.919 871.02 756.078 870.391 752.049 867.937C754.43 873.478 758.383 878.108 763.16 880.952C754.317 881.295 745.976 876.661 738.052 872.132C739.083 874.516 740.523 876.675 742.258 878.442C739.291 878.377 736.343 877.261 733.921 875.289C734.409 876.301 734.892 877.317 735.38 878.329C727.859 876.961 720.702 873.07 715.014 867.26C714.905 869.123 715.558 871.029 716.745 872.302C713.079 871.993 709.557 869.848 707.278 866.535C718.147 889.325 737.851 907.989 759.846 914.034C755.942 915.163 752.488 915.962 748.743 914.273C752.091 919.284 757.023 922.867 762.396 924.2C759.71 924.739 756.913 924.513 754.321 923.54C754.661 925.012 755.541 926.311 756.701 927.045C754.547 926.871 752.454 925.776 750.931 924.013C750.889 925.186 751.15 926.367 751.671 927.375C747.624 926.884 743.701 925.077 740.478 922.22C741.434 924.808 742.76 927.218 744.382 929.32C739.832 927.83 735.436 925.716 731.321 923.028C731.979 925.173 732.938 927.201 734.148 929.003C731.499 928.165 728.97 926.81 726.707 925.016C726.544 927.209 726.96 929.459 727.89 931.387C725.327 930.645 722.886 929.342 720.736 927.57C720.562 928.76 720.679 930.006 721.065 931.127C716.545 928.76 712.475 925.268 709.21 920.969C709.614 926.432 711.757 931.7 715.147 935.556C713.03 934.362 710.914 933.168 708.798 931.973C709.432 933.406 710.067 934.835 710.702 936.268C706.012 934.783 701.719 931.669 698.534 927.44C698.575 930.236 699.667 932.994 701.478 934.866C697.498 933.38 693.859 930.775 690.866 927.418C690.779 933.684 690.726 939.938 690.688 946.187C691.659 948.588 692.566 950.968 693.844 953.239C695.355 955.927 697.06 958.463 698.76 960.995C698.496 961.078 698.194 960.956 698.027 960.704C698.031 960.899 698.035 961.099 698.039 961.295C695.839 958.828 693.814 956.157 691.992 953.313C691.493 952.531 691.04 951.715 690.643 950.859C690.545 972.312 690.658 993.721 690.677 1015.31C690.775 1015.41 690.881 1015.56 691.047 1015.77C691.882 1016.79 692.616 1017.89 693.526 1018.83C693.64 1018.96 693.764 1019.09 693.779 1019.27C693.798 1019.45 693.632 1019.64 693.496 1019.56C693.489 1019.7 693.477 1019.85 693.47 1019.99C693.394 1020.01 693.315 1019.98 693.262 1019.92C693.243 1020.08 693.22 1020.25 693.201 1020.41C692.321 1019.74 691.486 1019 690.673 1018.22C690.677 1027.98 690.666 1037.77 690.59 1047.63C690.223 1047.98 690.669 1048.14 690.208 1047.99C687.484 1047.13 683.803 1046.63 681.112 1047.63C681.225 1032.46 681.206 1017.45 681.172 1002.5C680.341 1003.01 679.51 1003.52 678.675 1004.03C678.187 1004.33 677.688 1004.63 677.303 1005.09C677.186 1004.91 676.966 1004.82 676.774 1004.88C676.653 1004.66 676.532 1004.43 676.411 1004.21C676.373 1004.14 676.335 1004.06 676.354 1003.99C676.365 1003.93 676.411 1003.88 676.452 1003.84C677.752 1002.59 679.015 1001.18 680.394 1000.04C680.708 999.783 680.953 999.666 681.165 999.618C681.104 975.252 681.04 951.011 681.395 926.632C681.055 928.504 680.349 930.284 679.306 931.774C678.576 931.965 677.888 930.849 678.289 930.123C675.432 935.148 670.67 938.683 665.512 939.608C666.423 936.707 667.333 933.806 668.244 930.909C665.928 934.865 661.926 937.449 657.78 937.658C658.785 936.138 659.794 934.618 660.799 933.098C652.996 938.813 643.521 941.458 634.308 940.489C634.811 939.36 635.691 938.5 636.7 937.983C634.006 938.609 631.13 938.214 628.696 936.733C629.834 935.665 631.13 934.813 632.509 934.227C630.336 934.666 628.05 934.323 626.047 933.259C627.887 931.761 629.973 930.662 632.165 930.045C629.97 930.267 626.852 929.507 627.067 926.988C628.639 926.636 629.773 926.198 631.372 926.072C639.107 925.451 645.385 918.872 650.653 912.332C652.795 909.674 654.987 906.699 655.301 903.091C653.071 905.774 649.126 903.716 645.967 904.506C646.874 903.564 647.569 902.357 647.969 901.028C646.511 901.962 644.844 902.465 643.178 902.47C644.198 901.271 644.98 899.803 645.441 898.21C643.276 899.339 639.576 900.537 637.21 900.798C651.253 892.477 662.281 877.669 667.265 860.442C665.648 863.056 662.965 864.763 660.176 864.95C660.183 862.987 660.531 861.028 661.196 859.222C659.889 860.894 658.286 862.261 656.522 863.225C656.884 861.41 657.005 859.534 656.881 857.676C652.867 864.598 646.598 869.752 639.599 871.88C639.841 870.743 640.082 869.605 640.324 868.463C638.79 869.379 637.252 870.3 635.718 871.216C636.821 869.288 637.925 867.36 639.028 865.432C637.214 866.869 634.78 867.212 632.721 866.313C645.135 854.618 654.541 838.755 659.469 821.202C657.663 822.279 655.637 822.861 653.604 822.896C655.577 821.011 657.035 818.418 657.723 815.574C654.965 819.261 650.456 821.111 646.288 820.264C647.006 819.517 647.467 818.449 647.554 817.341C645.332 818.605 642.713 818.922 640.309 818.219C641.356 817.329 642.116 816 642.41 814.54C641.228 816.017 639.289 816.625 637.615 816.047C639.689 814.957 641.424 813.034 642.448 810.693C640.479 813.116 637.649 813.915 634.765 814.046C644.663 802.216 651.072 789.536 654.496 773.603C652.24 777.871 648.476 781.055 644.255 782.258C645.033 780.877 645.471 779.248 645.509 777.607C643.608 781.102 640.585 783.773 637.157 784.985C636.95 783.986 636.745 782.987 636.538 781.984C633.987 784.846 631.655 787.959 629.565 791.273C630.465 789.28 630.956 787.034 630.835 784.789C626.973 792.337 620.337 797.939 612.918 799.923C615.443 797.986 617.427 795.142 618.526 791.889C616.229 793.105 613.84 794.1 611.399 794.855C613.243 794.03 614.713 792.18 615.261 789.996C611.822 791.937 607.492 792.602 603.675 792.363Z" fill="#2E2865"/>
<path d="M947.997 616.793C947.533 617.82 946.99 618.802 946.285 619.632C946.833 618.672 947.409 617.728 947.997 616.793Z" fill="#2E2865"/>
<path d="M1037.32 618.449C1037.52 618.437 1037.72 618.462 1037.91 618.433C1037.73 618.554 1037.52 618.529 1037.32 618.449Z" fill="#2E2865"/>
<path d="M923 617.841C939.986 611.898 952.891 595.823 962.314 578.536C963.526 576.313 963.628 574.296 963.515 571.679C962.756 573.608 961.424 575.235 959.789 576.212C959.665 575.214 959.65 574.199 959.741 573.197C958.004 577.735 953.821 580.884 949.508 580.905C953.183 576.741 956.336 571.968 958.843 566.78C957.314 567.124 955.738 567.183 954.194 566.952C954.405 565.455 955.526 564.381 956.54 563.408C962.796 557.407 967.851 549.762 971.205 541.227C970.03 542.716 968.628 543.966 967.081 544.905C967.3 543.936 967.522 542.967 967.745 541.999C966.42 542.821 964.873 543.148 963.38 542.925C963.478 542.011 963.577 541.097 963.672 540.183C961.508 541.793 958.785 542.385 956.256 541.793C958.559 540.216 960.588 538.107 962.179 535.624C960.464 536.752 958.486 537.348 956.508 537.331C956.602 536.459 956.694 535.59 956.789 534.722C954.475 535.93 951.8 535.88 949.292 535.377C960.092 528.717 967.511 517.586 971.449 504.245C969.814 507.298 967.183 509.634 964.197 510.679C964.497 509.756 964.592 508.75 964.471 507.777C962.354 509.697 959.665 510.775 957 511.266C967.949 500.257 975.3 484.626 977.318 468.073C976.69 469.13 975.61 469.818 974.493 469.868C976.92 465.209 977.402 460 977.011 454.59C976.358 456.062 974.964 457.064 973.526 457.093C974.902 455.533 975.687 453.306 975.643 451.088C973.223 453.969 970.289 456.284 967.077 457.84C967.157 454.502 971.862 452.807 971.311 449.528C970.037 450.954 968.435 451.981 966.712 452.484C968.822 450.152 971.114 447.242 970.646 443.92C968.592 447.703 965.756 450.505 962.077 451.931C966.537 446.764 967.891 439.181 969.968 432.307C972.037 425.459 974.997 418.971 978.727 413.121C976.818 413.976 974.614 413.921 972.738 412.969C978.329 403.24 982.621 392.524 985.42 381.314C983.906 382.056 982.205 382.283 980.581 381.964C984.723 376.546 986.628 368.955 985.625 361.833C984.263 364.237 982.114 366.04 979.709 366.799C982.694 363.616 985.022 359.627 986.453 355.245C982.665 361.07 976.844 365.092 970.592 366.208C974.599 357.786 977.928 348.933 980.515 339.807C979.3 339.694 978.088 339.581 976.873 339.463C978.749 334.728 980.964 330.17 983.486 325.846C982.599 325.259 981.471 325.179 980.526 325.632C983.752 319.895 986.03 313.457 987.194 306.755C986.26 306.73 985.336 306.331 984.621 305.644C987.72 299.772 990.07 293.377 991.57 286.729C990.745 287.975 989.143 288.44 987.898 287.803C990.873 280.342 992.041 273.632 992.49 265.445C995.096 274.085 997.701 282.724 1000.31 291.359C1000.5 291.993 1000.68 292.743 1000.34 293.289C1000.15 293.603 999.749 293.616 999.464 293.469C1001.31 297.097 1003.16 300.72 1005 304.348C1004.35 303.74 1003.69 303.127 1003.04 302.519C1005.29 307.799 1007.53 313.084 1009.77 318.364C1004.76 314.568 1000.6 309.297 997.8 303.194C999.555 314.568 1003.69 325.443 1009.76 334.653C1008.61 334.082 1007.46 333.512 1006.31 332.942C1008.52 337.467 1011.33 341.598 1014.62 345.15C1010.53 342.76 1006.85 339.446 1003.85 335.458C1005.35 342.554 1007.93 349.352 1011.43 355.446C1009.13 354.205 1007.11 352.288 1005.61 349.927C1007.19 359.296 1010.15 368.745 1014.53 376.864C1012.65 375.904 1010.89 374.642 1009.31 373.132C1010.49 375.363 1011.66 377.598 1012.84 379.829C1012.05 379.444 1011.27 379.062 1010.48 378.676C1016.59 395.879 1025.63 411.464 1034.61 426.918C1031.19 424.834 1028.35 421.508 1026.61 417.532C1026.59 418.74 1026.56 419.948 1026.54 421.156C1024.75 418.904 1023.17 416.43 1021.83 413.792C1022.29 414.718 1020.61 414.785 1019.95 414.043C1018.37 412.269 1016.98 410.269 1015.83 408.109C1015.79 409.229 1015.76 410.353 1015.72 411.472C1012.29 410.147 1009.39 407.132 1007.91 403.345C1011.15 410.986 1014.31 418.69 1017.55 426.335C1016.52 425.799 1015.48 425.266 1014.45 424.729C1017.66 432.022 1020.87 439.316 1024.08 446.613C1024.42 447.372 1024.76 448.286 1024.4 449.033C1024.18 449.507 1023.57 449.582 1023.2 449.368C1029.43 463.98 1038.4 477.035 1049.34 487.361C1047.56 487.625 1045.71 487.096 1044.24 485.914C1045.25 487.218 1046.27 488.522 1047.29 489.827C1044.26 488.095 1041.38 486.056 1038.67 483.737C1040.52 488.044 1043.25 491.848 1046.57 494.763C1044.18 494.591 1041.82 493.807 1039.72 492.477C1039.65 494.226 1040.15 496.004 1041.1 497.367C1036.98 494.654 1033.21 491.244 1029.94 487.277C1029.67 488.98 1029.83 490.766 1030.41 492.368C1026.03 489.911 1022.16 486.245 1019.22 481.774C1019.22 483.477 1019.22 485.18 1019.21 486.883C1017.82 485.129 1016.43 483.376 1015.04 481.623C1018.87 492.372 1023.26 503.033 1028.56 512.922C1033.87 522.812 1040.74 531.828 1049.48 537.679C1047.3 537.956 1045.03 537.146 1043.38 535.498C1045.74 538.987 1048.62 542.011 1051.86 544.402C1047.54 543.655 1043.48 541.047 1040.68 537.201C1040.78 538.551 1041.2 539.868 1041.87 540.984C1038.7 539.21 1035.84 536.677 1033.55 533.594C1033.71 536.253 1033.86 538.912 1034.02 541.571C1032.3 539.604 1030.75 537.448 1029.39 535.137C1029.89 535.829 1029.08 536.928 1028.31 536.853C1027.53 536.777 1026.94 536.035 1026.44 535.347C1024.58 532.822 1022.73 530.302 1020.87 527.777C1030.09 554.832 1049.11 576.43 1071.99 588.79C1070.49 588.71 1069 588.63 1067.5 588.551C1069.1 590.614 1071.11 592.258 1073.34 593.311C1069.49 594.754 1064.95 593.277 1062.33 589.738C1064.27 594.028 1066.72 598.021 1069.59 601.573C1065.56 598.474 1061.98 594.598 1059.05 590.157C1059.69 593.147 1061.08 595.924 1062.99 598.079C1058.04 595.395 1053.45 591.83 1049.44 587.549C1050.81 590.883 1052.99 593.768 1055.67 595.798C1049.35 591.973 1043.83 586.425 1039.69 579.739C1040.29 584.554 1042.29 589.125 1045.31 592.535C1039.09 587.276 1033.6 580.872 1029.12 573.642C1029.06 576.661 1029.83 579.702 1031.31 582.197C1027.89 580.322 1024.77 577.731 1022.14 574.581C1022.73 577.382 1023.92 580.016 1025.58 582.176C1023.12 581.342 1020.87 579.723 1019.14 577.55C1019.15 578.964 1019.17 580.377 1019.18 581.79C1017.48 581.358 1015.92 580.239 1014.83 578.67C1018.33 585.64 1022.76 592.506 1028.15 597.639C1027.15 597.907 1026.04 597.601 1025.25 596.838C1025.57 598.335 1026.24 599.732 1027.17 600.847C1023.67 599.405 1020.3 597.53 1017.14 595.274C1023.34 604.949 1032.05 612.477 1041.87 616.646C1040.33 617.656 1038.44 617.954 1036.72 617.463C1036.65 617.912 1036.96 618.302 1037.33 618.449C1035.09 618.6 1032.81 617.854 1031.03 616.289C1036.92 623.578 1046.62 624.14 1055.27 624.199C1053.75 625.893 1051.9 627.185 1049.89 627.952C1051.38 628.611 1052.87 629.265 1054.36 629.924C1052.35 630.288 1050.34 630.649 1048.33 631.014C1049.59 631.861 1050.84 632.712 1052.1 633.56C1044.87 635.816 1037.04 635.493 1029.96 632.641C1031.7 634.721 1033.71 636.499 1035.9 637.9C1033.5 638.676 1030.79 637.976 1028.91 636.105C1034.12 644.145 1041.31 652.201 1048.75 657.435C1046.15 658.102 1043.35 657.716 1040.95 656.358C1041.69 658.207 1042.64 659.952 1043.75 661.537C1041.6 661.16 1039.59 659.826 1038.23 657.88C1038.31 659.096 1038.38 660.317 1038.46 661.533C1036.69 661 1035.03 659.99 1033.64 658.61C1042.94 673.125 1058.09 682.473 1073.75 683.37C1072.28 684.431 1071.47 684.993 1069.8 685.539C1071.86 685.279 1073.97 685.748 1075.79 686.872C1073.76 688.03 1071.35 688.302 1069.16 687.627C1072.03 690.223 1075.5 691.922 1079.11 692.501C1074.86 693.805 1070.18 693.197 1066.29 690.827C1068.59 696.178 1072.41 700.649 1077.02 703.396C1068.48 703.728 1060.43 699.253 1052.77 694.878C1053.77 697.181 1055.16 699.265 1056.84 700.972C1053.97 700.909 1051.13 699.831 1048.79 697.927C1049.26 698.905 1049.72 699.886 1050.19 700.863C1042.93 699.542 1036.02 695.784 1030.53 690.173C1030.42 691.972 1031.05 693.813 1032.2 695.042C1028.66 694.744 1025.26 692.672 1023.06 689.472C1033.55 711.482 1052.58 729.507 1073.82 735.345C1070.05 736.436 1066.72 737.207 1063.1 735.576C1066.33 740.416 1071.1 743.876 1076.29 745.163C1073.69 745.683 1070.99 745.465 1068.49 744.526C1068.82 745.947 1069.67 747.201 1070.79 747.91C1068.71 747.742 1066.68 746.686 1065.21 744.983C1065.17 746.115 1065.42 747.256 1065.93 748.229C1062.02 747.755 1058.23 746.01 1055.12 743.251C1056.04 745.75 1057.32 748.078 1058.89 750.108C1054.49 748.669 1050.25 746.627 1046.27 744.031C1046.91 746.103 1047.84 748.061 1049 749.802C1046.45 748.992 1044 747.684 1041.82 745.952C1041.66 748.07 1042.06 750.242 1042.96 752.104C1040.49 751.387 1038.13 750.129 1036.05 748.418C1035.88 749.567 1036 750.77 1036.37 751.852C1032 749.567 1028.07 746.195 1024.92 742.043C1025.31 747.319 1027.38 752.406 1030.65 756.13C1028.61 754.977 1026.57 753.823 1024.52 752.67C1025.14 754.054 1025.75 755.434 1026.36 756.818C1021.83 755.384 1017.69 752.377 1014.61 748.292C1014.65 750.993 1015.71 753.656 1017.45 755.463C1013.61 754.029 1010.1 751.513 1007.21 748.271C1007.12 754.323 1007.07 760.362 1007.03 766.397C1007.97 768.716 1008.85 771.014 1010.08 773.208C1011.54 775.804 1013.19 778.253 1014.83 780.698C1014.57 780.778 1014.28 780.66 1014.12 780.417C1014.12 780.606 1014.13 780.799 1014.13 780.987C1012.01 778.605 1010.05 776.026 1008.29 773.279C1007.81 772.524 1007.37 771.736 1006.99 770.909C1006.89 791.627 1007 812.303 1007.02 833.151C1007.12 833.247 1007.22 833.398 1007.38 833.596C1008.19 834.585 1008.89 835.642 1009.77 836.556C1009.88 836.674 1010 836.804 1010.02 836.976C1010.04 837.148 1009.88 837.336 1009.75 837.252C1009.74 837.395 1009.73 837.538 1009.72 837.676C1009.65 837.689 1009.57 837.664 1009.52 837.605C1009.5 837.764 1009.48 837.919 1009.46 838.079C1008.61 837.429 1007.8 836.716 1007.02 835.965C1007.02 845.389 1007.01 854.842 1006.94 864.362C1006.58 864.706 1007.02 864.857 1006.57 864.718C1003.94 863.88 1000.38 863.397 997.785 864.362C997.895 849.713 997.877 835.223 997.844 820.779C997.041 821.27 996.238 821.765 995.431 822.255C994.961 822.545 994.479 822.838 994.106 823.283C993.993 823.107 993.782 823.019 993.595 823.077C993.479 822.863 993.362 822.645 993.245 822.431C993.209 822.364 993.172 822.293 993.19 822.217C993.201 822.159 993.245 822.117 993.285 822.075C994.541 820.867 995.76 819.508 997.092 818.409C997.395 818.158 997.632 818.044 997.836 817.998C997.778 794.466 997.716 771.056 998.059 747.512C997.731 749.319 997.048 751.039 996.041 752.477C995.336 752.662 994.672 751.584 995.059 750.884C992.3 755.736 987.701 759.15 982.72 760.043C983.599 757.241 984.479 754.44 985.358 751.643C983.121 755.463 979.256 757.959 975.252 758.16C976.223 756.692 977.198 755.224 978.168 753.756C970.632 759.276 961.482 761.83 952.584 760.894C953.07 759.804 953.92 758.974 954.894 758.475C952.292 759.078 949.515 758.697 947.164 757.267C948.263 756.235 949.515 755.413 950.847 754.847C948.748 755.27 946.54 754.939 944.606 753.912C946.383 752.465 948.398 751.404 950.515 750.808C948.394 751.022 945.383 750.288 945.591 747.856C947.11 747.516 948.205 747.092 949.748 746.971C957.219 746.371 963.281 740.017 968.369 733.701C970.438 731.135 972.555 728.262 972.858 724.777C970.705 727.368 966.895 725.381 963.843 726.144C964.719 725.234 965.391 724.068 965.778 722.785C964.369 723.686 962.759 724.173 961.15 724.177C962.135 723.019 962.891 721.602 963.336 720.063C961.245 721.153 957.672 722.311 955.387 722.562C968.949 714.527 979.599 700.226 984.413 683.589C982.851 686.113 980.26 687.761 977.566 687.942C977.573 686.046 977.909 684.155 978.552 682.41C977.289 684.025 975.741 685.346 974.037 686.277C974.387 684.524 974.504 682.712 974.384 680.917C970.508 687.602 964.453 692.58 957.694 694.635C957.927 693.536 958.161 692.438 958.394 691.335C956.913 692.219 955.427 693.109 953.946 693.993C955.011 692.131 956.077 690.269 957.143 688.407C955.391 689.795 953.04 690.127 951.051 689.259C963.041 677.964 972.125 662.644 976.884 645.692C975.139 646.733 973.183 647.295 971.219 647.328C973.125 645.508 974.533 643.004 975.198 640.257C972.533 643.818 968.179 645.604 964.154 644.787C964.847 644.065 965.292 643.034 965.376 641.964C963.23 643.185 960.701 643.491 958.38 642.811C959.391 641.952 960.124 640.668 960.409 639.259C959.267 640.685 957.394 641.272 955.778 640.714C957.781 639.662 959.457 637.804 960.446 635.543C958.544 637.884 955.81 638.655 953.026 638.781C962.584 627.357 968.774 615.111 972.081 599.723C969.902 603.846 966.267 606.92 962.19 608.082C962.942 606.748 963.365 605.175 963.402 603.59C961.566 606.966 958.646 609.545 955.336 610.715C955.135 609.751 954.938 608.786 954.737 607.817C952.274 610.581 950.022 613.588 948.004 616.788C948.872 614.863 949.347 612.695 949.23 610.527C945.5 617.816 939.091 623.226 931.927 625.142C934.365 623.272 936.281 620.525 937.343 617.384C935.124 618.558 932.818 619.519 930.46 620.248C932.241 619.451 933.661 617.665 934.19 615.555C930.869 617.43 926.686 618.072 923 617.841Z" fill="#2E2865"/>
<path d="M1065.71 570.511C1065.26 571.521 1064.72 572.485 1064.03 573.301C1064.57 572.357 1065.14 571.43 1065.71 570.511Z" fill="#2E2865"/>
<path d="M1153.5 572.139C1153.69 572.126 1153.89 572.151 1154.08 572.122C1153.9 572.242 1153.69 572.217 1153.5 572.139Z" fill="#2E2865"/>
<path d="M1041.15 571.541C1057.84 565.701 1070.52 549.903 1079.78 532.914C1080.98 530.73 1081.08 528.748 1080.96 526.176C1080.22 528.072 1078.91 529.671 1077.3 530.631C1077.18 529.65 1077.17 528.653 1077.26 527.668C1075.55 532.127 1071.44 535.222 1067.2 535.243C1070.81 531.15 1073.91 526.46 1076.37 521.362C1074.87 521.7 1073.32 521.757 1071.8 521.531C1072.01 520.059 1073.11 519.004 1074.11 518.048C1080.26 512.15 1085.23 504.637 1088.52 496.249C1087.37 497.712 1085.99 498.941 1084.47 499.864C1084.68 498.912 1084.9 497.96 1085.12 497.008C1083.82 497.815 1082.3 498.137 1080.83 497.919C1080.93 497.02 1081.03 496.122 1081.12 495.223C1078.99 496.806 1076.32 497.387 1073.83 496.806C1076.09 495.256 1078.09 493.183 1079.65 490.743C1077.97 491.852 1076.02 492.437 1074.08 492.42C1074.17 491.563 1074.26 490.71 1074.35 489.857C1072.08 491.044 1069.45 490.994 1066.99 490.5C1077.6 483.955 1084.89 473.016 1088.76 459.906C1087.16 462.906 1084.57 465.202 1081.64 466.228C1081.93 465.321 1082.02 464.332 1081.9 463.376C1079.82 465.264 1077.18 466.323 1074.56 466.805C1085.32 455.986 1092.55 440.625 1094.53 424.358C1093.91 425.396 1092.85 426.072 1091.75 426.122C1094.14 421.543 1094.61 416.424 1094.23 411.107C1093.59 412.554 1092.22 413.539 1090.8 413.568C1092.16 412.034 1092.93 409.846 1092.88 407.665C1090.51 410.497 1087.62 412.772 1084.47 414.301C1084.54 411.02 1089.17 409.355 1088.63 406.132C1087.37 407.534 1085.8 408.543 1084.11 409.038C1086.18 406.746 1088.43 403.886 1087.97 400.622C1085.95 404.339 1083.17 407.093 1079.55 408.494C1083.93 403.416 1085.27 395.965 1087.31 389.209C1089.34 382.479 1092.25 376.103 1095.91 370.353C1094.04 371.194 1091.87 371.141 1090.03 370.205C1095.52 360.643 1099.74 350.113 1102.49 339.096C1101 339.825 1099.33 340.048 1097.74 339.735C1101.81 334.41 1103.68 326.95 1102.69 319.951C1101.36 322.313 1099.24 324.085 1096.88 324.831C1099.81 321.703 1102.1 317.783 1103.51 313.477C1099.78 319.201 1094.06 323.154 1087.92 324.25C1091.86 315.974 1095.13 307.274 1097.67 298.305C1096.48 298.194 1095.29 298.083 1094.09 297.967C1095.94 293.314 1098.11 288.834 1100.59 284.585C1099.72 284.008 1098.61 283.929 1097.68 284.374C1100.85 278.736 1103.09 272.41 1104.24 265.824C1103.32 265.799 1102.41 265.407 1101.71 264.731C1104.75 258.961 1107.06 252.676 1108.54 246.143C1107.73 247.367 1106.15 247.825 1104.93 247.198C1107.85 239.866 1109 233.272 1109.44 225.227C1112 233.717 1114.56 242.207 1117.12 250.693C1117.31 251.316 1117.48 252.053 1117.15 252.589C1116.96 252.898 1116.57 252.911 1116.29 252.767C1118.11 256.332 1119.92 259.893 1121.74 263.458C1121.1 262.86 1120.45 262.258 1119.81 261.661C1122.01 266.85 1124.22 272.043 1126.43 277.232C1121.5 273.502 1117.41 268.321 1114.66 262.324C1116.38 273.502 1120.45 284.189 1126.41 293.24C1125.28 292.679 1124.15 292.119 1123.02 291.558C1125.19 296.005 1127.95 300.065 1131.19 303.556C1127.17 301.207 1123.55 297.951 1120.61 294.031C1122.08 301.005 1124.61 307.686 1128.05 313.674C1125.79 312.454 1123.8 310.571 1122.33 308.25C1123.89 317.458 1126.8 326.744 1131.1 334.723C1129.25 333.779 1127.52 332.539 1125.97 331.055C1127.13 333.247 1128.28 335.444 1129.44 337.637C1128.66 337.258 1127.89 336.883 1127.12 336.503C1133.12 353.41 1142.01 368.725 1150.84 383.913C1147.47 381.865 1144.69 378.597 1142.98 374.689C1142.95 375.876 1142.93 377.063 1142.9 378.25C1141.14 376.037 1139.59 373.605 1138.28 371.013C1138.72 371.924 1137.08 371.99 1136.43 371.26C1134.88 369.517 1133.51 367.551 1132.37 365.428C1132.34 366.529 1132.3 367.633 1132.27 368.734C1128.9 367.431 1126.05 364.468 1124.59 360.746C1127.78 368.256 1130.88 375.827 1134.07 383.34C1133.05 382.813 1132.04 382.289 1131.02 381.762C1134.17 388.929 1137.33 396.096 1140.49 403.268C1140.82 404.014 1141.15 404.912 1140.8 405.646C1140.58 406.112 1139.98 406.186 1139.62 405.976C1145.74 420.335 1154.56 433.165 1165.31 443.313C1163.56 443.572 1161.74 443.053 1160.3 441.891C1161.29 443.172 1162.29 444.454 1163.29 445.736C1160.32 444.034 1157.49 442.031 1154.83 439.752C1156.64 443.984 1159.33 447.723 1162.59 450.587C1160.24 450.418 1157.92 449.647 1155.86 448.341C1155.78 450.059 1156.27 451.807 1157.21 453.146C1153.16 450.48 1149.45 447.129 1146.24 443.23C1145.98 444.904 1146.14 446.659 1146.71 448.234C1142.4 445.818 1138.6 442.216 1135.71 437.823C1135.71 439.496 1135.71 441.169 1135.7 442.843C1134.33 441.12 1132.96 439.397 1131.6 437.674C1135.37 448.238 1139.68 458.715 1144.89 468.433C1150.11 478.152 1156.86 487.013 1165.44 492.762C1163.3 493.034 1161.08 492.239 1159.45 490.619C1161.77 494.048 1164.6 497.02 1167.78 499.369C1163.54 498.636 1159.55 496.072 1156.79 492.293C1156.9 493.62 1157.31 494.914 1157.97 496.01C1154.85 494.267 1152.05 491.777 1149.79 488.748C1149.94 491.361 1150.1 493.974 1150.25 496.587C1148.56 494.654 1147.04 492.536 1145.7 490.265C1146.19 490.945 1145.4 492.025 1144.64 491.951C1143.87 491.876 1143.29 491.147 1142.8 490.471C1140.98 487.99 1139.16 485.513 1137.33 483.032C1146.39 509.62 1165.08 530.845 1187.57 542.991C1186.1 542.913 1184.63 542.835 1183.16 542.756C1184.73 544.784 1186.7 546.4 1188.89 547.434C1185.11 548.852 1180.65 547.402 1178.07 543.923C1179.99 548.139 1182.39 552.063 1185.2 555.554C1181.25 552.508 1177.73 548.7 1174.85 544.335C1175.49 547.274 1176.84 550.002 1178.73 552.121C1173.86 549.483 1169.35 545.98 1165.41 541.772C1166.75 545.048 1168.9 547.884 1171.53 549.878C1165.32 546.12 1159.9 540.667 1155.83 534.097C1156.41 538.829 1158.38 543.321 1161.35 546.672C1155.24 541.504 1149.84 535.21 1145.44 528.105C1145.37 531.072 1146.14 534.06 1147.59 536.512C1144.23 534.67 1141.16 532.123 1138.58 529.028C1139.16 531.781 1140.33 534.369 1141.96 536.492C1139.55 535.672 1137.33 534.081 1135.63 531.946C1135.64 533.335 1135.65 534.724 1135.67 536.113C1134 535.688 1132.46 534.588 1131.4 533.046C1134.83 539.896 1139.19 546.643 1144.49 551.688C1143.5 551.952 1142.41 551.651 1141.63 550.901C1141.95 552.372 1142.61 553.744 1143.52 554.841C1140.08 553.423 1136.77 551.581 1133.66 549.363C1139.76 558.872 1148.32 566.27 1157.96 570.367C1156.45 571.36 1154.6 571.653 1152.91 571.17C1152.84 571.611 1153.15 571.995 1153.51 572.139C1151.31 572.287 1149.07 571.554 1147.32 570.016C1153.1 577.179 1162.63 577.732 1171.13 577.789C1169.65 579.454 1167.82 580.724 1165.85 581.478C1167.31 582.125 1168.78 582.768 1170.24 583.415C1168.27 583.774 1166.29 584.128 1164.31 584.487C1165.55 585.319 1166.78 586.156 1168.02 586.989C1160.91 589.206 1153.22 588.889 1146.27 586.086C1147.97 588.13 1149.94 589.878 1152.1 591.254C1149.75 592.017 1147.07 591.329 1145.23 589.49C1150.35 597.391 1157.42 605.309 1164.73 610.452C1162.17 611.108 1159.42 610.729 1157.07 609.393C1157.8 611.211 1158.72 612.925 1159.81 614.483C1157.7 614.112 1155.73 612.802 1154.39 610.889C1154.47 612.085 1154.54 613.284 1154.62 614.479C1152.87 613.956 1151.24 612.962 1149.88 611.607C1159.02 625.871 1173.9 635.058 1189.3 635.94C1187.85 636.983 1187.06 637.535 1185.42 638.071C1187.44 637.815 1189.52 638.277 1191.31 639.381C1189.3 640.519 1186.94 640.787 1184.79 640.123C1187.6 642.674 1191.02 644.344 1194.57 644.912C1190.39 646.194 1185.79 645.597 1181.97 643.268C1184.23 648.527 1187.98 652.921 1192.51 655.62C1184.12 655.946 1176.21 651.548 1168.68 647.249C1169.66 649.512 1171.03 651.56 1172.68 653.238C1169.86 653.176 1167.06 652.117 1164.76 650.246C1165.23 651.206 1165.69 652.17 1166.15 653.131C1159.01 651.832 1152.22 648.14 1146.82 642.625C1146.72 644.393 1147.34 646.202 1148.46 647.41C1144.98 647.117 1141.64 645.081 1139.48 641.937C1149.79 663.566 1168.49 681.281 1189.37 687.018C1185.66 688.09 1182.39 688.848 1178.83 687.245C1182.01 692.001 1186.69 695.401 1191.79 696.666C1189.24 697.177 1186.59 696.963 1184.13 696.04C1184.45 697.437 1185.28 698.669 1186.38 699.366C1184.34 699.201 1182.35 698.163 1180.91 696.489C1180.87 697.602 1181.12 698.723 1181.61 699.679C1177.77 699.213 1174.05 697.499 1170.99 694.787C1171.89 697.243 1173.15 699.531 1174.69 701.526C1170.37 700.112 1166.2 698.105 1162.3 695.554C1162.92 697.59 1163.83 699.514 1164.98 701.225C1162.47 700.429 1160.07 699.143 1157.92 697.441C1157.76 699.523 1158.16 701.658 1159.04 703.488C1156.61 702.783 1154.29 701.546 1152.25 699.865C1152.09 700.994 1152.2 702.177 1152.56 703.24C1148.27 700.994 1144.41 697.68 1141.31 693.6C1141.69 698.785 1143.73 703.784 1146.95 707.444C1144.94 706.311 1142.93 705.177 1140.92 704.044C1141.52 705.404 1142.13 706.76 1142.73 708.12C1138.28 706.711 1134.2 703.755 1131.18 699.741C1131.22 702.395 1132.25 705.012 1133.97 706.789C1130.2 705.379 1126.74 702.906 1123.9 699.72C1123.82 705.668 1123.77 711.603 1123.73 717.534C1124.65 719.813 1125.52 722.071 1126.73 724.227C1128.16 726.778 1129.78 729.185 1131.39 731.588C1131.14 731.666 1130.86 731.551 1130.7 731.312C1130.7 731.497 1130.71 731.687 1130.71 731.872C1128.62 729.531 1126.7 726.997 1124.97 724.297C1124.5 723.555 1124.07 722.78 1123.69 721.968C1123.6 742.329 1123.7 762.648 1123.72 783.136C1123.82 783.231 1123.92 783.379 1124.07 783.573C1124.87 784.545 1125.56 785.584 1126.43 786.482C1126.53 786.598 1126.65 786.726 1126.67 786.895C1126.68 787.064 1126.53 787.249 1126.4 787.167C1126.39 787.307 1126.38 787.447 1126.37 787.583C1126.3 787.595 1126.23 787.571 1126.18 787.513C1126.16 787.669 1126.14 787.822 1126.12 787.979C1125.28 787.34 1124.49 786.639 1123.72 785.901C1123.72 795.162 1123.71 804.452 1123.64 813.808C1123.29 814.146 1123.71 814.294 1123.28 814.158C1120.69 813.334 1117.2 812.86 1114.64 813.808C1114.75 799.412 1114.73 785.172 1114.7 770.977C1113.91 771.46 1113.12 771.946 1112.33 772.428C1111.87 772.712 1111.39 773.001 1111.03 773.438C1110.92 773.265 1110.71 773.178 1110.53 773.236C1110.41 773.026 1110.3 772.811 1110.18 772.601C1110.15 772.535 1110.11 772.465 1110.13 772.391C1110.14 772.333 1110.18 772.292 1110.22 772.251C1111.46 771.064 1112.65 769.729 1113.96 768.649C1114.26 768.401 1114.49 768.29 1114.69 768.245C1114.64 745.119 1114.58 722.113 1114.91 698.974C1114.59 700.751 1113.92 702.441 1112.93 703.854C1112.24 704.036 1111.58 702.976 1111.96 702.288C1109.25 707.057 1104.73 710.412 1099.84 711.289C1100.7 708.536 1101.57 705.783 1102.43 703.034C1100.23 706.789 1096.43 709.241 1092.5 709.439C1093.45 707.996 1094.41 706.554 1095.37 705.111C1087.96 710.535 1078.97 713.045 1070.22 712.126C1070.7 711.055 1071.54 710.238 1072.49 709.748C1069.94 710.342 1067.21 709.966 1064.9 708.561C1065.98 707.547 1067.21 706.739 1068.52 706.183C1066.45 706.599 1064.28 706.274 1062.38 705.264C1064.13 703.842 1066.11 702.799 1068.19 702.214C1066.11 702.424 1063.15 701.703 1063.35 699.312C1064.84 698.979 1065.92 698.562 1067.44 698.443C1074.78 697.853 1080.74 691.609 1085.74 685.402C1087.77 682.88 1089.85 680.057 1090.15 676.632C1088.03 679.179 1084.29 677.225 1081.29 677.975C1082.15 677.081 1082.81 675.935 1083.19 674.674C1081.8 675.56 1080.22 676.038 1078.64 676.042C1079.61 674.905 1080.35 673.512 1080.79 671.999C1078.73 673.071 1075.22 674.208 1072.98 674.456C1086.31 666.559 1096.77 652.504 1101.5 636.154C1099.97 638.635 1097.42 640.255 1094.77 640.432C1094.78 638.569 1095.11 636.711 1095.74 634.996C1094.5 636.583 1092.98 637.881 1091.31 638.796C1091.65 637.073 1091.76 635.293 1091.65 633.529C1087.84 640.099 1081.89 644.991 1075.24 647.01C1075.47 645.931 1075.7 644.851 1075.93 643.767C1074.48 644.636 1073.02 645.51 1071.56 646.38C1072.61 644.55 1073.66 642.72 1074.7 640.89C1072.98 642.254 1070.67 642.58 1068.72 641.726C1080.5 630.627 1089.43 615.571 1094.1 598.912C1092.39 599.934 1090.47 600.487 1088.54 600.52C1090.41 598.731 1091.79 596.27 1092.45 593.571C1089.83 597.07 1085.55 598.826 1081.59 598.022C1082.27 597.313 1082.71 596.299 1082.79 595.248C1080.69 596.447 1078.2 596.748 1075.92 596.081C1076.91 595.236 1077.63 593.975 1077.91 592.59C1076.79 593.991 1074.95 594.568 1073.36 594.02C1075.33 592.986 1076.98 591.16 1077.95 588.938C1076.08 591.238 1073.39 591.996 1070.66 592.12C1080.05 580.893 1086.13 568.858 1089.38 553.736C1087.24 557.788 1083.67 560.809 1079.66 561.95C1080.4 560.64 1080.82 559.094 1080.85 557.536C1079.05 560.854 1076.18 563.389 1072.93 564.539C1072.73 563.591 1072.54 562.643 1072.34 561.691C1069.92 564.407 1067.7 567.362 1065.72 570.507C1066.58 568.615 1067.04 566.484 1066.93 564.353C1063.26 571.517 1056.96 576.833 1049.92 578.717C1052.32 576.879 1054.2 574.179 1055.24 571.092C1053.06 572.246 1050.8 573.19 1048.48 573.907C1050.23 573.124 1051.63 571.368 1052.15 569.295C1048.88 571.137 1044.77 571.768 1041.15 571.541Z" fill="#2E2865"/>
<path d="M1319.67 471.488C1320.31 472.045 1320.99 472.532 1321.75 472.841C1321.04 472.41 1320.36 471.936 1319.67 471.488Z" fill="#2E2865"/>
<path d="M1300.99 191.884C1300.43 191.406 1299.87 190.929 1299.31 190.455C1299.81 191.025 1300.36 191.532 1300.99 191.884Z" fill="#2E2865"/>
<path d="M1330.72 436.511C1328.12 433.521 1325.85 430.157 1323.97 426.527C1322.98 424.622 1322.07 422.474 1322.34 420.276C1323.08 421.072 1324.08 421.532 1325.1 421.539C1324.87 420.946 1324.78 420.286 1324.85 419.643C1326.3 421.27 1328.48 421.983 1330.45 421.473C1329.99 420.979 1329.95 420.057 1330.36 419.51C1332.35 421.718 1335.9 423.094 1338.67 423.094C1331.97 417.482 1326.56 409.858 1323.13 401.188C1324.33 401.065 1325.46 400.346 1326.19 399.255C1320.31 393.14 1315.64 385.51 1312.61 377.091C1315.15 379.911 1318.12 382.231 1321.34 383.919C1321.18 383.113 1321.02 382.308 1320.86 381.502C1322.45 382.672 1324.5 382.967 1326.3 382.291C1316.3 372.689 1310.29 359.291 1307.65 344.628C1308.98 347.286 1311.26 349.288 1313.84 350.057C1312.76 348.118 1311.68 346.176 1310.59 344.237C1312.91 346.288 1315.33 348.187 1317.83 349.921C1319.18 350.852 1320.87 351.751 1322.24 350.876C1319.92 349.351 1317.92 347.193 1316.45 344.631C1319.28 346.464 1322.75 347.936 1325.69 346.361C1324.76 344.704 1323.46 343.371 1322.22 342.003C1316.79 336.006 1312.24 328.966 1308.82 321.263C1308.09 319.616 1307.39 317.856 1307.46 316.01C1310.27 319.918 1314.92 321.227 1319.23 322.314C1319.66 322.423 1320.38 322.456 1320.78 322.231C1316.52 321.561 1312.81 318.343 1310.21 314.405C1307.6 310.471 1305.94 305.837 1304.31 301.26C1304.09 300.64 1303.87 299.994 1303.91 299.327C1305.53 301.306 1308.27 301.933 1310.42 300.816C1305.49 296.706 1302.23 290.063 1301.71 283.089C1303.14 284.355 1304.88 285.148 1306.68 285.346C1306.22 284.511 1306.14 283.407 1306.48 282.499C1309.76 286.318 1315.11 287.358 1319.74 286.619C1316.08 283.093 1312.57 279.251 1310.05 274.594C1307.54 269.934 1306.06 264.352 1306.76 258.926C1308.05 259.728 1309.17 260.865 1310.02 262.227C1306.67 256.37 1304.93 249.31 1305.12 242.303C1307.77 246.218 1309.5 250.58 1309.91 255.515C1308.81 242.585 1301.34 231.057 1301.06 218.067C1301.64 219.963 1303.35 221.316 1305.1 221.266C1301.9 216.642 1299.57 211.213 1298.35 205.475C1298.01 203.921 1297.85 202.021 1298.89 200.964C1300.37 203.639 1301.66 206.887 1303.14 209.562C1301.57 205.462 1300 201.362 1298.44 197.265C1297.41 194.577 1296.37 191.508 1297.37 188.806C1298.01 189.353 1298.66 189.9 1299.31 190.45C1298.17 189.148 1297.41 187.388 1297.34 185.538C1298.41 187.364 1300.63 188.167 1302.42 187.368C1299.9 183.463 1297.86 179.154 1296.36 174.61C1298.01 175.134 1299.81 175.021 1301.4 174.295C1298.16 167.414 1295.86 159.94 1294.63 152.237C1295.16 153.436 1296.4 154.166 1297.55 153.96C1295.89 149.31 1294.23 144.656 1292.57 140.006C1293.7 140.069 1294.84 140.128 1295.97 140.191C1288.63 125.919 1284.88 109.654 1284.57 93.0781C1280.14 109.866 1274.85 126.353 1268.74 142.425C1271.91 141.716 1274.74 139.224 1276.16 135.889C1274.21 144.315 1270.95 152.333 1266.57 159.452C1268.4 159.085 1270.01 157.517 1270.63 155.501C1269.58 161.116 1267.8 166.552 1265.36 171.567C1266.59 170.795 1267.82 170.019 1269.06 169.247C1264.59 182.154 1260.13 195.058 1255.66 207.965C1259.09 202.668 1262.51 197.374 1265.93 192.078C1266.38 197.023 1265.35 202.137 1263.04 206.344C1265.42 206.029 1267.55 203.924 1268.17 201.262C1266.35 209.357 1263.76 217.759 1259.9 224.842C1260.51 225.634 1261.79 225.482 1262.25 224.567C1260.33 230.815 1256.73 236.278 1255.1 242.635C1254.15 246.344 1253.91 250.239 1253.21 254.021C1250.37 269.393 1240.41 281.518 1230.87 292.778C1234.19 291.488 1237.17 289.095 1239.36 285.96C1237.06 293.474 1233.27 300.375 1228.35 305.993C1231.08 304.657 1233.59 302.741 1235.72 300.371C1235.92 301.343 1236.12 302.314 1236.32 303.288C1241.36 300.63 1245.58 296.016 1248.21 290.405C1247.96 291.333 1248.9 292.595 1249.88 292.489C1251.03 292.363 1251.86 291.203 1252.55 290.139C1255.52 285.559 1258.49 280.975 1261.46 276.394C1261.84 275.801 1262.95 275.628 1263.22 276.298C1263.49 276.967 1263.28 277.753 1263.07 278.449C1255 305.257 1241.09 329.712 1222.96 348.963C1225.08 350.365 1228.13 349.348 1229.27 346.862C1228.94 349.374 1227.81 351.737 1226.13 353.391C1228.58 353.242 1230.97 351.963 1232.65 349.894C1232.47 351.353 1232.04 352.768 1231.38 354.038C1235.77 351.804 1239.52 347.932 1241.92 343.149C1242.11 345.393 1241.58 347.71 1240.45 349.553C1246.48 345.059 1251.26 338.383 1253.95 330.72C1247.79 350.889 1237.8 369.073 1224.97 384.548C1226.27 384.664 1227.57 384.78 1228.87 384.896C1227.26 389.497 1224.92 393.76 1222 397.419C1227 396.202 1231.68 393.292 1235.29 389.142C1235.03 391.383 1234.07 393.508 1232.64 395.059C1237.08 394.396 1241.25 391.678 1244.03 387.648C1240.32 398.241 1234.26 407.217 1226.75 414.698C1228.07 414.641 1229.4 414.585 1230.72 414.529C1230.46 416.623 1229.46 418.582 1227.99 419.852C1229.97 420.147 1232.02 419.739 1233.8 418.705C1232.52 420.674 1230.93 422.374 1229.12 423.687C1231.54 424.091 1234.08 423.398 1236.09 421.794C1235.48 423.163 1234.61 424.38 1233.56 425.321C1237.22 425.102 1240.8 423.514 1243.64 420.863C1243.49 423.839 1241.59 426.597 1239.11 427.462C1240.79 427.658 1242.51 427.363 1244.07 426.61C1238.14 432.872 1231.46 438.181 1224.27 442.341C1226.48 443.703 1229.19 443.949 1231.56 443.004C1230.77 444.3 1229.78 445.434 1228.65 446.335C1234.7 447.847 1241.27 446.468 1246.46 442.597C1245.19 445.232 1243.28 447.456 1241 448.954C1242.47 449.275 1244.03 449.007 1245.35 448.205C1244.62 452.709 1240.93 455.676 1237.46 457.933C1233.59 460.449 1229.6 462.716 1225.51 464.718C1227.11 465.242 1228.79 465.421 1230.44 465.238C1229.71 466.044 1228.98 466.849 1228.25 467.655C1231.83 468.039 1235.51 467.211 1238.7 465.298C1237.43 468.115 1235.29 470.406 1232.75 471.662C1234.31 472.471 1236.26 472.133 1237.55 470.837C1237.08 471.602 1236.61 472.371 1236.14 473.137C1240.39 473.717 1244.84 471.98 1247.9 468.54C1243.57 474.884 1237.7 480.946 1231.6 484.933C1231.15 485.228 1230.66 485.553 1230.44 486.097C1230.11 486.936 1230.59 487.966 1231.29 488.43C1231.98 488.894 1232.82 488.934 1233.62 488.967C1232.51 490.005 1231.4 491.042 1230.28 492.08C1231.23 491.894 1232.22 492.03 1233.1 492.468C1231.87 493.893 1230.64 495.318 1229.41 496.743C1234.5 497.095 1239.55 495.113 1243.94 492.126C1248.33 489.14 1252.15 485.182 1255.91 481.228C1252.89 486.369 1249.06 490.88 1244.67 494.489C1245.68 494.46 1246.69 494.649 1247.64 495.043C1246.51 496.167 1245.38 497.29 1244.25 498.414C1246.06 498.537 1247.89 497.927 1249.36 496.723C1250.97 498.454 1253.57 497.688 1255.56 496.604C1258.14 495.199 1260.56 493.429 1262.76 491.344C1262.79 492.156 1262.83 492.968 1262.87 493.777C1263.19 493.81 1263.52 493.747 1263.84 493.73C1263.31 517.821 1263.16 541.858 1262.58 565.952C1262.41 573.32 1262.27 580.688 1262.11 588.056C1259.32 589.833 1256.71 592.412 1253.91 594.152C1254.06 595.286 1254.22 596.419 1254.37 597.556C1254.41 597.884 1254.52 598.285 1254.8 598.342C1254.93 598.368 1255.07 598.305 1255.19 598.242C1257.11 597.271 1258.95 596.068 1260.65 594.666C1261.09 594.304 1261.53 593.923 1261.85 593.433C1261.93 593.327 1261.95 593.194 1262.01 593.081C1261.47 618.922 1261.05 644.766 1260.73 670.616C1259.28 672.223 1257.83 673.834 1256.38 675.442C1255.62 676.29 1254.8 677.573 1255.38 678.597C1255.51 678.442 1255.73 678.382 1255.91 678.442C1256.19 679.088 1256.97 679.734 1257.25 680.381C1258.25 678.345 1259.43 676.436 1260.69 674.603C1260.63 679.903 1260.57 685.203 1260.51 690.503C1258.49 692.197 1256.53 693.987 1254.7 695.956C1254.96 696.652 1254.91 697.878 1254.52 698.485C1254.79 699.323 1254.66 700.321 1254.19 701.03C1256.54 699.95 1258.52 698.047 1260.45 696.145C1260.26 714.809 1260.1 733.473 1260 752.134L1284.2 753.533C1283.09 726.367 1282.45 694.1 1282.05 660.536C1282.09 660.546 1282.14 660.556 1282.18 660.566C1283.59 660.947 1284.54 663.098 1285.95 662.707C1285.97 662.26 1285.99 661.816 1286.02 661.368C1286.6 661.299 1287.18 661.226 1287.76 661.156C1285.61 659.37 1283.7 657.238 1281.99 654.911C1281.73 631.676 1281.59 607.937 1281.49 584.921C1282.39 586.045 1283.55 587.122 1284.15 587.781C1284.09 587.526 1284.37 587.334 1284.6 587.344C1284.82 587.357 1285.06 587.47 1285.28 587.397C1285.58 587.301 1285.82 586.873 1286.11 586.993C1286.12 586.409 1285.85 585.875 1285.58 585.382C1284.38 583.191 1282.98 581.146 1281.47 579.217C1281.37 556.512 1281.31 534.655 1281.22 514.818C1283.45 516.637 1285.69 518.46 1287.92 520.283C1289.8 521.818 1291.71 523.376 1293.89 524.261C1293.66 523.86 1293.43 523.459 1293.2 523.054C1294.05 523.164 1294.89 523.273 1295.74 523.386C1292.65 520.313 1289.42 517.436 1286.05 514.778C1284.61 513.644 1282.87 511.874 1281.21 511.112C1281.16 502.13 1281.11 493.624 1281.04 485.649C1281.21 485.361 1281.39 485.089 1281.54 484.788C1281.89 486.216 1282.25 487.645 1282.61 489.073C1283.69 487.784 1284.78 486.495 1285.86 485.202C1287.03 487.121 1288.22 489.083 1289.89 490.432C1291.55 491.781 1293.8 492.421 1295.65 491.447C1293.85 489.315 1292.39 486.8 1291.36 484.068C1295.48 487.231 1299.85 490.492 1304.79 490.946C1304.45 490.19 1304.11 489.435 1303.78 488.676C1305.96 490.071 1308.52 490.674 1311.01 490.373C1310.25 489.826 1309.75 488.861 1309.67 487.84C1311.87 487.98 1314.08 487.83 1316.25 487.403C1309.8 483.342 1304.11 477.691 1299.69 470.946C1301.96 472.318 1304.22 473.69 1306.49 475.059C1305.19 473.412 1304.33 471.324 1304.03 469.126C1309.23 475.185 1316.73 479.577 1323.73 482.371C1320.03 481.012 1317.4 477.337 1314.98 473.843C1313.28 471.39 1311.59 468.941 1309.89 466.488C1309.47 465.881 1309.05 464.99 1309.5 464.413C1312.81 466.929 1316.22 469.259 1319.69 471.48C1318.48 470.422 1317.49 469.01 1316.97 467.366C1320.38 470.674 1324.68 474.204 1328.91 472.583C1324.98 470.986 1321.41 468.235 1318.64 464.665C1320.77 465.58 1323.09 466.505 1325.29 465.812C1320.78 462.679 1317.24 457.724 1315.45 452.026C1317.38 453.289 1319.66 453.836 1321.86 453.564C1319.69 452.928 1318.01 451.006 1316.45 449.163C1313.21 445.334 1310.86 442.255 1310.45 436.935C1311.85 438.917 1313.32 440.886 1315.23 442.182C1317.14 443.478 1319.56 444.012 1321.59 442.978C1317.17 439.66 1313.85 434.459 1312.42 428.622C1316.48 432.895 1320.91 437.373 1326.37 438.142C1326.05 437.429 1325.94 436.584 1326.07 435.795C1327.3 437.081 1329.23 437.369 1330.72 436.511Z" fill="#2E2865"/>
<path d="M1295.07 815.065C1291.39 809.46 1290.15 801.826 1291.84 795.074C1290.62 794.451 1289.31 793.729 1288.71 792.35C1288.12 790.971 1288.84 788.843 1290.18 788.923C1288.74 788.826 1289.79 786.168 1289.45 784.561C1289.21 783.41 1288.11 782.837 1287.42 781.965C1285.71 779.841 1287.22 775.678 1289.74 775.578C1288.9 774.968 1288.01 774.265 1287.74 773.175C1287.47 772.084 1288.32 770.659 1289.25 771.021C1289.5 769.496 1288.01 768.468 1287.12 767.305C1286.23 766.138 1286.87 763.457 1288.03 764.252C1286.79 762.734 1287.77 760.314 1287.83 758.236C1287.91 755.479 1286.14 753.006 1284.01 751.733C1281.88 750.46 1279.42 750.155 1277.03 749.87C1274.64 749.585 1272.25 749.3 1269.86 749.015C1267.5 748.733 1264.15 748.892 1261.78 748.607C1257.6 751.077 1254 754.842 1251.47 759.4C1252.89 759.482 1254.33 759.131 1255.6 758.392C1255.29 759.93 1254.57 761.355 1253.56 762.426C1254.01 763.397 1255.46 763.384 1255.9 762.409C1255.89 763.841 1254.43 764.537 1253.29 765.104C1252.15 765.667 1250.93 767.166 1251.67 768.316C1252.4 768.13 1253.21 768.346 1253.8 768.883C1252.53 770.941 1250.9 772.694 1249.02 774C1249.8 775.223 1250.82 776.244 1251.98 776.967C1251.41 778.064 1250.57 778.982 1249.6 779.599C1250.39 779.668 1251.19 779.735 1251.98 779.801C1252.37 782.167 1250.94 784.74 1248.91 785.33C1249.41 785.727 1249.92 786.128 1250.43 786.526C1249.2 788.727 1248.58 791.362 1248.66 793.974C1246.56 797.428 1245.34 801.578 1245.18 805.79C1245.11 807.835 1245.44 810.209 1246.97 811.259C1253.07 815.452 1261.51 813.351 1268.61 813.371C1276.85 813.391 1286.94 813.543 1295.07 815.065Z" fill="#2E2865"/>
<path d="M1245.91 551.238C1246.46 551.718 1247.05 552.138 1247.7 552.403C1247.09 552.032 1246.51 551.624 1245.91 551.238Z" fill="#2E2865"/>
<path d="M1229.82 310.35C1229.34 309.939 1228.85 309.527 1228.37 309.119C1228.8 309.61 1229.27 310.047 1229.82 310.35Z" fill="#2E2865"/>
<path d="M1255.43 521.104C1253.2 518.529 1251.24 515.63 1249.61 512.503C1248.76 510.861 1247.98 509.011 1248.21 507.118C1248.85 507.803 1249.71 508.2 1250.59 508.206C1250.39 507.694 1250.32 507.126 1250.37 506.572C1251.62 507.974 1253.5 508.588 1255.2 508.149C1254.8 507.723 1254.76 506.929 1255.12 506.458C1256.83 508.36 1259.9 509.545 1262.28 509.545C1256.51 504.71 1251.85 498.143 1248.9 490.672C1249.92 490.567 1250.9 489.947 1251.53 489.007C1246.46 483.739 1242.44 477.165 1239.83 469.912C1242.02 472.342 1244.58 474.341 1247.35 475.795C1247.21 475.101 1247.07 474.407 1246.93 473.713C1248.31 474.721 1250.08 474.975 1251.63 474.392C1243.01 466.12 1237.83 454.577 1235.55 441.944C1236.7 444.234 1238.67 445.959 1240.89 446.622C1239.96 444.951 1239.03 443.278 1238.09 441.607C1240.09 443.375 1242.17 445.011 1244.33 446.505C1245.49 447.307 1246.94 448.081 1248.13 447.327C1246.13 446.013 1244.4 444.154 1243.13 441.947C1245.57 443.526 1248.56 444.794 1251.1 443.438C1250.3 442.01 1249.18 440.862 1248.11 439.683C1243.43 434.517 1239.51 428.451 1236.56 421.815C1235.93 420.396 1235.33 418.879 1235.39 417.289C1237.82 420.656 1241.82 421.784 1245.53 422.72C1245.9 422.815 1246.53 422.843 1246.87 422.649C1243.19 422.072 1240 419.299 1237.76 415.907C1235.51 412.517 1234.09 408.525 1232.68 404.581C1232.49 404.047 1232.3 403.491 1232.33 402.917C1233.73 404.621 1236.09 405.161 1237.95 404.199C1233.7 400.658 1230.88 394.935 1230.44 388.927C1231.67 390.018 1233.17 390.7 1234.72 390.872C1234.32 390.152 1234.25 389.201 1234.55 388.419C1237.38 391.708 1241.99 392.605 1245.97 391.968C1242.82 388.93 1239.8 385.62 1237.63 381.608C1235.46 377.593 1234.19 372.784 1234.79 368.11C1235.9 368.801 1236.86 369.78 1237.6 370.954C1234.71 365.908 1233.21 359.826 1233.38 353.789C1235.66 357.161 1237.15 360.919 1237.5 365.171C1236.56 354.031 1230.12 344.1 1229.88 332.909C1230.38 334.542 1231.85 335.707 1233.36 335.664C1230.6 331.681 1228.6 327.003 1227.54 322.06C1227.25 320.721 1227.11 319.085 1228.01 318.174C1229.29 320.478 1230.4 323.277 1231.67 325.581C1230.32 322.049 1228.97 318.516 1227.62 314.987C1226.73 312.671 1225.84 310.027 1226.7 307.699C1227.25 308.17 1227.81 308.642 1228.37 309.116C1227.39 307.993 1226.73 306.477 1226.67 304.884C1227.59 306.457 1229.51 307.148 1231.05 306.46C1228.88 303.096 1227.12 299.384 1225.83 295.469C1227.25 295.92 1228.8 295.823 1230.17 295.197C1227.38 289.269 1225.4 282.83 1224.34 276.193C1224.79 277.227 1225.86 277.855 1226.86 277.678C1225.43 273.672 1223.99 269.663 1222.57 265.656C1223.54 265.71 1224.52 265.762 1225.5 265.816C1219.17 253.52 1215.94 239.507 1215.67 225.227C1211.86 239.69 1207.3 253.894 1202.03 267.741C1204.76 267.13 1207.2 264.982 1208.43 262.11C1206.75 269.368 1203.94 276.276 1200.16 282.41C1201.74 282.093 1203.13 280.742 1203.67 279.006C1202.76 283.844 1201.22 288.527 1199.12 292.847C1200.18 292.182 1201.24 291.514 1202.31 290.848C1198.46 301.968 1194.61 313.085 1190.77 324.205C1193.72 319.641 1196.67 315.081 1199.61 310.518C1200 314.778 1199.11 319.185 1197.12 322.808C1199.17 322.537 1201 320.724 1201.54 318.431C1199.97 325.404 1197.74 332.643 1194.42 338.745C1194.94 339.428 1196.05 339.297 1196.44 338.508C1194.79 343.891 1191.69 348.597 1190.28 354.074C1189.47 357.27 1189.26 360.625 1188.65 363.883C1186.21 377.128 1177.63 387.573 1169.41 397.274C1172.27 396.163 1174.84 394.101 1176.73 391.4C1174.74 397.874 1171.47 403.819 1167.24 408.659C1169.59 407.508 1171.75 405.858 1173.58 403.816C1173.76 404.653 1173.93 405.489 1174.1 406.329C1178.45 404.039 1182.08 400.064 1184.35 395.229C1184.13 396.029 1184.94 397.117 1185.78 397.025C1186.78 396.917 1187.49 395.918 1188.09 395.001C1190.64 391.054 1193.2 387.105 1195.76 383.159C1196.09 382.648 1197.05 382.499 1197.28 383.076C1197.51 383.653 1197.33 384.329 1197.15 384.929C1190.2 408.025 1178.21 429.094 1162.59 445.679C1164.42 446.887 1167.05 446.011 1168.03 443.869C1167.75 446.033 1166.77 448.069 1165.32 449.494C1167.44 449.366 1169.5 448.264 1170.94 446.482C1170.78 447.738 1170.41 448.958 1169.85 450.051C1173.63 448.127 1176.86 444.791 1178.93 440.671C1179.09 442.604 1178.63 444.6 1177.66 446.188C1182.86 442.315 1186.98 436.564 1189.29 429.962C1183.98 447.338 1175.38 463.004 1164.33 476.337C1165.45 476.437 1166.56 476.537 1167.69 476.637C1166.29 480.6 1164.28 484.273 1161.77 487.425C1166.07 486.377 1170.1 483.87 1173.22 480.295C1172.99 482.225 1172.17 484.056 1170.94 485.392C1174.76 484.821 1178.35 482.48 1180.75 479.007C1177.55 488.134 1172.33 495.867 1165.86 502.312C1167 502.263 1168.14 502.215 1169.28 502.166C1169.06 503.971 1168.19 505.658 1166.92 506.752C1168.63 507.006 1170.4 506.655 1171.93 505.764C1170.83 507.46 1169.46 508.925 1167.9 510.056C1169.98 510.404 1172.18 509.808 1173.91 508.426C1173.38 509.605 1172.63 510.653 1171.72 511.464C1174.87 511.275 1177.96 509.908 1180.41 507.623C1180.28 510.187 1178.65 512.563 1176.51 513.309C1177.96 513.477 1179.44 513.223 1180.78 512.575C1175.67 517.969 1169.92 522.544 1163.72 526.127C1165.63 527.301 1167.96 527.512 1170 526.699C1169.32 527.815 1168.47 528.792 1167.49 529.568C1172.71 530.871 1178.36 529.683 1182.84 526.347C1181.74 528.618 1180.1 530.534 1178.13 531.824C1179.4 532.101 1180.74 531.87 1181.88 531.179C1181.25 535.06 1178.08 537.616 1175.08 539.56C1171.75 541.728 1168.31 543.681 1164.79 545.406C1166.17 545.857 1167.62 546.011 1169.04 545.854C1168.41 546.548 1167.78 547.242 1167.15 547.936C1170.24 548.267 1173.41 547.553 1176.16 545.905C1175.06 548.333 1173.21 550.306 1171.03 551.388C1172.37 552.085 1174.05 551.794 1175.16 550.677C1174.76 551.337 1174.35 551.999 1173.95 552.659C1177.61 553.159 1181.44 551.662 1184.08 548.698C1180.35 554.164 1175.29 559.387 1170.04 562.822C1169.65 563.076 1169.23 563.356 1169.04 563.824C1168.75 564.547 1169.17 565.435 1169.77 565.835C1170.36 566.234 1171.09 566.269 1171.78 566.297C1170.82 567.191 1169.86 568.085 1168.9 568.979C1169.72 568.819 1170.57 568.936 1171.33 569.313C1170.27 570.541 1169.21 571.769 1168.15 572.997C1172.54 573.299 1176.89 571.592 1180.67 569.019C1184.45 566.446 1187.74 563.036 1190.98 559.629C1188.38 564.058 1185.08 567.945 1181.3 571.055C1182.17 571.029 1183.04 571.192 1183.86 571.532C1182.88 572.5 1181.91 573.468 1180.94 574.436C1182.49 574.541 1184.07 574.016 1185.34 572.979C1186.72 574.47 1188.97 573.81 1190.68 572.877C1192.9 571.666 1194.99 570.141 1196.88 568.345C1196.91 569.044 1196.94 569.744 1196.97 570.441C1197.25 570.469 1197.54 570.415 1197.82 570.401C1197.36 591.155 1197.23 611.864 1196.73 632.622C1196.58 638.97 1196.46 645.318 1196.33 651.666C1193.92 653.196 1191.67 655.418 1189.26 656.917C1189.39 657.894 1189.52 658.87 1189.65 659.85C1189.69 660.132 1189.78 660.478 1190.03 660.526C1190.14 660.549 1190.25 660.495 1190.36 660.441C1192.02 659.604 1193.6 658.568 1195.07 657.36C1195.45 657.048 1195.82 656.72 1196.1 656.297C1196.16 656.206 1196.18 656.092 1196.23 655.995C1195.77 678.257 1195.41 700.522 1195.14 722.793C1193.89 724.178 1192.64 725.566 1191.39 726.951C1190.73 727.682 1190.02 728.787 1190.52 729.669C1190.64 729.535 1190.82 729.484 1190.98 729.535C1191.22 730.092 1191.89 730.649 1192.13 731.206C1192.99 729.452 1194.01 727.808 1195.1 726.228C1195.04 730.794 1194.99 735.361 1194.94 739.927C1193.2 741.386 1191.51 742.928 1189.94 744.624C1190.17 745.224 1190.12 746.28 1189.78 746.803C1190.02 747.525 1189.91 748.385 1189.5 748.996C1191.52 748.065 1193.23 746.426 1194.89 744.787C1194.73 760.867 1194.59 776.947 1194.5 793.024L1215.35 794.229C1214.4 770.824 1213.84 743.025 1213.5 714.109C1213.54 714.118 1213.58 714.126 1213.61 714.135C1214.82 714.463 1215.65 716.316 1216.86 715.98C1216.88 715.594 1216.9 715.211 1216.92 714.826C1217.42 714.766 1217.92 714.703 1218.42 714.643C1216.57 713.104 1214.92 711.268 1213.45 709.263C1213.23 689.245 1213.11 668.794 1213.02 648.964C1213.8 649.932 1214.8 650.86 1215.31 651.429C1215.25 651.209 1215.5 651.043 1215.69 651.052C1215.89 651.063 1216.09 651.16 1216.28 651.097C1216.54 651.014 1216.75 650.646 1217 650.749C1217.01 650.246 1216.78 649.787 1216.54 649.361C1215.51 647.474 1214.3 645.712 1213 644.05C1212.92 624.489 1212.87 605.659 1212.79 588.568C1214.71 590.136 1216.63 591.706 1218.56 593.277C1220.18 594.599 1221.83 595.941 1223.7 596.704C1223.5 596.358 1223.31 596.013 1223.11 595.664C1223.83 595.759 1224.56 595.853 1225.29 595.95C1222.63 593.303 1219.85 590.824 1216.95 588.534C1215.71 587.557 1214.21 586.032 1212.77 585.376C1212.74 577.637 1212.69 570.309 1212.63 563.439C1212.77 563.19 1212.93 562.956 1213.06 562.696C1213.37 563.927 1213.67 565.158 1213.98 566.389C1214.92 565.278 1215.85 564.167 1216.79 563.053C1217.79 564.707 1218.82 566.397 1220.25 567.559C1221.69 568.722 1223.63 569.273 1225.22 568.433C1223.66 566.597 1222.41 564.43 1221.52 562.077C1225.07 564.801 1228.83 567.611 1233.09 568.002C1232.8 567.351 1232.51 566.7 1232.22 566.046C1234.1 567.248 1236.31 567.768 1238.45 567.508C1237.8 567.037 1237.36 566.206 1237.3 565.326C1239.19 565.446 1241.1 565.318 1242.97 564.949C1237.41 561.451 1232.51 556.582 1228.7 550.771C1230.65 551.954 1232.6 553.136 1234.56 554.315C1233.44 552.896 1232.69 551.097 1232.44 549.204C1236.92 554.424 1243.38 558.207 1249.41 560.615C1246.23 559.444 1243.95 556.277 1241.87 553.267C1240.41 551.154 1238.95 549.044 1237.49 546.93C1237.13 546.408 1236.76 545.64 1237.15 545.143C1240 547.31 1242.94 549.318 1245.93 551.231C1244.88 550.32 1244.04 549.104 1243.59 547.687C1246.52 550.537 1250.23 553.578 1253.87 552.182C1250.49 550.806 1247.41 548.435 1245.02 545.36C1246.86 546.148 1248.85 546.945 1250.75 546.348C1246.86 543.649 1243.82 539.38 1242.28 534.472C1243.94 535.56 1245.9 536.031 1247.8 535.797C1245.93 535.248 1244.49 533.592 1243.14 532.004C1240.35 528.706 1238.33 526.053 1237.97 521.47C1239.17 523.178 1240.44 524.874 1242.09 525.99C1243.73 527.107 1245.82 527.567 1247.56 526.676C1243.76 523.817 1240.9 519.337 1239.67 514.308C1243.16 517.989 1246.98 521.847 1251.68 522.509C1251.4 521.895 1251.31 521.167 1251.43 520.488C1252.49 521.596 1254.15 521.844 1255.43 521.104Z" fill="#2E2865"/>
<path d="M1224.72 847.239C1221.54 842.41 1220.48 835.834 1221.94 830.017C1220.89 829.48 1219.75 828.858 1219.24 827.67C1218.73 826.482 1219.35 824.649 1220.5 824.717C1219.26 824.634 1220.17 822.344 1219.88 820.959C1219.67 819.968 1218.73 819.474 1218.12 818.723C1216.65 816.893 1217.95 813.306 1220.12 813.22C1219.41 812.695 1218.64 812.09 1218.4 811.15C1218.17 810.211 1218.9 808.983 1219.7 809.294C1219.92 807.98 1218.64 807.095 1217.87 806.093C1217.1 805.088 1217.65 802.777 1218.65 803.463C1217.59 802.155 1218.43 800.07 1218.48 798.28C1218.55 795.904 1217.02 793.774 1215.19 792.677C1213.35 791.581 1211.24 791.318 1209.18 791.072C1207.12 790.827 1205.06 790.581 1203 790.336C1200.96 790.093 1198.08 790.23 1196.04 789.984C1192.43 792.112 1189.33 795.356 1187.15 799.282C1188.38 799.354 1189.62 799.051 1190.71 798.414C1190.44 799.739 1189.82 800.967 1188.95 801.889C1189.34 802.726 1190.59 802.715 1190.97 801.875C1190.96 803.109 1189.71 803.708 1188.72 804.197C1187.74 804.682 1186.69 805.973 1187.33 806.964C1187.96 806.804 1188.66 806.99 1189.17 807.452C1188.07 809.225 1186.66 810.736 1185.05 811.861C1185.72 812.915 1186.6 813.794 1187.6 814.417C1187.1 815.362 1186.38 816.153 1185.54 816.684C1186.23 816.744 1186.91 816.801 1187.6 816.858C1187.93 818.897 1186.7 821.113 1184.95 821.622C1185.38 821.964 1185.82 822.31 1186.26 822.653C1185.2 824.549 1184.66 826.819 1184.73 829.069C1182.92 832.045 1181.87 835.62 1181.74 839.249C1181.67 841.011 1181.96 843.056 1183.28 843.961C1188.53 847.573 1195.8 845.763 1201.92 845.78C1209.02 845.797 1217.71 845.929 1224.72 847.239Z" fill="#2E2865"/>
<path d="M1599 669.751L1604 499L1521 516.248L1434.5 558.792L1364 643.88L1273.83 669.751L1222.5 735.867H1158.1L1114.5 760.589L1068.5 785.31L1010 806.582L977.71 834.522L911.645 856.62L861.979 880.657H803.88L741.563 918.264L683.932 954.319L623.49 985.335L601 1040H1599V669.751Z" fill="#2E2865" stroke="#2E2865"/>
</g>
<defs>
<clipPath id="clip0_283_177">
<rect width="1440" height="1024" fill="white"/>
</clipPath>
</defs>
</svg>
