<svg width="1440" height="1024" viewBox="0 0 1440 1024" fill="none" xmlns="http://www.w3.org/2000/svg">
<g clip-path="url(#clip0_268_119)">
<path d="M161.005 685.491C153.541 675.186 148.699 663 147.045 650.385C148.712 651.473 151.039 651.435 152.671 650.295C148.155 638.683 144.256 636.81 143.399 624.38C144.886 625.348 146.69 625.819 148.459 625.712C147.589 622.803 146.724 619.893 145.854 616.988C148.232 618.899 151.694 619.341 154.475 618.085C149.95 604.699 139.907 588.292 138.685 574.212C140.155 576.976 143.947 578.21 146.763 576.847C143.536 569.07 138.15 556.4 136.449 548.155C138.201 549.599 140.215 550.731 142.366 551.468C139.804 547.333 138.668 542.336 139.195 537.503C140.502 540.34 144.063 543.001 146.861 541.608C141.993 528.106 133.514 509.724 130.733 495.644C132.828 496.522 134.645 498.052 135.862 499.972C134.529 496.968 134.126 493.557 134.722 490.326C135.849 491.59 137.918 491.873 139.341 490.952C133.779 475.865 130.6 460.336 127.095 444.645C127.583 448.394 131.397 451.376 135.15 450.956C133.608 449.152 132.862 446.693 133.149 444.336C131.992 445.772 134.876 447.559 136.269 446.35C137.666 445.142 137.541 442.982 137.297 441.153C132.442 404.817 125.921 368.703 117.754 332.963C120.149 334.84 122.994 336.828 125.959 336.164C120.68 323.185 117.338 309.417 116.078 295.461C117.321 296.374 118.568 297.287 119.81 298.199C119.318 295.478 118.829 292.758 118.341 290.037C119.155 292.085 121.542 293.366 123.693 292.916C114.124 258.41 108.875 223.668 105.67 188C102.735 218.633 97.9617 249.09 91.3929 279.153C93.8653 279.183 96.3377 278.257 98.1845 276.612C94.5251 292.171 90.0688 307.541 84.8327 322.641C88.4363 321.642 91.7571 319.645 94.3237 316.933C83.243 348.136 75.093 380.375 70.0111 413.095C74.1118 411.158 77.7026 408.15 80.3293 404.452C80.6163 406.423 80.9077 408.39 81.1948 410.361C85.6554 406.239 89.6575 401.62 93.1025 396.615C90.6301 407.057 85.6339 416.891 78.6538 425.041C81.7303 426.04 85.3125 425.286 87.7249 423.135C86.5123 436.032 82.0175 448.604 74.7889 459.355C76.4171 459.805 78.1825 459.766 79.7893 459.248C76.8027 467.042 73.8118 474.832 70.8252 482.626C66.2361 494.594 61.5955 506.806 60.9057 519.605C65.242 516.036 68.9913 511.755 71.9522 506.986C72.1707 510.782 71.5237 514.63 70.0711 518.144C72.4407 517.523 74.5189 515.851 75.633 513.67C74.0304 529.503 71.3523 545.816 67.6159 561.284C68.6614 559.969 70.0154 562.626 69.6083 564.254C66.0433 578.505 62.4739 592.757 58.9089 607.009C60.3143 605.68 61.7155 604.352 63.121 603.024C63.2452 607.407 63.3652 611.795 63.4895 616.178C66.4803 614.391 69.0299 611.864 70.8424 608.881C72.4621 615.574 71.1724 622.919 67.3631 628.656C70.0626 627.979 72.6293 626.775 74.8788 625.134C70.941 643.855 54.4483 658.68 53 677.757C55.5838 675.537 58.1719 673.318 60.7557 671.094C60.5757 673.725 60.3958 676.351 60.2159 678.982C62.1184 677.903 64.0251 676.818 65.9276 675.739C63.9437 683.044 61.9555 690.355 59.9716 697.66C67.9758 698.599 76.2843 693.397 78.9409 685.787C78.5467 686.768 77.6812 690.029 77.814 691.079C77.9468 692.124 78.8209 693.161 79.875 693.075C80.4363 693.028 80.9248 692.69 81.3747 692.343C83.7314 690.539 85.8182 688.379 87.5407 685.962C87.2879 688.306 87.6007 690.71 88.4448 692.913C89.3832 694.279 91.6156 693.243 92.4683 691.82C93.321 690.397 93.8266 688.546 95.3478 687.891C97.7687 692.9 102.889 696.173 108.25 697.669C113.606 699.16 130.433 695.749 135.995 695.689C137.708 695.668 139.589 695.591 140.858 694.434C142.126 693.281 146.647 695.179 144.976 694.802C148.164 695.818 151.622 695.985 154.891 695.286C154.3 694.091 153.713 692.895 153.121 691.696C155.508 692.364 158.036 692.51 160.487 692.128C161.091 692.034 161.755 691.867 162.094 691.357C163.157 689.767 160.547 687.359 161.005 685.491Z" fill="#1C1035"/>
<path d="M108.785 723.249C109.098 708.959 109.287 696.173 109.595 681.883C102.739 682.059 96.9376 681.197 91.033 677.705C90.5531 696.237 90.0732 714.774 89.5933 733.306C95.7121 729.424 102.667 727.127 108.785 723.249Z" fill="#1C1035"/>
<path d="M418.545 865.481C426.835 852.494 431.705 837.32 432.533 821.92C433.006 815.846 433.479 809.763 433.952 803.69C432.148 804.531 430.334 805.361 428.531 806.202C427.525 786.845 431.025 767.27 438.694 749.486C439.738 747.062 440.882 744.53 440.665 741.889C440.438 739.258 438.25 736.577 435.628 736.894C437.865 730.672 439.098 724.085 439.255 717.467C437.353 718.476 435.056 718.724 432.986 718.14C436.545 703.659 438.605 688.812 439.117 673.906C436.969 673.57 434.81 675.697 435.115 677.863C436.062 665.499 437.018 653.125 437.974 640.76C437.323 643.372 434.879 645.429 432.198 645.617C437.097 614.618 443.957 583.925 452.721 553.796C448.768 556.299 444.815 558.811 440.862 561.313C447.348 551.719 448.807 539.691 450.089 528.168C452.021 510.779 453.943 493.4 455.875 476.011C459.236 445.714 463.504 416.475 462.903 386C466.994 420.679 473.312 455.091 481.81 488.959C479.414 489.661 476.713 489.245 474.643 487.851C477.995 503.884 481.356 519.908 484.708 535.942C482.125 533.687 479.552 531.442 476.97 529.187C479.947 559.919 500.677 587.773 498.892 618.594C496.891 615.29 494.88 611.987 492.87 608.683C493.402 613.915 493.934 619.148 494.466 624.38C489.528 620.394 485.082 615.805 481.267 610.73C482.638 625.36 487.468 639.653 495.245 652.106C492.998 651.878 490.75 651.651 488.503 651.423C495.561 677.002 502.628 702.591 509.686 728.17C506.768 725.816 503.851 723.452 500.933 721.098C501.11 725.034 501.84 728.941 503.092 732.67C501.583 731.365 500.065 730.059 498.557 728.763C499.888 747.161 502.875 765.43 507.478 783.284C504.59 782.78 501.899 781.256 499.977 779.041C503.121 790.93 506.276 802.819 509.42 814.699C507.054 814.511 504.945 812.513 504.629 810.149C500.361 834.185 524.502 856.856 519.248 880.694C513.738 878.587 510.12 877.716 505.556 873.968C504.866 876.658 505.497 879.655 507.212 881.831C504.265 880.179 501.317 878.537 498.36 876.895C497.542 876.44 496.625 875.965 495.698 876.163C494.792 876.361 494.161 877.153 493.431 877.716C490.524 880.001 485.457 878.043 484.836 874.383C482.086 876.836 478.616 879.121 475.008 878.448C471.4 877.776 469.015 872.464 471.962 870.258C471.607 870.703 471.164 871.059 470.72 871.406C459.828 880.001 446.708 885.738 433.006 887.894C432.02 888.053 430.857 888.132 430.187 887.39C429.418 886.539 429.792 885.194 430.246 884.146C431.951 880.179 434.199 876.45 436.899 873.087C432.217 874.442 427.545 875.807 422.863 877.162C421.177 877.657 419.383 878.142 417.688 877.677C415.992 877.212 414.543 875.382 415.135 873.73C417.865 872.247 416.869 868.102 418.545 865.481Z" fill="#1C1035"/>
<path d="M136.14 738.948C143.483 727.384 147.796 713.873 148.529 700.159C148.948 694.752 149.367 689.335 149.786 683.927C148.189 684.676 146.582 685.415 144.984 686.164C144.094 668.928 147.193 651.498 153.986 635.662C154.911 633.504 155.924 631.249 155.732 628.897C155.531 626.554 153.593 624.168 151.27 624.449C153.252 618.909 154.344 613.044 154.483 607.151C152.798 608.05 150.764 608.27 148.93 607.75C152.082 594.856 153.907 581.636 154.361 568.363C152.458 568.063 150.546 569.957 150.816 571.886C151.655 560.876 152.501 549.858 153.348 538.848C152.772 541.174 150.607 543.006 148.232 543.173C152.571 515.57 158.648 488.24 166.41 461.412C162.909 463.64 159.408 465.877 155.906 468.106C161.651 459.562 162.944 448.852 164.079 438.592C165.79 423.108 167.492 407.633 169.204 392.149C172.181 365.171 175.961 339.136 175.428 312C179.052 342.879 184.648 373.521 192.174 403.678C190.053 404.304 187.66 403.934 185.827 402.692C188.795 416.969 191.773 431.237 194.741 445.514C192.454 443.506 190.175 441.507 187.887 439.499C190.524 466.864 208.885 491.666 207.305 519.111C205.532 516.169 203.751 513.227 201.97 510.285C202.442 514.945 202.913 519.604 203.384 524.263C199.01 520.714 195.073 516.627 191.694 512.108C192.908 525.135 197.186 537.862 204.074 548.951C202.084 548.748 200.093 548.546 198.102 548.343C204.354 571.119 210.614 593.905 216.865 616.681C214.281 614.585 211.696 612.48 209.112 610.384C209.269 613.889 209.915 617.368 211.024 620.689C209.688 619.526 208.344 618.363 207.008 617.21C208.186 633.592 210.832 649.859 214.909 665.757C212.351 665.308 209.968 663.951 208.265 661.978C211.05 672.565 213.844 683.152 216.629 693.73C214.534 693.563 212.665 691.783 212.386 689.678C208.606 711.081 229.987 731.268 225.334 752.494C220.453 750.618 217.249 749.843 213.207 746.505C212.595 748.901 213.154 751.569 214.674 753.507C212.063 752.036 209.453 750.574 206.833 749.112C206.109 748.707 205.297 748.284 204.476 748.46C203.673 748.636 203.114 749.341 202.468 749.843C199.892 751.878 195.405 750.134 194.855 746.875C192.419 749.059 189.345 751.094 186.15 750.495C182.954 749.896 180.842 745.166 183.452 743.202C183.138 743.598 182.745 743.916 182.352 744.224C172.704 751.878 161.084 756.986 148.948 758.906C148.075 759.047 147.045 759.117 146.451 758.457C145.77 757.699 146.102 756.502 146.503 755.568C148.014 752.036 150.004 748.716 152.397 745.721C148.25 746.928 144.111 748.143 139.964 749.35C138.471 749.79 136.882 750.222 135.381 749.808C133.879 749.394 132.595 747.765 133.119 746.294C135.538 744.973 134.656 741.282 136.14 738.948Z" fill="#1C1035"/>
<path d="M697 920.991C689.631 913.183 684.284 903.504 681.622 893.138C684.459 894.602 687.881 894.904 690.931 893.953C685.181 885.527 680.611 876.315 677.386 866.659C678.717 866.259 680.238 866.531 681.341 867.376C679.333 865.648 677.957 863.204 677.531 860.602C681.143 861.846 685.364 861.213 688.444 858.957C681.607 854.815 676.808 847.513 675.743 839.637C677.797 841.621 680.892 842.466 683.676 841.81C682.687 840.248 682.185 838.385 682.261 836.537C684.063 836.71 685.874 836.884 687.684 837.057C685.546 835.556 684.33 832.855 684.649 830.268C687.676 831.958 691.836 831.286 694.171 828.736C687.691 821.834 682.284 813.943 678.207 805.426C681.204 806.542 684.603 806.535 687.592 805.418C681.227 800.741 676.565 793.838 674.625 786.226C676.086 786.807 677.766 786.83 679.249 786.294C677.515 784.936 676.07 783.224 675.036 781.285C677.69 781.353 680.337 781.421 682.991 781.489C680.999 779.859 679.835 777.287 679.919 774.73C681.98 774.616 684.048 774.503 686.109 774.382C682.55 770.301 679.668 765.647 677.607 760.652C679.66 760.66 681.478 760.132 683.531 760.14C675.622 752.603 670.526 742.23 669.408 731.405C670.838 732.491 672.732 732.951 674.511 732.635C672.823 727.339 671.142 722.043 669.454 716.755C671.188 716.875 672.952 716.551 674.526 715.804C670.671 711.942 667.88 707.038 666.541 701.772C668.085 702.542 669.629 703.311 671.165 704.081C671.074 701.237 670.982 698.393 670.891 695.549C672.154 697.012 674.831 695.881 675.454 694.055C676.078 692.23 675.356 690.253 674.641 688.458C670.313 677.572 665.978 666.686 661.651 655.8C664.046 657.181 666.442 658.554 668.83 659.934C668.937 658.237 669.043 656.539 669.15 654.842C669.629 657.656 674.116 658.614 675.721 656.245C670.488 653.778 668.245 647.668 666.967 642.07C665.917 637.476 665.18 632.821 664.45 628.174C664.107 626.017 663.765 623.867 663.431 621.709C662.16 613.675 660.89 605.648 659.628 597.614C660.83 599.025 663.111 599.379 664.693 598.414C659.924 586.939 656.35 574.975 654.038 562.776C654.882 563.976 656.335 564.738 657.81 564.745C657.605 562.754 657.4 560.754 657.194 558.763C658.746 559.766 660.305 560.77 661.856 561.765C661.354 558.031 660.845 554.304 660.343 550.57C660.769 551.717 662.662 551.476 663.278 550.419C663.894 549.363 663.636 548.043 663.354 546.859C660.343 534.094 657.339 521.33 654.327 508.566C655.833 509.411 657.339 510.256 658.845 511.101C654.069 496.179 651.893 480.654 651.323 465C647.619 488.371 642.813 511.576 636.942 534.509C638.85 534.743 640.851 534.177 642.341 532.97C643.558 546.263 641.748 559.819 637.094 572.334C638.341 571.407 639.596 570.479 640.843 569.558C640.66 586.562 638.265 603.536 633.747 619.936C635.991 618.639 637.93 616.806 639.345 614.641C639.74 618.948 639.215 623.339 637.808 627.428C639.535 627.224 641.2 626.537 642.562 625.466C642.311 638.155 638.66 650.761 632.074 661.639C634.272 662.537 637.01 661.873 638.539 660.07C637.162 666.897 634.439 673.453 630.584 679.269C635.291 677.006 639.299 673.347 641.969 668.889C638.805 677.73 634.553 686.179 629.329 694.002C631.549 694.342 633.915 693.587 635.519 692.033C635.55 696.53 634.295 701.033 631.93 704.873C634.105 709.03 633.42 714.484 630.302 717.999C631.846 718.867 633.869 718.829 635.39 717.916C635.884 724.268 634.804 730.734 632.279 736.588C634.219 735.773 636.158 734.966 638.09 734.151C632.394 751.826 624.712 768.875 615.229 784.869C618.278 782.817 621.336 780.757 624.385 778.705C624.248 780.953 624.111 783.209 623.974 785.457C625.845 784.846 627.572 783.805 628.971 782.432C629.062 783.941 629.154 785.442 629.245 786.951C632.089 785.615 634.713 783.797 636.949 781.594C635.337 787.924 629.838 795.611 626.119 800.997C627.237 801.178 628.355 801.359 629.473 801.54C628.834 804.83 628.195 808.126 627.557 811.423C626.781 818.891 623.617 826.096 618.636 831.746C621.396 833.255 624.994 833.112 627.625 831.384C627.146 838.309 625.275 845.144 622.165 851.36C625.397 849.044 628.629 846.736 631.869 844.42C628.69 857.41 623.054 869.813 615.35 880.774C619.404 879.703 623.161 877.545 626.119 874.588C622.781 881.649 619.449 888.718 616.111 895.779C618.529 894.715 620.948 893.651 623.366 892.588C621.488 901.316 617.16 909.516 611 916.034C614.278 916.819 617.906 916.042 620.567 913.982C620.537 917.701 618.788 921.375 615.913 923.767C620.408 924.702 625.207 924.114 629.344 922.13C635.223 919.308 640.06 918.531 646.144 916.17C645.824 918.267 644.79 920.259 643.246 921.73C646.524 921.586 649.749 920.477 652.411 918.569C652.228 920.266 652.532 922.009 653.278 923.548C655.232 921.828 656.692 919.557 657.43 917.075C661.803 921.526 667.537 926.369 673.553 924.642C673.013 923.057 672.473 921.473 671.926 919.889C679.295 923.827 688.649 921.79 697 920.991Z" fill="#1C1035"/>
<path d="M439.63 827.866C430.08 786.648 424.205 744.58 422.11 702.324C422.931 703.278 423.753 704.239 424.567 705.193C422.618 700.492 421.609 695.416 421.595 690.325C423.154 691.599 424.79 692.588 426.349 693.863C421.567 676.996 417.606 659.894 414.474 642.644C416.144 644.671 417.815 646.697 419.486 648.724C418.65 645.541 418.386 642.213 418.72 638.947C420.37 639.281 422.026 639.608 423.676 639.942C419.36 618.195 413.666 595.597 406.427 574.636C408.188 577.408 411.355 579.24 414.641 579.372C409.539 553.773 404.436 528.174 399.334 502.569C401.304 503.195 403.267 503.815 405.237 504.442C401.812 494.818 398.387 485.194 394.97 475.57C397.914 479.219 400.865 482.861 403.81 486.51C402.585 485.013 402.202 482.868 402.828 481.037C403.009 484.01 405.682 486.622 408.662 486.726C405.272 467.088 400.601 447.674 394.691 428.649C395.784 429.352 397.169 429.589 398.436 429.282C392.06 409.157 385.739 390.745 381.8 370C378.897 390.947 372.59 411.413 363.2 430.362C365.539 430.341 367.864 429.575 369.757 428.203C369.402 435.522 367.439 442.75 364.056 449.247C365.63 448.927 367.14 448.266 368.449 447.332C362.831 465.368 357.214 483.412 351.597 501.448C355.007 498.962 357.819 495.668 359.734 491.9C357.527 510.375 354.868 528.794 351.75 547.137C355.39 545.626 358.028 541.956 358.321 538.028C357.618 543.105 356.908 548.188 356.205 553.265C357.917 552.582 359.344 551.21 360.096 549.525C359.003 581.398 354.764 613.16 347.476 644.211C351.436 642.248 354.402 638.389 355.272 634.051C355.439 641.189 354.242 648.355 351.764 655.047C353.33 654.086 354.896 653.118 356.462 652.15C356.107 658.257 354.311 664.281 351.262 669.58C355.154 668.556 358.258 665.026 358.78 661.036C358.509 681.244 354.207 702.86 348.137 722.135C350.42 722.226 352.717 721.244 354.228 719.531C352.717 726.961 352.306 734.614 353.016 742.163C355.153 738.953 357.297 735.743 359.434 732.532C355.738 760.144 351.68 787.706 347.253 815.213C348.645 813.932 350.037 812.643 351.429 811.362C349.989 819.92 348.179 828.409 346 836.807C352.912 837.629 360.103 836.947 366.862 835.261C366.472 836.188 366.723 837.35 367.467 838.033C373.662 838.506 379.858 838.98 386.053 839.447C387.076 839.523 388.113 839.6 389.122 839.44C392.547 838.889 394.997 835.763 398.283 834.649C401.276 837.204 404.429 839.844 408.258 840.742C412.086 841.64 416.785 840.185 418.226 836.522C426.238 838.541 434.556 839.342 442.812 838.883C443.556 836.097 442.011 829.468 439.63 827.866Z" fill="#1C1035"/>
<path d="M282.839 757.758C273.879 719.34 268.368 680.131 266.402 640.745C267.173 641.635 267.943 642.53 268.707 643.42C266.879 639.038 265.932 634.307 265.919 629.562C267.382 630.75 268.916 631.671 270.379 632.859C265.893 617.139 262.177 601.198 259.238 585.121C260.806 587.01 262.373 588.898 263.94 590.787C263.157 587.821 262.908 584.718 263.222 581.674C264.769 581.986 266.324 582.291 267.871 582.602C263.823 562.332 258.481 541.27 251.689 521.733C253.341 524.317 256.313 526.024 259.395 526.147C254.608 502.288 249.822 478.428 245.035 454.562C246.883 455.146 248.725 455.724 250.573 456.308C247.36 447.338 244.147 438.368 240.941 429.398C243.703 432.799 246.472 436.193 249.234 439.594C248.085 438.199 247.725 436.2 248.313 434.493C248.483 437.264 250.991 439.698 253.786 439.796C250.605 421.492 246.223 403.396 240.679 385.664C241.704 386.32 243.004 386.54 244.193 386.255C238.211 367.497 232.281 350.336 228.585 331C225.862 350.524 219.946 369.6 211.136 387.261C213.331 387.241 215.512 386.527 217.288 385.249C216.955 392.07 215.113 398.808 211.939 404.863C213.415 404.565 214.832 403.948 216.06 403.078C210.79 419.889 205.52 436.706 200.25 453.517C203.45 451.2 206.088 448.13 207.884 444.618C205.814 461.838 203.32 479.006 200.394 496.102C203.809 494.694 206.284 491.273 206.559 487.612C205.899 492.344 205.233 497.082 204.573 501.814C206.18 501.177 207.518 499.899 208.224 498.328C207.199 528.036 203.222 557.64 196.384 586.581C200.1 584.751 202.882 581.155 203.698 577.111C203.855 583.764 202.732 590.443 200.407 596.681C201.876 595.785 203.346 594.883 204.815 593.98C204.482 599.673 202.797 605.287 199.937 610.226C203.587 609.272 206.5 605.982 206.99 602.262C206.735 621.098 202.699 641.245 197.005 659.211C199.147 659.295 201.302 658.38 202.719 656.784C201.302 663.709 200.916 670.842 201.582 677.878C203.587 674.886 205.599 671.894 207.603 668.902C204.136 694.637 200.329 720.327 196.175 745.965C197.481 744.771 198.788 743.57 200.094 742.376C198.742 750.352 197.044 758.264 195 766.092C201.485 766.858 208.23 766.222 214.571 764.651C214.206 765.515 214.441 766.598 215.139 767.234C220.951 767.676 226.763 768.117 232.575 768.552C233.535 768.624 234.508 768.695 235.455 768.546C238.668 768.033 240.967 765.119 244.049 764.08C246.857 766.462 249.815 768.922 253.407 769.759C256.998 770.597 261.406 769.24 262.758 765.826C270.275 767.708 278.078 768.455 285.823 768.026C286.522 765.43 285.072 759.251 282.839 757.758Z" fill="#1C1035"/>
<path d="M552.695 836.977C553.881 849.48 552.021 862.747 550.304 875.178C562.996 879.861 576.37 888.121 587.759 895.42C588.19 876.535 588.262 857.641 587.957 838.757C582.716 836.015 576.748 830.46 570.87 829.849C564.874 829.238 552.128 830.972 552.695 836.977Z" fill="#1C1035"/>
<path d="M485.236 822.513C494.548 808.572 502.17 793.507 507.896 777.75C505.056 777.363 502.215 776.977 499.375 776.59C511.186 764.15 519.5 748.42 523.114 731.648C520.615 733.257 517.694 734.192 514.737 734.344C516.975 730.848 519.222 727.351 521.469 723.855C518.655 724.556 515.509 723.783 513.343 721.85C522.475 713.778 529.981 703.873 535.284 692.907C533.244 691.891 531.194 690.885 529.154 689.869C538.205 675.325 544.3 658.957 546.978 642.041C544.12 645.475 539.122 646.958 534.862 645.636C547.14 624.72 555.059 601.242 557.944 577.162C556.533 577.656 555.122 578.15 553.711 578.645C564.461 545.504 574.241 512.48 579.301 478C584.2 510.017 590.995 541.738 599.642 572.946C596.982 574.114 593.53 572.901 592.173 570.339C593.206 574.906 594.24 579.472 595.274 584.038C593.629 583.283 591.975 582.537 590.33 581.782C593.431 610.725 598.698 639.443 606.078 667.604C604.011 665.483 601.943 663.362 599.876 661.24C600.056 665.231 600.91 669.195 602.393 672.898C600.568 671.649 598.743 670.4 596.919 669.15C601.683 689.905 609.889 709.869 621.089 727.98C619.453 729.077 617.179 729.158 615.471 728.169C616.091 733.895 617.835 739.504 620.568 744.582C619.678 743.387 617.547 744.349 617.224 745.805C616.9 747.261 617.709 748.708 618.482 749.984C621.997 755.791 625.511 761.597 629.017 767.404C625.943 766.254 622.86 765.112 619.785 763.962C619.777 769.229 621.574 774.478 624.819 778.622C621.143 776.564 617.466 774.505 613.781 772.438C616.334 793.39 623.651 813.758 635.012 831.546C631.228 831.69 627.408 830.495 624.379 828.221C623.974 832.517 625.206 836.949 627.785 840.418C622.905 839.402 618.284 838.656 615.255 834.692C616.325 839.097 618.177 843.312 620.693 847.079C615.84 845.452 610.995 843.825 606.141 842.198C606.024 844.841 605.907 847.483 605.79 850.126C595.157 849.703 584.64 846.602 575.472 841.191C572.82 843.924 570.16 846.665 567.508 849.398C565.243 847.609 562.978 845.811 560.713 844.014C557.108 846.378 553.225 848.301 549.163 849.73C550.025 848.193 550.879 846.656 551.733 845.11C547.104 851.213 539.41 854.863 531.752 854.593C531.895 852.265 533.181 850.036 535.131 848.751C519.977 853.955 503.905 856.463 487.888 856.121C487.313 849.002 489.074 841.712 492.84 835.636C490 838.396 485.946 839.861 482 839.555C482.638 836.167 484.966 833.128 488.077 831.645C486.584 832.598 484.706 832.913 482.989 832.49C482.971 829.632 483.636 824.913 485.236 822.513Z" fill="#1C1035"/>
<path d="M296.976 725.317C297.933 735.394 296.433 746.087 295.049 756.106C305.278 759.88 316.058 766.537 325.236 772.42C325.584 757.199 325.642 741.972 325.396 726.752C321.172 724.542 316.362 720.065 311.624 719.573C306.792 719.08 296.52 720.478 296.976 725.317Z" fill="#1C1035"/>
<path d="M242.608 713.66C250.113 702.425 256.256 690.283 260.871 677.584C258.582 677.272 256.293 676.961 254.003 676.649C263.522 666.623 270.223 653.945 273.136 640.428C271.122 641.724 268.767 642.478 266.384 642.601C268.188 639.783 269.999 636.965 271.81 634.147C269.543 634.712 267.007 634.089 265.261 632.531C272.621 626.026 278.67 618.043 282.944 609.205C281.3 608.386 279.648 607.574 278.004 606.756C285.299 595.035 290.21 581.843 292.369 568.209C290.066 570.976 286.038 572.172 282.604 571.107C292.5 554.249 298.882 535.327 301.207 515.919C300.07 516.318 298.933 516.716 297.795 517.115C306.46 490.405 314.341 463.789 318.42 436C322.368 461.804 327.845 487.369 334.814 512.522C332.669 513.463 329.888 512.486 328.794 510.421C329.627 514.101 330.46 517.781 331.293 521.461C329.967 520.853 328.634 520.251 327.309 519.643C329.808 542.97 334.053 566.115 340.001 588.812C338.335 587.102 336.668 585.392 335.002 583.683C335.147 586.899 335.835 590.094 337.031 593.079C335.56 592.072 334.089 591.065 332.619 590.058C336.458 606.785 343.072 622.875 352.099 637.472C350.78 638.356 348.948 638.421 347.571 637.624C348.071 642.239 349.476 646.759 351.679 650.852C350.961 649.889 349.244 650.664 348.984 651.837C348.723 653.011 349.375 654.177 349.998 655.206C352.83 659.886 355.663 664.566 358.488 669.245C356.011 668.318 353.526 667.398 351.048 666.471C351.041 670.716 352.49 674.947 355.105 678.286C352.142 676.628 349.179 674.968 346.209 673.302C348.266 690.189 354.163 706.605 363.32 720.941C360.27 721.057 357.192 720.094 354.75 718.261C354.424 721.724 355.417 725.295 357.496 728.091C353.562 727.273 349.839 726.671 347.397 723.476C348.259 727.026 349.752 730.424 351.78 733.459C347.868 732.148 343.963 730.837 340.051 729.526C339.957 731.655 339.863 733.785 339.769 735.915C331.199 735.575 322.723 733.075 315.334 728.714C313.197 730.917 311.052 733.126 308.915 735.328C307.09 733.887 305.264 732.438 303.439 730.989C300.534 732.894 297.404 734.444 294.13 735.596C294.825 734.357 295.513 733.119 296.202 731.873C292.471 736.792 286.27 739.733 280.097 739.515C280.213 737.639 281.249 735.843 282.821 734.807C270.607 739.001 257.655 741.022 244.745 740.747C244.282 735.009 245.701 729.134 248.737 724.237C246.448 726.461 243.18 727.642 240 727.396C240.514 724.665 242.391 722.216 244.897 721.021C243.695 721.789 242.181 722.042 240.797 721.702C240.782 719.398 241.319 715.595 242.608 713.66Z" fill="#1C1035"/>
<path d="M77.5811 463.327C77.8424 463.312 78.1085 463.341 78.3698 463.308C78.123 463.448 77.8424 463.419 77.5811 463.327Z" fill="#1C1035"/>
<path d="M-74 462.625C-51.478 455.768 -34.3663 437.219 -21.8713 417.271C-20.2647 414.706 -20.1293 412.379 -20.2793 409.359C-21.2859 411.585 -23.0522 413.463 -25.2202 414.59C-25.3847 413.439 -25.4041 412.268 -25.2831 411.111C-27.5866 416.347 -33.1323 419.981 -38.8523 420.005C-33.9792 415.2 -29.7981 409.693 -26.4735 403.707C-28.5012 404.104 -30.5917 404.171 -32.6387 403.905C-32.358 402.178 -30.8724 400.939 -29.527 399.816C-21.2325 392.891 -14.5301 384.069 -10.0828 374.221C-11.6411 375.939 -13.4994 377.381 -15.5512 378.465C-15.2609 377.347 -14.9656 376.229 -14.6704 375.111C-16.4271 376.06 -18.479 376.437 -20.4583 376.181C-20.3276 375.126 -20.197 374.071 -20.0712 373.016C-22.9409 374.874 -26.5509 375.557 -29.9045 374.874C-26.8509 373.055 -24.1604 370.621 -22.0504 367.756C-24.3249 369.058 -26.9477 369.745 -29.5706 369.725C-29.4448 368.719 -29.3238 367.717 -29.198 366.715C-32.2661 368.109 -35.8132 368.051 -39.1378 367.47C-24.8184 359.786 -14.9802 346.942 -9.75864 331.548C-11.9266 335.071 -15.4158 337.767 -19.3743 338.972C-18.9775 337.907 -18.8516 336.746 -19.0113 335.623C-21.8181 337.839 -25.3846 339.083 -28.9173 339.649C-14.3994 326.946 -4.6532 308.91 -1.97708 289.81C-2.80943 291.029 -4.2418 291.823 -5.72261 291.881C-2.5045 286.504 -1.86585 280.494 -2.38365 274.251C-3.24988 275.95 -5.09842 277.106 -7.00509 277.14C-5.18069 275.34 -4.14031 272.77 -4.19838 270.21C-7.40682 273.535 -11.2975 276.206 -15.5561 278.002C-15.4496 274.15 -9.21178 272.195 -9.94251 268.41C-11.6314 270.056 -13.7559 271.241 -16.04 271.822C-13.2429 269.131 -10.2039 265.773 -10.8233 261.94C-13.5478 266.305 -17.3079 269.538 -22.1859 271.183C-16.2723 265.221 -14.477 256.472 -11.7234 248.54C-8.97955 240.638 -5.05492 233.151 -0.109185 226.401C-2.64013 227.388 -5.56301 227.325 -8.05039 226.226C-0.636623 214.999 5.05439 202.635 8.76612 189.7C6.75782 190.556 4.50277 190.817 2.34929 190.45C7.84187 184.197 10.3679 175.438 9.03712 167.221C7.23207 169.994 4.38172 172.075 1.19264 172.951C5.15117 169.278 8.23859 164.676 10.1356 159.619C5.11242 166.34 -2.60612 170.981 -10.8958 172.268C-5.58228 162.551 -1.16889 152.335 2.26216 141.805C0.650682 141.675 -0.956037 141.544 -2.56752 141.408C-0.0801278 135.945 2.85737 130.685 6.20131 125.695C5.02536 125.018 3.53001 124.926 2.27663 125.448C6.55455 118.828 9.57424 111.4 11.118 103.667C9.87912 103.638 8.65484 103.178 7.70635 102.384C11.8149 95.6094 14.9313 88.2296 16.9203 80.5593C15.8266 81.9966 13.7021 82.5337 12.0519 81.7981C15.9959 73.1891 17.5446 65.4463 18.1399 56C21.5951 65.9689 25.0503 75.9378 28.5056 85.9019C28.7572 86.6326 28.9944 87.4988 28.5491 88.1279C28.2927 88.4909 27.7651 88.5054 27.3876 88.336C29.8363 92.522 32.285 96.7032 34.7337 100.889C33.8674 100.187 32.9964 99.4809 32.1302 98.7792C35.1063 104.872 38.0825 110.969 41.0586 117.062C34.4095 112.682 28.8927 106.599 25.1809 99.5583C27.5086 112.682 32.9915 125.231 41.0344 135.858C39.51 135.2 37.9905 134.541 36.4661 133.883C39.3891 139.105 43.1201 143.872 47.4803 147.97C42.0603 145.212 37.1823 141.389 33.2093 136.787C35.1982 144.975 38.6147 152.819 43.2556 159.851C40.202 158.418 37.5212 156.207 35.5371 153.482C37.6373 164.293 41.5619 175.196 47.3594 184.565C44.872 183.457 42.5347 182 40.4392 180.258C42.0023 182.833 43.5605 185.412 45.1236 187.986C44.0783 187.541 43.0379 187.101 41.9926 186.656C50.0935 206.506 62.0853 224.489 73.9947 242.322C69.4555 239.917 65.6953 236.079 63.387 231.492C63.3531 232.885 63.3193 234.279 63.2902 235.673C60.9141 233.074 58.8139 230.219 57.0475 227.175C57.6476 228.244 55.4264 228.322 54.5505 227.465C52.4599 225.418 50.6161 223.11 49.0821 220.618C49.0337 221.91 48.9902 223.207 48.9418 224.499C44.3977 222.97 40.5505 219.49 38.5809 215.12C42.8831 223.937 47.0689 232.827 51.371 241.649C49.9967 241.03 48.6272 240.415 47.2529 239.796C51.5115 248.211 55.77 256.627 60.0334 265.047C60.4738 265.923 60.9238 266.978 60.4544 267.839C60.1592 268.386 59.3511 268.473 58.8575 268.226C67.1182 285.087 79.0131 300.151 93.5212 312.065C91.1645 312.37 88.7013 311.761 86.7559 310.396C88.1012 311.901 89.4465 313.406 90.7966 314.911C86.7897 312.912 82.9668 310.56 79.376 307.884C81.8295 312.854 85.4493 317.243 89.8531 320.607C86.6785 320.408 83.5523 319.503 80.7697 317.969C80.6681 319.987 81.331 322.039 82.5989 323.612C77.1305 320.481 72.1267 316.547 67.7907 311.969C67.4375 313.933 67.6552 315.995 68.4199 317.844C62.6079 315.008 57.4831 310.778 53.5875 305.62C53.5826 307.584 53.5778 309.549 53.573 311.514C51.7292 309.491 49.8806 307.468 48.0368 305.445C53.1229 317.848 58.9348 330.15 65.9711 341.561C73.0074 352.972 82.1198 363.376 93.7002 370.127C90.8112 370.446 87.8109 369.512 85.6138 367.611C88.7449 371.637 92.5679 375.126 96.8603 377.884C91.1355 377.023 85.7541 374.013 82.0327 369.575C82.1682 371.134 82.7247 372.653 83.62 373.94C79.4098 371.893 75.6256 368.97 72.5817 365.414C72.7898 368.482 72.9979 371.55 73.206 374.618C70.9267 372.348 68.8699 369.861 67.0649 367.194C67.7278 367.993 66.6632 369.261 65.6325 369.174C64.5969 369.087 63.8178 368.23 63.1499 367.436C60.6916 364.523 58.2331 361.615 55.7748 358.702C67.994 389.92 93.2115 414.842 123.554 429.103C121.57 429.011 119.585 428.919 117.601 428.827C119.721 431.208 122.387 433.105 125.339 434.32C120.239 435.985 114.214 434.281 110.739 430.197C113.323 435.148 116.571 439.755 120.365 443.853C115.022 440.277 110.275 435.806 106.394 430.681C107.25 434.131 109.084 437.335 111.625 439.822C105.058 436.725 98.9701 432.612 93.6518 427.671C95.4665 431.518 98.3604 434.847 101.912 437.19C93.5356 432.776 86.2187 426.374 80.731 418.66C81.515 424.216 84.1766 429.49 88.1835 433.425C79.9326 427.356 72.6542 419.967 66.7116 411.624C66.6245 415.108 67.6553 418.617 69.6201 421.496C65.0808 419.333 60.9384 416.342 57.459 412.708C58.2381 415.94 59.8205 418.98 62.0224 421.472C58.7607 420.509 55.7701 418.641 53.4763 416.134C53.4956 417.765 53.5101 419.396 53.5294 421.027C51.2743 420.528 49.2031 419.236 47.7658 417.426C52.397 425.469 58.2816 433.391 65.4244 439.314C64.0936 439.624 62.6224 439.271 61.5722 438.39C62.0029 440.118 62.8934 441.729 64.1274 443.016C59.4817 441.352 55.0103 439.188 50.8194 436.585C59.051 447.749 70.5976 456.436 83.6104 461.246C81.5682 462.412 79.0712 462.756 76.7919 462.189C76.6999 462.707 77.1112 463.157 77.5951 463.327C74.6286 463.501 71.6042 462.64 69.2426 460.834C77.0483 469.245 89.9111 469.894 101.38 469.961C99.3719 471.916 96.9136 473.407 94.252 474.293C96.2264 475.052 98.2055 475.807 100.18 476.567C97.5135 476.988 94.8471 477.404 92.1758 477.825C93.8454 478.803 95.5101 479.785 97.1796 480.763C87.5882 483.366 77.2079 482.993 67.8294 479.703C70.1281 482.103 72.7897 484.155 75.6981 485.771C72.5235 486.666 68.9184 485.858 66.4261 483.7C73.3366 492.977 82.8748 502.273 92.7421 508.313C89.2868 509.082 85.5751 508.637 82.4006 507.069C83.3829 509.203 84.6314 511.216 86.1074 513.045C83.2571 512.61 80.5955 511.071 78.7904 508.826C78.8921 510.229 78.9936 511.637 79.0953 513.041C76.7434 512.426 74.5416 511.26 72.7027 509.668C85.0331 526.416 105.116 537.203 125.891 538.239C123.936 539.463 122.867 540.111 120.65 540.741C123.375 540.441 126.181 540.983 128.596 542.279C125.896 543.615 122.707 543.93 119.798 543.15C123.602 546.146 128.209 548.106 133 548.774C127.357 550.279 121.158 549.577 116 546.843C119.048 553.018 124.11 558.176 130.227 561.346C118.903 561.728 108.223 556.565 98.0749 551.518C99.396 554.174 101.24 556.579 103.461 558.549C99.6622 558.476 95.8876 557.233 92.7856 555.036C93.4099 556.163 94.0293 557.296 94.6535 558.423C85.0234 556.899 75.8579 552.563 68.5748 546.088C68.4344 548.164 69.2715 550.288 70.7911 551.706C66.097 551.363 61.5869 548.972 58.6688 545.28C72.5865 570.676 97.8184 591.476 125.983 598.212C120.984 599.47 116.561 600.36 111.765 598.478C116.053 604.063 122.368 608.055 129.25 609.541C125.809 610.141 122.228 609.889 118.908 608.805C119.344 610.446 120.471 611.892 121.957 612.71C119.198 612.517 116.517 611.297 114.567 609.333C114.514 610.639 114.848 611.955 115.516 613.078C110.333 612.531 105.31 610.518 101.182 607.334C102.406 610.218 104.105 612.904 106.181 615.246C100.354 613.586 94.7262 611.229 89.4563 608.234C90.2983 610.625 91.5274 612.884 93.076 614.893C89.6836 613.959 86.4462 612.449 83.5475 610.45C83.3394 612.894 83.8716 615.401 85.0621 617.55C81.7811 616.722 78.6549 615.27 75.9013 613.296C75.6787 614.622 75.8288 616.011 76.3224 617.259C70.5346 614.622 65.3227 610.731 61.1416 605.94C61.6594 612.028 64.4033 617.898 68.7442 622.195C66.0342 620.864 63.3241 619.534 60.6141 618.203C61.4271 619.8 62.2401 621.392 63.0531 622.989C57.0475 621.334 51.5501 617.864 47.4706 613.151C47.5238 616.267 48.9225 619.34 51.2405 621.426C46.1447 619.771 41.4844 616.867 37.6517 613.127C37.5404 620.11 37.4727 627.078 37.4243 634.042C38.668 636.718 39.8294 639.37 41.4651 641.901C43.4008 644.896 45.5834 647.722 47.7611 650.544C47.4223 650.636 47.0352 650.5 46.8223 650.219C46.8271 650.437 46.8319 650.66 46.8367 650.878C44.0203 648.129 41.4264 645.153 39.0939 641.983C38.4551 641.112 37.8744 640.202 37.3663 639.249C37.2404 663.155 37.3856 687.012 37.4098 711.069C37.5356 711.18 37.6711 711.354 37.884 711.582C38.9535 712.724 39.8924 713.943 41.0586 714.998C41.2038 715.134 41.3634 715.284 41.3828 715.482C41.407 715.68 41.1941 715.898 41.0199 715.801C41.0103 715.966 40.9956 716.13 40.986 716.29C40.8892 716.305 40.7876 716.276 40.7198 716.208C40.6956 716.392 40.6667 716.571 40.6425 716.755C39.5149 716.005 38.4454 715.182 37.405 714.316C37.4098 725.19 37.3953 736.097 37.2985 747.082C36.8291 747.479 37.4002 747.653 36.8098 747.494C33.3207 746.526 28.6072 745.969 25.1616 747.082C25.3068 730.179 25.2825 713.459 25.239 696.793C24.1743 697.359 23.1098 697.93 22.0403 698.496C21.416 698.83 20.7772 699.169 20.2836 699.682C20.1336 699.478 19.8529 699.377 19.606 699.445C19.4512 699.198 19.2964 698.946 19.1416 698.699C19.0932 698.622 19.0447 698.54 19.0689 698.453C19.0834 698.385 19.1415 698.336 19.1948 698.288C20.8595 696.894 22.4758 695.326 24.2421 694.059C24.6438 693.768 24.9584 693.637 25.2294 693.584C25.1519 666.431 25.0697 639.418 25.5246 612.251C25.0891 614.336 24.1841 616.32 22.8484 617.98C21.9144 618.193 21.0336 616.949 21.5466 616.141C17.8881 621.74 11.7907 625.679 5.1851 626.71C6.35137 623.478 7.51759 620.245 8.68386 617.017C5.71738 621.426 0.59253 624.305 -4.71616 624.538C-3.42891 622.844 -2.13677 621.15 -0.849519 619.456C-10.8426 625.825 -22.9747 628.772 -34.7729 627.693C-34.1293 626.434 -33.0017 625.476 -31.7096 624.9C-35.1601 625.597 -38.8427 625.157 -41.9591 623.507C-40.5025 622.316 -38.8426 621.368 -37.0763 620.714C-39.8589 621.203 -42.7868 620.821 -45.3516 619.635C-42.9948 617.966 -40.3235 616.741 -37.5167 616.054C-40.3283 616.301 -44.3207 615.454 -44.0449 612.647C-42.0317 612.255 -40.5799 611.767 -38.5329 611.626C-28.6269 610.934 -20.5889 603.603 -13.843 596.315C-11.0991 593.353 -8.29226 590.038 -7.8906 586.017C-10.7458 589.007 -15.798 586.714 -19.8436 587.594C-18.6822 586.544 -17.7918 585.199 -17.2788 583.718C-19.1468 584.759 -21.2809 585.32 -23.415 585.325C-22.1084 583.989 -21.1067 582.353 -20.5163 580.577C-23.2892 581.836 -28.0269 583.171 -31.0563 583.462C-13.0736 574.19 1.04747 557.688 7.43047 538.49C5.35926 541.404 1.92334 543.305 -1.64804 543.513C-1.63836 541.326 -1.19305 539.144 -0.341342 537.13C-2.01573 538.994 -4.06758 540.518 -6.32752 541.592C-5.86295 539.569 -5.70809 537.479 -5.86779 535.408C-11.0071 543.122 -19.0356 548.866 -27.9979 551.237C-27.6882 549.969 -27.3784 548.701 -27.0687 547.428C-29.0335 548.449 -31.003 549.475 -32.9678 550.497C-31.5547 548.348 -30.1417 546.199 -28.7287 544.051C-31.0515 545.652 -34.1679 546.035 -36.8053 545.033C-20.9083 532.001 -8.86331 514.323 -2.55289 494.763C-4.86607 495.963 -7.45993 496.611 -10.0635 496.65C-7.53736 494.55 -5.66942 491.661 -4.78867 488.491C-8.32134 492.599 -14.0946 494.661 -19.4323 493.717C-18.5129 492.885 -17.9225 491.694 -17.8112 490.46C-20.6567 491.869 -24.0103 492.222 -27.0881 491.438C-25.7476 490.446 -24.7749 488.965 -24.3974 487.339C-25.9121 488.985 -28.3947 489.662 -30.5385 489.018C-27.8818 487.804 -25.6604 485.66 -24.349 483.052C-26.8702 485.752 -30.495 486.642 -34.1873 486.788C-21.5133 473.605 -13.3058 459.475 -8.92143 441.719C-11.8105 446.476 -16.6304 450.024 -22.0358 451.364C-21.0389 449.825 -20.4776 448.01 -20.4292 446.181C-22.8633 450.077 -26.7349 453.053 -31.1241 454.403C-31.3902 453.29 -31.6516 452.177 -31.9177 451.059C-35.1842 454.248 -38.1701 457.718 -40.8462 461.41C-39.6945 459.189 -39.0654 456.687 -39.2202 454.185C-44.166 462.596 -52.6637 468.839 -62.1632 471.05C-58.9306 468.892 -56.3899 465.722 -54.9817 462.097C-57.924 463.452 -60.9823 464.561 -64.1085 465.403C-61.7469 464.483 -59.8644 462.422 -59.1627 459.988C-63.5665 462.151 -69.1123 462.891 -74 462.625Z" fill="#1C1035"/>
<path d="M679.12 741.755C678.657 742.649 678.113 743.503 677.408 744.226C677.956 743.39 678.533 742.569 679.12 741.755Z" fill="#1C1035"/>
<path d="M768.442 743.196C768.639 743.185 768.84 743.207 769.037 743.182C768.851 743.287 768.639 743.266 768.442 743.196Z" fill="#1C1035"/>
<path d="M654.123 742.667C671.109 737.495 684.014 723.506 693.437 708.462C694.649 706.528 694.751 704.773 694.638 702.495C693.879 704.174 692.547 705.59 690.912 706.44C690.788 705.572 690.773 704.689 690.864 703.816C689.127 707.765 684.945 710.506 680.631 710.524C684.306 706.9 687.459 702.747 689.967 698.232C688.437 698.532 686.861 698.583 685.317 698.382C685.529 697.079 686.649 696.145 687.664 695.298C693.919 690.075 698.974 683.422 702.328 675.995C701.153 677.29 699.751 678.378 698.204 679.196C698.423 678.353 698.646 677.509 698.868 676.666C697.543 677.382 695.996 677.666 694.503 677.473C694.602 676.677 694.7 675.882 694.795 675.086C692.631 676.488 689.908 677.002 687.379 676.488C689.682 675.115 691.711 673.279 693.302 671.119C691.587 672.101 689.609 672.619 687.631 672.604C687.726 671.845 687.817 671.09 687.912 670.334C685.598 671.385 682.923 671.342 680.415 670.904C691.215 665.108 698.635 655.422 702.573 643.812C700.937 646.469 698.306 648.502 695.321 649.411C695.62 648.608 695.715 647.732 695.594 646.885C693.478 648.557 690.788 649.495 688.124 649.922C699.073 640.341 706.423 626.739 708.441 612.334C707.813 613.253 706.733 613.852 705.616 613.896C708.043 609.841 708.525 605.308 708.135 600.6C707.481 601.881 706.087 602.753 704.649 602.779C706.025 601.421 706.81 599.483 706.766 597.552C704.346 600.06 701.412 602.074 698.2 603.428C698.281 600.523 702.985 599.049 702.434 596.195C701.16 597.436 699.558 598.33 697.835 598.768C699.945 596.739 702.237 594.206 701.77 591.315C699.715 594.607 696.879 597.045 693.2 598.286C697.66 593.79 699.014 587.191 701.091 581.209C703.16 575.249 706.12 569.603 709.85 564.512C707.941 565.257 705.737 565.209 703.861 564.381C709.452 555.913 713.744 546.589 716.543 536.833C715.029 537.479 713.328 537.676 711.704 537.399C715.846 532.683 717.752 526.077 716.748 519.88C715.387 521.972 713.237 523.541 710.832 524.201C713.817 521.431 716.146 517.961 717.576 514.147C713.788 519.216 707.967 522.716 701.715 523.687C705.722 516.358 709.051 508.654 711.638 500.712C710.423 500.614 709.211 500.515 707.996 500.413C709.872 496.293 712.087 492.325 714.609 488.562C713.722 488.052 712.595 487.982 711.649 488.376C714.876 483.384 717.153 477.781 718.317 471.949C717.383 471.927 716.46 471.581 715.744 470.982C718.843 465.872 721.193 460.307 722.693 454.522C721.868 455.606 720.266 456.011 719.022 455.456C721.996 448.964 723.164 443.124 723.613 436C726.219 443.518 728.825 451.037 731.431 458.551C731.62 459.102 731.799 459.756 731.463 460.23C731.27 460.504 730.872 460.515 730.587 460.387C732.434 463.544 734.281 466.697 736.128 469.854C735.474 469.325 734.817 468.792 734.164 468.263C736.409 472.858 738.653 477.457 740.898 482.051C735.883 478.749 731.722 474.161 728.923 468.851C730.679 478.749 734.814 488.212 740.879 496.227C739.73 495.73 738.584 495.234 737.434 494.738C739.639 498.676 742.452 502.271 745.741 505.362C741.653 503.282 737.974 500.398 734.978 496.928C736.478 503.103 739.055 509.019 742.555 514.322C740.252 513.242 738.23 511.574 736.733 509.519C738.317 517.672 741.277 525.895 745.65 532.961C743.774 532.125 742.011 531.026 740.431 529.713C741.609 531.654 742.785 533.599 743.963 535.541C743.175 535.205 742.39 534.873 741.602 534.537C747.712 549.508 756.756 563.07 765.737 576.519C762.314 574.706 759.478 571.811 757.737 568.352C757.712 569.403 757.686 570.454 757.664 571.505C755.872 569.545 754.288 567.392 752.956 565.096C753.409 565.903 751.734 565.961 751.073 565.315C749.496 563.771 748.106 562.03 746.949 560.151C746.912 561.125 746.88 562.103 746.843 563.078C743.416 561.924 740.515 559.3 739.029 556.005C742.274 562.654 745.431 569.359 748.675 576.012C747.639 575.545 746.606 575.082 745.569 574.614C748.781 580.961 751.993 587.308 755.208 593.658C755.54 594.319 755.88 595.115 755.526 595.764C755.303 596.177 754.694 596.242 754.321 596.056C760.551 608.772 769.522 620.133 780.464 629.119C778.686 629.348 776.829 628.889 775.362 627.859C776.376 628.994 777.391 630.129 778.409 631.264C775.387 629.757 772.504 627.983 769.796 625.965C771.646 629.713 774.376 633.024 777.697 635.56C775.303 635.41 772.945 634.728 770.847 633.571C770.77 635.093 771.27 636.64 772.226 637.827C768.102 635.465 764.329 632.498 761.058 629.046C760.792 630.527 760.956 632.082 761.533 633.476C757.15 631.338 753.285 628.148 750.347 624.257C750.343 625.739 750.339 627.221 750.336 628.702C748.945 627.177 747.551 625.651 746.16 624.126C749.996 633.48 754.38 642.757 759.686 651.363C764.993 659.969 771.865 667.816 780.599 672.907C778.42 673.148 776.157 672.444 774.5 671.009C776.862 674.046 779.745 676.677 782.982 678.758C778.665 678.108 774.606 675.838 771.799 672.491C771.902 673.666 772.321 674.812 772.996 675.783C769.821 674.239 766.967 672.035 764.672 669.352C764.829 671.666 764.986 673.98 765.142 676.294C763.423 674.582 761.872 672.706 760.511 670.696C761.011 671.298 760.208 672.254 759.431 672.188C758.65 672.123 758.062 671.477 757.558 670.878C755.704 668.681 753.85 666.487 751.996 664.29C761.212 687.834 780.23 706.63 803.114 717.386C801.617 717.316 800.121 717.247 798.624 717.178C800.223 718.973 802.234 720.404 804.46 721.32C800.614 722.576 796.07 721.291 793.449 718.211C795.398 721.944 797.847 725.419 800.708 728.51C796.679 725.813 793.099 722.44 790.172 718.575C790.818 721.178 792.201 723.594 794.117 725.47C789.165 723.134 784.573 720.032 780.562 716.305C781.931 719.207 784.113 721.718 786.792 723.484C780.475 720.156 774.956 715.327 770.818 709.51C771.409 713.7 773.416 717.678 776.438 720.645C770.216 716.068 764.726 710.495 760.245 704.203C760.179 706.831 760.956 709.477 762.438 711.648C759.015 710.017 755.891 707.762 753.266 705.021C753.854 707.459 755.047 709.751 756.708 711.63C754.248 710.904 751.993 709.495 750.263 707.605C750.277 708.835 750.288 710.064 750.303 711.294C748.602 710.918 747.04 709.944 745.956 708.579C749.449 714.645 753.887 720.619 759.274 725.086C758.27 725.32 757.161 725.054 756.369 724.389C756.693 725.692 757.365 726.908 758.296 727.879C754.792 726.623 751.42 724.992 748.259 723.028C754.467 731.448 763.175 737.999 772.989 741.627C771.449 742.506 769.566 742.766 767.847 742.339C767.778 742.729 768.088 743.068 768.453 743.196C766.215 743.328 763.934 742.678 762.153 741.317C768.04 747.66 777.741 748.149 786.391 748.2C784.876 749.674 783.022 750.798 781.015 751.466C782.504 752.039 783.997 752.609 785.486 753.182C783.475 753.499 781.464 753.813 779.449 754.131C780.708 754.868 781.964 755.609 783.223 756.346C775.989 758.309 768.161 758.028 761.088 755.547C762.821 757.357 764.829 758.904 767.022 760.123C764.628 760.798 761.909 760.189 760.029 758.561C765.241 765.558 772.434 772.569 779.876 777.124C777.27 777.704 774.471 777.368 772.077 776.185C772.818 777.795 773.759 779.313 774.872 780.693C772.723 780.364 770.716 779.204 769.354 777.51C769.431 778.569 769.507 779.631 769.584 780.689C767.81 780.226 766.15 779.346 764.763 778.145C774.062 790.777 789.208 798.912 804.876 799.693C803.402 800.616 802.595 801.105 800.924 801.58C802.979 801.354 805.095 801.762 806.917 802.74C804.88 803.748 802.475 803.985 800.281 803.397C803.15 805.657 806.625 807.135 810.238 807.638C805.982 808.773 801.307 808.244 797.416 806.182C799.716 810.839 803.533 814.73 808.146 817.12C799.606 817.408 791.551 813.514 783.898 809.708C784.894 811.711 786.285 813.525 787.96 815.011C785.095 814.956 782.248 814.018 779.909 812.361C780.38 813.211 780.847 814.065 781.318 814.916C774.055 813.766 767.143 810.496 761.65 805.613C761.544 807.179 762.175 808.781 763.321 809.85C759.781 809.591 756.38 807.788 754.179 805.003C764.675 824.157 783.705 839.843 804.946 844.923C801.176 845.872 797.84 846.544 794.223 845.124C797.457 849.336 802.219 852.347 807.409 853.467C804.814 853.92 802.114 853.73 799.61 852.912C799.938 854.15 800.789 855.241 801.909 855.858C799.829 855.712 797.807 854.792 796.336 853.31C796.296 854.296 796.548 855.288 797.051 856.135C793.143 855.723 789.354 854.204 786.241 851.803C787.164 853.978 788.446 856.004 790.011 857.77C785.617 856.518 781.373 854.741 777.398 852.482C778.033 854.285 778.96 855.989 780.128 857.504C777.57 856.799 775.128 855.661 772.942 854.153C772.785 855.996 773.186 857.887 774.084 859.507C771.61 858.883 769.252 857.788 767.175 856.299C767.007 857.299 767.121 858.347 767.493 859.288C763.128 857.299 759.197 854.365 756.044 850.752C756.434 855.343 758.504 859.77 761.778 863.011C759.734 862.007 757.69 861.004 755.646 860C756.259 861.204 756.872 862.405 757.485 863.61C752.956 862.361 748.81 859.745 745.733 856.19C745.774 858.54 746.828 860.858 748.577 862.431C744.734 861.183 741.219 858.993 738.328 856.172C738.244 861.438 738.193 866.694 738.157 871.945C739.095 873.964 739.971 875.964 741.204 877.873C742.664 880.132 744.31 882.263 745.953 884.391C745.697 884.46 745.405 884.358 745.245 884.146C745.248 884.311 745.252 884.478 745.255 884.643C743.131 882.57 741.175 880.325 739.416 877.935C738.934 877.278 738.496 876.591 738.113 875.872C738.018 893.902 738.128 911.895 738.146 930.037C738.241 930.121 738.343 930.253 738.504 930.424C739.31 931.285 740.018 932.205 740.898 933.001C741.007 933.103 741.128 933.216 741.142 933.366C741.16 933.515 741 933.68 740.869 933.607C740.861 933.731 740.85 933.855 740.843 933.975C740.77 933.986 740.693 933.964 740.642 933.913C740.624 934.052 740.602 934.187 740.584 934.326C739.733 933.76 738.927 933.139 738.142 932.486C738.146 940.687 738.135 948.913 738.062 957.198C737.708 957.497 738.139 957.629 737.693 957.508C735.062 956.778 731.507 956.359 728.909 957.198C729.018 944.45 729 931.84 728.967 919.271C728.164 919.698 727.361 920.128 726.555 920.555C726.084 920.807 725.602 921.063 725.23 921.45C725.117 921.296 724.905 921.22 724.719 921.271C724.602 921.085 724.485 920.895 724.368 920.709C724.332 920.65 724.295 920.588 724.314 920.523C724.325 920.471 724.368 920.435 724.409 920.398C725.664 919.347 726.883 918.165 728.215 917.209C728.518 916.99 728.755 916.891 728.96 916.851C728.901 896.373 728.839 876 729.182 855.511C728.854 857.084 728.171 858.58 727.164 859.832C726.46 859.993 725.795 859.055 726.182 858.445C723.423 862.668 718.825 865.639 713.843 866.416C714.722 863.978 715.602 861.54 716.481 859.106C714.244 862.431 710.379 864.602 706.375 864.778C707.346 863.5 708.321 862.223 709.292 860.945C701.755 865.748 692.605 867.971 683.707 867.157C684.193 866.208 685.043 865.486 686.018 865.051C683.415 865.577 680.638 865.245 678.288 864C679.386 863.102 680.638 862.387 681.97 861.894C679.872 862.263 677.664 861.975 675.729 861.08C677.507 859.821 679.521 858.898 681.638 858.38C679.518 858.566 676.507 857.927 676.715 855.81C678.233 855.515 679.328 855.146 680.872 855.04C688.343 854.518 694.405 848.989 699.492 843.493C701.562 841.259 703.678 838.759 703.981 835.726C701.828 837.982 698.018 836.252 694.967 836.916C695.843 836.124 696.514 835.109 696.901 833.993C695.492 834.777 693.883 835.201 692.273 835.204C693.259 834.197 694.014 832.963 694.459 831.624C692.368 832.573 688.795 833.58 686.51 833.799C700.073 826.806 710.722 814.361 715.536 799.883C713.974 802.08 711.383 803.514 708.689 803.671C708.697 802.021 709.033 800.375 709.675 798.857C708.412 800.262 706.865 801.412 705.16 802.222C705.511 800.697 705.627 799.12 705.507 797.558C701.631 803.376 695.576 807.708 688.817 809.496C689.05 808.54 689.284 807.584 689.518 806.624C688.036 807.394 686.551 808.168 685.069 808.938C686.134 807.317 687.2 805.697 688.266 804.076C686.514 805.284 684.164 805.573 682.175 804.817C694.164 794.989 703.248 781.656 708.007 766.904C706.262 767.809 704.306 768.299 702.343 768.328C704.248 766.744 705.657 764.565 706.321 762.174C703.657 765.273 699.302 766.828 695.277 766.116C695.97 765.488 696.416 764.59 696.499 763.66C694.353 764.722 691.824 764.988 689.503 764.397C690.514 763.649 691.248 762.532 691.532 761.306C690.39 762.547 688.518 763.058 686.901 762.572C688.905 761.656 690.58 760.039 691.569 758.072C689.667 760.109 686.934 760.78 684.149 760.89C693.707 750.948 699.897 740.291 703.204 726.9C701.025 730.488 697.39 733.163 693.313 734.174C694.065 733.014 694.489 731.645 694.525 730.265C692.689 733.203 689.769 735.448 686.459 736.466C686.258 735.627 686.061 734.787 685.861 733.944C683.397 736.349 681.145 738.966 679.127 741.751C679.996 740.076 680.47 738.189 680.353 736.302C676.623 742.645 670.215 747.353 663.05 749.021C665.488 747.393 667.404 745.003 668.466 742.269C666.247 743.291 663.941 744.127 661.583 744.762C663.364 744.068 664.784 742.514 665.313 740.678C661.992 742.309 657.809 742.868 654.123 742.667Z" fill="#1C1035"/>
<path d="M869.079 679.306C869.72 679.79 870.403 680.214 871.159 680.483C870.455 680.108 869.775 679.695 869.079 679.306Z" fill="#1C1035"/>
<path d="M850.406 435.983C849.843 435.568 849.281 435.153 848.718 434.74C849.217 435.236 849.768 435.678 850.406 435.983Z" fill="#1C1035"/>
<path d="M880.133 648.867C877.537 646.265 875.261 643.338 873.381 640.179C872.391 638.521 871.483 636.652 871.748 634.739C872.489 635.431 873.496 635.832 874.511 635.838C874.283 635.322 874.197 634.748 874.26 634.188C875.708 635.604 877.889 636.225 879.865 635.78C879.403 635.351 879.357 634.549 879.77 634.073C881.76 635.994 885.316 637.191 888.08 637.191C881.382 632.308 875.977 625.673 872.547 618.128C873.738 618.021 874.872 617.395 875.599 616.446C869.723 611.124 865.05 604.484 862.019 597.158C864.566 599.612 867.534 601.631 870.756 603.1C870.594 602.399 870.43 601.698 870.268 600.997C871.86 602.015 873.917 602.272 875.714 601.683C865.717 593.327 859.702 581.668 857.06 568.907C858.387 571.221 860.675 572.963 863.256 573.632C862.172 571.945 861.09 570.254 860.005 568.567C862.322 570.352 864.739 572.005 867.242 573.514C868.589 574.324 870.28 575.106 871.656 574.344C869.334 573.017 867.332 571.14 865.858 568.91C868.688 570.505 872.16 571.786 875.105 570.416C874.171 568.973 872.873 567.814 871.633 566.623C866.207 561.405 861.655 555.278 858.231 548.575C857.499 547.141 856.804 545.609 856.87 544.003C859.685 547.404 864.329 548.543 868.641 549.489C869.071 549.584 869.795 549.613 870.19 549.417C865.927 548.834 862.223 546.033 859.619 542.607C857.014 539.183 855.356 535.15 853.726 531.167C853.507 530.628 853.282 530.065 853.319 529.485C854.937 531.207 857.68 531.752 859.835 530.78C854.906 527.204 851.64 521.423 851.121 515.354C852.552 516.456 854.294 517.146 856.091 517.319C855.63 516.592 855.552 515.631 855.895 514.841C859.175 518.164 864.525 519.07 869.149 518.426C865.492 515.357 861.984 512.014 859.466 507.962C856.948 503.906 855.477 499.048 856.175 494.327C857.458 495.025 858.578 496.014 859.431 497.2C856.08 492.103 854.343 485.959 854.534 479.861C857.181 483.268 858.909 487.064 859.319 491.359C858.226 480.106 850.752 470.074 850.469 458.77C851.055 460.42 852.765 461.597 854.516 461.553C851.309 457.53 848.987 452.805 847.758 447.812C847.426 446.459 847.259 444.806 848.303 443.886C849.786 446.214 851.072 449.041 852.552 451.368C850.983 447.8 849.417 444.232 847.847 440.667C846.82 438.328 845.785 435.657 846.78 433.306C847.426 433.782 848.075 434.258 848.721 434.737C847.579 433.603 846.823 432.071 846.751 430.462C847.821 432.051 850.045 432.749 851.831 432.054C849.313 428.656 847.268 424.906 845.771 420.952C847.423 421.408 849.22 421.31 850.815 420.678C847.568 414.69 845.272 408.185 844.04 401.482C844.571 402.526 845.808 403.161 846.965 402.982C845.303 398.935 843.642 394.885 841.983 390.838C843.117 390.893 844.253 390.945 845.387 391C838.046 378.579 834.29 364.425 833.979 350C829.557 364.61 824.267 378.957 818.149 392.944C821.319 392.326 824.152 390.157 825.571 387.256C823.624 394.588 820.361 401.565 815.983 407.761C817.814 407.441 819.427 406.077 820.047 404.323C818.994 409.209 817.212 413.94 814.771 418.304C816.003 417.632 817.235 416.957 818.469 416.285C814.004 427.517 809.539 438.746 805.074 449.978C808.498 445.369 811.921 440.762 815.342 436.153C815.795 440.457 814.76 444.907 812.452 448.568C814.832 448.294 816.958 446.462 817.581 444.146C815.758 451.19 813.173 458.502 809.311 464.666C809.923 465.355 811.206 465.223 811.665 464.426C809.744 469.864 806.141 474.617 804.514 480.15C803.565 483.377 803.32 486.767 802.622 490.058C799.781 503.436 789.826 513.987 780.285 523.786C783.599 522.664 786.584 520.581 788.777 517.852C786.475 524.391 782.682 530.397 777.767 535.286C780.492 534.124 783.002 532.456 785.131 530.394C785.33 531.239 785.529 532.084 785.731 532.932C790.773 530.619 794.995 526.604 797.626 521.72C797.369 522.528 798.31 523.627 799.288 523.535C800.441 523.425 801.269 522.416 801.961 521.49C804.932 517.503 807.901 513.514 810.872 509.528C811.255 509.011 812.363 508.861 812.631 509.444C812.899 510.027 812.694 510.71 812.487 511.316C804.416 534.646 790.501 555.927 772.37 572.68C774.49 573.9 777.542 573.015 778.681 570.851C778.355 573.038 777.219 575.094 775.54 576.534C777.994 576.404 780.386 575.29 782.064 573.491C781.88 574.76 781.447 575.991 780.792 577.096C785.185 575.152 788.935 571.783 791.335 567.621C791.523 569.573 790.992 571.59 789.858 573.193C795.893 569.282 800.675 563.473 803.358 556.804C797.199 574.356 787.21 590.18 774.383 603.648C775.684 603.749 776.982 603.849 778.283 603.95C776.668 607.954 774.328 611.664 771.412 614.848C776.411 613.789 781.089 611.257 784.704 607.645C784.438 609.595 783.486 611.444 782.056 612.794C786.489 612.217 790.666 609.852 793.444 606.345C789.737 615.563 783.671 623.374 776.166 629.885C777.487 629.836 778.808 629.787 780.129 629.737C779.875 631.56 778.871 633.265 777.4 634.37C779.379 634.627 781.433 634.272 783.215 633.372C781.935 635.085 780.34 636.565 778.531 637.707C780.951 638.059 783.495 637.456 785.503 636.06C784.897 637.252 784.026 638.31 782.97 639.129C786.628 638.939 790.213 637.557 793.054 635.25C792.898 637.84 791.006 640.24 788.523 640.993C790.204 641.163 791.926 640.906 793.481 640.251C787.556 645.7 780.873 650.321 773.682 653.941C775.895 655.126 778.603 655.34 780.974 654.518C780.184 655.646 779.194 656.632 778.061 657.417C784.115 658.732 790.677 657.532 795.875 654.163C794.6 656.456 792.688 658.392 790.412 659.695C791.877 659.975 793.438 659.742 794.759 659.044C794.029 662.964 790.343 665.545 786.87 667.509C783.002 669.699 779.013 671.672 774.925 673.414C776.52 673.87 778.202 674.025 779.855 673.867C779.122 674.568 778.39 675.269 777.66 675.97C781.245 676.304 784.923 675.583 788.116 673.919C786.841 676.371 784.698 678.364 782.16 679.457C783.717 680.161 785.676 679.866 786.962 678.739C786.492 679.405 786.019 680.074 785.549 680.74C789.801 681.245 794.251 679.734 797.315 676.74C792.982 682.261 787.112 687.536 781.012 691.006C780.559 691.263 780.074 691.546 779.855 692.019C779.52 692.748 780.002 693.645 780.697 694.049C781.392 694.453 782.235 694.488 783.036 694.517C781.923 695.419 780.81 696.322 779.696 697.225C780.64 697.064 781.629 697.182 782.509 697.563C781.283 698.803 780.054 700.043 778.825 701.284C783.916 701.589 788.967 699.864 793.354 697.266C797.741 694.667 801.56 691.223 805.325 687.781C802.302 692.255 798.477 696.181 794.087 699.322C795.094 699.296 796.106 699.461 797.055 699.804C795.924 700.782 794.794 701.76 793.663 702.737C795.468 702.844 797.303 702.313 798.777 701.266C800.381 702.772 802.985 702.106 804.973 701.162C807.549 699.939 809.972 698.399 812.172 696.585C812.207 697.292 812.244 697.998 812.279 698.702C812.605 698.731 812.931 698.676 813.257 698.662C812.726 719.626 812.573 740.544 811.994 761.511C811.818 767.923 811.682 774.335 811.526 780.747C808.737 782.294 806.118 784.538 803.32 786.052C803.473 787.038 803.629 788.025 803.781 789.014C803.825 789.3 803.929 789.649 804.214 789.698C804.347 789.721 804.48 789.666 804.604 789.611C806.525 788.766 808.359 787.719 810.067 786.499C810.505 786.185 810.941 785.853 811.267 785.426C811.339 785.334 811.359 785.218 811.42 785.12C810.886 807.608 810.462 830.098 810.145 852.594C808.694 853.993 807.246 855.394 805.795 856.793C805.03 857.532 804.211 858.648 804.788 859.539C804.927 859.404 805.137 859.352 805.322 859.404C805.599 859.966 806.38 860.529 806.657 861.091C807.658 859.32 808.841 857.659 810.101 856.064C810.038 860.676 809.977 865.288 809.923 869.9C807.901 871.374 805.939 872.932 804.113 874.645C804.376 875.251 804.327 876.318 803.931 876.846C804.206 877.576 804.076 878.444 803.6 879.061C805.954 878.121 807.935 876.465 809.859 874.81C809.674 891.052 809.516 907.294 809.412 923.534L833.613 924.751C832.505 901.11 831.859 873.03 831.464 843.822C831.507 843.831 831.55 843.839 831.593 843.848C832.998 844.18 833.953 846.052 835.358 845.711C835.381 845.322 835.407 844.935 835.43 844.546C836.01 844.485 836.592 844.422 837.172 844.361C835.026 842.807 833.111 840.952 831.403 838.927C831.146 818.707 831.005 798.048 830.904 778.019C831.804 778.997 832.966 779.934 833.558 780.508C833.497 780.286 833.78 780.119 834.008 780.127C834.236 780.139 834.469 780.237 834.688 780.173C834.988 780.09 835.231 779.718 835.525 779.822C835.536 779.314 835.265 778.849 834.994 778.42C833.788 776.513 832.39 774.733 830.878 773.055C830.783 753.296 830.725 734.276 830.633 717.013C832.865 718.596 835.098 720.183 837.331 721.769C839.214 723.104 841.127 724.46 843.304 725.23C843.074 724.881 842.843 724.532 842.612 724.18C843.457 724.276 844.302 724.371 845.15 724.469C842.064 721.795 838.828 719.291 835.461 716.978C834.025 715.991 832.283 714.451 830.618 713.788C830.575 705.971 830.52 698.569 830.454 691.629C830.618 691.378 830.8 691.142 830.947 690.879C831.305 692.122 831.66 693.366 832.017 694.609C833.105 693.487 834.189 692.365 835.277 691.24C836.439 692.91 837.636 694.618 839.301 695.792C840.962 696.965 843.215 697.522 845.064 696.674C843.258 694.819 841.799 692.63 840.775 690.253C844.897 693.005 849.258 695.843 854.199 696.239C853.861 695.581 853.527 694.923 853.189 694.263C855.373 695.477 857.934 696.002 860.418 695.74C859.665 695.264 859.157 694.424 859.082 693.536C861.28 693.657 863.496 693.527 865.665 693.155C859.215 689.622 853.527 684.704 849.102 678.834C851.369 680.028 853.634 681.222 855.901 682.413C854.606 680.98 853.737 679.163 853.44 677.25C858.647 682.523 866.146 686.345 873.147 688.777C869.446 687.594 866.81 684.395 864.393 681.355C862.697 679.22 861 677.089 859.304 674.954C858.886 674.426 858.465 673.651 858.912 673.149C862.221 675.338 865.633 677.366 869.1 679.298C867.889 678.378 866.905 677.149 866.383 675.719C869.792 678.597 874.09 681.669 878.322 680.259C874.393 678.868 870.825 676.474 868.047 673.368C870.185 674.164 872.498 674.969 874.699 674.366C870.187 671.64 866.654 667.328 864.866 662.369C866.792 663.468 869.068 663.944 871.275 663.708C869.106 663.154 867.427 661.481 865.867 659.877C862.624 656.546 860.276 653.866 859.867 649.236C861.257 650.961 862.737 652.675 864.644 653.803C866.55 654.93 868.976 655.395 871.001 654.495C866.585 651.607 863.265 647.082 861.834 642.002C865.89 645.72 870.323 649.617 875.783 650.286C875.457 649.666 875.354 648.931 875.486 648.244C876.712 649.363 878.645 649.614 880.133 648.867Z" fill="#1C1035"/>
<path d="M844.487 978.298C840.798 973.421 839.563 966.778 841.256 960.902C840.033 960.36 838.718 959.731 838.124 958.531C837.532 957.331 838.251 955.479 839.589 955.548C838.153 955.465 839.205 953.151 838.865 951.753C838.62 950.752 837.527 950.253 836.829 949.494C835.118 947.645 836.63 944.022 839.148 943.936C838.317 943.405 837.423 942.793 837.152 941.844C836.88 940.895 837.729 939.655 838.663 939.97C838.914 938.643 837.423 937.748 836.531 936.736C835.64 935.721 836.283 933.387 837.443 934.079C836.205 932.758 837.186 930.653 837.244 928.844C837.319 926.444 835.551 924.292 833.419 923.185C831.288 922.077 828.833 921.812 826.445 921.564C824.056 921.316 821.665 921.068 819.277 920.82C816.911 920.574 813.563 920.713 811.194 920.465C807.009 922.614 803.412 925.89 800.88 929.857C802.302 929.929 803.741 929.623 805.01 928.98C804.699 930.318 803.977 931.558 802.968 932.49C803.421 933.335 804.869 933.324 805.313 932.476C805.301 933.722 803.845 934.328 802.703 934.821C801.56 935.311 800.343 936.615 801.081 937.616C801.817 937.454 802.625 937.642 803.216 938.109C801.947 939.9 800.308 941.426 798.434 942.563C799.212 943.627 800.233 944.515 801.393 945.144C800.819 946.099 799.985 946.898 799.01 947.434C799.807 947.495 800.6 947.553 801.396 947.61C801.782 949.67 800.355 951.908 798.321 952.422C798.826 952.768 799.334 953.117 799.838 953.463C798.615 955.378 797.989 957.671 798.07 959.944C795.967 962.95 794.747 966.561 794.594 970.227C794.519 972.007 794.854 974.072 796.383 974.987C802.478 978.636 810.917 976.807 818.022 976.824C826.26 976.842 836.35 976.974 844.487 978.298Z" fill="#1C1035"/>
<path d="M-9.5 703L26 686.5H93L143 703L193 719.5L270.5 736.5L327 765.5H379.5L423.5 793L482 807.5L553 828.5L594.5 853.5C612.667 856.333 651.1 865.3 659.5 878.5C667.9 891.7 685.333 884 693 878.5C716.667 888.333 766.1 909.2 774.5 914C782.9 918.8 814.333 926 829 929L870.5 952L896 972.5L942 987.5L971 1035.5H-9.5V703Z" fill="#1C1035" stroke="#1C1035"/>
</g>
<defs>
<clipPath id="clip0_268_119">
<rect width="1440" height="1024" fill="white"/>
</clipPath>
</defs>
</svg>
