<svg width="1440" height="1024" viewBox="0 0 1440 1024" fill="none" xmlns="http://www.w3.org/2000/svg">
<g clip-path="url(#clip0_283_105)">
<path d="M668.005 921.491C660.541 911.186 655.699 899 654.045 886.385C655.712 887.473 658.039 887.435 659.671 886.295C655.155 874.683 651.256 872.81 650.399 860.38C651.886 861.348 653.69 861.819 655.459 861.712C654.589 858.803 653.724 855.893 652.854 852.988C655.232 854.899 658.694 855.341 661.475 854.085C656.95 840.699 646.907 824.292 645.685 810.212C647.155 812.976 650.947 814.21 653.763 812.847C650.536 805.07 645.15 792.4 643.449 784.155C645.201 785.599 647.215 786.731 649.366 787.468C646.804 783.333 645.668 778.336 646.195 773.503C647.502 776.34 651.063 779.001 653.861 777.608C648.993 764.106 640.514 745.724 637.733 731.644C639.828 732.522 641.645 734.052 642.862 735.972C641.529 732.968 641.126 729.557 641.722 726.326C642.849 727.59 644.918 727.873 646.341 726.952C640.779 711.865 637.6 696.336 634.095 680.645C634.583 684.394 638.397 687.376 642.15 686.956C640.608 685.152 639.862 682.693 640.149 680.336C638.992 681.772 641.876 683.559 643.269 682.35C644.666 681.142 644.541 678.982 644.297 677.153C639.442 640.817 632.921 604.703 624.754 568.963C627.149 570.84 629.994 572.828 632.959 572.164C627.68 559.185 624.338 545.417 623.078 531.461C624.321 532.374 625.568 533.287 626.81 534.199C626.318 531.478 625.829 528.758 625.341 526.037C626.155 528.085 628.542 529.366 630.693 528.916C621.124 494.41 615.875 459.668 612.67 424C609.735 454.633 604.962 485.09 598.393 515.153C600.865 515.183 603.338 514.257 605.184 512.612C601.525 528.171 597.069 543.541 591.833 558.641C595.436 557.642 598.757 555.645 601.324 552.933C590.243 584.136 582.093 616.375 577.011 649.095C581.112 647.158 584.703 644.15 587.329 640.452C587.616 642.423 587.908 644.39 588.195 646.361C592.655 642.239 596.657 637.62 600.103 632.615C597.63 643.057 592.634 652.891 585.654 661.041C588.73 662.04 592.313 661.286 594.725 659.135C593.512 672.032 589.018 684.604 581.789 695.355C583.417 695.805 585.182 695.766 586.789 695.248C583.803 703.042 580.812 710.832 577.825 718.626C573.236 730.594 568.596 742.806 567.906 755.605C572.242 752.036 575.991 747.755 578.952 742.986C579.171 746.782 578.524 750.63 577.071 754.144C579.441 753.523 581.519 751.851 582.633 749.67C581.03 765.503 578.352 781.816 574.616 797.284C575.661 795.969 577.015 798.626 576.608 800.254C573.043 814.505 569.474 828.757 565.909 843.009C567.314 841.68 568.716 840.352 570.121 839.024C570.245 843.407 570.365 847.795 570.489 852.178C573.48 850.391 576.03 847.864 577.842 844.881C579.462 851.574 578.172 858.919 574.363 864.656C577.063 863.979 579.629 862.775 581.879 861.134C577.941 879.855 561.448 894.68 560 913.757C562.584 911.537 565.172 909.318 567.756 907.094C567.576 909.725 567.396 912.351 567.216 914.982C569.118 913.903 571.025 912.818 572.928 911.739C570.944 919.044 568.956 926.355 566.972 933.66C574.976 934.599 583.284 929.397 585.941 921.787C585.547 922.768 584.681 926.029 584.814 927.079C584.947 928.124 585.821 929.161 586.875 929.075C587.436 929.028 587.925 928.69 588.375 928.343C590.731 926.539 592.818 924.379 594.541 921.962C594.288 924.306 594.601 926.71 595.445 928.913C596.383 930.279 598.616 929.243 599.468 927.82C600.321 926.397 600.827 924.546 602.348 923.891C604.769 928.9 609.889 932.173 615.25 933.669C620.606 935.16 637.433 931.749 642.995 931.689C644.708 931.668 646.589 931.591 647.858 930.434C649.126 929.281 653.647 931.179 651.976 930.802C655.164 931.818 658.622 931.985 661.891 931.286C661.3 930.091 660.713 928.895 660.121 927.696C662.508 928.364 665.036 928.51 667.487 928.128C668.091 928.034 668.755 927.867 669.094 927.357C670.157 925.767 667.547 923.359 668.005 921.491Z" fill="#1C1035"/>
<path d="M615.785 959.249C616.098 944.959 616.287 932.173 616.595 917.883C609.739 918.059 603.938 917.197 598.033 913.705C597.553 932.237 597.073 950.774 596.593 969.306C602.712 965.424 609.667 963.127 615.785 959.249Z" fill="#1C1035"/>
<path d="M1049.55 784.481C1057.84 771.494 1062.7 756.32 1063.53 740.92C1064.01 734.846 1064.48 728.763 1064.95 722.69C1063.15 723.531 1061.33 724.361 1059.53 725.202C1058.53 705.845 1062.02 686.27 1069.69 668.486C1070.74 666.062 1071.88 663.53 1071.67 660.889C1071.44 658.258 1069.25 655.577 1066.63 655.894C1068.87 649.672 1070.1 643.085 1070.26 636.467C1068.35 637.476 1066.06 637.724 1063.99 637.14C1067.54 622.659 1069.6 607.812 1070.12 592.906C1067.97 592.57 1065.81 594.697 1066.12 596.863C1067.06 584.499 1068.02 572.125 1068.97 559.76C1068.32 562.372 1065.88 564.429 1063.2 564.617C1068.1 533.618 1074.96 502.925 1083.72 472.796C1079.77 475.299 1075.81 477.811 1071.86 480.313C1078.35 470.719 1079.81 458.691 1081.09 447.168C1083.02 429.779 1084.94 412.4 1086.88 395.011C1090.24 364.714 1094.5 335.475 1093.9 305C1097.99 339.679 1104.31 374.091 1112.81 407.959C1110.41 408.661 1107.71 408.245 1105.64 406.851C1108.99 422.884 1112.36 438.908 1115.71 454.942C1113.13 452.687 1110.55 450.442 1107.97 448.187C1110.95 478.919 1131.68 506.773 1129.89 537.594C1127.89 534.29 1125.88 530.987 1123.87 527.683C1124.4 532.915 1124.93 538.148 1125.47 543.38C1120.53 539.394 1116.08 534.805 1112.27 529.73C1113.64 544.36 1118.47 558.653 1126.25 571.106C1124 570.878 1121.75 570.651 1119.5 570.423C1126.56 596.002 1133.63 621.591 1140.69 647.17C1137.77 644.816 1134.85 642.452 1131.93 640.098C1132.11 644.034 1132.84 647.941 1134.09 651.67C1132.58 650.365 1131.07 649.059 1129.56 647.763C1130.89 666.161 1133.87 684.43 1138.48 702.284C1135.59 701.78 1132.9 700.256 1130.98 698.041C1134.12 709.93 1137.28 721.819 1140.42 733.699C1138.05 733.511 1135.94 731.513 1135.63 729.149C1131.36 753.185 1155.5 775.856 1150.25 799.694C1144.74 797.587 1141.12 796.716 1136.56 792.968C1135.87 795.658 1136.5 798.655 1138.21 800.831C1135.26 799.179 1132.32 797.537 1129.36 795.895C1128.54 795.44 1127.63 794.965 1126.7 795.163C1125.79 795.361 1125.16 796.153 1124.43 796.716C1121.52 799.001 1116.46 797.043 1115.84 793.383C1113.09 795.836 1109.62 798.121 1106.01 797.448C1102.4 796.776 1100.01 791.464 1102.96 789.258C1102.61 789.703 1102.16 790.059 1101.72 790.406C1090.83 799.001 1077.71 804.738 1064.01 806.894C1063.02 807.053 1061.86 807.132 1061.19 806.39C1060.42 805.539 1060.79 804.194 1061.25 803.146C1062.95 799.179 1065.2 795.45 1067.9 792.087C1063.22 793.442 1058.55 794.807 1053.86 796.162C1052.18 796.657 1050.38 797.142 1048.69 796.677C1046.99 796.212 1045.54 794.382 1046.13 792.73C1048.87 791.247 1047.87 787.102 1049.55 784.481Z" fill="#1C1035"/>
<path d="M779.14 919.924C786.483 905.462 790.796 888.566 791.529 871.416C791.948 864.654 792.367 857.88 792.786 851.117C791.189 852.053 789.582 852.978 787.984 853.914C787.094 832.359 790.193 810.562 796.986 790.758C797.911 788.059 798.924 785.24 798.732 782.299C798.531 779.369 796.593 776.384 794.27 776.736C796.252 769.808 797.344 762.473 797.483 755.104C795.798 756.228 793.764 756.503 791.93 755.853C795.082 739.728 796.907 723.195 797.361 706.597C795.458 706.222 793.546 708.59 793.816 711.003C794.655 697.235 795.501 683.455 796.348 669.687C795.772 672.595 793.607 674.886 791.232 675.095C795.571 640.576 801.648 606.399 809.41 572.849C805.909 575.635 802.408 578.433 798.906 581.219C804.651 570.535 805.944 557.142 807.079 544.31C808.79 524.947 810.492 505.595 812.204 486.231C815.181 452.494 818.961 419.935 818.428 386C822.052 424.617 827.648 462.936 835.174 500.649C833.053 501.431 830.66 500.968 828.827 499.415C831.795 517.27 834.773 535.113 837.741 552.967C835.454 550.456 833.175 547.956 830.887 545.445C833.524 579.667 851.885 610.683 850.305 645.004C848.532 641.325 846.751 637.646 844.97 633.968C845.442 639.794 845.913 645.621 846.384 651.447C842.01 647.009 838.073 641.898 834.694 636.248C835.908 652.538 840.186 668.454 847.074 682.321C845.084 682.068 843.093 681.814 841.102 681.561C847.354 710.044 853.614 738.539 859.865 767.022C857.281 764.4 854.696 761.768 852.112 759.147C852.269 763.53 852.915 767.881 854.024 772.033C852.688 770.579 851.344 769.126 850.008 767.683C851.186 788.169 853.832 808.513 857.909 828.394C855.351 827.832 852.968 826.136 851.265 823.669C854.05 836.908 856.844 850.147 859.629 863.376C857.534 863.167 855.665 860.942 855.386 858.309C851.606 885.074 872.987 910.319 868.334 936.864C863.453 934.518 860.249 933.549 856.207 929.374C855.595 932.37 856.154 935.708 857.674 938.131C855.063 936.291 852.453 934.463 849.833 932.634C849.109 932.128 848.297 931.599 847.476 931.819C846.673 932.04 846.114 932.921 845.468 933.549C842.892 936.093 838.405 933.912 837.855 929.837C835.419 932.568 832.345 935.113 829.15 934.364C825.954 933.615 823.842 927.7 826.452 925.244C826.138 925.739 825.745 926.136 825.352 926.521C815.704 936.093 804.084 942.481 791.948 944.882C791.075 945.059 790.045 945.147 789.451 944.321C788.77 943.373 789.102 941.875 789.503 940.708C791.014 936.291 793.004 932.139 795.397 928.394C791.25 929.903 787.111 931.423 782.964 932.932C781.471 933.483 779.882 934.022 778.381 933.505C776.879 932.987 775.595 930.949 776.119 929.11C778.538 927.458 777.656 922.843 779.14 919.924Z" fill="#1C1035"/>
<path d="M1042.63 842.866C1033.08 801.648 1027.21 759.58 1025.11 717.324C1025.93 718.278 1026.75 719.239 1027.57 720.193C1025.62 715.492 1024.61 710.416 1024.59 705.325C1026.15 706.599 1027.79 707.588 1029.35 708.863C1024.57 691.996 1020.61 674.894 1017.47 657.644C1019.14 659.671 1020.82 661.697 1022.49 663.724C1021.65 660.541 1021.39 657.213 1021.72 653.947C1023.37 654.281 1025.03 654.608 1026.68 654.942C1022.36 633.195 1016.67 610.597 1009.43 589.636C1011.19 592.408 1014.36 594.24 1017.64 594.372C1012.54 568.773 1007.44 543.174 1002.33 517.569C1004.3 518.195 1006.27 518.815 1008.24 519.442C1004.81 509.818 1001.39 500.194 997.97 490.57C1000.91 494.219 1003.87 497.861 1006.81 501.51C1005.58 500.013 1005.2 497.868 1005.83 496.037C1006.01 499.01 1008.68 501.622 1011.66 501.726C1008.27 482.088 1003.6 462.674 997.691 443.649C998.784 444.352 1000.17 444.589 1001.44 444.282C995.06 424.157 988.739 405.745 984.8 385C981.897 405.947 975.59 426.413 966.2 445.362C968.539 445.341 970.864 444.575 972.757 443.203C972.402 450.522 970.439 457.75 967.056 464.247C968.63 463.927 970.14 463.266 971.449 462.332C965.831 480.368 960.214 498.412 954.597 516.448C958.007 513.962 960.819 510.668 962.734 506.9C960.527 525.375 957.868 543.794 954.75 562.137C958.39 560.626 961.028 556.956 961.321 553.028C960.618 558.105 959.908 563.188 959.205 568.265C960.917 567.582 962.344 566.21 963.096 564.525C962.003 596.398 957.764 628.16 950.476 659.211C954.436 657.248 957.402 653.389 958.272 649.051C958.439 656.189 957.242 663.355 954.764 670.047C956.33 669.086 957.896 668.118 959.462 667.15C959.107 673.257 957.311 679.281 954.262 684.58C958.154 683.556 961.258 680.026 961.78 676.036C961.509 696.244 957.207 717.86 951.137 737.135C953.42 737.226 955.717 736.244 957.228 734.531C955.717 741.961 955.306 749.614 956.016 757.163C958.153 753.953 960.297 750.743 962.434 747.532C958.738 775.144 954.68 802.706 950.253 830.213C951.645 828.932 953.037 827.643 954.429 826.362C952.989 834.92 951.179 843.409 949 851.807C955.912 852.629 963.103 851.947 969.862 850.261C969.472 851.188 969.723 852.35 970.467 853.033C976.662 853.506 982.858 853.98 989.053 854.447C990.076 854.523 991.113 854.6 992.122 854.44C995.547 853.889 997.997 850.763 1001.28 849.649C1004.28 852.204 1007.43 854.844 1011.26 855.742C1015.09 856.64 1019.78 855.185 1021.23 851.522C1029.24 853.541 1037.56 854.342 1045.81 853.883C1046.56 851.097 1045.01 844.468 1042.63 842.866Z" fill="#1C1035"/>
<path d="M945.839 872.758C936.879 834.34 931.368 795.131 929.402 755.745C930.173 756.635 930.943 757.53 931.707 758.42C929.879 754.038 928.932 749.307 928.919 744.562C930.382 745.75 931.916 746.671 933.379 747.859C928.893 732.139 925.177 716.198 922.238 700.121C923.806 702.01 925.373 703.898 926.94 705.787C926.157 702.821 925.908 699.718 926.222 696.674C927.769 696.986 929.324 697.291 930.871 697.602C926.823 677.332 921.481 656.27 914.689 636.733C916.341 639.317 919.313 641.024 922.395 641.147C917.608 617.288 912.822 593.428 908.035 569.562C909.883 570.146 911.725 570.724 913.573 571.308C910.36 562.338 907.147 553.368 903.941 544.398C906.703 547.799 909.472 551.193 912.234 554.594C911.085 553.199 910.725 551.2 911.313 549.493C911.483 552.264 913.991 554.698 916.786 554.796C913.605 536.492 909.223 518.396 903.679 500.664C904.704 501.32 906.004 501.54 907.193 501.255C901.211 482.497 895.281 465.336 891.585 446C888.862 465.524 882.946 484.6 874.136 502.261C876.331 502.241 878.512 501.527 880.288 500.249C879.955 507.07 878.113 513.808 874.939 519.863C876.415 519.565 877.832 518.948 879.06 518.078C873.79 534.889 868.52 551.706 863.25 568.517C866.45 566.2 869.088 563.13 870.884 559.618C868.814 576.838 866.32 594.006 863.394 611.102C866.809 609.694 869.284 606.273 869.559 602.612C868.899 607.344 868.233 612.082 867.573 616.814C869.18 616.177 870.518 614.899 871.224 613.328C870.199 643.036 866.222 672.64 859.384 701.581C863.1 699.751 865.882 696.155 866.698 692.111C866.855 698.764 865.732 705.443 863.407 711.681C864.876 710.785 866.346 709.883 867.815 708.98C867.482 714.673 865.797 720.287 862.937 725.226C866.587 724.272 869.5 720.982 869.99 717.262C869.735 736.098 865.699 756.245 860.005 774.211C862.147 774.295 864.302 773.38 865.719 771.784C864.302 778.709 863.916 785.842 864.582 792.878C866.587 789.886 868.599 786.894 870.603 783.902C867.136 809.637 863.329 835.327 859.175 860.965C860.481 859.771 861.788 858.57 863.094 857.376C861.742 865.352 860.044 873.264 858 881.092C864.485 881.858 871.23 881.222 877.571 879.651C877.206 880.515 877.441 881.598 878.139 882.234C883.951 882.676 889.763 883.117 895.575 883.552C896.535 883.624 897.508 883.695 898.455 883.546C901.668 883.033 903.967 880.119 907.049 879.08C909.857 881.462 912.815 883.922 916.407 884.759C919.998 885.597 924.406 884.24 925.758 880.826C933.275 882.708 941.078 883.455 948.823 883.026C949.522 880.43 948.072 874.251 945.839 872.758Z" fill="#1C1035"/>
<path d="M1177.05 693.835C1178.06 707.726 1176.48 722.466 1175.02 736.278C1185.8 741.481 1197.17 750.658 1206.84 758.767C1207.21 737.786 1207.27 716.794 1207.01 695.812C1202.56 692.766 1197.49 686.595 1192.49 685.915C1187.4 685.236 1176.57 687.164 1177.05 693.835Z" fill="#1C1035"/>
<path d="M1119.75 677.766C1127.66 662.276 1134.13 645.539 1139 628.032C1136.59 627.603 1134.17 627.174 1131.76 626.744C1141.79 612.923 1148.86 595.446 1151.93 576.811C1149.8 578.599 1147.32 579.638 1144.81 579.807C1146.71 575.923 1148.62 572.038 1150.53 568.153C1148.14 568.932 1145.47 568.073 1143.63 565.926C1151.38 556.958 1157.76 545.953 1162.26 533.769C1160.53 532.641 1158.79 531.522 1157.06 530.393C1164.75 514.235 1169.92 496.05 1172.2 477.255C1169.77 481.07 1165.52 482.718 1161.91 481.25C1172.34 458.011 1179.06 431.926 1181.51 405.172C1180.31 405.721 1179.12 406.27 1177.92 406.82C1187.05 369.999 1195.36 333.309 1199.66 295C1203.82 330.572 1209.59 365.815 1216.93 400.488C1214.67 401.786 1211.74 400.438 1210.59 397.592C1211.47 402.665 1212.35 407.738 1213.22 412.812C1211.83 411.973 1210.42 411.144 1209.02 410.305C1211.66 442.462 1216.13 474.369 1222.4 505.657C1220.65 503.3 1218.89 500.943 1217.13 498.586C1217.29 503.02 1218.01 507.424 1219.27 511.539C1217.72 510.151 1216.17 508.763 1214.62 507.374C1218.67 530.434 1225.64 552.614 1235.15 572.737C1233.76 573.955 1231.83 574.045 1230.38 572.946C1230.91 579.308 1232.39 585.539 1234.71 591.182C1233.95 589.854 1232.14 590.922 1231.87 592.54C1231.59 594.158 1232.28 595.766 1232.94 597.184C1235.92 603.635 1238.91 610.086 1241.89 616.538C1239.28 615.26 1236.66 613.991 1234.05 612.713C1234.04 618.565 1235.57 624.397 1238.32 629.001C1235.2 626.714 1232.08 624.427 1228.95 622.13C1231.11 645.409 1237.33 668.039 1246.98 687.802C1243.77 687.962 1240.52 686.634 1237.95 684.107C1237.6 688.881 1238.65 693.804 1240.84 697.659C1236.7 696.53 1232.77 695.701 1230.2 691.297C1231.11 696.191 1232.68 700.875 1234.82 705.059C1230.69 703.251 1226.58 701.444 1222.46 699.636C1222.36 702.572 1222.26 705.508 1222.16 708.444C1213.12 707.975 1204.19 704.53 1196.4 698.518C1194.15 701.554 1191.89 704.6 1189.64 707.635C1187.71 705.648 1185.79 703.651 1183.87 701.654C1180.8 704.28 1177.5 706.417 1174.05 708.005C1174.79 706.297 1175.51 704.59 1176.24 702.872C1172.3 709.653 1165.77 713.707 1159.26 713.408C1159.39 710.821 1160.48 708.345 1162.13 706.917C1149.26 712.699 1135.61 715.485 1122 715.105C1121.51 707.196 1123.01 699.097 1126.21 692.346C1123.8 695.412 1120.35 697.04 1117 696.7C1117.54 692.935 1119.52 689.56 1122.16 687.912C1120.89 688.97 1119.3 689.32 1117.84 688.851C1117.82 685.675 1118.39 680.432 1119.75 677.766Z" fill="#1C1035"/>
<path d="M648.145 682.415C647.53 683.601 646.809 684.733 645.875 685.691C646.601 684.583 647.365 683.494 648.145 682.415Z" fill="#1C1035"/>
<path d="M766.581 684.327C766.842 684.312 767.108 684.341 767.37 684.308C767.123 684.448 766.842 684.419 766.581 684.327Z" fill="#1C1035"/>
<path d="M615 683.625C637.522 676.768 654.634 658.219 667.129 638.271C668.735 635.706 668.871 633.379 668.721 630.359C667.714 632.585 665.948 634.463 663.78 635.59C663.615 634.439 663.596 633.268 663.717 632.111C661.413 637.347 655.868 640.981 650.148 641.005C655.021 636.2 659.202 630.693 662.526 624.707C660.499 625.104 658.408 625.171 656.361 624.905C656.642 623.178 658.128 621.939 659.473 620.816C667.767 613.891 674.47 605.069 678.917 595.221C677.359 596.939 675.501 598.381 673.449 599.465C673.739 598.347 674.034 597.229 674.33 596.111C672.573 597.06 670.521 597.437 668.542 597.181C668.672 596.126 668.803 595.071 668.929 594.016C666.059 595.874 662.449 596.557 659.095 595.874C662.149 594.055 664.84 591.621 666.95 588.756C664.675 590.058 662.052 590.745 659.429 590.725C659.555 589.719 659.676 588.717 659.802 587.715C656.734 589.109 653.187 589.051 649.862 588.47C664.182 580.786 674.02 567.942 679.241 552.548C677.073 556.071 673.584 558.767 669.626 559.972C670.023 558.907 670.148 557.746 669.989 556.623C667.182 558.839 663.615 560.083 660.083 560.649C674.601 547.946 684.347 529.91 687.023 510.81C686.191 512.029 684.758 512.823 683.277 512.881C686.496 507.504 687.134 501.494 686.616 495.251C685.75 496.95 683.902 498.106 681.995 498.14C683.819 496.34 684.86 493.77 684.802 491.21C681.593 494.535 677.702 497.206 673.444 499.002C673.55 495.15 679.788 493.195 679.057 489.41C677.369 491.056 675.244 492.241 672.96 492.822C675.757 490.131 678.796 486.773 678.177 482.94C675.452 487.305 671.692 490.538 666.814 492.183C672.728 486.221 674.523 477.472 677.277 469.54C680.02 461.638 683.945 454.151 688.891 447.401C686.36 448.388 683.437 448.325 680.95 447.226C688.363 435.999 694.054 423.635 697.766 410.7C695.758 411.556 693.503 411.817 691.349 411.45C696.842 405.197 699.368 396.438 698.037 388.221C696.232 390.994 693.382 393.075 690.193 393.951C694.151 390.278 697.239 385.676 699.136 380.619C694.112 387.34 686.394 391.981 678.104 393.268C683.418 383.551 687.831 373.335 691.262 362.805C689.651 362.675 688.044 362.544 686.432 362.408C688.92 356.945 691.857 351.685 695.201 346.695C694.025 346.018 692.53 345.926 691.277 346.448C695.555 339.828 698.574 332.4 700.118 324.667C698.879 324.638 697.655 324.178 696.706 323.384C700.815 316.609 703.931 309.23 705.92 301.559C704.827 302.997 702.702 303.534 701.052 302.798C704.996 294.189 706.545 286.446 707.14 277C710.595 286.969 714.05 296.938 717.506 306.902C717.757 307.633 717.994 308.499 717.549 309.128C717.293 309.491 716.765 309.505 716.388 309.336C718.836 313.522 721.285 317.703 723.734 321.889C722.867 321.187 721.996 320.481 721.13 319.779C724.106 325.872 727.082 331.969 730.059 338.062C723.409 333.682 717.893 327.599 714.181 320.558C716.509 333.682 721.992 346.231 730.034 356.858C728.51 356.2 726.991 355.541 725.466 354.883C728.389 360.105 732.12 364.872 736.48 368.97C731.06 366.212 726.182 362.389 722.209 357.787C724.198 365.975 727.615 373.819 732.256 380.851C729.202 379.418 726.521 377.207 724.537 374.482C726.637 385.293 730.562 396.196 736.359 405.565C733.872 404.457 731.535 403 729.439 401.258C731.002 403.833 732.561 406.412 734.124 408.986C733.078 408.541 732.038 408.101 730.993 407.656C739.094 427.506 751.085 445.489 762.995 463.322C758.455 460.917 754.695 457.079 752.387 452.492C752.353 453.885 752.319 455.279 752.29 456.673C749.914 454.074 747.814 451.219 746.048 448.175C746.648 449.244 744.426 449.322 743.551 448.465C741.46 446.418 739.616 444.11 738.082 441.618C738.034 442.91 737.99 444.207 737.942 445.499C733.398 443.97 729.551 440.49 727.581 436.12C731.883 444.937 736.069 453.827 740.371 462.649C738.997 462.03 737.627 461.415 736.253 460.796C740.511 469.211 744.77 477.627 749.033 486.047C749.474 486.923 749.924 487.978 749.454 488.839C749.159 489.386 748.351 489.473 747.858 489.226C756.118 506.087 768.013 521.151 782.521 533.065C780.165 533.37 777.701 532.761 775.756 531.396C777.101 532.901 778.446 534.406 779.797 535.911C775.79 533.912 771.967 531.56 768.376 528.884C770.83 533.854 774.449 538.243 778.853 541.607C775.679 541.408 772.552 540.503 769.77 538.969C769.668 540.987 770.331 543.039 771.599 544.612C766.131 541.481 761.127 537.547 756.791 532.969C756.437 534.933 756.655 536.995 757.42 538.844C751.608 536.008 746.483 531.778 742.587 526.62C742.583 528.584 742.578 530.549 742.573 532.514C740.729 530.491 738.881 528.468 737.037 526.445C742.123 538.848 747.935 551.15 754.971 562.561C762.007 573.972 771.12 584.376 782.7 591.127C779.811 591.446 776.811 590.512 774.614 588.611C777.745 592.637 781.568 596.126 785.86 598.884C780.135 598.023 774.754 595.013 771.033 590.575C771.168 592.134 771.725 593.653 772.62 594.94C768.41 592.893 764.626 589.97 761.582 586.414C761.79 589.482 761.998 592.55 762.206 595.618C759.927 593.348 757.87 590.861 756.065 588.194C756.728 588.993 755.663 590.261 754.632 590.174C753.597 590.087 752.818 589.23 752.15 588.436C749.692 585.523 747.233 582.615 744.775 579.702C756.994 610.92 782.211 635.842 812.554 650.103C810.57 650.011 808.585 649.919 806.601 649.827C808.721 652.208 811.387 654.105 814.339 655.32C809.239 656.985 803.214 655.281 799.739 651.197C802.323 656.148 805.571 660.755 809.365 664.853C804.022 661.277 799.275 656.806 795.394 651.681C796.25 655.131 798.084 658.335 800.625 660.822C794.058 657.725 787.97 653.612 782.652 648.671C784.467 652.518 787.36 655.847 790.912 658.19C782.536 653.776 775.219 647.374 769.731 639.66C770.515 645.216 773.177 650.49 777.184 654.425C768.933 648.356 761.654 640.967 755.712 632.624C755.624 636.108 756.655 639.617 758.62 642.496C754.081 640.333 749.938 637.342 746.459 633.708C747.238 636.94 748.821 639.98 751.022 642.472C747.761 641.509 744.77 639.641 742.476 637.134C742.496 638.765 742.51 640.396 742.529 642.027C740.274 641.528 738.203 640.236 736.766 638.426C741.397 646.469 747.282 654.391 754.424 660.314C753.094 660.624 751.622 660.271 750.572 659.39C751.003 661.118 751.893 662.729 753.127 664.016C748.482 662.352 744.01 660.188 739.819 657.585C748.051 668.749 759.598 677.436 772.61 682.246C770.568 683.412 768.071 683.756 765.792 683.189C765.7 683.707 766.111 684.157 766.595 684.327C763.629 684.501 760.604 683.64 758.243 681.834C766.048 690.245 778.911 690.894 790.38 690.961C788.372 692.916 785.914 694.407 783.252 695.293C785.226 696.052 787.206 696.807 789.18 697.567C786.514 697.988 783.847 698.404 781.176 698.825C782.845 699.803 784.51 700.785 786.18 701.763C776.588 704.366 766.208 703.993 756.829 700.703C759.128 703.103 761.79 705.155 764.698 706.771C761.524 707.666 757.918 706.858 755.426 704.7C762.337 713.977 771.875 723.273 781.742 729.313C778.287 730.082 774.575 729.637 771.401 728.069C772.383 730.203 773.631 732.216 775.107 734.045C772.257 733.61 769.595 732.071 767.79 729.826C767.892 731.229 767.994 732.637 768.095 734.041C765.743 733.426 763.542 732.26 761.703 730.668C774.033 747.416 794.116 758.203 814.891 759.239C812.936 760.463 811.867 761.111 809.65 761.741C812.375 761.441 815.181 761.983 817.596 763.279C814.896 764.615 811.707 764.93 808.798 764.15C812.602 767.146 817.209 769.106 822 769.774C816.357 771.279 810.158 770.577 805 767.843C808.048 774.018 813.11 779.176 819.227 782.346C807.903 782.728 797.223 777.565 787.075 772.518C788.396 775.174 790.24 777.579 792.461 779.549C788.662 779.476 784.888 778.233 781.786 776.036C782.41 777.163 783.029 778.296 783.654 779.423C774.023 777.899 764.858 773.563 757.575 767.088C757.434 769.164 758.272 771.288 759.791 772.706C755.097 772.363 750.587 769.972 747.669 766.28C761.587 791.676 786.818 812.476 814.983 819.212C809.984 820.47 805.561 821.36 800.765 819.478C805.053 825.063 811.368 829.055 818.25 830.541C814.809 831.141 811.228 830.889 807.908 829.805C808.344 831.446 809.471 832.892 810.957 833.71C808.198 833.517 805.517 832.297 803.567 830.333C803.514 831.639 803.848 832.955 804.516 834.078C799.333 833.531 794.31 831.518 790.182 828.334C791.406 831.218 793.105 833.904 795.181 836.246C789.354 834.586 783.726 832.229 778.456 829.234C779.298 831.625 780.527 833.884 782.076 835.893C778.684 834.959 775.446 833.449 772.547 831.45C772.339 833.894 772.872 836.401 774.062 838.55C770.781 837.722 767.655 836.27 764.901 834.296C764.679 835.622 764.829 837.011 765.322 838.259C759.535 835.622 754.323 831.731 750.142 826.94C750.659 833.028 753.403 838.898 757.744 843.195C755.034 841.864 752.324 840.534 749.614 839.203C750.427 840.8 751.24 842.392 752.053 843.989C746.048 842.334 740.55 838.864 736.471 834.151C736.524 837.267 737.922 840.34 740.24 842.426C735.145 840.771 730.484 837.867 726.652 834.127C726.54 841.11 726.473 848.078 726.424 855.042C727.668 857.718 728.829 860.37 730.465 862.901C732.401 865.896 734.583 868.722 736.761 871.544C736.422 871.636 736.035 871.5 735.822 871.219C735.827 871.437 735.832 871.66 735.837 871.878C733.02 869.129 730.426 866.153 728.094 862.983C727.455 862.112 726.874 861.202 726.366 860.249C726.24 884.155 726.386 908.012 726.41 932.069C726.536 932.18 726.671 932.354 726.884 932.582C727.954 933.724 728.892 934.943 730.059 935.998C730.204 936.134 730.363 936.284 730.383 936.482C730.407 936.68 730.194 936.898 730.02 936.801C730.01 936.966 729.996 937.13 729.986 937.29C729.889 937.305 729.788 937.276 729.72 937.208C729.696 937.392 729.667 937.571 729.642 937.755C728.515 937.005 727.445 936.182 726.405 935.316C726.41 946.19 726.395 957.097 726.298 968.082C725.829 968.479 726.4 968.653 725.81 968.494C722.321 967.526 717.607 966.969 714.162 968.082C714.307 951.179 714.283 934.459 714.239 917.793C713.174 918.359 712.11 918.93 711.04 919.496C710.416 919.83 709.777 920.169 709.284 920.682C709.134 920.478 708.853 920.377 708.606 920.445C708.451 920.198 708.296 919.946 708.142 919.699C708.093 919.622 708.045 919.54 708.069 919.453C708.083 919.385 708.142 919.336 708.195 919.288C709.859 917.894 711.476 916.326 713.242 915.059C713.644 914.768 713.958 914.637 714.229 914.584C714.152 887.431 714.07 860.418 714.525 833.251C714.089 835.336 713.184 837.32 711.848 838.98C710.914 839.193 710.034 837.949 710.547 837.141C706.888 842.74 700.791 846.679 694.185 847.71C695.351 844.478 696.518 841.245 697.684 838.017C694.717 842.426 689.593 845.305 684.284 845.538C685.571 843.844 686.863 842.15 688.15 840.456C678.157 846.825 666.025 849.772 654.227 848.693C654.871 847.434 655.998 846.476 657.29 845.9C653.84 846.597 650.157 846.157 647.041 844.507C648.497 843.316 650.157 842.368 651.924 841.714C649.141 842.203 646.213 841.821 643.648 840.635C646.005 838.966 648.677 837.741 651.483 837.054C648.672 837.301 644.679 836.454 644.955 833.647C646.968 833.255 648.42 832.767 650.467 832.626C660.373 831.934 668.411 824.603 675.157 817.315C677.901 814.353 680.708 811.038 681.109 807.017C678.254 810.007 673.202 807.714 669.156 808.594C670.318 807.544 671.208 806.199 671.721 804.718C669.853 805.759 667.719 806.32 665.585 806.325C666.892 804.989 667.893 803.353 668.484 801.577C665.711 802.836 660.973 804.171 657.944 804.462C675.926 795.19 690.047 778.688 696.43 759.49C694.359 762.404 690.923 764.305 687.352 764.513C687.362 762.326 687.807 760.144 688.659 758.13C686.984 759.994 684.932 761.518 682.672 762.592C683.137 760.569 683.292 758.479 683.132 756.408C677.993 764.122 669.964 769.866 661.002 772.237C661.312 770.969 661.622 769.701 661.931 768.428C659.967 769.449 657.997 770.475 656.032 771.497C657.445 769.348 658.858 767.199 660.271 765.051C657.948 766.652 654.832 767.035 652.195 766.033C668.092 753.001 680.137 735.323 686.447 715.763C684.134 716.963 681.54 717.611 678.937 717.65C681.463 715.55 683.331 712.661 684.211 709.491C680.679 713.599 674.905 715.661 669.568 714.717C670.487 713.885 671.077 712.694 671.189 711.46C668.343 712.869 664.99 713.222 661.912 712.438C663.252 711.446 664.225 709.965 664.603 708.339C663.088 709.985 660.605 710.662 658.461 710.018C661.118 708.804 663.34 706.66 664.651 704.052C662.13 706.752 658.505 707.642 654.813 707.788C667.487 694.605 675.694 680.475 680.079 662.719C677.19 667.476 672.37 671.024 666.964 672.364C667.961 670.825 668.522 669.01 668.571 667.181C666.137 671.077 662.265 674.053 657.876 675.403C657.61 674.29 657.348 673.177 657.082 672.059C653.816 675.248 650.83 678.718 648.154 682.41C649.306 680.189 649.935 677.687 649.78 675.185C644.834 683.596 636.336 689.839 626.837 692.05C630.069 689.892 632.61 686.722 634.018 683.097C631.076 684.452 628.018 685.561 624.892 686.403C627.253 685.483 629.136 683.422 629.837 680.988C625.434 683.151 619.888 683.891 615 683.625Z" fill="#1C1035"/>
<path d="M1229 553.755C1228.53 554.649 1227.99 555.503 1227.29 556.226C1227.83 555.39 1228.41 554.569 1229 553.755Z" fill="#1C1035"/>
<path d="M1318.32 555.196C1318.52 555.185 1318.72 555.207 1318.91 555.182C1318.73 555.287 1318.52 555.266 1318.32 555.196Z" fill="#1C1035"/>
<path d="M1204 554.667C1220.99 549.495 1233.89 535.506 1243.31 520.462C1244.53 518.528 1244.63 516.773 1244.51 514.495C1243.76 516.174 1242.42 517.59 1240.79 518.44C1240.66 517.572 1240.65 516.689 1240.74 515.816C1239 519.765 1234.82 522.506 1230.51 522.524C1234.18 518.9 1237.34 514.747 1239.84 510.232C1238.31 510.532 1236.74 510.583 1235.19 510.382C1235.41 509.079 1236.53 508.145 1237.54 507.298C1243.8 502.075 1248.85 495.422 1252.2 487.995C1251.03 489.29 1249.63 490.378 1248.08 491.196C1248.3 490.353 1248.52 489.509 1248.74 488.666C1247.42 489.382 1245.87 489.666 1244.38 489.473C1244.48 488.677 1244.58 487.882 1244.67 487.086C1242.51 488.488 1239.78 489.002 1237.26 488.488C1239.56 487.115 1241.59 485.279 1243.18 483.119C1241.46 484.101 1239.49 484.619 1237.51 484.604C1237.6 483.845 1237.69 483.09 1237.79 482.334C1235.47 483.385 1232.8 483.342 1230.29 482.904C1241.09 477.108 1248.51 467.422 1252.45 455.812C1250.81 458.469 1248.18 460.502 1245.2 461.411C1245.5 460.608 1245.59 459.732 1245.47 458.885C1243.35 460.557 1240.66 461.495 1238 461.922C1248.95 452.341 1256.3 438.739 1258.32 424.334C1257.69 425.253 1256.61 425.852 1255.49 425.896C1257.92 421.841 1258.4 417.308 1258.01 412.6C1257.36 413.881 1255.96 414.753 1254.53 414.779C1255.9 413.421 1256.69 411.483 1256.64 409.552C1254.22 412.06 1251.29 414.074 1248.08 415.428C1248.16 412.523 1252.86 411.049 1252.31 408.195C1251.04 409.436 1249.43 410.33 1247.71 410.768C1249.82 408.739 1252.11 406.206 1251.65 403.315C1249.59 406.607 1246.76 409.045 1243.08 410.286C1247.54 405.79 1248.89 399.191 1250.97 393.209C1253.04 387.249 1256 381.603 1259.73 376.512C1257.82 377.257 1255.61 377.209 1253.74 376.381C1259.33 367.913 1263.62 358.589 1266.42 348.833C1264.91 349.479 1263.2 349.676 1261.58 349.399C1265.72 344.683 1267.63 338.077 1266.62 331.88C1265.26 333.972 1263.11 335.541 1260.71 336.201C1263.69 333.431 1266.02 329.961 1267.45 326.147C1263.66 331.216 1257.84 334.716 1251.59 335.687C1255.6 328.358 1258.93 320.654 1261.52 312.712C1260.3 312.614 1259.09 312.515 1257.87 312.413C1259.75 308.293 1261.96 304.325 1264.49 300.562C1263.6 300.052 1262.47 299.982 1261.53 300.376C1264.75 295.384 1267.03 289.781 1268.19 283.949C1267.26 283.927 1266.34 283.581 1265.62 282.982C1268.72 277.872 1271.07 272.307 1272.57 266.522C1271.75 267.606 1270.14 268.011 1268.9 267.456C1271.87 260.964 1273.04 255.124 1273.49 248C1276.1 255.518 1278.7 263.037 1281.31 270.551C1281.5 271.102 1281.68 271.756 1281.34 272.23C1281.15 272.504 1280.75 272.515 1280.46 272.387C1282.31 275.544 1284.16 278.697 1286 281.854C1285.35 281.325 1284.69 280.792 1284.04 280.263C1286.29 284.858 1288.53 289.457 1290.77 294.051C1285.76 290.749 1281.6 286.161 1278.8 280.851C1280.56 290.749 1284.69 300.212 1290.76 308.227C1289.61 307.73 1288.46 307.234 1287.31 306.738C1289.52 310.676 1292.33 314.271 1295.62 317.362C1291.53 315.282 1287.85 312.398 1284.85 308.928C1286.35 315.103 1288.93 321.019 1292.43 326.322C1290.13 325.242 1288.11 323.574 1286.61 321.519C1288.19 329.672 1291.15 337.895 1295.53 344.961C1293.65 344.125 1291.89 343.026 1290.31 341.713C1291.49 343.654 1292.66 345.599 1293.84 347.541C1293.05 347.205 1292.27 346.873 1291.48 346.537C1297.59 361.508 1306.63 375.07 1315.61 388.519C1312.19 386.706 1309.35 383.811 1307.61 380.352C1307.59 381.403 1307.56 382.454 1307.54 383.505C1305.75 381.545 1304.17 379.392 1302.83 377.096C1303.29 377.903 1301.61 377.961 1300.95 377.315C1299.37 375.771 1297.98 374.03 1296.83 372.151C1296.79 373.125 1296.76 374.103 1296.72 375.078C1293.29 373.924 1290.39 371.3 1288.91 368.005C1292.15 374.654 1295.31 381.359 1298.55 388.012C1297.52 387.545 1296.48 387.082 1295.45 386.614C1298.66 392.961 1301.87 399.308 1305.08 405.658C1305.42 406.319 1305.76 407.115 1305.4 407.764C1305.18 408.177 1304.57 408.242 1304.2 408.056C1310.43 420.772 1319.4 432.133 1330.34 441.119C1328.56 441.348 1326.71 440.889 1325.24 439.859C1326.25 440.994 1327.27 442.129 1328.29 443.264C1325.26 441.757 1322.38 439.983 1319.67 437.965C1321.52 441.713 1324.25 445.024 1327.57 447.56C1325.18 447.41 1322.82 446.728 1320.72 445.571C1320.65 447.093 1321.15 448.64 1322.1 449.827C1317.98 447.465 1314.21 444.498 1310.94 441.046C1310.67 442.527 1310.83 444.082 1311.41 445.476C1307.03 443.338 1303.16 440.148 1300.22 436.257C1300.22 437.739 1300.22 439.221 1300.21 440.702C1298.82 439.177 1297.43 437.651 1296.04 436.126C1299.87 445.48 1304.26 454.757 1309.56 463.363C1314.87 471.969 1321.74 479.816 1330.48 484.907C1328.3 485.148 1326.03 484.444 1324.38 483.009C1326.74 486.046 1329.62 488.677 1332.86 490.758C1328.54 490.108 1324.48 487.838 1321.68 484.491C1321.78 485.666 1322.2 486.812 1322.87 487.783C1319.7 486.239 1316.84 484.035 1314.55 481.352C1314.71 483.666 1314.86 485.98 1315.02 488.294C1313.3 486.582 1311.75 484.706 1310.39 482.696C1310.89 483.298 1310.08 484.254 1309.31 484.188C1308.53 484.123 1307.94 483.477 1307.44 482.878C1305.58 480.681 1303.73 478.487 1301.87 476.29C1311.09 499.834 1330.11 518.63 1352.99 529.386C1351.49 529.316 1350 529.247 1348.5 529.178C1350.1 530.973 1352.11 532.404 1354.34 533.32C1350.49 534.576 1345.95 533.291 1343.33 530.211C1345.27 533.944 1347.72 537.419 1350.59 540.51C1346.56 537.813 1342.98 534.44 1340.05 530.575C1340.69 533.178 1342.08 535.594 1343.99 537.47C1339.04 535.134 1334.45 532.032 1330.44 528.305C1331.81 531.207 1333.99 533.718 1336.67 535.484C1330.35 532.156 1324.83 527.327 1320.69 521.51C1321.29 525.7 1323.29 529.678 1326.31 532.645C1320.09 528.068 1314.6 522.495 1310.12 516.203C1310.06 518.831 1310.83 521.477 1312.31 523.648C1308.89 522.017 1305.77 519.762 1303.14 517.021C1303.73 519.459 1304.92 521.751 1306.58 523.63C1304.12 522.904 1301.87 521.495 1300.14 519.605C1300.15 520.835 1300.17 522.064 1300.18 523.294C1298.48 522.918 1296.92 521.944 1295.83 520.579C1299.33 526.645 1303.76 532.619 1309.15 537.086C1308.15 537.32 1307.04 537.054 1306.25 536.389C1306.57 537.692 1307.24 538.908 1308.17 539.879C1304.67 538.623 1301.3 536.992 1298.14 535.028C1304.34 543.448 1313.05 549.999 1322.87 553.627C1321.33 554.506 1319.44 554.766 1317.72 554.339C1317.65 554.729 1317.96 555.068 1318.33 555.196C1316.09 555.328 1313.81 554.678 1312.03 553.317C1317.92 559.66 1327.62 560.149 1336.27 560.2C1334.75 561.674 1332.9 562.798 1330.89 563.466C1332.38 564.039 1333.87 564.609 1335.36 565.182C1333.35 565.499 1331.34 565.813 1329.33 566.131C1330.59 566.868 1331.84 567.609 1333.1 568.346C1325.87 570.309 1318.04 570.028 1310.96 567.547C1312.7 569.357 1314.71 570.904 1316.9 572.123C1314.5 572.798 1311.79 572.189 1309.91 570.561C1315.12 577.558 1322.31 584.569 1329.75 589.124C1327.15 589.704 1324.35 589.368 1321.95 588.185C1322.69 589.795 1323.64 591.313 1324.75 592.693C1322.6 592.364 1320.59 591.204 1319.23 589.51C1319.31 590.569 1319.38 591.631 1319.46 592.689C1317.69 592.226 1316.03 591.346 1314.64 590.145C1323.94 602.777 1339.09 610.912 1354.75 611.693C1353.28 612.616 1352.47 613.105 1350.8 613.58C1352.86 613.354 1354.97 613.762 1356.79 614.74C1354.76 615.748 1352.35 615.985 1350.16 615.397C1353.03 617.657 1356.5 619.135 1360.11 619.638C1355.86 620.773 1351.18 620.244 1347.29 618.182C1349.59 622.839 1353.41 626.73 1358.02 629.12C1349.48 629.408 1341.43 625.514 1333.77 621.708C1334.77 623.711 1336.16 625.525 1337.84 627.011C1334.97 626.956 1332.13 626.018 1329.79 624.361C1330.26 625.211 1330.72 626.065 1331.19 626.916C1323.93 625.766 1317.02 622.496 1311.53 617.613C1311.42 619.179 1312.05 620.781 1313.2 621.85C1309.66 621.591 1306.26 619.788 1304.06 617.003C1314.55 636.157 1333.58 651.843 1354.82 656.923C1351.05 657.872 1347.72 658.544 1344.1 657.124C1347.33 661.336 1352.1 664.347 1357.29 665.467C1354.69 665.92 1351.99 665.73 1349.49 664.912C1349.82 666.15 1350.67 667.241 1351.79 667.858C1349.71 667.712 1347.68 666.792 1346.21 665.31C1346.17 666.296 1346.42 667.288 1346.93 668.135C1343.02 667.723 1339.23 666.204 1336.12 663.803C1337.04 665.978 1338.32 668.004 1339.89 669.77C1335.49 668.518 1331.25 666.741 1327.27 664.482C1327.91 666.285 1328.84 667.989 1330 669.504C1327.45 668.799 1325 667.661 1322.82 666.153C1322.66 667.996 1323.06 669.887 1323.96 671.507C1321.49 670.883 1319.13 669.788 1317.05 668.299C1316.88 669.299 1317 670.347 1317.37 671.288C1313 669.299 1309.07 666.365 1305.92 662.752C1306.31 667.343 1308.38 671.77 1311.65 675.011C1309.61 674.007 1307.57 673.004 1305.52 672C1306.14 673.204 1306.75 674.405 1307.36 675.61C1302.83 674.361 1298.69 671.745 1295.61 668.19C1295.65 670.54 1296.71 672.858 1298.45 674.431C1294.61 673.183 1291.1 670.993 1288.21 668.172C1288.12 673.438 1288.07 678.694 1288.03 683.945C1288.97 685.964 1289.85 687.964 1291.08 689.873C1292.54 692.132 1294.19 694.263 1295.83 696.391C1295.57 696.46 1295.28 696.358 1295.12 696.146C1295.12 696.311 1295.13 696.478 1295.13 696.643C1293.01 694.57 1291.05 692.325 1289.29 689.935C1288.81 689.278 1288.37 688.591 1287.99 687.872C1287.89 705.902 1288 723.895 1288.02 742.037C1288.12 742.121 1288.22 742.253 1288.38 742.424C1289.19 743.285 1289.89 744.205 1290.77 745.001C1290.88 745.103 1291 745.216 1291.02 745.366C1291.04 745.515 1290.88 745.68 1290.75 745.607C1290.74 745.731 1290.73 745.855 1290.72 745.975C1290.65 745.986 1290.57 745.964 1290.52 745.913C1290.5 746.052 1290.48 746.187 1290.46 746.326C1289.61 745.76 1288.8 745.139 1288.02 744.486C1288.02 752.687 1288.01 760.913 1287.94 769.198C1287.58 769.497 1288.02 769.629 1287.57 769.508C1284.94 768.778 1281.38 768.359 1278.79 769.198C1278.89 756.45 1278.88 743.84 1278.84 731.271C1278.04 731.698 1277.24 732.128 1276.43 732.555C1275.96 732.807 1275.48 733.063 1275.11 733.45C1274.99 733.296 1274.78 733.22 1274.6 733.271C1274.48 733.085 1274.36 732.895 1274.25 732.709C1274.21 732.65 1274.17 732.588 1274.19 732.523C1274.2 732.471 1274.25 732.435 1274.29 732.398C1275.54 731.347 1276.76 730.165 1278.09 729.209C1278.39 728.99 1278.63 728.891 1278.84 728.851C1278.78 708.373 1278.72 688 1279.06 667.511C1278.73 669.084 1278.05 670.58 1277.04 671.832C1276.34 671.993 1275.67 671.055 1276.06 670.445C1273.3 674.668 1268.7 677.639 1263.72 678.416C1264.6 675.978 1265.48 673.54 1266.36 671.106C1264.12 674.431 1260.26 676.602 1256.25 676.778C1257.22 675.5 1258.2 674.223 1259.17 672.945C1251.63 677.748 1242.48 679.971 1233.58 679.157C1234.07 678.208 1234.92 677.486 1235.89 677.051C1233.29 677.577 1230.51 677.245 1228.16 676C1229.26 675.102 1230.51 674.387 1231.85 673.894C1229.75 674.263 1227.54 673.975 1225.61 673.08C1227.38 671.821 1229.4 670.898 1231.51 670.38C1229.39 670.566 1226.38 669.927 1226.59 667.81C1228.11 667.515 1229.2 667.146 1230.75 667.04C1238.22 666.518 1244.28 660.989 1249.37 655.493C1251.44 653.259 1253.56 650.759 1253.86 647.726C1251.7 649.982 1247.89 648.252 1244.84 648.916C1245.72 648.124 1246.39 647.109 1246.78 645.993C1245.37 646.777 1243.76 647.201 1242.15 647.204C1243.14 646.197 1243.89 644.963 1244.34 643.624C1242.24 644.573 1238.67 645.58 1236.39 645.799C1249.95 638.806 1260.6 626.361 1265.41 611.883C1263.85 614.08 1261.26 615.514 1258.57 615.671C1258.57 614.021 1258.91 612.375 1259.55 610.857C1258.29 612.262 1256.74 613.412 1255.04 614.222C1255.39 612.697 1255.5 611.12 1255.38 609.558C1251.51 615.376 1245.45 619.708 1238.69 621.496C1238.93 620.54 1239.16 619.584 1239.39 618.624C1237.91 619.394 1236.43 620.168 1234.95 620.938C1236.01 619.317 1237.08 617.697 1238.14 616.076C1236.39 617.284 1234.04 617.573 1232.05 616.817C1244.04 606.989 1253.12 593.656 1257.88 578.904C1256.14 579.809 1254.18 580.299 1252.22 580.328C1254.12 578.744 1255.53 576.565 1256.2 574.174C1253.53 577.273 1249.18 578.828 1245.15 578.116C1245.85 577.488 1246.29 576.59 1246.38 575.66C1244.23 576.722 1241.7 576.988 1239.38 576.397C1240.39 575.649 1241.12 574.532 1241.41 573.306C1240.27 574.547 1238.39 575.058 1236.78 574.572C1238.78 573.656 1240.46 572.039 1241.45 570.072C1239.54 572.109 1236.81 572.78 1234.03 572.89C1243.58 562.948 1249.77 552.291 1253.08 538.9C1250.9 542.488 1247.27 545.163 1243.19 546.174C1243.94 545.014 1244.37 543.645 1244.4 542.265C1242.57 545.203 1239.65 547.448 1236.34 548.466C1236.14 547.627 1235.94 546.787 1235.74 545.944C1233.27 548.349 1231.02 550.966 1229 553.751C1229.87 552.076 1230.35 550.189 1230.23 548.302C1226.5 554.645 1220.09 559.353 1212.93 561.021C1215.37 559.393 1217.28 557.003 1218.34 554.269C1216.12 555.291 1213.82 556.127 1211.46 556.762C1213.24 556.068 1214.66 554.514 1215.19 552.678C1211.87 554.309 1207.69 554.868 1204 554.667Z" fill="#1C1035"/>
<path d="M1399.67 420.306C1400.31 420.79 1400.99 421.214 1401.75 421.483C1401.04 421.108 1400.36 420.695 1399.67 420.306Z" fill="#1C1035"/>
<path d="M1380.99 176.983C1380.43 176.568 1379.87 176.153 1379.31 175.74C1379.81 176.236 1380.36 176.678 1380.99 176.983Z" fill="#1C1035"/>
<path d="M1410.72 389.867C1408.12 387.265 1405.85 384.338 1403.97 381.179C1402.98 379.521 1402.07 377.652 1402.34 375.739C1403.08 376.431 1404.08 376.832 1405.1 376.838C1404.87 376.322 1404.78 375.748 1404.85 375.188C1406.3 376.604 1408.48 377.225 1410.45 376.78C1409.99 376.351 1409.95 375.549 1410.36 375.073C1412.35 376.994 1415.9 378.191 1418.67 378.191C1411.97 373.308 1406.56 366.673 1403.13 359.128C1404.33 359.021 1405.46 358.395 1406.19 357.446C1400.31 352.124 1395.64 345.484 1392.61 338.158C1395.15 340.612 1398.12 342.631 1401.34 344.1C1401.18 343.399 1401.02 342.698 1400.86 341.997C1402.45 343.015 1404.5 343.272 1406.3 342.683C1396.3 334.327 1390.29 322.668 1387.65 309.907C1388.98 312.221 1391.26 313.963 1393.84 314.632C1392.76 312.945 1391.68 311.254 1390.59 309.567C1392.91 311.352 1395.33 313.005 1397.83 314.514C1399.18 315.324 1400.87 316.106 1402.24 315.344C1399.92 314.017 1397.92 312.14 1396.45 309.91C1399.28 311.505 1402.75 312.786 1405.69 311.416C1404.76 309.973 1403.46 308.814 1402.22 307.623C1396.79 302.405 1392.24 296.278 1388.82 289.575C1388.09 288.141 1387.39 286.609 1387.46 285.003C1390.27 288.404 1394.92 289.543 1399.23 290.489C1399.66 290.584 1400.38 290.613 1400.78 290.417C1396.52 289.834 1392.81 287.033 1390.21 283.607C1387.6 280.183 1385.94 276.15 1384.31 272.167C1384.09 271.628 1383.87 271.065 1383.91 270.485C1385.53 272.207 1388.27 272.752 1390.42 271.78C1385.49 268.204 1382.23 262.423 1381.71 256.354C1383.14 257.456 1384.88 258.146 1386.68 258.319C1386.22 257.592 1386.14 256.631 1386.48 255.841C1389.76 259.164 1395.11 260.07 1399.74 259.426C1396.08 256.357 1392.57 253.014 1390.05 248.962C1387.54 244.906 1386.06 240.048 1386.76 235.327C1388.05 236.025 1389.17 237.014 1390.02 238.2C1386.67 233.103 1384.93 226.959 1385.12 220.861C1387.77 224.268 1389.5 228.064 1389.91 232.359C1388.81 221.106 1381.34 211.074 1381.06 199.77C1381.64 201.42 1383.35 202.597 1385.1 202.553C1381.9 198.53 1379.57 193.805 1378.35 188.812C1378.01 187.459 1377.85 185.806 1378.89 184.886C1380.37 187.214 1381.66 190.041 1383.14 192.368C1381.57 188.8 1380 185.232 1378.44 181.667C1377.41 179.328 1376.37 176.657 1377.37 174.306C1378.01 174.782 1378.66 175.258 1379.31 175.737C1378.17 174.603 1377.41 173.071 1377.34 171.462C1378.41 173.051 1380.63 173.749 1382.42 173.054C1379.9 169.656 1377.86 165.906 1376.36 161.952C1378.01 162.408 1379.81 162.31 1381.4 161.678C1378.16 155.69 1375.86 149.185 1374.63 142.482C1375.16 143.526 1376.4 144.161 1377.55 143.982C1375.89 139.935 1374.23 135.885 1372.57 131.838C1373.7 131.893 1374.84 131.945 1375.97 132C1368.63 119.579 1364.88 105.425 1364.57 91C1360.14 105.61 1354.85 119.957 1348.74 133.944C1351.91 133.326 1354.74 131.157 1356.16 128.256C1354.21 135.588 1350.95 142.565 1346.57 148.761C1348.4 148.441 1350.01 147.077 1350.63 145.323C1349.58 150.209 1347.8 154.94 1345.36 159.304C1346.59 158.632 1347.82 157.957 1349.06 157.285C1344.59 168.517 1340.13 179.746 1335.66 190.978C1339.09 186.369 1342.51 181.762 1345.93 177.153C1346.38 181.457 1345.35 185.907 1343.04 189.568C1345.42 189.294 1347.55 187.462 1348.17 185.146C1346.35 192.19 1343.76 199.502 1339.9 205.666C1340.51 206.355 1341.79 206.223 1342.25 205.426C1340.33 210.864 1336.73 215.617 1335.1 221.15C1334.15 224.377 1333.91 227.767 1333.21 231.058C1330.37 244.436 1320.41 254.987 1310.87 264.786C1314.19 263.664 1317.17 261.581 1319.36 258.852C1317.06 265.391 1313.27 271.397 1308.35 276.286C1311.08 275.124 1313.59 273.456 1315.72 271.394C1315.92 272.239 1316.12 273.084 1316.32 273.932C1321.36 271.619 1325.58 267.604 1328.21 262.72C1327.96 263.528 1328.9 264.627 1329.88 264.535C1331.03 264.425 1331.86 263.416 1332.55 262.49C1335.52 258.503 1338.49 254.514 1341.46 250.528C1341.84 250.011 1342.95 249.861 1343.22 250.444C1343.49 251.027 1343.28 251.71 1343.07 252.316C1335 275.646 1321.09 296.927 1302.96 313.68C1305.08 314.9 1308.13 314.015 1309.27 311.851C1308.94 314.038 1307.81 316.094 1306.13 317.534C1308.58 317.404 1310.97 316.29 1312.65 314.491C1312.47 315.76 1312.04 316.991 1311.38 318.096C1315.77 316.152 1319.52 312.783 1321.92 308.621C1322.11 310.573 1321.58 312.59 1320.45 314.193C1326.48 310.282 1331.26 304.473 1333.95 297.804C1327.79 315.356 1317.8 331.18 1304.97 344.648C1306.27 344.749 1307.57 344.849 1308.87 344.95C1307.26 348.954 1304.92 352.664 1302 355.848C1307 354.789 1311.68 352.257 1315.29 348.645C1315.03 350.595 1314.07 352.444 1312.64 353.794C1317.08 353.217 1321.25 350.852 1324.03 347.345C1320.32 356.563 1314.26 364.374 1306.75 370.885C1308.07 370.836 1309.4 370.787 1310.72 370.737C1310.46 372.56 1309.46 374.265 1307.99 375.37C1309.97 375.627 1312.02 375.272 1313.8 374.372C1312.52 376.085 1310.93 377.565 1309.12 378.707C1311.54 379.059 1314.08 378.456 1316.09 377.06C1315.48 378.252 1314.61 379.31 1313.56 380.129C1317.22 379.939 1320.8 378.557 1323.64 376.25C1323.49 378.84 1321.59 381.24 1319.11 381.993C1320.79 382.163 1322.51 381.906 1324.07 381.251C1318.14 386.7 1311.46 391.321 1304.27 394.941C1306.48 396.126 1309.19 396.34 1311.56 395.518C1310.77 396.646 1309.78 397.632 1308.65 398.417C1314.7 399.732 1321.27 398.532 1326.46 395.163C1325.19 397.456 1323.28 399.392 1321 400.695C1322.47 400.975 1324.03 400.742 1325.35 400.044C1324.62 403.964 1320.93 406.545 1317.46 408.509C1313.59 410.699 1309.6 412.672 1305.51 414.414C1307.11 414.87 1308.79 415.025 1310.44 414.867C1309.71 415.568 1308.98 416.269 1308.25 416.97C1311.83 417.304 1315.51 416.583 1318.7 414.919C1317.43 417.371 1315.29 419.364 1312.75 420.457C1314.31 421.161 1316.26 420.866 1317.55 419.739C1317.08 420.405 1316.61 421.074 1316.14 421.74C1320.39 422.245 1324.84 420.734 1327.9 417.74C1323.57 423.261 1317.7 428.536 1311.6 432.006C1311.15 432.263 1310.66 432.546 1310.44 433.019C1310.11 433.748 1310.59 434.645 1311.29 435.049C1311.98 435.453 1312.82 435.488 1313.62 435.517C1312.51 436.419 1311.4 437.322 1310.28 438.225C1311.23 438.064 1312.22 438.182 1313.1 438.563C1311.87 439.803 1310.64 441.043 1309.41 442.284C1314.5 442.589 1319.55 440.864 1323.94 438.266C1328.33 435.667 1332.15 432.223 1335.91 428.781C1332.89 433.255 1329.06 437.181 1324.67 440.322C1325.68 440.296 1326.69 440.461 1327.64 440.804C1326.51 441.782 1325.38 442.76 1324.25 443.737C1326.06 443.844 1327.89 443.313 1329.36 442.266C1330.97 443.772 1333.57 443.106 1335.56 442.162C1338.14 440.939 1340.56 439.399 1342.76 437.585C1342.79 438.292 1342.83 438.998 1342.87 439.702C1343.19 439.731 1343.52 439.676 1343.84 439.662C1343.31 460.626 1343.16 481.544 1342.58 502.511C1342.41 508.923 1342.27 515.335 1342.11 521.747C1339.32 523.294 1336.71 525.538 1333.91 527.052C1334.06 528.038 1334.22 529.025 1334.37 530.014C1334.41 530.3 1334.52 530.649 1334.8 530.698C1334.93 530.721 1335.07 530.666 1335.19 530.611C1337.11 529.766 1338.95 528.719 1340.65 527.499C1341.09 527.185 1341.53 526.853 1341.85 526.426C1341.93 526.334 1341.95 526.218 1342.01 526.12C1341.47 548.608 1341.05 571.098 1340.73 593.594C1339.28 594.993 1337.83 596.394 1336.38 597.793C1335.62 598.532 1334.8 599.648 1335.38 600.539C1335.51 600.404 1335.73 600.352 1335.91 600.404C1336.19 600.966 1336.97 601.529 1337.25 602.091C1338.25 600.32 1339.43 598.659 1340.69 597.064C1340.63 601.676 1340.57 606.288 1340.51 610.9C1338.49 612.374 1336.53 613.932 1334.7 615.645C1334.96 616.251 1334.91 617.318 1334.52 617.846C1334.79 618.576 1334.66 619.444 1334.19 620.061C1336.54 619.121 1338.52 617.465 1340.45 615.81C1340.26 632.052 1340.1 648.294 1340 664.534L1364.2 665.751C1363.09 642.11 1362.45 614.03 1362.05 584.822C1362.09 584.831 1362.14 584.839 1362.18 584.848C1363.59 585.18 1364.54 587.052 1365.95 586.711C1365.97 586.322 1365.99 585.935 1366.02 585.546C1366.6 585.485 1367.18 585.422 1367.76 585.361C1365.61 583.807 1363.7 581.952 1361.99 579.927C1361.73 559.707 1361.59 539.048 1361.49 519.019C1362.39 519.997 1363.55 520.934 1364.15 521.508C1364.09 521.286 1364.37 521.119 1364.6 521.127C1364.82 521.139 1365.06 521.237 1365.28 521.173C1365.58 521.09 1365.82 520.718 1366.11 520.822C1366.12 520.314 1365.85 519.849 1365.58 519.42C1364.38 517.513 1362.98 515.733 1361.47 514.055C1361.37 494.296 1361.31 475.276 1361.22 458.013C1363.45 459.596 1365.69 461.183 1367.92 462.769C1369.8 464.104 1371.71 465.46 1373.89 466.23C1373.66 465.881 1373.43 465.532 1373.2 465.18C1374.05 465.276 1374.89 465.371 1375.74 465.469C1372.65 462.795 1369.42 460.291 1366.05 457.978C1364.61 456.991 1362.87 455.451 1361.21 454.788C1361.16 446.971 1361.11 439.569 1361.04 432.629C1361.21 432.378 1361.39 432.142 1361.54 431.879C1361.89 433.122 1362.25 434.366 1362.61 435.609C1363.69 434.487 1364.78 433.365 1365.86 432.24C1367.03 433.91 1368.22 435.618 1369.89 436.792C1371.55 437.965 1373.8 438.522 1375.65 437.674C1373.85 435.819 1372.39 433.63 1371.36 431.253C1375.48 434.005 1379.85 436.843 1384.79 437.239C1384.45 436.581 1384.11 435.923 1383.78 435.263C1385.96 436.477 1388.52 437.002 1391.01 436.74C1390.25 436.264 1389.75 435.424 1389.67 434.536C1391.87 434.657 1394.08 434.527 1396.25 434.155C1389.8 430.622 1384.11 425.704 1379.69 419.834C1381.96 421.028 1384.22 422.222 1386.49 423.413C1385.19 421.98 1384.33 420.163 1384.03 418.25C1389.23 423.523 1396.73 427.345 1403.73 429.777C1400.03 428.594 1397.4 425.395 1394.98 422.355C1393.28 420.22 1391.59 418.089 1389.89 415.954C1389.47 415.426 1389.05 414.651 1389.5 414.149C1392.81 416.338 1396.22 418.366 1399.69 420.298C1398.48 419.378 1397.49 418.149 1396.97 416.719C1400.38 419.597 1404.68 422.669 1408.91 421.259C1404.98 419.868 1401.41 417.474 1398.64 414.368C1400.77 415.164 1403.09 415.969 1405.29 415.366C1400.78 412.64 1397.24 408.328 1395.45 403.369C1397.38 404.468 1399.66 404.944 1401.86 404.708C1399.69 404.154 1398.01 402.481 1396.45 400.877C1393.21 397.546 1390.86 394.866 1390.45 390.236C1391.85 391.961 1393.32 393.675 1395.23 394.803C1397.14 395.93 1399.56 396.395 1401.59 395.495C1397.17 392.607 1393.85 388.082 1392.42 383.002C1396.48 386.72 1400.91 390.617 1406.37 391.286C1406.05 390.666 1405.94 389.931 1406.07 389.244C1407.3 390.363 1409.23 390.614 1410.72 389.867Z" fill="#1C1035"/>
<path d="M1375.07 719.298C1371.39 714.421 1370.15 707.778 1371.84 701.902C1370.62 701.36 1369.31 700.731 1368.71 699.531C1368.12 698.331 1368.84 696.479 1370.18 696.548C1368.74 696.465 1369.79 694.151 1369.45 692.753C1369.21 691.752 1368.11 691.253 1367.42 690.494C1365.71 688.645 1367.22 685.022 1369.74 684.936C1368.9 684.405 1368.01 683.793 1367.74 682.844C1367.47 681.895 1368.32 680.655 1369.25 680.97C1369.5 679.643 1368.01 678.748 1367.12 677.736C1366.23 676.721 1366.87 674.387 1368.03 675.079C1366.79 673.758 1367.77 671.653 1367.83 669.844C1367.91 667.444 1366.14 665.292 1364.01 664.185C1361.88 663.077 1359.42 662.812 1357.03 662.564C1354.64 662.316 1352.25 662.068 1349.86 661.82C1347.5 661.574 1344.15 661.713 1341.78 661.465C1337.6 663.614 1334 666.89 1331.47 670.857C1332.89 670.929 1334.33 670.623 1335.6 669.98C1335.29 671.318 1334.57 672.558 1333.56 673.49C1334.01 674.335 1335.46 674.324 1335.9 673.476C1335.89 674.722 1334.43 675.328 1333.29 675.821C1332.15 676.311 1330.93 677.615 1331.67 678.616C1332.4 678.454 1333.21 678.642 1333.8 679.109C1332.53 680.9 1330.9 682.426 1329.02 683.563C1329.8 684.627 1330.82 685.515 1331.98 686.144C1331.41 687.099 1330.57 687.898 1329.6 688.434C1330.39 688.495 1331.19 688.553 1331.98 688.61C1332.37 690.67 1330.94 692.908 1328.91 693.422C1329.41 693.768 1329.92 694.117 1330.43 694.463C1329.2 696.378 1328.58 698.671 1328.66 700.944C1326.56 703.95 1325.34 707.561 1325.18 711.227C1325.11 713.007 1325.44 715.072 1326.97 715.987C1333.07 719.636 1341.51 717.807 1348.61 717.824C1356.85 717.842 1366.94 717.974 1375.07 719.298Z" fill="#1C1035"/>
<path d="M1768 598.45L1717.46 575H1622.06L1550.88 598.45L1479.69 621.9L1369.35 646.06L1288.9 687.275H1214.16L1151.51 726.358L1068.22 746.966L967.133 776.811L908.047 812.341C882.182 816.368 827.462 829.111 815.502 847.871C803.543 866.631 778.722 855.688 767.806 847.871C734.11 861.846 663.729 891.502 651.77 898.324C639.81 905.146 595.056 915.378 574.174 919.642L515.088 952.33L478.782 981.464L413.289 1002.78L372 1071H1768V598.45Z" fill="#1C1035" stroke="#1C1035"/>
</g>
<defs>
<clipPath id="clip0_283_105">
<rect width="1440" height="1024" fill="white"/>
</clipPath>
</defs>
</svg>
