<svg width="1440" height="1024" viewBox="0 0 1440 1024" fill="none" xmlns="http://www.w3.org/2000/svg">
<g clip-path="url(#clip0_283_44)">
<path d="M890.137 915.485C885.013 908.412 881.689 900.047 880.554 891.388C881.698 892.135 883.295 892.108 884.416 891.326C881.316 883.355 878.639 882.07 878.051 873.537C879.072 874.202 880.31 874.526 881.525 874.452C880.928 872.455 880.333 870.458 879.736 868.464C881.369 869.776 883.745 870.079 885.654 869.217C882.548 860.028 875.654 848.766 874.816 839.102C875.825 840.999 878.428 841.846 880.36 840.91C878.145 835.572 874.448 826.875 873.28 821.216C874.483 822.207 875.866 822.984 877.342 823.49C875.583 820.651 874.804 817.222 875.166 813.904C876.063 815.851 878.507 817.678 880.428 816.722C877.086 807.454 871.266 794.836 869.357 785.171C870.795 785.774 872.042 786.824 872.877 788.142C871.963 786.08 871.686 783.739 872.095 781.521C872.869 782.389 874.289 782.583 875.266 781.951C871.448 771.595 869.266 760.936 866.86 750.165C867.195 752.738 869.813 754.785 872.389 754.497C871.33 753.259 870.819 751.571 871.016 749.953C870.222 750.938 872.201 752.165 873.157 751.335C874.116 750.506 874.03 749.024 873.863 747.768C870.53 722.826 866.054 698.037 860.448 673.505C862.092 674.793 864.045 676.158 866.08 675.702C862.457 666.793 860.163 657.343 859.298 647.763C860.151 648.389 861.007 649.016 861.86 649.642C861.521 647.775 861.186 645.907 860.851 644.039C861.41 645.445 863.048 646.325 864.524 646.016C857.957 622.33 854.354 598.483 852.154 574C850.139 595.027 846.862 615.933 842.353 636.569C844.051 636.589 845.748 635.954 847.015 634.825C844.503 645.504 841.445 656.054 837.85 666.419C840.324 665.734 842.603 664.363 844.365 662.502C836.759 683.92 831.165 706.049 827.677 728.508C830.491 727.179 832.956 725.114 834.759 722.576C834.956 723.929 835.156 725.279 835.353 726.632C838.415 723.803 841.162 720.632 843.527 717.197C841.83 724.364 838.4 731.114 833.609 736.709C835.721 737.394 838.18 736.876 839.836 735.4C839.003 744.253 835.918 752.882 830.956 760.262C832.074 760.571 833.286 760.544 834.389 760.188C832.339 765.539 830.286 770.886 828.236 776.236C825.085 784.451 821.9 792.833 821.427 801.619C824.403 799.168 826.977 796.23 829.009 792.957C829.159 795.563 828.715 798.204 827.718 800.616C829.344 800.189 830.771 799.042 831.536 797.545C830.436 808.413 828.597 819.61 826.033 830.228C826.75 829.325 827.68 831.148 827.4 832.266C824.953 842.049 822.503 851.831 820.056 861.614C821.021 860.702 821.982 859.79 822.947 858.878C823.032 861.887 823.115 864.899 823.2 867.908C825.253 866.681 827.003 864.946 828.247 862.899C829.359 867.493 828.474 872.534 825.859 876.473C827.712 876.008 829.474 875.182 831.018 874.055C828.315 886.905 816.994 897.082 816 910.176C817.774 908.653 819.55 907.129 821.324 905.603C821.2 907.409 821.077 909.212 820.953 911.017C822.259 910.276 823.568 909.532 824.874 908.791C823.512 913.806 822.147 918.824 820.785 923.838C826.28 924.482 831.983 920.912 833.806 915.688C833.536 916.362 832.942 918.6 833.033 919.321C833.124 920.038 833.724 920.75 834.447 920.691C834.833 920.659 835.168 920.426 835.477 920.188C837.095 918.95 838.527 917.468 839.709 915.809C839.536 917.418 839.75 919.068 840.33 920.579C840.974 921.518 842.506 920.806 843.092 919.829C843.677 918.853 844.024 917.582 845.068 917.132C846.73 920.571 850.245 922.818 853.924 923.844C857.601 924.868 869.151 922.526 872.969 922.485C874.145 922.471 875.436 922.418 876.307 921.623C877.177 920.832 880.28 922.135 879.133 921.877C881.322 922.574 883.695 922.688 885.939 922.209C885.534 921.388 885.131 920.568 884.725 919.744C886.363 920.203 888.098 920.303 889.781 920.041C890.195 919.976 890.651 919.862 890.884 919.512C891.613 918.421 889.822 916.768 890.137 915.485Z" fill="#10032B"/>
<path d="M854.292 941.403C854.507 931.594 854.636 922.817 854.848 913.008C850.142 913.129 846.159 912.538 842.106 910.141C841.777 922.861 841.448 935.585 841.118 948.306C845.318 945.641 850.092 944.065 854.292 941.403Z" fill="#10032B"/>
<path d="M951.423 875.873C961.766 859.652 967.841 840.701 968.874 821.465C969.464 813.88 970.055 806.282 970.645 798.696C968.395 799.746 966.132 800.784 963.881 801.834C962.627 777.657 966.993 753.208 976.561 730.995C977.864 727.968 979.291 724.805 979.02 721.507C978.737 718.221 976.007 714.873 972.736 715.268C975.527 707.497 977.065 699.269 977.262 691.004C974.888 692.264 972.022 692.573 969.44 691.844C973.879 673.758 976.45 655.214 977.089 636.596C974.408 636.176 971.715 638.832 972.096 641.538C973.277 626.095 974.47 610.64 975.663 595.197C974.851 598.458 971.801 601.028 968.456 601.263C974.568 562.544 983.128 524.209 994.061 486.578C989.129 489.704 984.198 492.841 979.266 495.967C987.358 483.983 989.179 468.961 990.777 454.568C993.188 432.849 995.586 411.143 997.996 389.424C1002.19 351.583 1007.52 315.064 1006.76 277C1011.87 320.314 1019.75 363.295 1030.35 405.596C1027.36 406.473 1023.99 405.954 1021.41 404.212C1025.59 424.238 1029.79 444.252 1033.97 464.278C1030.75 461.462 1027.54 458.657 1024.31 455.841C1028.03 494.225 1053.89 529.015 1051.67 567.511C1049.17 563.385 1046.66 559.258 1044.15 555.132C1044.82 561.667 1045.48 568.203 1046.14 574.738C1039.98 569.759 1034.44 564.027 1029.68 557.689C1031.39 575.961 1037.41 593.813 1047.12 609.367C1044.31 609.083 1041.51 608.799 1038.7 608.515C1047.51 640.463 1056.33 672.423 1065.13 704.372C1061.49 701.431 1057.85 698.479 1054.21 695.538C1054.43 700.455 1055.34 705.335 1056.9 709.993C1055.02 708.362 1053.13 706.731 1051.25 705.113C1052.91 728.092 1056.63 750.91 1062.38 773.209C1058.77 772.579 1055.42 770.677 1053.02 767.909C1056.94 782.759 1060.88 797.609 1064.8 812.447C1061.85 812.212 1059.22 809.716 1058.82 806.764C1053.5 836.785 1083.62 865.1 1077.06 894.874C1070.19 892.243 1065.67 891.156 1059.98 886.473C1059.12 889.834 1059.91 893.577 1062.05 896.295C1058.37 894.232 1054.69 892.181 1051 890.13C1049.98 889.562 1048.84 888.969 1047.68 889.216C1046.55 889.463 1045.76 890.451 1044.85 891.156C1041.22 894.009 1034.9 891.563 1034.13 886.992C1030.7 890.056 1026.37 892.91 1021.87 892.07C1017.37 891.23 1014.39 884.596 1018.07 881.841C1017.62 882.396 1017.07 882.841 1016.52 883.274C1002.93 894.009 986.559 901.175 969.464 903.868C968.235 904.066 966.783 904.165 965.947 903.238C964.988 902.176 965.455 900.495 966.021 899.186C968.149 894.232 970.952 889.574 974.322 885.374C968.481 887.067 962.651 888.771 956.81 890.464C954.707 891.082 952.469 891.687 950.353 891.106C948.238 890.526 946.43 888.24 947.168 886.177C950.575 884.324 949.332 879.147 951.423 875.873Z" fill="#10032B"/>
<path d="M1239 926.186C1228.37 914.865 1220.67 900.83 1216.83 885.801C1220.92 887.923 1225.85 888.36 1230.25 886.982C1221.96 874.764 1215.37 861.407 1210.72 847.406C1212.64 846.826 1214.83 847.22 1216.42 848.445C1213.53 845.94 1211.54 842.396 1210.93 838.622C1216.14 840.427 1222.22 839.508 1226.66 836.238C1216.81 830.232 1209.89 819.644 1208.35 808.224C1211.31 811.101 1215.77 812.326 1219.79 811.374C1218.36 809.11 1217.64 806.408 1217.75 803.728C1220.35 803.98 1222.96 804.231 1225.57 804.483C1222.49 802.306 1220.73 798.39 1221.19 794.638C1225.56 797.088 1231.55 796.115 1234.92 792.418C1225.58 782.409 1217.78 770.967 1211.9 758.617C1216.22 760.236 1221.13 760.225 1225.44 758.606C1216.26 751.824 1209.54 741.815 1206.74 730.778C1208.84 731.621 1211.27 731.653 1213.41 730.877C1210.91 728.908 1208.82 726.425 1207.33 723.613C1211.16 723.712 1214.97 723.81 1218.8 723.909C1215.93 721.546 1214.25 717.816 1214.37 714.108C1217.34 713.944 1220.33 713.779 1223.3 713.604C1218.17 707.687 1214.01 700.937 1211.04 693.696C1214 693.707 1216.62 692.941 1219.58 692.952C1208.18 682.025 1200.83 666.984 1199.22 651.287C1201.28 652.862 1204.01 653.529 1206.57 653.07C1204.14 645.391 1201.72 637.712 1199.28 630.044C1201.78 630.219 1204.33 629.749 1206.6 628.666C1201.04 623.066 1197.01 615.955 1195.08 608.32C1197.31 609.436 1199.53 610.552 1201.75 611.667C1201.62 607.543 1201.49 603.42 1201.35 599.296C1203.17 601.418 1207.03 599.777 1207.93 597.13C1208.83 594.483 1207.79 591.617 1206.76 589.014C1200.52 573.229 1194.27 557.444 1188.03 541.66C1191.49 543.662 1194.94 545.653 1198.38 547.654C1198.54 545.193 1198.69 542.732 1198.84 540.271C1199.53 544.351 1206 545.74 1208.32 542.305C1200.77 538.728 1197.54 529.868 1195.7 521.752C1194.18 515.09 1193.12 508.341 1192.07 501.603C1191.57 498.474 1191.08 495.357 1190.6 492.228C1188.77 480.579 1186.93 468.94 1185.11 457.29C1186.85 459.336 1190.14 459.85 1192.42 458.45C1185.54 441.812 1180.39 424.464 1177.05 406.776C1178.27 408.515 1180.37 409.62 1182.49 409.631C1182.2 406.743 1181.9 403.844 1181.61 400.956C1183.84 402.411 1186.09 403.866 1188.33 405.31C1187.6 399.895 1186.87 394.491 1186.15 389.077C1186.76 390.74 1189.49 390.39 1190.38 388.858C1191.27 387.327 1190.89 385.412 1190.49 383.695C1186.15 365.187 1181.81 346.679 1177.47 328.171C1179.64 329.396 1181.81 330.621 1183.99 331.846C1177.1 310.209 1173.96 287.698 1173.14 265C1167.8 298.888 1160.87 332.535 1152.4 365.789C1155.16 366.128 1158.04 365.307 1160.19 363.557C1161.94 382.831 1159.33 402.488 1152.62 420.635C1154.42 419.29 1156.23 417.944 1158.03 416.609C1157.77 441.265 1154.31 465.877 1147.8 489.658C1151.03 487.776 1153.83 485.118 1155.87 481.979C1156.44 488.225 1155.68 494.591 1153.65 500.52C1156.14 500.225 1158.54 499.229 1160.51 497.676C1160.15 516.075 1154.88 534.353 1145.39 550.126C1148.55 551.428 1152.5 550.466 1154.71 547.851C1152.72 557.751 1148.8 567.256 1143.24 575.69C1150.02 572.408 1155.8 567.103 1159.65 560.639C1155.09 573.459 1148.96 585.71 1141.43 597.053C1144.63 597.546 1148.04 596.452 1150.35 594.198C1150.4 600.718 1148.59 607.248 1145.18 612.816C1148.31 618.843 1147.33 626.752 1142.83 631.849C1145.06 633.107 1147.97 633.052 1150.17 631.729C1150.88 640.939 1149.32 650.314 1145.68 658.802C1148.48 657.621 1151.27 656.45 1154.06 655.269C1145.85 680.898 1134.77 705.619 1121.1 728.809C1125.49 725.834 1129.9 722.848 1134.3 719.872C1134.1 723.132 1133.9 726.403 1133.71 729.663C1136.4 728.777 1138.89 727.267 1140.91 725.276C1141.04 727.464 1141.18 729.641 1141.31 731.828C1145.41 729.892 1149.19 727.256 1152.42 724.062C1150.09 733.239 1142.16 744.386 1136.8 752.196C1138.41 752.459 1140.02 752.721 1141.64 752.984C1140.71 757.753 1139.79 762.533 1138.87 767.313C1137.75 778.143 1133.19 788.589 1126.01 796.782C1129.99 798.97 1135.18 798.762 1138.97 796.257C1138.28 806.299 1135.58 816.209 1131.1 825.222C1135.76 821.864 1140.42 818.517 1145.09 815.159C1140.51 833.995 1132.38 851.978 1121.27 867.872C1127.12 866.319 1132.53 863.191 1136.8 858.903C1131.99 869.141 1127.18 879.391 1122.37 889.629C1125.86 888.087 1129.34 886.544 1132.83 885.002C1130.12 897.658 1123.88 909.548 1115 918.999C1119.73 920.137 1124.96 919.01 1128.79 916.024C1128.75 921.417 1126.23 926.744 1122.08 930.211C1128.56 931.568 1135.48 930.715 1141.45 927.838C1149.93 923.747 1156.9 922.62 1165.67 919.196C1165.21 922.237 1163.72 925.125 1161.49 927.258C1166.22 927.05 1170.87 925.442 1174.71 922.675C1174.45 925.136 1174.88 927.663 1175.96 929.894C1178.78 927.4 1180.88 924.108 1181.95 920.509C1188.25 926.963 1196.52 933.985 1205.19 931.48C1204.41 929.183 1203.64 926.886 1202.85 924.589C1213.47 930.299 1226.96 927.346 1239 926.186Z" fill="#10032B"/>
<path d="M973.978 903.344C965.412 866.764 960.143 829.43 958.264 791.928C959 792.775 959.737 793.628 960.467 794.475C958.719 790.303 957.814 785.798 957.802 781.28C959.2 782.411 960.667 783.288 962.066 784.419C957.776 769.451 954.224 754.273 951.415 738.965C952.913 740.763 954.411 742.561 955.91 744.36C955.161 741.536 954.923 738.581 955.223 735.683C956.703 735.98 958.189 736.27 959.668 736.567C955.797 717.266 950.69 697.212 944.197 678.609C945.777 681.069 948.618 682.695 951.564 682.812C946.988 660.094 942.412 637.375 937.836 614.651C939.603 615.207 941.363 615.757 943.13 616.314C940.058 607.773 936.987 599.232 933.921 590.691C936.562 593.929 939.209 597.161 941.85 600.4C940.751 599.071 940.408 597.168 940.97 595.542C941.132 598.181 943.53 600.499 946.202 600.591C943.161 583.163 938.972 565.933 933.671 549.049C934.652 549.673 935.894 549.883 937.03 549.611C931.312 531.751 925.643 515.411 922.109 497C919.506 515.59 913.849 533.753 905.427 550.569C907.525 550.551 909.61 549.871 911.308 548.654C910.99 555.149 909.229 561.564 906.195 567.33C907.606 567.046 908.961 566.459 910.134 565.63C905.096 581.637 900.058 597.65 895.02 613.656C898.079 611.45 900.601 608.527 902.318 605.183C900.339 621.579 897.954 637.926 895.157 654.204C898.422 652.863 900.788 649.606 901.051 646.12C900.42 650.626 899.783 655.137 899.153 659.643C900.688 659.037 901.968 657.819 902.643 656.324C901.662 684.61 897.86 712.798 891.324 740.355C894.876 738.612 897.536 735.189 898.316 731.338C898.466 737.673 897.392 744.032 895.169 749.972C896.574 749.119 897.979 748.26 899.384 747.4C899.065 752.82 897.454 758.166 894.72 762.869C898.21 761.961 900.994 758.828 901.463 755.286C901.219 773.221 897.361 792.404 891.917 809.511C893.964 809.591 896.025 808.72 897.38 807.199C896.025 813.794 895.656 820.586 896.293 827.285C898.21 824.436 900.133 821.587 902.049 818.738C898.734 843.242 895.094 867.703 891.124 892.115C892.372 890.977 893.621 889.834 894.87 888.697C893.577 896.292 891.954 903.826 890 911.279C896.2 912.008 902.649 911.403 908.711 909.907C908.361 910.729 908.586 911.761 909.254 912.367C914.811 912.787 920.367 913.207 925.924 913.621C926.841 913.689 927.772 913.757 928.677 913.615C931.749 913.127 933.946 910.352 936.893 909.363C939.578 911.631 942.406 913.974 945.839 914.771C949.273 915.568 953.487 914.277 954.78 911.026C961.966 912.818 969.426 913.529 976.831 913.121C977.499 910.649 976.113 904.765 973.978 903.344Z" fill="#10032B"/>
<path d="M1385.92 791.261C1384.61 806.038 1386.66 821.718 1388.56 836.409C1374.54 841.944 1359.77 851.707 1347.19 860.333C1346.71 838.013 1346.63 815.684 1346.97 793.364C1352.76 790.124 1359.35 783.559 1365.84 782.837C1372.47 782.114 1386.54 784.165 1385.92 791.261Z" fill="#10032B"/>
<path d="M1460.43 774.166C1450.14 757.69 1441.72 739.885 1435.4 721.262C1438.54 720.806 1441.67 720.349 1444.81 719.892C1431.76 705.19 1422.58 686.599 1418.59 666.776C1421.35 668.678 1424.58 669.783 1427.84 669.963C1425.37 665.831 1422.89 661.698 1420.41 657.566C1423.51 658.394 1426.99 657.481 1429.38 655.197C1419.3 645.657 1411.01 633.95 1405.15 620.99C1407.4 619.79 1409.67 618.6 1411.92 617.399C1401.92 600.211 1395.19 580.866 1392.23 560.873C1395.39 564.931 1400.91 566.684 1405.61 565.123C1392.05 540.402 1383.31 512.655 1380.12 484.195C1381.68 484.78 1383.24 485.364 1384.8 485.948C1372.92 446.78 1362.12 407.751 1356.53 367C1351.12 404.84 1343.62 442.329 1334.07 479.213C1337 480.594 1340.82 479.16 1342.32 476.132C1341.17 481.529 1340.03 486.925 1338.89 492.322C1340.71 491.43 1342.53 490.548 1344.35 489.655C1340.93 523.862 1335.11 557.803 1326.96 591.086C1329.24 588.579 1331.52 586.072 1333.81 583.564C1333.61 588.281 1332.67 592.966 1331.03 597.343C1333.04 595.866 1335.06 594.39 1337.07 592.913C1331.81 617.442 1322.75 641.036 1310.38 662.442C1312.18 663.738 1314.7 663.834 1316.58 662.665C1315.9 669.432 1313.97 676.061 1310.95 682.063C1311.94 680.65 1314.29 681.787 1314.65 683.508C1315 685.229 1314.11 686.939 1313.26 688.447C1309.38 695.31 1305.49 702.173 1301.62 709.035C1305.02 707.675 1308.42 706.326 1311.82 704.966C1311.83 711.192 1309.84 717.396 1306.26 722.293C1310.32 719.86 1314.38 717.427 1318.45 714.984C1315.63 739.747 1307.55 763.819 1295 784.842C1299.18 785.012 1303.4 783.6 1306.74 780.912C1307.19 785.99 1305.83 791.227 1302.98 795.328C1308.37 794.127 1313.48 793.245 1316.82 788.56C1315.64 793.766 1313.59 798.748 1310.81 803.199C1316.18 801.277 1321.53 799.354 1326.89 797.431C1327.02 800.554 1327.15 803.677 1327.28 806.8C1339.02 806.301 1350.63 802.636 1360.76 796.241C1363.69 799.471 1366.63 802.711 1369.56 805.94C1372.06 803.826 1374.56 801.701 1377.06 799.577C1381.04 802.371 1385.33 804.644 1389.82 806.333C1388.87 804.516 1387.92 802.7 1386.98 800.873C1392.09 808.086 1400.59 812.399 1409.05 812.08C1408.89 809.329 1407.47 806.694 1405.32 805.175C1422.06 811.326 1439.81 814.29 1457.5 813.886C1458.13 805.472 1456.19 796.857 1452.03 789.676C1455.16 792.937 1459.64 794.669 1464 794.308C1463.3 790.303 1460.72 786.712 1457.29 784.959C1458.94 786.085 1461.01 786.457 1462.91 785.958C1462.93 782.58 1462.19 777.002 1460.43 774.166Z" fill="#10032B"/>
<path d="M1179.92 627.417C1179.26 628.702 1178.48 629.929 1177.46 630.968C1178.25 629.767 1179.08 628.587 1179.92 627.417Z" fill="#10032B"/>
<path d="M1308.29 629.489C1308.58 629.473 1308.87 629.504 1309.15 629.468C1308.88 629.62 1308.58 629.588 1308.29 629.489Z" fill="#10032B"/>
<path d="M1144 628.728C1168.41 621.296 1186.96 601.191 1200.5 579.571C1202.24 576.791 1202.39 574.268 1202.23 570.995C1201.14 573.408 1199.22 575.443 1196.87 576.665C1196.69 575.417 1196.67 574.147 1196.8 572.894C1194.31 578.569 1188.3 582.508 1182.1 582.534C1187.38 577.326 1191.91 571.357 1195.51 564.869C1193.31 565.299 1191.05 565.372 1188.83 565.084C1189.13 563.211 1190.74 561.868 1192.2 560.652C1201.19 553.146 1208.46 543.584 1213.28 532.91C1211.59 534.772 1209.57 536.335 1207.35 537.51C1207.67 536.298 1207.99 535.087 1208.31 533.875C1206.4 534.903 1204.18 535.312 1202.03 535.034C1202.17 533.891 1202.32 532.747 1202.45 531.604C1199.34 533.618 1195.43 534.358 1191.79 533.618C1195.1 531.646 1198.02 529.008 1200.31 525.903C1197.84 527.313 1195 528.058 1192.16 528.037C1192.29 526.946 1192.42 525.861 1192.56 524.775C1189.23 526.285 1185.39 526.223 1181.79 525.593C1197.31 517.264 1207.97 503.343 1213.63 486.658C1211.28 490.477 1207.5 493.398 1203.21 494.704C1203.64 493.551 1203.77 492.292 1203.6 491.075C1200.56 493.477 1196.69 494.825 1192.86 495.439C1208.6 481.67 1219.16 462.122 1222.06 441.419C1221.16 442.741 1219.61 443.601 1218 443.664C1221.49 437.837 1222.18 431.322 1221.62 424.556C1220.68 426.397 1218.68 427.651 1216.61 427.687C1218.59 425.736 1219.72 422.951 1219.66 420.176C1216.18 423.78 1211.96 426.675 1207.35 428.621C1207.46 424.446 1214.22 422.327 1213.43 418.225C1211.6 420.008 1209.3 421.293 1206.82 421.923C1209.85 419.007 1213.15 415.366 1212.48 411.212C1209.52 415.943 1205.45 419.447 1200.16 421.231C1206.57 414.769 1208.52 405.285 1211.5 396.688C1214.47 388.123 1218.73 380.009 1224.09 372.692C1221.34 373.762 1218.18 373.694 1215.48 372.503C1223.52 360.334 1229.68 346.933 1233.71 332.913C1231.53 333.841 1229.09 334.124 1226.75 333.726C1232.71 326.949 1235.44 317.455 1234 308.549C1232.04 311.555 1228.96 313.81 1225.5 314.759C1229.79 310.778 1233.14 305.79 1235.19 300.309C1229.75 307.595 1221.38 312.625 1212.4 314.02C1218.16 303.488 1222.94 292.415 1226.66 281.002C1224.91 280.86 1223.17 280.718 1221.42 280.572C1224.12 274.65 1227.3 268.948 1230.93 263.541C1229.65 262.806 1228.03 262.707 1226.67 263.273C1231.31 256.098 1234.58 248.046 1236.26 239.665C1234.91 239.633 1233.59 239.135 1232.56 238.275C1237.01 230.931 1240.39 222.933 1242.55 214.619C1241.36 216.177 1239.06 216.759 1237.27 215.962C1241.54 206.631 1243.22 198.239 1243.87 188C1247.61 198.805 1251.36 209.61 1255.1 220.41C1255.38 221.202 1255.63 222.141 1255.15 222.822C1254.87 223.216 1254.3 223.232 1253.89 223.048C1256.54 227.585 1259.2 232.117 1261.85 236.654C1260.91 235.893 1259.97 235.128 1259.03 234.367C1262.26 240.971 1265.48 247.58 1268.71 254.183C1261.5 249.436 1255.52 242.843 1251.5 235.211C1254.02 249.436 1259.96 263.037 1268.68 274.555C1267.03 273.842 1265.38 273.129 1263.73 272.415C1266.9 278.075 1270.94 283.241 1275.67 287.684C1269.79 284.694 1264.51 280.551 1260.2 275.562C1262.36 284.437 1266.06 292.94 1271.09 300.561C1267.78 299.008 1264.87 296.611 1262.72 293.658C1265 305.376 1269.25 317.193 1275.54 327.348C1272.84 326.147 1270.31 324.568 1268.04 322.68C1269.73 325.47 1271.42 328.266 1273.11 331.056C1271.98 330.573 1270.85 330.096 1269.72 329.614C1278.5 351.129 1291.5 370.62 1304.41 389.948C1299.49 387.342 1295.41 383.182 1292.91 378.21C1292.87 379.72 1292.84 381.231 1292.8 382.742C1290.23 379.925 1287.95 376.83 1286.04 373.531C1286.69 374.69 1284.28 374.774 1283.33 373.846C1281.07 371.627 1279.07 369.125 1277.4 366.424C1277.35 367.824 1277.31 369.23 1277.25 370.631C1272.33 368.973 1268.16 365.202 1266.02 360.466C1270.69 370.022 1275.22 379.658 1279.89 389.219C1278.4 388.548 1276.91 387.882 1275.42 387.211C1280.04 396.332 1284.65 405.453 1289.27 414.58C1289.75 415.529 1290.24 416.672 1289.73 417.606C1289.41 418.199 1288.54 418.293 1288 418.026C1296.95 436.3 1309.85 452.628 1325.57 465.541C1323.02 465.872 1320.35 465.211 1318.24 463.732C1319.7 465.363 1321.15 466.994 1322.62 468.626C1318.28 466.459 1314.13 463.91 1310.24 461.01C1312.9 466.396 1316.82 471.154 1321.6 474.799C1318.15 474.584 1314.77 473.603 1311.75 471.941C1311.64 474.128 1312.36 476.352 1313.73 478.056C1307.81 474.663 1302.38 470.399 1297.68 465.437C1297.3 467.566 1297.54 469.801 1298.36 471.804C1292.07 468.731 1286.51 464.146 1282.29 458.555C1282.28 460.684 1282.28 462.814 1282.27 464.943C1280.27 462.751 1278.27 460.559 1276.27 458.366C1281.78 471.809 1288.08 485.143 1295.71 497.511C1303.34 509.879 1313.21 521.156 1325.77 528.473C1322.63 528.819 1319.38 527.807 1317 525.745C1320.39 530.109 1324.54 533.891 1329.19 536.881C1322.99 535.947 1317.15 532.685 1313.12 527.875C1313.27 529.564 1313.87 531.211 1314.84 532.606C1310.28 530.387 1306.17 527.219 1302.88 523.364C1303.1 526.689 1303.33 530.015 1303.55 533.34C1301.08 530.88 1298.85 528.184 1296.9 525.294C1297.61 526.16 1296.46 527.534 1295.34 527.439C1294.22 527.345 1293.38 526.417 1292.65 525.556C1289.99 522.399 1287.32 519.246 1284.66 516.089C1297.9 549.925 1325.24 576.938 1358.12 592.395C1355.97 592.296 1353.82 592.196 1351.67 592.096C1353.97 594.677 1356.86 596.733 1360.06 598.05C1354.53 599.854 1348 598.008 1344.23 593.581C1347.03 598.946 1350.55 603.94 1354.67 608.382C1348.88 604.506 1343.73 599.66 1339.52 594.105C1340.45 597.845 1342.44 601.317 1345.19 604.013C1338.08 600.656 1331.48 596.198 1325.71 590.843C1327.68 595.013 1330.82 598.621 1334.67 601.16C1325.59 596.376 1317.66 589.437 1311.71 581.076C1312.56 587.098 1315.44 592.815 1319.79 597.079C1310.84 590.502 1302.95 582.492 1296.51 573.45C1296.42 577.226 1297.54 581.029 1299.67 584.15C1294.75 581.805 1290.26 578.564 1286.48 574.625C1287.33 578.128 1289.04 581.422 1291.43 584.124C1287.9 583.08 1284.65 581.055 1282.17 578.338C1282.19 580.106 1282.2 581.873 1282.23 583.641C1279.78 583.101 1277.54 581.7 1275.98 579.739C1281 588.456 1287.38 597.042 1295.12 603.462C1293.68 603.798 1292.08 603.415 1290.94 602.461C1291.41 604.333 1292.37 606.08 1293.71 607.475C1288.68 605.671 1283.83 603.326 1279.29 600.504C1288.21 612.605 1300.72 622.02 1314.83 627.233C1312.62 628.498 1309.91 628.87 1307.44 628.256C1307.34 628.818 1307.78 629.305 1308.31 629.489C1305.09 629.678 1301.82 628.744 1299.26 626.788C1307.72 635.904 1321.66 636.607 1334.09 636.68C1331.91 638.799 1329.25 640.415 1326.36 641.374C1328.5 642.198 1330.65 643.016 1332.79 643.84C1329.9 644.296 1327.01 644.747 1324.11 645.203C1325.92 646.263 1327.73 647.328 1329.54 648.387C1319.14 651.209 1307.89 650.805 1297.72 647.238C1300.22 649.84 1303.1 652.064 1306.25 653.816C1302.81 654.786 1298.9 653.91 1296.2 651.571C1303.69 661.626 1314.03 671.702 1324.73 678.248C1320.98 679.082 1316.96 678.599 1313.52 676.9C1314.58 679.213 1315.94 681.395 1317.54 683.378C1314.45 682.905 1311.56 681.237 1309.6 678.804C1309.72 680.325 1309.83 681.851 1309.94 683.372C1307.39 682.706 1305 681.442 1303.01 679.716C1316.37 697.87 1338.14 709.561 1360.66 710.684C1358.54 712.011 1357.38 712.714 1354.98 713.395C1357.93 713.07 1360.97 713.658 1363.59 715.063C1360.66 716.511 1357.2 716.852 1354.05 716.007C1358.17 719.254 1363.17 721.379 1368.36 722.102C1362.25 723.734 1355.53 722.973 1349.93 720.009C1353.24 726.702 1358.73 732.294 1365.36 735.729C1353.08 736.144 1341.51 730.547 1330.51 725.076C1331.94 727.956 1333.94 730.563 1336.34 732.698C1332.23 732.619 1328.14 731.271 1324.77 728.89C1325.45 730.112 1326.12 731.339 1326.8 732.561C1316.36 730.909 1306.43 726.209 1298.53 719.191C1298.38 721.442 1299.29 723.744 1300.93 725.281C1295.85 724.908 1290.96 722.317 1287.8 718.315C1302.88 745.842 1330.23 768.386 1360.76 775.687C1355.34 777.051 1350.54 778.016 1345.35 775.975C1349.99 782.028 1356.84 786.355 1364.3 787.966C1360.57 788.616 1356.69 788.343 1353.09 787.168C1353.56 788.946 1354.78 790.515 1356.39 791.401C1353.4 791.191 1350.5 789.87 1348.38 787.74C1348.32 789.156 1348.69 790.583 1349.41 791.8C1343.79 791.207 1338.35 789.025 1333.87 785.574C1335.2 788.7 1337.04 791.611 1339.29 794.15C1332.98 792.351 1326.88 789.796 1321.17 786.549C1322.08 789.14 1323.41 791.59 1325.09 793.767C1321.41 792.754 1317.9 791.118 1314.76 788.952C1314.54 791.6 1315.11 794.318 1316.4 796.646C1312.85 795.749 1309.46 794.176 1306.47 792.036C1306.23 793.473 1306.39 794.978 1306.93 796.332C1300.66 793.473 1295.01 789.256 1290.48 784.063C1291.04 790.662 1294.01 797.024 1298.72 801.682C1295.78 800.239 1292.84 798.797 1289.9 797.354C1290.79 799.085 1291.67 800.811 1292.55 802.542C1286.04 800.748 1280.08 796.987 1275.66 791.879C1275.72 795.256 1277.23 798.587 1279.74 800.848C1274.22 799.054 1269.17 795.907 1265.02 791.852C1264.9 799.421 1264.82 806.974 1264.77 814.522C1266.12 817.422 1267.38 820.297 1269.15 823.04C1271.25 826.287 1273.61 829.35 1275.97 832.408C1275.61 832.507 1275.19 832.36 1274.96 832.056C1274.96 832.292 1274.97 832.534 1274.97 832.77C1271.92 829.79 1269.11 826.565 1266.58 823.129C1265.89 822.185 1265.26 821.199 1264.71 820.165C1264.57 846.076 1264.73 871.935 1264.75 898.009C1264.89 898.129 1265.04 898.318 1265.27 898.565C1266.43 899.803 1267.44 901.124 1268.71 902.268C1268.87 902.415 1269.04 902.577 1269.06 902.792C1269.09 903.007 1268.86 903.243 1268.67 903.138C1268.66 903.317 1268.64 903.495 1268.63 903.668C1268.52 903.684 1268.41 903.652 1268.34 903.579C1268.32 903.778 1268.28 903.972 1268.26 904.172C1267.04 903.359 1265.88 902.467 1264.75 901.528C1264.75 913.314 1264.74 925.137 1264.63 937.043C1264.12 937.473 1264.74 937.662 1264.1 937.489C1260.32 936.44 1255.21 935.837 1251.48 937.043C1251.64 918.722 1251.61 900.6 1251.56 882.536C1250.41 883.149 1249.25 883.768 1248.1 884.382C1247.42 884.744 1246.73 885.111 1246.19 885.667C1246.03 885.447 1245.72 885.337 1245.46 885.41C1245.29 885.142 1245.12 884.87 1244.95 884.602C1244.9 884.518 1244.85 884.429 1244.87 884.335C1244.89 884.261 1244.95 884.209 1245.01 884.156C1246.82 882.646 1248.57 880.946 1250.48 879.572C1250.92 879.257 1251.26 879.116 1251.55 879.058C1251.47 849.627 1251.38 820.349 1251.87 790.903C1251.4 793.164 1250.42 795.314 1248.97 797.113C1247.96 797.344 1247 795.996 1247.56 795.12C1243.59 801.189 1236.99 805.458 1229.83 806.575C1231.09 803.072 1232.35 799.568 1233.62 796.069C1230.4 800.848 1224.85 803.969 1219.09 804.22C1220.49 802.385 1221.89 800.549 1223.29 798.713C1212.45 805.615 1199.3 808.81 1186.52 807.64C1187.21 806.276 1188.44 805.238 1189.84 804.614C1186.1 805.369 1182.11 804.892 1178.73 803.103C1180.31 801.813 1182.11 800.785 1184.02 800.077C1181 800.606 1177.83 800.192 1175.05 798.907C1177.61 797.097 1180.5 795.77 1183.54 795.026C1180.5 795.293 1176.17 794.375 1176.47 791.333C1178.65 790.908 1180.22 790.378 1182.44 790.226C1193.18 789.476 1201.89 781.53 1209.2 773.631C1212.18 770.421 1215.22 766.828 1215.65 762.469C1212.56 765.71 1207.08 763.224 1202.7 764.179C1203.96 763.041 1204.92 761.583 1205.48 759.978C1203.45 761.105 1201.14 761.714 1198.83 761.719C1200.24 760.271 1201.33 758.498 1201.97 756.573C1198.96 757.937 1193.83 759.385 1190.55 759.7C1210.04 749.65 1225.34 731.764 1232.26 710.956C1230.02 714.114 1226.29 716.175 1222.42 716.401C1222.43 714.03 1222.91 711.665 1223.84 709.483C1222.02 711.502 1219.8 713.154 1217.35 714.319C1217.85 712.126 1218.02 709.86 1217.85 707.615C1212.28 715.976 1203.57 722.202 1193.86 724.772C1194.2 723.398 1194.53 722.024 1194.87 720.644C1192.74 721.751 1190.6 722.863 1188.47 723.97C1190.01 721.641 1191.54 719.312 1193.07 716.983C1190.55 718.719 1187.17 719.134 1184.31 718.048C1201.54 703.923 1214.6 684.762 1221.44 663.561C1218.93 664.862 1216.12 665.565 1213.3 665.607C1216.04 663.331 1218.06 660.199 1219.02 656.764C1215.19 661.217 1208.93 663.451 1203.14 662.428C1204.14 661.526 1204.78 660.236 1204.9 658.898C1201.82 660.425 1198.18 660.808 1194.85 659.958C1196.3 658.883 1197.35 657.278 1197.76 655.515C1196.12 657.299 1193.43 658.033 1191.11 657.335C1193.99 656.019 1196.39 653.695 1197.82 650.868C1195.08 653.795 1191.15 654.76 1187.15 654.917C1200.89 640.63 1209.78 625.314 1214.54 606.069C1211.41 611.225 1206.18 615.07 1200.32 616.523C1201.4 614.855 1202.01 612.888 1202.06 610.905C1199.43 615.128 1195.23 618.353 1190.47 619.817C1190.18 618.61 1189.9 617.404 1189.61 616.192C1186.07 619.649 1182.83 623.41 1179.93 627.412C1181.18 625.004 1181.86 622.293 1181.7 619.581C1176.34 628.697 1167.13 635.463 1156.83 637.86C1160.33 635.521 1163.09 632.085 1164.61 628.157C1161.42 629.625 1158.11 630.826 1154.72 631.739C1157.28 630.743 1159.32 628.508 1160.08 625.87C1155.31 628.214 1149.3 629.017 1144 628.728Z" fill="#10032B"/>
<path d="M1189.05 495.229C1190.21 495.938 1191.45 496.557 1192.82 496.949C1191.54 496.401 1190.31 495.799 1189.05 495.229Z" fill="#10032B"/>
<path d="M1155.2 139.652C1154.18 139.045 1153.16 138.438 1152.14 137.835C1153.04 138.56 1154.04 139.205 1155.2 139.652Z" fill="#10032B"/>
<path d="M1209.09 450.749C1204.38 446.947 1200.25 442.668 1196.85 438.053C1195.05 435.629 1193.41 432.897 1193.89 430.103C1195.23 431.114 1197.05 431.7 1198.9 431.709C1198.48 430.954 1198.33 430.115 1198.44 429.298C1201.07 431.367 1205.02 432.274 1208.6 431.624C1207.76 430.996 1207.68 429.824 1208.43 429.129C1212.04 431.936 1218.48 433.686 1223.49 433.686C1211.35 426.549 1201.55 416.854 1195.33 405.827C1197.49 405.671 1199.55 404.757 1200.87 403.37C1190.22 395.593 1181.74 385.89 1176.25 375.183C1180.87 378.77 1186.25 381.721 1192.09 383.866C1191.79 382.842 1191.5 381.818 1191.2 380.793C1194.09 382.281 1197.82 382.657 1201.08 381.797C1182.95 369.585 1172.05 352.547 1167.26 333.899C1169.67 337.28 1173.81 339.826 1178.49 340.804C1176.53 338.338 1174.57 335.868 1172.6 333.402C1176.8 336.011 1181.18 338.426 1185.72 340.631C1188.16 341.815 1191.22 342.958 1193.72 341.845C1189.51 339.906 1185.88 337.162 1183.21 333.904C1188.34 336.235 1194.63 338.106 1199.97 336.104C1198.28 333.996 1195.93 332.302 1193.68 330.561C1183.84 322.936 1175.59 313.983 1169.38 304.186C1168.06 302.092 1166.8 299.853 1166.92 297.505C1172.02 302.475 1180.44 304.14 1188.25 305.523C1189.03 305.662 1190.35 305.704 1191.06 305.417C1183.33 304.566 1176.62 300.473 1171.9 295.465C1167.18 290.462 1164.17 284.569 1161.22 278.748C1160.82 277.96 1160.41 277.138 1160.48 276.29C1163.41 278.807 1168.38 279.603 1172.29 278.183C1163.35 272.956 1157.44 264.509 1156.49 255.64C1159.09 257.25 1162.25 258.258 1165.5 258.511C1164.67 257.448 1164.53 256.045 1165.15 254.89C1171.09 259.746 1180.79 261.069 1189.17 260.129C1182.54 255.644 1176.19 250.759 1171.62 244.837C1167.06 238.91 1164.39 231.812 1165.66 224.911C1167.98 225.931 1170.01 227.377 1171.56 229.11C1165.48 221.661 1162.34 212.683 1162.68 203.772C1167.48 208.75 1170.61 214.297 1171.35 220.574C1169.37 204.13 1155.83 189.47 1155.31 172.951C1156.37 175.362 1159.47 177.082 1162.65 177.018C1156.83 171.138 1152.63 164.234 1150.4 156.937C1149.8 154.96 1149.49 152.545 1151.39 151.2C1154.07 154.602 1156.41 158.733 1159.09 162.134C1156.24 156.92 1153.4 151.706 1150.56 146.496C1148.7 143.078 1146.82 139.174 1148.63 135.739C1149.8 136.434 1150.97 137.13 1152.14 137.83C1150.07 136.173 1148.7 133.935 1148.57 131.583C1150.51 133.905 1154.54 134.925 1157.78 133.91C1153.22 128.944 1149.51 123.464 1146.79 117.685C1149.79 118.351 1153.05 118.208 1155.94 117.285C1150.05 108.534 1145.89 99.0288 1143.66 89.2327C1144.62 90.7586 1146.86 91.686 1148.96 91.4246C1145.95 85.5107 1142.94 79.5926 1139.93 73.6787C1141.98 73.7587 1144.04 73.8346 1146.1 73.9147C1132.79 55.7641 1125.98 35.0802 1125.42 14C1117.4 35.35 1107.81 56.3163 1096.72 76.7557C1102.47 75.8537 1107.6 72.6839 1110.18 68.4434C1106.65 79.1584 1100.73 89.355 1092.8 98.4092C1096.12 97.9413 1099.04 95.9475 1100.16 93.3847C1098.26 100.525 1095.02 107.438 1090.6 113.816C1092.83 112.834 1095.07 111.847 1097.3 110.865C1089.21 127.279 1081.12 143.689 1073.02 160.103C1079.23 153.367 1085.43 146.635 1091.64 139.899C1092.46 146.188 1090.58 152.692 1086.4 158.042C1090.71 157.641 1094.56 154.964 1095.69 151.58C1092.39 161.873 1087.7 172.559 1080.7 181.567C1081.81 182.574 1084.14 182.38 1084.97 181.217C1081.49 189.162 1074.96 196.109 1072.01 204.194C1070.29 208.911 1069.84 213.863 1068.58 218.673C1063.43 238.223 1045.38 253.642 1028.08 267.961C1034.09 266.321 1039.5 263.278 1043.48 259.29C1039.31 268.846 1032.43 277.622 1023.52 284.767C1028.46 283.068 1033.01 280.632 1036.87 277.618C1037.23 278.853 1037.59 280.088 1037.96 281.327C1047.1 277.947 1054.75 272.079 1059.52 264.943C1059.05 266.123 1060.76 267.729 1062.53 267.594C1064.62 267.434 1066.12 265.959 1067.38 264.606C1072.76 258.78 1078.15 252.951 1083.53 247.125C1084.23 246.371 1086.23 246.152 1086.72 247.003C1087.21 247.855 1086.84 248.854 1086.46 249.739C1071.83 283.831 1046.6 314.931 1013.74 339.413C1017.58 341.196 1023.11 339.902 1025.18 336.74C1024.59 339.935 1022.53 342.941 1019.48 345.044C1023.93 344.855 1028.27 343.228 1031.31 340.597C1030.98 342.452 1030.19 344.252 1029 345.866C1036.97 343.025 1043.77 338.102 1048.12 332.019C1048.46 334.873 1047.49 337.82 1045.44 340.163C1056.38 334.447 1065.05 325.958 1069.91 316.212C1058.75 341.862 1040.64 364.986 1017.39 384.667C1019.74 384.815 1022.1 384.962 1024.46 385.11C1021.53 390.96 1017.29 396.381 1012 401.035C1021.06 399.488 1029.54 395.787 1036.09 390.509C1035.61 393.359 1033.89 396.061 1031.29 398.034C1039.33 397.191 1046.9 393.734 1051.94 388.608C1045.22 402.08 1034.22 413.495 1020.62 423.009C1023.01 422.937 1025.41 422.865 1027.8 422.794C1027.34 425.458 1025.52 427.949 1022.86 429.563C1026.44 429.938 1030.17 429.42 1033.4 428.105C1031.07 430.609 1028.18 432.771 1024.9 434.44C1029.29 434.954 1033.9 434.073 1037.54 432.033C1036.44 433.774 1034.87 435.321 1032.95 436.518C1039.58 436.24 1046.08 434.221 1051.23 430.849C1050.95 434.634 1047.52 438.141 1043.02 439.241C1046.07 439.49 1049.19 439.115 1052.01 438.158C1041.27 446.121 1029.15 452.873 1016.12 458.163C1020.13 459.896 1025.04 460.208 1029.33 459.006C1027.9 460.654 1026.11 462.096 1024.05 463.243C1035.03 465.165 1046.92 463.411 1056.35 458.488C1054.03 461.839 1050.57 464.667 1046.44 466.573C1049.1 466.981 1051.93 466.64 1054.32 465.62C1053 471.348 1046.32 475.121 1040.02 477.992C1033.01 481.191 1025.78 484.074 1018.37 486.62C1021.26 487.286 1024.31 487.514 1027.3 487.282C1025.98 488.306 1024.65 489.33 1023.33 490.355C1029.83 490.844 1036.49 489.79 1042.28 487.358C1039.97 490.941 1036.08 493.853 1031.48 495.451C1034.31 496.479 1037.86 496.049 1040.19 494.401C1039.34 495.375 1038.48 496.353 1037.63 497.327C1045.33 498.064 1053.4 495.856 1058.96 491.48C1051.1 499.548 1040.46 507.258 1029.4 512.328C1028.58 512.704 1027.7 513.117 1027.3 513.808C1026.7 514.874 1027.57 516.185 1028.83 516.775C1030.09 517.366 1031.62 517.416 1033.07 517.458C1031.05 518.778 1029.04 520.097 1027.02 521.416C1028.73 521.18 1030.52 521.353 1032.12 521.91C1029.89 523.722 1027.67 525.535 1025.44 527.347C1034.67 527.794 1043.82 525.273 1051.78 521.475C1059.73 517.678 1066.65 512.645 1073.48 507.616C1068 514.154 1061.06 519.89 1053.1 524.481C1054.93 524.443 1056.76 524.683 1058.48 525.185C1056.43 526.614 1054.39 528.043 1052.34 529.472C1055.61 529.628 1058.93 528.852 1061.61 527.322C1064.51 529.522 1069.24 528.549 1072.84 527.17C1077.51 525.383 1081.9 523.132 1085.89 520.481C1085.95 521.513 1086.02 522.546 1086.08 523.575C1086.67 523.617 1087.26 523.537 1087.86 523.516C1086.89 554.152 1086.62 584.72 1085.56 615.36C1085.25 624.731 1085 634.101 1084.72 643.472C1079.66 645.731 1074.91 649.01 1069.84 651.223C1070.12 652.665 1070.4 654.106 1070.68 655.552C1070.76 655.97 1070.95 656.48 1071.46 656.551C1071.7 656.585 1071.94 656.505 1072.17 656.425C1075.65 655.19 1078.98 653.66 1082.07 651.877C1082.87 651.417 1083.66 650.932 1084.25 650.309C1084.38 650.174 1084.41 650.005 1084.52 649.862C1083.56 682.724 1082.79 715.589 1082.21 748.464C1079.58 750.508 1076.96 752.557 1074.33 754.601C1072.94 755.68 1071.46 757.311 1072.5 758.614C1072.75 758.416 1073.14 758.34 1073.47 758.416C1073.97 759.238 1075.39 760.06 1075.89 760.882C1077.71 758.293 1079.85 755.866 1082.13 753.535C1082.02 760.275 1081.91 767.015 1081.81 773.755C1078.15 775.909 1074.59 778.185 1071.28 780.689C1071.76 781.574 1071.67 783.134 1070.95 783.905C1071.45 784.971 1071.21 786.24 1070.35 787.142C1074.62 785.768 1078.21 783.349 1081.7 780.929C1081.36 804.665 1081.07 828.401 1080.89 852.132L1124.76 853.911C1122.75 819.363 1121.58 778.328 1120.86 735.645C1120.94 735.658 1121.02 735.67 1121.1 735.683C1123.64 736.168 1125.37 738.904 1127.92 738.406C1127.96 737.837 1128.01 737.272 1128.05 736.703C1129.1 736.615 1130.16 736.522 1131.21 736.433C1127.32 734.161 1123.85 731.451 1120.75 728.492C1120.28 698.944 1120.03 668.754 1119.85 639.484C1121.48 640.913 1123.58 642.283 1124.66 643.122C1124.55 642.797 1125.06 642.553 1125.47 642.565C1125.88 642.582 1126.31 642.725 1126.71 642.633C1127.25 642.51 1127.69 641.967 1128.22 642.119C1128.24 641.377 1127.75 640.698 1127.26 640.07C1125.07 637.284 1122.54 634.683 1119.8 632.23C1119.63 603.356 1119.52 575.561 1119.35 550.333C1123.4 552.647 1127.45 554.965 1131.5 557.284C1134.91 559.235 1138.38 561.216 1142.32 562.342C1141.91 561.832 1141.49 561.322 1141.07 560.807C1142.6 560.947 1144.13 561.086 1145.67 561.229C1140.08 557.321 1134.21 553.663 1128.11 550.282C1125.5 548.84 1122.34 546.59 1119.33 545.62C1119.25 534.197 1119.15 523.381 1119.03 513.239C1119.33 512.872 1119.66 512.527 1119.92 512.143C1120.57 513.96 1121.22 515.776 1121.86 517.593C1123.83 515.953 1125.8 514.314 1127.77 512.67C1129.88 515.11 1132.05 517.606 1135.07 519.321C1138.08 521.037 1142.16 521.851 1145.51 520.611C1142.24 517.901 1139.59 514.702 1137.74 511.228C1145.21 515.25 1153.12 519.397 1162.07 519.975C1161.46 519.014 1160.86 518.053 1160.24 517.087C1164.2 518.862 1168.85 519.629 1173.35 519.246C1171.98 518.55 1171.06 517.324 1170.93 516.025C1174.91 516.202 1178.93 516.013 1182.86 515.469C1171.17 510.305 1160.86 503.118 1152.83 494.54C1156.94 496.285 1161.05 498.031 1165.16 499.771C1162.81 497.676 1161.24 495.021 1160.7 492.226C1170.14 499.932 1183.73 505.517 1196.42 509.07C1189.71 507.342 1184.93 502.667 1180.55 498.225C1177.48 495.105 1174.4 491.99 1171.33 488.871C1170.57 488.1 1169.81 486.966 1170.62 486.232C1176.62 489.432 1182.8 492.395 1189.09 495.219C1186.89 493.874 1185.11 492.079 1184.16 489.988C1190.34 494.195 1198.13 498.684 1205.8 496.623C1198.68 494.591 1192.21 491.092 1187.18 486.553C1191.05 487.716 1195.25 488.892 1199.24 488.011C1191.06 484.028 1184.65 477.726 1181.41 470.48C1184.9 472.086 1189.03 472.782 1193.03 472.436C1189.1 471.627 1186.05 469.182 1183.22 466.838C1177.35 461.97 1173.09 458.054 1172.35 451.288C1174.87 453.809 1177.55 456.313 1181.01 457.961C1184.46 459.609 1188.86 460.288 1192.53 458.973C1184.53 454.753 1178.51 448.14 1175.91 440.717C1183.27 446.15 1191.3 451.845 1201.2 452.823C1200.61 451.916 1200.42 450.842 1200.66 449.838C1202.88 451.474 1206.39 451.841 1209.09 450.749Z" fill="#10032B"/>
<path d="M1144.47 932.161C1137.78 925.033 1135.54 915.326 1138.61 906.739C1136.39 905.947 1134.01 905.028 1132.93 903.274C1131.86 901.521 1133.16 898.815 1135.59 898.916C1132.99 898.794 1134.89 895.413 1134.28 893.369C1133.83 891.906 1131.85 891.177 1130.59 890.068C1127.48 887.366 1130.22 882.072 1134.79 881.945C1133.28 881.17 1131.66 880.276 1131.17 878.889C1130.68 877.503 1132.22 875.69 1133.91 876.15C1134.37 874.211 1131.66 872.904 1130.05 871.424C1128.43 869.941 1129.6 866.531 1131.7 867.542C1129.46 865.612 1131.23 862.535 1131.34 859.892C1131.47 856.385 1128.27 853.24 1124.4 851.621C1120.54 850.003 1116.09 849.615 1111.76 849.252C1107.43 848.89 1103.1 848.527 1098.77 848.165C1094.48 847.807 1088.41 848.009 1084.12 847.646C1076.53 850.787 1070.01 855.575 1065.42 861.371C1068 861.476 1070.6 861.03 1072.91 860.09C1072.34 862.046 1071.03 863.858 1069.2 865.22C1070.02 866.455 1072.65 866.438 1073.45 865.199C1073.43 867.02 1070.79 867.905 1068.72 868.625C1066.65 869.342 1064.45 871.247 1065.78 872.71C1067.12 872.474 1068.58 872.748 1069.65 873.431C1067.35 876.048 1064.38 878.278 1060.98 879.939C1062.4 881.494 1064.25 882.793 1066.35 883.712C1065.31 885.107 1063.8 886.274 1062.03 887.058C1063.47 887.147 1064.91 887.231 1066.35 887.316C1067.05 890.325 1064.47 893.596 1060.78 894.347C1061.69 894.852 1062.62 895.362 1063.53 895.868C1061.31 898.667 1060.18 902.018 1060.32 905.34C1056.51 909.732 1054.3 915.009 1054.02 920.367C1053.89 922.968 1054.49 925.986 1057.27 927.322C1068.31 932.654 1083.61 929.982 1096.49 930.007C1111.43 930.032 1129.72 930.226 1144.47 932.161Z" fill="#10032B"/>
<path d="M1427 834.5L1464.5 822V1041.5H595.5L651 1004L686.5 975L754.5 950.5L831 932L912 894.5L1021.5 869.5L1148 845L1259.5 822L1356.5 834.5H1427Z" fill="#10032B" stroke="#10032B"/>
</g>
<defs>
<clipPath id="clip0_283_44">
<rect width="1440" height="1024" fill="white"/>
</clipPath>
</defs>
</svg>
