<svg width="1440" height="1024" viewBox="0 0 1440 1024" fill="none" xmlns="http://www.w3.org/2000/svg">
<g clip-path="url(#clip0_189_17)">
<path d="M695.107 476.865C696.635 476.508 698.242 475.732 699.88 475.235C701.934 474.609 704.451 472.804 706.464 471.704C711.392 469.012 716.382 466.117 721.57 464.028C726.019 462.239 729.58 459.357 733.643 456.92C742.264 451.753 750.209 443.887 757.728 437.117C767.059 428.717 778.258 422.281 787.514 413.797C791.082 410.525 794.39 406.952 798.652 405.117C800.657 404.255 803.37 403.248 805.403 403.456C807.667 403.686 810.195 404.934 812.448 405.432C817.031 406.443 821.498 406.549 826.239 406.407C832.805 406.211 836.348 398.47 839.75 393.504C843.534 387.983 851.314 391.657 857.055 392.475C862.266 393.218 866.737 393.491 871.386 395.847C874.51 397.429 876.689 399.241 879.388 401.338C882.242 403.554 886.22 407.135 890.037 407.087C891.436 407.069 892.742 406.296 894.124 406.127C896.659 405.817 899.249 406.34 901.806 406.182C907.236 405.846 912.558 404.276 917.667 402.48C923.057 400.587 926.985 397.552 931.541 394.267C939.137 388.791 946.938 384.745 954.305 378.826C960.009 374.243 966.579 370.345 971.562 364.96C976.358 359.774 982.479 355.753 986.309 349.734C996.401 333.875 1013.2 322.635 1026.77 309.748C1033.74 303.13 1039.78 295.577 1046.49 288.711C1051.07 284.018 1056.19 279.883 1060.65 275.108C1065.99 269.396 1071.85 263.872 1077.89 258.838C1081.58 255.764 1084.73 254.825 1088.69 252.254C1092.81 249.587 1096.61 245.559 1100.63 242.554C1108.76 236.489 1114.12 228.465 1121.37 221.772C1124.6 218.788 1128.51 217.584 1131.36 214.272C1135.66 209.292 1139.77 204.202 1144.32 199.335C1150.62 192.584 1158.38 186.494 1164.05 179.294C1170.97 170.502 1177.37 161.839 1183.1 152.358C1188.47 143.49 1194.51 134.036 1200.47 125.632C1204.35 126.29 1210.11 135.216 1212.54 137.937C1213.69 139.229 1214.49 141.159 1215.73 142.294C1217.45 143.866 1219.37 143.855 1220.96 145.757C1223.38 148.67 1224.69 153.04 1227.26 155.764C1231.7 160.48 1236.68 153.499 1240.28 150.486C1244.45 146.99 1248.46 143.311 1252.64 139.819C1254.37 138.367 1255.73 136.628 1257.64 135.368C1259.17 134.36 1260.69 135.357 1261.97 133.448C1273.83 138.108 1277.45 149.58 1286.3 158.074C1293.17 164.669 1299.6 169.665 1304.54 177.96C1309.79 186.753 1314.74 195.714 1319.8 204.615C1322.58 209.515 1325.22 214.599 1328.33 219.299C1328.31 219.268 1330.24 220.708 1330.2 220.605C1331.64 223.915 1331.94 228.989 1332.82 232.68C1335.36 243.326 1340.43 255.084 1345.4 264.745C1349.03 271.798 1352.52 280.144 1357.34 286.43C1360.67 290.769 1365.44 293.799 1368.67 298.221C1373.15 304.34 1375.37 311.709 1380.48 317.526C1384.54 322.153 1389.54 325.473 1392.53 330.911C1395.27 335.91 1397.19 335.321 1401.66 331.375C1405.04 328.397 1407.89 324.534 1411.16 321.272C1413.39 319.045 1418.04 312.089 1420.98 311.787C1426.69 311.204 1425.55 316.223 1426.66 320.441C1429.03 329.528 1436.04 339.412 1440.82 347.438C1451.08 364.635 1461.43 381.835 1469.76 400.077C1482.06 427.016 1488.37 456.565 1499.33 484.069C1504.24 496.378 1510.03 509.661 1518.05 520.357C1525.98 530.928 1536.44 539.338 1544.8 549.614C1555.08 562.265 1566.66 578.178 1580.11 587.91C1584.89 591.374 1590.78 592.935 1595.68 596.26C1600.86 599.787 1605.79 604.044 1610.65 608.005C1616.3 612.613 1621.01 617.926 1626.3 622.914C1630.26 626.656 1635.18 628.758 1639.35 632.208C1645.34 637.181 1653.43 646.789 1650.93 655.151C1644.73 656.554 1636.73 655.955 1630.33 656.756C1614.59 658.724 1599.36 660.342 1584.07 664.912C1552.11 674.464 1523.49 1134.63 1493.51 1149.02C1443.08 1173.23 1391.77 1196.48 1337.82 1211.65C1281.86 1227.39 1225.24 1235.69 1167.27 1237.91C1111.52 1240.05 1055.91 1235.39 1000.29 1232.06C955.824 1229.39 912.485 1223.79 869.147 1213.31C867.813 1212.99 866.476 1212.67 865.142 1212.35C845.618 1207.67 826.028 1203.17 806.814 1197.31C798.528 1194.78 790.504 1192.37 783.127 1187.81C774.977 1182.77 766.802 1185.79 758.023 1183.99C756.165 1183.61 753.292 1182.35 751.363 1181.4C748.406 1179.93 745.227 1179.22 742.089 1178.23C737.063 1176.64 732.267 1174.88 727.104 1173.71C723.452 1172.89 719.769 1172.44 716.202 1171.23C712.439 1169.95 709.395 1168.24 705.452 1167.7C699.435 1166.87 693.886 1165.19 688.026 1163.49C681.302 1161.53 674.682 1160.95 667.82 1159.61C653.792 1156.87 638.776 1159.08 624.531 1157.71C611.923 1156.5 598.855 1155.2 586.212 1154.86C569.737 1154.42 554.129 1151.16 537.982 1148.19C519.797 1144.84 501.82 1141.07 483.369 1139.42C472.949 1138.48 462.547 1137.7 452.133 1136.64C415.031 1132.88 378.172 1130.47 340.907 1128.95C311.111 1127.74 281.581 1124.43 251.954 1121.18C226.212 1118.36 200.452 1117.37 174.752 1114.22C164.463 1112.96 154.114 1112.19 143.965 1110.02C134.985 1108.1 126.332 1105.15 117.475 1102.75C92.3479 1095.94 66.8714 1090.26 42.7946 1080.05C20.8797 1070.76 -1.78782 1058.27 -18.4265 1041.13C-31.1542 1028.02 -36.9392 1012.83 -39.704 995C-43.304 971.799 -41.9412 502.482 -39.7025 479.265C-38.85 470.42 -38.3355 461.302 -36.5422 452.571C-35.7435 448.687 -34.7719 444.488 -32.0398 441.412C-28.3745 437.288 -20.5524 435.168 -15.8868 432.797C-9.38571 429.493 -3.01514 425.843 3.33622 422.256C15.1077 415.609 26.933 409.055 38.6776 402.361C47.1948 397.508 54.4274 391.381 62.4012 385.775C67.3759 382.276 72.4889 379.602 77.7478 376.651C88.5977 370.561 98.7795 363.366 109.128 356.485C113.875 353.33 118.381 350.185 122.829 346.655C124.242 345.533 126.028 344.082 127.733 343.308C129.569 342.475 129.547 342.106 131.314 343.727C133.589 345.816 135.139 348.709 137.218 350.996C140.152 354.223 143.283 356.658 146.885 359.027C150.368 361.318 153.762 364.104 157.599 365.745C162.416 367.809 167.537 368.218 172.542 369.556C175.764 370.418 179.156 371.803 182.19 373.133C185.131 374.422 183.492 373.487 185.89 372.05C189.298 370.009 193.307 375.552 195.724 376.935C202.692 380.925 208.271 386.063 214.755 390.782C227.857 400.319 240.909 409.959 254.687 418.562C262.746 423.595 270.996 428.783 279.323 433.362C286.571 437.348 294.529 438.265 302.146 441.144C309.713 444.002 314.449 450.634 322.79 451.723C330.667 452.75 338.363 450.532 346.317 451.869C357.206 453.697 367.397 456.849 377.886 460.117C388.292 463.358 397.071 467.411 408.136 467.311C422.029 467.188 435.667 465.113 449.475 467.903C466.185 471.278 482.056 478.134 498.685 481.94C533.756 489.963 569.228 497.338 605.347 491.63C615.761 489.984 628.103 486.467 637.075 480.628C641.679 477.633 645.196 472.931 649.977 470.272C655.511 467.194 662.457 470.802 668.19 471.983C671.18 472.599 674.59 472.336 677.468 473.167C679.497 473.753 681.985 475.464 683.802 476.433C684.894 477.017 686.027 478.307 687.429 478.196C688.556 478.107 688.435 477.044 689.387 476.896C691.196 476.625 693.335 477.282 695.107 476.865Z" fill="url(#paint0_linear_189_17)"/>
</g>
<defs>
<linearGradient id="paint0_linear_189_17" x1="804.325" y1="519.872" x2="804.325" y2="254.612" gradientUnits="userSpaceOnUse">
<stop stop-color="#5D6783"/>
<stop offset="1" stop-color="#6A6C84"/>
</linearGradient>
<clipPath id="clip0_189_17">
<rect width="1440" height="1024" fill="white"/>
</clipPath>
</defs>
</svg>
