<svg width="1440" height="1024" viewBox="0 0 1440 1024" fill="none" xmlns="http://www.w3.org/2000/svg">
<g clip-path="url(#clip0_189_12)">
<path d="M-22.387 614.85C-18.8503 611.611 -13.2055 610.432 -8.74154 609.128C-2.77225 607.385 2.61142 604.309 8.40598 602.134C15.2949 599.546 22.2223 597.67 28.685 594.037C34.3029 590.879 40.2453 588.523 46.0437 585.737C50.7881 583.458 55.3577 580.643 60.413 579.111C62.0719 578.608 64.4028 577.548 66.1385 577.7C66.3439 580.622 67.2674 581.714 69.03 583.944C73.9951 590.226 77.9369 596.731 84.3957 601.623C92.6076 607.842 101.735 612.749 110.454 618.212C117.395 622.561 124.672 626.101 132.332 629.012C136.433 630.571 139.767 632.497 144.188 632.341C148.812 632.178 153.685 631.122 158.231 630.135C160.215 629.705 164.819 627.877 166.823 628.68C168.35 629.29 170.517 632.13 171.752 633.213C181.081 641.4 193.072 647.459 204.764 651.568C216.24 655.6 229.868 654.834 241.841 654.452C257.048 653.964 271.803 649.393 286.896 648.667C289.219 648.555 291.481 647.855 293.754 647.419C296.32 646.927 298.852 647.052 301.373 646.63C304.472 646.113 307.682 645.105 310.871 645.906C311.069 649.675 316.906 654.719 319.548 656.763C324.071 660.262 328.933 663.376 333.633 666.628C338.93 670.296 343.621 674.769 348.29 679.193C356.446 686.917 366.787 692.362 377.511 695.77C382.339 697.304 386.869 697.183 391.795 697.838C395.689 698.356 399.606 699.094 403.521 699.437C405.737 699.631 407.977 699.7 410.174 699.309C412.028 698.979 413.762 698.178 415.715 698.547C417.952 698.969 416.529 698.779 417.765 700.25C418.864 701.555 421.461 703.047 422.874 703.834C426.271 705.727 430.437 707.256 434.07 708.598C439.713 710.683 445.168 713.342 450.582 715.961C462.905 721.924 476.275 726.536 489.744 729.303C502.856 731.997 515.52 733.562 528.914 733.082C536.3 732.817 543.861 731.332 551.065 729.714C558.219 728.107 564.887 724.998 572.074 723.437C576.595 722.454 580.789 722.506 585.109 723.965C586.706 724.505 588.415 725.409 589.966 726.077C595.505 728.464 601.024 730.251 606.782 732.112C615.143 734.811 623.432 736.691 631.951 738.809C642.772 741.499 653.49 745.13 664.412 747.353C683.09 751.154 701.518 755.922 720.526 757.882C736.487 759.528 752.533 759.04 768.551 759.04C775.367 759.04 782.26 759.353 789.068 759.09C793.901 758.904 798.559 758.034 803.403 758.07C807.873 758.105 810.885 758.715 815.079 760.432C818.592 761.87 822.079 763.208 825.781 764.053C829.632 764.932 832.923 766.908 836.636 768.075C843.061 770.095 849.594 771.602 856.236 772.586C858.344 772.898 873.708 775.769 872.535 778.029C867.118 779.528 1019.01 1024.45 1013.5 1025.5C1000.59 1027.97 1003.96 1023.29 991 1025.5C973.801 1028.44 947.409 1024.41 930 1025.5C888.355 1028.11 856.787 1024.46 815.079 1025.5C783.961 1026.28 741.577 1023.7 710.5 1025.5C687.391 1026.84 655.031 1023.76 631.951 1025.5C582.657 1029.21 562.428 1024.3 513 1025.5C489.547 1026.07 415.225 1026.66 391.795 1025.5C367.239 1024.29 299.313 1028.93 275 1025.5C242.108 1020.86 190.773 1032.31 158.231 1025.5C145.448 1022.82 78.701 1029.06 66.1385 1025.5C53.5049 1021.92 2.74966 1032.04 -8.74154 1025.5C-22.8267 1017.48 -16.7134 750.35 -24.4606 735.783C-30.0689 725.236 -33.0603 713.578 -35.4007 701.949C-36.4318 696.826 -37.3995 691.765 -37.3591 686.52C-37.3284 682.482 -36.7063 678.559 -36.1323 674.566C-35.4123 669.554 -34.3735 664.66 -33.5729 659.674C-32.8241 655.005 -32.4516 650.237 -31.5358 645.597C-30.1668 638.667 -25.7278 632.552 -25.5723 625.333C-25.5396 623.834 -25.8468 622.294 -25.6011 620.804C-25.1825 618.248 -24.0055 616.334 -22.387 614.85Z" fill="url(#paint0_linear_189_12)"/>
</g>
<defs>
<linearGradient id="paint0_linear_189_12" x1="417.619" y1="751.36" x2="417.619" y2="562.884" gradientUnits="userSpaceOnUse">
<stop stop-color="#102D52"/>
<stop offset="1" stop-color="#0F122E"/>
</linearGradient>
<clipPath id="clip0_189_12">
<rect width="1440" height="1024" fill="white"/>
</clipPath>
</defs>
</svg>
