<svg width="1440" height="335" viewBox="0 0 1440 335" fill="none" xmlns="http://www.w3.org/2000/svg">
<path d="M1404.56 74.5485C1404.54 71.5264 1404.97 67.6499 1406.38 64.935C1406.81 64.0979 1406.82 63.9347 1407.56 63.2838C1408.57 62.3853 1410.09 62.6041 1411.01 61.863C1412.15 60.9376 1413.14 58.7699 1413.19 57.351C1413.26 55.7113 1411.58 54.1005 1412.09 52.4109C1412.38 51.4701 1413.11 51.2973 1413.59 50.5235C1415.23 47.9065 1418.12 44.3507 1415.8 41.3881C1415.11 40.4973 1413.9 39.8617 1413.1 39.0707C1412.04 38.032 1411.41 36.7705 1410.27 35.8989C1407.72 33.9654 1404.55 32.56 1402.24 30.3827C1400.27 28.5222 1398.73 26.2681 1396.66 24.4499C1394.71 22.7449 1393.13 20.9613 1391.71 18.7878C1389.12 14.8288 1387.73 15.0918 1383.33 15.4912C1380.35 15.7619 1377.8 14.2182 1375.63 12.2214C1370.49 7.49246 1366.49 2.85758 1359.35 1.27742C1354.49 0.204143 1347.62 1.72286 1343.09 3.66974C1339.56 5.18654 1336.28 7.29278 1332.93 9.1571C1329.56 11.0368 1326.39 12.5901 1324.19 15.9347C1320.53 21.5027 1321.02 27.7485 1320.94 34.0729C1320.89 38.6406 1322.9 43.0605 1321.78 47.7241C1320.64 52.5088 1317.87 52.9561 1314.01 54.5939C1312.3 55.3158 1310.36 56.5369 1309 57.7657C1307.64 59.0003 1307.15 60.6361 1306.01 62.08C1305.17 63.1552 1303.91 64.7949 1302.69 65.4457C1300.73 66.4787 1297.61 65.2173 1295.62 64.5318C1291.94 63.2646 1288.88 61.9552 1284.92 61.984C1281.21 62.0109 1278.34 62.9171 1274.96 64.4742C1270.61 66.4806 1266.05 68.4352 1262.43 71.5936C1259.56 74.1088 1257.45 76.5165 1255.52 79.8054C1253.59 83.1174 1252.2 86.8979 1249.97 89.9987C1246.75 94.4915 1241.2 97.6941 1235.6 97.7305C1231.64 97.7574 1228.12 96.4729 1224.61 94.8045C1221.93 93.5296 1219.75 92.7174 1216.78 93.2397C1212.13 94.0595 1207.62 94.3609 1202.93 94.9158C1194.08 95.9622 1186.21 99.9347 1177.56 101.836C1170.62 103.362 1163.69 104.443 1156.66 105.426C1151.58 106.136 1146.25 108.196 1141.53 110.201C1135.81 112.632 1130.42 114.25 1124.3 115.404C1113.84 117.376 1103.26 118.755 1092.77 120.644C1086.28 121.813 1079.77 122.746 1073.4 124.49C1066.31 126.431 1059.24 126.92 1052 127.921C1042.01 129.301 1032.43 132.74 1022.41 133.957C1009.86 135.482 996.826 131.455 984.495 129.843C973.668 128.426 963.103 127.368 952.199 127.364C948.835 127.362 945.446 127.187 942.09 127.431C938.279 127.708 934.7 128.952 930.875 128.725C923 128.26 915.051 127.777 907.206 126.863C905.284 126.638 894.716 125.722 895.713 129.723C896.277 131.993 902.436 133.064 904.249 133.598C909.016 135 913.73 136.269 918.649 137.002C927.391 138.306 935.852 136.989 944.663 136.952C952.979 136.918 960.57 139.172 968.749 140.126C981.606 141.624 994.207 140.159 1007.05 139.769C1013.91 139.562 1020.66 140.7 1027.5 140.85C1033.79 140.988 1040.11 140.798 1046.4 140.8C1051.93 140.802 1057.63 140.343 1063.13 140.994C1064.65 141.174 1070.01 141.464 1070.44 143.657C1070.81 145.517 1066.2 146.698 1065.07 147.084C1059.91 148.851 1054.51 148.299 1049.17 148.996C1042.19 149.908 1035.65 151.208 1029.23 154.121C1026.17 155.511 1019.27 156.876 1017.76 160.04C1018.64 163.333 1026.09 161.937 1028.16 161.926C1036.36 161.878 1044.54 162.181 1052.71 161.367C1065.55 160.088 1078.41 159.482 1091.29 158.798C1103.58 158.147 1115.85 156.972 1128.14 156.327C1156.01 154.862 1184.29 158.443 1212.02 154.726C1226.16 152.831 1238.59 146.113 1252.43 143.242C1262.15 141.224 1271.36 141.773 1281.17 142.716C1288.54 143.425 1295.98 143.645 1303.25 145.13C1309.65 146.437 1315.59 146.554 1322.12 146.579C1327.98 146.602 1333.69 145.744 1339.51 145.554C1344.23 145.4 1349.99 144.73 1354.27 147.034C1357.06 148.538 1358.07 150.638 1357.43 153.77C1356.83 156.771 1354.79 159.547 1351.51 159.656C1347.92 159.777 1343.95 158.704 1340.38 158.318C1338.06 158.067 1335.77 157.859 1333.46 157.556C1332.12 157.379 1330.24 156.734 1329.09 157.798C1329.95 158.84 1332.08 160.203 1333.26 160.937C1337.36 163.473 1343.04 164.485 1347.69 165.103C1355.78 166.18 1363.7 164.804 1371.77 164.084C1376.94 163.621 1383.07 162.369 1388.28 163.001C1391.23 163.356 1394.13 164.111 1397.06 164.568C1404.03 165.656 1411.01 166.96 1418.08 166.785C1426.09 166.587 1434.15 165.439 1442.12 164.562C1451.08 163.575 1460.13 163.266 1469.06 161.962C1480.38 160.309 1491.45 157.057 1502.8 155.682C1513.2 154.42 1524.21 154.856 1534.64 155.688C1546.44 156.627 1558.01 155.885 1569.65 153.677C1575.37 152.591 1581.09 150.874 1586.93 150.494C1592.31 150.145 1597.72 150.362 1603.1 150.4C1612.36 150.467 1620.86 149.634 1629.97 147.971C1638.76 146.368 1647.72 145.992 1656.6 145.093C1664.03 144.34 1671.89 143.594 1679.35 143.642C1686.41 143.686 1693.61 144.11 1700.63 143.198C1703.42 142.835 1706.17 142.645 1708.98 142.714C1710.23 142.745 1712.92 143.409 1713.35 141.777C1712.8 140.679 1710.8 139.947 1709.74 139.312C1705.89 136.989 1702.13 136.04 1697.8 135.015C1692.67 133.802 1687.47 132.874 1682.37 131.586C1677.47 130.351 1672.83 128.564 1667.83 127.784C1663.99 127.183 1657.66 128.742 1654.64 125.889C1653.23 124.551 1652.33 122.5 1651.23 120.88C1649.81 118.766 1647.79 117.741 1646.31 115.886C1644.82 114.01 1645.08 111.213 1644.32 109.047C1643.64 107.098 1642.58 106.371 1640.93 105.261C1638.76 103.805 1636.4 102.753 1634.17 101.421C1631.82 100.021 1629.95 99.9001 1627.38 99.2838C1624.39 98.5677 1621.68 97.0816 1618.61 96.64C1614.57 96.0582 1605.65 95.0176 1603.84 90.4787C1602.98 88.3129 1604.46 85.3331 1604.89 83.056C1605.52 79.7401 1606.51 75.8963 1606.08 72.5497C1605.5 68.0473 1603.04 64.2937 1601.08 60.423C1599.37 57.0592 1597.19 54.0064 1595.72 50.5139C1594.38 47.3363 1593.18 44.7885 1591.24 41.8605C1589.9 39.8291 1588.05 37.9014 1586.84 35.8009C1585.09 32.7789 1585.12 29.1021 1583.06 26.1971C1581.09 23.4342 1577.27 21.5123 1574.31 19.8649C1569.34 17.0963 1563.97 14.5542 1558.82 12.1139C1550.66 8.25278 1542.19 4.64318 1533.18 7.41758C1528.2 8.95358 1522.35 12.5017 1518.52 16.0307C1515.54 18.7782 1514.16 22.1478 1512.08 25.5558C1509.52 29.7664 1506.42 33.6237 1503.33 37.4483C1501.87 39.2435 1498.91 44.2701 1496.58 44.7385C1493.13 45.4355 1491.25 40.3437 1487.99 39.6678C1486.68 39.3952 1485.51 39.9366 1484.17 40.0249C1482.76 40.1171 1481.27 39.9885 1479.86 39.9923C1477.84 39.9981 1477.45 39.8291 1476.49 41.8393C1475.58 43.7229 1474.83 45.5795 1474.38 47.6205C1472.69 47.2345 1471.33 44.6329 1470.19 43.3465C1467.54 40.3629 1465.02 40.119 1461.4 39.0438C1454.75 37.072 1447 35.3805 1440.89 39.3837C1436.68 42.1427 1433.74 45.4969 1431 49.6672C1429.07 52.6182 1429.63 54.8608 1429.5 58.1536C1429.4 60.7917 1428.06 63.3933 1427.29 65.9373C1426.81 67.5309 1425.8 71.2192 1424.44 72.4633C1422.56 74.1817 1418.33 74.1491 1415.99 75.5142C1415.53 75.7849 1415.17 75.7677 1414.76 76.1862C1414.36 76.6009 1414.35 77.5552 1414.02 77.8432C1413.05 78.6784 1411.7 78.3846 1410.27 78.3923C1405.69 78.423 1404.58 76.8217 1404.56 74.5485Z" fill="url(#paint0_linear_227_23)"/>
<path d="M-14.2497 143.133C-12.226 141.608 -10.2119 140.045 -8.28421 138.479C-2.61255 133.871 3.52762 129.768 9.48538 125.488C14.5139 121.876 15.7273 118.242 18.5689 112.966C19.744 110.785 20.5849 109.151 22.2879 107.428C23.2787 106.428 24.6169 105.622 25.5385 104.512C27.9577 101.593 28.7103 97.6767 31.0047 94.6546C32.9554 92.0857 34.7776 90.0677 36.4364 87.2434C42.2176 77.3996 51.2454 69.3068 62.6598 67.1852C75.1417 64.8658 86.1779 70.6124 98.5945 70.43C103.74 70.3532 108.92 69.9941 113.983 71.0463C119.989 72.2943 126.146 76.0498 131.296 79.3618C137.334 83.246 144.813 87.9788 147.935 94.6642C151.274 101.816 152.896 110.704 153.745 118.499C154.616 126.507 156.175 133.921 156.162 142.009C156.156 145.051 156.123 148.096 156.152 151.135C156.185 154.635 156.966 155.632 158.443 158.727C160.305 162.63 160.296 167.384 163.817 170.305C168.035 173.801 174.114 175.36 179.482 175.421C182.846 175.46 185.365 174.571 188.543 173.707C191.352 172.943 192.15 172.925 194.575 174.651C196.745 176.197 198.461 177.965 200.318 179.855C201.814 181.377 204.075 182.504 205.183 184.261C207.616 188.122 207.29 193.823 207.334 198.114C207.403 204.995 211.352 210.273 214.793 215.914C217.623 220.557 217.323 225.251 218.727 230.341C220.201 235.692 222.859 240.83 226.543 245.017C233.148 252.521 243.261 251.939 250.918 257.269C258.425 262.495 267.272 265.321 276.423 266.049C282.077 266.498 288.817 265.598 294.459 264.734C299.624 263.945 304.733 261.777 308.865 258.644C317.242 252.294 321.712 242.834 331.558 238.668C339.973 235.105 348.244 231.543 355.857 226.418C359.206 224.164 362.454 221.179 366.114 219.395C369.178 217.901 373.035 217.475 376.324 216.671C385.043 214.537 392.712 209.843 401.325 207.272C405.643 205.984 410.207 205.554 414.705 206.107C419.248 206.665 421.544 208.795 424.816 211.84C427.241 214.098 429.808 215.586 432.419 217.506C435.656 219.885 436.851 225.779 438.404 229.325C439.732 232.355 440.904 235.571 443.1 238.107C445.965 241.416 448.426 243.303 450.847 247.037C455.58 254.345 462.505 257.947 471.076 258.592C474.573 258.855 478.044 259.281 481.329 260.575C484.438 261.798 486.719 264.106 490.088 264.765C499.922 266.687 509.659 262.589 518.533 269.087C522.02 271.64 524.641 274.029 528.682 275.845C534.694 278.546 539.924 279.119 546.465 279.063C552.771 279.009 559.625 278.182 565.878 279.261C570.363 280.034 574.649 282.135 579.161 282.778C583.039 283.331 585.499 283.298 589.03 285.28C592.706 287.342 595.788 290.971 598.897 293.782C602.195 296.765 603.733 297.675 607.711 299.161C612.212 300.841 614.666 304.969 618.868 307.243C624.938 310.526 631.45 306.778 637.721 307.419C642.049 307.863 646.163 308.852 650.239 310.226C654.089 311.524 658.054 313.588 661.959 314.591C667.156 315.925 672.555 316.943 677.857 317.82C681.833 318.479 687.672 318.089 691.181 320.283C691.256 323.348 684.287 324.544 682.123 325.151C672.828 327.756 662.005 328.655 652.432 329.306C637.195 330.342 621.973 331.606 606.694 331.606C582.248 331.606 557.734 329.905 533.309 328.987C503.709 327.875 474.146 326.283 444.532 325.439C406.29 324.35 368.067 324.477 329.83 323.649C291.51 322.82 253.473 319.577 215.094 319.898C175.759 320.228 136.708 321.497 97.383 319.7C67.9321 318.354 38.4236 317.739 8.99579 316.09C-18.5159 314.548 -45.7607 310.372 -73.1956 308.043C-111.165 304.82 -149.65 304.643 -187.745 304.633C-201.025 304.63 -214.306 304.601 -227.587 304.63C-239.333 304.655 -251.214 304.958 -262.867 303.099C-270.284 301.917 -277.484 299.833 -284.949 298.814C-289.576 298.182 -293.729 298.392 -298.154 296.98C-285.402 295.149 -273.701 289.487 -261.189 286.716C-253.712 285.059 -246.698 283.026 -239.435 280.597C-234.047 278.796 -227.827 277.465 -223.313 273.833C-216.481 268.334 -215.176 260.546 -210.305 253.915C-206.146 248.255 -198.443 246.173 -194.478 240.386C-191.646 236.255 -190.12 231.182 -189.123 226.326C-187.082 216.39 -184.475 207.268 -179.07 198.492C-172.051 187.093 -164.513 176.99 -152.096 171.337C-144.769 168.002 -136.438 166.687 -128.616 165.003C-122.709 163.732 -117.505 163.633 -111.519 165.028C-102.727 167.079 -93.3402 168.233 -85.1629 172.159C-79.3319 174.959 -74.5492 179.995 -68.2247 181.519C-64.9588 182.306 -61.2628 183.28 -57.8605 182.84C-55.2205 182.498 -49.3953 181.798 -47.2103 180.281C-45.4957 179.09 -44.7815 176.806 -43.8733 175.064C-42.4852 172.399 -41.673 171.113 -39.6359 168.876C-35.2007 164.011 -32.2612 158.445 -28.185 153.422C-27.1847 152.189 -26.0807 151.043 -24.8058 150.091C-22.6593 148.484 -20.1383 147.458 -17.9648 145.874C-16.7322 144.985 -15.49 144.066 -14.2497 143.133Z" fill="url(#paint1_linear_227_23)"/>
<path d="M-35.0741 113.832C-33.8511 113.519 -32.6357 113.208 -31.6008 112.67C-27.5016 110.55 -22.8418 109.805 -18.1666 110.237C-3.06003 111.629 9.10123 119.54 21.1108 128.249C30.1233 134.785 36.54 145.252 39.3969 155.857C41.1902 162.513 41.6049 169.535 42.0715 176.408C42.2981 179.741 41.3745 182.677 41.2267 185.962C41.1096 188.543 41.2824 191.206 41.2805 193.792C41.2766 199.012 40.9982 204.3 41.2344 209.513C41.4168 213.541 41.8161 218.147 44.7134 221.094C46.4529 222.865 48.3115 225.217 50.3563 226.637C53.4034 228.757 57.6446 230.257 60.9912 232.002C65.7816 234.5 71.7144 236.602 77.1556 236.886C81.1723 237.096 82.6584 235.352 85.6593 232.941C89.052 230.214 91.5345 229.661 95.9332 230.303C101.342 231.092 106.438 232.008 111.428 229.164C114.287 227.534 116.155 224.955 119.027 223.341C122.717 221.265 126.327 219.587 130.522 218.781C135.253 217.871 142.027 215.102 146.759 216.987C152.364 219.218 156.951 223.725 161.81 227.15C176.182 237.284 170.281 257.194 175.11 271.496C176.71 276.235 180.699 279.015 184.518 281.922C190.182 286.232 196.524 290.635 203.096 293.365C208.157 295.467 214.336 294.396 219.672 294.402C224.633 294.408 229.197 294.377 234.096 295.149C237.591 295.698 241.175 294.811 244.631 295.295C248.89 295.892 252.12 299.162 254.208 302.746C256.896 307.358 258.882 312.659 260.988 317.565C263.177 322.664 261.94 326.758 256.877 329.448C248.904 333.683 238.789 331.295 230.276 331.009C211.302 330.375 192.431 329.219 173.444 330.442C146.932 332.151 120.649 334.814 94.0478 334.808C61.5461 334.801 29.4667 332.26 -2.79504 328.451C-28.3694 325.433 -53.4908 319.208 -78.4546 313.034C-99.0351 307.944 -120.232 307.732 -141.271 306.317C-159.832 305.069 -178.164 301.999 -196.696 300.523C-213.281 299.202 -229.658 296.257 -246.272 295.308C-263.237 294.338 -280.009 294.803 -296.918 296.731C-303.44 297.474 -309.782 298.849 -316.239 299.989C-321.776 301.13 -327.371 301.719 -333.024 301.761C-335.936 302.274 -338.713 302.026 -341.351 301.014C-330.593 297.556 -318.024 295.108 -309.623 287.138C-304.275 282.066 -302.041 276.354 -300.407 269.434C-299.998 267.7 -299.122 266.523 -297.982 265.17C-294.169 260.648 -291.306 255.833 -288.278 250.714C-286.508 247.723 -285.056 245.027 -284.131 241.677C-283.071 237.841 -282.835 233.92 -281.303 230.209C-280.644 228.611 -279.84 226.432 -278.538 225.213C-276.441 223.252 -272.676 222.726 -270.213 221.377C-267.588 219.938 -265.04 218.328 -262.978 216.154C-259.482 212.466 -258.51 208.484 -257.205 203.661C-254.146 192.362 -247.881 181.859 -238.855 174.196C-234.695 170.664 -230.115 168.11 -224.711 167.021C-217.996 165.67 -210.14 165.213 -203.314 164.927C-183.427 164.093 -167.498 178.778 -147.968 180.008C-143.84 180.269 -136.901 179.745 -135.763 174.966C-135.118 172.259 -135.302 169.452 -134.538 166.741C-133.403 162.719 -130.707 160.029 -127.804 157.147C-124.055 153.424 -120.08 150.442 -115.877 147.266C-112.757 144.909 -109.946 142.155 -106.688 139.982C-104.507 138.527 -102.629 137.181 -101.015 135.065C-98.5704 131.862 -96.7119 129.994 -93.1618 128.022C-90.5602 126.577 -88.0143 124.946 -84.8885 125.473C-81.9836 125.96 -80.1077 128.095 -77.844 129.731C-73.643 132.767 -69.6879 129.025 -65.2642 127.796C-62.2747 126.966 -59.4312 126.742 -56.4207 125.705C-54.1992 124.941 -51.6034 124.824 -49.4895 123.794C-47.7404 122.944 -46.6805 121.339 -44.9295 120.584C-44.148 120.248 -43.3935 120.509 -42.6197 119.92C-41.6213 119.158 -41.4485 117.798 -40.7688 116.813C-39.4805 114.955 -37.2629 114.39 -35.0741 113.832Z" fill="url(#paint2_linear_227_23)"/>
<path d="M804.872 250.822C804.465 251.016 803.975 250.916 803.347 250.284C802.276 249.205 802.593 247.961 802.28 246.523C802.142 245.887 801.681 245.452 801.679 244.86C801.679 244.286 802.23 243.455 802.266 242.754C802.359 240.984 802.841 239.511 802.956 237.806C803.144 235.028 802.981 226.901 798.824 227.542C795.85 228.001 790.775 230.86 788.85 226.96C787.563 224.357 790.735 220.603 788.452 218.239C787.546 217.301 786.098 216.684 785.081 215.834C783.644 214.632 782.761 214.127 781.026 213.585C779.874 213.226 778.576 212.587 777.372 212.491C776.204 212.399 775.091 212.915 773.956 213.078C772.159 213.34 771.491 214.017 770.137 215.123C767.476 217.297 763.89 218.009 760.81 219.322C759.107 220.048 757.256 219.956 755.49 220.401C753.637 220.868 752.656 222.026 751.496 223.462C750.048 225.255 748.798 227.048 748.274 229.324C747.522 232.595 747.466 236.082 747.111 239.409C746.817 242.145 746.686 243.474 743.674 243.439C740.832 243.405 736.324 242.566 733.861 244.236C731.839 245.607 730.057 247.508 728.258 249.151C726.636 250.632 724.664 251.663 723.078 253.226C720.603 255.664 719.017 258.523 718.195 261.902C717.305 265.567 717.418 268.906 713.975 271.316C712.347 272.454 710.203 272.886 708.259 273.042C705.733 273.244 704.007 272.332 701.634 271.852C699.948 271.51 697.632 271.433 695.958 271.805C693.395 272.374 691.425 274.409 688.921 275.235C685.557 276.342 682 276.319 678.57 277.047C675.66 277.665 673.072 278.641 670.309 279.685C666.857 280.993 663.278 280.659 659.68 280.689C658.403 280.699 657.272 280.67 656.072 281.19C654.922 281.69 654.271 282.542 653.05 282.828C650.41 283.443 647.589 282.062 644.992 282.016C642.594 281.972 640.238 282.742 637.836 282.815C635.384 282.89 632.97 282.6 630.521 282.915C626.855 283.387 623.307 284.188 619.914 285.57C616.449 286.981 610.883 286.572 607.317 286.125C601.845 285.439 596.49 283.585 590.98 282.897C587.607 282.477 584.105 282.784 580.716 282.767C577.398 282.749 574.234 282.678 570.97 283.383C563.607 284.971 556.345 287.465 548.874 288.554C544.912 289.13 541.212 288.748 537.251 288.467C531.487 288.058 525.715 288.21 519.94 287.799C509.081 287.025 498.336 286.925 487.456 286.92C479.891 286.916 472.43 286.662 464.878 286.348C458.21 286.071 451.408 287.164 444.828 288.101C441.118 288.629 437.754 289.362 434.191 290.531C431.011 291.574 426.649 292.511 424.243 295.082C420.849 298.71 428.844 299.336 431.004 299.407C439.826 299.693 448.645 297.086 457.383 298.588C463.82 299.693 470.153 301.769 476.673 302.341C483.882 302.975 491.086 301.326 498.29 301.395C506.072 301.468 513.516 300.108 521.255 299.482C529.298 298.833 537.642 299.173 545.712 299.294C553.481 299.409 561.114 302.706 568.935 301.986C573.053 301.608 577.525 300.849 581.415 302.931C581.662 307.589 566.521 306.609 567.654 310.278C570.78 311.484 575.027 309.741 578.083 309.153C581.309 308.535 584.665 308.355 587.922 307.911C592.151 307.335 595.314 308.746 599.355 309.555C606.192 310.922 613.319 310.645 620.226 311.78C630.238 313.425 640.036 312.557 650.049 311.5C659.724 310.478 670.107 308.531 679.817 310.088C687.671 311.35 695.432 311.469 703.306 312.281C707.735 312.738 712.055 313.101 716.506 313.157C720.319 313.205 724.026 312.093 727.886 312.415C730.061 312.596 732.519 312.761 732.565 315.211C732.58 315.983 732.284 316.757 732.908 317.26C733.742 317.932 735.952 316.776 736.887 316.649C739.961 316.236 743.307 316.589 746.412 316.589C748.493 316.589 750.572 316.588 752.654 316.605C756.559 316.639 760.368 315.904 764.262 315.827C768.876 315.737 773.538 316.609 778.178 316.618C782.437 316.626 786.661 316.63 790.881 315.983C796.57 315.111 802.044 313.262 807.765 312.415C813.358 311.588 818.957 310.868 824.606 310.534C835.959 309.86 847.308 309.199 858.661 308.481C864.665 308.101 870.645 307.556 876.666 307.602C883.559 307.654 890.477 307.055 897.356 307.331C904.885 307.635 912.294 307.928 919.797 306.978C925.914 306.202 932.007 305.179 938.087 304.156C942.313 303.445 946.339 302.764 950.635 302.762C953.945 302.76 956.738 303.328 959.97 304.015C961.882 304.422 964.076 305.204 966.023 304.737C966.392 304.649 968.337 303.992 968.441 303.309C968.652 301.903 964.067 301.464 963.103 301.256C963.203 300.381 964.412 300.27 964.478 299.338C964.522 298.701 963.253 296.919 963.153 296.138C962.736 292.814 964.85 289.427 965.668 286.351C966.306 283.951 967.314 280.397 965.785 278.293C965.048 277.279 963.9 276.677 963.164 275.638C962.385 274.538 961.966 273.019 961.582 271.731C960.718 268.839 960.624 265.548 961.112 262.561C961.548 259.896 961.911 257.784 961.162 255.155C960.843 254.04 960.361 253.076 959.922 252.012C959.263 250.421 959.148 248.42 958.078 247.051C954.411 242.357 950.83 237.871 946.466 233.765C944.212 231.643 942.594 230.858 939.527 230.462C933.629 229.702 927.963 231.718 922.309 233.077C918.772 233.928 914.794 234.604 912.786 237.992C912.064 239.21 911.618 240.736 911.225 242.099C910.883 243.282 910.818 245.784 910.119 246.832C908.072 249.902 904.735 245.663 904.339 243.29C903.477 238.098 907.11 233.551 907.166 228.396C907.208 224.6 907.838 220.977 908.339 217.203C908.909 212.911 909.959 209.538 907.617 205.541C905.962 202.716 904.026 200.504 902.786 197.427C901.171 193.42 900.714 189.142 898.864 185.225C895.271 177.626 887.223 171.772 879.216 169.529C875.395 168.458 871.498 169.362 867.648 169.949C860.965 170.971 854.262 173.152 848.423 176.575C844.672 178.776 840.751 180.73 837.894 184.065C836.387 185.824 834.622 187.646 833.87 189.893C833.082 192.241 833.336 194.802 833.317 197.223C833.275 202.449 832.051 207.683 832.309 212.888C832.382 214.382 832.445 215.757 832.218 217.251C831.786 220.115 831.234 223.721 827.755 224.14C824.21 224.566 820.679 224.633 817.358 226.296C815.578 227.189 813.888 228.748 813.013 230.583C812.204 232.277 812.7 234.294 812.281 236.136C811.705 238.666 810.463 240.671 808.992 242.735C808.318 243.679 807.543 244.355 807.191 245.511C806.807 246.774 806.823 247.727 806.208 248.957C805.834 249.727 805.431 250.553 804.872 250.822Z" fill="url(#paint3_linear_227_23)"/>
<defs>
<linearGradient id="paint0_linear_227_23" x1="1304.49" y1="177.161" x2="1304.49" y2="27.7565" gradientUnits="userSpaceOnUse">
<stop stop-color="#FBB294" stop-opacity="0"/>
<stop offset="1" stop-color="#FFEFEE"/>
</linearGradient>
<linearGradient id="paint1_linear_227_23" x1="196.515" y1="348.16" x2="196.515" y2="109.499" gradientUnits="userSpaceOnUse">
<stop stop-color="#FBB294" stop-opacity="0"/>
<stop offset="1" stop-color="#FFEFEE"/>
</linearGradient>
<linearGradient id="paint2_linear_227_23" x1="-39.6604" y1="348.838" x2="-39.6604" y2="146.468" gradientUnits="userSpaceOnUse">
<stop stop-color="#FBB294" stop-opacity="0"/>
<stop offset="1" stop-color="#FFEFEE"/>
</linearGradient>
<linearGradient id="paint3_linear_227_23" x1="695.939" y1="309" x2="695.939" y2="205.433" gradientUnits="userSpaceOnUse">
<stop stop-color="#FBB294" stop-opacity="0"/>
<stop offset="1" stop-color="#FFEFEE"/>
</linearGradient>
</defs>
</svg>
