<svg width="1014" height="447" viewBox="0 0 1014 447" fill="none" xmlns="http://www.w3.org/2000/svg">
<path d="M-22.387 37.8498C-18.8503 34.6108 -13.2055 33.4319 -8.74154 32.1282C-2.77225 30.3849 2.61142 27.3091 8.40598 25.1337C15.2949 22.5456 22.2223 20.6697 28.685 17.0371C34.3029 13.8787 40.2453 11.5228 46.0437 8.7369C50.7881 6.45786 55.3577 3.6431 60.413 2.11094C62.0719 1.6079 64.4028 0.548088 66.1385 0.699768C66.3439 3.62201 67.2674 4.71446 69.03 6.94358C73.9951 13.2258 77.9369 19.7308 84.3957 24.6229C92.6076 30.8418 101.735 35.7494 110.454 41.2118C117.395 45.5606 124.672 49.1011 132.332 52.0118C136.433 53.5708 139.767 55.4965 144.188 55.341C148.812 55.1778 153.685 54.1218 158.231 53.135C160.215 52.7049 164.819 50.8771 166.823 51.6796C168.35 52.2902 170.517 55.1298 171.752 56.2127C181.081 64.3996 193.072 70.4591 204.764 74.5679C216.24 78.5999 229.868 77.8339 241.841 77.4518C257.048 76.9641 271.803 72.3926 286.896 71.6668C289.219 71.5555 291.481 70.8547 293.754 70.4188C296.32 69.9273 298.852 70.0521 301.373 69.6297C304.472 69.1132 307.682 68.1052 310.871 68.9058C311.069 72.6748 316.906 77.7186 319.548 79.7634C324.071 83.2617 328.933 86.3759 333.633 89.6284C338.93 93.2956 343.621 97.7692 348.29 102.193C356.446 109.917 366.787 115.362 377.511 118.77C382.339 120.304 386.869 120.183 391.795 120.838C395.689 121.356 399.606 122.094 403.521 122.437C405.737 122.631 407.977 122.7 410.174 122.309C412.028 121.979 413.762 121.178 415.715 121.547C417.952 121.969 416.529 121.779 417.765 123.25C418.864 124.555 421.461 126.047 422.874 126.834C426.271 128.727 430.437 130.256 434.07 131.598C439.713 133.683 445.168 136.342 450.582 138.961C462.905 144.924 476.275 149.536 489.744 152.303C502.856 154.997 515.52 156.562 528.914 156.082C536.3 155.817 543.861 154.332 551.065 152.714C558.219 151.107 564.887 147.998 572.074 146.437C576.595 145.454 580.789 145.506 585.109 146.965C586.706 147.505 588.415 148.409 589.966 149.077C595.505 151.464 601.024 153.251 606.782 155.112C615.143 157.811 623.432 159.691 631.951 161.809C642.772 164.499 653.49 168.13 664.412 170.353C683.09 174.154 701.518 178.922 720.526 180.882C736.487 182.528 752.533 182.04 768.551 182.04C775.367 182.04 782.26 182.353 789.068 182.09C793.901 181.904 798.559 181.034 803.403 181.07C807.873 181.105 810.885 181.715 815.079 183.432C818.592 184.87 822.079 186.208 825.781 187.053C829.632 187.932 832.923 189.908 836.636 191.075C843.061 193.095 849.594 194.602 856.236 195.586C858.344 195.898 873.708 198.769 872.535 201.029C867.118 202.528 1019.01 447.446 1013.5 448.5C1000.59 450.971 1003.96 446.288 991 448.5C973.801 451.436 947.409 447.409 930 448.5C888.355 451.109 856.787 447.459 815.079 448.5C783.961 449.276 741.577 446.695 710.5 448.5C687.391 449.842 655.031 446.762 631.951 448.5C582.657 452.213 562.428 447.296 513 448.5C489.547 449.072 415.225 449.658 391.795 448.5C367.239 447.287 299.313 451.929 275 448.5C242.108 443.863 190.773 455.312 158.231 448.5C145.448 445.824 78.701 452.062 66.1385 448.5C53.5049 444.919 2.74966 455.041 -8.74154 448.5C-22.8267 440.482 -16.7134 173.35 -24.4606 158.783C-30.0689 148.236 -33.0603 136.578 -35.4007 124.949C-36.4318 119.826 -37.3995 114.765 -37.3591 109.52C-37.3284 105.482 -36.7063 101.559 -36.1323 97.5657C-35.4123 92.5545 -34.3735 87.6604 -33.5729 82.6742C-32.8241 78.0047 -32.4516 73.2374 -31.5358 68.5967C-30.1668 61.6675 -25.7278 55.5522 -25.5723 48.333C-25.5396 46.8335 -25.8468 45.2937 -25.6011 43.8038C-25.1825 41.2483 -24.0055 39.334 -22.387 37.8498Z" fill="url(#paint0_linear_189_32)"/>
<defs>
<linearGradient id="paint0_linear_189_32" x1="417.619" y1="174.36" x2="417.619" y2="-14.1155" gradientUnits="userSpaceOnUse">
<stop stop-color="#102D52"/>
<stop offset="1" stop-color="#0F122E"/>
</linearGradient>
</defs>
</svg>
