<svg width="991" height="683" viewBox="0 0 991 683" fill="none" xmlns="http://www.w3.org/2000/svg">
<path d="M986.717 379.688C985.889 375.619 984.522 371.338 980.888 371.43C978.908 371.48 977.796 372.674 975.644 372.144C972.572 371.388 969.277 369.047 966.49 367.565C953.497 360.655 941.748 350.191 927.419 346.743C923.236 345.737 920.559 343.265 917.119 340.848C913.476 338.291 909.291 338.16 905.566 336.069C902.223 334.192 899.332 330.137 896.386 327.514C892.41 323.971 888.056 320.897 884.156 317.244C880.834 314.131 877.394 311.752 873.6 309.235C869.948 306.814 866.795 303.232 863.08 301.141C860.198 299.52 855.982 299.322 853.405 296.92C851.503 295.146 850.746 292.257 849.026 290.268C846.67 287.543 844.65 287.284 841.538 286.025C834.753 283.279 830.532 276.296 825.028 271.767C819.836 267.497 813.464 264.321 808.577 259.705C803.142 254.571 798.223 248.581 792.927 243.251C788.012 238.301 783.095 233.868 778.571 228.54C776.402 225.986 773.514 222.517 769.897 222.789C767.649 222.958 766.425 224.131 764.482 225.08C760.975 226.792 758.06 229.634 754.913 232.115C752.626 233.918 751.592 234.824 749.092 233.42C747.41 232.476 745.664 230.379 744.246 229.1C737.531 223.056 730.001 217.818 722.711 212.492C715.484 207.212 709.561 200.707 703.041 194.629C694.04 186.234 684.893 178.301 676.397 169.365C672.42 165.182 668.262 161.086 664.433 156.776C660.178 151.989 656.667 146.542 652.149 141.998C647.178 136.996 641.23 134.619 635.528 130.773C629.528 126.728 625.547 121.275 620.519 116.25C616.591 112.326 611.12 109.456 607.678 105.205C603.865 100.495 600.695 95.8792 595.914 91.9643C590.843 87.8095 586.095 83.7486 581.416 79.1599C578.623 76.42 576.466 73.2827 573.763 70.5487C570.706 67.4555 568.646 63.8574 566.434 60.029C563.604 55.131 559.964 50.6037 556.844 45.8747C552.662 39.5349 548.363 33.2661 544.324 26.8302C542.544 23.9944 540.676 20.7573 538.264 18.4149C536.615 16.8136 534.804 16.4277 532.875 15.3179C530.135 13.7435 527.998 11.0075 525.59 8.98194C524.254 7.85874 523.365 6.19794 522.265 4.85586C520.859 3.1413 519.487 2.46544 517.421 1.87024C515.514 1.32112 514.258 0.253602 512.655 1.63408C511.544 2.59216 510.847 3.71344 509.541 4.51792C508.882 4.92304 508.316 5.16112 507.778 5.66032C506.868 6.50704 506.081 7.50736 505.056 8.22544C504.109 8.88976 503.36 8.81489 502.316 9.06257C501.049 9.36209 499.891 10.3605 498.8 11.0402C497.474 11.8658 496.143 12.6818 494.809 13.4939C489.659 16.6274 484.466 19.6859 479.332 22.8443C473.827 26.2312 468.697 30.1883 463.158 33.5214C460.76 34.9653 458.058 35.9464 455.695 37.396C455.259 37.6629 454.946 37.9144 454.665 38.3445C454.168 39.1067 454.088 39.8383 453.289 40.4085C452.477 40.9845 451.204 41.3186 450.209 41.2456C446.728 40.9883 443.512 37.4152 442.061 34.4968C441.06 32.4885 440.001 32.2082 437.894 31.5189C436.174 30.9563 434.513 30.1154 432.985 31.2578C432.121 31.9048 431.451 32.7515 430.596 33.4197C428.874 34.7656 427.722 36.315 426.201 37.8376C423.654 40.3893 420.747 42.4322 417.579 44.1295C414.927 45.5503 412.276 46.8328 409.561 48.0539C406.781 49.3038 405.352 52.4738 402.616 53.6584C401.51 54.1365 400.366 54.1423 399.266 54.7259C391.928 58.6197 385.19 65.0479 377.533 68.2543C369.394 71.6623 360.386 73.1157 352.122 76.3778C347.46 78.2171 341.837 78.5205 337.401 80.4539C332.361 82.6504 327.767 87.94 322.794 90.7624C320.279 92.189 317.917 93.8882 314.888 93.8383C310.765 93.7711 309.312 91.1791 305.664 90.052C300.534 88.468 296.421 91.3403 291.926 93.5138C284.01 97.3403 277.684 99.8536 268.763 99.4062C261.627 99.0472 254.11 98.1083 247.075 96.6491C244.969 96.2114 243.053 95.4645 240.862 95.7486C234.367 96.5877 229.496 103.219 224.45 106.768C205.674 119.968 179.314 120.572 157.453 123.556C141.396 125.747 125.268 127.246 109.29 129.996C96.0671 132.271 82.9995 135.813 69.6613 137.294C46.5637 139.855 24.4645 145.755 1.77777 150.436C-5.77743 151.995 -13.4882 153.631 -20.8725 155.866C-28.0725 158.045 -34.2875 161.678 -41.1765 164.504C-47.8504 167.242 -56.0757 167.601 -61.9586 171.754C-71.0939 178.201 -65.2859 186.751 -62.5768 194.93C-58.9576 205.861 -60.5934 219.122 -59.6277 230.542C-58.1896 247.542 -56.5384 265.025 -52.1762 281.576C-48.7662 294.513 -43.8222 309.468 -35.5874 320.03C-28.3029 329.374 -30.6203 666.414 -20.8725 673C14.1022 696.633 56.6898 706.356 96.0824 720.336C145.684 737.938 194.552 757.323 244.652 773.523C264.468 779.932 284.325 786.328 304.328 792.142C333.571 800.64 363.437 806.713 392.907 814.312C461.672 832.043 567.055 764.453 638.625 766.878C670.677 767.965 702.875 765.794 734.649 761.462C767.816 756.94 800.498 749.468 831.972 738.03C846.027 732.923 860.365 727.251 873.6 720.336C882.825 715.516 891.738 710.117 900.916 705.216C914.336 698.046 919.494 719.706 932.327 711.502C948.055 701.447 963.892 692.655 980.888 685C990.872 680.503 981.802 406.094 988.115 397.002C992.002 391.404 989.276 390.079 987.863 385.384C987.456 384.035 987.166 381.892 986.717 379.688Z" fill="url(#paint0_linear_189_284)"/>
<defs>
<linearGradient id="paint0_linear_189_284" x1="461.605" y1="18.0399" x2="461.605" y2="289.4" gradientUnits="userSpaceOnUse">
<stop stop-color="#102D52"/>
<stop offset="1" stop-color="#124162"/>
</linearGradient>
</defs>
</svg>
