<svg width="1081" height="404" viewBox="0 0 1081 404" fill="none" xmlns="http://www.w3.org/2000/svg">
<path d="M-19.8399 175.167C-17.8469 174.27 -15.7906 173.614 -13.8053 172.592C-11.5839 171.452 -9.8674 169.611 -7.59028 168.489C-1.34644 165.415 5.79788 165.325 12.4334 163.591C21.2097 161.301 29.9092 162.03 38.6548 160.228C44.2401 159.076 48.587 155.685 52.9876 152.306C58.9492 147.728 65.7307 144.213 71.4772 139.398C76.1332 135.496 79.5873 132.307 85.8254 131.739C91.4356 131.228 97.2724 128.813 101.47 125.099C105.728 121.334 110.582 116.791 115.885 114.641C121.754 112.262 126.552 112.458 131.942 108.651C139.593 103.244 146.778 97.9313 154.874 93.1467C160.285 89.9499 164.843 85.8929 170.557 83.1588C176.221 80.4477 181.411 76.2833 186.752 72.9463C193.468 68.7511 200.1 64.9649 206.359 60.0804C218.328 50.7415 232.043 43.0788 244.901 35.0724C250.834 31.3783 256.385 26.9834 262.809 24.1188C268.857 21.4231 274.654 21.0026 280.008 16.6462C284.315 13.1422 288.664 9.71304 292.991 6.23208C295.029 4.5924 297.578 0.21288 300.86 1.11144C302.111 1.45512 303.183 2.77992 304.085 3.66888C308.023 7.55112 311.898 11.6407 315.816 15.5998C320.839 20.6724 326.244 25.9812 332.739 29.1358C338.085 31.7316 343.919 33.5825 349.47 35.7041C357.473 38.7607 362.572 44.3326 368.826 49.8065C375.761 55.8794 383.694 60.9905 391.092 66.4778C397.148 70.9706 401.829 75.6958 406.074 81.8282C409.576 86.8894 412.953 90.5546 418.492 93.3118C422.451 95.2817 425.882 98.0177 430.104 99.4404C436.028 101.439 438.769 106.266 443.911 109.482C450.061 113.33 456.877 110.334 463.455 109.931C465.989 109.776 468.856 110.534 471.323 109.808C473.819 109.075 477.841 105.859 479.71 103.985C483.056 100.627 483.807 96.8849 488.584 100.011C491.936 102.203 494.198 102.87 498.149 103.853C504.86 105.523 510.789 108.251 517.749 109.355C524.019 110.35 530.148 111.918 536.415 112.938C542.361 113.906 548.423 112.988 554.271 114.03C558.62 114.806 563.483 116.822 567.133 119.299C573.252 123.452 575.754 121.528 582.493 119.856C586.145 118.951 587.844 119.493 591.471 120.132C595.134 120.777 599.032 120.649 602.784 121.236C605.224 121.618 607.259 121.386 609.64 121.48C612.994 121.614 616.099 122.705 619.459 122.862C625.476 123.143 631.925 123.266 637.914 122.511C651.951 120.741 666.264 121.517 680.411 121.517C685.991 121.517 691.833 122.016 697.401 121.553C700.698 121.278 703.714 120.207 706.573 122.225C708.514 123.594 711.127 127.374 712.842 129.139C717.663 134.102 723.922 137.89 729.502 141.966C735 145.983 740.745 150.217 746.837 153.287C753.937 156.866 762.09 159.684 769.555 162.539C778.736 166.049 786.748 164.882 795.966 162.798C799.009 162.111 800.78 161.238 803.84 161.201C805.944 161.176 808.049 161.197 810.153 161.197C819.167 161.197 828.779 160.274 837.665 161.777C842.117 162.53 846.305 165.22 850.847 165.195C858.28 165.154 865.841 161.556 872.461 158.772C876.716 156.983 881.124 156.015 885.459 154.493C888.696 153.356 891.855 151.753 895.157 150.825C898.431 149.906 901.81 149.858 905.061 148.919C907.683 148.16 910.053 146.822 912.698 146.114C917.343 144.871 920.565 142.566 924.748 140.235C928.252 138.284 934.978 132.854 939.319 134.557C941.706 135.494 943.944 138.931 945.935 140.601C957.367 150.194 973.294 155.211 986.979 160.107C1007.2 167.339 1028.95 172.18 1047.83 182.638C1057.99 188.265 1065.77 194.358 1069.6 205.365C1073.49 216.53 1080.45 228.484 1080.27 240.585C1080.17 247.599 1077.4 254.031 1074.49 260.25C1066.7 276.95 1052.47 290.958 1039.27 303.49C1019.14 322.598 993.281 339.492 967.086 348.873C933.486 360.906 898.051 366.608 862.464 368.121C834.013 369.331 805.468 368.782 777.014 369.863C727.029 371.76 677.347 377.061 627.663 382.544C454.604 401.645 279.085 414.703 105.968 388.969C86.244 386.037 66.4104 382.598 47.2046 377.053C21.9163 369.751 -3.4546 356.885 -24.4095 340.986C-35.797 332.344 -46.0056 322.139 -51.422 308.523C-56.7231 295.19 -58.7333 281.103 -58.4972 266.778C-58.2418 251.272 -57.5064 235.042 -54.5612 219.786C-52.6796 210.04 -46.0133 201.83 -38.821 195.475C-36.1272 193.096 -33.3336 190.83 -30.684 188.4C-29.5973 187.403 -26.8248 185.489 -26.3237 183.932C-26.0261 183.01 -26.6252 182.26 -26.4639 181.421C-26.0357 179.17 -24.6245 177.999 -22.7295 176.728C-21.7887 176.106 -20.821 175.607 -19.8399 175.167Z" fill="url(#paint0_linear_189_473)"/>
<path d="M816.257 219.592C815.558 219.264 814.823 218.989 814.051 218.776C809.694 217.576 803.255 219.024 798.687 218.891C789.083 218.613 780.845 212.2 771.677 209.81C765.006 208.07 758.085 207.304 751.507 205.263C746.409 203.681 741.613 201.225 736.94 198.67C729.148 194.411 722.4 188.162 712.994 189.615C708.891 190.249 704.914 191.452 700.84 190.032C696.697 188.586 695.683 185.431 693.475 181.868C689.46 175.392 680.102 176.563 673.344 176.569C665.537 176.574 658.005 177.932 650.246 177.84C647.706 177.809 644.993 177.529 642.491 178.07C638.922 178.842 635.539 181.355 632.44 183.191C623.408 188.542 614.634 194.394 605.727 199.916C598.721 204.259 592.026 210.23 584.622 213.797C580.531 215.769 576.222 214.473 571.906 215.245C567.308 216.069 562.456 215.737 558.341 217.876C555.957 219.116 554.434 220.533 551.422 220.166C545.906 219.494 541.87 214.252 536.475 212.659C526.625 209.75 515.399 213.636 505.918 210.149C500.398 208.12 495.938 204.028 491.301 200.557C484.658 195.584 477.417 191.529 469.415 189.243C462.614 187.3 455.491 186.528 448.869 183.98C442.782 181.637 437.028 178.621 431.301 175.54C426.316 172.857 421.132 172.062 415.998 169.912C414.048 169.094 412.264 167.913 410.302 167.095C406.773 165.625 403.023 164.985 399.454 163.601C386.642 158.632 376.798 149.145 365.497 141.796C361.117 138.948 357.684 135.78 354.495 131.704C352.853 129.605 350.885 126.263 348.418 125.472C347.706 132.783 338.665 138.85 332.795 141.778C320.935 147.694 308.772 153.077 296.697 158.546C281.074 165.623 266.281 175.958 248.941 178.498C241.119 179.644 235.25 178.777 227.683 177.358C218.064 175.555 208.347 174.935 198.624 176.175C191.748 177.052 184.997 178.172 178.064 177.352C170.1 176.409 162.946 173.362 155.14 172.053C147.675 170.801 140.008 171.874 132.616 173.239C127.614 174.163 122.628 175.601 117.707 176.903C112.274 178.339 104.78 181.363 98.8969 180.357C94.6595 179.633 91.8256 176.607 88.1756 174.689C84.4374 172.725 80.847 172.483 76.696 172.629C69.2099 172.894 61.9254 174.689 54.3913 173.952C44.8009 173.013 35.2528 165.676 28.12 159.867C11.9728 146.716 -5.76035 138.691 -25.2291 131.973C-29.0077 130.669 -35.0557 127.184 -38.7555 130.364C-40.9079 132.213 -43.4634 142.009 -43.5536 142.306C-47.768 156.028 -51.4122 169.939 -55.4615 183.713C-61.6362 204.712 -68.0951 225.724 -73.0813 247.052C-76.1475 260.169 -79.2176 274.972 -69.1818 286.06C-64.833 290.864 -58.0861 293.764 -52.2435 295.747C-43.4115 298.746 -33.8922 301.063 -24.8874 303.183C6.29533 310.523 37.7257 317.068 69.3347 322.27C107.23 328.504 145.251 334.573 183.239 340.21C222.758 346.076 263.235 351.076 303.158 353.157C385.891 357.467 469.186 352.425 551.529 344.277C602.97 339.187 653.992 330.679 705.855 332.985C718.431 333.544 730.971 334.64 743.539 335.312C757.981 336.086 769.92 331.666 782.016 323.898C792.526 317.147 801.375 308.125 808.277 297.732C813.006 290.611 815.767 282.931 818.878 275.042C820.773 270.238 824.094 265.751 825.344 260.766C826.719 255.287 828.341 250.016 828.219 244.314C828.034 235.96 824.862 223.637 816.257 219.592Z" fill="url(#paint1_linear_189_473)"/>
<defs>
<linearGradient id="paint0_linear_189_473" x1="510.882" y1="-31.4402" x2="510.882" y2="312.374" gradientUnits="userSpaceOnUse">
<stop stop-color="#5D6783"/>
<stop offset="1" stop-color="#F5BA9D"/>
</linearGradient>
<linearGradient id="paint1_linear_189_473" x1="376.085" y1="125.471" x2="376.085" y2="239.398" gradientUnits="userSpaceOnUse">
<stop stop-color="#5D6783"/>
<stop offset="1" stop-color="#F5BA9D"/>
</linearGradient>
</defs>
</svg>
