<svg width="1303" height="624" viewBox="0 0 1303 624" fill="none" xmlns="http://www.w3.org/2000/svg">
<path d="M32.0734 123.151C33.8974 121.415 35.6945 119.639 37.4821 117.811C37.724 117.951 38.106 118.207 38.3768 118.307C39.8129 117.395 41.1243 116.3 42.4088 115.179C51.162 107.543 58.3563 97.9661 67.5358 90.8544C73.2651 86.4173 79.1595 81.4291 85.0519 77.2781C86.7588 76.0762 88.9496 74.7802 91.0519 74.5555C95.7636 74.0506 99.356 78.1286 103.538 79.5552C107.671 80.9625 112.066 81.0682 116.041 79.0848C126.752 73.7395 137.109 65.975 146.413 58.4678C163.234 44.8954 180.061 31.4515 195.116 15.8554C199.53 11.2819 205.052 1.91616 211.534 0C225.65 20.4096 246.641 34.8307 265.605 51.0374C287.053 69.3696 311.981 83.376 333.08 102C354.088 120.545 376.802 136.911 397.133 156.252C418.541 176.617 438.962 197.138 462.224 215.445C479.142 228.758 497.393 245.606 518.765 251.597C524.857 253.304 530.793 253.288 537.016 253.319C538.061 253.325 539.105 253.308 540.148 253.261C541.037 253.221 541.97 253.054 542.857 253.135C543.465 253.19 544.016 253.421 544.637 253.354C545.109 253.302 545.552 253.114 546.021 253.046C546.463 252.983 546.912 253.043 547.35 252.964C547.795 252.883 548.146 252.695 548.555 252.532C549.454 252.171 550.316 251.856 551.13 251.391C551.827 250.992 552.603 250.796 553.309 250.439C554.058 250.059 554.751 249.594 555.517 249.226C555.813 249.084 556.164 248.986 556.477 248.872C557.001 248.68 557.188 248.525 557.618 248.206C559.275 246.975 560.818 245.677 562.629 244.625C564.349 243.627 566.244 243.051 567.928 241.978C568.806 241.417 569.535 240.73 570.349 240.09C571.021 239.562 571.741 239.228 572.502 238.856C573.06 238.581 573.504 238.374 573.888 237.89C574.082 237.646 574.068 237.516 574.358 237.347C575.178 236.868 576.205 238.316 576.735 238.888C581.524 244.061 586.88 248.577 592.333 253.033C593.349 253.864 594.255 254.726 595.136 255.688C596.037 256.669 597.229 257.307 598.23 258.171C599.376 259.162 600.633 259.983 601.889 260.834C605.531 263.297 609.264 265.622 613.064 267.834C620.705 272.285 628.608 276.275 636.616 280.02C652.468 287.437 668.744 293.896 684.649 301.194C716.256 315.694 748.615 326.744 782.327 335.103C796.197 338.544 808.907 342.286 823.225 343.674C841.812 345.475 860.959 344.106 879.579 343.154C900.226 342.098 921.129 338.529 941.535 335.374C966.595 331.5 991.196 327.412 1015.89 321.654C1054.76 312.591 1094.17 306.369 1133.12 297.755C1144.34 295.275 1155.72 294.816 1167.05 293.009C1174.29 291.855 1180.34 292.195 1187.44 293.745C1191.64 294.662 1195.72 296.794 1199.69 298.541C1206.53 301.544 1213.34 304.387 1220.35 307.014C1229.13 310.299 1238.68 313.19 1247.73 315.471C1255.23 317.361 1260.12 320.127 1267.19 323.004C1269.25 323.837 1288.84 326.652 1285.04 331.647C1284.9 331.832 1293.56 345.604 1291.5 346.482C1281.51 350.748 1344.5 628.482 1247.73 628.482C1185.1 653.219 1107.5 622.748 1042.5 639.982C987.29 654.62 929.712 640.84 873.613 651.394C821.437 661.211 769.108 671.689 716.459 678.614C665.213 685.355 613.951 686.634 562.324 686.482C503.883 686.309 445.976 685.324 387.617 681.563C351.684 679.248 316.21 676.533 280.168 676.675C252.194 676.784 224.217 676.629 196.243 676.869C180.614 677.003 164.97 676.139 149.464 674.154C136.892 672.545 123.995 670.876 112.498 665.253C103.666 660.933 96.2705 657.88 86.2097 657.58C79.7432 657.388 74.7877 655.248 68.5457 654.149C62.2462 653.042 55.7547 653.719 49.4014 653.723C41.7905 653.725 34.8497 653.883 27.379 655.215C16.3563 657.183 4.15854 655.589 -7.00243 655.635C-34.4757 655.751 -61.1311 648.814 -87.3736 641.174C-104.106 636.303 -109.874 425.021 -126.866 421.127C-146.661 416.59 -165.696 408.948 -185.472 404.191C-193.553 402.246 -201.642 400.598 -209.447 397.688C-213.126 396.315 -220.28 394.535 -223.26 391.5C-228.244 386.423 -219.159 380.955 -215.989 377.372C-204.104 363.936 -189.427 353.107 -177.681 339.475C-159.854 318.783 -148.533 292.299 -135.746 268.383C-122.183 243.018 -104.598 220.264 -93.0204 193.878C-90.4936 188.118 -88.0879 182.886 -87.3736 176.588C-87.1432 174.557 -88.1013 172.961 -86.1487 171.379C-83.6604 172.806 -81.7576 174.989 -79.2367 176.402C-72.4898 180.188 -63.9055 182.122 -56.2639 182.342C-42.9928 182.726 -32.9205 180.918 -22.3336 172.57C-7.16371 160.608 5.21068 145.755 20.2424 133.555C24.3896 130.182 28.2872 126.753 32.0734 123.151Z" fill="url(#paint0_linear_189_158)"/>
<defs>
<linearGradient id="paint0_linear_189_158" x1="473.906" y1="273.6" x2="473.906" y2="84.4701" gradientUnits="userSpaceOnUse">
<stop stop-color="#102D52"/>
<stop offset="1" stop-color="#0F122E"/>
</linearGradient>
</defs>
</svg>
