<svg width="1440" height="1024" viewBox="0 0 1440 1024" fill="none" xmlns="http://www.w3.org/2000/svg">
<g clip-path="url(#clip0_189_15)">
<path d="M32.0734 523.151C33.8974 521.415 35.6945 519.639 37.4821 517.811C37.724 517.951 38.106 518.207 38.3768 518.307C39.8129 517.395 41.1243 516.3 42.4088 515.179C51.162 507.543 58.3563 497.966 67.5358 490.854C73.2651 486.417 79.1595 481.429 85.0519 477.278C86.7588 476.076 88.9496 474.78 91.0519 474.556C95.7636 474.051 99.356 478.129 103.538 479.555C107.671 480.963 112.066 481.068 116.041 479.085C126.752 473.74 137.109 465.975 146.413 458.468C163.234 444.895 180.061 431.452 195.116 415.855C199.53 411.282 205.052 401.916 211.534 400C225.65 420.41 246.641 434.831 265.605 451.037C287.053 469.37 311.981 483.376 333.08 502C354.088 520.545 376.802 536.911 397.133 556.252C418.541 576.617 438.962 597.138 462.224 615.445C479.142 628.758 497.393 645.606 518.765 651.597C524.857 653.304 530.793 653.288 537.016 653.319C538.061 653.325 539.105 653.308 540.148 653.261C541.037 653.221 541.97 653.054 542.857 653.135C543.465 653.19 544.016 653.421 544.637 653.354C545.109 653.302 545.552 653.114 546.021 653.046C546.463 652.983 546.912 653.043 547.35 652.964C547.795 652.883 548.146 652.695 548.555 652.532C549.454 652.171 550.316 651.856 551.13 651.391C551.827 650.992 552.603 650.796 553.309 650.439C554.058 650.059 554.751 649.594 555.517 649.226C555.813 649.084 556.164 648.986 556.477 648.872C557.001 648.68 557.188 648.525 557.618 648.206C559.275 646.975 560.818 645.677 562.629 644.625C564.349 643.627 566.244 643.051 567.928 641.978C568.806 641.417 569.535 640.73 570.349 640.09C571.021 639.562 571.741 639.228 572.502 638.856C573.06 638.581 573.504 638.374 573.888 637.89C574.082 637.646 574.068 637.516 574.358 637.347C575.178 636.868 576.205 638.316 576.735 638.888C581.524 644.061 586.88 648.577 592.333 653.033C593.349 653.864 594.255 654.726 595.136 655.688C596.037 656.669 597.229 657.307 598.23 658.171C599.376 659.162 600.633 659.983 601.889 660.834C605.531 663.297 609.264 665.622 613.064 667.834C620.705 672.285 628.608 676.275 636.616 680.02C652.468 687.437 668.744 693.896 684.649 701.194C716.256 715.694 748.615 726.744 782.327 735.103C796.197 738.544 808.907 742.286 823.225 743.674C841.812 745.475 860.959 744.106 879.579 743.154C900.226 742.098 921.129 738.529 941.535 735.374C966.595 731.5 991.196 727.412 1015.89 721.654C1054.76 712.591 1094.17 706.369 1133.12 697.755C1144.34 695.275 1155.72 694.816 1167.05 693.009C1174.29 691.855 1180.34 692.195 1187.44 693.745C1191.64 694.662 1195.72 696.794 1199.69 698.541C1206.53 701.544 1213.34 704.387 1220.35 707.014C1229.13 710.299 1238.68 713.19 1247.73 715.471C1255.23 717.361 1260.12 720.127 1267.19 723.004C1269.25 723.837 1288.84 726.652 1285.04 731.647C1284.9 731.832 1293.56 745.604 1291.5 746.482C1281.51 750.748 1344.5 1028.48 1247.73 1028.48C1185.1 1053.22 1107.5 1022.75 1042.5 1039.98C987.29 1054.62 929.712 1040.84 873.613 1051.39C821.437 1061.21 769.108 1071.69 716.459 1078.61C665.213 1085.36 613.951 1086.63 562.324 1086.48C503.883 1086.31 445.976 1085.32 387.617 1081.56C351.684 1079.25 316.21 1076.53 280.168 1076.67C252.194 1076.78 224.217 1076.63 196.243 1076.87C180.614 1077 164.97 1076.14 149.464 1074.15C136.892 1072.54 123.995 1070.88 112.498 1065.25C103.666 1060.93 96.2705 1057.88 86.2097 1057.58C79.7432 1057.39 74.7877 1055.25 68.5457 1054.15C62.2462 1053.04 55.7547 1053.72 49.4014 1053.72C41.7905 1053.73 34.8497 1053.88 27.379 1055.21C16.3563 1057.18 4.15854 1055.59 -7.00243 1055.64C-34.4757 1055.75 -61.1311 1048.81 -87.3736 1041.17C-104.106 1036.3 -109.874 825.021 -126.866 821.127C-146.661 816.59 -165.696 808.948 -185.472 804.191C-193.553 802.246 -201.642 800.598 -209.447 797.688C-213.126 796.315 -220.28 794.535 -223.26 791.5C-228.244 786.423 -219.159 780.955 -215.989 777.372C-204.104 763.936 -189.427 753.107 -177.681 739.475C-159.854 718.783 -148.533 692.299 -135.746 668.383C-122.183 643.018 -104.598 620.264 -93.0204 593.878C-90.4936 588.118 -88.0879 582.886 -87.3736 576.588C-87.1432 574.557 -88.1013 572.961 -86.1487 571.379C-83.6604 572.806 -81.7576 574.989 -79.2367 576.402C-72.4898 580.188 -63.9055 582.122 -56.2639 582.342C-42.9928 582.726 -32.9205 580.918 -22.3336 572.57C-7.16371 560.608 5.21068 545.755 20.2424 533.555C24.3896 530.182 28.2872 526.753 32.0734 523.151Z" fill="url(#paint0_linear_189_15)"/>
</g>
<defs>
<linearGradient id="paint0_linear_189_15" x1="473.906" y1="673.6" x2="473.906" y2="484.47" gradientUnits="userSpaceOnUse">
<stop stop-color="#102D52"/>
<stop offset="1" stop-color="#0F122E"/>
</linearGradient>
<clipPath id="clip0_189_15">
<rect width="1440" height="1024" fill="white"/>
</clipPath>
</defs>
</svg>
