<svg width="822" height="651" viewBox="0 0 822 651" fill="none" xmlns="http://www.w3.org/2000/svg">
<path d="M120.879 179.262C122.851 178.031 125.08 177.313 127.667 177.521C132.111 177.876 136.268 180.001 140.74 180.45C147.734 181.153 155.508 180.151 162.338 178.615C167.025 177.563 171.164 175.232 175.645 173.669C179.474 172.333 183.195 171.373 186.952 169.729C198.006 164.898 209.747 160.953 219.521 153.718C226.612 148.471 233.637 143.636 240.847 138.639C244.351 136.21 247.887 134.881 251.117 131.988C253.279 130.05 257.873 124.686 260.792 124.223C262.837 123.899 263.476 125.402 264.553 126.817C266.448 129.304 268.462 131.126 270.893 133.192C274.7 136.431 277.797 139.741 282.467 141.663C286.892 143.485 291.631 143.901 295.959 146.011C303.658 149.765 310.618 154.523 318.991 156.652C322.543 157.556 325.619 157.288 329.202 157.485C333.188 157.704 336.701 158.883 340.779 158.849C344.525 158.818 349.218 159.522 352.881 158.726C354.916 158.284 355.821 157.583 358.002 157.543C359.889 157.508 361.671 157.731 363.478 157.266C369.247 155.78 373.375 149.333 378.323 146.031C383.824 142.362 389.845 139.942 394.823 135.511C400.021 130.886 405.595 126.75 411.124 122.514C421.079 114.888 431.279 107.777 441.199 100.112C452.525 91.3625 463.106 81.6338 474.131 72.5004C480.669 67.086 486.653 61.1033 493.012 55.4988C500.176 49.1858 506.609 42.0204 513.846 35.8207C520.846 29.8226 528.442 24.5407 535.751 18.9362C541.688 14.3858 546.392 8.75449 552.036 3.93721C556.118 0.454334 557.856 -0.772573 562.105 1.71959C564.413 3.07511 566.982 4.11769 569.432 5.17369C574.514 7.36441 578.949 10.5804 583.828 13.1647C588.862 15.8335 594.011 18.7961 598.906 21.7145C605.37 25.5698 610.767 31.303 616.892 35.7017C623.184 40.2214 629.712 44.7449 636.444 48.5926C643.728 52.7551 652.059 53.6306 659.424 57.6991C668.836 62.8985 678.081 70.3654 689.176 70.6035C701.47 70.8665 713.743 71.4482 725.747 74.6066C729.777 75.6665 733.077 78.2143 737.171 79.2108C741.162 80.1842 745.156 80.8082 749.261 80.8102C756.616 80.8121 763.646 77.6594 770.863 78.1663C775.363 78.4812 777.494 82.1254 781.194 84.5042C795.421 93.655 810.937 100.843 825.719 109.038C835.021 114.195 844.631 118.465 854.964 120.996C860.221 122.284 864.874 121.328 870.19 120.483C879.391 119.022 888.49 117.186 897.302 114.091C904.969 111.398 912.434 108.047 920.102 105.304C923.764 103.994 929.075 101.448 933.191 102.397C935.8 102.998 937.398 104.827 938.546 107.314C939.713 109.841 939.731 112.68 940.049 115.386C941.165 124.882 942.467 134.378 943.893 143.83C946.62 161.878 948.733 179.992 951.011 198.101C954.083 222.527 956.36 248.566 949.958 272.71C947.123 283.403 861.536 704.129 854.965 713.121C844.952 726.824 831.879 737.422 817.416 746.1C802.689 754.938 787.038 760.264 770.597 764.961C746.276 771.905 721.644 777.832 696.965 783.375C636.032 797.063 573.837 802.199 511.629 805.753C457.414 808.85 403.387 811.644 349.061 811.219C303.455 810.862 257.204 806.819 212.865 795.64C179.271 787.169 144.393 777.235 115.22 758.133C94.7778 744.747 77.8952 728.12 60.2255 711.514C49.4888 701.424 39.8811 689.877 31.147 678C23.8913 668.135 97.5283 248.271 94.4045 236.251C92.1773 227.677 89.735 217.62 92.2886 208.868C93.815 203.638 95.5008 199.462 100.022 196.392C105.448 192.708 111.162 189.417 115.419 184.327C117.039 182.394 118.821 180.548 120.879 179.262Z" fill="url(#paint0_linear_189_347)"/>
<path d="M55.0317 185.193C63.6333 183.28 72.1735 185.782 80.633 187.51C87.0304 188.818 93.1629 191.005 99.5834 192.212C105.557 193.335 111.674 194.132 117.762 194.159C122.631 194.18 127.517 192.61 132.362 193.082C135.733 193.41 138.523 195.209 141.814 195.793C144.573 196.283 147.939 196.607 150.698 196.58C154.584 196.542 156.703 194.674 160.094 193.241C162.628 192.172 165.806 191.582 168.569 191.312C170.923 191.081 172.908 191.678 174.959 192.727C177.553 194.054 178.422 194.261 181.374 193.163C189.868 190.002 199.5 186.435 206.844 180.961C208.709 182.299 210.366 183.766 212.383 184.885C214.709 186.174 217.116 186.955 219.639 187.765C224.145 189.211 228.337 191.139 232.595 193.197C240.512 197.024 249.261 197.448 257.118 201.242C262.329 203.757 267.284 206.737 272.382 209.465C277.748 212.336 283.074 213.764 289.07 214.761C299.06 216.42 308.99 216.998 318.757 219.912C322.202 220.939 325.564 222.356 328.864 223.779C332.576 225.38 335.646 228.039 339.332 229.629C341.937 230.752 344.981 231.839 347.784 232.296C350.833 232.793 353.934 232.227 356.994 232.519C359.544 232.763 361.986 233.646 364.561 233.396C367.673 233.097 370.941 231.576 373.794 230.353C379.721 227.813 386.744 223.257 393.353 224.236C395.74 224.589 397.932 224.81 400.046 225.749C405.226 228.047 408.919 232.532 413.932 235.153C418.519 237.551 425.807 239.991 431.04 240.208C436.87 240.448 442.369 234.619 446.779 231.522C452.36 227.6 458.028 224.067 464.32 221.406C470.884 218.629 477.779 217.343 484.61 215.425C496.673 212.036 507.886 206.591 519.757 202.672C533.652 198.086 547.951 194.812 561.827 190.227C576.824 185.27 588.017 172.92 600.309 163.491C610.971 155.314 621.26 146.29 632.846 139.403C634.084 138.667 636.353 136.83 637.768 136.569C639.053 136.333 638.792 136.743 639.75 137.102C641.906 137.907 643.732 139.562 645.759 140.628C649.223 142.448 652.727 144.268 656.218 146.046C666.628 151.347 678.709 152.495 689.474 157.038C695.15 159.434 701.065 161.239 706.681 163.767C713.109 166.663 719.052 170.395 724.921 174.278C729.16 177.083 733.753 179.193 738.269 181.502C743.063 183.954 747.869 186.542 753.418 186.569C757.515 186.589 761.566 185.233 765.596 184.655C770.112 184.006 774.691 183.543 779.251 183.44C782.63 183.363 785.904 183.277 789.124 184.392C791.879 185.346 794.379 186.448 797.359 186.521C801.888 186.631 806.25 184.991 810.519 183.714C816.446 181.942 822.57 181.044 828.526 179.383C836.525 177.15 846.44 174.057 853.021 180.763C856.994 184.811 859.657 190.212 862.157 195.244C867.182 205.366 872.076 215.565 876.211 226.087C879.326 234.011 882.28 242.1 884.475 250.329C886.906 259.443 884.154 267.637 878.329 274.828C871.853 282.819 819.287 678.879 810.518 684C800.749 689.704 790.608 694.815 780.207 699.295C750.735 711.986 719.383 720.19 688.393 728.175C672.551 732.257 656.565 736.36 640.477 739.384C619.858 743.259 598.971 745.311 578.131 747.477C546.631 750.753 515.151 754.067 483.611 756.929C410.88 763.532 338.307 771.585 265.29 774.338C232.558 775.572 199.645 777.235 166.982 774.184C137.282 771.41 107.545 765.798 80.8778 751.985C50.7146 736.36 20.6108 716.327 2.37661 686.836C-7.34627 671.109 35.2 262.672 34.743 244.599C34.5241 235.936 36.6649 227.744 39.088 219.486C41.4381 211.477 43.1949 203.262 46.3207 195.499C47.2116 193.287 48.2484 191.072 49.2333 188.921C49.4369 188.478 49.2544 187.998 49.5866 187.57C50.6925 186.145 53.1002 185.646 54.7476 185.26C54.8417 185.235 54.9376 185.214 55.0317 185.193Z" fill="url(#paint1_linear_189_347)"/>
<defs>
<linearGradient id="paint0_linear_189_347" x1="522.631" y1="24.1201" x2="522.631" y2="135.584" gradientUnits="userSpaceOnUse">
<stop stop-color="#2F4C6D"/>
<stop offset="1" stop-color="#3C5473"/>
</linearGradient>
<linearGradient id="paint1_linear_189_347" x1="460.038" y1="224.76" x2="460.038" y2="299.739" gradientUnits="userSpaceOnUse">
<stop stop-color="#2F4C6D"/>
<stop offset="1" stop-color="#3C5473"/>
</linearGradient>
</defs>
</svg>
