<svg width="1169" height="526" viewBox="0 0 1169 526" fill="none" xmlns="http://www.w3.org/2000/svg">
<path d="M81.1183 83.4358C81.9113 83.215 82.7196 83.0365 83.5567 82.9385C86.5327 82.5949 88.4411 83.1459 90.9525 81.8691C89.9003 82.4048 82.23 84.3114 83.0114 81.1338C83.3225 79.8724 92.2773 79.5325 93.7576 79.6054C95.524 79.6918 97.2232 80.2717 98.9934 80.3178C105.759 80.5002 113.054 77.0595 119.332 75.0071C129.51 71.6797 139.709 68.193 150.334 66.5955C160.718 65.0326 171.028 64.5258 181.408 62.8669C189.345 61.5997 198.284 59.0768 205.158 54.5898C207.038 53.3629 208.224 51.6368 210.282 50.625C212.183 49.6899 213.673 50.3216 215.465 49.7878C216.912 49.3558 217.016 48.0387 218.214 47.4205C220.28 46.3549 221.359 47.7968 223.047 48.4765C229.026 50.8861 237.537 45.007 243.627 42.728C249.197 40.6429 254.229 38.0586 259.949 36.6109C262.036 36.0829 262.904 35.4013 265.035 35.935C266.682 36.3478 267.418 37.8435 268.641 38.7805C271.92 41.2899 276.315 42.4976 280.192 43.9702C284.677 45.6752 288.45 47.1747 293.276 47.2189C300.893 47.2861 306.824 46.8176 313.986 44.0048C319.181 41.9638 324.455 40.3184 329.637 38.2045C333.934 36.4515 339.207 33.7424 343.905 33.1357C345.581 32.9187 347.478 32.9974 349.177 33.0723C352.169 33.2048 351.449 33.5082 353.553 35.3034C355.938 37.3367 358.95 39.105 361.559 40.9366C366.941 44.7133 370.699 50.408 375.598 54.7875C389.678 67.3712 402.058 81.5427 415.682 94.6122C424.19 102.772 435.364 108.826 445.511 114.713C448.931 116.696 452.519 118.338 456.044 120.121C460.276 122.264 464.54 123.337 468.845 125.15C472.664 126.759 475.504 129.744 479.084 131.716C482.629 133.669 485.787 135.481 489.065 137.828C491.344 139.46 493.859 140.041 496.074 141.852C498.95 144.202 501.567 145.239 504.622 147.23C507.965 149.409 511.484 151.352 513.669 154.708C515.378 157.333 516.835 158.817 520.074 158.573C522.901 158.36 523.066 157.402 525.424 155.922C528.676 153.881 532.453 152.395 535.826 150.377C540.29 147.706 545.332 145.83 549.577 142.823C552.363 140.85 554.761 139.031 558.185 138.311C562.677 137.367 565.344 139.413 569.269 141.237C576.511 144.601 583.686 147.967 590.915 151.363C601.191 156.19 613.31 157.316 622.455 164.237C626.047 166.956 629.426 170.709 634.053 171.397C639.145 172.153 645.541 169.517 650.51 168.732C655.087 168.01 660.801 166.267 665.428 166.412C669.116 166.53 672.353 167.803 676.174 167.547C686.776 166.843 697.717 163.344 707.777 160.207C730.005 153.274 752.527 143.259 772.001 130.37C778.286 126.21 784.023 121.431 790.495 117.541C795.47 114.551 800.143 111.297 804.323 107.234C806.01 105.593 809.376 101.403 811.976 101.094C814.351 100.81 814.412 101.849 816.244 103.139C820.284 105.984 826.111 107.269 830.709 108.484C844.401 112.1 858.004 116.652 871.517 120.876C899.113 129.5 926.696 138.697 953.57 149.338C962.992 153.068 974.352 159.879 984.91 158.293C1000.5 155.952 1014.88 149.57 1029.57 144.071C1034.54 142.209 1039.04 140.441 1044.38 140.617C1048.6 140.756 1049.82 139.291 1052.98 136.62C1065.41 126.121 1076.97 115.965 1091.62 108.601C1115.11 96.7895 1133.79 76.8829 1153.77 60.2826C1172.33 44.8592 1192.69 31.7014 1212.49 17.983C1217.23 14.6998 1221.95 11.432 1226.45 7.81856C1229.29 5.5376 1232.19 2.16609 1235.61 0.896973C1235.47 3.75393 1234.3 6.85856 1233.93 9.66752C1233 16.7158 1232.95 23.7066 1232.98 30.8125C1233.05 51.7002 1233.01 72.5168 1232.08 93.3891C1231.37 109.229 1230.48 125.065 1230.41 140.924C1230.35 154.165 1196.76 519.806 1195.5 533.01C1194.72 541.172 1194.22 549.312 1190.67 556.812C1187.47 563.543 1182.92 568.441 1176.88 572.679C1170.78 576.081 1164.41 578.828 1157.77 580.923C1147.85 584.681 1137.76 587.931 1127.51 590.675C1097.78 599.48 1067.66 607.379 1037.4 614.089C963.564 630.459 889.494 645.028 814.649 655.92C711.37 670.95 607.465 681.979 503.002 679.17C419.77 676.933 336.91 673.051 255.044 656.75C224.973 650.763 195.186 643.45 165.698 635.033C146.093 629.641 126.939 622.994 108.233 615.091C91.0813 609.011 74.5981 601.436 58.7869 592.366C34.8503 576.06 12.1213 554.228 1.06595 527C-5.45245 510.949 25.5497 139.475 32.1276 122.896C36.5993 111.625 42.4591 101.396 51.4639 93.2336C58.0611 87.2528 64.1186 85.8455 72.6549 85.6093C75.7135 85.5229 78.3189 84.2173 81.1183 83.4358Z" fill="url(#paint0_linear_189_221)"/>
<defs>
<linearGradient id="paint0_linear_189_221" x1="631.975" y1="91.9602" x2="631.975" y2="230.2" gradientUnits="userSpaceOnUse">
<stop stop-color="#102D52"/>
<stop offset="1" stop-color="#124162"/>
</linearGradient>
</defs>
</svg>
