<svg width="1440" height="899" viewBox="0 0 1440 899" fill="none" xmlns="http://www.w3.org/2000/svg">
<path d="M695.107 351.865C696.635 351.508 698.242 350.732 699.88 350.235C701.934 349.609 704.451 347.804 706.464 346.704C711.392 344.012 716.382 341.117 721.57 339.028C726.019 337.239 729.58 334.357 733.643 331.92C742.264 326.753 750.209 318.887 757.728 312.117C767.059 303.717 778.258 297.281 787.514 288.797C791.082 285.525 794.39 281.952 798.652 280.117C800.657 279.255 803.37 278.248 805.403 278.456C807.667 278.686 810.195 279.934 812.448 280.432C817.031 281.443 821.498 281.549 826.239 281.407C832.805 281.211 836.348 273.47 839.75 268.504C843.534 262.983 851.314 266.657 857.055 267.475C862.266 268.218 866.737 268.491 871.386 270.847C874.51 272.429 876.689 274.241 879.388 276.338C882.242 278.554 886.22 282.135 890.037 282.087C891.436 282.069 892.742 281.296 894.124 281.127C896.659 280.817 899.249 281.34 901.806 281.182C907.236 280.846 912.558 279.276 917.667 277.48C923.057 275.587 926.985 272.552 931.541 269.267C939.137 263.791 946.938 259.745 954.305 253.826C960.009 249.243 966.579 245.345 971.562 239.96C976.358 234.774 982.479 230.753 986.309 224.734C996.401 208.875 1013.2 197.635 1026.77 184.748C1033.74 178.13 1039.78 170.577 1046.49 163.711C1051.07 159.018 1056.19 154.883 1060.65 150.108C1065.99 144.396 1071.85 138.872 1077.89 133.838C1081.58 130.764 1084.73 129.825 1088.69 127.254C1092.81 124.587 1096.61 120.559 1100.63 117.554C1108.76 111.489 1114.12 103.465 1121.37 96.772C1124.6 93.7883 1128.51 92.5845 1131.36 89.2725C1135.66 84.292 1139.77 79.2021 1144.32 74.3349C1150.62 67.5842 1158.38 61.4939 1164.05 54.2939C1170.97 45.5022 1177.37 36.8392 1183.1 27.3582C1188.47 18.4898 1194.51 9.03568 1200.47 0.631836C1204.35 1.2904 1210.11 10.2165 1212.54 12.9371C1213.69 14.2293 1214.49 16.1589 1215.73 17.2936C1217.45 18.8661 1219.37 18.8546 1220.96 20.7573C1223.38 23.6699 1224.69 28.0398 1227.26 30.7643C1231.7 35.4798 1236.68 28.4987 1240.28 25.4862C1244.45 21.9899 1248.46 18.3112 1252.64 14.8187C1254.37 13.3672 1255.73 11.6277 1257.64 10.3682C1259.17 9.36016 1260.69 10.3566 1261.97 8.44816C1273.83 13.108 1277.45 24.58 1286.3 33.0741C1293.17 39.6693 1299.6 44.6651 1304.54 52.9595C1309.79 61.7531 1314.74 70.7138 1319.8 79.6149C1322.58 84.5147 1325.22 89.5989 1328.33 94.299C1328.31 94.2683 1330.24 95.7083 1330.2 95.6046C1331.64 98.9147 1331.94 103.989 1332.82 107.68C1335.36 118.326 1340.43 130.084 1345.4 139.745C1349.03 146.798 1352.52 155.144 1357.34 161.43C1360.67 165.769 1365.44 168.799 1368.67 173.221C1373.15 179.34 1375.37 186.709 1380.48 192.526C1384.54 197.153 1389.54 200.473 1392.53 205.911C1395.27 210.91 1397.19 210.321 1401.66 206.375C1405.04 203.397 1407.89 199.534 1411.16 196.272C1413.39 194.045 1418.04 187.089 1420.98 186.787C1426.69 186.204 1425.55 191.223 1426.66 195.441C1429.03 204.528 1436.04 214.412 1440.82 222.438C1451.08 239.635 1461.43 256.835 1469.76 275.077C1482.06 302.016 1488.37 331.565 1499.33 359.069C1504.24 371.378 1510.03 384.661 1518.05 395.357C1525.98 405.928 1536.44 414.338 1544.8 424.614C1555.08 437.265 1566.66 453.178 1580.11 462.91C1584.89 466.374 1590.78 467.935 1595.68 471.26C1600.86 474.787 1605.79 479.044 1610.65 483.005C1616.3 487.613 1621.01 492.926 1626.3 497.914C1630.26 501.656 1635.18 503.758 1639.35 507.208C1645.34 512.181 1653.43 521.789 1650.93 530.151C1644.73 531.554 1636.73 530.955 1630.33 531.756C1614.59 533.724 1599.36 535.342 1584.07 539.912C1552.11 549.464 1523.49 1009.63 1493.51 1024.02C1443.08 1048.23 1391.77 1071.48 1337.82 1086.65C1281.86 1102.39 1225.24 1110.69 1167.27 1112.91C1111.52 1115.05 1055.91 1110.39 1000.29 1107.06C955.824 1104.39 912.485 1098.79 869.147 1088.31C867.813 1087.99 866.476 1087.67 865.142 1087.35C845.618 1082.67 826.028 1078.17 806.814 1072.31C798.528 1069.78 790.504 1067.37 783.127 1062.81C774.977 1057.77 766.802 1060.79 758.023 1058.99C756.165 1058.61 753.292 1057.35 751.363 1056.4C748.406 1054.93 745.227 1054.22 742.089 1053.23C737.063 1051.64 732.267 1049.88 727.104 1048.71C723.452 1047.89 719.769 1047.44 716.202 1046.23C712.439 1044.95 709.395 1043.24 705.452 1042.7C699.435 1041.87 693.886 1040.19 688.026 1038.49C681.302 1036.53 674.682 1035.95 667.82 1034.61C653.792 1031.87 638.776 1034.08 624.531 1032.71C611.923 1031.5 598.855 1030.2 586.212 1029.86C569.737 1029.42 554.129 1026.16 537.982 1023.19C519.797 1019.84 501.82 1016.07 483.369 1014.42C472.949 1013.48 462.547 1012.7 452.133 1011.64C415.031 1007.88 378.172 1005.47 340.907 1003.95C311.111 1002.74 281.581 999.427 251.954 996.178C226.212 993.358 200.452 992.365 174.752 989.219C164.463 987.959 154.114 987.195 143.965 985.023C134.985 983.102 126.332 980.15 117.475 977.749C92.3479 970.936 66.8714 965.257 42.7946 955.048C20.8797 945.756 -1.78782 933.274 -18.4265 916.13C-31.1542 903.018 -36.9392 887.825 -39.704 870C-43.304 846.799 -41.9412 377.482 -39.7025 354.265C-38.85 345.42 -38.3355 336.302 -36.5422 327.571C-35.7435 323.687 -34.7719 319.488 -32.0398 316.412C-28.3745 312.288 -20.5524 310.168 -15.8868 307.797C-9.38571 304.493 -3.01514 300.843 3.33622 297.256C15.1077 290.609 26.933 284.055 38.6776 277.361C47.1948 272.508 54.4274 266.381 62.4012 260.775C67.3759 257.276 72.4889 254.602 77.7478 251.651C88.5977 245.561 98.7795 238.366 109.128 231.485C113.875 228.33 118.381 225.185 122.829 221.655C124.242 220.533 126.028 219.082 127.733 218.308C129.569 217.475 129.547 217.106 131.314 218.727C133.589 220.816 135.139 223.709 137.218 225.996C140.152 229.223 143.283 231.658 146.885 234.027C150.368 236.318 153.762 239.104 157.599 240.745C162.416 242.809 167.537 243.218 172.542 244.556C175.764 245.418 179.156 246.803 182.19 248.133C185.131 249.422 183.492 248.487 185.89 247.05C189.298 245.009 193.307 250.552 195.724 251.935C202.692 255.925 208.271 261.063 214.755 265.782C227.857 275.319 240.909 284.959 254.687 293.562C262.746 298.595 270.996 303.783 279.323 308.362C286.571 312.348 294.529 313.265 302.146 316.144C309.713 319.002 314.449 325.634 322.79 326.723C330.667 327.75 338.363 325.532 346.317 326.869C357.206 328.697 367.397 331.849 377.886 335.117C388.292 338.358 397.071 342.411 408.136 342.311C422.029 342.188 435.667 340.113 449.475 342.903C466.185 346.278 482.056 353.134 498.685 356.94C533.756 364.963 569.228 372.338 605.347 366.63C615.761 364.984 628.103 361.467 637.075 355.628C641.679 352.633 645.196 347.931 649.977 345.272C655.511 342.194 662.457 345.802 668.19 346.983C671.18 347.599 674.59 347.336 677.468 348.167C679.497 348.753 681.985 350.464 683.802 351.433C684.894 352.017 686.027 353.307 687.429 353.196C688.556 353.107 688.435 352.044 689.387 351.896C691.196 351.625 693.335 352.282 695.107 351.865Z" fill="url(#paint0_linear_189_410)"/>
<defs>
<linearGradient id="paint0_linear_189_410" x1="804.325" y1="394.872" x2="804.325" y2="129.612" gradientUnits="userSpaceOnUse">
<stop stop-color="#5D6783"/>
<stop offset="1" stop-color="#6A6C84"/>
</linearGradient>
</defs>
</svg>
