<svg width="958" height="360" viewBox="0 0 958 360" fill="none" xmlns="http://www.w3.org/2000/svg">
<path d="M13.7734 152.073V63.6331H47.9734V94.7131H65.0134V63.6331H99.2134V152.073H65.0134V118.233H47.9734V152.073H13.7734ZM106.476 152.073L126.036 63.6331H185.196L204.636 152.073H168.876L166.836 138.993H144.276L142.236 152.073H106.476ZM147.756 117.273H163.356L158.076 83.9131H153.036L147.756 117.273ZM223.938 152.073L210.618 140.673V75.0331L223.938 63.6331H282.258L295.578 75.0331V100.713H260.538V81.9931H244.818V133.713H260.778V114.633H295.938V140.673L282.618 152.073H223.938ZM306.625 152.073V63.6331H340.825V94.9531L361.105 63.6331H399.985L369.985 104.433L399.145 152.073H360.745L340.825 114.273V152.073H306.625Z" fill="#F72585"/>
<path d="M438.939 273L412.339 241.92V208.32H491.019V231.84H531.059V190.4H466.659V145.04H531.059V107.8H491.019V130.76H412.339V97.72L438.939 66.64H584.819L611.419 97.72V145.04L588.459 167.72L611.419 190.12V241.92L584.819 273H438.939ZM639.403 273V220.64H700.443V273H639.403ZM762.214 273L731.134 246.4V93.24L762.214 66.64H899.974L931.054 93.24V246.4L899.974 273H762.214ZM810.934 230.16H851.254V109.48H810.934V230.16Z" fill="#F72585"/>
<path d="M47.5525 270.561L29.7925 255.361V213.921H75.3925V246.081H94.1125V152.641H139.553V255.361L121.793 270.561H47.5525ZM155.5 270.561V152.641H196.78L222.54 210.241V152.641H263.5V270.561H222.54L196.62 210.401L196.46 270.561H155.5ZM297.323 270.561L279.563 255.361V152.641H325.163V246.081H346.443V152.641H392.043V255.361L374.283 270.561H297.323Z" fill="#F72585"/>
<path d="M20.7734 161.951V73.5113H54.9734V104.591H72.0134V73.5113H106.213V161.951H72.0134V128.111H54.9734V161.951H20.7734ZM113.476 161.951L133.036 73.5113H192.196L211.636 161.951H175.876L173.836 148.871H151.276L149.236 161.951H113.476ZM154.756 127.151H170.356L165.076 93.7913H160.036L154.756 127.151ZM230.938 161.951L217.618 150.551V84.9113L230.938 73.5113H289.258L302.578 84.9113V110.591H267.538V91.8713H251.818V143.591H267.778V124.511H302.938V150.551L289.618 161.951H230.938ZM313.625 161.951V73.5113H347.825V104.831L368.105 73.5113H406.985L376.985 114.311L406.145 161.951H367.745L347.825 124.151V161.951H313.625Z" fill="#00ADEE"/>
<path d="M446.248 282.878L419.648 251.798V218.198H498.328V241.718H538.368V200.278H473.968V154.918H538.368V117.678H498.328V140.638H419.648V107.598L446.248 76.518H592.128L618.728 107.598V154.918L595.768 177.598L618.728 199.998V251.798L592.128 282.878H446.248ZM646.713 282.878V230.518H707.753V282.878H646.713ZM769.523 282.878L738.443 256.278V103.118L769.523 76.518H907.283L938.363 103.118V256.278L907.283 282.878H769.523ZM818.243 240.038H858.563V119.358H818.243V240.038Z" fill="#00ADEE"/>
<path d="M54.5525 280.439L36.7925 265.239V223.799H82.3925V255.959H101.113V162.519H146.553V265.239L128.793 280.439H54.5525ZM162.5 280.439V162.519H203.78L229.54 220.119V162.519H270.5V280.439H229.54L203.62 220.279L203.46 280.439H162.5ZM304.323 280.439L286.563 265.239V162.519H332.163V255.959H353.443V162.519H399.043V265.239L381.283 280.439H304.323Z" fill="#00ADEE"/>
<path d="M28.7734 172.927V84.487H62.9734V115.567H80.0134V84.487H114.213V172.927H80.0134V139.087H62.9734V172.927H28.7734ZM121.476 172.927L141.036 84.487H200.196L219.636 172.927H183.876L181.836 159.847H159.276L157.236 172.927H121.476ZM162.756 138.127H178.356L173.076 104.767H168.036L162.756 138.127ZM238.938 172.927L225.618 161.527V95.887L238.938 84.487H297.258L310.578 95.887V121.567H275.538V102.847H259.818V154.567H275.778V135.487H310.938V161.527L297.618 172.927H238.938ZM321.625 172.927V84.487H355.825V115.807L376.105 84.487H414.985L384.985 125.287L414.145 172.927H375.745L355.825 135.127V172.927H321.625Z" fill="white"/>
<path d="M454.37 293.854L427.77 262.774V229.174H506.45V252.694H546.49V211.254H482.09V165.894H546.49V128.654H506.45V151.614H427.77V118.574L454.37 87.4936H600.25L626.85 118.574V165.894L603.89 188.574L626.85 210.974V262.774L600.25 293.854H454.37ZM654.835 293.854V241.494H715.875V293.854H654.835ZM777.646 293.854L746.566 267.254V114.094L777.646 87.4936H915.406L946.486 114.094V267.254L915.406 293.854H777.646ZM826.366 251.014H866.686V130.334H826.366V251.014Z" fill="white"/>
<path d="M62.5525 291.415L44.7925 276.215V234.775H90.3925V266.935H109.113V173.495H154.553V276.215L136.793 291.415H62.5525ZM170.5 291.415V173.495H211.78L237.54 231.095V173.495H278.5V291.415H237.54L211.62 231.255L211.46 291.415H170.5ZM312.323 291.415L294.563 276.215V173.495H340.163V266.935H361.443V173.495H407.043V276.215L389.283 291.415H312.323Z" fill="white"/>
</svg>
