<svg width="1440" height="1024" viewBox="0 0 1440 1024" fill="none" xmlns="http://www.w3.org/2000/svg">
<g clip-path="url(#clip0_189_19)">
<path d="M986.717 720.688C985.889 716.619 984.522 712.338 980.888 712.43C978.908 712.48 977.796 713.674 975.644 713.144C972.572 712.388 969.277 710.047 966.49 708.565C953.497 701.655 941.748 691.191 927.419 687.743C923.236 686.737 920.559 684.265 917.119 681.848C913.476 679.291 909.291 679.16 905.566 677.069C902.223 675.192 899.332 671.137 896.386 668.514C892.41 664.971 888.056 661.897 884.156 658.244C880.834 655.131 877.394 652.752 873.6 650.235C869.948 647.814 866.795 644.232 863.08 642.141C860.198 640.52 855.982 640.322 853.405 637.92C851.503 636.146 850.746 633.257 849.026 631.268C846.67 628.543 844.65 628.284 841.538 627.025C834.753 624.279 830.532 617.296 825.028 612.767C819.836 608.497 813.464 605.321 808.577 600.705C803.142 595.571 798.223 589.581 792.927 584.251C788.012 579.301 783.095 574.868 778.571 569.54C776.402 566.986 773.514 563.517 769.897 563.789C767.649 563.958 766.425 565.131 764.482 566.08C760.975 567.792 758.06 570.634 754.913 573.115C752.626 574.918 751.592 575.824 749.092 574.42C747.41 573.476 745.664 571.379 744.246 570.1C737.531 564.056 730.001 558.818 722.711 553.492C715.484 548.212 709.561 541.707 703.041 535.629C694.04 527.234 684.893 519.301 676.397 510.365C672.42 506.182 668.262 502.086 664.433 497.776C660.178 492.989 656.667 487.542 652.149 482.998C647.178 477.996 641.23 475.619 635.528 471.773C629.528 467.728 625.547 462.275 620.519 457.25C616.591 453.326 611.12 450.456 607.678 446.205C603.865 441.495 600.695 436.879 595.914 432.964C590.843 428.809 586.095 424.749 581.416 420.16C578.623 417.42 576.466 414.283 573.763 411.549C570.706 408.456 568.646 404.857 566.434 401.029C563.604 396.131 559.964 391.604 556.844 386.875C552.662 380.535 548.363 374.266 544.324 367.83C542.544 364.994 540.676 361.757 538.264 359.415C536.615 357.814 534.804 357.428 532.875 356.318C530.135 354.744 527.998 352.008 525.59 349.982C524.254 348.859 523.365 347.198 522.265 345.856C520.859 344.141 519.487 343.465 517.421 342.87C515.514 342.321 514.258 341.254 512.655 342.634C511.544 343.592 510.847 344.713 509.541 345.518C508.882 345.923 508.316 346.161 507.778 346.66C506.868 347.507 506.081 348.507 505.056 349.225C504.109 349.89 503.36 349.815 502.316 350.063C501.049 350.362 499.891 351.36 498.8 352.04C497.474 352.866 496.143 353.682 494.809 354.494C489.659 357.627 484.466 360.686 479.332 363.844C473.827 367.231 468.697 371.188 463.158 374.521C460.76 375.965 458.058 376.946 455.695 378.396C455.259 378.663 454.946 378.914 454.665 379.345C454.168 380.107 454.088 380.838 453.289 381.408C452.477 381.984 451.204 382.319 450.209 382.246C446.728 381.988 443.512 378.415 442.061 375.497C441.06 373.489 440.001 373.208 437.894 372.519C436.174 371.956 434.513 371.115 432.985 372.258C432.121 372.905 431.451 373.752 430.596 374.42C428.874 375.766 427.722 377.315 426.201 378.838C423.654 381.389 420.747 383.432 417.579 385.129C414.927 386.55 412.276 387.833 409.561 389.054C406.781 390.304 405.352 393.474 402.616 394.658C401.51 395.136 400.366 395.142 399.266 395.726C391.928 399.62 385.19 406.048 377.533 409.254C369.394 412.662 360.386 414.116 352.122 417.378C347.46 419.217 341.837 419.52 337.401 421.454C332.361 423.65 327.767 428.94 322.794 431.762C320.279 433.189 317.917 434.888 314.888 434.838C310.765 434.771 309.312 432.179 305.664 431.052C300.534 429.468 296.421 432.34 291.926 434.514C284.01 438.34 277.684 440.854 268.763 440.406C261.627 440.047 254.11 439.108 247.075 437.649C244.969 437.211 243.053 436.464 240.862 436.749C234.367 437.588 229.496 444.219 224.45 447.768C205.674 460.968 179.314 461.572 157.453 464.556C141.396 466.747 125.268 468.246 109.29 470.996C96.0671 473.271 82.9995 476.813 69.6613 478.294C46.5637 480.855 24.4645 486.755 1.77777 491.436C-5.77743 492.995 -13.4882 494.631 -20.8725 496.866C-28.0725 499.045 -34.2875 502.678 -41.1765 505.504C-47.8504 508.242 -56.0757 508.601 -61.9586 512.754C-71.0939 519.201 -65.2859 527.751 -62.5768 535.93C-58.9576 546.861 -60.5934 560.122 -59.6277 571.542C-58.1896 588.542 -56.5384 606.025 -52.1762 622.576C-48.7662 635.513 -43.8222 650.468 -35.5874 661.03C-28.3029 670.374 -30.6203 1007.41 -20.8725 1014C14.1022 1037.63 56.6898 1047.36 96.0824 1061.34C145.684 1078.94 194.552 1098.32 244.652 1114.52C264.468 1120.93 284.325 1127.33 304.328 1133.14C333.571 1141.64 363.437 1147.71 392.907 1155.31C461.672 1173.04 567.055 1105.45 638.625 1107.88C670.677 1108.97 702.875 1106.79 734.649 1102.46C767.816 1097.94 800.498 1090.47 831.972 1079.03C846.027 1073.92 860.365 1068.25 873.6 1061.34C882.825 1056.52 891.738 1051.12 900.916 1046.22C914.336 1039.05 919.494 1060.71 932.327 1052.5C948.055 1042.45 963.892 1033.66 980.888 1026C990.872 1021.5 981.802 747.094 988.115 738.002C992.002 732.404 989.276 731.079 987.863 726.384C987.456 725.035 987.166 722.892 986.717 720.688Z" fill="url(#paint0_linear_189_19)"/>
</g>
<defs>
<linearGradient id="paint0_linear_189_19" x1="461.605" y1="359.04" x2="461.605" y2="630.4" gradientUnits="userSpaceOnUse">
<stop stop-color="#102D52"/>
<stop offset="1" stop-color="#124162"/>
</linearGradient>
<clipPath id="clip0_189_19">
<rect width="1440" height="1024" fill="white"/>
</clipPath>
</defs>
</svg>
