<svg width="958" height="328" viewBox="0 0 958 328" fill="none" xmlns="http://www.w3.org/2000/svg">
<path d="M13.7734 139V50.56H47.9734V81.64H65.0134V50.56H99.2134V139H65.0134V105.16H47.9734V139H13.7734ZM106.476 139L126.036 50.56H185.196L204.636 139H168.876L166.836 125.92H144.276L142.236 139H106.476ZM147.756 104.2H163.356L158.076 70.84H153.036L147.756 104.2ZM223.938 139L210.618 127.6V61.96L223.938 50.56H282.258L295.578 61.96V87.64H260.538V68.92H244.818V120.64H260.778V101.56H295.938V127.6L282.618 139H223.938ZM306.625 139V50.56H340.825V81.88L361.105 50.56H399.985L369.985 91.36L399.145 139H360.745L340.825 101.2V139H306.625Z" fill="#F72585"/>
<path d="M438.939 258L412.339 226.92V193.32H491.019V216.84H531.059V175.4H466.659V130.04H531.059V92.8H491.019V115.76H412.339V82.72L438.939 51.64H584.819L611.419 82.72V130.04L588.459 152.72L611.419 175.12V226.92L584.819 258H438.939ZM639.403 258V205.64H700.443V258H639.403ZM762.214 258L731.134 231.4V78.24L762.214 51.64H899.974L931.054 78.24V231.4L899.974 258H762.214ZM810.934 215.16H851.254V94.48H810.934V215.16Z" fill="#F72585"/>
<path d="M47.5525 257L29.7925 241.8V200.36H75.3925V232.52H94.1125V139.08H139.553V241.8L121.793 257H47.5525ZM155.5 257V139.08H196.78L222.54 196.68V139.08H263.5V257H222.54L196.62 196.84L196.46 257H155.5ZM297.323 257L279.563 241.8V139.08H325.163V232.52H346.443V139.08H392.043V241.8L374.283 257H297.323Z" fill="#F72585"/>
<path d="M20.7734 148V59.56H54.9734V90.64H72.0134V59.56H106.213V148H72.0134V114.16H54.9734V148H20.7734ZM113.476 148L133.036 59.56H192.196L211.636 148H175.876L173.836 134.92H151.276L149.236 148H113.476ZM154.756 113.2H170.356L165.076 79.84H160.036L154.756 113.2ZM230.938 148L217.618 136.6V70.96L230.938 59.56H289.258L302.578 70.96V96.64H267.538V77.92H251.818V129.64H267.778V110.56H302.938V136.6L289.618 148H230.938ZM313.625 148V59.56H347.825V90.88L368.105 59.56H406.985L376.985 100.36L406.145 148H367.745L347.825 110.2V148H313.625Z" fill="#00ADEE"/>
<path d="M446.248 267L419.648 235.92V202.32H498.328V225.84H538.368V184.4H473.968V139.04H538.368V101.8H498.328V124.76H419.648V91.72L446.248 60.64H592.128L618.728 91.72V139.04L595.768 161.72L618.728 184.12V235.92L592.128 267H446.248ZM646.713 267V214.64H707.753V267H646.713ZM769.523 267L738.443 240.4V87.24L769.523 60.64H907.283L938.363 87.24V240.4L907.283 267H769.523ZM818.243 224.16H858.563V103.48H818.243V224.16Z" fill="#00ADEE"/>
<path d="M54.5525 266L36.7925 250.8V209.36H82.3925V241.52H101.113V148.08H146.553V250.8L128.793 266H54.5525ZM162.5 266V148.08H203.78L229.54 205.68V148.08H270.5V266H229.54L203.62 205.84L203.46 266H162.5ZM304.323 266L286.563 250.8V148.08H332.163V241.52H353.443V148.08H399.043V250.8L381.283 266H304.323Z" fill="#00ADEE"/>
<path d="M28.7734 158V69.56H62.9734V100.64H80.0134V69.56H114.213V158H80.0134V124.16H62.9734V158H28.7734ZM121.476 158L141.036 69.56H200.196L219.636 158H183.876L181.836 144.92H159.276L157.236 158H121.476ZM162.756 123.2H178.356L173.076 89.84H168.036L162.756 123.2ZM238.938 158L225.618 146.6V80.96L238.938 69.56H297.258L310.578 80.96V106.64H275.538V87.92H259.818V139.64H275.778V120.56H310.938V146.6L297.618 158H238.938ZM321.625 158V69.56H355.825V100.88L376.105 69.56H414.985L384.985 110.36L414.145 158H375.745L355.825 120.2V158H321.625Z" fill="white"/>
<path d="M454.37 277L427.77 245.92V212.32H506.45V235.84H546.49V194.4H482.09V149.04H546.49V111.8H506.45V134.76H427.77V101.72L454.37 70.64H600.25L626.85 101.72V149.04L603.89 171.72L626.85 194.12V245.92L600.25 277H454.37ZM654.835 277V224.64H715.875V277H654.835ZM777.646 277L746.566 250.4V97.24L777.646 70.64H915.406L946.486 97.24V250.4L915.406 277H777.646ZM826.366 234.16H866.686V113.48H826.366V234.16Z" fill="white"/>
<path d="M62.5525 276L44.7925 260.8V219.36H90.3925V251.52H109.113V158.08H154.553V260.8L136.793 276H62.5525ZM170.5 276V158.08H211.78L237.54 215.68V158.08H278.5V276H237.54L211.62 215.84L211.46 276H170.5ZM312.323 276L294.563 260.8V158.08H340.163V251.52H361.443V158.08H407.043V260.8L389.283 276H312.323Z" fill="white"/>
</svg>
