<svg width="1440" height="1024" viewBox="0 0 1440 1024" fill="none" xmlns="http://www.w3.org/2000/svg">
<g clip-path="url(#clip0_245_324)">
<path d="M673.031 527.139C681.632 525.099 690.172 527.767 698.632 529.611C705.029 531.005 711.162 533.338 717.582 534.626C723.555 535.824 729.673 536.674 735.761 536.703C740.63 536.725 745.516 535.05 750.361 535.554C753.732 535.904 756.522 537.823 759.813 538.446C762.572 538.968 765.938 539.314 768.697 539.285C772.583 539.244 774.702 537.252 778.093 535.724C780.627 534.583 783.805 533.954 786.568 533.666C788.922 533.42 790.907 534.057 792.958 535.175C795.552 536.59 796.421 536.811 799.372 535.64C807.867 532.269 817.499 528.464 824.843 522.625C826.707 524.052 828.364 525.617 830.382 526.811C832.707 528.185 835.115 529.019 837.638 529.883C842.144 531.425 846.336 533.481 850.594 535.677C858.51 539.758 867.26 540.211 875.116 544.258C880.327 546.941 885.283 550.119 890.38 553.029C895.747 556.091 901.073 557.615 907.069 558.678C917.059 560.447 926.989 561.064 936.756 564.173C940.201 565.268 943.562 566.78 946.863 568.297C950.574 570.005 953.644 572.842 957.331 574.538C959.936 575.736 962.979 576.895 965.783 577.382C968.832 577.913 971.932 577.308 974.993 577.62C977.543 577.88 979.985 578.822 982.56 578.556C985.672 578.236 988.94 576.614 991.793 575.31C997.72 572.6 1004.74 567.74 1011.35 568.785C1013.74 569.162 1015.93 569.397 1018.05 570.399C1023.23 572.85 1026.92 577.634 1031.93 580.43C1036.52 582.988 1043.81 585.591 1049.04 585.822C1054.87 586.078 1060.37 579.86 1064.78 576.557C1070.36 572.373 1076.03 568.604 1082.32 565.766C1088.88 562.805 1095.78 561.432 1102.61 559.386C1114.67 555.772 1125.89 549.964 1137.76 545.784C1151.65 540.891 1165.95 537.399 1179.83 532.509C1194.82 527.221 1206.02 514.048 1218.31 503.99C1228.97 495.268 1239.26 485.642 1250.85 478.296C1252.08 477.512 1254.35 475.552 1255.77 475.273C1257.05 475.021 1256.79 475.459 1257.75 475.842C1259.91 476.701 1261.73 478.466 1263.76 479.603C1267.22 481.544 1270.73 483.486 1274.22 485.382C1284.63 491.037 1296.71 492.261 1307.47 497.107C1313.15 499.663 1319.06 501.588 1324.68 504.285C1331.11 507.373 1337.05 511.355 1342.92 515.496C1347.16 518.488 1351.75 520.739 1356.27 523.202C1361.06 525.818 1365.87 528.578 1371.42 528.607C1375.51 528.628 1379.57 527.182 1383.6 526.565C1388.11 525.873 1392.69 525.379 1397.25 525.269C1400.63 525.187 1403.9 525.095 1407.12 526.285C1409.88 527.303 1412.38 528.478 1415.36 528.556C1419.89 528.673 1424.25 526.924 1428.52 525.562C1434.45 523.671 1440.57 522.713 1446.53 520.941C1454.52 518.56 1464.44 515.26 1471.02 522.414C1474.99 526.731 1477.66 532.492 1480.16 537.86C1485.18 548.657 1490.08 559.536 1494.21 570.759C1497.33 579.211 1500.28 587.839 1502.47 596.617C1503.7 601.511 1503.61 606.157 1502.47 610.542C1501.36 614.868 1499.22 618.941 1496.33 622.75C1489.85 631.273 1481.43 636.617 1472.66 642.079C1462.89 648.163 1452.75 653.615 1442.35 658.393C1412.88 671.93 1381.52 680.681 1350.53 689.199C1334.69 693.553 1318.71 697.93 1302.62 701.155C1282 705.288 1261.11 707.477 1240.27 709.787C1208.77 713.281 1177.29 716.816 1145.75 719.87C1073.02 726.913 1000.45 735.502 927.431 738.439C894.698 739.756 861.786 741.529 829.123 738.275C799.422 735.316 769.685 729.33 743.018 714.596C712.855 697.93 682.752 676.561 664.517 645.103C654.794 628.328 653.199 609.784 652.742 590.506C652.523 581.265 654.664 572.526 657.087 563.718C659.437 555.176 661.194 546.412 664.32 538.132C665.21 535.773 666.247 533.41 667.232 531.116C667.436 530.643 667.253 530.131 667.586 529.674C668.691 528.154 671.099 527.622 672.746 527.21C672.841 527.184 672.937 527.161 673.031 527.139Z" fill="url(#paint0_linear_245_324)"/>
<path d="M1502.47 610.542C1501.36 614.868 1499.22 618.941 1496.33 622.75C1489.85 631.273 1481.43 636.617 1472.66 642.079C1462.89 648.163 1452.75 653.615 1442.35 658.393C1412.88 671.93 1381.52 680.681 1350.53 689.199C1334.69 693.553 1318.71 697.93 1302.62 701.155C1282 705.288 1261.11 707.477 1240.27 709.787C1208.77 713.281 1177.29 716.816 1145.75 719.87C1073.02 726.913 1000.45 735.502 927.431 738.439C894.698 739.756 861.786 741.529 829.123 738.275C799.422 735.316 769.685 729.33 743.018 714.596C712.855 697.93 682.752 676.561 664.517 645.103C654.794 628.328 653.199 609.784 652.742 590.506C634.995 629.521 565.9 713.695 431.5 738.275C297.1 762.855 133.833 736.247 69 719.87L-1.5 701.155L-46 689.199V1051.5H1502.47V610.542Z" fill="url(#paint1_linear_245_324)"/>
</g>
<defs>
<linearGradient id="paint0_linear_245_324" x1="1078.04" y1="569.344" x2="1078.04" y2="649.321" gradientUnits="userSpaceOnUse">
<stop stop-color="#4B3567"/>
<stop offset="1" stop-color="#795B8A"/>
</linearGradient>
<linearGradient id="paint1_linear_245_324" x1="1078.04" y1="569.344" x2="1078.04" y2="649.321" gradientUnits="userSpaceOnUse">
<stop stop-color="#4B3567"/>
<stop offset="1" stop-color="#795B8A"/>
</linearGradient>
<clipPath id="clip0_245_324">
<rect width="1440" height="1024" fill="white"/>
</clipPath>
</defs>
</svg>
