<svg width="1801" height="1280" viewBox="0 0 1801 1280" fill="none" xmlns="http://www.w3.org/2000/svg">
<path d="M415.065 388.333V299.893H449.265V330.973H466.305V299.893H500.505V388.333H466.305V354.493H449.265V388.333H415.065ZM507.768 388.333L527.328 299.893H586.488L605.928 388.333H570.168L568.128 375.253H545.568L543.528 388.333H507.768ZM549.048 353.533H564.648L559.368 320.173H554.328L549.048 353.533ZM625.229 388.333L611.909 376.933V311.293L625.229 299.893H683.549L696.869 311.293V336.973H661.829V318.253H646.109V369.973H662.069V350.893H697.229V376.933L683.909 388.333H625.229ZM707.916 388.333V299.893H742.116V331.213L762.396 299.893H801.276L771.276 340.693L800.436 388.333H762.036L742.116 350.533V388.333H707.916Z" fill="#F72585"/>
<path d="M840.234 512L813.634 480.92V447.32H892.314V470.84H932.354V429.4H867.954V384.04H932.354V346.8H892.314V369.76H813.634V336.72L840.234 305.64H986.114L1012.71 336.72V384.04L989.754 406.72L1012.71 429.12V480.92L986.114 512H840.234ZM1040.7 512V459.64H1101.74V512H1040.7ZM1163.51 512L1132.43 485.4V332.24L1163.51 305.64H1301.27L1332.35 332.24V485.4L1301.27 512H1163.51ZM1212.23 469.16H1252.55V348.48H1212.23V469.16Z" fill="#F72585"/>
<path d="M448.844 506.333L431.084 491.133V449.693H476.684V481.853H495.404V388.413H540.844V491.133L523.084 506.333H448.844ZM556.791 506.333V388.413H598.071L623.831 446.013V388.413H664.791V506.333H623.831L597.911 446.173L597.751 506.333H556.791ZM698.614 506.333L680.854 491.133V388.413H726.454V481.853H747.734V388.413H793.334V491.133L775.574 506.333H698.614Z" fill="#F72585"/>
<path d="M423.816 400.333V311.893H458.016V342.973H475.056V311.893H509.256V400.333H475.056V366.493H458.016V400.333H423.816ZM516.518 400.333L536.078 311.893H595.238L614.678 400.333H578.918L576.878 387.253H554.318L552.278 400.333H516.518ZM557.798 365.533H573.398L568.118 332.173H563.078L557.798 365.533ZM633.98 400.333L620.66 388.933V323.293L633.98 311.893H692.3L705.62 323.293V348.973H670.58V330.253H654.86V381.973H670.82V362.893H705.98V388.933L692.66 400.333H633.98ZM716.667 400.333V311.893H750.867V343.213L771.147 311.893H810.027L780.027 352.693L809.187 400.333H770.787L750.867 362.533V400.333H716.667Z" fill="#00ADEE"/>
<path d="M849.372 524L822.772 492.92V459.32H901.452V482.84H941.492V441.4H877.092V396.04H941.492V358.8H901.452V381.76H822.772V348.72L849.372 317.64H995.252L1021.85 348.72V396.04L998.892 418.72L1021.85 441.12V492.92L995.252 524H849.372ZM1049.84 524V471.64H1110.88V524H1049.84ZM1172.65 524L1141.57 497.4V344.24L1172.65 317.64H1310.41L1341.49 344.24V497.4L1310.41 524H1172.65ZM1221.37 481.16H1261.69V360.48H1221.37V481.16Z" fill="#00ADEE"/>
<path d="M457.594 518.333L439.834 503.133V461.693H485.434V493.853H504.154V400.413H549.594V503.133L531.834 518.333H457.594ZM565.542 518.333V400.413H606.822L632.582 458.013V400.413H673.542V518.333H632.582L606.662 458.173L606.502 518.333H565.542ZM707.364 518.333L689.604 503.133V400.413H735.204V493.853H756.484V400.413H802.084V503.133L784.324 518.333H707.364Z" fill="#00ADEE"/>
<path d="M433.816 413.667V325.227H468.016V356.307H485.056V325.227H519.256V413.667H485.056V379.827H468.016V413.667H433.816ZM526.519 413.667L546.079 325.227H605.239L624.679 413.667H588.919L586.879 400.587H564.319L562.279 413.667H526.519ZM567.799 378.867H583.399L578.119 345.507H573.079L567.799 378.867ZM643.98 413.667L630.66 402.267V336.627L643.98 325.227H702.3L715.62 336.627V362.307H680.58V343.587H664.86V395.307H680.82V376.227H715.98V402.267L702.66 413.667H643.98ZM726.668 413.667V325.227H760.868V356.547L781.148 325.227H820.028L790.028 366.027L819.188 413.667H780.788L760.868 375.867V413.667H726.668Z" fill="white"/>
<path d="M859.525 537.333L832.925 506.253V472.653H911.605V496.173H951.645V454.733H887.245V409.373H951.645V372.133H911.605V395.093H832.925V362.053L859.525 330.973H1005.41L1032.01 362.053V409.373L1009.05 432.053L1032.01 454.453V506.253L1005.41 537.333H859.525ZM1059.99 537.333V484.973H1121.03V537.333H1059.99ZM1182.8 537.333L1151.72 510.733V357.573L1182.8 330.973H1320.56L1351.64 357.573V510.733L1320.56 537.333H1182.8ZM1231.52 494.493H1271.84V373.813H1231.52V494.493Z" fill="white"/>
<path d="M467.595 531.667L449.835 516.467V475.027H495.435V507.187H514.155V413.747H559.595V516.467L541.835 531.667H467.595ZM575.543 531.667V413.747H616.823L642.583 471.347V413.747H683.543V531.667H642.583L616.663 471.507L616.503 531.667H575.543ZM717.365 531.667L699.605 516.467V413.747H745.205V507.187H766.485V413.747H812.085V516.467L794.325 531.667H717.365Z" fill="white"/>
</svg>
