<svg width="1440" height="1024" viewBox="0 0 1440 1024" fill="none" xmlns="http://www.w3.org/2000/svg">
<g clip-path="url(#clip0_245_882)">
<path d="M-22.387 587.573C-18.8503 584.118 -13.2055 582.861 -8.74154 581.47C-2.77225 579.611 2.61142 576.33 8.40598 574.009C15.2949 571.249 22.2223 569.248 28.685 565.373C34.3029 562.004 40.2453 559.491 46.0437 556.52C50.7881 554.089 55.3577 551.086 60.413 549.452C62.0719 548.915 64.4028 547.785 66.1385 547.947C66.3439 551.064 67.2674 552.229 69.03 554.607C73.9951 561.308 77.9369 568.246 84.3957 573.465C92.6076 580.098 101.735 585.333 110.454 591.159C117.395 595.798 124.672 599.575 132.332 602.679C136.433 604.342 139.767 606.396 144.188 606.231C148.812 606.057 153.685 604.93 158.231 603.877C160.215 603.419 164.819 601.469 166.823 602.325C168.35 602.976 170.517 606.005 171.752 607.16C181.081 615.893 193.072 622.357 204.764 626.739C216.24 631.04 229.868 630.223 241.841 629.815C257.048 629.295 271.803 624.419 286.896 623.645C289.219 623.526 291.481 622.778 293.754 622.314C296.32 621.789 298.852 621.922 301.373 621.472C304.472 620.921 307.682 619.846 310.871 620.7C311.069 624.72 316.906 630.1 319.548 632.281C324.071 636.013 328.933 639.334 333.633 642.804C338.93 646.715 343.621 651.487 348.29 656.206C356.446 664.445 366.787 670.253 377.511 673.888C382.339 675.525 386.869 675.396 391.795 676.094C395.689 676.647 399.606 677.433 403.521 677.8C405.737 678.007 407.977 678.081 410.174 677.663C412.028 677.311 413.762 676.457 415.715 676.85C417.952 677.3 416.529 677.098 417.765 678.666C418.864 680.059 421.461 681.65 422.874 682.49C426.271 684.509 430.437 686.139 434.07 687.571C439.713 689.795 445.168 692.632 450.582 695.425C462.905 701.786 476.275 706.705 489.744 709.657C502.856 712.53 515.52 714.199 528.914 713.687C536.3 713.405 543.861 711.821 551.065 710.095C558.219 708.381 564.887 705.065 572.074 703.4C576.595 702.351 580.789 702.407 585.109 703.963C586.706 704.539 588.415 705.503 589.966 706.216C595.505 708.762 601.024 710.668 606.782 712.653C615.143 715.532 623.432 717.537 631.951 719.796C642.772 722.666 653.49 726.538 664.412 728.91C683.09 732.965 701.518 738.05 720.526 740.141C736.487 741.896 752.533 741.376 768.551 741.376C775.367 741.376 782.26 741.71 789.068 741.429C793.901 741.231 798.559 740.303 803.403 740.342C807.873 740.379 810.885 741.03 815.079 742.861C818.592 744.395 822.079 745.822 825.781 746.723C829.632 747.661 832.923 749.769 836.636 751.014C843.061 753.168 849.594 754.776 856.236 755.825C858.344 756.159 873.708 759.22 872.535 761.631C867.118 763.23 861.489 764.092 855.977 765.217C843.065 767.853 830.239 770.798 817.277 773.157C800.078 776.288 782.786 778.056 765.378 779.219C723.733 782.002 681.952 782.715 640.243 783.825C609.126 784.652 577.972 785.381 546.895 787.307C523.786 788.738 500.727 790.723 477.646 792.576C428.352 796.537 378.86 799.765 329.432 801.049C305.979 801.659 282.503 801.344 259.074 800.109C234.517 798.814 210.219 795.384 185.906 791.726C153.015 786.78 119.837 783.462 87.2949 776.196C74.5116 773.341 61.9145 769.845 49.3519 766.046C36.7183 762.227 23.0498 758.661 11.5586 751.684C-2.5265 743.131 -16.7134 732.107 -24.4606 716.569C-30.0689 705.319 -33.0603 692.884 -35.4007 680.479C-36.4318 675.015 -37.3995 669.616 -37.3591 664.021C-37.3284 659.714 -36.7063 655.53 -36.1323 651.27C-35.4123 645.925 -34.3735 640.705 -33.5729 635.386C-32.8241 630.405 -32.4516 625.32 -31.5358 620.37C-30.1668 612.979 -25.7278 606.456 -25.5723 598.755C-25.5396 597.156 -25.8468 595.513 -25.6011 593.924C-25.1825 591.198 -24.0055 589.156 -22.387 587.573Z" fill="url(#paint0_linear_245_882)"/>
<path d="M872.535 761.631C867.118 763.23 861.489 764.092 855.977 765.217C843.065 767.853 830.239 770.798 817.277 773.157C800.078 776.288 782.786 778.056 765.378 779.219C723.733 782.002 681.952 782.715 640.243 783.825C609.126 784.652 577.972 785.381 546.895 787.307C523.786 788.738 500.727 790.723 477.646 792.576C428.352 796.537 378.86 799.765 329.432 801.049C305.979 801.659 282.503 801.344 259.074 800.109C234.517 798.814 210.219 795.384 185.906 791.726C153.015 786.78 119.837 783.462 87.2949 776.196C74.5116 773.341 61.9145 769.845 49.3519 766.046C36.7183 762.227 23.0498 758.661 11.5586 751.684C-2.5265 743.131 -16.7134 732.107 -24.4606 716.569C-30.0689 705.319 -33.0603 692.884 -35.4007 680.479V1045.5H1463V920L1421.5 904.5L1383 887L1299.5 869.5L1191.5 842L1113.5 828L1017.5 801.049L952 773.157L872.535 761.631Z" fill="url(#paint1_linear_245_882)"/>
</g>
<defs>
<linearGradient id="paint0_linear_245_882" x1="417.619" y1="733.184" x2="417.619" y2="532.144" gradientUnits="userSpaceOnUse">
<stop stop-color="#3A2259"/>
<stop offset="1" stop-color="#230F38"/>
</linearGradient>
<linearGradient id="paint1_linear_245_882" x1="417.619" y1="733.184" x2="417.619" y2="532.144" gradientUnits="userSpaceOnUse">
<stop stop-color="#3A2259"/>
<stop offset="1" stop-color="#230F38"/>
</linearGradient>
<clipPath id="clip0_245_882">
<rect width="1440" height="1024" fill="white"/>
</clipPath>
</defs>
</svg>
