<svg width="1440" height="1024" viewBox="0 0 1440 1024" fill="none" xmlns="http://www.w3.org/2000/svg">
<g clip-path="url(#clip0_245_696)">
<path d="M-19.8389 359.645C-17.8459 358.689 -15.7896 357.988 -13.8043 356.899C-11.5829 355.682 -9.86642 353.718 -7.5893 352.522C-1.34546 349.243 5.79886 349.147 12.4344 347.298C21.2107 344.854 29.9102 345.633 38.6558 343.71C44.2411 342.481 48.588 338.864 52.9886 335.26C58.9502 330.377 65.7317 326.627 71.4782 321.491C76.1342 317.329 79.5883 313.928 85.8264 313.321C91.4366 312.777 97.2734 310.2 101.471 306.239C105.729 302.223 110.583 297.378 115.886 295.084C121.755 292.546 126.553 292.755 131.943 288.694C139.594 282.927 146.779 277.26 154.875 272.157C160.286 268.747 164.844 264.419 170.558 261.503C176.222 258.611 181.412 254.169 186.753 250.61C193.469 246.135 200.101 242.096 206.36 236.886C218.329 226.924 232.044 218.751 244.902 210.211C250.835 206.27 256.386 201.582 262.81 198.527C268.858 195.651 274.655 195.203 280.009 190.556C284.316 186.818 288.665 183.161 292.992 179.448C295.03 177.699 297.579 173.027 300.861 173.986C302.112 174.352 303.184 175.765 304.086 176.714C308.024 180.855 311.899 185.217 315.817 189.44C320.84 194.851 326.245 200.513 332.74 203.878C338.086 206.647 343.92 208.621 349.471 210.884C357.474 214.145 362.573 220.088 368.827 225.927C375.762 232.405 383.695 237.857 391.093 243.71C397.149 248.502 401.83 253.542 406.075 260.084C409.577 265.482 412.954 269.392 418.493 272.333C422.452 274.434 425.883 277.352 430.105 278.87C436.029 281.002 438.77 286.151 443.912 289.581C450.062 293.685 456.878 290.49 463.456 290.06C465.99 289.894 468.857 290.703 471.324 289.929C473.82 289.147 477.842 285.716 479.711 283.717C483.057 280.136 483.808 276.144 488.585 279.478C491.937 281.817 494.199 282.528 498.15 283.576C504.861 285.358 510.79 288.268 517.75 289.446C524.02 290.507 530.149 292.18 536.416 293.267C542.362 294.3 548.424 293.321 554.272 294.433C558.621 295.26 563.484 297.41 567.134 300.052C573.253 304.482 575.755 302.43 582.494 300.646C586.146 299.682 587.845 300.259 591.472 300.941C595.135 301.629 599.033 301.492 602.784 302.119C605.225 302.526 607.26 302.279 609.641 302.379C612.995 302.522 616.1 303.686 619.46 303.853C625.477 304.152 631.926 304.284 637.915 303.479C651.952 301.59 666.265 302.418 680.412 302.418C685.992 302.418 691.834 302.95 697.402 302.457C700.699 302.164 703.715 301.021 706.574 303.173C708.515 304.634 711.128 308.666 712.843 310.548C717.664 315.842 723.923 319.883 729.503 324.231C735.001 328.515 740.746 333.031 746.838 336.306C753.938 340.124 762.091 343.13 769.556 346.175C778.737 349.919 786.749 348.674 795.967 346.452C799.01 345.719 800.781 344.787 803.841 344.748C805.945 344.721 808.05 344.744 810.154 344.744C819.168 344.744 828.78 343.759 837.666 345.362C842.118 346.165 846.306 349.034 850.848 349.008C858.281 348.965 865.842 345.127 872.462 342.157C876.717 340.248 881.125 339.216 885.46 337.592C888.697 336.38 891.856 334.67 895.158 333.681C898.432 332.7 901.811 332.648 905.062 331.647C907.684 330.838 910.054 329.41 912.699 328.655C917.344 327.33 920.566 324.87 924.749 322.384C928.253 320.303 934.979 314.511 939.32 316.328C941.707 317.327 943.945 320.993 945.936 322.775C957.368 333.007 973.295 338.358 986.98 343.581C1007.2 351.295 1028.95 356.458 1047.83 367.614C1057.99 373.617 1065.77 380.115 1069.6 391.856C1073.49 403.765 1080.45 416.516 1080.27 429.425C1080.24 431.531 1080 433.588 1079.61 435.605C1078.6 440.751 1076.58 445.634 1074.5 450.4C1066.7 468.214 1052.48 483.156 1039.27 496.523C1019.14 516.905 993.282 534.925 967.087 544.932C933.487 557.767 898.052 563.849 862.464 565.463C834.014 566.753 805.469 566.167 777.015 567.32C727.03 569.344 677.348 574.998 627.664 580.848C454.605 601.221 279.086 615.149 105.969 587.7C86.2449 584.573 66.4113 580.905 47.2056 574.99C21.9173 567.202 -3.45362 553.478 -24.4085 536.518C-35.796 527.3 -46.0047 516.415 -51.421 501.891C-52.6361 498.631 -53.6783 495.329 -54.5602 491.991C-57.5256 480.768 -58.6782 469.141 -58.4962 457.363C-58.2408 440.824 -57.5055 423.512 -54.5602 407.239C-52.6786 396.843 -46.0123 388.086 -38.82 381.307C-36.1263 378.769 -33.3327 376.353 -30.6831 373.76C-29.5963 372.697 -26.8239 370.655 -26.3227 368.994C-26.0251 368.011 -26.6242 367.21 -26.4629 366.315C-26.0347 363.915 -24.6235 362.666 -22.7285 361.31C-21.7877 360.647 -20.82 360.114 -19.8389 359.645Z" fill="url(#paint0_linear_245_696)"/>
<path d="M1079.61 435.605C1078.6 440.751 1076.58 445.634 1074.5 450.4C1066.7 468.214 1052.48 483.156 1039.27 496.523C1019.14 516.905 993.282 534.925 967.087 544.932C933.487 557.767 898.052 563.849 862.464 565.463C834.014 566.753 805.469 566.167 777.015 567.32C727.03 569.344 677.348 574.998 627.664 580.848C454.605 601.221 279.086 615.149 105.969 587.7C86.2449 584.573 66.4113 580.905 47.2056 574.99C21.9173 567.202 -3.45362 553.478 -24.4085 536.518C-35.796 527.3 -46.0047 516.415 -51.421 501.891C-52.6361 498.631 -53.6783 495.329 -54.5602 491.991V1070.5H1506.5V605L1419.5 587.7H1254C1233.5 583.464 1180.1 568.979 1130.5 544.932C1084.23 522.499 1077.16 466.188 1079.61 435.605Z" fill="url(#paint1_linear_245_696)"/>
</g>
<defs>
<linearGradient id="paint0_linear_245_696" x1="510.883" y1="139.264" x2="510.883" y2="505.999" gradientUnits="userSpaceOnUse">
<stop stop-color="#715B8F"/>
<stop offset="1" stop-color="#BC83A5"/>
</linearGradient>
<linearGradient id="paint1_linear_245_696" x1="510.883" y1="139.264" x2="510.883" y2="505.999" gradientUnits="userSpaceOnUse">
<stop stop-color="#715B8F"/>
<stop offset="1" stop-color="#BC83A5"/>
</linearGradient>
<clipPath id="clip0_245_696">
<rect width="1440" height="1024" fill="white"/>
</clipPath>
</defs>
</svg>
