<svg width="1440" height="1024" viewBox="0 0 1440 1024" fill="none" xmlns="http://www.w3.org/2000/svg">
<g clip-path="url(#clip0_245_448)">
<path d="M986.717 700.467C985.889 696.127 984.522 691.56 980.888 691.658C978.908 691.712 977.796 692.986 975.644 692.42C972.572 691.613 969.277 689.117 966.49 687.536C953.497 680.165 941.748 669.003 927.419 665.325C923.236 664.252 920.559 661.616 917.119 659.038C913.476 656.31 909.291 656.171 905.566 653.94C902.223 651.938 899.332 647.612 896.386 644.815C892.41 641.036 888.056 637.757 884.156 633.86C880.834 630.54 877.394 628.002 873.6 625.318C869.948 622.735 866.795 618.913 863.08 616.683C860.198 614.955 855.982 614.744 853.405 612.182C851.503 610.289 850.746 607.207 849.026 605.085C846.67 602.179 844.65 601.903 841.538 600.559C834.753 597.631 830.532 590.182 825.028 585.351C819.836 580.796 813.464 577.409 808.577 572.485C803.142 567.009 798.223 560.619 792.927 554.934C788.012 549.654 783.095 544.925 778.571 539.242C776.402 536.518 773.514 532.818 769.897 533.108C767.649 533.289 766.425 534.54 764.482 535.552C760.975 537.378 758.06 540.41 754.913 543.056C752.626 544.979 751.592 545.945 749.092 544.448C747.41 543.441 745.664 541.204 744.246 539.84C737.531 533.393 730.001 527.806 722.711 522.125C715.484 516.493 709.561 509.554 703.041 503.07C694.04 494.117 684.893 485.654 676.397 476.123C672.42 471.66 668.262 467.292 664.433 462.694C660.178 457.588 656.667 451.778 652.149 446.931C647.178 441.596 641.23 439.06 635.528 434.958C629.528 430.643 625.547 424.827 620.519 419.467C616.591 415.281 611.12 412.219 607.678 407.685C603.865 402.661 600.695 397.738 595.914 393.562C590.843 389.13 586.095 384.798 581.416 379.904C578.623 376.981 576.466 373.635 573.763 370.718C570.706 367.419 568.646 363.581 566.434 359.497C563.604 354.273 559.964 349.444 556.844 344.4C552.662 337.637 548.363 330.95 544.324 324.085C542.544 321.061 540.676 317.608 538.264 315.109C536.615 313.401 534.804 312.989 532.875 311.806C530.135 310.126 527.998 307.208 525.59 305.047C524.254 303.849 523.365 302.078 522.265 300.646C520.859 298.817 519.487 298.096 517.421 297.461C515.514 296.876 514.258 295.737 512.655 297.21C511.544 298.231 510.847 299.428 509.541 300.286C508.882 300.718 508.316 300.972 507.778 301.504C506.868 302.407 506.081 303.474 505.056 304.24C504.109 304.949 503.36 304.869 502.316 305.133C501.049 305.453 499.891 306.518 498.8 307.243C497.474 308.123 496.143 308.994 494.809 309.86C489.659 313.202 484.466 316.465 479.332 319.834C473.827 323.446 468.697 327.667 463.158 331.223C460.76 332.763 458.058 333.809 455.695 335.356C455.259 335.64 454.946 335.909 454.665 336.367C454.168 337.18 454.088 337.961 453.289 338.569C452.477 339.183 451.204 339.54 450.209 339.462C446.728 339.187 443.512 335.376 442.061 332.263C441.06 330.121 440.001 329.822 437.894 329.087C436.174 328.487 434.513 327.59 432.985 328.808C432.121 329.498 431.451 330.401 430.596 331.114C428.874 332.55 427.722 334.203 426.201 335.827C423.654 338.548 420.747 340.727 417.579 342.538C414.927 344.053 412.276 345.421 409.561 346.724C406.781 348.057 405.352 351.439 402.616 352.702C401.51 353.212 400.366 353.218 399.266 353.841C391.928 357.994 385.19 364.851 377.533 368.271C369.394 371.906 360.386 373.457 352.122 376.936C347.46 378.898 341.837 379.222 337.401 381.284C332.361 383.627 327.767 389.269 322.794 392.28C320.279 393.801 317.917 395.614 314.888 395.561C310.765 395.489 309.312 392.724 305.664 391.522C300.534 389.832 296.421 392.896 291.926 395.215C284.01 399.296 277.684 401.977 268.763 401.5C261.627 401.117 254.11 400.115 247.075 398.559C244.969 398.092 243.053 397.295 240.862 397.598C234.367 398.493 229.496 405.567 224.45 409.352C205.674 423.432 179.314 424.077 157.453 427.26C141.396 429.596 125.268 431.196 109.29 434.129C96.0671 436.555 82.9995 440.334 69.6613 441.913C46.5637 444.645 24.4645 450.939 1.77777 455.932C-5.77743 457.595 -13.4882 459.339 -20.8725 461.723C-28.0725 464.048 -34.2875 467.923 -41.1765 470.937C-47.8504 473.858 -56.0757 474.241 -61.9586 478.671C-71.0939 485.548 -65.2859 494.667 -62.5768 503.392C-58.9576 515.051 -60.5934 529.197 -59.6277 541.378C-58.1896 559.511 -56.5384 578.16 -52.1762 595.814C-48.7662 609.613 -43.8222 625.565 -35.5874 636.831C-28.3029 646.799 -20.2427 654.139 -10.4949 661.164C24.4798 686.373 67.0674 696.744 106.46 711.655C156.061 730.431 204.929 751.108 255.03 768.389C274.846 775.225 294.703 782.047 314.705 788.248C343.949 797.313 373.814 803.79 403.284 811.896C472.049 830.81 539.804 854.818 611.374 857.405C643.426 858.564 675.625 856.248 707.399 851.628C740.565 846.805 773.247 838.834 804.722 826.634C818.776 821.186 833.115 815.136 846.349 807.76C855.575 802.619 864.488 796.86 873.665 791.632C887.086 783.984 900.578 777.035 913.411 768.284C929.14 757.559 944.976 748.181 961.972 740.016C971.956 735.219 981.802 728.633 988.115 718.936C988.81 717.867 989.294 716.945 989.612 716.121C991.069 712.343 989.023 710.655 987.863 706.543C987.456 705.104 987.166 702.818 986.717 700.467Z" fill="url(#paint0_linear_245_448)"/>
<path d="M-59.6277 541.378C-60.5934 529.197 -58.9576 515.051 -62.5768 503.392V1033.5L1454.5 1042V843.5L1423 807.76L1176 782C1150.67 774.333 1089.7 760.857 1048.5 768.284C1012.36 774.799 995.312 740.6 989.612 716.121C989.294 716.945 988.81 717.867 988.115 718.936C981.802 728.633 971.956 735.219 961.972 740.016C944.976 748.181 929.14 757.559 913.411 768.284C900.578 777.035 887.086 783.984 873.665 791.632C864.488 796.86 855.575 802.619 846.349 807.76C833.115 815.136 818.776 821.186 804.722 826.634C773.247 838.834 740.565 846.805 707.399 851.628C675.625 856.248 643.426 858.564 611.374 857.405C539.804 854.818 472.049 830.81 403.284 811.896C373.814 803.79 343.949 797.313 314.705 788.248C294.703 782.047 274.846 775.225 255.03 768.389C204.929 751.108 156.061 730.431 106.46 711.655C67.0674 696.744 24.4798 686.373 -10.4949 661.164C-20.2427 654.139 -28.3029 646.799 -35.5874 636.831C-43.8222 625.565 -48.7662 609.613 -52.1762 595.814C-56.5384 578.16 -58.1896 559.511 -59.6277 541.378Z" fill="url(#paint1_linear_245_448)"/>
</g>
<defs>
<linearGradient id="paint0_linear_245_448" x1="461.605" y1="314.709" x2="461.605" y2="604.16" gradientUnits="userSpaceOnUse">
<stop stop-color="#432C60"/>
<stop offset="1" stop-color="#674C7C"/>
</linearGradient>
<linearGradient id="paint1_linear_245_448" x1="461.605" y1="314.709" x2="461.605" y2="604.16" gradientUnits="userSpaceOnUse">
<stop stop-color="#432C60"/>
<stop offset="1" stop-color="#674C7C"/>
</linearGradient>
<clipPath id="clip0_245_448">
<rect width="1440" height="1024" fill="white"/>
</clipPath>
</defs>
</svg>
