<svg width="1440" height="1024" viewBox="0 0 1440 1024" fill="none" xmlns="http://www.w3.org/2000/svg">
<g clip-path="url(#clip0_245_572)">
<path d="M695.106 440.389C696.634 440.009 698.241 439.181 699.879 438.651C701.933 437.983 704.45 436.058 706.463 434.885C711.391 432.013 716.381 428.925 721.569 426.697C726.018 424.788 729.579 421.714 733.642 419.115C742.263 413.604 750.208 405.213 757.727 397.992C767.058 389.032 778.257 382.167 787.513 373.117C791.081 369.627 794.389 365.816 798.651 363.858C800.656 362.938 803.369 361.865 805.402 362.086C807.666 362.332 810.194 363.663 812.446 364.194C817.03 365.273 821.497 365.386 826.238 365.234C832.804 365.025 836.347 356.768 839.749 351.472C843.533 345.581 851.313 349.501 857.054 350.374C862.265 351.166 866.736 351.457 871.385 353.97C874.509 355.658 876.688 357.591 879.387 359.827C882.24 362.191 886.219 366.01 890.036 365.959C891.435 365.941 892.741 365.115 894.123 364.935C896.658 364.605 899.248 365.162 901.805 364.994C907.235 364.636 912.557 362.961 917.666 361.046C923.056 359.027 926.984 355.789 931.54 352.285C939.136 346.444 946.937 342.129 954.304 335.815C960.008 330.926 966.578 326.769 971.561 321.024C976.357 315.492 982.478 311.204 986.308 304.783C996.4 287.867 1013.2 275.878 1026.77 262.132C1033.74 255.072 1039.78 247.015 1046.49 239.692C1051.07 234.686 1056.18 230.275 1060.65 225.182C1065.98 219.089 1071.85 213.197 1077.89 207.827C1081.58 204.548 1084.73 203.547 1088.69 200.804C1092.8 197.96 1096.6 193.663 1100.63 190.458C1108.76 183.988 1114.12 175.43 1121.37 168.29C1124.6 165.108 1128.51 163.824 1131.36 160.291C1135.66 154.978 1139.77 149.549 1144.31 144.357C1150.62 137.157 1158.37 130.66 1164.04 122.98C1170.97 113.602 1177.37 104.362 1183.1 94.2489C1188.46 84.7892 1194.51 74.7048 1200.47 65.7407C1204.35 66.4432 1210.11 75.9643 1212.53 78.8664C1213.69 80.2447 1214.49 82.3029 1215.73 83.5133C1217.45 85.1906 1219.37 85.1783 1220.96 87.2079C1223.38 90.3147 1224.69 94.9759 1227.25 97.882C1231.7 102.912 1236.68 95.4654 1240.27 92.2521C1244.44 88.5227 1248.46 84.5987 1252.64 80.8734C1254.37 79.3251 1255.72 77.4696 1257.64 76.1261C1259.17 75.0509 1260.69 76.1138 1261.97 74.0781C1273.83 79.0486 1277.45 91.2854 1286.3 100.346C1293.17 107.381 1299.59 112.71 1304.54 121.557C1309.78 130.937 1314.74 140.495 1319.79 149.989C1322.58 155.216 1325.22 160.639 1328.33 165.652C1328.31 165.62 1330.24 167.156 1330.2 167.045C1331.64 170.576 1331.94 175.989 1332.82 179.925C1335.36 191.281 1340.43 203.823 1345.4 214.129C1349.03 221.651 1352.52 230.554 1357.34 237.259C1360.67 241.887 1365.44 245.119 1368.67 249.835C1373.15 256.362 1375.37 264.223 1380.48 270.428C1384.54 275.364 1389.54 278.905 1392.53 284.705C1395.27 290.038 1397.18 289.409 1401.66 285.2C1405.04 282.024 1407.88 277.903 1411.16 274.424C1413.39 272.048 1418.04 264.628 1420.98 264.307C1426.69 263.684 1425.55 269.037 1426.65 273.537C1429.03 283.23 1436.04 293.773 1440.82 302.334C1451.08 320.678 1461.43 339.024 1469.76 358.482C1482.06 387.217 1488.37 418.736 1499.33 448.074C1504.24 461.203 1510.02 475.371 1518.05 486.781C1525.98 498.057 1536.44 507.027 1544.8 517.988C1555.08 531.483 1566.66 548.456 1580.1 558.838C1584.89 562.532 1590.78 564.197 1595.67 567.744C1600.86 571.507 1605.78 576.047 1610.64 580.272C1616.3 585.187 1621.01 590.854 1626.29 596.175C1630.26 600.166 1635.18 602.409 1639.34 606.089C1645.34 611.393 1653.43 621.642 1650.93 630.561C1644.73 632.058 1636.73 631.419 1630.33 632.273C1614.59 634.372 1599.36 636.098 1584.07 640.973C1552.11 651.161 1522.23 667.246 1492.25 682.594C1441.82 708.413 1390.51 733.215 1336.56 749.4C1280.6 766.183 1223.98 775.041 1166.01 777.414C1110.27 779.696 1054.65 774.717 999.032 771.166C954.565 768.326 911.227 762.351 867.888 751.173C866.554 750.829 865.218 750.487 863.883 750.145C844.359 745.148 824.769 740.356 805.556 734.101C805.421 734.058 805.286 734.014 805.152 733.97C797.008 731.32 789.125 728.755 781.869 723.972C773.718 718.598 765.543 721.813 756.765 719.898C754.906 719.493 752.034 718.148 750.104 717.13C747.147 715.567 743.968 714.811 740.831 713.75C735.804 712.051 731.008 710.175 725.845 708.933C722.193 708.055 718.51 707.578 714.943 706.285C711.18 704.921 708.137 703.097 704.193 702.517C698.176 701.632 692.627 699.847 686.767 698.028C680.043 695.941 673.423 695.318 666.561 693.889C652.534 690.966 637.517 693.328 623.273 691.867C622.697 691.808 622.12 691.749 621.543 691.69C609.472 690.451 597.019 689.172 584.953 688.828C568.478 688.357 552.87 684.874 536.723 681.703C518.539 678.132 500.562 674.117 482.111 672.352C471.691 671.355 461.288 670.515 450.874 669.389C413.772 665.375 376.914 662.808 339.648 661.186C309.852 659.89 280.322 656.361 250.695 652.896C224.953 649.888 199.193 648.829 173.494 645.472C163.204 644.129 152.856 643.314 142.706 640.997C133.727 638.947 125.073 635.799 116.216 633.237C91.0891 625.971 65.6126 619.913 41.5358 609.024C19.621 599.112 -3.04656 585.797 -19.6853 567.511C-32.413 553.525 -38.1979 537.319 -40.9627 518.306C-44.5627 493.558 -41.9419 467.714 -39.7032 442.95C-38.8507 433.514 -38.3362 423.788 -36.5429 414.476C-35.7442 410.333 -34.7726 405.854 -32.0405 402.573C-28.3752 398.174 -20.5531 395.913 -15.8875 393.384C-9.38639 389.859 -3.01583 385.966 3.33553 382.14C15.107 375.05 26.9323 368.058 38.677 360.919C47.1941 355.742 54.4267 349.206 62.4005 343.226C67.3752 339.495 72.4882 336.642 77.747 333.494C88.597 326.998 98.7787 319.324 109.128 311.984C113.874 308.619 118.38 305.265 122.829 301.498C124.242 300.302 126.027 298.754 127.732 297.929C129.568 297.04 129.547 296.647 131.313 298.375C133.588 300.603 135.138 303.69 137.217 306.129C140.151 309.572 143.282 312.168 146.884 314.696C150.367 317.139 153.762 320.111 157.598 321.862C162.415 324.063 167.536 324.499 172.541 325.927C175.763 326.846 179.156 328.323 182.189 329.742C185.131 331.116 183.491 330.119 185.889 328.587C189.297 326.41 193.306 332.323 195.723 333.797C202.691 338.053 208.271 343.533 214.754 348.567C227.856 358.74 240.909 369.023 254.687 378.2C262.745 383.568 270.995 389.101 279.322 393.986C286.57 398.238 294.528 399.217 302.145 402.286C309.712 405.336 314.448 412.41 322.789 413.571C330.667 414.667 338.362 412.301 346.317 413.727C357.205 415.676 367.396 419.039 377.885 422.525C388.292 425.982 397.07 430.305 408.135 430.199C422.028 430.068 435.666 427.854 449.474 430.829C466.184 434.43 482.055 441.743 498.684 445.802C533.755 454.361 569.227 462.227 605.346 456.139C615.76 454.384 628.102 450.632 637.074 444.404C641.678 441.209 645.195 436.193 649.976 433.357C655.51 430.074 662.456 433.922 668.189 435.181C671.179 435.839 674.589 435.558 677.467 436.445C679.496 437.07 681.984 438.895 683.801 439.929C684.893 440.551 686.026 441.928 687.428 441.809C688.555 441.715 688.434 440.58 689.386 440.422C691.195 440.134 693.334 440.834 695.106 440.389Z" fill="url(#paint0_linear_245_572)"/>
<path d="M1650.93 630.561C1644.73 632.058 1636.73 631.419 1630.33 632.273C1614.59 634.372 1599.36 636.098 1584.07 640.973C1552.11 651.161 1522.23 667.246 1492.25 682.594C1441.82 708.413 1390.51 733.215 1336.56 749.4C1280.6 766.183 1223.98 775.041 1166.01 777.414C1110.27 779.696 1054.65 774.717 999.032 771.166C954.565 768.326 911.227 762.351 867.888 751.173C866.554 750.829 865.218 750.487 863.883 750.145C844.359 745.148 824.769 740.356 805.556 734.101L805.152 733.97C797.008 731.32 789.125 728.755 781.869 723.972C773.718 718.598 765.543 721.813 756.765 719.898C754.906 719.493 752.034 718.148 750.104 717.13C747.147 715.567 743.968 714.811 740.831 713.75C735.804 712.051 731.008 710.175 725.845 708.933C722.193 708.055 718.51 707.578 714.943 706.285C711.18 704.921 708.137 703.097 704.193 702.517C698.176 701.632 692.627 699.847 686.767 698.028C680.043 695.941 673.423 695.318 666.561 693.889C652.534 690.966 637.517 693.328 623.273 691.867L621.543 691.69C609.472 690.451 597.019 689.172 584.953 688.828C568.478 688.357 552.87 684.874 536.723 681.703C518.539 678.132 500.562 674.117 482.111 672.352C471.691 671.355 461.288 670.515 450.874 669.389C413.772 665.375 376.914 662.808 339.648 661.186C309.852 659.89 280.322 656.361 250.695 652.896C224.953 649.888 199.193 648.829 173.494 645.472C163.204 644.129 152.856 643.314 142.706 640.997C133.727 638.947 125.073 635.799 116.216 633.237C91.0891 625.971 65.6126 619.913 41.5358 609.024C19.621 599.112 -3.04656 585.797 -19.6853 567.511C-32.413 553.525 -38.1979 537.319 -40.9627 518.306V1058.5H1650.93V630.561Z" fill="url(#paint1_linear_245_572)"/>
</g>
<defs>
<linearGradient id="paint0_linear_245_572" x1="804.328" y1="486.263" x2="804.328" y2="203.32" gradientUnits="userSpaceOnUse">
<stop stop-color="#956E9A"/>
<stop offset="1" stop-color="#644D7F"/>
</linearGradient>
<linearGradient id="paint1_linear_245_572" x1="804.328" y1="486.263" x2="804.328" y2="203.32" gradientUnits="userSpaceOnUse">
<stop stop-color="#956E9A"/>
<stop offset="1" stop-color="#644D7F"/>
</linearGradient>
<clipPath id="clip0_245_572">
<rect width="1440" height="1024" fill="white"/>
</clipPath>
</defs>
</svg>
