<svg width="1440" height="1024" viewBox="0 0 1440 1024" fill="none" xmlns="http://www.w3.org/2000/svg">
<g clip-path="url(#clip0_245_634)">
<path d="M816.257 407.032C815.558 406.682 814.823 406.389 814.051 406.161C809.694 404.881 803.255 406.425 798.687 406.284C789.083 405.987 780.845 399.147 771.677 396.597C765.006 394.742 758.085 393.925 751.507 391.747C746.409 390.06 741.613 387.441 736.94 384.715C729.148 380.172 722.4 373.506 712.994 375.056C708.891 375.732 704.914 377.016 700.84 375.501C696.697 373.959 695.683 370.594 693.475 366.793C689.46 359.885 680.102 361.134 673.344 361.14C665.537 361.146 658.005 362.594 650.246 362.496C647.706 362.463 644.993 362.164 642.491 362.742C638.922 363.565 635.539 366.246 632.44 368.204C623.408 373.911 614.634 380.154 605.727 386.044C598.721 390.676 592.026 397.046 584.622 400.851C580.531 402.954 576.222 401.572 571.906 402.395C567.308 403.274 562.456 402.919 558.341 405.201C555.957 406.524 554.434 408.035 551.422 407.644C545.906 406.927 541.87 401.336 536.475 399.636C526.625 396.534 515.399 400.679 505.918 396.96C500.398 394.795 495.938 390.431 491.301 386.728C484.658 381.424 477.417 377.098 469.415 374.659C462.614 372.586 455.491 371.763 448.869 369.045C442.782 366.547 437.028 363.329 431.301 360.042C426.316 357.181 421.132 356.333 415.998 354.04C414.048 353.167 412.264 351.908 410.302 351.035C406.773 349.467 403.023 348.785 399.454 347.308C386.642 342.008 376.798 331.889 365.497 324.049C361.117 321.012 357.684 317.632 354.495 313.284C352.853 311.046 350.885 307.48 348.418 306.637C347.706 314.436 338.665 320.907 332.795 324.03C320.935 330.34 308.772 336.083 296.697 341.916C281.074 349.464 266.281 360.489 248.941 363.198C241.119 364.421 235.25 363.495 227.683 361.982C218.064 360.059 208.347 359.397 198.624 360.72C191.748 361.656 184.997 362.85 178.064 361.976C170.1 360.97 162.946 357.72 155.14 356.323C147.675 354.988 140.008 356.133 132.616 357.589C127.614 358.574 122.628 360.108 117.707 361.496C112.274 363.028 104.78 366.254 98.8969 365.181C94.6595 364.409 91.8256 361.181 88.1756 359.135C84.4374 357.04 80.847 356.782 76.696 356.938C69.2099 357.22 61.9254 359.135 54.3913 358.349C44.8009 357.347 35.2528 349.522 28.12 343.325C11.9728 329.298 -5.76035 320.737 -25.2291 313.571C-29.0077 312.181 -35.0557 308.464 -38.7555 311.855C-40.9079 313.827 -43.4634 324.276 -43.5536 324.594C-47.768 339.231 -51.4122 354.068 -55.4615 368.761C-61.6362 391.16 -68.0951 413.573 -73.0813 436.322C-75.6511 448.049 -78.2236 461.038 -73.0813 471.9C-72.0879 473.998 -70.8066 476.017 -69.1818 477.931C-64.833 483.056 -58.0861 486.148 -52.2435 488.264C-43.4115 491.463 -33.8922 493.935 -24.8874 496.195C6.29533 504.025 37.7257 511.007 69.3347 516.555C107.23 523.205 145.251 529.678 183.239 535.691C222.758 541.948 263.235 547.281 303.158 549.501C385.891 554.099 469.186 548.721 551.529 540.029C602.97 534.6 653.992 525.525 705.855 527.985C718.431 528.58 730.971 529.75 743.539 530.467C757.981 531.292 769.92 526.578 782.016 518.291C792.526 511.091 801.375 501.467 808.277 490.381C813.006 482.785 815.767 474.593 818.878 466.178C820.773 461.054 824.094 456.268 825.344 450.951C826.719 445.106 828.341 439.484 828.219 433.402C828.034 424.491 824.862 411.347 816.257 407.032Z" fill="url(#paint0_linear_245_634)"/>
<path d="M-69.1818 477.931C-70.8066 476.017 -72.0879 473.998 -73.0813 471.9V1050.5H1468.5V662.5L1353.5 629.5L1151.5 595L1031.5 540.029C1001.33 532.783 931.6 518.291 894 518.291C856.4 518.291 834.479 461.698 828.219 433.402C828.341 439.484 826.719 445.106 825.344 450.951C824.094 456.268 820.773 461.054 818.878 466.178C815.767 474.593 813.006 482.785 808.277 490.381C801.375 501.467 792.526 511.091 782.016 518.291C769.92 526.578 757.981 531.292 743.539 530.467C730.971 529.75 718.431 528.58 705.855 527.985C653.992 525.525 602.97 534.6 551.529 540.029C469.186 548.721 385.891 554.099 303.158 549.501C263.235 547.281 222.758 541.948 183.239 535.691C145.251 529.678 107.23 523.205 69.3347 516.555C37.7257 511.007 6.29533 504.025 -24.8874 496.195C-33.8922 493.935 -43.4115 491.463 -52.2435 488.264C-58.0861 486.148 -64.833 483.056 -69.1818 477.931Z" fill="url(#paint1_linear_245_634)"/>
</g>
<defs>
<linearGradient id="paint0_linear_245_634" x1="376.085" y1="306.636" x2="376.085" y2="428.158" gradientUnits="userSpaceOnUse">
<stop stop-color="#6B5487"/>
<stop offset="1" stop-color="#A979A0"/>
</linearGradient>
<linearGradient id="paint1_linear_245_634" x1="376.085" y1="306.636" x2="376.085" y2="428.158" gradientUnits="userSpaceOnUse">
<stop stop-color="#6B5487"/>
<stop offset="1" stop-color="#A979A0"/>
</linearGradient>
<clipPath id="clip0_245_634">
<rect width="1440" height="1024" fill="white"/>
</clipPath>
</defs>
</svg>
