<svg width="1440" height="1024" viewBox="0 0 1440 1024" fill="none" xmlns="http://www.w3.org/2000/svg">
<path d="M254.773 385.267V296.827H288.973V327.907H306.013V296.827H340.213V385.267H306.013V351.427H288.973V385.267H254.773ZM347.476 385.267L367.036 296.827H426.196L445.636 385.267H409.876L407.836 372.187H385.276L383.236 385.267H347.476ZM388.756 350.467H404.356L399.076 317.107H394.036L388.756 350.467ZM464.938 385.267L451.618 373.867V308.227L464.938 296.827H523.258L536.578 308.227V333.907H501.538V315.187H485.818V366.907H501.778V347.827H536.938V373.867L523.618 385.267H464.938ZM547.625 385.267V296.827H581.825V328.147L602.105 296.827H640.985L610.985 337.627L640.145 385.267H601.745L581.825 347.467V385.267H547.625Z" fill="#F72585"/>
<path d="M679.939 504.8L653.339 473.72V440.12H732.019V463.64H772.059V422.2H707.659V376.84H772.059V339.6H732.019V362.56H653.339V329.52L679.939 298.44H825.819L852.419 329.52V376.84L829.459 399.52L852.419 421.92V473.72L825.819 504.8H679.939ZM880.403 504.8V452.44H941.443V504.8H880.403ZM1003.21 504.8L972.134 478.2V325.04L1003.21 298.44H1140.97L1172.05 325.04V478.2L1140.97 504.8H1003.21ZM1051.93 461.96H1092.25V341.28H1051.93V461.96Z" fill="#F72585"/>
<path d="M288.553 503.067L270.793 487.867V446.427H316.393V478.587H335.113V385.147H380.553V487.867L362.793 503.067H288.553ZM396.5 503.067V385.147H437.78L463.54 442.747V385.147H504.5V503.067H463.54L437.62 442.907L437.46 503.067H396.5ZM538.323 503.067L520.563 487.867V385.147H566.163V478.587H587.443V385.147H633.043V487.867L615.283 503.067H538.323Z" fill="#F72585"/>
<path d="M261.773 394.867V306.427H295.973V337.507H313.013V306.427H347.213V394.867H313.013V361.027H295.973V394.867H261.773ZM354.476 394.867L374.036 306.427H433.196L452.636 394.867H416.876L414.836 381.787H392.276L390.236 394.867H354.476ZM395.756 360.067H411.356L406.076 326.707H401.036L395.756 360.067ZM471.938 394.867L458.618 383.467V317.827L471.938 306.427H530.258L543.578 317.827V343.507H508.538V324.787H492.818V376.507H508.778V357.427H543.938V383.467L530.618 394.867H471.938ZM554.625 394.867V306.427H588.825V337.747L609.105 306.427H647.985L617.985 347.227L647.145 394.867H608.745L588.825 357.067V394.867H554.625Z" fill="#00ADEE"/>
<path d="M687.248 514.4L660.648 483.32V449.72H739.328V473.24H779.368V431.8H714.968V386.44H779.368V349.2H739.328V372.16H660.648V339.12L687.248 308.04H833.128L859.728 339.12V386.44L836.768 409.12L859.728 431.52V483.32L833.128 514.4H687.248ZM887.713 514.4V462.04H948.753V514.4H887.713ZM1010.52 514.4L979.443 487.8V334.64L1010.52 308.04H1148.28L1179.36 334.64V487.8L1148.28 514.4H1010.52ZM1059.24 471.56H1099.56V350.88H1059.24V471.56Z" fill="#00ADEE"/>
<path d="M295.553 512.667L277.793 497.467V456.027H323.393V488.187H342.113V394.747H387.553V497.467L369.793 512.667H295.553ZM403.5 512.667V394.747H444.78L470.54 452.347V394.747H511.5V512.667H470.54L444.62 452.507L444.46 512.667H403.5ZM545.323 512.667L527.563 497.467V394.747H573.163V488.187H594.443V394.747H640.043V497.467L622.283 512.667H545.323Z" fill="#00ADEE"/>
<path d="M269.773 405.534V317.094H303.973V348.174H321.013V317.094H355.213V405.534H321.013V371.694H303.973V405.534H269.773ZM362.476 405.534L382.036 317.094H441.196L460.636 405.534H424.876L422.836 392.454H400.276L398.236 405.534H362.476ZM403.756 370.734H419.356L414.076 337.374H409.036L403.756 370.734ZM479.938 405.534L466.618 394.134V328.494L479.938 317.094H538.258L551.578 328.494V354.174H516.538V335.454H500.818V387.174H516.778V368.094H551.938V394.134L538.618 405.534H479.938ZM562.625 405.534V317.094H596.825V348.414L617.105 317.094H655.985L625.985 357.894L655.145 405.534H616.745L596.825 367.734V405.534H562.625Z" fill="white"/>
<path d="M695.37 525.067L668.77 493.987V460.387H747.45V483.907H787.49V442.467H723.09V397.107H787.49V359.867H747.45V382.827H668.77V349.787L695.37 318.707H841.25L867.85 349.787V397.107L844.89 419.787L867.85 442.187V493.987L841.25 525.067H695.37ZM895.835 525.067V472.707H956.875V525.067H895.835ZM1018.65 525.067L987.566 498.467V345.307L1018.65 318.707H1156.41L1187.49 345.307V498.467L1156.41 525.067H1018.65ZM1067.37 482.227H1107.69V361.547H1067.37V482.227Z" fill="white"/>
<path d="M303.553 523.333L285.793 508.133V466.693H331.393V498.853H350.113V405.413H395.553V508.133L377.793 523.333H303.553ZM411.5 523.333V405.413H452.78L478.54 463.013V405.413H519.5V523.333H478.54L452.62 463.173L452.46 523.333H411.5ZM553.323 523.333L535.563 508.133V405.413H581.163V498.853H602.443V405.413H648.043V508.133L630.283 523.333H553.323Z" fill="white"/>
</svg>
