<svg width="1440" height="1024" viewBox="0 0 1440 1024" fill="none" xmlns="http://www.w3.org/2000/svg">
<g clip-path="url(#clip0_245_76)">
<path d="M-24.4266 481.78C-22.6026 479.928 -20.8055 478.034 -19.0179 476.084C-18.776 476.234 -18.394 476.506 -18.1232 476.613C-16.6871 475.64 -15.3757 474.472 -14.0912 473.276C-5.33795 465.132 1.85629 454.916 11.0358 447.33C16.7651 442.597 22.6595 437.277 28.5519 432.849C30.2588 431.567 32.4496 430.184 34.5519 429.945C39.2636 429.406 42.856 433.756 47.0377 435.278C51.1715 436.779 55.5663 436.892 59.5407 434.776C70.2524 429.074 80.6089 420.792 89.9133 412.785C106.734 398.307 123.561 383.967 138.616 367.331C143.03 362.453 148.552 352.463 155.034 350.419C169.15 372.189 190.141 387.572 209.105 404.859C230.553 424.413 255.481 439.353 276.58 459.219C297.588 479.001 320.302 496.458 340.633 517.087C362.041 538.81 382.462 560.699 405.724 580.227C422.642 594.428 440.893 612.399 462.265 618.789C468.357 620.61 474.293 620.593 480.516 620.626C481.561 620.632 482.605 620.614 483.648 620.564C484.537 620.521 485.47 620.343 486.357 620.429C486.965 620.489 487.516 620.734 488.137 620.663C488.609 620.608 489.052 620.407 489.521 620.335C489.963 620.268 490.412 620.331 490.85 620.247C491.295 620.161 491.646 619.96 492.055 619.786C492.954 619.401 493.816 619.065 494.63 618.57C495.327 618.144 496.103 617.935 496.809 617.554C497.558 617.148 498.251 616.653 499.017 616.26C499.313 616.108 499.664 616.004 499.977 615.883C500.501 615.678 500.688 615.512 501.118 615.172C502.775 613.859 504.318 612.475 506.129 611.353C507.849 610.288 509.744 609.673 511.428 608.528C512.306 607.93 513.035 607.197 513.849 606.515C514.521 605.952 515.241 605.596 516.002 605.198C516.56 604.905 517.004 604.684 517.388 604.168C517.582 603.908 517.568 603.769 517.858 603.589C518.678 603.079 519.705 604.623 520.235 605.233C525.024 610.75 530.38 615.567 535.833 620.321C536.849 621.208 537.755 622.127 538.636 623.153C539.537 624.2 540.729 624.88 541.73 625.801C542.876 626.858 544.133 627.735 545.389 628.642C549.031 631.269 552.764 633.75 556.564 636.109C564.205 640.856 572.108 645.112 580.116 649.107C595.968 657.019 612.244 663.908 628.149 671.693C659.756 687.159 692.115 698.945 725.827 707.862C739.697 711.533 752.407 715.524 766.725 717.005C785.312 718.926 804.459 717.466 823.079 716.45C843.726 715.323 864.629 711.516 885.035 708.151C910.095 704.018 934.696 699.658 959.389 693.516C998.26 683.85 1037.67 677.212 1076.62 668.025C1087.84 665.379 1099.22 664.889 1110.55 662.962C1117.79 661.731 1123.84 662.094 1130.94 663.747C1135.14 664.725 1139.22 666.999 1143.19 668.862C1150.03 672.065 1156.84 675.099 1163.85 677.9C1172.63 681.404 1182.18 684.489 1191.23 686.922C1198.73 688.937 1203.62 691.888 1210.69 694.956C1212.75 695.845 1232.34 698.847 1228.54 704.176C1228.4 704.373 1220.85 706.224 1219.94 706.64C1209.95 711.191 1199.5 714.596 1189.4 718.854C1126.77 745.241 1060.92 764.529 995.919 782.911C940.709 798.525 884.714 809.566 828.616 820.824C776.44 831.296 724.11 842.471 671.462 849.859C620.215 857.049 568.953 858.413 517.326 858.251C458.885 858.067 400.978 857.016 342.62 853.004C306.687 850.534 271.213 847.639 235.171 847.79C207.196 847.907 179.22 847.741 151.246 847.997C135.617 848.14 119.973 847.219 104.467 845.101C91.8947 843.385 78.998 841.605 67.5011 835.607C58.6691 830.999 51.2733 827.742 41.2125 827.423C34.7459 827.218 29.7904 824.934 23.5485 823.763C17.2489 822.581 10.7574 823.304 4.40411 823.308C-3.20676 823.31 -10.1476 823.478 -17.6183 824.9C-28.641 826.999 -40.8387 825.299 -51.9997 825.348C-79.473 825.471 -106.128 818.072 -132.371 809.923C-149.104 804.727 -166.374 803.774 -183.366 799.621C-203.161 794.782 -222.196 786.631 -241.972 781.556C-250.053 779.481 -258.142 777.724 -265.947 774.619C-269.626 773.155 -276.78 771.256 -279.76 768.018C-284.744 762.604 -275.659 756.771 -272.489 752.949C-260.604 738.617 -245.927 727.067 -234.181 712.526C-216.354 690.455 -205.033 662.204 -192.246 636.694C-178.683 609.638 -161.098 585.368 -149.52 557.222C-146.994 551.078 -144.588 545.497 -143.874 538.78C-143.643 536.613 -144.601 534.911 -142.649 533.223C-140.16 534.745 -138.258 537.074 -135.737 538.581C-128.99 542.62 -120.405 544.682 -112.764 544.917C-99.4928 545.327 -89.4205 543.398 -78.8336 534.493C-63.6637 521.734 -51.2893 505.891 -36.2576 492.878C-32.1104 489.279 -28.2128 485.622 -24.4266 481.78Z" fill="url(#paint0_linear_245_76)"/>
<path d="M1228.54 704.176C1228.4 704.373 1220.85 706.224 1219.94 706.64C1209.95 711.191 1199.5 714.596 1189.4 718.854C1126.77 745.241 1060.92 764.529 995.919 782.911C940.709 798.525 884.714 809.566 828.616 820.824C776.44 831.296 724.11 842.471 671.462 849.859C620.215 857.049 568.953 858.413 517.326 858.251C458.885 858.067 400.978 857.016 342.62 853.004C306.687 850.534 271.213 847.639 235.171 847.79C207.196 847.907 179.22 847.741 151.246 847.997C135.617 848.14 119.973 847.219 104.467 845.101C91.8947 843.385 78.998 841.605 67.5011 835.607C58.6691 830.999 51.2733 827.742 41.2125 827.423C34.7459 827.218 29.7904 824.934 23.5485 823.763C17.2489 822.581 10.7574 823.304 4.40411 823.308C-3.20676 823.31 -10.1476 823.478 -17.6183 824.9C-28.641 826.999 -40.8387 825.299 -51.9997 825.348C-79.473 825.471 -106.128 818.072 -132.371 809.923C-149.104 804.727 -166.374 803.774 -183.366 799.621C-203.161 794.782 -222.196 786.631 -241.972 781.556C-250.053 779.481 -258.142 777.724 -265.947 774.619C-269.626 773.155 -276.78 771.256 -279.76 768.018V1051H1476.5V823.763L1427.5 799.621L1339.5 768.018L1290.5 731L1228.54 704.176Z" fill="url(#paint1_linear_245_76)"/>
</g>
<defs>
<linearGradient id="paint0_linear_245_76" x1="473.907" y1="650.24" x2="473.907" y2="448.501" gradientUnits="userSpaceOnUse">
<stop stop-color="#472F64"/>
<stop offset="1" stop-color="#2F1949"/>
</linearGradient>
<linearGradient id="paint1_linear_245_76" x1="473.907" y1="650.24" x2="473.907" y2="448.501" gradientUnits="userSpaceOnUse">
<stop stop-color="#472F64"/>
<stop offset="1" stop-color="#2F1949"/>
</linearGradient>
<clipPath id="clip0_245_76">
<rect width="1440" height="1024" fill="white"/>
</clipPath>
</defs>
</svg>
