<svg width="1440" height="1024" viewBox="0 0 1440 1024" fill="none" xmlns="http://www.w3.org/2000/svg">
<g clip-path="url(#clip0_245_758)">
<path d="M1404.56 88.0516C1404.54 84.8281 1404.97 80.6932 1406.38 77.7973C1406.81 76.9044 1406.82 76.7303 1407.56 76.036C1408.57 75.0775 1410.09 75.311 1411.01 74.5205C1412.15 73.5334 1413.14 71.2212 1413.19 69.7077C1413.26 67.9587 1411.58 66.2404 1412.09 64.4382C1412.38 63.4347 1413.11 63.2503 1413.59 62.425C1415.23 59.6336 1418.12 55.8407 1415.8 52.6806C1415.11 51.7303 1413.9 51.0525 1413.1 50.2087C1412.04 49.1007 1411.41 47.7552 1410.27 46.8254C1407.72 44.7631 1404.55 43.2639 1402.24 40.9415C1400.27 38.957 1398.73 36.5526 1396.66 34.6132C1394.71 32.7945 1393.13 30.8919 1391.71 28.5736C1389.12 24.3506 1387.73 24.6312 1383.33 25.0572C1380.35 25.346 1377.8 23.6994 1375.63 21.5695C1370.49 16.5252 1366.49 11.5814 1359.35 9.89585C1354.49 8.75102 1347.62 10.371 1343.09 12.4477C1339.56 14.0656 1336.28 16.3122 1332.93 18.3008C1329.56 20.3058 1326.39 21.9627 1324.19 25.5303C1320.53 31.4695 1321.02 38.1316 1320.94 44.8777C1320.89 49.7499 1322.9 54.4644 1321.78 59.439C1320.64 64.5426 1317.87 65.0198 1314.01 66.7668C1312.3 67.5368 1310.36 68.8393 1309 70.1501C1307.64 71.4669 1307.15 73.2118 1306.01 74.7519C1305.17 75.8988 1303.91 77.6478 1302.69 78.342C1300.73 79.4439 1297.61 78.0983 1295.62 77.3672C1291.94 76.0155 1288.88 74.6188 1284.92 74.6495C1281.21 74.6782 1278.34 75.6448 1274.96 77.3058C1270.61 79.4459 1266.05 81.5308 1262.43 84.8997C1259.56 87.5826 1257.45 90.1508 1255.52 93.659C1253.59 97.1918 1252.2 101.224 1249.97 104.532C1246.75 109.324 1241.2 112.74 1235.6 112.779C1231.64 112.808 1228.12 111.438 1224.61 109.658C1221.93 108.298 1219.75 107.432 1216.78 107.989C1212.13 108.863 1207.62 109.185 1202.93 109.777C1194.08 110.893 1186.21 115.13 1177.56 117.158C1170.62 118.786 1163.69 119.939 1156.66 120.988C1151.58 121.745 1146.25 123.943 1141.53 126.081C1135.81 128.674 1130.42 130.4 1124.3 131.631C1113.84 133.734 1103.26 135.205 1092.77 137.22C1086.28 138.467 1079.77 139.463 1073.4 141.322C1066.31 143.393 1059.24 143.915 1052 144.982C1042.01 146.454 1032.43 150.122 1022.41 151.421C1009.86 153.047 996.826 148.752 984.495 147.032C973.668 145.521 963.103 144.392 952.199 144.388C948.835 144.386 945.446 144.2 942.09 144.46C938.279 144.755 934.7 146.082 930.875 145.84C923 145.344 915.051 144.828 907.206 143.853C905.284 143.614 894.716 142.637 895.713 146.905C896.277 149.326 902.436 150.469 904.249 151.038C909.016 152.533 913.73 153.887 918.649 154.669C927.391 156.06 935.852 154.655 944.663 154.616C952.979 154.579 960.57 156.983 968.749 158.001C981.606 159.598 994.207 158.036 1007.05 157.62C1013.91 157.399 1020.66 158.613 1027.5 158.773C1033.79 158.921 1040.11 158.718 1046.4 158.72C1051.93 158.722 1057.63 158.232 1063.13 158.927C1064.65 159.119 1070.01 159.429 1070.44 161.767C1070.81 163.752 1066.2 165.011 1065.07 165.423C1059.91 167.307 1054.51 166.719 1049.17 167.463C1042.19 168.436 1035.65 169.822 1029.23 172.929C1026.17 174.412 1019.27 175.868 1017.76 179.243C1018.64 182.755 1026.09 181.266 1028.16 181.254C1036.36 181.203 1044.54 181.526 1052.71 180.658C1065.55 179.294 1078.41 178.647 1091.29 177.918C1103.58 177.224 1115.85 175.97 1128.14 175.282C1156.01 173.719 1184.29 177.539 1212.02 173.574C1226.16 171.553 1238.59 164.387 1252.43 161.325C1262.15 159.173 1271.36 159.758 1281.17 160.764C1288.54 161.52 1295.98 161.755 1303.25 163.338C1309.65 164.733 1315.59 164.858 1322.12 164.884C1327.98 164.909 1333.69 163.993 1339.51 163.791C1344.23 163.627 1349.99 162.912 1354.27 165.37C1357.06 166.973 1358.07 169.214 1357.43 172.554C1356.83 175.755 1354.79 178.717 1351.51 178.833C1347.92 178.962 1343.95 177.818 1340.38 177.406C1338.06 177.138 1335.77 176.916 1333.46 176.593C1332.12 176.404 1330.24 175.716 1329.09 176.851C1329.95 177.963 1332.08 179.417 1333.26 180.199C1337.36 182.905 1343.04 183.984 1347.69 184.643C1355.78 185.792 1363.7 184.324 1371.77 183.556C1376.94 183.062 1383.07 181.727 1388.28 182.401C1391.23 182.78 1394.13 183.585 1397.06 184.072C1404.03 185.233 1411.01 186.624 1418.08 186.438C1426.09 186.227 1434.15 185.002 1442.12 184.066C1451.08 183.013 1460.13 182.684 1469.06 181.293C1480.38 179.53 1491.45 176.06 1502.8 174.594C1513.2 173.248 1524.21 173.713 1534.64 174.6C1546.44 175.602 1558.01 174.811 1569.65 172.456C1575.37 171.297 1581.09 169.466 1586.93 169.06C1592.31 168.688 1597.72 168.919 1603.1 168.96C1612.36 169.032 1620.86 168.143 1629.97 166.369C1638.76 164.659 1647.72 164.258 1656.6 163.299C1664.03 162.496 1671.89 161.7 1679.35 161.751C1686.41 161.798 1693.61 162.251 1700.63 161.278C1703.42 160.891 1706.17 160.688 1708.98 160.762C1710.23 160.795 1712.92 161.503 1713.35 159.762C1712.8 158.591 1710.8 157.811 1709.74 157.133C1705.89 154.655 1702.13 153.643 1697.8 152.549C1692.67 151.255 1687.47 150.266 1682.37 148.892C1677.47 147.575 1672.83 145.668 1667.83 144.837C1663.99 144.195 1657.66 145.858 1654.64 142.815C1653.23 141.388 1652.33 139.2 1651.23 137.472C1649.81 135.217 1647.79 134.123 1646.31 132.145C1644.82 130.144 1645.08 127.16 1644.32 124.85C1643.64 122.771 1642.58 121.995 1640.93 120.811C1638.76 119.259 1636.4 118.137 1634.17 116.715C1631.82 115.222 1629.95 115.093 1627.38 114.436C1624.39 113.672 1621.68 112.087 1618.61 111.616C1614.57 110.995 1605.65 109.885 1603.84 105.044C1602.98 102.734 1604.46 99.5552 1604.89 97.1263C1605.52 93.5894 1606.51 89.4893 1606.08 85.9196C1605.5 81.1171 1603.04 77.1133 1601.08 72.9845C1599.37 69.3964 1597.19 66.1401 1595.72 62.4148C1594.38 59.0253 1593.18 56.3076 1591.24 53.1844C1589.9 51.0176 1588.05 48.9615 1586.84 46.7209C1585.09 43.4974 1585.12 39.5755 1583.06 36.4768C1581.09 33.5298 1577.27 31.4797 1574.31 29.7225C1569.34 26.7693 1563.97 24.0578 1558.82 21.4548C1550.66 17.3362 1542.19 13.486 1533.18 16.4454C1528.2 18.0838 1522.35 21.8685 1518.52 25.6327C1515.54 28.5634 1514.16 32.1576 1512.08 35.7928C1509.52 40.2841 1506.42 44.3985 1503.33 48.4781C1501.87 50.393 1498.91 55.7547 1496.58 56.2544C1493.13 56.9978 1491.25 51.5665 1487.99 50.8456C1486.68 50.5548 1485.51 51.1323 1484.17 51.2265C1482.76 51.3248 1481.27 51.1876 1479.86 51.1917C1477.84 51.1979 1477.45 51.0176 1476.49 53.1619C1475.58 55.171 1474.83 57.1514 1474.38 59.3284C1472.69 58.9168 1471.33 56.1417 1470.19 54.7696C1467.54 51.587 1465.02 51.3269 1461.4 50.18C1454.75 48.0767 1447 46.2724 1440.89 50.5425C1436.68 53.4855 1433.74 57.0633 1431 61.5116C1429.07 64.6594 1429.63 67.0514 1429.5 70.5638C1429.4 73.3777 1428.06 76.1527 1427.29 78.8663C1426.81 80.5662 1425.8 84.5004 1424.44 85.8275C1422.56 87.6605 1418.33 87.6256 1415.99 89.0818C1415.53 89.3705 1415.17 89.3521 1414.76 89.7986C1414.36 90.2409 1414.35 91.2588 1414.02 91.566C1413.05 92.4569 1411.7 92.1435 1410.27 92.1517C1405.69 92.1845 1404.58 90.4764 1404.56 88.0516Z" fill="url(#paint0_linear_245_758)"/>
<path d="M-14.2497 161.208C-12.226 159.582 -10.2119 157.915 -8.28421 156.244C-2.61255 151.329 3.52762 146.952 9.48538 142.387C14.5139 138.535 15.7273 134.658 18.5689 129.03C19.744 126.704 20.5849 124.961 22.2879 123.124C23.2787 122.057 24.6169 121.196 25.5385 120.013C27.9577 116.9 28.7103 112.722 31.0047 109.498C32.9554 106.758 34.7776 104.606 36.4364 101.593C42.2176 91.0929 51.2454 82.4606 62.6598 80.1976C75.1417 77.7236 86.1779 83.8533 98.5945 83.6587C103.74 83.5768 108.92 83.1938 113.983 84.3161C119.989 85.6473 126.146 89.6532 131.296 93.186C137.334 97.3291 144.813 102.377 147.935 109.509C151.274 117.137 152.896 126.618 153.745 134.932C154.616 143.475 156.175 151.382 156.162 160.01C156.156 163.254 156.123 166.502 156.152 169.744C156.185 173.478 156.966 174.541 158.443 177.842C160.305 182.006 160.296 187.077 163.817 190.192C168.035 193.921 174.114 195.584 179.482 195.649C182.846 195.69 185.365 194.742 188.543 193.821C191.352 193.006 192.15 192.987 194.575 194.828C196.745 196.477 198.461 198.363 200.318 200.378C201.814 202.002 204.075 203.205 205.183 205.078C207.616 209.197 207.29 215.278 207.334 219.855C207.403 227.195 211.352 232.825 214.793 238.842C217.623 243.794 217.323 248.801 218.727 254.23C220.201 259.938 222.859 265.419 226.543 269.885C233.148 277.889 243.261 277.268 250.918 282.954C258.425 288.528 267.272 291.543 276.423 292.319C282.077 292.798 288.817 291.838 294.459 290.916C299.624 290.075 304.733 287.762 308.865 284.42C317.242 277.647 321.712 267.557 331.558 263.113C339.973 259.312 348.244 255.513 355.857 250.046C359.206 247.642 362.454 244.457 366.114 242.555C369.178 240.961 373.035 240.507 376.324 239.649C385.043 237.373 392.712 232.366 401.325 229.624C405.643 228.25 410.207 227.791 414.705 228.381C419.248 228.977 421.544 231.248 424.816 234.496C427.241 236.904 429.808 238.492 432.419 240.54C435.656 243.077 436.851 249.364 438.404 253.147C439.732 256.379 440.904 259.809 443.1 262.515C445.965 266.043 448.426 268.057 450.847 272.04C455.58 279.835 462.505 283.677 471.076 284.365C474.573 284.645 478.044 285.1 481.329 286.48C484.438 287.785 486.719 290.247 490.088 290.949C499.922 292.999 509.659 288.629 518.533 295.559C522.02 298.283 524.641 300.831 528.682 302.768C534.694 305.65 539.924 306.26 546.465 306.201C552.771 306.143 559.625 305.261 565.878 306.411C570.363 307.237 574.649 309.477 579.161 310.163C583.039 310.753 585.499 310.718 589.03 312.832C592.706 315.032 595.788 318.902 598.897 321.9C602.195 325.083 603.733 326.054 607.711 327.639C612.212 329.431 614.666 333.834 618.868 336.259C624.938 339.761 631.45 335.763 637.721 336.447C642.049 336.921 646.163 337.975 650.239 339.442C654.089 340.826 658.054 343.028 661.959 344.097C667.156 345.52 672.555 346.606 677.857 347.541C681.833 348.244 687.672 347.828 691.181 350.169C691.256 353.438 684.287 354.714 682.123 355.361C672.828 358.14 662.005 359.098 652.432 359.793C637.195 360.899 621.973 362.246 606.694 362.246C582.248 362.246 557.734 360.432 533.309 359.453C503.709 358.267 474.146 356.569 444.532 355.668C406.29 354.507 368.067 354.642 329.83 353.759C291.51 352.874 253.473 349.415 215.094 349.757C175.759 350.11 136.708 351.463 97.383 349.546C67.9321 348.111 38.4236 347.455 8.99579 345.696C-18.5159 344.052 -45.7607 339.597 -73.1956 337.113C-111.165 333.674 -149.65 333.486 -187.745 333.476C-201.025 333.472 -214.306 333.441 -227.587 333.472C-239.333 333.498 -251.214 333.822 -262.867 331.839C-270.284 330.578 -277.484 328.356 -284.949 327.268C-289.576 326.595 -293.729 326.818 -298.154 325.312C-285.402 323.359 -273.701 317.319 -261.189 314.364C-253.712 312.596 -246.698 310.428 -239.435 307.837C-234.047 305.916 -227.827 304.497 -223.313 300.622C-216.481 294.756 -215.176 286.45 -210.305 279.376C-206.146 273.338 -198.443 271.118 -194.478 264.946C-191.646 260.538 -190.12 255.128 -189.123 249.948C-187.082 239.35 -184.475 229.62 -179.07 220.258C-172.051 208.099 -164.513 197.323 -152.096 191.293C-144.769 187.736 -136.438 186.333 -128.616 184.537C-122.709 183.181 -117.505 183.075 -111.519 184.564C-102.727 186.751 -93.3402 187.982 -85.1629 192.17C-79.3319 195.156 -74.5492 200.528 -68.2247 202.154C-64.9588 202.994 -61.2628 204.032 -57.8605 203.563C-55.2205 203.198 -49.3953 202.451 -47.2103 200.833C-45.4957 199.563 -44.7815 197.126 -43.8733 195.269C-42.4852 192.426 -41.673 191.054 -39.6359 188.668C-35.2007 183.478 -32.2612 177.541 -28.185 172.184C-27.1847 170.869 -26.0807 169.646 -24.8058 168.63C-22.6593 166.916 -20.1383 165.822 -17.9648 164.133C-16.7322 163.185 -15.49 162.204 -14.2497 161.208Z" fill="url(#paint1_linear_245_758)"/>
<path d="M-35.0741 129.954C-33.8511 129.62 -32.6357 129.288 -31.6008 128.715C-27.5016 126.454 -22.8418 125.659 -18.1666 126.12C-3.06003 127.605 9.10123 136.042 21.1108 145.332C30.1233 152.303 36.54 163.469 39.3969 174.78C41.1902 181.881 41.6049 189.37 42.0715 196.702C42.2981 200.257 41.3745 203.389 41.2267 206.893C41.1096 209.645 41.2824 212.486 41.2805 215.245C41.2766 220.813 40.9982 226.453 41.2344 232.014C41.4168 236.31 41.8161 241.223 44.7134 244.367C46.4529 246.255 48.3115 248.764 50.3563 250.28C53.4034 252.541 57.6446 254.14 60.9912 256.002C65.7816 258.666 71.7144 260.909 77.1556 261.212C81.1723 261.435 82.6584 259.576 85.6593 257.003C89.052 254.095 91.5345 253.505 95.9332 254.189C101.342 255.031 106.438 256.008 111.428 252.975C114.287 251.236 116.155 248.486 119.027 246.763C122.717 244.549 126.327 242.759 130.522 241.899C135.253 240.929 142.027 237.975 146.759 239.986C152.364 242.366 156.951 247.173 161.81 250.827C176.182 261.636 170.281 282.874 175.11 298.129C176.71 303.184 180.699 306.149 184.518 309.25C190.182 313.848 196.524 318.544 203.096 321.456C208.157 323.698 214.336 322.556 219.672 322.562C224.633 322.568 229.197 322.535 234.096 323.359C237.591 323.944 241.175 322.998 244.631 323.514C248.89 324.151 252.12 327.639 254.208 331.462C256.896 336.382 258.882 342.036 260.988 347.269C263.177 352.708 261.94 357.075 256.877 359.944C248.904 364.462 238.789 361.914 230.276 361.609C211.302 360.933 192.431 359.7 173.444 361.005C146.932 362.828 120.649 365.668 94.0478 365.662C61.5461 365.654 29.4667 362.944 -2.79504 358.881C-28.3694 355.662 -53.4908 349.022 -78.4546 342.436C-99.0351 337.006 -120.232 336.781 -141.271 335.272C-159.832 333.941 -178.164 330.666 -196.696 329.091C-213.281 327.682 -229.658 324.54 -246.272 323.529C-263.237 322.494 -280.009 322.99 -296.918 325.046C-303.44 325.839 -309.782 327.305 -316.239 328.522C-321.776 329.738 -327.371 330.367 -333.024 330.412C-335.936 330.959 -338.713 330.694 -341.351 329.615C-330.593 325.927 -318.024 323.316 -309.623 314.814C-304.275 309.403 -302.041 303.311 -300.407 295.93C-299.998 294.08 -299.122 292.825 -297.982 291.381C-294.169 286.558 -291.306 281.422 -288.278 275.962C-286.508 272.771 -285.056 269.895 -284.131 266.322C-283.071 262.23 -282.835 258.048 -281.303 254.089C-280.644 252.385 -279.84 250.061 -278.538 248.76C-276.441 246.669 -272.676 246.108 -270.213 244.668C-267.588 243.134 -265.04 241.416 -262.978 239.098C-259.482 235.163 -258.51 230.916 -257.205 225.771C-254.146 213.719 -247.881 202.516 -238.855 194.343C-234.695 190.574 -230.115 187.851 -224.711 186.689C-217.996 185.248 -210.14 184.76 -203.314 184.455C-183.427 183.566 -167.498 199.229 -147.968 200.542C-143.84 200.821 -136.901 200.261 -135.763 195.164C-135.118 192.276 -135.302 189.282 -134.538 186.39C-133.403 182.1 -130.707 179.231 -127.804 176.156C-124.055 172.185 -120.08 169.005 -115.877 165.617C-112.757 163.102 -109.946 160.166 -106.688 157.847C-104.507 156.295 -102.629 154.859 -101.015 152.602C-98.5704 149.186 -96.7119 147.194 -93.1618 145.09C-90.5602 143.548 -88.0143 141.809 -84.8885 142.371C-81.9836 142.891 -80.1077 145.168 -77.844 146.913C-73.643 150.151 -69.6879 146.159 -65.2642 144.849C-62.2747 143.964 -59.4312 143.724 -56.4207 142.618C-54.1992 141.803 -51.6034 141.678 -49.4895 140.581C-47.7404 139.673 -46.6805 137.961 -44.9295 137.156C-44.148 136.798 -43.3935 137.077 -42.6197 136.448C-41.6213 135.635 -41.4485 134.185 -40.7688 133.134C-39.4805 131.152 -37.2629 130.55 -35.0741 129.954Z" fill="url(#paint2_linear_245_758)"/>
<path d="M804.872 276.076C804.465 276.283 803.975 276.177 803.347 275.503C802.276 274.352 802.593 273.025 802.28 271.491C802.142 270.813 801.681 270.348 801.679 269.717C801.679 269.105 802.23 268.218 802.266 267.471C802.359 265.582 802.841 264.012 802.956 262.193C803.144 259.229 802.981 250.56 798.824 251.244C795.85 251.734 790.775 254.783 788.85 250.624C787.563 247.847 790.735 243.843 788.452 241.322C787.546 240.32 786.098 239.663 785.081 238.756C783.644 237.474 782.761 236.935 781.026 236.357C779.874 235.974 778.576 235.292 777.372 235.19C776.204 235.092 775.091 235.643 773.956 235.817C772.159 236.095 771.491 236.818 770.137 237.998C767.476 240.316 763.89 241.076 760.81 242.477C759.107 243.251 757.256 243.153 755.49 243.628C753.637 244.125 752.656 245.36 751.496 246.892C750.048 248.805 748.798 250.718 748.274 253.145C747.522 256.635 747.466 260.354 747.111 263.903C746.817 266.821 746.686 268.239 743.674 268.202C740.832 268.165 736.324 267.27 733.861 269.052C731.839 270.514 730.057 272.541 728.258 274.295C726.636 275.874 724.664 276.973 723.078 278.64C720.603 281.241 719.017 284.291 718.195 287.895C717.305 291.805 717.418 295.366 713.975 297.937C712.347 299.151 710.203 299.612 708.259 299.778C705.733 299.993 704.007 299.02 701.634 298.508C699.948 298.143 697.632 298.062 695.958 298.459C693.395 299.065 691.425 301.236 688.921 302.117C685.557 303.298 682 303.274 678.57 304.05C675.66 304.709 673.072 305.75 670.309 306.864C666.857 308.259 663.278 307.902 659.68 307.935C658.403 307.945 657.272 307.914 656.072 308.469C654.922 309.002 654.271 309.911 653.05 310.216C650.41 310.872 647.589 309.399 644.992 309.35C642.594 309.303 640.238 310.124 637.836 310.202C635.384 310.282 632.97 309.973 630.521 310.309C626.855 310.812 623.307 311.666 619.914 313.141C616.449 314.646 610.883 314.21 607.317 313.733C601.845 313.002 596.49 311.023 590.98 310.29C587.607 309.842 584.105 310.169 580.716 310.151C577.398 310.132 574.234 310.057 570.97 310.808C563.607 312.502 556.345 315.162 548.874 316.324C544.912 316.938 541.212 316.53 537.251 316.231C531.487 315.795 525.715 315.957 519.94 315.519C509.081 314.693 498.336 314.587 487.456 314.581C479.891 314.577 472.43 314.306 464.878 313.97C458.21 313.676 451.408 314.841 444.828 315.84C441.118 316.403 437.754 317.186 434.191 318.433C431.011 319.545 426.649 320.544 424.243 323.287C420.849 327.157 428.844 327.825 431.004 327.901C439.826 328.206 448.645 325.425 457.383 327.026C463.82 328.206 470.153 330.42 476.673 331.03C483.882 331.706 491.086 329.947 498.29 330.021C506.072 330.098 513.516 328.648 521.255 327.981C529.298 327.289 537.642 327.651 545.712 327.78C553.481 327.903 561.114 331.419 568.935 330.651C573.053 330.248 577.525 329.439 581.415 331.659C581.662 336.627 566.521 335.583 567.654 339.497C570.78 340.783 575.027 338.923 578.083 338.297C581.309 337.637 584.665 337.445 587.922 336.972C592.151 336.357 595.314 337.862 599.355 338.725C606.192 340.183 613.319 339.888 620.226 341.098C630.238 342.853 640.036 341.928 650.049 340.799C659.724 339.71 670.107 337.633 679.817 339.294C687.671 340.639 695.432 340.766 703.306 341.633C707.735 342.12 712.055 342.507 716.506 342.567C720.319 342.618 724.026 341.432 727.886 341.776C730.061 341.969 732.519 342.145 732.565 344.758C732.58 345.581 732.284 346.407 732.908 346.943C733.742 347.66 735.952 346.427 736.887 346.292C739.961 345.852 743.307 346.228 746.412 346.228C748.493 346.228 750.572 346.226 752.654 346.245C756.559 346.282 760.368 345.497 764.262 345.415C768.876 345.319 773.538 346.249 778.178 346.259C782.437 346.267 786.661 346.271 790.881 345.581C796.57 344.652 802.044 342.679 807.765 341.776C813.358 340.893 818.957 340.125 824.606 339.769C835.959 339.05 847.308 338.346 858.661 337.58C864.665 337.174 870.645 336.593 876.666 336.642C883.559 336.697 890.477 336.058 897.356 336.353C904.885 336.677 912.294 336.99 919.797 335.976C925.914 335.149 932.007 334.057 938.087 332.966C942.313 332.208 946.339 331.481 950.635 331.479C953.945 331.477 956.738 332.083 959.97 332.816C961.882 333.25 964.076 334.084 966.023 333.586C966.392 333.492 968.337 332.792 968.441 332.062C968.652 330.563 964.067 330.094 963.103 329.873C963.203 328.939 964.412 328.82 964.478 327.827C964.522 327.147 963.253 325.247 963.153 324.413C962.736 320.868 964.85 317.255 965.668 313.975C966.306 311.415 967.314 307.624 965.785 305.379C965.048 304.298 963.9 303.655 963.164 302.547C962.385 301.373 961.966 299.753 961.582 298.379C960.718 295.295 960.624 291.784 961.112 288.598C961.548 285.755 961.911 283.502 961.162 280.699C960.843 279.509 960.361 278.481 959.922 277.346C959.263 275.648 959.148 273.514 958.078 272.054C954.411 267.047 950.83 262.263 946.466 257.882C944.212 255.619 942.594 254.781 939.527 254.359C933.629 253.548 927.963 255.699 922.309 257.149C918.772 258.056 914.794 258.777 912.786 262.392C912.064 263.69 911.618 265.318 911.225 266.772C910.883 268.034 910.818 270.702 910.119 271.821C908.072 275.095 904.735 270.573 904.339 268.042C903.477 262.504 907.11 257.655 907.166 252.156C907.208 248.107 907.838 244.242 908.339 240.216C908.909 235.639 909.959 232.04 907.617 227.776C905.962 224.764 904.026 222.404 902.786 219.121C901.171 214.847 900.714 210.284 898.864 206.106C895.271 198 887.223 191.756 879.216 189.364C875.395 188.221 871.498 189.186 867.648 189.812C860.965 190.902 854.262 193.229 848.423 196.88C844.672 199.227 840.751 201.312 837.894 204.869C836.387 206.745 834.622 208.689 833.87 211.085C833.082 213.59 833.336 216.322 833.317 218.904C833.275 224.479 832.051 230.062 832.309 235.614C832.382 237.207 832.445 238.674 832.218 240.267C831.786 243.323 831.234 247.169 827.755 247.615C824.21 248.07 820.679 248.142 817.358 249.915C815.578 250.867 813.888 252.53 813.013 254.488C812.204 256.295 812.7 258.447 812.281 260.411C811.705 263.11 810.463 265.249 808.992 267.45C808.318 268.458 807.543 269.179 807.191 270.412C806.807 271.759 806.823 272.775 806.208 274.088C805.834 274.909 805.431 275.79 804.872 276.076Z" fill="url(#paint3_linear_245_758)"/>
</g>
<defs>
<linearGradient id="paint0_linear_245_758" x1="1304.49" y1="197.505" x2="1304.49" y2="38.1402" gradientUnits="userSpaceOnUse">
<stop stop-color="#FBB294" stop-opacity="0"/>
<stop offset="1" stop-color="#FFEFEE"/>
</linearGradient>
<linearGradient id="paint1_linear_245_758" x1="196.515" y1="379.904" x2="196.515" y2="125.332" gradientUnits="userSpaceOnUse">
<stop stop-color="#FBB294" stop-opacity="0"/>
<stop offset="1" stop-color="#FFEFEE"/>
</linearGradient>
<linearGradient id="paint2_linear_245_758" x1="-39.6604" y1="380.627" x2="-39.6604" y2="164.766" gradientUnits="userSpaceOnUse">
<stop stop-color="#FBB294" stop-opacity="0"/>
<stop offset="1" stop-color="#FFEFEE"/>
</linearGradient>
<linearGradient id="paint3_linear_245_758" x1="695.939" y1="338.133" x2="695.939" y2="227.662" gradientUnits="userSpaceOnUse">
<stop stop-color="#FBB294" stop-opacity="0"/>
<stop offset="1" stop-color="#FFEFEE"/>
</linearGradient>
<clipPath id="clip0_245_758">
<rect width="1440" height="1024" fill="white"/>
</clipPath>
</defs>
</svg>
