<svg width="1440" height="1024" viewBox="0 0 1440 1024" fill="none" xmlns="http://www.w3.org/2000/svg">
<g clip-path="url(#clip0_245_510)">
<path d="M738.879 520.813C740.851 519.5 743.08 518.734 745.666 518.955C750.111 519.334 754.268 521.601 758.74 522.08C765.734 522.83 773.508 521.761 780.338 520.123C785.024 519 789.164 516.514 793.645 514.847C797.474 513.421 801.195 512.397 804.952 510.644C816.006 505.492 827.746 501.283 837.521 493.566C844.612 487.969 851.637 482.812 858.847 477.481C862.351 474.89 865.887 473.473 869.117 470.387C871.279 468.32 875.873 462.598 878.792 462.105C880.836 461.759 881.476 463.362 882.553 464.872C884.448 467.524 886.462 469.467 888.893 471.671C892.7 475.126 895.797 478.657 900.466 480.707C904.892 482.65 909.63 483.095 913.958 485.345C921.657 489.349 928.617 494.424 936.99 496.695C940.542 497.66 943.618 497.373 947.201 497.584C951.187 497.818 954.701 499.075 958.779 499.038C962.525 499.006 967.217 499.757 970.88 498.907C972.916 498.436 973.82 497.689 976.001 497.646C977.888 497.609 979.67 497.846 981.477 497.351C987.247 495.766 991.375 488.888 996.323 485.366C1001.82 481.452 1007.84 478.872 1012.82 474.145C1018.02 469.211 1023.59 464.8 1029.12 460.282C1039.08 452.147 1049.28 444.562 1059.2 436.386C1070.52 427.053 1081.11 416.676 1092.13 406.934C1098.67 401.158 1104.65 394.777 1111.01 388.799C1118.18 382.065 1124.61 374.422 1131.85 367.809C1138.85 361.411 1146.44 355.777 1153.75 349.799C1159.69 344.945 1164.39 338.938 1170.04 333.8C1174.12 330.085 1175.86 328.776 1180.1 331.434C1182.41 332.88 1184.98 333.992 1187.43 335.119C1192.51 337.455 1196.95 340.886 1201.83 343.642C1206.86 346.489 1212.01 349.649 1216.91 352.762C1223.37 356.874 1228.77 362.99 1234.89 367.682C1241.18 372.503 1247.71 377.328 1254.44 381.432C1261.73 385.872 1270.06 386.806 1277.42 391.146C1286.84 396.692 1296.08 404.656 1307.18 404.91C1319.47 405.191 1331.74 405.811 1343.75 409.18C1347.78 410.311 1351.08 413.029 1355.17 414.091C1359.16 415.13 1363.16 415.795 1367.26 415.797C1374.62 415.799 1381.65 412.437 1388.86 412.977C1393.36 413.313 1395.49 417.2 1399.19 419.738C1413.42 429.499 1428.94 437.166 1443.72 445.907C1453.02 451.408 1462.63 455.963 1472.96 458.662C1478.22 460.036 1482.87 459.016 1488.19 458.115C1497.39 456.557 1506.49 454.599 1515.3 451.297C1522.97 448.424 1530.43 444.85 1538.1 441.924C1541.76 440.527 1547.07 437.811 1551.19 438.823C1553.8 439.464 1555.4 441.416 1556.55 444.068C1557.71 446.763 1557.73 449.792 1558.05 452.678C1559.16 462.807 1560.47 472.937 1561.89 483.019C1564.62 502.27 1566.73 521.591 1569.01 540.908C1572.08 566.962 1574.36 594.737 1567.96 620.491C1565.12 631.896 1561.5 644.344 1554.93 653.935C1544.92 668.551 1531.84 679.856 1517.38 689.113C1502.65 698.54 1487 704.221 1470.56 709.231C1446.24 716.638 1421.61 722.961 1396.93 728.873C1336 743.473 1273.8 748.952 1211.59 752.743C1157.38 756.046 1103.35 759.026 1049.02 758.573C1003.42 758.192 957.168 753.879 912.829 741.956C879.235 732.92 844.356 722.324 815.184 701.948C794.742 687.669 777.859 669.934 760.189 652.221C749.453 641.458 739.845 629.142 731.111 616.473C723.855 605.95 715.528 594.422 712.404 581.601C710.177 572.455 707.735 561.728 710.288 552.393C711.815 546.814 713.501 542.36 718.022 539.085C723.448 535.155 729.162 531.645 733.419 526.215C735.039 524.153 736.821 522.185 738.879 520.813Z" fill="url(#paint0_linear_245_510)"/>
<path d="M1567.96 620.491C1565.12 631.896 1561.5 644.344 1554.93 653.935C1544.92 668.551 1531.84 679.856 1517.38 689.113C1502.65 698.54 1487 704.221 1470.56 709.231C1446.24 716.638 1421.61 722.961 1396.93 728.873C1336 743.473 1273.8 748.952 1211.59 752.743C1157.38 756.046 1103.35 759.026 1049.02 758.573C1003.42 758.192 957.168 753.879 912.829 741.956C879.235 732.92 844.356 722.324 815.184 701.948C794.742 687.669 777.859 669.934 760.189 652.221C749.453 641.458 739.845 629.142 731.111 616.473C723.855 605.95 715.528 594.422 712.404 581.601C688.436 617.439 628.6 689.113 581 689.113H397.5L161.5 728.873L-40 811.5V1061H1567.96V620.491Z" fill="url(#paint1_linear_245_510)"/>
</g>
<defs>
<linearGradient id="paint0_linear_245_510" x1="1140.62" y1="355.328" x2="1140.62" y2="474.222" gradientUnits="userSpaceOnUse">
<stop stop-color="#584173"/>
<stop offset="1" stop-color="#876592"/>
</linearGradient>
<linearGradient id="paint1_linear_245_510" x1="1140.62" y1="355.328" x2="1140.62" y2="474.222" gradientUnits="userSpaceOnUse">
<stop stop-color="#584173"/>
<stop offset="1" stop-color="#876592"/>
</linearGradient>
<clipPath id="clip0_245_510">
<rect width="1440" height="1024" fill="white"/>
</clipPath>
</defs>
</svg>
