<svg width="1440" height="1024" viewBox="0 0 1440 1024" fill="none" xmlns="http://www.w3.org/2000/svg">
<g clip-path="url(#clip0_245_200)">
<path d="M352.117 551.932C352.91 551.696 353.718 551.506 354.555 551.401C357.531 551.035 359.44 551.622 361.951 550.26C360.899 550.832 353.229 552.866 354.01 549.476C354.321 548.131 363.276 547.768 364.756 547.846C366.523 547.938 368.222 548.556 369.992 548.606C376.758 548.8 384.052 545.13 390.331 542.941C400.509 539.392 410.708 535.673 421.333 533.969C431.716 532.302 442.027 531.761 452.406 529.991C460.344 528.64 469.283 525.949 476.157 521.162C478.036 519.854 479.223 518.013 481.281 516.933C483.182 515.936 484.672 516.61 486.463 516.04C487.911 515.58 488.015 514.175 489.213 513.515C491.279 512.379 492.358 513.917 494.045 514.642C500.024 517.212 508.536 510.941 514.626 508.51C520.196 506.286 525.228 503.529 530.948 501.985C533.035 501.422 533.903 500.695 536.034 501.264C537.681 501.704 538.417 503.3 539.64 504.299C542.919 506.976 547.314 508.264 551.19 509.835C555.675 511.654 559.448 513.253 564.275 513.3C571.892 513.372 577.823 512.872 584.984 509.872C590.18 507.695 595.454 505.94 600.636 503.685C604.933 501.815 610.205 498.925 614.904 498.278C616.58 498.047 618.477 498.131 620.176 498.211C623.167 498.352 622.447 498.675 624.552 500.59C626.936 502.759 629.949 504.645 632.558 506.599C637.94 510.628 641.697 516.702 646.597 521.373C660.676 534.796 673.057 549.912 686.681 563.853C695.188 572.557 706.363 579.014 716.51 585.294C719.93 587.409 723.518 589.16 727.043 591.063C731.275 593.348 735.539 594.493 739.844 596.426C743.663 598.143 746.502 601.327 750.083 603.431C753.627 605.513 756.786 607.447 760.063 609.949C762.342 611.69 764.857 612.311 767.073 614.242C769.949 616.749 772.566 617.855 775.621 619.978C778.964 622.303 782.483 624.375 784.668 627.955C786.377 630.755 787.834 632.338 791.073 632.078C793.899 631.851 794.065 630.829 796.422 629.25C799.675 627.073 803.451 625.488 806.825 623.335C811.289 620.486 816.331 618.485 820.576 615.278C823.362 613.173 825.76 611.234 829.183 610.466C833.676 609.458 836.343 611.641 840.267 613.587C847.51 617.175 854.685 620.765 861.914 624.388C872.189 629.536 884.308 630.737 893.453 638.12C897.046 641.02 900.425 645.023 905.052 645.757C910.144 646.564 916.539 643.752 921.508 642.914C926.086 642.144 931.8 640.284 936.427 640.44C940.115 640.565 943.352 641.923 947.173 641.65C957.775 640.899 968.715 637.167 978.776 633.821C1001 626.426 1023.53 615.743 1043 601.995C1049.28 597.557 1055.02 592.459 1061.49 588.31C1066.47 585.121 1071.14 581.65 1075.32 577.317C1077.01 575.566 1080.37 571.097 1082.97 570.767C1085.35 570.464 1085.41 571.572 1087.24 572.948C1091.28 575.983 1097.11 577.353 1101.71 578.65C1115.4 582.506 1129 587.362 1142.52 591.868C1170.11 601.067 1197.69 610.877 1224.57 622.227C1233.99 626.206 1245.35 633.471 1255.91 631.779C1271.5 629.283 1285.88 622.475 1300.57 616.61C1305.54 614.623 1310.04 612.737 1315.38 612.925C1319.6 613.073 1320.81 611.51 1323.98 608.661C1336.41 597.463 1347.97 586.629 1362.62 578.775C1386.11 566.175 1404.79 544.942 1424.77 527.235C1443.33 510.783 1463.69 496.748 1483.49 482.115C1488.23 478.613 1492.95 475.128 1497.45 471.273C1500.29 468.84 1503.19 465.244 1506.61 463.89C1506.47 466.938 1505.3 470.249 1504.93 473.245C1503.99 480.764 1503.95 488.22 1503.98 495.8C1504.05 518.08 1504.01 540.285 1503.08 562.548C1502.37 579.444 1501.48 596.336 1501.41 613.253C1501.35 627.376 1501.56 641.224 1500.3 655.309C1499.52 664.015 1499.02 672.698 1495.46 680.698C1492.27 687.878 1487.72 693.102 1481.68 697.622C1475.58 701.251 1469.21 704.182 1462.57 706.416C1452.65 710.424 1442.56 713.892 1432.31 716.818C1402.58 726.21 1372.46 734.636 1342.2 741.794C1268.36 759.255 1194.29 774.795 1119.45 786.413C1016.17 802.445 912.264 814.209 807.8 811.213C724.568 808.827 641.709 804.686 559.842 787.298C529.771 780.912 499.984 773.112 470.497 764.133C450.891 758.382 431.738 751.292 413.031 742.863C395.88 736.376 379.396 728.297 363.585 718.622C339.649 701.229 316.92 677.941 305.864 648.898C299.346 631.777 296.548 611.707 303.126 594.022C307.598 582 313.458 571.089 322.463 562.383C329.06 556.003 335.117 554.502 343.654 554.25C346.712 554.158 349.318 552.765 352.117 551.932Z" fill="url(#paint0_linear_245_200)"/>
<path d="M1500.3 655.309C1499.52 664.015 1499.02 672.698 1495.46 680.698C1492.27 687.878 1487.72 693.102 1481.68 697.622C1475.58 701.251 1469.21 704.182 1462.57 706.416C1452.65 710.424 1442.56 713.892 1432.31 716.818C1402.58 726.21 1372.46 734.636 1342.2 741.794C1268.36 759.255 1194.29 774.795 1119.45 786.413C1016.17 802.445 912.264 814.209 807.8 811.213C724.568 808.827 641.709 804.686 559.842 787.298C529.771 780.912 499.984 773.112 470.497 764.133C450.891 758.382 431.738 751.292 413.031 742.863C395.88 736.376 379.396 728.297 363.585 718.622C339.649 701.229 316.92 677.941 305.864 648.898C299.346 631.777 296.548 611.707 303.126 594.022C282.084 612.314 230.1 648.898 190.5 648.898C150.9 648.898 110.667 657.966 95.5 662.5L34 688.5L-18 718.622V1039H1500.3V655.309Z" fill="url(#paint1_linear_245_200)"/>
</g>
<defs>
<linearGradient id="paint0_linear_245_200" x1="902.984" y1="561.024" x2="902.984" y2="708.48" gradientUnits="userSpaceOnUse">
<stop stop-color="#3A2259"/>
<stop offset="1" stop-color="#543C6E"/>
</linearGradient>
<linearGradient id="paint1_linear_245_200" x1="902.984" y1="561.024" x2="902.984" y2="708.48" gradientUnits="userSpaceOnUse">
<stop stop-color="#3A2259"/>
<stop offset="1" stop-color="#543C6E"/>
</linearGradient>
<clipPath id="clip0_245_200">
<rect width="1440" height="1024" fill="white"/>
</clipPath>
</defs>
</svg>
