<svg width="1440" height="1536" viewBox="0 0 1440 1536" fill="none" xmlns="http://www.w3.org/2000/svg">
<g clip-path="url(#clip0_138_126)">
<path d="M1058.71 827.286L1096.5 807L1092.5 843.54L1072.28 863.452L1050.23 874.866L1046.81 849.764L1058.71 827.286Z" fill="#AF69FF" fill-opacity="0.5"/>
<path d="M1055.6 809.376L1098.48 810.086L1077.17 840.042L1049.81 847.568L1025 846.787L1034.25 823.203L1055.6 809.376Z" fill="#AF69FF" fill-opacity="0.5"/>
<path d="M921.69 725.66L943.296 743.949L919.892 750.343L902.77 742.748L890.424 731.977L905.008 723.799L921.69 725.66Z" fill="#AF69FF" fill-opacity="0.5"/>
<path d="M937.104 719.311L947.352 746.763L922.984 740.688L911.369 725.162L905.675 709.186L922.984 709.186L937.104 719.311Z" fill="#AF69FF" fill-opacity="0.5"/>
<path d="M955.841 714.902L954.298 745.721L933.27 729.68L928.517 709.823L929.677 692L946.413 699.221L955.841 714.902Z" fill="#AF69FF" fill-opacity="0.5"/>
<path d="M665.019 614.677L677.443 573.627L700.421 602.318L700.169 630.696L692.624 654.346L672.474 638.991L665.019 614.677Z" fill="#AF69FF" fill-opacity="0.5"/>
<path d="M656.018 618.61L648.547 584L676.626 595.51L687.81 616.099L691.834 636.194L671.138 633.178L656.018 618.61Z" fill="#AF69FF" fill-opacity="0.5"/>
<path d="M1179.93 670.835L1172.83 713.131L1146.39 687.597L1143.03 659.417L1147.5 635L1169.44 647.667L1179.93 670.835Z" fill="#AF69FF" fill-opacity="0.5"/>
<path d="M1167.21 656.928L1202.11 632L1202.79 668.752L1185.27 691.075L1164.86 705.2L1158.27 680.737L1167.21 656.928Z" fill="#AF69FF" fill-opacity="0.5"/>
<path d="M1186.82 661L1227 646L1218.11 681.667L1195.38 698.667L1172 707V681.667L1186.82 661Z" fill="#AF69FF" fill-opacity="0.5"/>
<path d="M1112.82 762L1153 747L1144.11 782.667L1121.38 799.667L1098 808V782.667L1112.82 762Z" fill="#AF69FF" fill-opacity="0.5"/>
<path d="M984.743 773.086L1023.97 790.428L992.687 809.732L964.551 806.016L942 795.64L959.7 777.516L984.743 773.086Z" fill="#AF69FF" fill-opacity="0.5"/>
<path d="M973.013 633.032L973.909 590.153L1003.77 611.587L1011.18 638.983L1010.29 663.79L986.747 654.436L973.013 633.032Z" fill="#AF69FF" fill-opacity="0.5"/>
<path d="M1024.82 630L1065 615L1056.11 650.667L1033.38 667.667L1010 676V650.667L1024.82 630Z" fill="#AF69FF" fill-opacity="0.5"/>
<path d="M1251.82 467L1292 452L1283.11 487.667L1260.38 504.667L1237 513V487.667L1251.82 467Z" fill="#AF69FF" fill-opacity="0.5"/>
<path d="M1205.2 494.307L1193.67 453L1228.45 464.886L1243.46 488.971L1249.78 512.977L1224.54 510.828L1205.2 494.307Z" fill="#AF69FF" fill-opacity="0.5"/>
<path d="M1226.01 471.888L1248.82 435.567L1263.42 469.303L1255.69 496.61L1242.18 517.432L1226.79 497.307L1226.01 471.888Z" fill="#AF69FF" fill-opacity="0.5"/>
<path d="M1232.82 553L1273 538L1264.11 573.667L1241.38 590.667L1218 599V573.667L1232.82 553Z" fill="#AF69FF" fill-opacity="0.5"/>
<path d="M1224.86 546.05L1267.5 550.641L1243.57 578.544L1215.64 583.561L1191 580.535L1202.35 557.887L1224.86 546.05Z" fill="#AF69FF" fill-opacity="0.5"/>
<path d="M891.981 629.439L857.632 603.757L892.441 591.945L919.031 601.863L938.687 617.024L917.38 630.726L891.981 629.439Z" fill="#AF69FF" fill-opacity="0.5"/>
<path d="M899.369 593.337L906.225 551L932.814 576.381L936.336 604.542L932.002 628.984L909.99 616.444L899.369 593.337Z" fill="#AF69FF" fill-opacity="0.5"/>
<path d="M1306.82 634L1347 619L1338.11 654.667L1315.38 671.667L1292 680V654.667L1306.82 634Z" fill="#AF69FF" fill-opacity="0.5"/>
<path d="M1322.05 668.067L1341.81 630L1359.12 662.426L1353.66 690.274L1341.89 712.134L1324.91 693.337L1322.05 668.067Z" fill="#AF69FF" fill-opacity="0.5"/>
<path d="M982.998 613.299L998.68 549L1036.5 591.272L1038.51 635.02L1028.87 672.097L996.533 650.135L982.998 613.299Z" fill="#AF69FF" fill-opacity="0.5"/>
<path d="M486.939 523.667L529.767 525.939L507.386 555.098L479.766 561.623L455 559.937L465.105 536.706L486.939 523.667Z" fill="#AF69FF" fill-opacity="0.5"/>
<path d="M489.82 535L530 520L521.108 555.667L498.383 572.667L475 581V555.667L489.82 535Z" fill="#AF69FF" fill-opacity="0.5"/>
<path d="M506.853 558.299L518.418 517L541.989 545.206L542.328 573.584L535.277 597.385L514.812 582.453L506.853 558.299Z" fill="#AF69FF" fill-opacity="0.5"/>
<path d="M1094.75 741.105L1072.38 738.173L1054.43 777.4C1052.13 782.441 1047.23 785.8 1041.7 786.134L1027.91 786.966C1026.95 787.023 1026 786.99 1025.05 786.866L1022.95 786.591C1019.85 786.185 1016.7 786.757 1013.95 788.227L1010.48 790.075C1009.28 790.715 1008 791.188 1006.67 791.482L984.799 796.336L982.309 796.696C976.588 797.522 976.642 805.799 982.374 806.55C983.078 806.642 983.793 806.583 984.472 806.376L1007.59 799.322L1022.38 794.365C1024.54 793.641 1026.83 793.418 1029.09 793.714L1044.92 795.788C1047.77 796.161 1050.66 795.71 1053.25 794.489L1090.86 776.805C1097.26 773.797 1100.69 766.732 1099.09 759.846L1094.75 741.105Z" fill="#32003A"/>
<path fill-rule="evenodd" clip-rule="evenodd" d="M1482.48 850.039C1483.82 850.773 1485.27 851.298 1486.76 851.597L1487.26 851.697C1495.77 853.393 1503.94 847.538 1505.07 838.935L1512.21 784.435C1512.97 778.648 1510.21 772.963 1505.2 769.971C1501.29 767.636 1498.69 763.611 1498.17 759.085L1498.13 758.713C1497.67 754.783 1495.69 751.192 1492.6 748.72L1490.46 747.008C1486.9 744.161 1484.83 739.852 1484.83 735.297L1484.83 692.014C1484.83 685.133 1480.15 679.135 1473.48 677.463L1462.85 674.801L1445.57 698.848L1435.4 766.914C1434.79 771.009 1431.57 774.223 1427.48 774.833C1421.67 775.699 1416.49 771.09 1416.68 765.218L1416.88 759.152C1417.1 752.299 1412.48 746.231 1405.82 744.615L1394.59 741.891L1360.96 731.587L1309.18 721.434L1259.5 708.184L1208.09 698.5L1178.01 691.112C1176.04 690.626 1173.98 690.548 1171.97 690.882L1111.64 700.934C1109.21 701.338 1106.72 701.139 1104.39 700.354L1081.3 692.583L1038.92 671.865L1010.15 653.53C1009.37 653.028 1008.53 652.6 1007.66 652.253L978.595 640.622C975.94 639.56 973.644 637.76 971.977 635.436L964.195 624.582L951.992 601.92L942.012 585.254C939.987 581.873 936.714 579.424 932.897 578.447C921.138 575.439 904.483 571.263 901.69 570.897C898.71 570.506 890.563 561.043 885.72 554.937C884.719 553.674 883.542 552.562 882.206 551.66L857.875 535.236C856.858 534.55 855.762 533.992 854.61 533.573L838.242 527.619L820.139 521.035L786.45 520.833L765.112 521.411C761.677 521.504 758.316 520.416 755.588 518.327L729.927 498.684L706.981 487.252C701.971 487.752 700.853 494.561 705.44 496.636L717.678 502.174C718.464 502.53 719.191 503.003 719.835 503.576L736.601 518.515L742.847 522.959C745.398 524.774 744.832 528.713 741.874 529.737L699.493 544.405L680.477 552.024L668.107 549.139L600.88 531.485L544.142 512.963C543.17 512.646 542.233 512.23 541.346 511.722L500.129 488.132C499.232 487.619 498.244 487.286 497.219 487.151L495.43 486.917C488.69 486.034 484.528 494.054 489.13 499.057L489.54 499.503C490.739 500.806 491.298 502.572 491.068 504.328C490.639 507.601 487.637 509.908 484.363 509.479L460.459 506.347L400.284 493.933C399.367 493.744 398.434 493.641 397.497 493.626L360.829 493.03C359.307 493.005 357.789 493.212 356.329 493.645L343.385 497.476C342.962 497.601 342.556 497.78 342.178 498.009C337.152 501.045 340.269 508.779 345.996 507.484L356.379 505.134C356.765 505.047 357.157 504.993 357.551 504.973L384.654 503.597C386.262 503.515 387.873 503.693 389.424 504.123L424.495 513.852L469.071 519.692C470.287 519.851 471.478 520.159 472.619 520.608L502.963 532.558L539.425 537.335C541.745 537.639 579.264 549.575 597.733 555.506C609.484 558.028 632.975 563.156 632.932 563.488C632.889 563.819 654.302 569.798 665.014 572.746L701.563 585.166C705.052 586.351 707.983 588.78 709.796 591.988L718.558 607.493C720.144 610.299 722.591 612.52 725.538 613.826L751.343 625.267C752 625.559 752.678 625.803 753.37 625.997L799.698 638.995L829.434 647.709C830.804 648.111 832.225 648.315 833.653 648.315L861.525 648.315L933.025 646.465C936.773 646.368 940.422 647.679 943.252 650.138L976.267 678.831C977.394 679.81 978.661 680.616 980.025 681.221L1013.02 695.853L1056.57 722.217C1057.73 722.917 1058.78 723.77 1059.71 724.754L1072.38 738.173L1094.75 741.105L1149.75 729.617C1151.4 729.272 1153.1 729.208 1154.77 729.427L1196.11 734.844C1196.97 734.957 1197.82 735.144 1198.65 735.403L1236.67 747.32L1278.28 757.827L1325.19 766.5L1384.33 784.78L1392.6 786.435C1400.06 787.927 1405.22 794.768 1404.61 802.352L1404.4 805.002C1403.83 811.981 1408.17 818.423 1414.85 820.521L1425.29 823.8L1445.73 830.221C1446.68 830.517 1447.59 830.905 1448.45 831.379L1482.48 850.039ZM733.508 542.122L692.848 554.909L714.897 568.459C717.48 570.047 719.522 572.38 720.753 575.152L727.407 590.14C729.021 593.773 732.011 596.618 735.721 598.048L784.688 616.928L804.295 623.843C805.685 624.333 807.14 624.616 808.613 624.682L831.5 625.705L869.201 625.705C870.441 625.705 871.676 625.551 872.879 625.247L902.992 617.631C904.83 617.167 906.739 617.054 908.619 617.301L924.506 619.382C933.412 620.549 940.432 611.935 937.491 603.447C936.682 601.111 935.174 599.078 933.173 597.626L920.381 588.34C919.164 587.456 917.82 586.76 916.396 586.276L896.83 579.627C895.179 579.066 893.639 578.222 892.279 577.133L871.068 560.145L847.291 544.308C846.348 543.68 845.338 543.161 844.278 542.761L821.312 534.083C819.498 533.398 817.569 533.07 815.631 533.119L776.66 534.104C775.845 534.124 775.033 534.211 774.232 534.364L733.508 542.122Z" fill="#32003A"/>
<path d="M1462.85 674.801L1445.79 669.293C1444.27 668.803 1442.84 668.072 1441.55 667.129L1426.73 656.295C1424.7 654.809 1422.32 653.859 1419.83 653.532L1401.23 651.096C1398.43 650.729 1395.79 649.578 1393.61 647.776L1372.81 630.549C1372.02 629.896 1371.3 629.164 1370.66 628.364L1353.16 606.472L1335.57 586.644C1334.81 585.791 1333.96 585.027 1333.03 584.367L1313.31 570.367C1311.72 569.242 1310.37 567.819 1309.33 566.178L1292.04 538.96L1266.97 509.325C1266.41 508.666 1265.91 507.96 1265.48 507.216L1260.89 499.382C1258.55 495.382 1254.49 492.69 1249.89 492.088L1234.41 490.06L1237.15 501.31C1237.68 503.504 1238.7 505.549 1240.13 507.294L1259.78 531.204L1270.56 546.242C1272.13 548.421 1273.08 550.979 1273.31 553.649L1274.1 562.503C1274.65 568.569 1278.8 573.705 1284.62 575.502L1289.18 576.91L1299.16 579.995C1301.9 580.84 1304.34 582.45 1306.19 584.635L1315.84 596.035L1332.64 613.004C1333.29 613.662 1333.82 614.431 1334.2 615.275L1335.98 619.222C1337.69 623.026 1334.56 627.232 1330.43 626.691C1329.52 626.571 1328.65 626.218 1327.92 625.665L1310.02 612.2C1308.64 611.163 1307.45 609.896 1306.51 608.454L1297.34 594.512C1296.91 593.856 1296.53 593.168 1296.21 592.454L1289.18 576.91L1284.62 575.502C1278.8 573.705 1274.65 568.569 1274.1 562.503L1273.31 553.649C1273.08 550.979 1272.13 548.421 1270.56 546.242L1259.78 531.204L1240.13 507.294C1238.7 505.549 1237.68 503.504 1237.15 501.31L1234.41 490.06L1220.52 488.24C1210.07 486.87 1202.67 498.193 1208.12 507.218C1208.81 508.358 1209.67 509.381 1210.68 510.25L1218.39 516.892C1220.04 518.313 1221.36 520.077 1222.26 522.06L1227.66 533.951C1228.18 535.092 1228.83 536.165 1229.62 537.142L1248.34 560.466L1256.52 571.247C1257.29 572.268 1257.93 573.383 1258.43 574.566L1266.13 593.149C1266.69 594.496 1267.44 595.754 1268.36 596.884L1283.41 615.332C1285.02 617.298 1286.09 619.639 1286.55 622.135L1288.69 633.932C1289.66 639.287 1293.46 643.696 1298.61 645.452L1335.93 658.173L1382.21 670.018C1383.23 670.281 1384.23 670.651 1385.17 671.123L1412.45 684.705L1445.57 698.848L1462.85 674.801Z" fill="#32003A"/>
<path d="M820.139 521.035L838.242 527.619L844.842 529.476C853.641 531.951 862.589 526.048 863.776 516.985L864.909 508.343C865.135 506.617 865.059 504.866 864.685 503.167L857.702 471.471C857.625 471.121 857.523 470.776 857.396 470.441C854.665 463.228 844.107 464.456 843.105 472.103L842.678 475.367C842.492 476.782 842.678 478.222 843.216 479.545L851.74 500.489C852.72 502.895 853.057 505.515 852.719 508.092L852.234 511.8C851.071 520.677 842.44 526.565 833.75 524.41L820.139 521.035Z" fill="#32003A"/>
<path d="M706.981 487.252L729.927 498.684L717.989 476.482C716.077 472.926 712.812 470.291 708.932 469.172L685.829 462.513C683.914 461.961 681.909 461.796 679.929 462.028L640.256 466.675C622.226 469.188 584.674 474.017 578.708 473.235C572.741 472.454 544.375 475.797 530.938 477.566L503.479 482.838C503.053 482.92 502.618 482.933 502.188 482.876C497.4 482.249 495.729 489.021 500.259 490.694L500.723 490.865C501.397 491.113 502.124 491.181 502.832 491.061L529.769 486.49L577.344 483.646L629.112 479.839L665.124 474.996C666.434 474.82 667.762 474.818 669.072 474.989L692.112 478.008C694.881 478.371 697.494 479.499 699.656 481.266L706.981 487.252Z" fill="#32003A"/>
<path d="M511.842 470L535.153 434L549.282 467.935L541.175 495.132L527.372 515.765L512.267 495.427L511.842 470Z" fill="#AF69FF" fill-opacity="0.5"/>
<path d="M1241.82 755L1282 740L1273.11 775.667L1250.38 792.667L1227 801V775.667L1241.82 755Z" fill="#AF69FF" fill-opacity="0.5"/>
<path d="M1269.71 782.736L1279.58 741L1304.28 768.224L1305.78 796.564L1299.7 820.633L1278.64 806.546L1269.71 782.736Z" fill="#AF69FF" fill-opacity="0.5"/>
<path d="M1377.82 791L1418 776L1409.11 811.667L1386.38 828.667L1363 837V811.667L1377.82 791Z" fill="#AF69FF" fill-opacity="0.5"/>
<path d="M1389.41 811.453L1416.25 778L1426.87 813.192L1416.05 839.428L1400.22 858.556L1387.26 836.793L1389.41 811.453Z" fill="#AF69FF" fill-opacity="0.5"/>
<path d="M1318.82 654L1359 639L1350.11 674.667L1327.38 691.667L1304 700V674.667L1318.82 654Z" fill="#AF69FF" fill-opacity="0.5"/>
<path d="M1316.33 630.949L1359.04 634.89L1335.53 663.154L1307.68 668.596L1283 665.945L1294 643.126L1316.33 630.949Z" fill="#AF69FF" fill-opacity="0.5"/>
<path d="M1388.82 677L1429 662L1420.11 697.667L1397.38 714.667L1374 723V697.667L1388.82 677Z" fill="#AF69FF" fill-opacity="0.5"/>
<path d="M1429.1 623.891L1429.19 666.779L1398.84 646.039L1390.81 618.822L1391.12 594L1414.88 602.809L1429.1 623.891Z" fill="#AF69FF" fill-opacity="0.5"/>
<path d="M1065.17 683.544L1070.6 641L1098.03 665.472L1102.5 693.498L1098.99 718.072L1076.57 706.28L1065.17 683.544Z" fill="#AF69FF" fill-opacity="0.5"/>
<path d="M1084.01 678.469L1104.88 641L1121.23 673.921L1114.95 701.597L1102.55 723.101L1086.12 703.812L1084.01 678.469Z" fill="#AF69FF" fill-opacity="0.5"/>
<path d="M643.82 455L684 440L675.108 475.667L652.383 492.667L629 501V475.667L643.82 455Z" fill="#AF69FF" fill-opacity="0.5"/>
<path d="M897.527 765.046L939.496 756.217L925.375 790.155L900.366 803.569L876 808.315L879.785 783.266L897.527 765.046Z" fill="#AF69FF" fill-opacity="0.5"/>
<path d="M910.01 786.585L939.024 755L947.267 790.822L934.718 816.277L917.654 834.305L906.169 811.725L910.01 786.585Z" fill="#AF69FF" fill-opacity="0.5"/>
<path d="M977.577 767.707L997.855 805.498L961.315 801.494L941.408 781.267L930 759.22L955.102 755.806L977.577 767.707Z" fill="#AF69FF" fill-opacity="0.5"/>
<path d="M1078.79 761.976L1099.55 724.446L1115.99 757.32L1109.79 785.014L1097.45 806.554L1080.97 787.313L1078.79 761.976Z" fill="#AF69FF" fill-opacity="0.5"/>
<path d="M1051.76 793.17L1035 753.692L1071.02 761.001L1089.01 782.954L1098.37 805.946L1073.06 807.064L1051.76 793.17Z" fill="#AF69FF" fill-opacity="0.5"/>
<path d="M1251.82 481L1292 466L1283.11 501.667L1260.38 518.667L1237 527V501.667L1251.82 481Z" fill="#AF69FF" fill-opacity="0.5"/>
<path d="M1228.19 488.171L1246.92 526.754L1210.57 521.27L1191.5 500.252L1181 477.76L1206.22 475.368L1228.19 488.171Z" fill="#AF69FF" fill-opacity="0.5"/>
<path d="M1233.97 737.46L1276.85 738.603L1255.24 768.342L1227.8 775.591L1203 774.558L1212.49 751.07L1233.97 737.46Z" fill="#AF69FF" fill-opacity="0.5"/>
<path d="M1244.26 704.464L1250.28 662L1277.36 686.854L1281.44 714.939L1277.59 739.462L1255.33 727.357L1244.26 704.464Z" fill="#AF69FF" fill-opacity="0.5"/>
<path d="M965.625 743.654L955.411 702L989.798 714.989L1004.03 739.541L1009.58 763.736L984.424 760.783L965.625 743.654Z" fill="#AF69FF" fill-opacity="0.5"/>
<path d="M986.055 723.024L1001.47 683L1022.27 713.305L1019.93 741.588L1010.66 764.617L991.7 747.821L986.055 723.024Z" fill="#AF69FF" fill-opacity="0.5"/>
<path d="M698.44 532.606L725.087 499L735.905 534.13L725.236 560.428L709.523 579.646L696.432 557.958L698.44 532.606Z" fill="#AF69FF" fill-opacity="0.5"/>
<path d="M721.82 535L762 520L753.108 555.667L730.383 572.667L707 581V555.667L721.82 535Z" fill="#AF69FF" fill-opacity="0.5"/>
<path d="M752.153 550.86L793.425 562.524L765.163 586.028L736.784 586.299L713 579.192L727.98 558.762L752.153 550.86Z" fill="#AF69FF" fill-opacity="0.5"/>
<path d="M480.48 486.75L477.034 444L508.912 462.303L519.053 488.809L520.677 513.58L496.308 506.655L480.48 486.75Z" fill="#AF69FF" fill-opacity="0.5"/>
<g filter="url(#filter0_f_138_126)">
<path d="M1376 529.5L1447 551V878.5L1387 851L1298 806.5H1168.5L1047.5 771.5L898 708.5L853 672H758H615.5C582.5 648.667 514 602 504 602C494 602 417.167 596 380 593L298.5 529.5L355 447.5L472.5 432L596.5 425.5L719.5 440.5H814.5L882.5 468.5L958 516H1013.5L1108.5 593L1168.5 602L1138.5 551V482L1168.5 425.5L1262.5 411.5L1310 447.5L1376 529.5Z" fill="#7548C2" fill-opacity="0.2"/>
<path d="M1376 529.5L1447 551V878.5L1387 851L1298 806.5H1168.5L1047.5 771.5L898 708.5L853 672H758H615.5C582.5 648.667 514 602 504 602C494 602 417.167 596 380 593L298.5 529.5L355 447.5L472.5 432L596.5 425.5L719.5 440.5H814.5L882.5 468.5L958 516H1013.5L1108.5 593L1168.5 602L1138.5 551V482L1168.5 425.5L1262.5 411.5L1310 447.5L1376 529.5Z" stroke="black"/>
</g>
</g>
<defs>
<filter id="filter0_f_138_126" x="248.5" y="361.5" width="1248.5" height="567" filterUnits="userSpaceOnUse" color-interpolation-filters="sRGB">
<feFlood flood-opacity="0" result="BackgroundImageFix"/>
<feBlend mode="normal" in="SourceGraphic" in2="BackgroundImageFix" result="shape"/>
<feGaussianBlur stdDeviation="25" result="effect1_foregroundBlur_138_126"/>
</filter>
<clipPath id="clip0_138_126">
<rect width="1440" height="1536" fill="white"/>
</clipPath>
</defs>
</svg>
