<svg width="1440" height="1024" viewBox="0 0 1440 1024" fill="none" xmlns="http://www.w3.org/2000/svg">
<g clip-path="url(#clip0_173_78)">
<path d="M-1 777.487C-1 773.613 1.47887 770.174 5.15395 768.949L71.1144 746.962C72.0321 746.656 72.9932 746.5 73.9605 746.5H128.5H183L234.5 740.5H278.094C278.696 740.5 279.297 740.56 279.888 740.681L308.5 746.5L344 752L372 759L409.642 765.194C410.867 765.396 412.121 765.342 413.325 765.035L463.407 752.278C464.133 752.094 464.879 752 465.628 752H522.5L602.5 759H680L802 746.5H886.5L948.5 740.5H1009L1051.3 746.402C1051.77 746.467 1052.23 746.569 1052.68 746.707L1091.28 758.476C1092.42 758.822 1093.61 758.94 1094.79 758.823L1132.72 755.077C1133.24 755.026 1133.75 754.93 1134.25 754.79L1162.05 747.045C1163.33 746.686 1164.68 746.618 1166 746.847L1212.24 754.868C1212.74 754.956 1213.26 755 1213.77 755H1348L1429.16 747.419C1434.44 746.926 1439 751.079 1439 756.38V1015C1439 1019.97 1434.97 1024 1430 1024H8.00003C3.02947 1024 -1 1019.97 -1 1015V777.487Z" fill="black" stroke="black" stroke-width="3"/>
<path fill-rule="evenodd" clip-rule="evenodd" d="M1191.43 756.998C1191.28 756.999 1191.13 756.968 1191 756.906L1180.92 752.26C1180.64 752.13 1180.43 751.878 1180.37 751.577L1178.09 741.748C1178.03 741.487 1178.08 741.212 1178.23 740.986L1183.61 732.527C1183.72 732.361 1183.87 732.23 1184.05 732.15L1190.91 729.107C1191.1 729.022 1191.31 728.999 1191.52 729.042L1205.1 731.898C1205.87 732.06 1206.52 731.307 1206.24 730.568L1204.65 726.334C1204.5 725.941 1204.62 725.497 1204.94 725.223L1209.91 720.966C1210.09 720.815 1210.2 720.609 1210.24 720.381L1216.78 683.642L1220.42 672.027C1220.64 671.311 1220.03 670.612 1219.29 670.744L1198.43 674.465C1198.05 674.533 1197.74 674.813 1197.64 675.186L1195.38 683.442C1195.35 683.574 1195.28 683.697 1195.2 683.804L1192.16 687.593C1192.07 687.705 1192.01 687.836 1191.97 687.975L1191.31 690.614C1191.24 690.898 1191.05 691.136 1190.79 691.266L1190.2 691.563C1189.81 691.755 1189.35 691.68 1189.04 691.376L1189.02 691.354C1188.83 691.166 1188.73 690.911 1188.73 690.646V689.412V687.354C1188.73 687.089 1188.83 686.834 1189.02 686.646L1190.22 685.448C1190.7 684.966 1190.57 684.151 1189.96 683.846L1189.76 683.748C1189.62 683.678 1189.47 683.642 1189.32 683.642H1188.08C1187.52 683.642 1187.08 684.09 1187.08 684.642V686.115V687.061C1187.08 687.384 1186.74 687.594 1186.45 687.45V687.45C1186.09 687.271 1185.7 687.629 1185.85 688L1186.92 690.68C1187.02 690.911 1186.96 691.175 1186.79 691.35V691.35C1186.51 691.627 1186.05 691.581 1185.83 691.256L1185.64 690.961C1185.21 690.33 1184.25 690.459 1184.01 691.178L1183.91 691.491C1183.82 691.743 1183.84 692.018 1183.96 692.256L1184.41 693.157C1184.53 693.382 1184.48 693.653 1184.3 693.831V693.831C1184.04 694.098 1183.59 694.043 1183.39 693.718L1181.44 690.474C1181.35 690.319 1181.3 690.141 1181.3 689.959V686.351C1181.3 686.196 1181.34 686.043 1181.41 685.904L1183.67 681.381C1183.74 681.242 1183.78 681.089 1183.78 680.933V679.111C1183.78 678.846 1183.88 678.592 1184.07 678.404L1194.32 668.165C1194.44 668.045 1194.59 667.957 1194.75 667.911L1200.18 666.362C1200.25 666.343 1200.31 666.317 1200.37 666.283L1212.38 659.889C1212.56 659.792 1212.71 659.64 1212.8 659.454L1213.29 658.484C1213.41 658.234 1213.64 658.047 1213.91 657.97L1224.9 654.832C1224.99 654.807 1225.08 654.794 1225.17 654.794H1237.07C1237.29 654.794 1237.5 654.881 1237.65 655.035V655.035C1237.98 655.357 1238.5 655.357 1238.82 655.035L1239.3 654.553C1239.63 654.231 1239.63 653.709 1239.3 653.387V653.387C1239.15 653.232 1239.06 653.023 1239.06 652.804V651.208C1239.06 650.874 1238.9 650.561 1238.62 650.376L1237.03 649.321C1236.75 649.136 1236.59 648.823 1236.59 648.489V648.107C1236.59 647.911 1236.65 647.718 1236.75 647.554L1238.69 644.633C1238.92 644.297 1238.92 643.86 1238.69 643.525L1237.67 641.991C1237.51 641.747 1237.46 641.443 1237.54 641.161L1239.02 635.971C1239.05 635.882 1239.06 635.789 1239.06 635.696V633.6C1239.06 633.445 1239.1 633.291 1239.17 633.152L1240.62 630.255C1240.68 630.131 1240.71 629.995 1240.71 629.857V628.743C1240.71 628.594 1240.56 628.497 1240.42 628.563V628.563C1240.21 628.668 1240.02 628.389 1240.2 628.233L1246.34 622.785C1246.44 622.695 1246.56 622.626 1246.68 622.584L1248.86 621.861C1248.93 621.837 1249 621.821 1249.08 621.814L1257.9 621.013C1257.99 621.004 1258.09 621.01 1258.18 621.028L1262.17 621.824L1266.94 623.413C1267.06 623.453 1267.17 623.514 1267.26 623.593L1271.91 627.46C1272.02 627.548 1272.1 627.658 1272.16 627.781L1274.47 632.394C1274.52 632.49 1274.55 632.594 1274.57 632.7L1275.36 638.239C1275.37 638.286 1275.37 638.333 1275.37 638.38V642.331C1275.37 642.397 1275.36 642.463 1275.35 642.528L1274.57 646.42C1274.55 646.507 1274.53 646.592 1274.49 646.671L1272.47 650.707C1272.24 651.158 1272.39 651.707 1272.81 651.987L1274.46 653.091C1274.52 653.127 1274.57 653.169 1274.62 653.215L1281.15 659.739L1285.22 664.625C1285.26 664.665 1285.29 664.707 1285.31 664.751L1290.17 672.833C1290.2 672.896 1290.24 672.962 1290.26 673.031L1293.5 682.733C1293.51 682.79 1293.53 682.848 1293.54 682.908L1295.16 694.287C1295.17 694.334 1295.17 694.381 1295.17 694.429V705.073L1293.52 717.436L1290.28 730.406C1290.24 730.55 1290.24 730.7 1290.27 730.845L1292.7 742.988L1295.69 754.933C1295.85 755.564 1295.37 756.176 1294.72 756.176H1287.63C1287.21 756.176 1286.83 755.91 1286.69 755.512L1283.42 746.386C1283.15 745.636 1282.16 745.485 1281.68 746.122L1280.52 747.667C1280.39 747.84 1280.32 748.05 1280.32 748.267V750.953C1280.32 751.135 1280.27 751.312 1280.18 751.468L1277.91 755.246C1277.87 755.316 1277.82 755.381 1277.76 755.439L1277.31 755.887C1277.12 756.072 1276.87 756.177 1276.61 756.18L1191.43 756.998ZM1240.54 720.308C1240.65 720.053 1240.65 719.765 1240.54 719.512L1234.94 706.721L1233.3 720.602C1233.29 720.689 1233.27 720.775 1233.24 720.856L1229.99 728.976L1237.85 725.832C1238.1 725.734 1238.3 725.542 1238.4 725.298L1240.54 720.308ZM1248.14 676.224L1242.36 672.927L1245.66 679.521L1248.14 676.224Z" fill="black" stroke="black"/>
<path d="M1115.26 756.871L1113.46 747.839H1106.25V756.871L1109.48 755.25C1109.72 755.131 1109.99 755.112 1110.25 755.196L1115.26 756.871Z" fill="#711A08"/>
<path d="M1106.25 747.839L1101.74 745.129L1097.23 749.645L1093.63 758.677L1096.74 757.117C1097.05 756.964 1097.41 756.978 1097.71 757.154L1101.74 759.581L1106.25 747.839Z" fill="#711A08"/>
<path d="M1088.83 753.109C1089.02 753.206 1089.18 753.363 1089.27 753.556L1090.93 756.871L1097.23 749.645L1101.74 745.129C1099.28 744.071 1097.23 741.516 1092.73 742.419L1085.52 751.452L1088.83 753.109Z" fill="#711A08"/>
<path d="M1074.7 745.129H1078.67C1079.01 745.129 1079.32 745.296 1079.51 745.575L1080.94 747.727C1080.99 747.801 1081.03 747.881 1081.05 747.966L1081.91 750.548L1092.73 742.419L1088.22 738.806L1086 737.323C1085.7 737.123 1085.32 737.099 1085 737.261L1080.26 739.637C1080.16 739.685 1080.07 739.748 1080 739.825L1074.7 745.129Z" fill="#711A08"/>
<path d="M1079.51 745.575C1079.32 745.296 1079.01 745.129 1078.67 745.129H1074.7L1072.29 747.546C1072.11 747.733 1072 747.987 1072 748.252V750.216C1072 750.432 1072.07 750.642 1072.2 750.815L1074.56 753.972C1074.66 754.097 1074.78 754.198 1074.91 754.267L1075.99 754.804C1076.31 754.965 1076.69 754.941 1076.99 754.741L1079.13 753.313C1079.18 753.276 1079.23 753.235 1079.28 753.188L1081.91 750.548L1081.05 747.966C1081.03 747.881 1080.99 747.801 1080.94 747.727L1079.51 745.575Z" fill="#711A08"/>
<path d="M1085.52 751.452L1083.88 753.91C1083.77 754.074 1083.72 754.266 1083.72 754.464V756.336C1083.72 756.67 1083.88 756.982 1084.16 757.168L1086.17 758.509C1086.33 758.619 1086.53 758.677 1086.72 758.677H1088.71C1088.97 758.677 1089.23 758.572 1089.42 758.384L1090.93 756.871L1089.27 753.556C1089.18 753.363 1089.02 753.206 1088.83 753.109L1085.52 751.452Z" fill="#711A08"/>
<path d="M1124.87 748.805C1124.8 748.763 1124.73 748.713 1124.68 748.655L1119.36 743.323L1113.46 747.839L1121.57 757.774L1123.23 753.611C1123.32 753.384 1123.49 753.197 1123.71 753.088L1126.76 751.558C1126.9 751.488 1127.06 751.452 1127.21 751.452H1129.27L1124.87 748.805Z" fill="#711A08"/>
<path d="M1141.89 743.323L1123.58 738.954C1123.2 738.864 1122.81 739 1122.56 739.303L1119.36 743.323L1124.68 748.655C1124.73 748.713 1124.8 748.763 1124.87 748.805L1129.27 751.452L1139.18 755.065L1136.71 752.59C1136.56 752.438 1136.46 752.239 1136.43 752.025L1135.69 746.79C1135.62 746.343 1135.87 745.908 1136.28 745.73L1141.89 743.323Z" fill="#711A08"/>
<path d="M1115.26 756.871L1110.25 755.196C1109.99 755.112 1109.72 755.131 1109.48 755.25L1106.25 756.871V759.985C1106.25 760.299 1106.39 760.595 1106.65 760.784L1109.47 762.907C1109.71 763.088 1110.02 763.151 1110.31 763.078L1113.19 762.358C1113.36 762.314 1113.52 762.222 1113.65 762.094L1114.97 760.777C1115.15 760.589 1115.26 760.335 1115.26 760.07V756.871Z" fill="#711A08"/>
<path d="M1097.71 757.154C1097.41 756.978 1097.05 756.964 1096.74 757.117L1093.63 758.677V762.576C1093.63 762.955 1093.84 763.301 1094.18 763.47L1096.83 764.798C1097.09 764.927 1097.39 764.939 1097.65 764.833L1101.11 763.445C1101.49 763.293 1101.74 762.926 1101.74 762.517V759.581L1097.71 757.154Z" fill="#711A08"/>
<path d="M1129.27 755.065V751.452H1127.21C1127.06 751.452 1126.9 751.488 1126.76 751.558L1123.71 753.088C1123.49 753.197 1123.32 753.384 1123.23 753.611L1121.57 757.774L1124.68 760.112C1124.98 760.34 1125.39 760.376 1125.73 760.206L1128.31 758.914C1128.6 758.766 1128.8 758.482 1128.85 758.155L1129.27 755.065Z" fill="#711A08"/>
<path d="M1136.43 752.025C1136.46 752.239 1136.56 752.438 1136.71 752.59L1139.18 755.065L1143.65 753.424C1143.93 753.319 1144.15 753.09 1144.25 752.801L1144.88 750.91C1144.96 750.677 1144.95 750.424 1144.85 750.199L1141.89 743.323L1136.28 745.73C1135.87 745.908 1135.62 746.343 1135.69 746.79L1136.43 752.025Z" fill="#711A08"/>
<path d="M1085.52 751.452L1092.73 742.419L1081.91 750.548L1085.52 751.452Z" fill="#020000"/>
<path d="M1121.57 757.774L1113.46 747.839L1115.26 756.871L1121.57 757.774Z" fill="black"/>
<path d="M1106.25 756.871V747.839L1101.74 759.581L1106.25 756.871Z" fill="black"/>
<path d="M1093.63 758.677L1097.23 749.645L1090.93 756.871L1093.63 758.677Z" fill="black"/>
<path d="M1085.52 751.452L1083.88 753.91C1083.77 754.074 1083.72 754.266 1083.72 754.464V756.336C1083.72 756.67 1083.88 756.982 1084.16 757.168L1086.17 758.509C1086.33 758.619 1086.53 758.677 1086.72 758.677H1088.71C1088.97 758.677 1089.23 758.572 1089.42 758.384L1090.93 756.871M1085.52 751.452L1088.83 753.109C1089.02 753.206 1089.18 753.363 1089.27 753.556L1090.93 756.871M1085.52 751.452L1092.73 742.419M1085.52 751.452L1081.91 750.548M1090.93 756.871L1097.23 749.645M1090.93 756.871L1093.63 758.677M1074.7 745.129H1078.67C1079.01 745.129 1079.32 745.296 1079.51 745.575L1080.94 747.727C1080.99 747.801 1081.03 747.881 1081.05 747.966L1081.91 750.548M1074.7 745.129L1072.29 747.546C1072.11 747.733 1072 747.987 1072 748.252V750.216C1072 750.432 1072.07 750.642 1072.2 750.815L1074.56 753.972C1074.66 754.097 1074.78 754.198 1074.91 754.267L1075.99 754.804C1076.31 754.965 1076.69 754.941 1076.99 754.741L1079.13 753.313C1079.18 753.276 1079.23 753.235 1079.28 753.188L1081.91 750.548M1074.7 745.129L1080 739.825C1080.07 739.748 1080.16 739.685 1080.26 739.637L1085 737.261C1085.32 737.099 1085.7 737.123 1086 737.323L1088.22 738.806L1092.73 742.419M1081.91 750.548L1092.73 742.419M1141.89 743.323L1123.58 738.954C1123.2 738.864 1122.81 739 1122.56 739.303L1119.36 743.323M1141.89 743.323L1136.28 745.73C1135.87 745.908 1135.62 746.343 1135.69 746.79L1136.43 752.025C1136.46 752.239 1136.56 752.438 1136.71 752.59L1139.18 755.065M1141.89 743.323L1144.85 750.199C1144.95 750.424 1144.96 750.677 1144.88 750.91L1144.25 752.801C1144.15 753.09 1143.93 753.319 1143.65 753.424L1139.18 755.065M1119.36 743.323L1124.68 748.655C1124.73 748.713 1124.8 748.763 1124.87 748.805L1129.27 751.452M1119.36 743.323L1113.46 747.839M1129.27 751.452V755.065L1128.85 758.155C1128.8 758.482 1128.6 758.766 1128.31 758.914L1125.73 760.206C1125.39 760.376 1124.98 760.34 1124.68 760.112L1121.57 757.774M1129.27 751.452H1127.21C1127.06 751.452 1126.9 751.488 1126.76 751.558L1123.71 753.088C1123.49 753.197 1123.32 753.384 1123.23 753.611L1121.57 757.774M1129.27 751.452L1139.18 755.065M1113.46 747.839L1121.57 757.774M1113.46 747.839L1115.26 756.871M1113.46 747.839H1106.25M1121.57 757.774L1115.26 756.871M1115.26 756.871L1110.25 755.196C1109.99 755.112 1109.72 755.131 1109.48 755.25L1106.25 756.871M1115.26 756.871V760.07C1115.26 760.335 1115.15 760.589 1114.97 760.777L1113.65 762.094C1113.52 762.222 1113.36 762.314 1113.19 762.358L1110.31 763.078C1110.02 763.151 1109.71 763.088 1109.47 762.907L1106.65 760.784C1106.39 760.595 1106.25 760.299 1106.25 759.985V756.871M1106.25 756.871V747.839M1106.25 756.871L1101.74 759.581M1106.25 747.839L1101.74 745.129M1106.25 747.839L1101.74 759.581M1101.74 745.129L1097.23 749.645M1101.74 745.129C1099.28 744.071 1097.23 741.516 1092.73 742.419M1093.63 758.677L1096.74 757.117C1097.05 756.964 1097.41 756.978 1097.71 757.154L1101.74 759.581M1093.63 758.677L1097.23 749.645M1093.63 758.677V762.576C1093.63 762.955 1093.84 763.301 1094.18 763.47L1096.83 764.798C1097.09 764.927 1097.39 764.939 1097.65 764.833L1101.11 763.445C1101.49 763.293 1101.74 762.926 1101.74 762.517V759.581" stroke="black"/>
<path d="M1109.24 699.25L1106.5 694.736V698.832C1106.5 699.1 1106.39 699.356 1106.2 699.544L1105.38 700.361C1104.99 700.746 1104.36 700.746 1103.97 700.361L1101.93 698.347V705.031C1101.93 705.367 1101.76 705.681 1101.48 705.866L1099.19 707.375L1101.9 714.511C1101.92 714.569 1101.95 714.623 1101.98 714.676L1104.57 718.937C1104.64 719.052 1104.68 719.18 1104.7 719.313C1105 721.486 1105.38 725.633 1104.67 726.333L1100.1 730.847V735.984C1100.1 736.167 1100.15 736.347 1100.25 736.503L1102.84 740.778L1104.57 734.813C1104.64 734.584 1104.78 734.386 1104.98 734.255L1110.16 730.847L1112.9 724.528L1110.19 716.497C1110.17 716.434 1110.14 716.374 1110.11 716.316L1106.7 710.435C1106.57 710.21 1106.54 709.942 1106.6 709.689L1108.33 702.861L1109.24 699.25Z" fill="#FF823C"/>
<path d="M1116.55 710.083V705.569L1114.67 707.431C1114.22 707.871 1113.49 707.798 1113.14 707.279L1112.23 705.94C1112.07 705.704 1112.02 705.412 1112.09 705.136L1112.83 702.229C1112.87 702.052 1112.97 701.891 1113.09 701.762L1115.44 699.446C1115.57 699.318 1115.66 699.157 1115.71 698.98L1116.47 695.956C1116.52 695.75 1116.51 695.533 1116.43 695.336L1114.87 691.478C1114.77 691.251 1114.6 691.065 1114.38 690.956L1111.63 689.595C1111.28 689.426 1111.07 689.079 1111.07 688.698V686.85C1111.07 686.693 1111.11 686.538 1111.18 686.398L1112.9 683L1109.46 687.239C1109.32 687.417 1109.24 687.639 1109.24 687.868V691.61C1109.24 691.877 1109.35 692.134 1109.54 692.321L1111.42 694.181C1111.75 694.506 1111.81 695.016 1111.57 695.411L1109.24 699.25L1108.33 702.861L1106.6 709.689C1106.54 709.942 1106.57 710.21 1106.7 710.435L1110.11 716.316C1110.14 716.374 1110.17 716.434 1110.19 716.497L1112.9 724.528V715.806C1112.9 715.607 1112.96 715.412 1113.07 715.246L1116.55 710.083Z" fill="#FF823C"/>
<path d="M1099.19 707.375L1094.92 703.155C1094.73 702.967 1094.62 702.711 1094.62 702.443V697.799C1094.62 697.569 1094.7 697.347 1094.84 697.169L1098.05 693.206C1098.2 693.028 1098.28 692.806 1098.28 692.576V689.319L1094.69 695.523C1094.64 695.6 1094.59 695.671 1094.53 695.733L1092.11 698.12C1091.96 698.268 1091.86 698.459 1091.83 698.665L1091.02 703.439C1090.98 703.65 1091.02 703.867 1091.11 704.058L1094.17 710.083L1095.53 713.694L1094.63 721.701C1094.63 721.78 1094.63 721.859 1094.64 721.938L1095.52 728.913C1095.53 728.998 1095.55 729.082 1095.58 729.162L1097.36 733.556L1100.1 730.847L1104.67 726.333C1105.38 725.633 1105 721.486 1104.7 719.313C1104.68 719.18 1104.64 719.052 1104.57 718.937L1101.98 714.676C1101.95 714.623 1101.92 714.569 1101.9 714.511L1099.19 707.375Z" fill="#FF823C"/>
<path d="M1095.53 713.694L1091.88 719.111L1089.25 727.755C1089.18 728.001 1089.2 728.267 1089.32 728.497L1091.67 733.15C1091.8 733.408 1091.82 733.709 1091.71 733.977L1090.05 738.069L1091.88 742.583L1095.08 743.486L1097.36 733.556L1095.58 729.162C1095.55 729.082 1095.53 728.998 1095.52 728.913L1094.64 721.938C1094.63 721.859 1094.63 721.78 1094.63 721.701L1095.53 713.694Z" fill="#FF823C"/>
<path d="M1124.78 720.917L1126.6 714.597L1128.23 710.577C1128.36 710.268 1128.32 709.918 1128.13 709.642L1126.6 707.375L1124.01 703.1C1123.91 702.944 1123.86 702.764 1123.86 702.581V698.347L1121.35 703.312C1121.21 703.596 1121.21 703.932 1121.35 704.215L1122.84 707.162C1122.91 707.302 1122.95 707.457 1122.95 707.614V709.747C1122.95 709.965 1122.88 710.177 1122.74 710.351L1120.21 713.694V720.775C1120.21 720.869 1120.19 720.962 1120.17 721.053L1118.38 727.236L1124.78 720.917Z" fill="#FF823C"/>
<path d="M1098.19 744.364C1098.25 744.381 1098.3 744.403 1098.36 744.43L1101.85 746.154C1101.9 746.181 1101.96 746.203 1102.02 746.219L1103.76 746.71L1102.84 740.778L1100.25 736.503C1100.15 736.347 1100.1 736.167 1100.1 735.984V730.847L1097.36 733.556L1095.08 743.486L1098.19 744.364Z" fill="#FFA53C"/>
<path fill-rule="evenodd" clip-rule="evenodd" d="M1080.91 736.264L1080.01 730.93C1080 730.875 1080 730.819 1080 730.763V727.431C1080 727.302 1080.02 727.175 1080.07 727.056L1081.79 722.819C1081.81 722.755 1081.85 722.693 1081.89 722.635L1083.56 720.156C1083.62 720.062 1083.7 719.979 1083.79 719.912L1087.07 717.48C1087.23 717.366 1087.35 717.21 1087.41 717.031L1090.05 710.083L1090.97 714.597L1091.88 719.111L1089.25 727.755C1089.18 728.001 1089.2 728.267 1089.32 728.497L1091.67 733.15C1091.8 733.408 1091.82 733.709 1091.71 733.977L1090.05 738.069L1086.9 734.177C1086.61 733.814 1086.1 733.703 1085.68 733.91L1080.91 736.264Z" fill="#FF823C"/>
<path d="M1080.91 736.264L1087.11 741.513C1087.24 741.623 1087.4 741.698 1087.56 741.731L1091.88 742.583L1090.05 738.069L1086.9 734.177C1086.61 733.814 1086.1 733.703 1085.68 733.91L1080.91 736.264Z" fill="#FFA53C"/>
<path fill-rule="evenodd" clip-rule="evenodd" d="M1113.81 739.875V733.556L1118.38 727.236L1124.78 720.917V720.917C1125.5 720.561 1126.3 721.212 1126.1 721.99L1125.69 723.625L1124.78 730.847V739.875L1119.29 744.389V733.556L1113.81 739.875Z" fill="#FF823C"/>
<path d="M1113.81 748L1119.29 744.389V733.556L1113.81 739.875V748Z" fill="#FFA53C"/>
<path fill-rule="evenodd" clip-rule="evenodd" d="M1113.81 733.556V739.875L1108.72 738.197C1108.47 738.115 1108.2 738.135 1107.96 738.251L1102.84 740.778L1104.57 734.813C1104.64 734.584 1104.78 734.386 1104.98 734.255L1110.16 730.847L1112.9 724.528V715.806C1112.9 715.607 1112.96 715.412 1113.07 715.246L1116.55 710.083L1120.21 713.694V720.775C1120.21 720.869 1120.19 720.962 1120.17 721.053L1118.38 727.236L1113.81 733.556Z" fill="#FF823C"/>
<path d="M1108.19 747.962C1108.28 747.987 1108.37 748 1108.47 748H1113.81V739.875L1108.72 738.197C1108.47 738.115 1108.2 738.135 1107.96 738.251L1102.84 740.778L1103.76 746.71L1108.19 747.962Z" fill="#FFA53C"/>
<path d="M1124.78 739.875H1126.97C1127.31 739.875 1127.63 739.699 1127.81 739.41L1132.09 732.653L1131.42 732.817C1130.48 733.049 1129.79 731.942 1130.42 731.202L1132.67 728.531C1132.88 728.285 1132.95 727.954 1132.87 727.641L1132.13 724.697C1132.1 724.585 1132.05 724.479 1131.99 724.383L1130.33 721.931C1130.28 721.857 1130.24 721.776 1130.22 721.692L1129.34 719.111V723.461C1129.34 723.57 1129.36 723.678 1129.4 723.781L1129.81 725.014C1130.03 725.662 1129.55 726.333 1128.87 726.333H1128.05C1127.72 726.333 1127.41 726.168 1127.22 725.893L1125.69 723.625L1124.78 730.847V739.875Z" fill="#FFA53C"/>
<path d="M1080.91 736.264L1087.11 741.513C1087.24 741.623 1087.4 741.698 1087.56 741.731L1091.88 742.583M1080.91 736.264L1080.01 730.93C1080 730.875 1080 730.819 1080 730.763V727.431C1080 727.302 1080.02 727.175 1080.07 727.056L1081.79 722.819C1081.81 722.755 1081.85 722.693 1081.89 722.635L1083.56 720.156C1083.62 720.062 1083.7 719.979 1083.79 719.912L1087.07 717.48C1087.23 717.366 1087.35 717.21 1087.41 717.031L1090.05 710.083L1090.97 714.597L1091.88 719.111M1080.91 736.264L1085.68 733.91C1086.1 733.703 1086.61 733.814 1086.9 734.177L1090.05 738.069M1091.88 742.583L1090.05 738.069M1091.88 742.583L1095.08 743.486M1113.81 748H1108.47C1108.37 748 1108.28 747.987 1108.19 747.962L1103.76 746.71M1113.81 748L1119.29 744.389M1113.81 748V739.875M1119.29 744.389L1124.78 739.875M1119.29 744.389V733.556L1113.81 739.875M1124.78 739.875H1126.97C1127.31 739.875 1127.63 739.699 1127.81 739.41L1132.09 732.653L1131.42 732.817C1130.48 733.049 1129.79 731.942 1130.42 731.202L1132.67 728.531C1132.88 728.285 1132.95 727.954 1132.87 727.641L1132.13 724.697C1132.1 724.585 1132.05 724.479 1131.99 724.383L1130.33 721.931C1130.28 721.857 1130.24 721.776 1130.22 721.692L1129.34 719.111M1124.78 739.875V730.847L1125.69 723.625M1129.34 719.111L1131.17 716.403M1129.34 719.111V723.461C1129.34 723.57 1129.36 723.678 1129.4 723.781L1129.81 725.014C1130.03 725.662 1129.55 726.333 1128.87 726.333H1128.05C1127.72 726.333 1127.41 726.168 1127.22 725.893L1125.69 723.625M1125.69 723.625L1126.1 721.99C1126.3 721.212 1125.5 720.561 1124.78 720.917V720.917M1124.78 720.917L1126.6 714.597L1128.23 710.577C1128.36 710.268 1128.32 709.918 1128.13 709.642L1126.6 707.375L1124.01 703.1C1123.91 702.944 1123.86 702.764 1123.86 702.581V698.347L1121.35 703.312C1121.21 703.596 1121.21 703.932 1121.35 704.215L1122.84 707.162C1122.91 707.302 1122.95 707.457 1122.95 707.614V709.747C1122.95 709.965 1122.88 710.177 1122.74 710.351L1120.21 713.694M1124.78 720.917L1118.38 727.236M1120.21 713.694L1116.55 710.083M1120.21 713.694V720.775C1120.21 720.869 1120.19 720.962 1120.17 721.053L1118.38 727.236M1116.55 710.083V705.569L1114.67 707.431C1114.22 707.871 1113.49 707.798 1113.14 707.279L1112.23 705.94C1112.07 705.704 1112.02 705.412 1112.09 705.136L1112.83 702.229C1112.87 702.052 1112.97 701.891 1113.09 701.762L1115.44 699.446C1115.57 699.318 1115.66 699.157 1115.71 698.98L1116.47 695.956C1116.52 695.75 1116.51 695.533 1116.43 695.336L1114.87 691.478C1114.77 691.251 1114.6 691.065 1114.38 690.956L1111.63 689.595C1111.28 689.426 1111.07 689.079 1111.07 688.698V686.85C1111.07 686.693 1111.11 686.538 1111.18 686.398L1112.9 683L1109.46 687.239C1109.32 687.417 1109.24 687.639 1109.24 687.868V691.61C1109.24 691.877 1109.35 692.134 1109.54 692.321L1111.42 694.181C1111.75 694.506 1111.81 695.016 1111.57 695.411L1109.24 699.25M1116.55 710.083L1113.07 715.246C1112.96 715.412 1112.9 715.607 1112.9 715.806V724.528M1109.24 699.25L1106.5 694.736V698.832C1106.5 699.1 1106.39 699.356 1106.2 699.544L1105.38 700.361C1104.99 700.746 1104.36 700.746 1103.97 700.361L1101.93 698.347V705.031C1101.93 705.367 1101.76 705.681 1101.48 705.866L1099.19 707.375M1109.24 699.25L1108.33 702.861L1106.6 709.689C1106.54 709.942 1106.57 710.21 1106.7 710.435L1110.11 716.316C1110.14 716.374 1110.17 716.434 1110.19 716.497L1112.9 724.528M1099.19 707.375L1094.92 703.155C1094.73 702.967 1094.62 702.711 1094.62 702.443V697.799C1094.62 697.569 1094.7 697.347 1094.84 697.169L1098.05 693.206C1098.2 693.028 1098.28 692.806 1098.28 692.576V689.319L1094.69 695.523C1094.64 695.6 1094.59 695.671 1094.53 695.733L1092.11 698.12C1091.96 698.268 1091.86 698.459 1091.83 698.665L1091.02 703.439C1090.98 703.65 1091.02 703.867 1091.11 704.058L1094.17 710.083L1095.53 713.694M1099.19 707.375L1101.9 714.511C1101.92 714.569 1101.95 714.623 1101.98 714.676L1104.57 718.937C1104.64 719.052 1104.68 719.18 1104.7 719.313C1105 721.486 1105.38 725.633 1104.67 726.333M1095.53 713.694L1091.88 719.111M1095.53 713.694L1094.63 721.701C1094.63 721.78 1094.63 721.859 1094.64 721.938L1095.52 728.913C1095.53 728.998 1095.55 729.082 1095.58 729.162L1097.36 733.556M1091.88 719.111L1089.25 727.755C1089.18 728.001 1089.2 728.267 1089.32 728.497L1091.67 733.15C1091.8 733.408 1091.82 733.709 1091.71 733.977L1090.05 738.069M1095.08 743.486L1098.19 744.364C1098.25 744.381 1098.3 744.403 1098.36 744.43L1101.85 746.154C1101.9 746.181 1101.96 746.203 1102.02 746.219L1103.76 746.71M1095.08 743.486L1097.36 733.556M1097.36 733.556C1098.09 732.839 1099.08 731.858 1100.1 730.847M1097.36 733.556L1100.1 730.847M1104.67 726.333C1104.19 726.81 1102.09 728.885 1100.1 730.847M1104.67 726.333L1100.1 730.847M1100.1 730.847V735.984C1100.1 736.167 1100.15 736.347 1100.25 736.503L1102.84 740.778M1102.84 740.778L1103.76 746.71M1102.84 740.778L1104.57 734.813C1104.64 734.584 1104.78 734.386 1104.98 734.255L1110.16 730.847M1102.84 740.778L1107.96 738.251C1108.2 738.135 1108.47 738.115 1108.72 738.197L1113.81 739.875M1110.16 730.847L1112.9 724.528M1110.16 730.847L1113.81 733.556M1118.38 727.236L1113.81 733.556M1113.81 733.556V739.875" stroke="#FF612F"/>
<path d="M1062.5 757L1036 765.368L1060.56 763.437L1065.08 768.586L1062.5 784.034L1070.9 771.161L1090.93 776.31L1094.17 784.034L1089.64 794.977L1102.57 784.034H1131L1144.58 794.977L1152.33 813V791.759L1137.47 778.241L1152.33 771.161L1178.83 768.586L1184 762.793H1149.1L1127.13 771.161H1098.04L1074.13 765.368L1062.5 757Z" fill="#FF975D" stroke="#FF975D"/>
<path d="M154.173 781L200.482 775.041L207.789 741.668L212.356 720.81L220.667 663.6L224.823 615.926L226.011 584.341V517L220.667 557.524L212.356 605.199L200.482 647.51L186.827 697.569L170.203 741.668L154.173 781Z" fill="black"/>
<path d="M235.51 557.524L226.011 517L235.51 584.341L246.196 630.824L261.039 682.67L276.475 732.133L293.692 761.93L340 752.395L330.501 741.668L309.128 711.275L287.161 670.752L258.664 605.199L235.51 557.524Z" fill="black"/>
<path d="M200.482 775.041L276.475 764.352L252.133 756.313L207.789 741.668L200.482 775.041Z" fill="#370047"/>
<path d="M220.667 663.6L212.356 720.81L207.789 741.668L252.133 756.313L242.634 720.81L235.51 676.115L224.823 615.926L220.667 663.6Z" fill="#370047"/>
<path d="M181.483 557.524L145.862 598.047L108.459 630.824L75.8056 647.51L47.3082 654.065L29.4974 641.551L9.31173 605.199L14.655 654.065L36.028 670.752L70.4623 676.115L101.335 663.6L136.956 630.824L160.704 598.047L181.483 557.524Z" fill="#370047"/>
<path d="M170.203 615.926L186.827 584.341L145.862 641.551L124.489 663.6L94.2102 697.569L53.8389 726.174L14.655 732.133H1V752.395H9.31173H36.028L70.4623 741.668L108.459 705.912L136.956 663.6L170.203 615.926Z" fill="#370047"/>
<path fill-rule="evenodd" clip-rule="evenodd" d="M116.177 781L53.8389 775.041L1 764.352V752.395H9.31173H36.028L70.4623 741.668L108.459 705.912L136.956 663.6L170.203 615.926L186.827 584.341L145.862 641.551L124.489 663.6L94.2102 697.569L53.8389 726.174L14.655 732.133H1V564.675L29.4974 570.038H70.4623L136.956 557.524L186.827 539.646L226.011 517L220.667 557.524L207.789 605.199L195.732 637.379L179.702 685.054L163.673 738.093L154.173 761.93L139.331 773.849L116.177 781ZM181.483 557.524L145.862 598.047L108.459 630.824L75.8056 647.51L47.3082 654.065L29.4974 641.551L9.31173 605.199L14.655 654.065L36.028 670.752L70.4623 676.115L101.335 663.6L136.956 630.824L160.704 598.047L181.483 557.524Z" fill="black"/>
<path d="M154.173 781L170.203 741.668L186.827 697.569L200.482 647.51L212.356 605.199L220.667 557.524L207.789 605.199L195.732 637.379L179.702 685.054L163.673 738.093L154.173 761.93L139.331 773.849L116.177 781H154.173Z" fill="#6D6D6D"/>
<path fill-rule="evenodd" clip-rule="evenodd" d="M235.51 584.341L242.634 637.379L255.102 697.569L276.475 764.352L293.692 761.93L276.475 732.133L261.039 682.67L246.196 630.824L235.51 584.341Z" fill="#6D6D6D"/>
<path d="M226.011 584.341L224.823 615.926L235.51 676.115L242.634 720.81L252.133 756.313L276.475 764.352L255.102 697.569L242.634 637.379L235.51 584.341L226.011 517V584.341Z" fill="black"/>
<path d="M226.011 517L235.51 557.524L258.664 605.199L287.161 670.752L309.128 711.275L330.501 741.668L340 752.395L293.692 761.93M226.011 517L220.667 557.524M226.011 517V584.341L224.823 615.926M226.011 517L186.827 539.646L136.956 557.524L70.4623 570.038H29.4974L1 564.675V732.133M226.011 517L235.51 584.341M293.692 761.93L276.475 732.133L261.039 682.67L246.196 630.824L235.51 584.341M293.692 761.93L276.475 764.352M200.482 775.041L154.173 781M200.482 775.041L276.475 764.352M200.482 775.041L207.789 741.668M154.173 781L170.203 741.668L186.827 697.569L200.482 647.51L212.356 605.199L220.667 557.524M154.173 781H116.177M220.667 557.524L207.789 605.199L195.732 637.379L179.702 685.054L163.673 738.093L154.173 761.93L139.331 773.849L116.177 781M224.823 615.926L220.667 663.6L212.356 720.81L207.789 741.668M224.823 615.926L235.51 676.115L242.634 720.81L252.133 756.313M235.51 584.341L242.634 637.379L255.102 697.569L276.475 764.352M276.475 764.352L252.133 756.313M207.789 741.668L252.133 756.313M116.177 781L53.8389 775.041L1 764.352V752.395M1 752.395H9.31173H36.028L70.4623 741.668L108.459 705.912L136.956 663.6L170.203 615.926L186.827 584.341L145.862 641.551L124.489 663.6L94.2102 697.569L53.8389 726.174L14.655 732.133H1M1 752.395V732.133M181.483 557.524L145.862 598.047L108.459 630.824L75.8056 647.51L47.3082 654.065L29.4974 641.551L9.31173 605.199L14.655 654.065L36.028 670.752L70.4623 676.115L101.335 663.6L136.956 630.824L160.704 598.047L181.483 557.524Z" stroke="black"/>
<path d="M471.5 755H519L575.5 760.5L629 764.5H694C696.4 764.5 740.667 758.167 762.5 755L800 751H844H904L957 744.5L908.5 760.5H847.5H800L762.5 766L694 773.5H629L575.5 770.5L526 765.5L495.5 760.5L471.5 755Z" fill="#AF69FF" fill-opacity="0.4"/>
<path d="M629 764.5L575.5 760.5L519 755H471.5L495.5 760.5L526 765.5L575.5 770.5L629 773.5H694L762.5 766L800 760.5H847.5H908.5L957 744.5L904 751M629 764.5C649.667 764.5 691.6 764.5 694 764.5M629 764.5H694M694 764.5C696.4 764.5 740.667 758.167 762.5 755L800 751M800 751C813.333 751 840.8 751 844 751M800 751H844M844 751C847.2 751 885.333 751 904 751M844 751H904" stroke="black"/>
<path d="M186.5 805L203.5 784.5L283.5 770.5L333 764.5L398 777L337 773.5L299 777L337 797.5L290.5 784.5L215 792.5L234 819.5L209 797.5L186.5 805Z" fill="#AF69FF" fill-opacity="0.4" stroke="black"/>
</g>
<defs>
<clipPath id="clip0_173_78">
<rect width="1440" height="1024" fill="white"/>
</clipPath>
</defs>
</svg>
