<svg width="1440" height="1536" viewBox="0 0 1440 1536" fill="none" xmlns="http://www.w3.org/2000/svg">
<g clip-path="url(#clip0_278_12)">
<path d="M0 1289.49C0 1285.61 2.47887 1282.17 6.15395 1280.95L72.1144 1258.96C73.0321 1258.66 73.9932 1258.5 74.9605 1258.5H129.5H184L235.5 1252.5H279.094C279.696 1252.5 280.297 1252.56 280.888 1252.68L309.5 1258.5L345 1264L373 1271L410.642 1277.19C411.867 1277.4 413.121 1277.34 414.325 1277.04L464.407 1264.28C465.133 1264.09 465.879 1264 466.628 1264H523.5L603.5 1271H681L803 1258.5H887.5L949.5 1252.5H1010L1052.3 1258.4C1052.77 1258.47 1053.23 1258.57 1053.68 1258.71L1092.28 1270.48C1093.42 1270.82 1094.61 1270.94 1095.79 1270.82L1133.72 1267.08C1134.24 1267.03 1134.75 1266.93 1135.25 1266.79L1163.05 1259.04C1164.33 1258.69 1165.68 1258.62 1167 1258.85L1213.24 1266.87C1213.74 1266.96 1214.26 1267 1214.77 1267H1349L1430.16 1259.42C1435.44 1258.93 1440 1263.08 1440 1268.38V1527C1440 1531.97 1435.97 1536 1431 1536H9.00003C4.02947 1536 0 1531.97 0 1527V1289.49Z" fill="black" stroke="black" stroke-width="3"/>
<path fill-rule="evenodd" clip-rule="evenodd" d="M1192.43 1269C1192.28 1269 1192.13 1268.97 1192 1268.91L1181.92 1264.26C1181.64 1264.13 1181.43 1263.88 1181.37 1263.58L1179.09 1253.75C1179.03 1253.49 1179.08 1253.21 1179.23 1252.99L1184.61 1244.53C1184.72 1244.36 1184.87 1244.23 1185.05 1244.15L1191.91 1241.11C1192.1 1241.02 1192.31 1241 1192.52 1241.04L1206.1 1243.9C1206.87 1244.06 1207.52 1243.31 1207.24 1242.57L1205.65 1238.33C1205.5 1237.94 1205.62 1237.5 1205.94 1237.22L1210.91 1232.97C1211.09 1232.82 1211.2 1232.61 1211.24 1232.38L1217.78 1195.64L1221.42 1184.03C1221.64 1183.31 1221.03 1182.61 1220.29 1182.74L1199.43 1186.46C1199.05 1186.53 1198.74 1186.81 1198.64 1187.19L1196.38 1195.44C1196.35 1195.57 1196.28 1195.7 1196.2 1195.8L1193.16 1199.59C1193.07 1199.71 1193.01 1199.84 1192.97 1199.98L1192.31 1202.61C1192.24 1202.9 1192.05 1203.14 1191.79 1203.27L1191.2 1203.56C1190.81 1203.76 1190.35 1203.68 1190.04 1203.38L1190.02 1203.35C1189.83 1203.17 1189.73 1202.91 1189.73 1202.65V1201.41V1199.35C1189.73 1199.09 1189.83 1198.83 1190.02 1198.65L1191.22 1197.45C1191.7 1196.97 1191.57 1196.15 1190.96 1195.85L1190.76 1195.75C1190.62 1195.68 1190.47 1195.64 1190.32 1195.64H1189.08C1188.52 1195.64 1188.08 1196.09 1188.08 1196.64V1198.12V1199.06C1188.08 1199.38 1187.74 1199.59 1187.45 1199.45V1199.45C1187.09 1199.27 1186.7 1199.63 1186.85 1200L1187.92 1202.68C1188.02 1202.91 1187.96 1203.17 1187.79 1203.35V1203.35C1187.51 1203.63 1187.05 1203.58 1186.83 1203.26L1186.64 1202.96C1186.21 1202.33 1185.25 1202.46 1185.01 1203.18L1184.91 1203.49C1184.82 1203.74 1184.84 1204.02 1184.96 1204.26L1185.41 1205.16C1185.53 1205.38 1185.48 1205.65 1185.3 1205.83V1205.83C1185.04 1206.1 1184.59 1206.04 1184.39 1205.72L1182.44 1202.47C1182.35 1202.32 1182.3 1202.14 1182.3 1201.96V1198.35C1182.3 1198.2 1182.34 1198.04 1182.41 1197.9L1184.67 1193.38C1184.74 1193.24 1184.78 1193.09 1184.78 1192.93V1191.11C1184.78 1190.85 1184.88 1190.59 1185.07 1190.4L1195.32 1180.16C1195.44 1180.04 1195.59 1179.96 1195.75 1179.91L1201.18 1178.36C1201.25 1178.34 1201.31 1178.32 1201.37 1178.28L1213.38 1171.89C1213.56 1171.79 1213.71 1171.64 1213.8 1171.45L1214.29 1170.48C1214.41 1170.23 1214.64 1170.05 1214.91 1169.97L1225.9 1166.83C1225.99 1166.81 1226.08 1166.79 1226.17 1166.79H1238.07C1238.29 1166.79 1238.5 1166.88 1238.65 1167.04V1167.04C1238.98 1167.36 1239.5 1167.36 1239.82 1167.04L1240.3 1166.55C1240.63 1166.23 1240.63 1165.71 1240.3 1165.39V1165.39C1240.15 1165.23 1240.06 1165.02 1240.06 1164.8V1163.21C1240.06 1162.87 1239.9 1162.56 1239.62 1162.38L1238.03 1161.32C1237.75 1161.14 1237.59 1160.82 1237.59 1160.49V1160.11C1237.59 1159.91 1237.65 1159.72 1237.75 1159.55L1239.69 1156.63C1239.92 1156.3 1239.92 1155.86 1239.69 1155.52L1238.67 1153.99C1238.51 1153.75 1238.46 1153.44 1238.54 1153.16L1240.02 1147.97C1240.05 1147.88 1240.06 1147.79 1240.06 1147.7V1145.6C1240.06 1145.44 1240.1 1145.29 1240.17 1145.15L1241.62 1142.25C1241.68 1142.13 1241.71 1141.99 1241.71 1141.86V1140.74C1241.71 1140.59 1241.56 1140.5 1241.42 1140.56V1140.56C1241.21 1140.67 1241.02 1140.39 1241.2 1140.23L1247.34 1134.78C1247.44 1134.69 1247.56 1134.63 1247.68 1134.58L1249.86 1133.86C1249.93 1133.84 1250 1133.82 1250.08 1133.81L1258.9 1133.01C1258.99 1133 1259.09 1133.01 1259.18 1133.03L1263.17 1133.82L1267.94 1135.41C1268.06 1135.45 1268.17 1135.51 1268.26 1135.59L1272.91 1139.46C1273.02 1139.55 1273.1 1139.66 1273.16 1139.78L1275.47 1144.39C1275.52 1144.49 1275.55 1144.59 1275.57 1144.7L1276.36 1150.24C1276.37 1150.29 1276.37 1150.33 1276.37 1150.38V1154.33C1276.37 1154.4 1276.36 1154.46 1276.35 1154.53L1275.57 1158.42C1275.55 1158.51 1275.53 1158.59 1275.49 1158.67L1273.47 1162.71C1273.24 1163.16 1273.39 1163.71 1273.81 1163.99L1275.46 1165.09C1275.52 1165.13 1275.57 1165.17 1275.62 1165.22L1282.15 1171.74L1286.22 1176.63C1286.26 1176.67 1286.29 1176.71 1286.31 1176.75L1291.17 1184.83C1291.2 1184.9 1291.24 1184.96 1291.26 1185.03L1294.5 1194.73C1294.51 1194.79 1294.53 1194.85 1294.54 1194.91L1296.16 1206.29C1296.17 1206.33 1296.17 1206.38 1296.17 1206.43V1217.07L1294.52 1229.44L1291.28 1242.41C1291.24 1242.55 1291.24 1242.7 1291.27 1242.85L1293.7 1254.99L1296.69 1266.93C1296.85 1267.56 1296.37 1268.18 1295.72 1268.18H1288.63C1288.21 1268.18 1287.83 1267.91 1287.69 1267.51L1284.42 1258.39C1284.15 1257.64 1283.16 1257.49 1282.68 1258.12L1281.52 1259.67C1281.39 1259.84 1281.32 1260.05 1281.32 1260.27V1262.95C1281.32 1263.13 1281.27 1263.31 1281.18 1263.47L1278.91 1267.25C1278.87 1267.32 1278.82 1267.38 1278.76 1267.44L1278.31 1267.89C1278.12 1268.07 1277.87 1268.18 1277.61 1268.18L1192.43 1269ZM1241.54 1232.31C1241.65 1232.05 1241.65 1231.77 1241.54 1231.51L1235.94 1218.72L1234.3 1232.6C1234.29 1232.69 1234.27 1232.77 1234.24 1232.86L1230.99 1240.98L1238.85 1237.83C1239.1 1237.73 1239.3 1237.54 1239.4 1237.3L1241.54 1232.31ZM1249.14 1188.22L1243.36 1184.93L1246.66 1191.52L1249.14 1188.22Z" fill="black" stroke="black"/>
<path d="M1116.26 1268.87L1114.46 1259.84H1107.25V1268.87L1110.48 1267.25C1110.72 1267.13 1110.99 1267.11 1111.25 1267.2L1116.26 1268.87Z" fill="#711A08"/>
<path d="M1107.25 1259.84L1102.74 1257.13L1098.23 1261.65L1094.63 1270.68L1097.74 1269.12C1098.05 1268.96 1098.41 1268.98 1098.71 1269.15L1102.74 1271.58L1107.25 1259.84Z" fill="#711A08"/>
<path d="M1089.83 1265.11C1090.02 1265.21 1090.18 1265.36 1090.27 1265.56L1091.93 1268.87L1098.23 1261.65L1102.74 1257.13C1100.28 1256.07 1098.23 1253.52 1093.73 1254.42L1086.52 1263.45L1089.83 1265.11Z" fill="#711A08"/>
<path d="M1075.7 1257.13H1079.67C1080.01 1257.13 1080.32 1257.3 1080.51 1257.58L1081.94 1259.73C1081.99 1259.8 1082.03 1259.88 1082.05 1259.97L1082.91 1262.55L1093.73 1254.42L1089.22 1250.81L1087 1249.32C1086.7 1249.12 1086.32 1249.1 1086 1249.26L1081.26 1251.64C1081.16 1251.69 1081.07 1251.75 1081 1251.82L1075.7 1257.13Z" fill="#711A08"/>
<path d="M1080.51 1257.58C1080.32 1257.3 1080.01 1257.13 1079.67 1257.13H1075.7L1073.29 1259.55C1073.11 1259.73 1073 1259.99 1073 1260.25V1262.22C1073 1262.43 1073.07 1262.64 1073.2 1262.81L1075.56 1265.97C1075.66 1266.1 1075.78 1266.2 1075.91 1266.27L1076.99 1266.8C1077.31 1266.97 1077.69 1266.94 1077.99 1266.74L1080.13 1265.31C1080.18 1265.28 1080.23 1265.23 1080.28 1265.19L1082.91 1262.55L1082.05 1259.97C1082.03 1259.88 1081.99 1259.8 1081.94 1259.73L1080.51 1257.58Z" fill="#711A08"/>
<path d="M1086.52 1263.45L1084.88 1265.91C1084.77 1266.07 1084.72 1266.27 1084.72 1266.46V1268.34C1084.72 1268.67 1084.88 1268.98 1085.16 1269.17L1087.17 1270.51C1087.33 1270.62 1087.53 1270.68 1087.72 1270.68H1089.71C1089.97 1270.68 1090.23 1270.57 1090.42 1270.38L1091.93 1268.87L1090.27 1265.56C1090.18 1265.36 1090.02 1265.21 1089.83 1265.11L1086.52 1263.45Z" fill="#711A08"/>
<path d="M1125.87 1260.81C1125.8 1260.76 1125.73 1260.71 1125.68 1260.65L1120.36 1255.32L1114.46 1259.84L1122.57 1269.77L1124.23 1265.61C1124.32 1265.38 1124.49 1265.2 1124.71 1265.09L1127.76 1263.56C1127.9 1263.49 1128.06 1263.45 1128.21 1263.45H1130.27L1125.87 1260.81Z" fill="#711A08"/>
<path d="M1142.89 1255.32L1124.58 1250.95C1124.2 1250.86 1123.81 1251 1123.56 1251.3L1120.36 1255.32L1125.68 1260.65C1125.73 1260.71 1125.8 1260.76 1125.87 1260.81L1130.27 1263.45L1140.18 1267.06L1137.71 1264.59C1137.56 1264.44 1137.46 1264.24 1137.43 1264.03L1136.69 1258.79C1136.62 1258.34 1136.87 1257.91 1137.28 1257.73L1142.89 1255.32Z" fill="#711A08"/>
<path d="M1116.26 1268.87L1111.25 1267.2C1110.99 1267.11 1110.72 1267.13 1110.48 1267.25L1107.25 1268.87V1271.98C1107.25 1272.3 1107.39 1272.59 1107.65 1272.78L1110.47 1274.91C1110.71 1275.09 1111.02 1275.15 1111.31 1275.08L1114.19 1274.36C1114.36 1274.31 1114.52 1274.22 1114.65 1274.09L1115.97 1272.78C1116.15 1272.59 1116.26 1272.34 1116.26 1272.07V1268.87Z" fill="#711A08"/>
<path d="M1098.71 1269.15C1098.41 1268.98 1098.05 1268.96 1097.74 1269.12L1094.63 1270.68V1274.58C1094.63 1274.95 1094.84 1275.3 1095.18 1275.47L1097.83 1276.8C1098.09 1276.93 1098.39 1276.94 1098.65 1276.83L1102.11 1275.45C1102.49 1275.29 1102.74 1274.93 1102.74 1274.52V1271.58L1098.71 1269.15Z" fill="#711A08"/>
<path d="M1130.27 1267.06V1263.45H1128.21C1128.06 1263.45 1127.9 1263.49 1127.76 1263.56L1124.71 1265.09C1124.49 1265.2 1124.32 1265.38 1124.23 1265.61L1122.57 1269.77L1125.68 1272.11C1125.98 1272.34 1126.39 1272.38 1126.73 1272.21L1129.31 1270.91C1129.6 1270.77 1129.8 1270.48 1129.85 1270.15L1130.27 1267.06Z" fill="#711A08"/>
<path d="M1137.43 1264.03C1137.46 1264.24 1137.56 1264.44 1137.71 1264.59L1140.18 1267.06L1144.65 1265.42C1144.93 1265.32 1145.15 1265.09 1145.25 1264.8L1145.88 1262.91C1145.96 1262.68 1145.95 1262.42 1145.85 1262.2L1142.89 1255.32L1137.28 1257.73C1136.87 1257.91 1136.62 1258.34 1136.69 1258.79L1137.43 1264.03Z" fill="#711A08"/>
<path d="M1086.52 1263.45L1093.73 1254.42L1082.91 1262.55L1086.52 1263.45Z" fill="#020000"/>
<path d="M1122.57 1269.77L1114.46 1259.84L1116.26 1268.87L1122.57 1269.77Z" fill="black"/>
<path d="M1107.25 1268.87V1259.84L1102.74 1271.58L1107.25 1268.87Z" fill="black"/>
<path d="M1094.63 1270.68L1098.23 1261.65L1091.93 1268.87L1094.63 1270.68Z" fill="black"/>
<path d="M1086.52 1263.45L1084.88 1265.91C1084.77 1266.07 1084.72 1266.27 1084.72 1266.46V1268.34C1084.72 1268.67 1084.88 1268.98 1085.16 1269.17L1087.17 1270.51C1087.33 1270.62 1087.53 1270.68 1087.72 1270.68H1089.71C1089.97 1270.68 1090.23 1270.57 1090.42 1270.38L1091.93 1268.87M1086.52 1263.45L1089.83 1265.11C1090.02 1265.21 1090.18 1265.36 1090.27 1265.56L1091.93 1268.87M1086.52 1263.45L1093.73 1254.42M1086.52 1263.45L1082.91 1262.55M1091.93 1268.87L1098.23 1261.65M1091.93 1268.87L1094.63 1270.68M1075.7 1257.13H1079.67C1080.01 1257.13 1080.32 1257.3 1080.51 1257.58L1081.94 1259.73C1081.99 1259.8 1082.03 1259.88 1082.05 1259.97L1082.91 1262.55M1075.7 1257.13L1073.29 1259.55C1073.11 1259.73 1073 1259.99 1073 1260.25V1262.22C1073 1262.43 1073.07 1262.64 1073.2 1262.81L1075.56 1265.97C1075.66 1266.1 1075.78 1266.2 1075.91 1266.27L1076.99 1266.8C1077.31 1266.97 1077.69 1266.94 1077.99 1266.74L1080.13 1265.31C1080.18 1265.28 1080.23 1265.23 1080.28 1265.19L1082.91 1262.55M1075.7 1257.13L1081 1251.82C1081.07 1251.75 1081.16 1251.69 1081.26 1251.64L1086 1249.26C1086.32 1249.1 1086.7 1249.12 1087 1249.32L1089.22 1250.81L1093.73 1254.42M1082.91 1262.55L1093.73 1254.42M1142.89 1255.32L1124.58 1250.95C1124.2 1250.86 1123.81 1251 1123.56 1251.3L1120.36 1255.32M1142.89 1255.32L1137.28 1257.73C1136.87 1257.91 1136.62 1258.34 1136.69 1258.79L1137.43 1264.03C1137.46 1264.24 1137.56 1264.44 1137.71 1264.59L1140.18 1267.06M1142.89 1255.32L1145.85 1262.2C1145.95 1262.42 1145.96 1262.68 1145.88 1262.91L1145.25 1264.8C1145.15 1265.09 1144.93 1265.32 1144.65 1265.42L1140.18 1267.06M1120.36 1255.32L1125.68 1260.65C1125.73 1260.71 1125.8 1260.76 1125.87 1260.81L1130.27 1263.45M1120.36 1255.32L1114.46 1259.84M1130.27 1263.45V1267.06L1129.85 1270.15C1129.8 1270.48 1129.6 1270.77 1129.31 1270.91L1126.73 1272.21C1126.39 1272.38 1125.98 1272.34 1125.68 1272.11L1122.57 1269.77M1130.27 1263.45H1128.21C1128.06 1263.45 1127.9 1263.49 1127.76 1263.56L1124.71 1265.09C1124.49 1265.2 1124.32 1265.38 1124.23 1265.61L1122.57 1269.77M1130.27 1263.45L1140.18 1267.06M1114.46 1259.84L1122.57 1269.77M1114.46 1259.84L1116.26 1268.87M1114.46 1259.84H1107.25M1122.57 1269.77L1116.26 1268.87M1116.26 1268.87L1111.25 1267.2C1110.99 1267.11 1110.72 1267.13 1110.48 1267.25L1107.25 1268.87M1116.26 1268.87V1272.07C1116.26 1272.34 1116.15 1272.59 1115.97 1272.78L1114.65 1274.09C1114.52 1274.22 1114.36 1274.31 1114.19 1274.36L1111.31 1275.08C1111.02 1275.15 1110.71 1275.09 1110.47 1274.91L1107.65 1272.78C1107.39 1272.59 1107.25 1272.3 1107.25 1271.98V1268.87M1107.25 1268.87V1259.84M1107.25 1268.87L1102.74 1271.58M1107.25 1259.84L1102.74 1257.13M1107.25 1259.84L1102.74 1271.58M1102.74 1257.13L1098.23 1261.65M1102.74 1257.13C1100.28 1256.07 1098.23 1253.52 1093.73 1254.42M1094.63 1270.68L1097.74 1269.12C1098.05 1268.96 1098.41 1268.98 1098.71 1269.15L1102.74 1271.58M1094.63 1270.68L1098.23 1261.65M1094.63 1270.68V1274.58C1094.63 1274.95 1094.84 1275.3 1095.18 1275.47L1097.83 1276.8C1098.09 1276.93 1098.39 1276.94 1098.65 1276.83L1102.11 1275.45C1102.49 1275.29 1102.74 1274.93 1102.74 1274.52V1271.58" stroke="black"/>
<path d="M1110.24 1211.25L1107.5 1206.74V1210.83C1107.5 1211.1 1107.39 1211.36 1107.2 1211.54L1106.38 1212.36C1105.99 1212.75 1105.36 1212.75 1104.97 1212.36L1102.93 1210.35V1217.03C1102.93 1217.37 1102.76 1217.68 1102.48 1217.87L1100.19 1219.38L1102.9 1226.51C1102.92 1226.57 1102.95 1226.62 1102.98 1226.68L1105.57 1230.94C1105.64 1231.05 1105.68 1231.18 1105.7 1231.31C1106 1233.49 1106.38 1237.63 1105.67 1238.33L1101.1 1242.85V1247.98C1101.1 1248.17 1101.15 1248.35 1101.25 1248.5L1103.84 1252.78L1105.57 1246.81C1105.64 1246.58 1105.78 1246.39 1105.98 1246.26L1111.16 1242.85L1113.9 1236.53L1111.19 1228.5C1111.17 1228.43 1111.14 1228.37 1111.11 1228.32L1107.7 1222.44C1107.57 1222.21 1107.54 1221.94 1107.6 1221.69L1109.33 1214.86L1110.24 1211.25Z" fill="#FF823C"/>
<path d="M1117.55 1222.08V1217.57L1115.67 1219.43C1115.22 1219.87 1114.49 1219.8 1114.14 1219.28L1113.23 1217.94C1113.07 1217.7 1113.02 1217.41 1113.09 1217.14L1113.83 1214.23C1113.87 1214.05 1113.97 1213.89 1114.09 1213.76L1116.44 1211.45C1116.57 1211.32 1116.66 1211.16 1116.71 1210.98L1117.47 1207.96C1117.52 1207.75 1117.51 1207.53 1117.43 1207.34L1115.87 1203.48C1115.77 1203.25 1115.6 1203.07 1115.38 1202.96L1112.63 1201.59C1112.28 1201.43 1112.07 1201.08 1112.07 1200.7V1198.85C1112.07 1198.69 1112.11 1198.54 1112.18 1198.4L1113.9 1195L1110.46 1199.24C1110.32 1199.42 1110.24 1199.64 1110.24 1199.87V1203.61C1110.24 1203.88 1110.35 1204.13 1110.54 1204.32L1112.42 1206.18C1112.75 1206.51 1112.81 1207.02 1112.57 1207.41L1110.24 1211.25L1109.33 1214.86L1107.6 1221.69C1107.54 1221.94 1107.57 1222.21 1107.7 1222.44L1111.11 1228.32C1111.14 1228.37 1111.17 1228.43 1111.19 1228.5L1113.9 1236.53V1227.81C1113.9 1227.61 1113.96 1227.41 1114.07 1227.25L1117.55 1222.08Z" fill="#FF823C"/>
<path d="M1100.19 1219.38L1095.92 1215.15C1095.73 1214.97 1095.62 1214.71 1095.62 1214.44V1209.8C1095.62 1209.57 1095.7 1209.35 1095.84 1209.17L1099.05 1205.21C1099.2 1205.03 1099.28 1204.81 1099.28 1204.58V1201.32L1095.69 1207.52C1095.64 1207.6 1095.59 1207.67 1095.53 1207.73L1093.11 1210.12C1092.96 1210.27 1092.86 1210.46 1092.83 1210.67L1092.02 1215.44C1091.98 1215.65 1092.02 1215.87 1092.11 1216.06L1095.17 1222.08L1096.53 1225.69L1095.63 1233.7C1095.63 1233.78 1095.63 1233.86 1095.64 1233.94L1096.52 1240.91C1096.53 1241 1096.55 1241.08 1096.58 1241.16L1098.36 1245.56L1101.1 1242.85L1105.67 1238.33C1106.38 1237.63 1106 1233.49 1105.7 1231.31C1105.68 1231.18 1105.64 1231.05 1105.57 1230.94L1102.98 1226.68C1102.95 1226.62 1102.92 1226.57 1102.9 1226.51L1100.19 1219.38Z" fill="#FF823C"/>
<path d="M1096.53 1225.69L1092.88 1231.11L1090.25 1239.75C1090.18 1240 1090.2 1240.27 1090.32 1240.5L1092.67 1245.15C1092.8 1245.41 1092.82 1245.71 1092.71 1245.98L1091.05 1250.07L1092.88 1254.58L1096.08 1255.49L1098.36 1245.56L1096.58 1241.16C1096.55 1241.08 1096.53 1241 1096.52 1240.91L1095.64 1233.94C1095.63 1233.86 1095.63 1233.78 1095.63 1233.7L1096.53 1225.69Z" fill="#FF823C"/>
<path d="M1125.78 1232.92L1127.6 1226.6L1129.23 1222.58C1129.36 1222.27 1129.32 1221.92 1129.13 1221.64L1127.6 1219.38L1125.01 1215.1C1124.91 1214.94 1124.86 1214.76 1124.86 1214.58V1210.35L1122.35 1215.31C1122.21 1215.6 1122.21 1215.93 1122.35 1216.22L1123.84 1219.16C1123.91 1219.3 1123.95 1219.46 1123.95 1219.61V1221.75C1123.95 1221.97 1123.88 1222.18 1123.74 1222.35L1121.21 1225.69V1232.77C1121.21 1232.87 1121.19 1232.96 1121.17 1233.05L1119.38 1239.24L1125.78 1232.92Z" fill="#FF823C"/>
<path d="M1099.19 1256.36C1099.25 1256.38 1099.3 1256.4 1099.36 1256.43L1102.85 1258.15C1102.9 1258.18 1102.96 1258.2 1103.02 1258.22L1104.76 1258.71L1103.84 1252.78L1101.25 1248.5C1101.15 1248.35 1101.1 1248.17 1101.1 1247.98V1242.85L1098.36 1245.56L1096.08 1255.49L1099.19 1256.36Z" fill="#FFA53C"/>
<path fill-rule="evenodd" clip-rule="evenodd" d="M1081.91 1248.26L1081.01 1242.93C1081 1242.87 1081 1242.82 1081 1242.76V1239.43C1081 1239.3 1081.02 1239.17 1081.07 1239.06L1082.79 1234.82C1082.81 1234.75 1082.85 1234.69 1082.89 1234.64L1084.56 1232.16C1084.62 1232.06 1084.7 1231.98 1084.79 1231.91L1088.07 1229.48C1088.23 1229.37 1088.35 1229.21 1088.41 1229.03L1091.05 1222.08L1091.97 1226.6L1092.88 1231.11L1090.25 1239.75C1090.18 1240 1090.2 1240.27 1090.32 1240.5L1092.67 1245.15C1092.8 1245.41 1092.82 1245.71 1092.71 1245.98L1091.05 1250.07L1087.9 1246.18C1087.61 1245.81 1087.1 1245.7 1086.68 1245.91L1081.91 1248.26Z" fill="#FF823C"/>
<path d="M1081.91 1248.26L1088.11 1253.51C1088.24 1253.62 1088.4 1253.7 1088.56 1253.73L1092.88 1254.58L1091.05 1250.07L1087.9 1246.18C1087.61 1245.81 1087.1 1245.7 1086.68 1245.91L1081.91 1248.26Z" fill="#FFA53C"/>
<path fill-rule="evenodd" clip-rule="evenodd" d="M1114.81 1251.88V1245.56L1119.38 1239.24L1125.78 1232.92V1232.92C1126.5 1232.56 1127.3 1233.21 1127.1 1233.99L1126.69 1235.63L1125.78 1242.85V1251.88L1120.29 1256.39V1245.56L1114.81 1251.88Z" fill="#FF823C"/>
<path d="M1114.81 1260L1120.29 1256.39V1245.56L1114.81 1251.88V1260Z" fill="#FFA53C"/>
<path fill-rule="evenodd" clip-rule="evenodd" d="M1114.81 1245.56V1251.88L1109.72 1250.2C1109.47 1250.12 1109.2 1250.13 1108.96 1250.25L1103.84 1252.78L1105.57 1246.81C1105.64 1246.58 1105.78 1246.39 1105.98 1246.26L1111.16 1242.85L1113.9 1236.53V1227.81C1113.9 1227.61 1113.96 1227.41 1114.07 1227.25L1117.55 1222.08L1121.21 1225.69V1232.77C1121.21 1232.87 1121.19 1232.96 1121.17 1233.05L1119.38 1239.24L1114.81 1245.56Z" fill="#FF823C"/>
<path d="M1109.19 1259.96C1109.28 1259.99 1109.37 1260 1109.47 1260H1114.81V1251.88L1109.72 1250.2C1109.47 1250.12 1109.2 1250.13 1108.96 1250.25L1103.84 1252.78L1104.76 1258.71L1109.19 1259.96Z" fill="#FFA53C"/>
<path d="M1125.78 1251.88H1127.97C1128.31 1251.88 1128.63 1251.7 1128.81 1251.41L1133.09 1244.65L1132.42 1244.82C1131.48 1245.05 1130.79 1243.94 1131.42 1243.2L1133.67 1240.53C1133.88 1240.28 1133.95 1239.95 1133.87 1239.64L1133.13 1236.7C1133.1 1236.59 1133.05 1236.48 1132.99 1236.38L1131.33 1233.93C1131.28 1233.86 1131.24 1233.78 1131.22 1233.69L1130.34 1231.11V1235.46C1130.34 1235.57 1130.36 1235.68 1130.4 1235.78L1130.81 1237.01C1131.03 1237.66 1130.55 1238.33 1129.87 1238.33H1129.05C1128.72 1238.33 1128.41 1238.17 1128.22 1237.89L1126.69 1235.63L1125.78 1242.85V1251.88Z" fill="#FFA53C"/>
<path d="M1081.91 1248.26L1088.11 1253.51C1088.24 1253.62 1088.4 1253.7 1088.56 1253.73L1092.88 1254.58M1081.91 1248.26L1081.01 1242.93C1081 1242.87 1081 1242.82 1081 1242.76V1239.43C1081 1239.3 1081.02 1239.17 1081.07 1239.06L1082.79 1234.82C1082.81 1234.75 1082.85 1234.69 1082.89 1234.64L1084.56 1232.16C1084.62 1232.06 1084.7 1231.98 1084.79 1231.91L1088.07 1229.48C1088.23 1229.37 1088.35 1229.21 1088.41 1229.03L1091.05 1222.08L1091.97 1226.6L1092.88 1231.11M1081.91 1248.26L1086.68 1245.91C1087.1 1245.7 1087.61 1245.81 1087.9 1246.18L1091.05 1250.07M1092.88 1254.58L1091.05 1250.07M1092.88 1254.58L1096.08 1255.49M1114.81 1260H1109.47C1109.37 1260 1109.28 1259.99 1109.19 1259.96L1104.76 1258.71M1114.81 1260L1120.29 1256.39M1114.81 1260V1251.88M1120.29 1256.39L1125.78 1251.88M1120.29 1256.39V1245.56L1114.81 1251.88M1125.78 1251.88H1127.97C1128.31 1251.88 1128.63 1251.7 1128.81 1251.41L1133.09 1244.65L1132.42 1244.82C1131.48 1245.05 1130.79 1243.94 1131.42 1243.2L1133.67 1240.53C1133.88 1240.28 1133.95 1239.95 1133.87 1239.64L1133.13 1236.7C1133.1 1236.59 1133.05 1236.48 1132.99 1236.38L1131.33 1233.93C1131.28 1233.86 1131.24 1233.78 1131.22 1233.69L1130.34 1231.11M1125.78 1251.88V1242.85L1126.69 1235.63M1130.34 1231.11L1132.17 1228.4M1130.34 1231.11V1235.46C1130.34 1235.57 1130.36 1235.68 1130.4 1235.78L1130.81 1237.01C1131.03 1237.66 1130.55 1238.33 1129.87 1238.33H1129.05C1128.72 1238.33 1128.41 1238.17 1128.22 1237.89L1126.69 1235.63M1126.69 1235.63L1127.1 1233.99C1127.3 1233.21 1126.5 1232.56 1125.78 1232.92V1232.92M1125.78 1232.92L1127.6 1226.6L1129.23 1222.58C1129.36 1222.27 1129.32 1221.92 1129.13 1221.64L1127.6 1219.38L1125.01 1215.1C1124.91 1214.94 1124.86 1214.76 1124.86 1214.58V1210.35L1122.35 1215.31C1122.21 1215.6 1122.21 1215.93 1122.35 1216.22L1123.84 1219.16C1123.91 1219.3 1123.95 1219.46 1123.95 1219.61V1221.75C1123.95 1221.97 1123.88 1222.18 1123.74 1222.35L1121.21 1225.69M1125.78 1232.92L1119.38 1239.24M1121.21 1225.69L1117.55 1222.08M1121.21 1225.69V1232.77C1121.21 1232.87 1121.19 1232.96 1121.17 1233.05L1119.38 1239.24M1117.55 1222.08V1217.57L1115.67 1219.43C1115.22 1219.87 1114.49 1219.8 1114.14 1219.28L1113.23 1217.94C1113.07 1217.7 1113.02 1217.41 1113.09 1217.14L1113.83 1214.23C1113.87 1214.05 1113.97 1213.89 1114.09 1213.76L1116.44 1211.45C1116.57 1211.32 1116.66 1211.16 1116.71 1210.98L1117.47 1207.96C1117.52 1207.75 1117.51 1207.53 1117.43 1207.34L1115.87 1203.48C1115.77 1203.25 1115.6 1203.07 1115.38 1202.96L1112.63 1201.59C1112.28 1201.43 1112.07 1201.08 1112.07 1200.7V1198.85C1112.07 1198.69 1112.11 1198.54 1112.18 1198.4L1113.9 1195L1110.46 1199.24C1110.32 1199.42 1110.24 1199.64 1110.24 1199.87V1203.61C1110.24 1203.88 1110.35 1204.13 1110.54 1204.32L1112.42 1206.18C1112.75 1206.51 1112.81 1207.02 1112.57 1207.41L1110.24 1211.25M1117.55 1222.08L1114.07 1227.25C1113.96 1227.41 1113.9 1227.61 1113.9 1227.81V1236.53M1110.24 1211.25L1107.5 1206.74V1210.83C1107.5 1211.1 1107.39 1211.36 1107.2 1211.54L1106.38 1212.36C1105.99 1212.75 1105.36 1212.75 1104.97 1212.36L1102.93 1210.35V1217.03C1102.93 1217.37 1102.76 1217.68 1102.48 1217.87L1100.19 1219.38M1110.24 1211.25L1109.33 1214.86L1107.6 1221.69C1107.54 1221.94 1107.57 1222.21 1107.7 1222.44L1111.11 1228.32C1111.14 1228.37 1111.17 1228.43 1111.19 1228.5L1113.9 1236.53M1100.19 1219.38L1095.92 1215.15C1095.73 1214.97 1095.62 1214.71 1095.62 1214.44V1209.8C1095.62 1209.57 1095.7 1209.35 1095.84 1209.17L1099.05 1205.21C1099.2 1205.03 1099.28 1204.81 1099.28 1204.58V1201.32L1095.69 1207.52C1095.64 1207.6 1095.59 1207.67 1095.53 1207.73L1093.11 1210.12C1092.96 1210.27 1092.86 1210.46 1092.83 1210.67L1092.02 1215.44C1091.98 1215.65 1092.02 1215.87 1092.11 1216.06L1095.17 1222.08L1096.53 1225.69M1100.19 1219.38L1102.9 1226.51C1102.92 1226.57 1102.95 1226.62 1102.98 1226.68L1105.57 1230.94C1105.64 1231.05 1105.68 1231.18 1105.7 1231.31C1106 1233.49 1106.38 1237.63 1105.67 1238.33M1096.53 1225.69L1092.88 1231.11M1096.53 1225.69L1095.63 1233.7C1095.63 1233.78 1095.63 1233.86 1095.64 1233.94L1096.52 1240.91C1096.53 1241 1096.55 1241.08 1096.58 1241.16L1098.36 1245.56M1092.88 1231.11L1090.25 1239.75C1090.18 1240 1090.2 1240.27 1090.32 1240.5L1092.67 1245.15C1092.8 1245.41 1092.82 1245.71 1092.71 1245.98L1091.05 1250.07M1096.08 1255.49L1099.19 1256.36C1099.25 1256.38 1099.3 1256.4 1099.36 1256.43L1102.85 1258.15C1102.9 1258.18 1102.96 1258.2 1103.02 1258.22L1104.76 1258.71M1096.08 1255.49L1098.36 1245.56M1098.36 1245.56C1099.09 1244.84 1100.08 1243.86 1101.1 1242.85M1098.36 1245.56L1101.1 1242.85M1105.67 1238.33C1105.19 1238.81 1103.09 1240.89 1101.1 1242.85M1105.67 1238.33L1101.1 1242.85M1101.1 1242.85V1247.98C1101.1 1248.17 1101.15 1248.35 1101.25 1248.5L1103.84 1252.78M1103.84 1252.78L1104.76 1258.71M1103.84 1252.78L1105.57 1246.81C1105.64 1246.58 1105.78 1246.39 1105.98 1246.26L1111.16 1242.85M1103.84 1252.78L1108.96 1250.25C1109.2 1250.13 1109.47 1250.12 1109.72 1250.2L1114.81 1251.88M1111.16 1242.85L1113.9 1236.53M1111.16 1242.85L1114.81 1245.56M1119.38 1239.24L1114.81 1245.56M1114.81 1245.56V1251.88" stroke="#FF612F"/>
<path d="M1063.5 1269L1037 1277.37L1061.56 1275.44L1066.08 1280.59L1063.5 1296.03L1071.9 1283.16L1091.93 1288.31L1095.17 1296.03L1090.64 1306.98L1103.57 1296.03H1132L1145.58 1306.98L1153.33 1325V1303.76L1138.47 1290.24L1153.33 1283.16L1179.83 1280.59L1185 1274.79H1150.1L1128.13 1283.16H1099.04L1075.13 1277.37L1063.5 1269Z" fill="#FF975D" stroke="#FF975D"/>
<path d="M155.173 1293L201.482 1287.04L208.789 1253.67L213.356 1232.81L221.667 1175.6L225.823 1127.93L227.011 1096.34V1029L221.667 1069.52L213.356 1117.2L201.482 1159.51L187.827 1209.57L171.203 1253.67L155.173 1293Z" fill="black"/>
<path d="M236.51 1069.52L227.011 1029L236.51 1096.34L247.196 1142.82L262.039 1194.67L277.475 1244.13L294.692 1273.93L341 1264.4L331.501 1253.67L310.128 1223.28L288.161 1182.75L259.664 1117.2L236.51 1069.52Z" fill="black"/>
<path d="M201.482 1287.04L277.475 1276.35L253.133 1268.31L208.789 1253.67L201.482 1287.04Z" fill="#370047"/>
<path d="M221.667 1175.6L213.356 1232.81L208.789 1253.67L253.133 1268.31L243.634 1232.81L236.51 1188.12L225.823 1127.93L221.667 1175.6Z" fill="#370047"/>
<path d="M182.483 1069.52L146.862 1110.05L109.459 1142.82L76.8056 1159.51L48.3082 1166.07L30.4974 1153.55L10.3117 1117.2L15.655 1166.07L37.028 1182.75L71.4623 1188.12L102.335 1175.6L137.956 1142.82L161.704 1110.05L182.483 1069.52Z" fill="#370047"/>
<path d="M171.203 1127.93L187.827 1096.34L146.862 1153.55L125.489 1175.6L95.2102 1209.57L54.8389 1238.17L15.655 1244.13H2V1264.4H10.3117H37.028L71.4623 1253.67L109.459 1217.91L137.956 1175.6L171.203 1127.93Z" fill="#370047"/>
<path fill-rule="evenodd" clip-rule="evenodd" d="M117.177 1293L54.8389 1287.04L2 1276.35V1264.4H10.3117H37.028L71.4623 1253.67L109.459 1217.91L137.956 1175.6L171.203 1127.93L187.827 1096.34L146.862 1153.55L125.489 1175.6L95.2102 1209.57L54.8389 1238.17L15.655 1244.13H2V1076.67L30.4974 1082.04H71.4623L137.956 1069.52L187.827 1051.65L227.011 1029L221.667 1069.52L208.789 1117.2L196.732 1149.38L180.702 1197.05L164.673 1250.09L155.173 1273.93L140.331 1285.85L117.177 1293ZM182.483 1069.52L146.862 1110.05L109.459 1142.82L76.8056 1159.51L48.3082 1166.07L30.4974 1153.55L10.3117 1117.2L15.655 1166.07L37.028 1182.75L71.4623 1188.12L102.335 1175.6L137.956 1142.82L161.704 1110.05L182.483 1069.52Z" fill="black"/>
<path d="M155.173 1293L171.203 1253.67L187.827 1209.57L201.482 1159.51L213.356 1117.2L221.667 1069.52L208.789 1117.2L196.732 1149.38L180.702 1197.05L164.673 1250.09L155.173 1273.93L140.331 1285.85L117.177 1293H155.173Z" fill="#6D6D6D"/>
<path fill-rule="evenodd" clip-rule="evenodd" d="M236.51 1096.34L243.634 1149.38L256.102 1209.57L277.475 1276.35L294.692 1273.93L277.475 1244.13L262.039 1194.67L247.196 1142.82L236.51 1096.34Z" fill="#6D6D6D"/>
<path d="M227.011 1096.34L225.823 1127.93L236.51 1188.12L243.634 1232.81L253.133 1268.31L277.475 1276.35L256.102 1209.57L243.634 1149.38L236.51 1096.34L227.011 1029V1096.34Z" fill="black"/>
<path d="M227.011 1029L236.51 1069.52L259.664 1117.2L288.161 1182.75L310.128 1223.28L331.501 1253.67L341 1264.4L294.692 1273.93M227.011 1029L221.667 1069.52M227.011 1029V1096.34L225.823 1127.93M227.011 1029L187.827 1051.65L137.956 1069.52L71.4623 1082.04H30.4974L2 1076.67V1244.13M227.011 1029L236.51 1096.34M294.692 1273.93L277.475 1244.13L262.039 1194.67L247.196 1142.82L236.51 1096.34M294.692 1273.93L277.475 1276.35M201.482 1287.04L155.173 1293M201.482 1287.04L277.475 1276.35M201.482 1287.04L208.789 1253.67M155.173 1293L171.203 1253.67L187.827 1209.57L201.482 1159.51L213.356 1117.2L221.667 1069.52M155.173 1293H117.177M221.667 1069.52L208.789 1117.2L196.732 1149.38L180.702 1197.05L164.673 1250.09L155.173 1273.93L140.331 1285.85L117.177 1293M225.823 1127.93L221.667 1175.6L213.356 1232.81L208.789 1253.67M225.823 1127.93L236.51 1188.12L243.634 1232.81L253.133 1268.31M236.51 1096.34L243.634 1149.38L256.102 1209.57L277.475 1276.35M277.475 1276.35L253.133 1268.31M208.789 1253.67L253.133 1268.31M117.177 1293L54.8389 1287.04L2 1276.35V1264.4M2 1264.4H10.3117H37.028L71.4623 1253.67L109.459 1217.91L137.956 1175.6L171.203 1127.93L187.827 1096.34L146.862 1153.55L125.489 1175.6L95.2102 1209.57L54.8389 1238.17L15.655 1244.13H2M2 1264.4V1244.13M182.483 1069.52L146.862 1110.05L109.459 1142.82L76.8056 1159.51L48.3082 1166.07L30.4974 1153.55L10.3117 1117.2L15.655 1166.07L37.028 1182.75L71.4623 1188.12L102.335 1175.6L137.956 1142.82L161.704 1110.05L182.483 1069.52Z" stroke="black"/>
<path d="M472.5 1267H520L576.5 1272.5L630 1276.5H695C697.4 1276.5 741.667 1270.17 763.5 1267L801 1263H845H905L958 1256.5L909.5 1272.5H848.5H801L763.5 1278L695 1285.5H630L576.5 1282.5L527 1277.5L496.5 1272.5L472.5 1267Z" fill="#AF69FF" fill-opacity="0.4"/>
<path d="M630 1276.5L576.5 1272.5L520 1267H472.5L496.5 1272.5L527 1277.5L576.5 1282.5L630 1285.5H695L763.5 1278L801 1272.5H848.5H909.5L958 1256.5L905 1263M630 1276.5C650.667 1276.5 692.6 1276.5 695 1276.5M630 1276.5H695M695 1276.5C697.4 1276.5 741.667 1270.17 763.5 1267L801 1263M801 1263C814.333 1263 841.8 1263 845 1263M801 1263H845M845 1263C848.2 1263 886.333 1263 905 1263M845 1263H905" stroke="black"/>
<path d="M187.5 1317L204.5 1296.5L284.5 1282.5L334 1276.5L399 1289L338 1285.5L300 1289L338 1309.5L291.5 1296.5L216 1304.5L235 1331.5L210 1309.5L187.5 1317Z" fill="#AF69FF" fill-opacity="0.4" stroke="black"/>
</g>
<defs>
<clipPath id="clip0_278_12">
<rect width="1440" height="1536" fill="white"/>
</clipPath>
</defs>
</svg>
