<svg width="1440" height="1536" viewBox="0 0 1440 1536" fill="none" xmlns="http://www.w3.org/2000/svg">
<g clip-path="url(#clip0_138_238)">
<g filter="url(#filter0_f_138_238)">
<path d="M857.5 1090L756 1014L767 974L857.5 938L948 983.5L1022.5 1046.5L1119.5 1007.5L1220.5 1026L1290.5 974L1370.5 1056L1261.5 1167.5L1199.5 1111.5L1136 1100.5L1046.5 1128.5C1026.67 1137.67 964.2 1104.8 957 1106C949.8 1107.2 887.667 1095.83 857.5 1090Z" fill="#BA6EFF" fill-opacity="0.2"/>
<path d="M857.5 1090L756 1014L767 974L857.5 938L948 983.5L1022.5 1046.5L1119.5 1007.5L1220.5 1026L1290.5 974L1370.5 1056L1261.5 1167.5L1199.5 1111.5L1136 1100.5L1046.5 1128.5C1026.67 1137.67 964.2 1104.8 957 1106C949.8 1107.2 887.667 1095.83 857.5 1090Z" stroke="black"/>
</g>
<path d="M1006.69 960.482L997.314 965.209L990 974.212V984.341L1000.29 978.489L1006.69 971.286V960.482Z" fill="#E384FF" fill-opacity="0.7"/>
<path d="M1017.66 931.671L1009.89 925.819V936.848L1014.23 943.6L1022 949.002V939.774L1017.66 931.671Z" fill="#E384FF" fill-opacity="0.7"/>
<path d="M1006.69 1124.57H1009.89V1079.55V1066.38V1008.2V996.72V936.848V925.819V875.85V865.721V809V799.096V738.998V732.246V678H1006.69V697.582V705.685V762.632V770.285V829.707V837.585V892.506V902.635V960.482V971.286V1034.98V1045.79V1097.33V1107.69V1124.57Z" fill="#E384FF" fill-opacity="0.7"/>
<path d="M1017.66 870.223L1009.89 865.721V875.85L1014.23 881.702L1022 885.528V877.425L1017.66 870.223Z" fill="#E384FF" fill-opacity="0.7"/>
<path d="M1006.69 892.506L998.457 896.107L993.657 903.535V912.314L999.829 909.387L1006.69 902.635V892.506Z" fill="#E384FF" fill-opacity="0.7"/>
<path d="M1006.69 829.707L998.914 833.984L994.343 841.412V848.84L1001.89 843.888L1006.69 837.585V829.707Z" fill="#E384FF" fill-opacity="0.7"/>
<path d="M1017.2 802.472L1009.89 799.096V809L1015.6 814.627L1021.77 817.553V809L1017.2 802.472Z" fill="#E384FF" fill-opacity="0.7"/>
<path d="M1006.69 762.632L998.914 766.458L994.343 772.536V780.189L1000.74 776.587L1006.69 770.285V762.632Z" fill="#E384FF" fill-opacity="0.7"/>
<path d="M1017.2 734.271L1009.89 732.246V738.998L1015.6 744.4L1021.77 747.101V740.349L1017.2 734.271Z" fill="#E384FF" fill-opacity="0.7"/>
<path d="M1006.69 697.582L999.371 701.184L993.886 708.612V716.49L1000.97 712.663L1006.69 705.685V697.582Z" fill="#E384FF" fill-opacity="0.7"/>
<path d="M1017.66 1002.8L1009.89 996.72V1008.2L1016.29 1016.08L1022 1021.03V1010.23L1017.66 1002.8Z" fill="#E384FF" fill-opacity="0.7"/>
<path d="M1006.69 1034.98L998 1039.04L992.743 1045.79V1056.59L1000.29 1053.44L1006.69 1045.79V1034.98Z" fill="#E384FF" fill-opacity="0.7"/>
<path d="M1018.8 1073.47L1009.89 1066.38V1079.55L1014.69 1086.75L1020.4 1089.68L1022 1083.6L1018.8 1073.47Z" fill="#E384FF" fill-opacity="0.7"/>
<path d="M1006.69 1097.33L998 1100.26L992.743 1107.69L990.457 1116.92L1000.29 1114.89L1006.69 1107.69V1097.33Z" fill="#E384FF" fill-opacity="0.7"/>
<path d="M1009.89 1124.57H1006.69L1003.94 1131.1L1006.69 1138.3L1011.94 1141L1016.06 1136.05V1131.1L1009.89 1124.57Z" fill="#E384FF" fill-opacity="0.7"/>
<path d="M1096.64 1058.5L1087.86 1063.04L1081 1071.7V1081.43L1090.64 1075.81L1096.64 1068.88V1058.5Z" fill="#E384FF" fill-opacity="0.5"/>
<path d="M1106.93 1030.81L1099.64 1025.18V1035.78L1103.71 1042.27L1111 1047.47V1038.6L1106.93 1030.81Z" fill="#E384FF" fill-opacity="0.5"/>
<path d="M1096.64 1199.98L1099.64 1172.94V1160.29V1104.36V1093.33V1035.78V1025.18V977.158V967.423V912.907V903.388V845.627V839.137V787H1096.64V805.821V813.609V868.342V875.697V932.809V940.381V993.167V1002.9V1058.5V1068.88V1130.11V1140.49V1190.03V1199.98Z" fill="#E384FF" fill-opacity="0.5"/>
<path d="M1106.93 971.75L1099.64 967.423V977.158L1103.71 982.783L1111 986.46V978.672L1106.93 971.75Z" fill="#E384FF" fill-opacity="0.5"/>
<path d="M1096.64 993.167L1088.93 996.628L1084.43 1003.77V1012.2L1090.21 1009.39L1096.64 1002.9V993.167Z" fill="#E384FF" fill-opacity="0.5"/>
<path d="M1096.64 932.809L1089.36 936.92L1085.07 944.059V951.198L1092.14 946.438L1096.64 940.381V932.809Z" fill="#E384FF" fill-opacity="0.5"/>
<path d="M1106.5 906.633L1099.64 903.388V912.907L1105 918.315L1110.79 921.127V912.907L1106.5 906.633Z" fill="#E384FF" fill-opacity="0.5"/>
<path d="M1096.64 868.342L1089.36 872.019L1085.07 877.86V885.216L1091.07 881.754L1096.64 875.697V868.342Z" fill="#E384FF" fill-opacity="0.5"/>
<path d="M1106.5 841.084L1099.64 839.137V845.627L1105 850.819L1110.79 853.415V846.925L1106.5 841.084Z" fill="#E384FF" fill-opacity="0.5"/>
<path d="M1096.64 805.821L1089.79 809.282L1084.64 816.421V823.993L1091.29 820.316L1096.64 813.609V805.821Z" fill="#E384FF" fill-opacity="0.5"/>
<path d="M1106.93 1099.17L1099.64 1093.33V1104.36L1105.64 1111.93L1111 1116.69V1106.31L1106.93 1099.17Z" fill="#E384FF" fill-opacity="0.5"/>
<path d="M1096.64 1130.11L1088.5 1134L1083.57 1140.49V1150.87L1090.64 1147.85L1096.64 1140.49V1130.11Z" fill="#E384FF" fill-opacity="0.5"/>
<path d="M1108 1167.1L1099.64 1160.29V1172.94L1104.14 1179.86L1109.5 1182.68L1111 1176.83L1108 1167.1Z" fill="#E384FF" fill-opacity="0.5"/>
<path d="M1096.64 1190.03L1088.5 1192.84L1083.57 1199.98L1081.43 1208.85L1090.64 1206.91L1096.64 1199.98V1190.03Z" fill="#E384FF" fill-opacity="0.5"/>
<path d="M935.114 946.028L919.886 951.233L908 961.146V972.299L924.714 965.855L935.114 957.924V946.028Z" fill="#E384FF" fill-opacity="0.5"/>
<path d="M952.943 914.306L940.314 907.862V920.006L947.371 927.441L960 933.389V923.228L952.943 914.306Z" fill="#E384FF" fill-opacity="0.5"/>
<path d="M935.114 1140.33H940.314V1077.13V1062.63V998.569V985.929V920.006V907.862V852.844V841.691V779.238V768.333V702.162V694.727V635H935.114V656.561V665.483V728.185V736.611V802.038V810.712V871.183V882.336V946.028V957.924V1028.06V1039.96V1096.71V1108.11V1140.33Z" fill="#E384FF" fill-opacity="0.5"/>
<path d="M952.943 846.648L940.314 841.691V852.844L947.371 859.287L960 863.501V854.579L952.943 846.648Z" fill="#E384FF" fill-opacity="0.5"/>
<path d="M935.114 871.183L921.743 875.149L913.943 883.327V892.992L923.971 889.771L935.114 882.336V871.183Z" fill="#E384FF" fill-opacity="0.5"/>
<path d="M935.114 802.038L922.486 806.747L915.057 814.926V823.104L927.314 817.652L935.114 810.712V802.038Z" fill="#E384FF" fill-opacity="0.5"/>
<path d="M952.2 772.051L940.314 768.333V779.238L949.6 785.434L959.629 788.655V779.238L952.2 772.051Z" fill="#E384FF" fill-opacity="0.5"/>
<path d="M935.114 728.185L922.486 732.398L915.057 739.089V747.515L925.457 743.55L935.114 736.611V728.185Z" fill="#E384FF" fill-opacity="0.5"/>
<path d="M952.2 696.958L940.314 694.727V702.162L949.6 708.11L959.629 711.084V703.649L952.2 696.958Z" fill="#E384FF" fill-opacity="0.5"/>
<path d="M935.114 656.561L923.229 660.527L914.314 668.705V677.379L925.829 673.166L935.114 665.483V656.561Z" fill="#E384FF" fill-opacity="0.5"/>
<path d="M952.943 992.621L940.314 985.929V998.569L950.714 1007.24L960 1012.7V1000.8L952.943 992.621Z" fill="#E384FF" fill-opacity="0.5"/>
<path d="M935.114 1028.06L921 1032.52L912.457 1039.96V1051.85L924.714 1048.38L935.114 1039.96V1028.06Z" fill="#E384FF" fill-opacity="0.5"/>
<path d="M954.8 1070.44L940.314 1062.63V1077.13L948.114 1085.06L957.4 1088.28L960 1081.59L954.8 1070.44Z" fill="#E384FF" fill-opacity="0.5"/>
<path d="M935.114 1096.71L921 1099.93L912.457 1108.11L908.743 1118.27L924.714 1116.04L935.114 1108.11V1096.71Z" fill="#E384FF" fill-opacity="0.5"/>
<path d="M940.314 1140.33H935.114L930.657 1147.52V1158.42L940.314 1171L946.435 1160.25V1147.52L940.314 1140.33Z" fill="#E384FF" fill-opacity="0.5"/>
<path d="M970.857 886.815L959.143 890.844L950 898.52V907.155L962.857 902.166L970.857 896.025V886.815Z" fill="#E384FF" fill-opacity="0.5"/>
<path d="M984.571 862.254L974.857 857.265V866.667L980.286 872.424L990 877.029V869.162L984.571 862.254Z" fill="#E384FF" fill-opacity="0.5"/>
<path d="M970.857 1037.25H974.857V988.322V977.096V927.494V917.708V866.667V857.265V814.666V806.032V757.677V749.234V698.001V692.244V646H970.857V662.694V669.602V718.149V724.673V775.33V782.046V828.866V837.501V886.815V896.025V950.329V959.539V1003.48V1012.31V1037.25Z" fill="#E384FF" fill-opacity="0.5"/>
<path d="M984.571 809.869L974.857 806.032V814.666L980.286 819.655L990 822.917V816.01L984.571 809.869Z" fill="#E384FF" fill-opacity="0.5"/>
<path d="M970.857 828.866L960.571 831.936L954.571 838.268V845.752L962.286 843.257L970.857 837.501V828.866Z" fill="#E384FF" fill-opacity="0.5"/>
<path d="M970.857 775.33L961.143 778.976L955.429 785.308V791.64L964.857 787.419L970.857 782.046V775.33Z" fill="#E384FF" fill-opacity="0.5"/>
<path d="M984 752.112L974.857 749.234V757.677L982 762.474L989.714 764.968V757.677L984 752.112Z" fill="#E384FF" fill-opacity="0.5"/>
<path d="M970.857 718.149L961.143 721.411L955.429 726.591V733.116L963.429 730.045L970.857 724.673V718.149Z" fill="#E384FF" fill-opacity="0.5"/>
<path d="M984 693.971L974.857 692.244V698.001L982 702.606L989.714 704.909V699.152L984 693.971Z" fill="#E384FF" fill-opacity="0.5"/>
<path d="M970.857 662.694L961.714 665.764L954.857 672.096V678.812L963.714 675.55L970.857 669.602V662.694Z" fill="#E384FF" fill-opacity="0.5"/>
<path d="M984.571 922.889L974.857 917.708V927.494L982.857 934.21L990 938.432V929.221L984.571 922.889Z" fill="#E384FF" fill-opacity="0.5"/>
<path d="M970.857 950.329L960 953.783L953.429 959.539V968.75L962.857 966.063L970.857 959.539V950.329Z" fill="#E384FF" fill-opacity="0.5"/>
<path d="M986 983.141L974.857 977.096V988.322L980.857 994.462L988 996.956L990 991.776L986 983.141Z" fill="#E384FF" fill-opacity="0.5"/>
<path d="M970.857 1003.48L960 1005.98L953.429 1012.31L950.571 1020.17L962.857 1018.45L970.857 1012.31V1003.48Z" fill="#E384FF" fill-opacity="0.5"/>
<path d="M974.857 1037.25H970.857L967.429 1042.82V1051.26L974.857 1061L979.565 1052.68V1042.82L974.857 1037.25Z" fill="#E384FF" fill-opacity="0.5"/>
<path d="M1412.64 1058.5L1403.86 1063.04L1397 1071.7V1081.43L1406.64 1075.81L1412.64 1068.88V1058.5Z" fill="#E384FF" fill-opacity="0.5"/>
<path d="M1422.93 1030.81L1415.64 1025.18V1035.78L1419.71 1042.27L1427 1047.47V1038.6L1422.93 1030.81Z" fill="#E384FF" fill-opacity="0.5"/>
<path d="M1412.64 1216.21H1415.64V1172.94V1160.29V1104.36V1093.33V1035.78V1025.18V977.158V967.423V912.907V903.388V845.627V839.137V787H1412.64V805.821V813.609V868.342V875.697V932.809V940.381V993.167V1002.9V1058.5V1068.88V1130.11V1140.49V1190.03V1199.98V1216.21Z" fill="#E384FF" fill-opacity="0.5"/>
<path d="M1422.93 971.75L1415.64 967.423V977.158L1419.71 982.783L1427 986.46V978.672L1422.93 971.75Z" fill="#E384FF" fill-opacity="0.5"/>
<path d="M1412.64 993.167L1404.93 996.628L1400.43 1003.77V1012.2L1406.21 1009.39L1412.64 1002.9V993.167Z" fill="#E384FF" fill-opacity="0.5"/>
<path d="M1412.64 932.809L1405.36 936.92L1401.07 944.059V951.198L1408.14 946.438L1412.64 940.381V932.809Z" fill="#E384FF" fill-opacity="0.5"/>
<path d="M1422.5 906.633L1415.64 903.388V912.907L1421 918.315L1426.79 921.127V912.907L1422.5 906.633Z" fill="#E384FF" fill-opacity="0.5"/>
<path d="M1412.64 868.342L1405.36 872.019L1401.07 877.86V885.216L1407.07 881.754L1412.64 875.697V868.342Z" fill="#E384FF" fill-opacity="0.5"/>
<path d="M1422.5 841.084L1415.64 839.137V845.627L1421 850.819L1426.79 853.415V846.925L1422.5 841.084Z" fill="#E384FF" fill-opacity="0.5"/>
<path d="M1412.64 805.821L1405.79 809.282L1400.64 816.421V823.993L1407.29 820.316L1412.64 813.609V805.821Z" fill="#E384FF" fill-opacity="0.5"/>
<path d="M1422.93 1099.17L1415.64 1093.33V1104.36L1421.64 1111.93L1427 1116.69V1106.31L1422.93 1099.17Z" fill="#E384FF" fill-opacity="0.5"/>
<path d="M1412.64 1130.11L1404.5 1134L1399.57 1140.49V1150.87L1406.64 1147.85L1412.64 1140.49V1130.11Z" fill="#E384FF" fill-opacity="0.5"/>
<path d="M1424 1167.1L1415.64 1160.29V1172.94L1420.14 1179.86L1425.5 1182.68L1427 1176.83L1424 1167.1Z" fill="#E384FF" fill-opacity="0.5"/>
<path d="M1412.64 1190.03L1404.5 1192.84L1399.57 1199.98L1397.43 1208.85L1406.64 1206.91L1412.64 1199.98V1190.03Z" fill="#E384FF" fill-opacity="0.5"/>
<path d="M1415.64 1216.21H1412.64L1410.07 1222.48L1412.64 1229.4L1417.57 1232L1421.43 1227.24V1222.48L1415.64 1216.21Z" fill="#E384FF" fill-opacity="0.5"/>
<g filter="url(#filter1_f_138_238)">
<path d="M906.5 473L819.5 415.5L734 448.5L671.5 490.5L635 549.5L575 601.5L530.5 690.5L542.5 766.5L555 832L575 892L586 951.5L621 1005.5L671.5 1024L709 1065.5L769.5 1049.5L762 994.5L783.5 932.5L786 886L762 852L769.5 797H827.5L906.5 858.5L981 865.5L1018.5 917.5L1077.5 886L1108 917.5L1128 943.5L1158 981.5L1209.5 994.5L1287.5 1005.5H1333L1349.5 981.5H1391H1436.5V315.5L1365.5 239.5L1268.5 272L1233.5 348.5L1168.5 369L1128 285L1055 256L947.5 315.5L906.5 391V473Z" fill="#7548C2" fill-opacity="0.25"/>
<path d="M906.5 473L819.5 415.5L734 448.5L671.5 490.5L635 549.5L575 601.5L530.5 690.5L542.5 766.5L555 832L575 892L586 951.5L621 1005.5L671.5 1024L709 1065.5L769.5 1049.5L762 994.5L783.5 932.5L786 886L762 852L769.5 797H827.5L906.5 858.5L981 865.5L1018.5 917.5L1077.5 886L1108 917.5L1128 943.5L1158 981.5L1209.5 994.5L1287.5 1005.5H1333L1349.5 981.5H1391H1436.5V315.5L1365.5 239.5L1268.5 272L1233.5 348.5L1168.5 369L1128 285L1055 256L947.5 315.5L906.5 391V473Z" stroke="black"/>
</g>
<g filter="url(#filter2_f_138_238)">
<path d="M1355 864L1440 882V412.5L1390 278L1313 261.5L1259 318V412.5L1176.5 424.5L1135.5 327.5L1082.5 278L1000 297.5L967.5 380L929.5 430L982 540L958 558L886.5 476L828.5 462.5L748.5 442.5L700 502L647.5 540L602 596.5L568 692C577.5 711.333 597.6 751.5 602 757.5C606.4 763.5 614.833 808 618.5 829.5L647.5 911C683.667 926.167 757.8 956.8 765 958C772.2 959.2 817.5 969.5 846.5 974.5L923.5 931L982 882L1021.5 931L1082.5 911L1135.5 864L1208.5 829.5L1293.5 846L1355 864Z" fill="#9C63FF" fill-opacity="0.15"/>
<path d="M1355 864L1440 882V412.5L1390 278L1313 261.5L1259 318V412.5L1176.5 424.5L1135.5 327.5L1082.5 278L1000 297.5L967.5 380L929.5 430L982 540L958 558L886.5 476L828.5 462.5L748.5 442.5L700 502L647.5 540L602 596.5L568 692C577.5 711.333 597.6 751.5 602 757.5C606.4 763.5 614.833 808 618.5 829.5L647.5 911C683.667 926.167 757.8 956.8 765 958C772.2 959.2 817.5 969.5 846.5 974.5L923.5 931L982 882L1021.5 931L1082.5 911L1135.5 864L1208.5 829.5L1293.5 846L1355 864Z" stroke="black"/>
</g>
<g filter="url(#filter3_f_138_238)">
<path d="M716 562L853.5 578H929.5C949.5 589.5 992 614 1002 620C1012 626 1043.5 651.5 1058 663.5L1096 743C1085.17 771.833 1062.4 831 1058 837C1052.5 844.5 973 869.5 964 869.5C956.8 869.5 887.333 892.5 853.5 904L738 943.5C703 941.167 631.5 935.4 625.5 931C619.5 926.6 590.667 888.167 577 869.5L553.5 793.5L537 654L589.5 578L653 562H716Z" fill="#AF69FF" fill-opacity="0.15"/>
<path d="M716 562L853.5 578H929.5C949.5 589.5 992 614 1002 620C1012 626 1043.5 651.5 1058 663.5L1096 743C1085.17 771.833 1062.4 831 1058 837C1052.5 844.5 973 869.5 964 869.5C956.8 869.5 887.333 892.5 853.5 904L738 943.5C703 941.167 631.5 935.4 625.5 931C619.5 926.6 590.667 888.167 577 869.5L553.5 793.5L537 654L589.5 578L653 562H716Z" stroke="black"/>
</g>
<g filter="url(#filter4_f_138_238)">
<path d="M1217.5 317.5H1331.5L1376.5 373.5L1400 486C1392.83 516.167 1378.1 578.7 1376.5 587.5C1374.9 596.3 1352.83 636.833 1342 656C1286 675.333 1171.1 712.9 1159.5 708.5C1145 703 1018.5 663.5 1002 656C988.8 650 948.167 587.167 929.5 556.5V417L1002 317.5L1071 294C1115 301.833 1205.9 317.5 1217.5 317.5Z" fill="#AF69FF" fill-opacity="0.15"/>
<path d="M1217.5 317.5H1331.5L1376.5 373.5L1400 486C1392.83 516.167 1378.1 578.7 1376.5 587.5C1374.9 596.3 1352.83 636.833 1342 656C1286 675.333 1171.1 712.9 1159.5 708.5C1145 703 1018.5 663.5 1002 656C988.8 650 948.167 587.167 929.5 556.5V417L1002 317.5L1071 294C1115 301.833 1205.9 317.5 1217.5 317.5Z" stroke="black"/>
</g>
<path d="M832.503 980.245L871.505 1008.81L832.405 1022.51L802.324 1011.63L780 994.761L803.862 979.079L832.503 980.245Z" fill="#AF69FF" fill-opacity="0.5"/>
<path d="M827.82 1017L868 1002L859.108 1037.67L836.383 1054.67L813 1063V1037.67L827.82 1017Z" fill="#AF69FF" fill-opacity="0.5"/>
<path d="M896.001 979.806L875.295 1017.36L858.801 984.514L864.964 956.811L877.272 935.254L893.779 954.472L896.001 979.806Z" fill="#AF69FF" fill-opacity="0.5"/>
<path d="M939.413 1075.24L972.09 1078.16L954.179 1099.83L932.886 1104.06L914 1102.09L922.363 1084.61L939.413 1075.24Z" fill="#AF69FF" fill-opacity="0.5"/>
<path d="M984.971 1034.89L972.225 1075.84L949.473 1046.96L949.949 1018.59L957.68 995L977.708 1010.51L984.971 1034.89Z" fill="#AF69FF" fill-opacity="0.5"/>
<path d="M969.76 1025.48L1005.65 1002L1004.83 1038.75L986.409 1060.34L965.435 1073.62L959.855 1048.9L969.76 1025.48Z" fill="#AF69FF" fill-opacity="0.5"/>
<path d="M1079.91 1055.5L1074.17 1013L1106.99 1029.56L1118.54 1055.49L1121.49 1080.14L1096.78 1074.53L1079.91 1055.5Z" fill="#AF69FF" fill-opacity="0.5"/>
<path d="M1032.82 857L1073 842L1064.11 877.667L1041.38 894.667L1018 903V877.667L1032.82 857Z" fill="#AF69FF" fill-opacity="0.5"/>
<path d="M1058.71 827.286L1096.5 807L1092.5 843.54L1072.28 863.452L1050.23 874.866L1046.81 849.764L1058.71 827.286Z" fill="#AF69FF" fill-opacity="0.5"/>
<path d="M1055.6 809.376L1098.48 810.086L1077.17 840.042L1049.81 847.568L1025 846.787L1034.25 823.203L1055.6 809.376Z" fill="#AF69FF" fill-opacity="0.5"/>
<path d="M845.297 868.926L881.956 891.187L848.443 906.29L821.023 898.974L800 885.773L819.892 870.086L845.297 868.926Z" fill="#AF69FF" fill-opacity="0.5"/>
<path d="M759.756 723.839L779.619 746.373L754.061 749.477L737.255 738.862L725.954 725.649L742.528 719.312L759.756 723.839Z" fill="#AF69FF" fill-opacity="0.5"/>
<path d="M752.486 734.1L787.106 746.875L761.286 765.14L736.925 763.468L717 755.775L731.221 739.256L752.486 734.1Z" fill="#AF69FF" fill-opacity="0.5"/>
<path d="M769.672 712.24L780 740L755.443 733.856L743.738 718.156L738 702L755.443 702L769.672 712.24Z" fill="#AF69FF" fill-opacity="0.5"/>
<path d="M921.69 725.66L943.296 743.949L919.892 750.343L902.77 742.748L890.424 731.977L905.008 723.799L921.69 725.66Z" fill="#AF69FF" fill-opacity="0.5"/>
<path d="M937.104 719.311L947.352 746.763L922.984 740.688L911.369 725.162L905.675 709.186L922.984 709.186L937.104 719.311Z" fill="#AF69FF" fill-opacity="0.5"/>
<path d="M955.841 714.902L954.298 745.721L933.27 729.68L928.517 709.823L929.677 692L946.413 699.221L955.841 714.902Z" fill="#AF69FF" fill-opacity="0.5"/>
<path d="M677.272 822.257L706.649 827.621L688.608 845.776L668.955 847.835L652 844.476L661.037 829.328L677.272 822.257Z" fill="#AF69FF" fill-opacity="0.5"/>
<path d="M665.019 614.677L677.443 573.627L700.421 602.318L700.169 630.696L692.624 654.346L672.474 638.991L665.019 614.677Z" fill="#AF69FF" fill-opacity="0.5"/>
<path d="M656.018 618.61L648.547 584L676.626 595.51L687.81 616.099L691.834 636.194L671.138 633.178L656.018 618.61Z" fill="#AF69FF" fill-opacity="0.5"/>
<path d="M628.02 732.653L598 729.367L614.884 709.749L634.559 706.251L651.905 708.412L643.885 724.346L628.02 732.653Z" fill="#AF69FF" fill-opacity="0.5"/>
<path d="M638.701 716.836L665 707L659.18 730.388L644.305 741.536L629 747V730.388L638.701 716.836Z" fill="#AF69FF" fill-opacity="0.5"/>
<path d="M588.778 794.82L618 784L611.533 809.727L595.006 821.989L578 828V809.727L588.778 794.82Z" fill="#AF69FF" fill-opacity="0.5"/>
<path d="M600.631 822.92L614.874 790L631.221 816.025L628.3 839.577L619.772 858.506L604.501 843.829L600.631 822.92Z" fill="#AF69FF" fill-opacity="0.5"/>
<path d="M676.048 835.066L706 824L699.371 850.311L682.431 862.852L665 869V850.311L676.048 835.066Z" fill="#AF69FF" fill-opacity="0.5"/>
<path d="M1112.82 762L1153 747L1144.11 782.667L1121.38 799.667L1098 808V782.667L1112.82 762Z" fill="#AF69FF" fill-opacity="0.5"/>
<path d="M984.743 773.086L1023.97 790.428L992.687 809.732L964.551 806.016L942 795.64L959.7 777.516L984.743 773.086Z" fill="#AF69FF" fill-opacity="0.5"/>
<path d="M1208.41 867.71L1209.82 910.575L1178.85 890.778L1169.98 863.82L1169.53 839L1193.54 847.075L1208.41 867.71Z" fill="#AF69FF" fill-opacity="0.5"/>
<path d="M1193.09 867.028L1210.87 828L1229.82 859.497L1225.79 887.589L1215.16 910.022L1197.23 892.119L1193.09 867.028Z" fill="#AF69FF" fill-opacity="0.5"/>
<path d="M1291.38 917.488L1325.87 892L1327.15 928.736L1309.99 951.339L1289.8 965.791L1282.83 941.438L1291.38 917.488Z" fill="#AF69FF" fill-opacity="0.5"/>
<path d="M1273.96 916.369L1303.21 885L1311.18 920.882L1298.45 946.243L1281.25 964.145L1269.93 941.479L1273.96 916.369Z" fill="#AF69FF" fill-opacity="0.5"/>
<path d="M1232.82 553L1273 538L1264.11 573.667L1241.38 590.667L1218 599V573.667L1232.82 553Z" fill="#AF69FF" fill-opacity="0.5"/>
<path d="M1224.86 546.05L1267.5 550.641L1243.57 578.544L1215.64 583.561L1191 580.535L1202.35 557.887L1224.86 546.05Z" fill="#AF69FF" fill-opacity="0.5"/>
<path d="M1063.82 463L1104 448L1095.11 483.667L1072.38 500.667L1049 509V483.667L1063.82 463Z" fill="#AF69FF" fill-opacity="0.5"/>
<path d="M1045.01 452.566L1074.04 421L1082.26 456.828L1069.69 482.274L1052.62 500.291L1041.15 477.703L1045.01 452.566Z" fill="#AF69FF" fill-opacity="0.5"/>
<path d="M1248.17 930.544L1253.59 888L1281.03 912.467L1285.5 940.492L1281.99 965.067L1259.57 953.279L1248.17 930.544Z" fill="#AF69FF" fill-opacity="0.5"/>
<path d="M826.578 891.146L875.111 893.024L850.241 926.406L819.072 934.242L791 932.735L802.066 906.266L826.578 891.146Z" fill="#AF69FF" fill-opacity="0.5"/>
<path d="M622.665 904.787L657 892L649.401 922.404L629.982 936.896L610 944V922.404L622.665 904.787Z" fill="#AF69FF" fill-opacity="0.5"/>
<path d="M620.335 931.08L647.631 898L657.764 933.334L646.584 959.419L630.5 978.328L617.833 956.388L620.335 931.08Z" fill="#AF69FF" fill-opacity="0.5"/>
<path d="M638.325 960.693L634.235 918L666.385 935.82L676.924 962.171L678.921 986.914L654.451 980.357L638.325 960.693Z" fill="#AF69FF" fill-opacity="0.5"/>
<path d="M1334.3 377.306L1367.24 404.771L1331.85 414.723L1305.83 403.41L1287 387.23L1309 374.675L1334.3 377.306Z" fill="#AF69FF" fill-opacity="0.5"/>
<path d="M1354.13 356.11L1386.52 328L1390.67 364.524L1375.33 388.4L1356.34 404.388L1347.48 380.656L1354.13 356.11Z" fill="#AF69FF" fill-opacity="0.5"/>
<path d="M1327.08 341.655L1345.66 303L1363.96 334.879L1359.35 362.882L1348.27 385.093L1330.71 366.826L1327.08 341.655Z" fill="#AF69FF" fill-opacity="0.5"/>
<path d="M1330.29 353.3L1355.52 387.985L1318.77 388.984L1296.3 371.651L1282 351.359L1306.41 344.565L1330.29 353.3Z" fill="#AF69FF" fill-opacity="0.5"/>
<path d="M1254 1098.37L1247.8 1055.93L1280.79 1072.13L1292.63 1097.93L1295.85 1122.54L1271.08 1117.21L1254 1098.37Z" fill="#AF69FF" fill-opacity="0.5"/>
<path d="M1247.11 1121.6L1289.08 1130.39L1262.51 1155.78L1234.22 1158.01L1210 1152.56L1223.54 1131.15L1247.11 1121.6Z" fill="#AF69FF" fill-opacity="0.5"/>
<path d="M1255.38 1113.26L1288.08 1141.01L1252.61 1150.65L1226.68 1139.11L1208 1122.77L1230.11 1110.41L1255.38 1113.26Z" fill="#AF69FF" fill-opacity="0.5"/>
<path fill-rule="evenodd" clip-rule="evenodd" d="M1440 1437.39V1480.21H1262.2C1255.64 1480.21 1250.85 1474 1252.53 1467.65L1268.83 1406.17C1268.98 1405.61 1269.08 1405.03 1269.13 1404.45L1278.7 1291.3V1236.34L1275.58 1183.56C1275.51 1182.31 1275.2 1181.09 1274.68 1179.96L1255.5 1138.45C1254.92 1137.18 1254.07 1136.05 1253.02 1135.12L1217.42 1103.87C1216.63 1103.17 1215.73 1102.6 1214.77 1102.19L1201.69 1096.58C1200.71 1096.16 1199.67 1095.9 1198.6 1095.81L1137.98 1090.63L1103.96 1087.97C1102.44 1087.85 1100.91 1088.09 1099.5 1088.65L1075.69 1098.1L1040.11 1114.37C1038.58 1115.06 1036.9 1115.37 1035.23 1115.24L1011.78 1113.54C1009.8 1113.4 1007.9 1112.66 1006.33 1111.43L992.843 1100.84L979.998 1092C978.699 1091.1 977.206 1090.53 975.643 1090.32L950.29 1086.95C949.816 1086.89 949.357 1086.75 948.931 1086.53C944.864 1084.47 946.443 1078.33 950.998 1078.49L954.56 1078.61C959.193 1078.77 961.566 1073.12 958.204 1069.92L948.084 1060.31C946.832 1059.12 945.293 1058.28 943.617 1057.86L930.776 1054.66C929.511 1054.34 928.319 1053.78 927.269 1053.01L900.614 1033.4C900.147 1033.06 899.65 1032.75 899.129 1032.5L879.054 1022.55C876.623 1021.34 873.817 1021.2 871.214 1021.96C865.115 1023.75 856.787 1025.43 853.962 1023.21C850.636 1020.6 835.585 1016.8 827.213 1014.94C826.233 1014.72 825.292 1014.36 824.417 1013.87L815.75 1008.99C813.94 1007.97 812.724 1006.15 812.477 1004.09C811.887 999.174 816.769 995.422 821.364 997.255L836.523 1003.3C838.076 1003.92 839.759 1004.14 841.419 1003.94L855.448 1002.26L861.455 1001.54C867.033 1000.87 870.315 994.933 867.915 989.854L866.711 987.307C864.337 982.282 868.67 976.687 874.128 977.728C877.036 978.282 879.25 980.655 879.603 983.594L880.921 994.584C881.268 997.476 882.859 1000.07 885.277 1001.7L912.189 1019.76C912.583 1020.02 912.996 1020.26 913.424 1020.46L942.555 1034.49C943.077 1034.74 943.619 1034.95 944.177 1035.1L960.092 1039.6C962.117 1040.17 963.91 1041.36 965.216 1043.01L981.117 1063.1L988.538 1070.22C989.013 1070.68 989.532 1071.09 990.087 1071.44L1010.49 1084.46C1012.44 1085.7 1014.76 1086.23 1017.06 1085.95L1032.39 1084.11C1033.46 1083.99 1034.5 1083.69 1035.47 1083.23L1053.42 1074.76C1054.1 1074.44 1054.74 1074.04 1055.33 1073.58L1067.93 1063.69C1070.05 1062.02 1072.76 1061.28 1075.44 1061.64L1091.94 1063.87C1092.78 1063.98 1093.63 1063.98 1094.47 1063.88L1124.52 1060.28C1125.19 1060.2 1125.85 1060.05 1126.5 1059.84L1148.54 1052.48C1150.58 1051.8 1152.78 1051.79 1154.82 1052.46L1174.55 1058.93C1175.94 1059.38 1177.41 1059.53 1178.86 1059.36L1200.98 1056.7C1202.61 1056.51 1204.26 1056.72 1205.79 1057.31L1226.93 1065.51C1228.05 1065.95 1229.09 1066.58 1229.98 1067.38L1253.58 1088.5C1254.26 1089.11 1255.03 1089.63 1255.86 1090.03L1265.9 1094.94C1267.94 1095.94 1269.58 1097.6 1270.55 1099.65L1276.42 1112.06C1277.85 1115.08 1280.69 1117.19 1284 1117.68L1284.82 1117.8C1290.97 1118.71 1296.45 1113.84 1296.27 1107.62L1294.97 1061.89C1294.9 1059.52 1294 1057.26 1292.42 1055.5L1275.47 1036.58L1259.93 1015.5C1259.46 1014.87 1259.08 1014.2 1258.77 1013.48L1250.73 994.568C1249.75 992.267 1247.94 990.416 1245.67 989.38L1230.52 982.488C1230.01 982.255 1229.51 981.979 1229.05 981.662L1210.38 969.004C1209.94 968.707 1209.53 968.377 1209.15 968.015L1172.77 933.838L1144.98 912.706C1144.15 912.074 1143.42 911.316 1142.82 910.459L1111.31 865.192C1111.02 864.767 1110.76 864.32 1110.53 863.854L1089.21 820.056C1087.81 817.181 1085.13 815.148 1081.98 814.587L1065.01 811.561C1063.61 811.31 1062.16 811.364 1060.78 811.719L1010.11 824.701L956.006 846.945C955.49 847.157 954.992 847.412 954.519 847.707L907.602 876.948L891.723 886.588C886.934 889.495 885.467 895.769 888.471 900.498L893.846 908.961L897.945 916.977C899.873 920.747 899.217 925.322 896.309 928.399L895.461 929.296C891.588 933.395 885.093 933.482 881.112 929.488L873.495 921.848C872.539 920.889 871.932 919.638 871.771 918.294C871.104 912.738 863.903 910.982 860.754 915.608L853.145 926.787C852.062 928.377 850.544 929.622 848.772 930.371L813.612 945.234C812.502 945.704 811.271 945.809 810.096 945.535C804.796 944.299 804.072 937.049 809.024 934.79L827.666 926.285C828.839 925.75 829.897 924.993 830.783 924.056L879.732 872.262C880.271 871.692 880.875 871.187 881.532 870.758L952.491 824.42L1005.18 793.696C1011.74 789.868 1011.81 780.403 1005.29 776.487L998.747 772.553C997.271 771.666 995.592 771.175 993.871 771.127L956.14 770.087C954.197 770.033 952.281 770.547 950.625 771.565L925.982 786.722C924.75 787.479 923.369 787.961 921.934 788.133L882.448 792.869C880.813 793.065 879.156 792.854 877.622 792.256L832.969 774.832L797.495 759.66C795.881 758.97 794.114 758.717 792.372 758.926L768.576 761.78C767.301 761.933 766.069 762.33 764.944 762.948L737.293 778.169C733.722 780.136 731.701 784.073 732.187 788.121L732.923 794.264C733.091 795.665 732.961 797.086 732.541 798.433L725.668 820.462L721.684 830.703C721.089 832.234 720.88 833.888 721.075 835.519L723.666 857.115C723.817 858.379 724.209 859.603 724.82 860.72L731.484 872.913C731.888 873.653 732.384 874.338 732.96 874.953L750.034 893.186C751.489 894.74 752.41 896.717 752.663 898.83L756.512 930.922C756.766 933.036 756.338 935.175 755.292 937.029L742.39 959.887L725.459 984.638C724.091 986.639 723.496 989.069 723.784 991.475L726.539 1014.44C726.791 1016.54 727.702 1018.51 729.142 1020.06L732.059 1023.2C733.498 1024.75 734.409 1026.71 734.661 1028.81L735.076 1032.27C735.676 1037.28 732.105 1041.82 727.1 1042.42C723.917 1042.81 720.768 1041.49 718.802 1038.96L711.715 1029.83C710.99 1028.9 710.437 1027.84 710.08 1026.72L702.53 1002.86C701.927 1000.96 701.908 998.913 702.477 996.997L711.884 965.314C712.244 964.103 712.83 962.971 713.611 961.978L731.255 939.547C732.551 937.899 733.296 935.885 733.386 933.791L734.727 902.351C734.853 899.378 733.65 896.503 731.443 894.508L719.383 883.601C717.824 882.191 715.859 881.308 713.77 881.078L696.314 879.156C693.961 878.897 691.591 879.482 689.628 880.806L667.606 895.659C666.091 896.68 664.885 898.097 664.119 899.756L657.418 914.263C655.993 917.349 656.232 920.948 658.055 923.818L665.211 935.085C665.719 935.885 666.339 936.609 667.051 937.235L673.606 942.996C677.777 946.663 678.162 953.026 674.463 957.168L673.556 958.184C670.904 961.153 666.745 962.267 662.964 961.02L645.773 955.35C643.677 954.659 641.869 953.294 640.63 951.468L629.659 935.301C627.974 932.818 627.493 929.71 628.348 926.834L635.095 904.155C635.756 901.934 637.167 900.011 639.088 898.716L663.495 882.254L694.363 865.127C697.918 863.155 699.924 859.228 699.44 855.192L697.761 841.188C697.362 837.867 695.33 834.965 692.345 833.455L691.684 833.121C688.699 831.612 686.666 828.709 686.268 825.388L686.064 823.684C685.551 819.41 687.832 815.287 691.726 813.449L701.394 808.888C705.288 807.051 707.569 802.928 707.056 798.653L706.955 797.809C706.66 795.354 705.467 793.096 703.606 791.469L692.09 781.407C690.987 780.443 689.686 779.734 688.279 779.328L672.245 774.709C670.064 774.08 667.734 774.213 665.638 775.084L641.131 785.273C639.834 785.812 638.666 786.618 637.702 787.638L623.06 803.131C622.443 803.784 621.917 804.517 621.496 805.31L606.387 833.768C606.011 834.478 605.549 835.14 605.014 835.739L604.144 836.713C599.308 842.128 590.495 840.748 587.547 834.113L587.089 833.082C585.817 830.219 585.96 826.925 587.476 824.182L596.899 807.141L607.146 784.853C608.298 782.346 610.435 780.427 613.05 779.55L649.702 767.248L678.403 759.811L717.826 755.082L740.842 752.322C742.801 752.087 744.646 751.278 746.146 749.996L759.363 738.707C761.906 736.534 763.195 733.234 762.797 729.913L761.742 721.122C761.434 718.55 760.139 716.197 758.13 714.561L739.356 699.262C738.026 698.179 736.439 697.455 734.749 697.162L723.175 695.153C721.736 694.904 720.26 694.972 718.851 695.354L690.44 703.05C689.636 703.268 688.864 703.585 688.139 703.994L664.003 717.616C662.854 718.264 661.588 718.679 660.278 718.836L634.357 721.945C632.498 722.168 630.613 721.864 628.918 721.069L612.645 713.432C611.669 712.974 610.625 712.677 609.554 712.552L592.067 710.515C591.287 710.424 590.499 710.425 589.719 710.519L584.329 711.165C580.21 711.659 576.214 709.559 574.285 705.887L571.398 700.39C570.059 697.841 570.343 694.744 572.123 692.481C573.746 690.417 576.353 689.384 578.949 689.775L598.37 692.701L627.081 700.507C628.323 700.845 629.618 700.939 630.895 700.786L651.038 698.37C656.8 697.679 659.236 690.655 655.139 686.545L650.566 681.958C649.448 680.837 648.08 679.998 646.575 679.508L615.77 669.497C615.087 669.275 614.383 669.128 613.668 669.057L586.738 666.379C585.983 666.304 585.239 666.144 584.521 665.9L548.484 653.703C547.667 653.427 546.89 653.046 546.171 652.57L532.298 643.389C530.763 642.373 529.752 640.734 529.533 638.906C528.965 634.175 533.673 630.565 538.095 632.34L553.434 638.5C554.024 638.736 554.635 638.916 555.259 639.037L564.896 640.904C570.219 641.935 574.569 636.658 572.54 631.629L571.282 628.513C569.378 623.795 574.295 619.215 578.866 621.448C579.81 621.91 580.604 622.629 581.155 623.524L590.658 638.949C591.683 640.613 593.173 641.94 594.945 642.767L623.576 656.118L646.333 664.999C646.824 665.19 647.299 665.42 647.753 665.686L665.673 676.187C667.557 677.291 669.751 677.748 671.919 677.488L688.382 675.513C690.858 675.216 693.133 674.003 694.758 672.112C698.103 668.22 697.948 662.424 694.401 658.716L690.706 654.855C690.026 654.144 689.245 653.538 688.388 653.055L663.948 639.291L652.153 634.313L623.87 625.831C621.267 625.051 619.094 623.245 617.851 620.829L606.581 598.931C606.354 598.491 606.094 598.068 605.805 597.665L599.643 589.106C598.928 588.113 598.038 587.26 597.016 586.589L586.355 579.589C585.287 578.888 584.583 577.751 584.431 576.483C584.146 574.107 585.841 571.951 588.217 571.666L597.012 570.611C600.61 570.179 604.159 571.727 606.29 574.657L624.43 599.597C625.347 600.857 626.546 601.886 627.931 602.601L648.121 613.019C649.163 613.557 650.292 613.908 651.456 614.054L677.43 617.328C678.426 617.454 679.397 617.728 680.311 618.143L699.314 626.763C701.447 627.73 703.173 629.416 704.19 631.526L715.781 655.566C716.228 656.492 716.816 657.345 717.523 658.093L733.835 675.346C734.46 676.006 735.171 676.578 735.95 677.047L757.174 689.804C757.756 690.153 758.301 690.562 758.8 691.022L782.133 712.531C783.439 713.735 785.042 714.569 786.777 714.948L820.365 722.285C821.387 722.509 822.369 722.891 823.273 723.419L849.292 738.612C849.955 738.999 850.66 739.309 851.394 739.534L878.16 747.77C879.496 748.181 880.904 748.308 882.292 748.141L916.342 744.057C917.97 743.862 919.525 743.269 920.871 742.331L938.877 729.775C940.247 728.82 941.356 727.537 942.102 726.043L953.264 703.707C955.971 698.29 953.28 691.729 947.55 689.773L936.631 686.045C936.119 685.871 935.623 685.655 935.147 685.4L913.002 673.563C911.194 672.596 909.133 672.209 907.097 672.453L877.897 675.955L843.204 680.116L822.146 682.642C819.022 683.017 815.905 681.9 813.73 679.626L791.135 656.012C790.221 655.057 789.506 653.931 789.031 652.699L772.27 609.267C771.561 607.432 771.41 605.428 771.835 603.508L772.183 601.935C773.537 595.811 780.192 592.495 785.896 595.103C788.528 596.306 790.497 598.605 791.282 601.391L803.179 643.637C803.7 645.485 804.741 647.144 806.179 648.416L822.09 662.492C824.228 664.384 827.072 665.271 829.906 664.931L855.413 661.872L881.918 658.693C889.104 657.831 893.023 649.856 889.314 643.641L885.189 636.727L880.101 627.04C878.172 623.368 874.176 621.268 870.057 621.762L852.382 623.882C851.385 624.001 850.376 623.97 849.388 623.789L829.024 620.056C827.831 619.838 826.774 619.156 826.082 618.16C823.592 614.571 827.052 609.862 831.22 611.166L833.94 612.017C834.691 612.252 835.483 612.325 836.264 612.231L859.135 609.488C861.526 609.201 863.232 607.031 862.945 604.64C862.414 600.211 868.088 597.937 870.763 601.506L875.291 607.55L890.145 624.908C892.288 627.412 895.959 627.93 898.711 626.117C901.766 624.104 905.878 624.989 907.834 628.08L922.039 650.531C923.311 652.541 925.258 654.031 927.53 654.735L960.625 664.99C962.218 665.483 963.662 666.367 964.826 667.561L981.892 685.067C984.819 688.069 985.562 692.58 983.752 696.363L977.883 708.631C974.526 715.649 980.233 723.61 987.956 722.683L988.317 722.64C989.836 722.458 991.377 722.687 992.778 723.305C999.976 726.477 1007.27 719.054 1003.97 711.912L1001.95 707.539C1001.69 706.961 1001.48 706.358 1001.32 705.74L990.649 662.432L989.14 649.849C988.835 647.307 989.516 644.745 991.044 642.69L1000.33 630.205C1000.82 629.552 1001.22 628.841 1001.53 628.09L1008.13 612.304C1008.79 610.712 1009.03 608.974 1008.83 607.261L1007.12 593.077C1007.02 592.201 1007.03 591.315 1007.16 590.442L1011.05 563.786C1011.25 562.388 1011.75 561.05 1012.51 559.859L1026.7 537.559C1028.47 534.779 1028.76 531.307 1027.47 528.275L1020.14 511.05C1019.72 510.057 1019.14 509.138 1018.42 508.331L1004.72 492.882C1003.5 491.502 1001.92 490.488 1000.16 489.95L977.128 482.934C975.497 482.437 974.049 481.47 972.965 480.154C968.055 474.194 972.806 465.272 980.492 466.02L999.032 467.823C999.75 467.893 1000.47 467.885 1001.19 467.799L1006.99 467.103C1011.34 466.582 1015.52 468.951 1017.31 472.949L1023.48 486.73C1023.92 487.716 1024.51 488.624 1025.25 489.419L1040.7 506.209L1039.53 496.523C1039.43 495.633 1039.2 494.761 1038.86 493.931L1027.43 465.964C1027.09 465.134 1026.87 464.262 1026.76 463.372L1025.38 451.836C1025.21 450.458 1025.33 449.061 1025.74 447.733L1031.44 429.014L1044.07 383.475C1044.21 382.977 1044.31 382.469 1044.37 381.955L1048.19 349.072C1048.46 346.734 1047.9 344.375 1046.6 342.41L1039.92 332.287C1038.6 330.286 1038.13 327.843 1038.61 325.495C1040.28 317.35 1051.15 315.607 1055.29 322.819L1056.56 325.034C1057.22 326.198 1057.65 327.485 1057.81 328.818L1060.77 353.457C1060.9 354.581 1060.84 355.72 1060.6 356.825L1047.97 413.447L1043.69 450.012C1043.39 452.552 1044.08 455.11 1045.61 457.158L1062.62 479.926C1064.23 482.084 1064.91 484.802 1064.49 487.463L1060.37 513.694C1060.23 514.602 1060.21 515.525 1060.32 516.437L1061.35 525.038C1061.67 527.725 1063.07 530.166 1065.22 531.805L1087.69 548.907C1090.26 550.861 1093.61 551.456 1096.69 550.506L1125.72 541.557L1164.48 531.315L1198.86 527.191C1200.11 527.042 1201.37 527.128 1202.59 527.447L1227.47 533.966C1230.28 534.703 1232.36 537.084 1232.7 539.97C1232.99 542.386 1234.5 544.484 1236.7 545.525L1254.55 553.972C1255.55 554.447 1256.47 555.086 1257.26 555.862L1295.15 592.924C1299.73 597.406 1307.29 596.481 1310.65 591.027L1348.28 530.045L1364.22 496.313C1365.52 493.577 1369.58 494.238 1369.94 497.242C1370.14 498.896 1371.64 500.076 1373.3 499.877L1398.87 496.81C1403.19 496.292 1406.59 500.44 1405.23 504.576C1404.51 506.772 1402.58 508.351 1400.29 508.626L1381.52 510.877C1380.25 511.029 1379.03 511.419 1377.92 512.028L1367.03 517.971C1365.43 518.84 1364.11 520.126 1363.19 521.691L1323.87 588.74C1323.14 589.99 1322.69 591.384 1322.55 592.826L1319.34 625.609C1319.01 629.007 1320.44 632.339 1323.12 634.447L1338.65 646.638C1342.49 649.651 1343.59 654.996 1341.26 659.283L1316.46 704.857L1298.17 732.187C1296.85 734.172 1296.27 736.567 1296.56 738.939L1297.57 747.391C1298.23 752.874 1303.21 756.786 1308.69 756.129L1317.56 755.065C1320.62 754.697 1323.35 752.937 1324.94 750.295L1331.75 738.98L1335.63 732.738C1338.79 727.648 1346.6 729.379 1347.31 735.328C1347.45 736.48 1347.27 737.647 1346.79 738.703L1336.69 760.971C1335.53 763.522 1333.36 765.471 1330.69 766.343L1313.21 772.07C1312.26 772.38 1311.37 772.829 1310.56 773.403L1286.45 790.411C1285.17 791.318 1284.12 792.515 1283.38 793.905L1267.37 824.175C1267.05 824.767 1266.8 825.389 1266.61 826.031L1254.97 865.649L1245.98 897.634C1245.62 898.901 1245.52 900.225 1245.67 901.531L1249.24 931.252C1249.47 933.183 1250.26 935.005 1251.51 936.494L1264.91 952.441C1265.27 952.869 1265.59 953.332 1265.86 953.823C1269.14 959.82 1277.87 959.516 1280.89 953.384C1281.62 951.905 1281.91 950.227 1281.71 948.59L1281.68 948.368C1281.3 945.17 1279.28 942.4 1276.36 941.052L1273.65 939.805C1271.42 938.776 1269.88 936.663 1269.59 934.222C1268.95 928.892 1274.25 924.82 1279.24 926.809L1285.59 929.344C1286.3 929.625 1286.97 929.985 1287.59 930.418L1299.23 938.502C1301.25 939.897 1303.7 940.507 1306.13 940.216L1316.58 938.962C1319.09 938.661 1321.4 937.418 1323.03 935.483L1340.44 914.85C1341.14 914.022 1341.97 913.314 1342.9 912.752L1374.3 893.685L1397.61 882.921C1400.57 881.55 1402.68 878.815 1403.26 875.597L1405.27 864.285C1405.55 862.752 1405.46 861.177 1405.02 859.684L1396.54 831.133C1396.38 830.592 1396.26 830.038 1396.2 829.478L1393.97 810.948C1393.88 810.211 1393.88 809.467 1393.95 808.729L1396.13 787.703C1396.32 785.781 1395.96 783.843 1395.08 782.123L1390.25 772.678C1389.53 771.254 1389.4 769.6 1389.9 768.081C1391.35 763.647 1397.1 762.512 1400.13 766.058L1400.96 767.018C1401.93 768.16 1403.42 768.739 1404.91 768.56C1407.74 768.22 1409.55 765.361 1408.64 762.656L1400.34 738.029C1399 734.042 1400.85 729.682 1404.66 727.888L1407.04 726.762C1412.46 724.208 1418.39 729.133 1416.88 734.925C1415.46 740.36 1420.65 745.194 1425.97 743.388L1427.85 742.75C1430.45 741.869 1432.42 739.737 1433.11 737.082L1435.14 729.191C1435.58 727.473 1436.72 726.014 1438.27 725.164C1438.85 724.852 1439.42 724.636 1440 724.506V750.059L1439.65 750.87C1439.19 751.943 1438.54 752.925 1437.74 753.774L1427.13 765C1426.5 765.669 1425.96 766.423 1425.53 767.24L1417.72 782.205L1407.93 806.528C1407.48 807.646 1407.32 808.859 1407.46 810.056C1408.25 816.589 1416.69 818.698 1420.45 813.301L1437.14 789.372C1437.5 788.859 1437.81 788.313 1438.07 787.742L1440 783.429V803.36L1439.91 803.566C1439.69 804.091 1439.41 804.595 1439.1 805.074L1420.61 833.385C1419.33 835.353 1418.78 837.71 1419.06 840.044L1421.76 862.558C1422.63 869.83 1430.77 873.728 1436.98 869.851L1440 867.967V909.883L1433.31 912.177L1397.13 922.622C1396 922.947 1394.94 923.466 1394 924.157L1371.9 940.318L1365.83 943.933C1365.4 944.191 1364.98 944.481 1364.6 944.8L1347.82 958.593C1347.26 959.055 1346.65 959.454 1346.01 959.783L1325.24 970.345C1324.66 970.641 1324.11 970.992 1323.59 971.394L1311.97 980.52C1309.23 982.676 1307.81 986.109 1308.22 989.575L1308.48 991.739C1309 996.043 1312.23 999.525 1316.48 1000.36L1332.52 1003.51C1336.77 1004.35 1340 1007.83 1340.52 1012.13L1341.45 1019.88L1343.19 1034.38C1343.58 1037.63 1345.54 1040.49 1348.43 1042.02L1360.69 1048.53C1362.49 1049.49 1364.54 1049.87 1366.57 1049.63L1373.07 1048.85C1375.98 1048.5 1378.89 1049.44 1381.04 1051.43L1388.61 1058.42C1393.49 1062.92 1401.32 1061.51 1404.32 1055.59L1408.48 1047.37C1409.42 1045.53 1411.21 1044.27 1413.26 1044.03C1417.67 1043.5 1421.18 1047.66 1419.91 1051.92L1414.37 1070.54C1413.79 1072.51 1412.61 1074.25 1411 1075.53L1394.48 1088.63L1374.05 1103.16C1371.59 1104.91 1370.06 1107.68 1369.87 1110.68L1368.24 1136.52L1370.14 1193.91C1370.16 1194.39 1370.21 1194.87 1370.29 1195.34L1377.65 1236.34L1385.71 1282.25L1391.86 1333.47C1391.98 1334.5 1392.26 1335.51 1392.7 1336.45L1419.13 1394.1L1440 1437.39ZM1440 475.159L1433.72 462.191C1433.03 460.749 1431.99 459.496 1430.71 458.537L1394.88 431.767L1360.9 401.134C1359.11 399.514 1357.96 397.298 1357.67 394.897L1351.96 347.291C1351.85 346.338 1351.52 345.422 1351.02 344.606L1348.7 340.844C1345.08 334.982 1336.05 338.905 1337.86 345.553C1338.2 346.787 1338.13 348.096 1337.67 349.288L1334.61 357.144C1333.92 358.917 1332.31 360.166 1330.42 360.393C1325.38 360.998 1324.16 367.757 1328.67 370.09L1332.61 372.128C1334.2 372.95 1335.38 374.39 1335.88 376.109L1345.59 409.736C1345.89 410.744 1346.33 411.7 1346.92 412.568L1360.72 432.94C1361.91 434.697 1363.63 436.03 1365.63 436.745L1386.36 444.17C1387.2 444.47 1388 444.882 1388.73 445.394L1411 460.993C1412.28 461.892 1413.34 463.08 1414.08 464.462L1429.44 493.144L1440 508.827V475.159ZM1440 604.966L1435.6 596.007C1433.92 592.589 1428.75 594.12 1429.21 597.901C1429.26 598.385 1429.22 598.875 1429.07 599.338L1423.56 616.5C1423.12 617.871 1422.98 619.32 1423.15 620.749L1425.48 640.196C1425.64 641.526 1426.07 642.811 1426.73 643.973L1436.85 661.652L1440 666.927V636.225C1439.46 634.792 1439.25 633.253 1439.4 631.725L1440 625.496V604.966ZM1063.08 547.313L1053.12 533.086L1033.75 557.704C1033.02 558.636 1032.46 559.691 1032.09 560.819L1023.41 587.782C1022.96 589.155 1022.82 590.607 1023 592.04L1025.81 615.533C1026.14 618.257 1025.33 620.995 1023.58 623.106L1014.73 633.782C1013.21 635.617 1012.51 637.997 1012.8 640.365C1013.58 646.886 1021.03 650.218 1026.41 646.451L1035.18 640.311L1058.77 618.919C1061.17 616.742 1062.37 613.538 1061.98 610.321L1060.8 600.503C1060.68 599.475 1060.94 598.436 1061.53 597.584L1064.71 592.987C1066.85 589.887 1071.69 592.182 1070.64 595.805C1070.29 597.011 1070.65 598.311 1071.57 599.166L1075.63 602.934C1078.31 605.423 1082.13 606.251 1085.6 605.093L1104.7 598.718C1105.63 598.407 1106.63 598.363 1107.58 598.59C1112.38 599.73 1113.12 606.245 1108.71 608.436L1065.38 629.922C1064.72 630.25 1064.1 630.65 1063.53 631.114L1034.2 654.904C1032.07 656.631 1030.74 659.157 1030.53 661.89L1027.83 696.251C1027.74 697.369 1027.85 698.494 1028.13 699.579L1041.19 749.171C1041.95 752.047 1043.95 754.436 1046.64 755.691L1091.52 776.582L1117.2 789.128C1119.27 790.143 1120.93 791.844 1121.9 793.944L1138.11 829.294C1138.58 830.316 1139.22 831.252 1140 832.062L1172.62 865.937L1199.69 894.053C1204.38 898.928 1212.46 897.832 1215.68 891.883L1227.48 870.111C1227.93 869.284 1228.26 868.397 1228.46 867.478L1236.46 830.836C1236.77 829.402 1237.4 828.054 1238.29 826.889L1263.21 794.344L1279.46 768.81C1280.7 766.861 1281.23 764.543 1280.96 762.249L1279.29 748.324C1279.05 746.363 1279.4 744.375 1280.3 742.613L1297.76 708.153C1298.14 707.408 1298.61 706.714 1299.16 706.086L1317.11 685.575C1318.61 683.861 1319.48 681.686 1319.58 679.409L1320.64 654.293C1320.79 650.653 1318.96 647.218 1315.84 645.326L1311.18 642.492C1309.63 641.55 1308.36 640.203 1307.52 638.597L1293.57 612.044C1292.69 610.37 1291.36 608.979 1289.72 608.034L1239.32 578.929C1237.95 578.137 1236.78 577.03 1235.92 575.699L1220 551.08C1217.92 547.872 1214.2 546.126 1210.41 546.581L1177.97 550.472L1128.52 556.404C1127.85 556.484 1127.19 556.631 1126.55 556.843L1098.19 566.27C1095.33 567.222 1092.19 566.83 1089.65 565.205L1065.88 550C1064.78 549.296 1063.83 548.383 1063.08 547.313Z" fill="#52088B"/>
<path d="M1310.61 356.522L1314.61 296.353L1355.18 328.367L1363.83 367.32L1361 402.108L1328.53 387.464L1310.61 356.522Z" fill="#AF69FF" fill-opacity="0.5"/>
<g filter="url(#filter5_f_138_238)">
<path d="M799.5 743L698 667L709 627L799.5 591L890 627L967.5 667V730C947.667 739.167 906.2 757.8 899 759C891.8 760.2 829.667 748.833 799.5 743Z" fill="#BA6EFF" fill-opacity="0.2"/>
<path d="M799.5 743L698 667L709 627L799.5 591L890 627L967.5 667V730C947.667 739.167 906.2 757.8 899 759C891.8 760.2 829.667 748.833 799.5 743Z" stroke="black"/>
</g>
<g filter="url(#filter6_f_138_238)">
<path d="M759.5 786.5C745.1 790.9 713.833 801.333 700 806L734 844L792 882L891.5 862.5L951.5 819L902.5 786.5C860.833 784.667 773.9 782.1 759.5 786.5Z" fill="#BA6EFF" fill-opacity="0.2"/>
<path d="M759.5 786.5C745.1 790.9 713.833 801.333 700 806L734 844L792 882L891.5 862.5L951.5 819L902.5 786.5C860.833 784.667 773.9 782.1 759.5 786.5Z" stroke="black"/>
</g>
<g filter="url(#filter7_f_138_238)">
<path d="M1096 473.5L1047.5 446L989.5 511.5L1060 554.5L1186.5 591L1268 629L1349.5 591L1373 511.5L1349.5 473.5H1288L1244.5 511.5L1157.5 473.5H1096Z" fill="#BA6EFF" fill-opacity="0.2"/>
<path d="M1096 473.5L1047.5 446L989.5 511.5L1060 554.5L1186.5 591L1268 629L1349.5 591L1373 511.5L1349.5 473.5H1288L1244.5 511.5L1157.5 473.5H1096Z" stroke="black"/>
</g>
<path d="M843.731 991.945L833.149 964.096L857.96 970.128L869.861 985.845L875.744 1002.05L858.147 1002.16L843.731 991.945Z" fill="#AF69FF" fill-opacity="0.5"/>
<path d="M850.431 1018.59L876 1009L870.341 1031.8L855.88 1042.67L841 1048V1031.8L850.431 1018.59Z" fill="#AF69FF" fill-opacity="0.5"/>
<path d="M683.831 680.367L665 654L693.267 653.536L710.262 666.79L720.927 682.212L702.053 687.146L683.831 680.367Z" fill="#AF69FF" fill-opacity="0.5"/>
<path d="M693.102 685.854L721.162 681.748L710.354 703.718L693.274 711.585L677 713.717L680.601 697.222L693.102 685.854Z" fill="#AF69FF" fill-opacity="0.5"/>
<path d="M897.527 765.046L939.496 756.217L925.375 790.155L900.366 803.569L876 808.315L879.785 783.266L897.527 765.046Z" fill="#AF69FF" fill-opacity="0.5"/>
<path d="M910.01 786.585L939.024 755L947.267 790.822L934.718 816.277L917.654 834.305L906.169 811.725L910.01 786.585Z" fill="#AF69FF" fill-opacity="0.5"/>
<path d="M977.577 767.707L997.855 805.498L961.315 801.494L941.408 781.267L930 759.22L955.102 755.806L977.577 767.707Z" fill="#AF69FF" fill-opacity="0.5"/>
<path d="M750.048 756.066L780 745L773.371 771.311L756.431 783.852L739 790V771.311L750.048 756.066Z" fill="#AF69FF" fill-opacity="0.5"/>
<path d="M744.773 731.896L735.449 697L764.629 707.34L777.042 727.765L782.136 748.041L760.899 745.991L744.773 731.896Z" fill="#AF69FF" fill-opacity="0.5"/>
<path d="M766.719 705.174L791.259 670L804.207 704.402L795.167 731.304L780.66 751.447L766.266 730.601L766.719 705.174Z" fill="#AF69FF" fill-opacity="0.5"/>
<path d="M1078.79 761.976L1099.55 724.446L1115.99 757.32L1109.79 785.014L1097.45 806.554L1080.97 787.313L1078.79 761.976Z" fill="#AF69FF" fill-opacity="0.5"/>
<path d="M1051.76 793.17L1035 753.692L1071.02 761.001L1089.01 782.954L1098.37 805.946L1073.06 807.064L1051.76 793.17Z" fill="#AF69FF" fill-opacity="0.5"/>
<path d="M857.436 919.676L868.33 899L877.605 916.601L874.521 931.724L868.038 943.597L858.885 933.396L857.436 919.676Z" fill="#AF69FF" fill-opacity="0.5"/>
<path d="M897.302 901.053L912.43 922.242L890.12 922.652L876.572 912.011L868 899.617L882.851 895.623L897.302 901.053Z" fill="#AF69FF" fill-opacity="0.5"/>
<path d="M892.311 913.143L898.362 938.174L877.741 930.307L869.242 915.538L865.956 901L881.058 902.822L892.311 913.143Z" fill="#AF69FF" fill-opacity="0.5"/>
<path d="M1170.25 914.724L1205.46 939.215L1171.08 952.212L1144.16 943.209L1124 928.73L1144.83 914.307L1170.25 914.724Z" fill="#AF69FF" fill-opacity="0.5"/>
<path d="M1173.93 899.981L1186.58 859L1209.4 887.816L1208.99 916.193L1201.31 939.801L1181.25 924.336L1173.93 899.981Z" fill="#AF69FF" fill-opacity="0.5"/>
<path d="M1182.13 903.754L1205.59 939.656L1168.84 938.818L1147.27 920.384L1134 899.403L1158.71 893.837L1182.13 903.754Z" fill="#AF69FF" fill-opacity="0.5"/>
<path d="M1156.78 949.066L1205 938L1194.33 964.311L1167.06 976.852L1139 983V964.311L1156.78 949.066Z" fill="#AF69FF" fill-opacity="0.5"/>
<path d="M1120.82 1032L1161 1017L1152.11 1052.67L1129.38 1069.67L1106 1078V1052.67L1120.82 1032Z" fill="#AF69FF" fill-opacity="0.5"/>
<path d="M1065.22 1062.56L1049 1022.86L1084.92 1030.66L1102.6 1052.86L1111.65 1075.97L1086.32 1076.75L1065.22 1062.56Z" fill="#AF69FF" fill-opacity="0.5"/>
<path d="M1243.29 982.038L1281.13 1002.23L1248.51 1019.17L1220.72 1013.39L1199 1001.37L1217.99 984.605L1243.29 982.038Z" fill="#AF69FF" fill-opacity="0.5"/>
<path d="M1239.33 997.316L1281.73 1003.76L1256.61 1030.59L1228.48 1034.39L1204 1030.29L1216.33 1008.16L1239.33 997.316Z" fill="#AF69FF" fill-opacity="0.5"/>
<path d="M1356.82 1013L1397 998L1388.11 1033.67L1365.38 1050.67L1342 1059V1033.67L1356.82 1013Z" fill="#AF69FF" fill-opacity="0.5"/>
<path d="M1328.83 1010.92L1352.27 975L1366.28 1008.99L1358.07 1036.15L1344.2 1056.74L1329.16 1036.34L1328.83 1010.92Z" fill="#AF69FF" fill-opacity="0.5"/>
<path d="M1375.67 1021.82L1418.44 1024.95L1395.47 1053.65L1367.73 1059.62L1343 1057.43L1353.57 1034.41L1375.67 1021.82Z" fill="#AF69FF" fill-opacity="0.5"/>
<path d="M1012.54 497.768L1009.33 455L1041.11 473.482L1051.1 500.044L1052.58 524.823L1028.25 517.762L1012.54 497.768Z" fill="#AF69FF" fill-opacity="0.5"/>
<path d="M1011.73 528.111L979.765 499.522L1015.47 490.801L1041.09 503.009L1059.35 519.831L1036.92 531.616L1011.73 528.111Z" fill="#AF69FF" fill-opacity="0.5"/>
<path d="M965.625 743.654L955.411 702L989.798 714.989L1004.03 739.541L1009.58 763.736L984.424 760.783L965.625 743.654Z" fill="#AF69FF" fill-opacity="0.5"/>
<path d="M986.055 723.024L1001.47 683L1022.27 713.304L1019.93 741.587L1010.66 764.617L991.7 747.821L986.055 723.024Z" fill="#AF69FF" fill-opacity="0.5"/>
<path d="M1064.82 328L1105 313L1096.11 348.667L1073.38 365.667L1050 374V348.667L1064.82 328Z" fill="#AF69FF" fill-opacity="0.5"/>
<path d="M1010.59 359.754L997.226 319L1032.5 329.328L1048.57 352.722L1055.95 376.424L1030.64 375.398L1010.59 359.754Z" fill="#AF69FF" fill-opacity="0.5"/>
<path d="M683.048 875.311L713 864L706.371 890.896L689.431 903.716L672 910V890.896L683.048 875.311Z" fill="#AF69FF" fill-opacity="0.5"/>
<path d="M712.676 888.96L714.403 868L728.375 879.388L731.177 893.019L729.996 905.135L718.754 899.849L712.676 888.96Z" fill="#AF69FF" fill-opacity="0.5"/>
<path d="M693.561 891.279L713.392 865L722.341 891.76L714.636 912.137L702.932 927.175L692.486 910.772L693.561 891.279Z" fill="#AF69FF" fill-opacity="0.5"/>
<path d="M665.82 878L706 863L697.108 898.667L674.383 915.667L651 924V898.667L665.82 878Z" fill="#AF69FF" fill-opacity="0.5"/>
</g>
<defs>
<filter id="filter0_f_138_238" x="705.428" y="887.452" width="715.771" height="330.741" filterUnits="userSpaceOnUse" color-interpolation-filters="sRGB">
<feFlood flood-opacity="0" result="BackgroundImageFix"/>
<feBlend mode="normal" in="SourceGraphic" in2="BackgroundImageFix" result="shape"/>
<feGaussianBlur stdDeviation="25" result="effect1_foregroundBlur_138_238"/>
</filter>
<filter id="filter1_f_138_238" x="480.5" y="189.5" width="1006" height="926" filterUnits="userSpaceOnUse" color-interpolation-filters="sRGB">
<feFlood flood-opacity="0" result="BackgroundImageFix"/>
<feBlend mode="normal" in="SourceGraphic" in2="BackgroundImageFix" result="shape"/>
<feGaussianBlur stdDeviation="25" result="effect1_foregroundBlur_138_238"/>
</filter>
<filter id="filter2_f_138_238" x="517.458" y="210.953" width="973.042" height="814.07" filterUnits="userSpaceOnUse" color-interpolation-filters="sRGB">
<feFlood flood-opacity="0" result="BackgroundImageFix"/>
<feBlend mode="normal" in="SourceGraphic" in2="BackgroundImageFix" result="shape"/>
<feGaussianBlur stdDeviation="25" result="effect1_foregroundBlur_138_238"/>
</filter>
<filter id="filter3_f_138_238" x="486.481" y="511.5" width="660.062" height="482.506" filterUnits="userSpaceOnUse" color-interpolation-filters="sRGB">
<feFlood flood-opacity="0" result="BackgroundImageFix"/>
<feBlend mode="normal" in="SourceGraphic" in2="BackgroundImageFix" result="shape"/>
<feGaussianBlur stdDeviation="25" result="effect1_foregroundBlur_138_238"/>
</filter>
<filter id="filter4_f_138_238" x="879" y="243.485" width="571.512" height="515.87" filterUnits="userSpaceOnUse" color-interpolation-filters="sRGB">
<feFlood flood-opacity="0" result="BackgroundImageFix"/>
<feBlend mode="normal" in="SourceGraphic" in2="BackgroundImageFix" result="shape"/>
<feGaussianBlur stdDeviation="25" result="effect1_foregroundBlur_138_238"/>
</filter>
<filter id="filter5_f_138_238" x="647.428" y="540.462" width="370.572" height="269.126" filterUnits="userSpaceOnUse" color-interpolation-filters="sRGB">
<feFlood flood-opacity="0" result="BackgroundImageFix"/>
<feBlend mode="normal" in="SourceGraphic" in2="BackgroundImageFix" result="shape"/>
<feGaussianBlur stdDeviation="25" result="effect1_foregroundBlur_138_238"/>
</filter>
<filter id="filter6_f_138_238" x="649.122" y="733.571" width="353.255" height="198.959" filterUnits="userSpaceOnUse" color-interpolation-filters="sRGB">
<feFlood flood-opacity="0" result="BackgroundImageFix"/>
<feBlend mode="normal" in="SourceGraphic" in2="BackgroundImageFix" result="shape"/>
<feGaussianBlur stdDeviation="25" result="effect1_foregroundBlur_138_238"/>
</filter>
<filter id="filter7_f_138_238" x="938.729" y="395.365" width="484.813" height="284.186" filterUnits="userSpaceOnUse" color-interpolation-filters="sRGB">
<feFlood flood-opacity="0" result="BackgroundImageFix"/>
<feBlend mode="normal" in="SourceGraphic" in2="BackgroundImageFix" result="shape"/>
<feGaussianBlur stdDeviation="25" result="effect1_foregroundBlur_138_238"/>
</filter>
<clipPath id="clip0_138_238">
<rect width="1440" height="1536" fill="white"/>
</clipPath>
</defs>
</svg>
