<svg width="1440" height="1536" viewBox="0 0 1440 1536" fill="none" xmlns="http://www.w3.org/2000/svg">
<g clip-path="url(#clip0_138_12)">
<g filter="url(#filter0_f_138_12)">
<path d="M68.5 415.5L-0.5 437V1005.5H84.5L133.5 994.5L215 981.5H276.5L330.5 943.5L383 924L441 904L472 858.5L506 797L493.5 752L527.5 665.5L586 593.5L671.5 561.5L759.5 535.5L827.5 492L819.5 415.5L759.5 401H658H555L450 383H394L236.5 437L184 466L144.5 507.5L122.5 437L68.5 415.5Z" fill="#7548C2" fill-opacity="0.25"/>
</g>
<g filter="url(#filter1_f_138_12)">
<path d="M63 498.5H1.5V942H39.5L121 922H247.5L314.5 862.5L365 815.5L457.5 782.5L488 735.5L515.5 687L548 589L596.5 553L763 520.5L814 498.5L763 466H716L642 448H596.5L506 466H444.5H350.5L262 498.5L191.5 553L162.5 601.5L121 620H92L74 578L63 498.5Z" fill="#9C63FF" fill-opacity="0.2"/>
<path d="M63 498.5H1.5V942H39.5L121 922H247.5L314.5 862.5L365 815.5L457.5 782.5L488 735.5L515.5 687L548 589L596.5 553L763 520.5L814 498.5L763 466H716L642 448H596.5L506 466H444.5H350.5L262 498.5L191.5 553L162.5 601.5L121 620H92L74 578L63 498.5Z" stroke="black"/>
</g>
<path d="M334.784 571.951L383 554L372.329 596.683L345.06 617.027L317 627V596.683L334.784 571.951Z" fill="#AF69FF" fill-opacity="0.5"/>
<path d="M215.191 763.049L215.104 805.937L184.842 785.071L176.918 757.82L177.339 733L201.055 741.908L215.191 763.049Z" fill="#AF69FF" fill-opacity="0.5"/>
<path d="M231.076 724.602L260.971 755.354L224.74 761.56L200.035 747.593L183 729.537L206.193 719.347L231.076 724.602Z" fill="#AF69FF" fill-opacity="0.5"/>
<path d="M189.91 784.526L164.718 819.235L152.413 784.597L161.954 757.87L176.834 738L190.837 759.112L189.91 784.526Z" fill="#AF69FF" fill-opacity="0.5"/>
<path d="M51.0942 796.658L74.2553 832.755L37.5147 831.61L16.0918 812.996L2.99996 791.906L27.7598 786.546L51.0942 796.658Z" fill="#AF69FF" fill-opacity="0.5"/>
<path d="M266.401 620.587L250.078 570L293.74 583.005L313.517 612.093L322.526 641.511L291.16 640.093L266.401 620.587Z" fill="#AF69FF" fill-opacity="0.5"/>
<path d="M292.17 597.477L307.159 551.104L332.654 584.19L331.763 616.427L322.687 643.135L300.122 625.26L292.17 597.477Z" fill="#AF69FF" fill-opacity="0.5"/>
<path d="M73.682 535.915L114.726 548.356L86.0246 571.322L57.6462 571.057L34.0002 563.501L49.3644 543.358L73.682 535.915Z" fill="#AF69FF" fill-opacity="0.5"/>
<path d="M65.1768 558.745L100.518 583.043L66.2059 596.228L39.2431 587.373L18.9999 573.005L39.7469 558.467L65.1768 558.745Z" fill="#AF69FF" fill-opacity="0.5"/>
<path d="M84.8066 517.833L120.744 541.241L86.771 555.278L59.5956 547.099L39.0001 533.241L59.3778 518.19L84.8066 517.833Z" fill="#AF69FF" fill-opacity="0.5"/>
<path d="M72.962 584.761L103.495 614.88L67.4016 621.843L42.4096 608.397L25 590.701L47.975 580.027L72.962 584.761Z" fill="#AF69FF" fill-opacity="0.5"/>
<path d="M75.8204 490L116 475L107.108 510.667L84.3832 527.667L61 536V510.667L75.8204 490Z" fill="#AF69FF" fill-opacity="0.5"/>
<path d="M26.8204 728L67 713L58.1078 748.667L35.3832 765.667L12 774V748.667L26.8204 728Z" fill="#AF69FF" fill-opacity="0.5"/>
<path d="M91.3128 771.298L124.214 798.81L88.8139 808.711L62.8029 797.361L44 781.154L66.0217 768.631L91.3128 771.298Z" fill="#AF69FF" fill-opacity="0.5"/>
<path d="M391.048 501.311L421 490L414.371 516.896L397.431 529.716L380 536V516.896L391.048 501.311Z" fill="#AF69FF" fill-opacity="0.5"/>
<path d="M351.235 524.861L342.749 496L367.258 504.004L378.017 520.753L382.679 537.529L364.954 536.263L351.235 524.861Z" fill="#AF69FF" fill-opacity="0.5"/>
<path d="M442.441 737.633L485.239 734.841L466.451 766.435L439.793 776.17L415 777.415L422.297 753.155L442.441 737.633Z" fill="#AF69FF" fill-opacity="0.5"/>
<path d="M440.004 761.362L480.157 776.432L450.031 797.493L421.729 795.393L398.621 786.324L415.256 767.217L440.004 761.362Z" fill="#AF69FF" fill-opacity="0.5"/>
<path d="M409.82 740L450 725L441.108 760.667L418.383 777.667L395 786V760.667L409.82 740Z" fill="#AF69FF" fill-opacity="0.5"/>
<path d="M264.82 783L305 768L296.108 803.667L273.383 820.667L250 829V803.667L264.82 783Z" fill="#AF69FF" fill-opacity="0.5"/>
<path d="M304.97 595.504L345.928 577.274L335.816 619.53L295.8 644.612L304.97 595.504Z" fill="#AF69FF" fill-opacity="0.6"/>
<path d="M276.529 864.276L305 882L280.292 892.975L259.344 886.873L243 876.376L257.415 864.709L276.529 864.276Z" fill="#AF69FF" fill-opacity="0.5"/>
<path d="M49.0641 897.197L25.5592 888.244L56.0096 881.122L75.6181 894C77.1567 895.011 78.8065 895.841 80.535 896.475L105.255 905.534L121.725 913.398L132.841 917.764C137.373 919.543 142.339 919.903 147.08 918.794L155.609 916.799C158.136 916.208 160.55 915.211 162.757 913.848L176.946 905.082C178.15 904.339 179.417 903.703 180.733 903.182L198.936 895.984C201.575 894.94 204.008 893.436 206.123 891.542L211.925 886.345C213.782 884.681 215.887 883.317 218.164 882.302L227.578 878.104C231.232 876.474 234.421 873.957 236.855 870.78L239.785 866.955C241.896 864.2 243.383 861.021 244.146 857.636L246.712 846.252C247.261 843.814 247.427 841.305 247.202 838.815L246.193 827.656L258.398 829.488L256.024 861.27C255.712 865.449 254.311 869.473 251.96 872.942L250.272 875.434C248.16 878.553 245.343 881.13 242.05 882.958L227.456 891.059C224.35 892.783 221.666 895.174 219.597 898.061L218.578 899.482C215.19 904.209 210.201 907.545 204.538 908.87L194.496 911.218C191.511 911.916 188.688 913.18 186.178 914.941L168.1 927.623C166.546 928.714 164.867 929.617 163.1 930.312L157.762 932.411C153.387 934.131 148.603 934.529 144.004 933.554L135.285 931.707L121.062 929.238C114.415 928.084 107.646 930.464 103.184 935.524C100.517 938.549 96.9733 940.668 93.0463 941.586L91.6941 941.903C86.8205 943.043 81.7113 942.614 77.0955 940.679L68.5901 937.112C61.4936 934.136 56.2544 927.938 54.5018 920.445L49.0641 897.197L61.1436 903.072L62.1589 907.413L63.3686 912.584C64.8224 918.8 69.4132 923.807 75.4796 925.794L80.1559 927.326C82.0326 927.941 84.081 927.742 85.8044 926.778L86.0373 926.647C87.9486 925.578 89.2005 923.625 89.375 921.442C89.5902 918.748 88.1328 916.198 85.7028 915.016L61.1436 903.072L49.0641 897.197Z" fill="#22055C"/>
<path d="M175.128 743.516L193.398 739.243L232.08 753.419C234.889 754.449 237.866 754.944 240.857 754.879L254.953 754.575C256.027 754.551 257.097 754.416 258.143 754.171C261.508 753.385 265.039 753.746 268.175 755.198L269.271 755.706C270.909 756.464 272.646 756.986 274.431 757.253L292.081 759.903L294.558 760.073C299.698 760.425 300.29 767.747 295.273 768.92C294.598 769.078 293.895 769.077 293.22 768.918L273.472 764.255L263.671 761.642C259.861 760.626 255.86 760.564 252.021 761.462L245.963 762.879C241.16 764.002 236.127 763.618 231.55 761.779L195.129 747.147C193.383 746.446 191.562 745.953 189.701 745.677L175.128 743.516Z" fill="#22055C"/>
<path d="M351.327 785.881L322.569 792.608L368.924 745.594C371.992 742.482 375.878 740.303 380.133 739.308C384.282 738.337 388.082 736.24 391.115 733.248L393.84 730.56C395.494 728.927 397.378 727.543 399.43 726.452L426.309 712.163C432.284 708.987 436.64 703.436 438.305 696.878L439.05 693.945C439.41 692.527 439.64 691.079 439.736 689.619L442.134 653.27C442.218 651.999 442.113 650.723 441.823 649.483C440.803 645.122 442.118 640.545 445.297 637.39L445.671 637.018C448.103 634.605 449.554 631.375 449.742 627.954L451.694 592.517L463.165 586.639L463.93 619.89C464.016 623.616 463.233 627.31 461.643 630.68L454.931 644.912C453.712 647.497 452.964 650.279 452.723 653.128L450.277 682.053C450.13 683.793 450.258 685.545 450.656 687.246C451.858 692.386 455.427 696.65 460.274 698.74L467.251 701.747L450.131 715.515L439.495 723.442L414.445 731.097C412.722 731.623 411.064 732.342 409.502 733.239L380.629 749.826C377.777 751.465 375.292 753.672 373.329 756.31L351.327 785.881Z" fill="#22055C"/>
<path d="M-141.038 659.61L-151.606 645.708C-152.803 644.132 -154.191 642.711 -155.738 641.476L-170.165 629.957L-149.071 613.603C-147.595 612.459 -145.99 611.49 -144.29 610.718L-108.659 594.537C-107.235 593.89 -105.878 593.106 -104.607 592.195L-72.5999 569.268L-50.0605 554.867C-48.9288 554.144 -47.8598 553.328 -46.8647 552.426L-25.4179 532.987L-8.73562 518.745C-5.82022 516.256 -2.35108 514.502 1.38149 513.628L35.6251 505.619L30.5053 518.187C29.9902 519.452 29.368 520.67 28.6456 521.829L11.3078 549.643L-33.8444 585.449L-66.4996 611.32L-101.283 635.819L-141.038 659.61Z" fill="#22055C"/>
<path d="M-116.777 684.791L-105.107 679.458C-102.619 678.321 -100.343 676.766 -98.3791 674.862L-91.0902 667.798C-87.9691 664.772 -84.0849 662.652 -79.8525 661.662L-71.7971 659.777C-67.0638 658.67 -62.7784 656.152 -59.5079 652.556L-47.3149 639.15C-46.1926 637.916 -45.2021 636.568 -44.3593 635.129L-32.6224 615.084L-20.755 597.011C-19.7241 595.441 -18.5124 593.997 -17.1449 592.709L-4.84556 581.13C-2.54705 578.966 -0.698026 576.37 0.595577 573.49L11.3078 549.643L28.6456 521.829C29.368 520.67 29.9902 519.452 30.5053 518.187L35.6251 505.619L54.2126 501.271L53.315 509.45C52.935 512.913 51.8055 516.252 50.0051 519.234L37.2939 540.292L30.8807 552.688C29.1314 556.07 28.2714 559.84 28.3817 563.646L28.4607 566.373C28.6773 573.849 24.3412 580.712 17.4956 583.726L12.9464 585.729C8.53275 587.673 4.80704 590.901 2.25476 594.992L-2.70477 602.944L-14.8997 619.436C-15.4039 620.118 -15.7835 620.884 -16.0209 621.698L-17.2797 626.015C-18.2568 629.367 -15.261 632.529 -11.862 631.734C-11.0358 631.54 -10.2798 631.12 -9.67914 630.521L2.32015 618.549C4.30139 616.572 5.92163 614.264 7.10755 611.729L12.1532 600.943C12.6688 599.841 13.0999 598.701 13.4426 597.533L17.4956 583.726C24.3412 580.712 28.6773 573.849 28.4607 566.373L28.3817 563.646C28.2714 559.84 29.1314 556.07 30.8807 552.688L37.2939 540.292L50.0051 519.234C51.8055 516.252 52.935 512.913 53.315 509.45L54.2126 501.271L64.4034 498.888C73.6833 496.717 81.5039 505.996 77.7935 514.774C77.3113 515.915 76.6504 516.972 75.8355 517.905L71.7989 522.526C69.5198 525.134 67.8325 528.206 66.8529 531.529L64.5861 539.218C64.0313 541.1 63.248 542.907 62.2536 544.598L49.7251 565.902L44.6598 575.083C43.6965 576.829 42.9545 578.688 42.4511 580.617L38.6187 595.302C38.0438 597.505 37.1582 599.615 35.9886 601.569L27.457 615.821C25.4552 619.165 24.2978 622.946 24.085 626.838L23.9685 628.968C23.4896 637.725 18.2725 645.523 10.3612 649.308L-13.1412 660.551L-49.0029 674.107C-50.7191 674.755 -52.3552 675.599 -53.8793 676.62L-73.9608 690.08L-100.027 705.266L-116.777 684.791Z" fill="#22055C"/>
<path d="M-148.393 773.102L-153.963 779.016C-156.443 781.65 -157.816 785.137 -157.797 788.755C-157.775 793.078 -159.737 797.172 -163.12 799.863L-168.894 804.454L-176.338 806.195L-222.462 608.996L-214.993 613.386C-213.906 614.026 -212.874 614.748 -211.898 615.547C-204.814 621.352 -192.07 631.596 -187.977 634.123C-183.584 636.836 -174.272 632.476 -170.165 629.957L-155.738 641.476C-154.191 642.711 -152.803 644.132 -151.606 645.708L-141.038 659.61L-168.144 673.93C-170.167 674.998 -171.946 676.473 -173.371 678.262L-176.039 681.61C-183.166 690.554 -177.436 703.832 -166.039 704.783C-163.268 705.014 -160.489 704.433 -158.043 703.11L-147.854 697.6L-116.777 684.791L-100.027 705.266L-127.56 717.234L-153.452 730.178C-154.922 730.913 -156.244 731.911 -157.354 733.123C-160.966 737.068 -161.895 742.779 -159.719 747.666L-148.393 773.102Z" fill="#22055C"/>
<path d="M-187.977 634.123C-192.07 631.596 -204.814 621.352 -211.898 615.547C-212.874 614.748 -213.906 614.026 -214.993 613.386L-222.462 608.996L-227.949 585.534C-228.523 583.083 -226.578 580.77 -224.066 580.914C-221.237 581.075 -219.249 578.174 -220.42 575.594L-221.71 572.751C-223.183 569.502 -221.319 565.717 -217.846 564.905L-206.554 562.264C-200.143 560.764 -193.496 563.57 -190.098 569.21L-182.691 581.506C-181.398 583.652 -180.45 585.986 -179.879 588.425L-176.339 603.559C-174.785 610.203 -176.132 617.194 -180.044 622.784L-187.977 634.123Z" fill="#22055C"/>
<path d="M380.882 524.721L366.523 531.985L367.719 517.843C367.931 515.334 367.747 512.807 367.173 510.355L362.972 492.394C362.39 489.903 362.209 487.335 362.437 484.787L364.958 456.64C366.434 450.211 375.583 450.192 377.085 456.614L377.836 459.824C378.091 460.915 378.08 462.051 377.804 463.137L373.348 480.661C372.4 484.391 372.362 488.294 373.239 492.042L376.985 508.058L380.882 524.721Z" fill="#22055C"/>
<path d="M471.381 485.979L453.49 497.975L479.202 453.322C481.837 448.746 485.908 445.167 490.783 443.139L504.065 437.615C507.281 436.277 510.75 435.655 514.23 435.793L544.855 437.003C560.068 437.964 591.711 439.601 596.583 438.462C601.455 437.322 625.327 438.284 636.654 438.907L659.872 441.666C660.295 441.716 660.724 441.692 661.14 441.595C665.353 440.61 667.497 446.456 663.647 448.429L663.213 448.651C662.58 448.975 661.868 449.112 661.16 449.044L638.52 446.886L598.76 447.77L555.423 448.089L526.863 446.432C524.561 446.298 522.252 446.497 520.007 447.022L507.411 449.969C502.285 451.168 497.695 454.019 494.349 458.083L471.381 485.979Z" fill="#22055C"/>
<path fill-rule="evenodd" clip-rule="evenodd" d="M-24.8531 900.035L-12.4744 897.14C0.843408 894.025 13.5507 904.234 13.3782 917.91C13.3256 922.082 14.5132 926.175 16.7902 929.67L23.8025 940.435C25.3242 942.771 26.4274 945.354 27.0623 948.069L30.0231 960.727C30.0653 960.908 30.1281 961.083 30.2101 961.249L30.3336 961.5C31.5963 964.059 35.4734 962.67 34.8234 959.891L32.4825 949.883C32.3688 949.397 32.2936 948.902 32.2576 948.405L31.9959 944.785C31.8099 942.213 33.5213 939.887 36.0322 939.3C38.427 938.74 40.8893 939.919 41.9541 942.136L45.6963 949.927L48.2058 955.693C49.0982 957.744 49.6534 959.925 49.8498 962.152L50.537 969.944C50.5983 970.64 50.9429 971.28 51.49 971.715L53.1473 973.031C55.0041 974.506 57.5289 972.325 56.3396 970.273C56.1476 969.942 56.0477 969.566 56.0501 969.183L56.0974 961.563C56.1244 957.207 54.9653 952.926 52.7443 949.178L50.2436 944.958L45.3524 935.751C44.1018 933.397 41.4228 932.181 38.8273 932.788C37.1168 933.188 35.317 932.801 33.9215 931.734L30.1083 928.818C26.4723 926.038 24.1976 921.836 23.8574 917.272L23.5423 913.044C23.4415 911.692 23.4555 910.334 23.584 908.985L25.5592 888.244L56.0096 881.122L101.953 873.11L157.441 860.131L212.384 840.25L246.193 827.656L258.398 829.488L296.6 831.097L326.745 830.295L346.65 828.215C351.386 827.72 355.867 825.827 359.524 822.778L393.63 794.343L428.146 771.038L455.683 749.171L389.148 762.975L351.327 785.881L322.569 792.608L297.223 798.536C294.96 799.065 292.631 799.263 290.311 799.123L249.53 796.661C247.21 796.521 244.882 796.719 242.618 797.248L221.671 802.148L193.779 812.577L158.032 825.284C156.173 825.945 154.239 826.374 152.274 826.562L124.161 829.246C122.31 829.423 120.485 829.814 118.723 830.413L79.2457 843.823C77.8027 844.313 76.3163 844.665 74.8066 844.873L40.433 849.616L8.05244 852.576C5.89184 852.774 3.76803 853.263 1.73898 854.032L-27.3765 865.056C-29.3039 865.786 -31.1292 866.761 -32.8075 867.957L-37.6203 871.387L-41.1063 873.872C-43.6515 875.686 -46.5265 876.985 -49.5699 877.697L-59.171 879.943L-75.4193 883.743C-77.6579 884.267 -79.9601 884.466 -82.2554 884.335L-114.04 882.517C-118.201 882.279 -122.227 880.962 -125.724 878.696L-137.213 871.249L-110.342 851.545C-108.968 850.538 -107.491 849.68 -105.936 848.985L-90.8281 842.239L-73.3807 834.448L-56.0902 829.037L-38.7998 823.625L8.43229 802.814L46.4831 791.571L79.9543 779.056L109.217 766.013C110.603 765.395 112.044 764.911 113.522 764.565L145.622 757.057C147.322 756.659 148.973 756.077 150.547 755.322L175.128 743.516L193.398 739.243L201.624 727.528C202.915 725.69 204.457 724.042 206.207 722.632L238.4 696.692L265.922 680.101L292.057 660.77C294.684 658.827 297.681 657.441 300.863 656.697L337.187 648.2C339.294 647.708 341.324 646.932 343.223 645.896L395.421 617.395L451.694 592.517L463.165 586.639L514.787 560.185C523.379 556.743 540.546 549.786 540.477 549.49C540.407 549.194 559.384 542.854 568.881 539.722C583.61 533.022 613.542 519.512 615.436 519.069L645.21 512.105L667.711 499.905C669.592 498.885 671.601 498.121 673.684 497.634L706.642 489.925C707.838 489.645 709.011 489.274 710.15 488.815L734.49 479.003C737.103 477.95 739.881 477.365 742.696 477.274L763.025 476.624C763.399 476.612 763.774 476.635 764.144 476.692L772.293 477.952C777.48 478.755 779.826 471.699 775.192 469.235C774.827 469.041 774.438 468.897 774.035 468.806L764.949 466.745C762.385 466.164 759.742 466.008 757.127 466.284L730.096 469.133C728.465 469.305 726.856 469.643 725.294 470.143L677.845 485.335L658.885 489.77C655.902 490.467 652.919 488.615 652.222 485.633C651.868 484.119 652.165 482.525 653.042 481.241L653.336 480.812C656.798 475.744 652.223 469.066 646.247 470.464L645.608 470.614C644.647 470.839 643.744 471.265 642.959 471.864L612.347 495.242C610.946 496.312 609.432 497.224 607.832 497.962L563.858 518.245L509.851 539.078L499.876 542.583L483.333 537.079L446.695 526.902C444.013 526.157 443.174 522.767 445.198 520.857L449.944 516.379L462.266 501.769C462.801 501.134 463.435 500.589 464.142 500.154L473.644 494.321C477.475 491.969 475.875 486.073 471.381 485.979L453.49 497.975L437.483 514.226C433.308 518.464 427.708 521.001 421.77 521.344L408.815 522.093L380.882 524.721L366.523 531.985L354.987 537.821C353.113 538.769 351.372 539.959 349.807 541.36L333.896 555.613C331.927 557.377 330.275 559.46 328.923 561.732C325.472 567.527 320.444 575.179 318.224 575.698C316.313 576.145 306.592 579.717 297.928 582.964C291.774 585.271 286.865 590.034 284.327 596.096L279.602 607.383L271.752 628.747L264.626 642.521L239.544 656.312C238.141 657.084 236.818 657.994 235.597 659.029L214.5 676.897L181.416 698.695L160.211 708.731L125.395 723.124L98.7691 732.866L57.0831 745.35L17.1917 760.93L-24.7459 773.863L-51.6155 785.615L-69.8737 792.229L-83.3123 797.097C-86.4894 798.248 -89.8738 798.715 -93.2439 798.468L-97.0849 798.186C-101.212 797.882 -105.191 796.517 -108.635 794.223L-117.02 788.636C-118.837 787.425 -121.073 787.02 -123.199 787.518C-125.385 788.029 -127.686 787.586 -129.525 786.299L-148.393 773.102L-153.963 779.016C-156.443 781.65 -157.816 785.137 -157.797 788.755C-157.775 793.078 -159.737 797.172 -163.12 799.863L-168.894 804.454L-152.015 876.619L-147.444 896.163C-145.14 906.013 -136.906 913.362 -126.858 914.535L-112.42 916.221L-84.2126 918.886C-81.6267 919.13 -79.0184 918.953 -76.4892 918.362L-53.9877 913.099C-52.3665 912.719 -50.7892 912.173 -49.2813 911.467L-24.8531 900.035ZM454.88 537.485L489.901 546.088L469.951 553.097L409.878 580.036L363.331 602.249L319.458 617.588L288.331 624.869L290.978 611.727C291.942 606.94 294.344 602.562 297.861 599.175L303.057 594.174C304.912 592.388 307.042 590.913 309.365 589.804L321.059 584.224C323.742 582.944 326.163 581.176 328.201 579.011L342.552 563.759L359.585 548.7C361.038 547.415 362.642 546.311 364.361 545.412L378.838 537.842C381.841 536.271 385.143 535.355 388.526 535.153L417.171 533.439C418.581 533.355 419.996 533.395 421.399 533.56L454.88 537.485Z" fill="#22055C"/>
<path d="M486.939 523.667L529.767 525.939L507.386 555.098L479.766 561.623L455 559.937L465.105 536.706L486.939 523.667Z" fill="#AF69FF" fill-opacity="0.5"/>
<path d="M489.82 535L530 520L521.108 555.667L498.383 572.667L475 581V555.667L489.82 535Z" fill="#AF69FF" fill-opacity="0.5"/>
<path d="M506.853 558.299L518.418 517L541.989 545.206L542.328 573.584L535.277 597.385L514.812 582.453L506.853 558.299Z" fill="#AF69FF" fill-opacity="0.5"/>
<path d="M511.842 470L535.153 434L549.282 467.935L541.175 495.132L527.372 515.765L512.267 495.427L511.842 470Z" fill="#AF69FF" fill-opacity="0.5"/>
<g filter="url(#filter2_f_138_12)">
<path d="M245.5 706.5L198.5 656V605.5L260 558.5L392.5 497H531.5L602 518.5L502.5 578L454 667L359.5 706.5H245.5Z" fill="#AF69FF" fill-opacity="0.25"/>
<path d="M245.5 706.5L198.5 656V605.5L260 558.5L392.5 497H531.5L602 518.5L502.5 578L454 667L359.5 706.5H245.5Z" stroke="black"/>
</g>
<g filter="url(#filter3_f_138_12)">
<path d="M64.5 708.5L3 732V877H32L126.5 842.5L216.5 793.5L229.5 757.5L182.5 732L113.5 688.5L64.5 708.5Z" fill="#AF69FF" fill-opacity="0.25"/>
<path d="M64.5 708.5L3 732V877H32L126.5 842.5L216.5 793.5L229.5 757.5L182.5 732L113.5 688.5L64.5 708.5Z" stroke="black"/>
</g>
<path d="M294.586 694.338L268 660.683L304.676 658.224L327.819 674.65L342.914 694.357L318.798 702.116L294.586 694.338Z" fill="#AF69FF" fill-opacity="0.5"/>
<path d="M271.311 703.687L267.164 661L299.338 678.777L309.912 705.113L311.943 729.854L287.464 723.33L271.311 703.687Z" fill="#AF69FF" fill-opacity="0.5"/>
<path d="M128.076 699.198L116.153 658L151.047 669.56L166.282 693.504L172.826 717.449L147.565 715.536L128.076 699.198Z" fill="#AF69FF" fill-opacity="0.5"/>
<path d="M145.072 676.751L161.174 637L181.45 667.66L178.62 695.898L168.957 718.764L150.287 701.642L145.072 676.751Z" fill="#AF69FF" fill-opacity="0.5"/>
<path d="M14.8204 481L55 466L46.1078 501.667L23.3832 518.667L0 527V501.667L14.8204 481Z" fill="#AF69FF" fill-opacity="0.5"/>
<path d="M32.9754 510.795L68.6492 534.603L34.5222 548.26L7.43963 539.778L-13 525.692L7.54417 510.869L32.9754 510.795Z" fill="#AF69FF" fill-opacity="0.5"/>
<path d="M45.8404 486.047L88.4847 490.615L64.5702 518.531L36.6403 523.563L12 520.55L23.3378 497.895L45.8404 486.047Z" fill="#AF69FF" fill-opacity="0.5"/>
<path d="M35.7418 540.619L52.9171 579.918L16.8175 572.99L-1.40008 551.229L-11 528.337L14.2954 526.951L35.7418 540.619Z" fill="#AF69FF" fill-opacity="0.5"/>
<path d="M28.5546 625.882L64.8606 648.714L31.1164 663.292L3.81392 655.547L-17.0001 642.019L3.1347 626.645L28.5546 625.882Z" fill="#AF69FF" fill-opacity="0.5"/>
<path d="M18.4615 603.338L60.8366 609.953L35.6067 636.686L7.467 640.368L-16.9998 636.173L-4.58505 614.09L18.4615 603.338Z" fill="#AF69FF" fill-opacity="0.5"/>
<path d="M16.7548 579.03L59.4103 583.493L35.5652 611.468L7.64777 616.569L-16.9999 613.617L-5.71828 590.935L16.7548 579.03Z" fill="#AF69FF" fill-opacity="0.5"/>
<path d="M643.82 455L684 440L675.108 475.667L652.383 492.667L629 501V475.667L643.82 455Z" fill="#AF69FF" fill-opacity="0.5"/>
<path d="M414.82 554L455 539L446.108 574.667L423.383 591.667L400 600V574.667L414.82 554Z" fill="#AF69FF" fill-opacity="0.5"/>
<path d="M485.107 571.763L520.566 595.89L486.317 609.24L459.312 600.515L439 586.245L459.677 571.608L485.107 571.763Z" fill="#AF69FF" fill-opacity="0.5"/>
<path d="M448.702 594.026L480.357 622.963L444.555 631.293L419.07 618.807L401 601.786L423.553 590.246L448.702 594.026Z" fill="#AF69FF" fill-opacity="0.5"/>
<path d="M433.298 776.306L466.24 803.769L430.855 813.724L404.827 802.413L386 786.234L408.002 773.678L433.298 776.306Z" fill="#AF69FF" fill-opacity="0.5"/>
<path d="M332.813 752.97L366.16 726L369.04 762.645L352.881 785.975L333.348 801.295L325.313 777.27L332.813 752.97Z" fill="#AF69FF" fill-opacity="0.5"/>
<path d="M302.025 826.906L321.404 865.166L284.969 860.299L265.546 839.608L254.661 817.298L279.837 814.478L302.025 826.906Z" fill="#AF69FF" fill-opacity="0.5"/>
<path d="M1.73864 728.789L37.6763 701.986L37.1186 745.431L3.60822 778.71L1.73864 728.789Z" fill="#AF69FF" fill-opacity="0.6"/>
<path d="M-17.7589 734.898L4.12152 695.768L21.3324 735.663L4.30943 779.716L-17.7589 734.898Z" fill="#AF69FF" fill-opacity="0.6"/>
<path d="M72.672 778.624L98.7999 815.055L55.3725 813.687L22.7245 779.562L72.672 778.624Z" fill="#AF69FF" fill-opacity="0.6"/>
<path d="M74.0149 874.717L90.8724 896.815L63.9362 896.762L43.0806 876.212L74.0149 874.717Z" fill="#AF69FF" fill-opacity="0.6"/>
<path d="M288.045 607.622L321.425 602.164L305.952 631.062L271.947 641.701L288.045 607.622Z" fill="#AF69FF" fill-opacity="0.6"/>
<path d="M437.347 566.349L481.122 576.027L447.878 604.003L400.788 600.395L437.347 566.349Z" fill="#AF69FF" fill-opacity="0.6"/>
<path d="M79.9082 898.398L77.1207 928.323L53.6892 914.486L34.4932 890.785L42.1102 858.879L64.6908 874.048L79.9082 898.398Z" fill="#AF69FF" fill-opacity="0.5"/>
<path d="M480.48 486.75L477.034 444L508.912 462.303L519.053 488.809L520.677 513.58L496.308 506.655L480.48 486.75Z" fill="#AF69FF" fill-opacity="0.5"/>
</g>
<defs>
<filter id="filter0_f_138_12" x="-50.5" y="333" width="928" height="722.5" filterUnits="userSpaceOnUse" color-interpolation-filters="sRGB">
<feFlood flood-opacity="0" result="BackgroundImageFix"/>
<feBlend mode="normal" in="SourceGraphic" in2="BackgroundImageFix" result="shape"/>
<feGaussianBlur stdDeviation="25" result="effect1_foregroundBlur_138_12"/>
</filter>
<filter id="filter1_f_138_12" x="-49" y="397.5" width="914.064" height="595" filterUnits="userSpaceOnUse" color-interpolation-filters="sRGB">
<feFlood flood-opacity="0" result="BackgroundImageFix"/>
<feBlend mode="normal" in="SourceGraphic" in2="BackgroundImageFix" result="shape"/>
<feGaussianBlur stdDeviation="25" result="effect1_foregroundBlur_138_12"/>
</filter>
<filter id="filter2_f_138_12" x="148" y="446.5" width="505.224" height="310.5" filterUnits="userSpaceOnUse" color-interpolation-filters="sRGB">
<feFlood flood-opacity="0" result="BackgroundImageFix"/>
<feBlend mode="normal" in="SourceGraphic" in2="BackgroundImageFix" result="shape"/>
<feGaussianBlur stdDeviation="25" result="effect1_foregroundBlur_138_12"/>
</filter>
<filter id="filter3_f_138_12" x="-47.5" y="637.94" width="327.616" height="289.56" filterUnits="userSpaceOnUse" color-interpolation-filters="sRGB">
<feFlood flood-opacity="0" result="BackgroundImageFix"/>
<feBlend mode="normal" in="SourceGraphic" in2="BackgroundImageFix" result="shape"/>
<feGaussianBlur stdDeviation="25" result="effect1_foregroundBlur_138_12"/>
</filter>
<clipPath id="clip0_138_12">
<rect width="1440" height="1536" fill="white"/>
</clipPath>
</defs>
</svg>
