<svg width="360" height="249" viewBox="0 0 360 249" fill="none" xmlns="http://www.w3.org/2000/svg">
<path fill-rule="evenodd" clip-rule="evenodd" d="M0 1.87489C0.557009 1.73591 1.06444 1.67329 1.85139 1.84529C2.51719 1.99092 2.94127 2.38701 3.36693 2.78459C3.59032 2.99324 3.81415 3.20228 4.07358 3.37575C5.67179 4.4431 7.69992 5.07262 9.65999 5.68101L9.66254 5.68184C10.1802 5.84251 10.6931 6.00169 11.1921 6.16713L11.474 6.26073L11.4742 6.26082C14.116 7.13844 16.3831 7.89155 19.256 7.91447C23.9501 7.95064 27.6051 7.69862 32.0187 6.18574C33.4852 5.68297 34.9618 5.22481 36.4386 4.76665C38.1861 4.22444 39.9337 3.6822 41.6647 3.06596C42.2547 2.85588 42.8745 2.62031 43.5136 2.37739L43.5145 2.37703C45.7438 1.52968 48.2075 0.593214 50.4575 0.339613C51.4905 0.222914 52.6596 0.265273 53.7068 0.305525C55.0678 0.358138 55.1822 0.46086 55.6707 0.89955C55.8438 1.05507 56.064 1.25282 56.4034 1.50554C57.3929 2.24184 58.5577 2.9135 59.704 3.57448L59.7044 3.57475L59.7057 3.57548C60.2614 3.89595 60.8128 4.21388 61.3377 4.53548C63.2953 5.73445 64.9042 7.29283 66.515 8.85301L66.5152 8.85319C67.6334 9.93626 68.7524 11.0202 69.9897 11.9854C75.0518 15.934 79.7574 20.1733 84.4668 24.4159L84.4675 24.4165C87.8302 27.446 91.1949 30.4772 94.6927 33.4056C99.3885 37.3365 105.403 40.3587 111.1 43.2214L111.103 43.2232C111.766 43.5563 112.424 43.8871 113.076 44.217C114.573 44.9748 116.123 45.6398 117.673 46.3054C118.306 46.5768 118.938 46.8482 119.567 47.1261C121.128 47.8159 122.696 48.2997 124.273 48.7859C125.33 49.1121 126.391 49.4394 127.456 49.8307C128.806 50.3271 129.957 51.0671 131.11 51.8081C131.967 52.3589 132.825 52.9103 133.766 53.3625C135.951 54.4128 137.897 55.3877 139.917 56.6496C140.561 57.0524 141.237 57.3362 141.91 57.6195C142.705 57.9537 143.498 58.2872 144.237 58.8142C145.341 59.6012 146.383 60.1144 147.466 60.6482L147.466 60.6483L147.467 60.6485C148.123 60.9719 148.795 61.3028 149.505 61.7068C149.69 61.8118 149.875 61.9159 150.061 62.0196L150.334 62.1715L150.334 62.1718C152.13 63.1716 153.914 64.1651 155.081 65.7291C156.134 67.1409 157.032 67.9391 159.028 67.808C160.255 67.7272 160.668 67.4476 161.313 67.011C161.584 66.8279 161.895 66.6171 162.325 66.3818C163.381 65.8035 164.526 65.3079 165.678 64.8097L165.68 64.809C166.714 64.3619 167.752 63.9126 168.736 63.3994C169.876 62.8037 171.079 62.2815 172.281 61.759L172.282 61.7587L172.282 61.7587C173.98 61.0213 175.679 60.2831 177.21 59.3367C177.311 59.2743 177.411 59.2122 177.51 59.1505L177.525 59.1412C179.112 58.1566 180.535 57.2733 182.515 56.9099C184.786 56.4931 186.3 57.1591 188.106 57.9534C188.502 58.1274 188.911 58.3075 189.346 58.4837C193.809 60.293 198.231 62.1033 202.686 63.9302C205.148 64.9395 207.781 65.6479 210.412 66.3555C214.549 67.4681 218.678 68.5789 222.123 70.8544C222.628 71.1877 223.126 71.55 223.627 71.915C225.326 73.1515 227.07 74.42 229.271 74.7054C231.383 74.9792 233.859 74.4264 236.186 73.9069L236.188 73.9065C237.318 73.6543 238.412 73.41 239.413 73.272C240.315 73.1479 241.289 72.9676 242.289 72.7823L242.291 72.7819L242.292 72.7817C244.419 72.3876 246.668 71.9711 248.607 72.0245C249.586 72.0516 250.514 72.1941 251.441 72.3366L251.442 72.3368C252.666 72.5249 253.89 72.7129 255.23 72.6348C261.56 72.2676 268.086 70.4901 274.125 68.8452L274.125 68.845L274.706 68.6868C288.405 64.9577 302.285 59.5712 314.287 52.6386C315.9 51.7066 317.454 50.7168 319.007 49.7279C321.183 48.3426 323.356 46.9589 325.684 45.7381C328.75 44.1302 331.63 42.3798 334.206 40.1946C334.413 40.0185 334.662 39.7878 334.94 39.53C336.054 38.4957 337.64 37.0251 338.922 36.892C339.969 36.7828 340.286 37.0372 340.795 37.4449C340.998 37.6073 341.231 37.7941 341.552 37.9919C343.77 39.3549 346.861 40.0519 349.512 40.65L349.513 40.6501C349.693 40.6907 349.871 40.7309 350.047 40.7709C350.189 40.803 350.329 40.835 350.467 40.8669C353.653 41.601 356.83 42.4069 360 43.248V145.809V249H0V1.87489Z" fill="url(#paint0_linear_376_208)"/>
<defs>
<linearGradient id="paint0_linear_376_208" x1="227.997" y1="31.9797" x2="227.997" y2="106.334" gradientUnits="userSpaceOnUse">
<stop stop-color="#3A2259"/>
<stop offset="1" stop-color="#543C6E"/>
</linearGradient>
</defs>
</svg>
