<svg width="360" height="156" viewBox="0 0 360 156" fill="none" xmlns="http://www.w3.org/2000/svg">
<path fill-rule="evenodd" clip-rule="evenodd" d="M0 11.1655C4.25567 11.3768 8.53553 11.1724 12.6192 10.9774C13.2577 10.9469 13.8914 10.9166 14.5194 10.8882C20.8569 10.6002 27.0974 9.06732 33.3284 7.5368C39.1736 6.10107 45.0105 4.66736 50.9114 4.2652C52.2114 4.17688 53.4876 3.76465 54.7596 3.35382C55.3236 3.17163 55.8869 2.98969 56.451 2.83643C57.546 2.539 58.6337 2.43866 59.7165 2.33881C60.6825 2.2497 61.6447 2.16095 62.6047 1.93292C63.1215 1.81085 63.6421 1.6648 64.1656 1.51788C66.1778 0.953309 68.2326 0.376831 70.2767 1.10419C70.4365 5.41919 75.151 11.1937 77.285 13.5348C79.8877 16.3878 82.629 19.0177 85.3631 21.6406C86.4671 22.6998 87.5699 23.7578 88.6619 24.8289C92.8498 28.9382 96.5682 33.9319 100.261 38.8907L100.501 39.2136C107.089 48.0568 115.442 54.2908 124.103 58.1925C126.784 59.3995 129.35 59.7116 131.984 60.032C133.184 60.1779 134.397 60.3255 135.642 60.5599C136.754 60.7699 137.869 61.0113 138.986 61.2529C141.025 61.6943 143.069 62.1368 145.113 62.391C146.902 62.613 148.712 62.6922 150.486 62.2438C150.921 62.134 151.348 61.9788 151.773 61.8242C152.812 61.4462 153.843 61.0716 154.962 61.3711C156.06 61.6651 156.066 61.6999 156.126 62.0604C156.165 62.2929 156.227 62.6608 156.618 63.3208C157.505 64.8156 159.604 66.5236 160.745 67.4248C163.443 69.556 166.742 71.2833 169.641 72.8013L169.788 72.8784C174.208 75.1932 178.484 78.1259 182.727 81.0354L183.125 81.3083C193.078 88.1357 203.878 93.4158 214.758 96.5833C225.348 99.6673 235.578 101.459 246.396 100.909C252.362 100.606 258.47 98.9068 264.288 97.0537C267.129 96.1493 269.875 94.8295 272.622 93.5089C275.463 92.1431 278.306 90.7766 281.258 89.8679C284.91 88.7425 288.297 88.8018 291.786 90.4724C292.635 90.8788 293.523 91.4659 294.388 92.0379C294.838 92.3353 295.281 92.6287 295.71 92.8904C300.184 95.6227 304.641 97.6692 309.292 99.7992C314.798 102.319 320.265 104.215 325.826 106.143C327.086 106.58 328.351 107.018 329.622 107.466C333.103 108.693 336.572 110.091 340.042 111.489C345.285 113.602 350.534 115.717 355.842 117.248C357.23 117.648 358.615 118.058 360 118.474V156H0V11.1655Z" fill="url(#paint0_linear_376_200)"/>
<defs>
<linearGradient id="paint0_linear_376_200" x1="156.5" y1="121.836" x2="156.5" y2="-93.9448" gradientUnits="userSpaceOnUse">
<stop stop-color="#3A2259"/>
<stop offset="1" stop-color="#230F38"/>
</linearGradient>
</defs>
</svg>
