<svg width="360" height="339" viewBox="0 0 360 339" fill="none" xmlns="http://www.w3.org/2000/svg">
<path fill-rule="evenodd" clip-rule="evenodd" d="M0 247.683V339H360V217.435V4.11146C359.194 3.68489 358.419 3.16615 357.643 2.64607C356.478 1.86631 355.309 1.08348 354.023 0.603465C353.694 0.480113 353.508 0.350657 353.355 0.243419C353.062 0.0384625 352.885 -0.0853474 352.041 0.0696819C351.03 0.256297 349.583 1.24766 348.387 2.06675L348.387 2.06694L348.386 2.06739C347.909 2.39439 347.472 2.69383 347.119 2.90361C338.605 7.96443 330.792 14.1792 323.016 20.364L323.016 20.3642L323.013 20.3664C320.208 22.5974 317.408 24.8244 314.582 26.992C311.311 29.5015 308.117 32.2179 304.909 34.9468L304.908 34.9472L304.908 34.9473C296.062 42.4714 287.105 50.09 276.1 53.7279C269.153 56.0232 262.101 57.9898 255.047 59.957C248.009 61.9195 240.97 63.8827 234.03 66.1734C228.955 67.8487 224.001 69.803 219.048 71.7563L219.048 71.7564L219.047 71.7566C212.416 74.3722 205.789 76.986 198.883 78.926C196.891 79.4853 194.894 79.9908 192.901 80.4953L192.9 80.4955L192.9 80.4956C188.058 81.7211 183.242 82.9401 178.592 84.9068C172.301 87.5679 166.633 91.1007 161.051 95.0233C160.049 95.7271 158.991 96.572 157.885 97.4548L157.884 97.4555C154.124 100.457 149.817 103.895 145.313 103.709C140.079 103.492 132.791 101.052 128.204 98.654C125.879 97.4386 123.838 95.8222 121.801 94.2089C119.446 92.3435 117.096 90.4823 114.318 89.2499C112.47 88.429 110.562 88.157 108.516 87.8655C108.222 87.8236 107.925 87.7813 107.625 87.7369C102.457 86.971 97.0343 89.5912 92.0812 91.9846L92.0802 91.9851C90.7006 92.6517 89.3575 93.3007 88.0664 93.854C87.8012 93.9677 87.5325 94.0839 87.2606 94.2015C84.6072 95.3491 81.6561 96.6255 78.8331 96.8972C77.1929 97.0562 75.6064 96.7555 74.0117 96.4532C73.1031 96.281 72.1918 96.1083 71.2663 96.0198C69.8998 95.8894 68.5253 95.9302 67.1509 95.971H67.1503C65.4467 96.0216 63.7435 96.0722 62.0561 95.797C59.2529 95.3401 56.2097 94.2534 53.6042 93.1302C51.7636 92.3365 50.0767 91.2761 48.3869 90.214C46.6923 89.1488 44.9947 88.0817 43.1364 87.2799C39.8359 85.8572 36.474 84.4403 33.0296 83.4131C26.3171 81.41 19.5275 80.5106 12.6945 79.6054H12.6942C9.58492 79.1936 6.46662 78.7805 3.3425 78.2617C2.20587 78.0728 1.09332 77.8684 0 77.6416V247.683Z" fill="url(#paint0_linear_376_214)"/>
<defs>
<linearGradient id="paint0_linear_376_214" x1="174.313" y1="88.2611" x2="174.313" y2="163.24" gradientUnits="userSpaceOnUse">
<stop stop-color="#4B3567"/>
<stop offset="1" stop-color="#795B8A"/>
</linearGradient>
</defs>
</svg>
