<svg width="360" height="503" viewBox="0 0 360 503" fill="none" xmlns="http://www.w3.org/2000/svg">
<path fill-rule="evenodd" clip-rule="evenodd" d="M0 168.641C3.60512 168.584 7.22333 168.299 10.8558 167.724C15.626 166.97 21.2791 165.358 25.3888 162.683C26.3543 162.054 27.2154 161.262 28.0755 160.471L28.0758 160.47C29.0944 159.533 30.1115 158.597 31.2988 157.937C33.2045 156.876 35.4761 157.548 37.6023 158.176L37.6028 158.176C38.3043 158.384 38.9899 158.586 39.6413 158.721C40.2512 158.846 40.8993 158.892 41.5471 158.938H41.5474C42.3539 158.995 43.1598 159.052 43.8908 159.263C44.5528 159.455 45.3215 159.907 46.0096 160.312C46.2877 160.476 46.5527 160.632 46.7922 160.76C46.9414 160.84 47.0922 160.948 47.2475 161.06C47.6129 161.323 48.0029 161.604 48.4535 161.568C48.7266 161.546 48.8397 161.4 48.9503 161.257C49.0487 161.129 49.1451 161.004 49.3505 160.972C49.7343 160.915 50.1505 160.948 50.5675 160.982C51.0506 161.021 51.5347 161.061 51.9704 160.958C52.3713 160.864 52.784 160.708 53.2044 160.548L53.2052 160.548C53.5187 160.429 53.8364 160.308 54.1567 160.211C54.8088 160.012 55.5625 159.554 56.2706 159.124C56.5845 158.933 56.8893 158.748 57.1724 158.593C57.5215 158.402 57.8712 158.209 58.2218 158.016L58.2334 158.009C60.1468 156.954 62.0871 155.883 64.0919 155.075C65.485 154.515 66.6882 153.72 67.9046 152.917L67.9051 152.916L67.9059 152.916C68.4684 152.544 69.0337 152.171 69.622 151.818C72.8785 149.865 75.9245 147.071 78.824 144.412L78.8286 144.407C79.4434 143.843 80.0516 143.285 80.6539 142.743C82.7472 140.858 85.0457 139.188 87.3445 137.519L87.3447 137.519C89.7395 135.779 92.1345 134.04 94.2977 132.056C94.5771 131.8 94.853 131.539 95.1281 131.28L95.1308 131.277C96.4644 130.019 97.7819 128.775 99.3995 128.078C100.318 127.683 101.56 127.222 102.492 127.317C103.099 127.379 103.747 127.601 104.388 127.82C104.841 127.974 105.291 128.128 105.718 128.223C107.818 128.686 109.864 128.735 112.036 128.669C114.528 128.595 116.069 126.147 117.411 124.015C117.688 123.574 117.957 123.147 118.224 122.757C119.57 120.792 122.019 121.368 124.278 121.899C124.928 122.052 125.563 122.201 126.151 122.285C126.517 122.337 126.875 122.384 127.226 122.431C129.168 122.686 130.912 122.916 132.715 123.83C133.985 124.474 134.914 125.2 135.972 126.028L135.972 126.028C136.106 126.132 136.242 126.239 136.381 126.347C136.535 126.467 136.697 126.595 136.865 126.729C138.117 127.727 139.716 129 141.258 128.981C141.614 128.977 141.957 128.865 142.3 128.754C142.574 128.665 142.849 128.575 143.13 128.541C143.769 128.463 144.415 128.5 145.062 128.538C145.592 128.568 146.122 128.599 146.649 128.567C149.136 128.413 151.574 127.693 153.914 126.87C156.172 126.077 157.87 124.845 159.74 123.489C159.915 123.362 160.091 123.235 160.269 123.106C161.733 122.05 163.213 121.111 164.688 120.175L164.688 120.174C166.72 118.885 168.741 117.602 170.696 116.03C171.564 115.332 172.476 114.669 173.391 114.004C175.229 112.668 177.077 111.324 178.601 109.676C179.408 108.803 180.297 108.002 181.185 107.201L181.186 107.201C182.716 105.822 184.246 104.443 185.356 102.698C188.597 97.6017 193.351 93.5461 198.045 89.5412L198.046 89.5405C200.045 87.8347 202.034 86.1382 203.89 84.3742C205.742 82.6155 207.45 80.7127 209.157 78.8108C210.394 77.4328 211.63 76.0554 212.921 74.7335C213.881 73.7494 214.893 72.8188 215.904 71.8891C217.101 70.7871 218.298 69.6865 219.407 68.4996C221.851 65.882 224.537 63.3506 227.306 61.0436C228.33 60.1901 229.263 59.6958 230.243 59.1766L230.243 59.1765C230.881 58.8389 231.538 58.4908 232.253 58.0265C233.332 57.3266 234.363 56.422 235.395 55.5181C236.164 54.8438 236.933 54.1698 237.72 53.5814C239.935 51.9282 241.701 49.9575 243.468 47.9864L243.468 47.9861C244.672 46.6434 245.876 45.3005 247.221 44.0577C247.877 43.4518 248.594 43.0061 249.302 42.5655C250.192 42.0117 251.069 41.4661 251.797 40.6209C252.399 39.9227 252.993 39.2197 253.587 38.5164L253.59 38.513L253.591 38.5116C254.938 36.9176 256.287 35.3221 257.731 33.7755C258.878 32.5466 260.13 31.3653 261.386 30.181L261.386 30.1809C263.29 28.3841 265.203 26.5801 266.768 24.5915C269.938 20.5625 272.87 16.5926 275.496 12.2478C277.954 8.18367 280.721 3.85118 283.454 0C284.8 0.228745 286.641 2.63425 287.937 4.32816C288.351 4.86902 288.71 5.33734 288.979 5.63908C289.214 5.90266 289.417 6.22414 289.621 6.54559C289.874 6.9463 290.128 7.34698 290.443 7.63551C290.795 7.95811 291.166 8.13524 291.533 8.31071C291.987 8.52721 292.435 8.7412 292.836 9.22279C293.357 9.84941 293.765 10.6232 294.174 11.3971C294.635 12.2716 295.097 13.1463 295.721 13.8087C297.372 15.5601 299.184 13.7905 300.687 12.3219L300.688 12.321C301.039 11.9779 301.373 11.6513 301.685 11.3899C302.622 10.6037 303.542 9.79727 304.462 8.99072C305.417 8.15367 306.372 7.31645 307.347 6.50136C307.659 6.24011 307.945 5.95851 308.229 5.67789L308.23 5.67738C308.669 5.24362 309.106 4.81219 309.638 4.46182C309.922 4.27446 310.206 4.23822 310.482 4.20297C310.887 4.15132 311.274 4.10181 311.621 3.58195C315.105 4.95087 317.037 7.60265 319.043 10.3554C320.166 11.8968 321.313 13.4699 322.767 14.8672C323.404 15.4783 324.032 16.0596 324.648 16.6294L324.65 16.6311C327.078 18.8784 329.315 20.9484 331.122 23.98C332.902 26.9667 334.61 29.9955 336.317 33.0241L336.318 33.0248L336.324 33.035C336.918 34.089 337.512 35.143 338.109 36.1952C338.442 36.7818 338.771 37.3743 339.1 37.9678C340.031 39.646 340.967 41.3333 342.02 42.9244C342.017 42.92 342.102 42.9821 342.22 43.0679L342.223 43.0699C342.48 43.2572 342.888 43.5552 342.874 43.5228C343.295 44.4917 343.503 45.7907 343.704 47.0435V47.0437L343.704 47.0444C343.817 47.7524 343.928 48.4457 344.074 49.0562C345.238 53.9351 347.563 59.3234 349.839 63.7509C350.249 64.5501 350.656 65.3856 351.07 66.2341C352.328 68.8167 353.644 71.5199 355.308 73.6882C356.047 74.6511 356.939 75.4732 357.832 76.2952L357.832 76.2954C358.586 76.9897 359.339 77.684 360 78.4629V289.289V503H0V168.641Z" fill="url(#paint0_linear_376_222)"/>
<defs>
<linearGradient id="paint0_linear_376_222" x1="102" y1="180.667" x2="102" y2="59.1073" gradientUnits="userSpaceOnUse">
<stop stop-color="#956E9A"/>
<stop offset="1" stop-color="#644D7F"/>
</linearGradient>
</defs>
</svg>
