<svg width="360" height="397" viewBox="0 0 360 397" fill="none" xmlns="http://www.w3.org/2000/svg">
<path fill-rule="evenodd" clip-rule="evenodd" d="M0 155.002V397H360V228.192V42.7434C354.756 41.9086 349.449 41.6943 344.135 41.5806C339.016 41.4707 334.562 38.7619 330.208 36.1141C328.973 35.3632 327.747 34.6173 326.515 33.9369C324.371 32.7522 322.089 32.0246 319.81 31.298C317.453 30.5466 315.099 29.7963 312.906 28.5427C308.919 26.2636 305.053 23.5842 301.327 20.907C299.832 19.8331 298.41 18.6248 296.987 17.4156L296.987 17.4152C294.957 15.6908 292.925 13.9642 290.675 12.6219C287.777 10.8932 284.727 9.13839 281.746 7.55758C280.623 6.96298 279.541 6.31192 278.46 5.66192C276.758 4.63852 275.061 3.61779 273.22 2.82422C273.03 2.74252 272.84 2.66098 272.648 2.57913L272.644 2.5773C271.371 2.03299 270.068 1.47549 268.881 0.778226C266.365 -0.697971 265.335 0.0287751 262.918 2.09179C261.476 3.32257 260.138 4.64303 258.8 5.96316C257.036 7.70364 255.273 9.44348 253.273 10.9763C251.906 12.0252 250.521 13.0551 249.136 14.0854L249.135 14.086C246.137 16.316 243.136 18.5475 240.301 20.9775C238.039 22.9158 235.909 25.0135 233.779 27.1121L233.778 27.1125C231.872 28.9898 229.965 30.8679 227.962 32.6335C226.45 33.9666 224.974 35.3358 223.497 36.7048L223.497 36.7053C221.297 38.7454 219.097 40.785 216.781 42.7042C214.325 44.739 211.906 46.8238 209.487 48.9087L209.487 48.9092C205.475 52.3674 201.462 55.8263 197.278 59.0594C194.211 61.4288 191.1 63.709 187.988 65.9898L187.987 65.9909C185.136 68.0801 182.285 70.1699 179.467 72.3293C179.285 72.4683 179.104 72.6071 178.922 72.7457C178.623 72.9743 178.324 73.2026 178.024 73.4308C175.228 75.5632 172.439 77.6898 169.813 80.0276C167.963 81.6746 165.87 82.8524 163.762 84.0384L163.761 84.0388C162.51 84.7426 161.254 85.4493 160.041 86.2587C158.941 86.9933 157.909 87.9905 156.868 88.9962C155.138 90.6687 153.383 92.3644 151.249 92.9141C150.472 93.1139 149.703 93.0991 148.912 93.0839H148.912C148.614 93.0781 148.312 93.0723 148.006 93.0779C147.192 93.0929 146.678 93.2637 146.107 93.4533C145.772 93.5644 145.419 93.6819 144.974 93.7784C143.502 94.0986 141.75 94.0095 140.083 93.9248C139.292 93.8846 138.52 93.8454 137.807 93.8512C136.461 93.8626 135.219 93.6508 133.975 93.4386C132.986 93.27 131.995 93.1012 130.95 93.0438C130.353 93.0108 129.779 92.9997 129.217 92.9888H129.215H129.215C127.779 92.9611 126.414 92.9348 124.903 92.5502C121.396 91.6581 118.308 89.9871 115.187 88.2986L115.186 88.2986C113.895 87.5998 112.598 86.8981 111.263 86.2473C109.86 85.5628 108.383 85.1792 106.904 84.7949L106.903 84.7947C105.682 84.4773 104.458 84.1595 103.273 83.6714C101.064 82.7622 99.4498 81.3284 97.7405 79.8105C97.3096 79.4279 96.8727 79.0399 96.4188 78.6537C94.9793 77.43 93.7865 76.3507 92.6642 74.8779C92.5978 74.7907 92.5342 74.7028 92.4722 74.6158C92.441 74.5719 92.4102 74.5282 92.3796 74.4849C91.8874 73.7875 91.4582 73.1793 90.4367 73.3415C89.1138 73.5512 87.2093 75.4622 85.8144 76.8617C85.387 77.2906 85.0074 77.6715 84.7071 77.9406C83.5432 78.9836 82.312 79.6833 81.0588 80.3955L81.0585 80.3957C80.2524 80.8538 79.4372 81.3171 78.6249 81.8802L77.4973 82.6616L77.4965 82.6623C73.6203 85.3481 69.824 87.9786 65.9955 90.8124C61.4909 94.1471 56.2811 96.3021 51.1068 98.4424C49.6317 99.0525 48.1596 99.6615 46.7075 100.296C45.2329 100.941 43.7677 101.409 42.2872 101.881C41.5336 102.121 40.7761 102.363 40.0113 102.63C39.0117 102.979 38.0407 103.392 37.0704 103.805C35.4646 104.488 33.8604 105.171 32.1303 105.56C28.0858 106.469 23.4818 107.063 19.3395 106.647C18.0469 106.517 16.7987 106.15 15.5534 105.785L15.5531 105.785C14.2472 105.401 12.9446 105.019 11.5972 104.911C10.0656 104.788 8.74545 105.214 7.57769 105.943C6.35875 106.705 5.30357 107.798 4.34388 108.943C3.07149 110.465 1.57923 111.715 0 112.861V155.002Z" fill="url(#paint0_linear_376_218)"/>
<defs>
<linearGradient id="paint0_linear_376_218" x1="245.5" y1="14.0468" x2="245.5" y2="80.0705" gradientUnits="userSpaceOnUse">
<stop stop-color="#584173"/>
<stop offset="1" stop-color="#876592"/>
</linearGradient>
</defs>
</svg>
