<svg width="360" height="278" viewBox="0 0 360 278" fill="none" xmlns="http://www.w3.org/2000/svg">
<path fill-rule="evenodd" clip-rule="evenodd" d="M0 251.434V278H360V238.918V185.317C359.445 185.347 358.89 185.378 358.333 185.409C349.695 185.89 340.89 186.38 332.315 185.515C326.212 184.898 320.672 183.424 314.898 181.886L314.891 181.884C313.644 181.552 312.387 181.218 311.111 180.888C293.633 176.375 276.856 170.411 260.469 162.584C256.621 160.745 252.731 159.006 248.84 157.266L248.838 157.265L248.836 157.264C244.392 155.276 239.948 153.289 235.566 151.154C231.414 149.132 227.317 146.979 223.355 144.576C221.385 143.382 219.45 142.127 217.562 140.798C217.491 140.747 217.419 140.697 217.348 140.647C216.769 140.24 216.194 139.836 215.665 139.36C215.459 139.175 215.237 139.009 215.015 138.843C214.679 138.591 214.342 138.339 214.061 138.02C213.604 137.501 213.134 137.035 212.608 136.587C209.781 134.181 207.003 131.743 204.521 128.951C204.48 128.905 204.433 128.848 204.381 128.786C204.089 128.432 203.65 127.9 203.288 128.119C203.188 128.18 203.158 128.232 203.119 128.299C203.099 128.332 203.078 128.369 203.044 128.412C202.852 128.665 202.631 128.778 202.355 128.919L202.326 128.934L202.233 128.981C201.873 129.164 201.531 129.338 201.21 129.6C201.075 129.711 200.944 129.824 200.814 129.937L200.812 129.938C200.537 130.177 200.263 130.414 199.955 130.619C199.482 130.933 198.977 131.168 198.471 131.403C198.044 131.602 197.616 131.801 197.207 132.048C196.508 132.471 195.885 132.968 195.258 133.469L195.258 133.469C195.169 133.539 195.081 133.61 194.992 133.68C194.866 133.781 194.738 133.881 194.609 133.981L194.559 134.02C194.37 134.166 194.268 134.245 194.018 134.341C193.968 134.36 193.915 134.378 193.863 134.396C193.745 134.437 193.626 134.479 193.52 134.531C193.305 134.639 193.101 134.762 192.897 134.885C192.725 134.989 192.553 135.092 192.375 135.186C192.213 135.272 192.043 135.341 191.872 135.409L191.871 135.41C191.659 135.495 191.446 135.581 191.246 135.701C190.89 135.912 190.517 136.066 190.13 136.225C190.057 136.255 189.984 136.285 189.911 136.316C189.858 136.338 189.807 136.361 189.757 136.383L189.755 136.384L189.754 136.384C189.603 136.452 189.458 136.517 189.286 136.549C189.165 136.572 189.044 136.573 188.921 136.575C188.813 136.576 188.704 136.578 188.597 136.594C188.483 136.611 188.371 136.642 188.26 136.674C188.134 136.709 188.009 136.745 187.879 136.76C187.678 136.782 187.491 136.742 187.302 136.702L187.301 136.701C187.188 136.677 187.074 136.653 186.956 136.642C186.65 136.613 186.334 136.643 186.021 136.673C185.863 136.688 185.706 136.703 185.552 136.71C185.011 136.735 184.47 136.744 183.928 136.741L183.684 136.74C180.547 136.724 177.544 136.709 174.466 135.811C165.103 133.079 156.895 126.161 149.283 119.746L149.283 119.746C147.887 118.57 146.511 117.41 145.152 116.297C135.293 108.218 126.418 99.3411 117.443 90.3642L117.443 90.364L117.436 90.3574C115.435 88.3554 113.428 86.3484 111.405 84.3442C105.298 78.2957 98.7762 72.786 92.2521 67.2743L92.2516 67.2739C87.5152 63.2725 82.7775 59.27 78.1961 55.0594C72.5179 49.8409 66.3049 45.294 60.0869 40.7436L60.0867 40.7434C54.3261 36.5276 48.5612 32.3088 43.2135 27.5499C40.9646 25.5488 38.6605 23.5981 36.3568 21.6476L36.3566 21.6474C28.5891 15.071 20.8245 8.49692 15.1801 0C12.7682 0.742371 10.6126 3.55618 8.74172 5.99832L8.74133 5.99887C8.00567 6.95911 7.31403 7.86194 6.66815 8.55869C4.50923 10.8873 2.28001 13.1271 0 15.304V251.434Z" fill="url(#paint0_linear_376_204)"/>
<defs>
<linearGradient id="paint0_linear_376_204" x1="180.501" y1="151.727" x2="180.501" y2="49.6356" gradientUnits="userSpaceOnUse">
<stop stop-color="#472F64"/>
<stop offset="1" stop-color="#2F1949"/>
</linearGradient>
</defs>
</svg>
