<svg width="360" height="477" viewBox="0 0 360 477" fill="none" xmlns="http://www.w3.org/2000/svg">
<path fill-rule="evenodd" clip-rule="evenodd" d="M0 209.917V477H360V178.709V81.8684C353.718 79.6407 346.981 77.1129 341.928 72.8701C341.555 72.5571 341.166 72.1252 340.762 71.6776C340.041 70.8784 339.275 70.0288 338.477 69.7153C336.671 69.0061 334.072 70.6668 332.167 71.8844C331.685 72.1929 331.246 72.4729 330.877 72.6787C330.395 72.9475 329.937 73.2156 329.491 73.4772L329.49 73.4778C327.915 74.4003 326.479 75.2423 324.592 75.7473C323.873 75.9399 323.193 76.2216 322.514 76.5033C321.889 76.7626 321.263 77.0217 320.608 77.2114C319.749 77.4595 318.874 77.5884 317.997 77.7175L317.997 77.7176C317.142 77.8435 316.285 77.9696 315.442 78.2066C314.416 78.4949 313.417 78.9084 312.419 79.3211L312.419 79.3213C311.742 79.6013 311.066 79.8808 310.384 80.1207C309.481 80.4378 308.573 80.7087 307.666 80.9793L307.664 80.9798C306.299 81.3871 304.937 81.7934 303.604 82.3545C303.245 82.5054 302.881 82.661 302.512 82.8185L302.497 82.825L302.497 82.8252C299.32 84.1826 295.798 85.6879 292.33 85.7067C290.948 85.7143 289.63 85.2401 288.31 84.7655C287.366 84.4262 286.422 84.0866 285.454 83.9229C282.087 83.3529 278.522 83.4512 275.02 83.5477H275.02H275.019C273.7 83.5841 272.39 83.6202 271.103 83.6202C270.758 83.6202 270.413 83.6191 270.069 83.618C269.316 83.6156 268.563 83.6133 267.81 83.6222C266.712 83.6353 265.933 83.8551 265.037 84.1079C264.63 84.2225 264.199 84.344 263.703 84.456C258.895 85.5433 254.716 86.1527 249.927 84.3207C249.137 84.0183 248.332 83.7167 247.52 83.4124C244.33 82.2171 241.029 80.9803 238.077 79.4913C234.982 77.9302 232.058 75.7928 229.257 73.7452L229.257 73.7447L229.035 73.5827C228.281 73.0318 227.504 72.491 226.722 71.9471L226.721 71.9459L226.72 71.9455C224.483 70.389 222.208 68.8065 220.345 66.8873C220.018 66.5505 219.628 66.0731 219.216 65.5679C218.501 64.6915 217.718 63.7318 217.075 63.2785C215.903 62.4507 214.68 62.6189 213.376 62.7985C213.021 62.8474 212.659 62.8971 212.291 62.9278C210.374 63.0872 208.395 63.0279 206.434 62.9691L206.432 62.969C205.423 62.9388 204.418 62.9087 203.429 62.9087C201.709 62.9087 199.985 62.8867 198.259 62.8647L198.254 62.8646C192.575 62.7921 186.876 62.7194 181.262 63.4278C178.139 63.8217 174.775 63.7575 171.636 63.6112C170.769 63.5706 169.936 63.4109 169.102 63.2514L169.102 63.2513C168.25 63.0881 167.399 62.9251 166.514 62.8897C166.083 62.8726 165.674 62.8761 165.271 62.8796H165.268C164.509 62.8861 163.768 62.8925 162.938 62.7624C162 62.6155 161.045 62.5544 160.095 62.4935L160.094 62.4934C159.06 62.4273 158.032 62.3615 157.037 62.1862C156.8 62.1443 156.579 62.1033 156.369 62.0644C154.907 61.7934 154.02 61.629 152.354 62.0419C151.756 62.1906 151.221 62.343 150.73 62.483C148.34 63.1648 146.991 63.5497 144.342 61.7512C142.439 60.4584 139.902 59.4062 137.634 59.0014C136.078 58.7239 134.494 58.7124 132.904 58.7009C131.375 58.6898 129.84 58.6787 128.32 58.4311C126.722 58.171 125.141 57.8423 123.56 57.5137L123.558 57.5132C121.906 57.1697 120.254 56.8263 118.583 56.5611C116.409 56.216 114.427 55.5667 112.436 54.9141C111.102 54.4771 109.764 54.0386 108.36 53.6889C106.299 53.1758 105.119 52.8281 103.371 51.6836C101.463 50.4344 100.786 51.2868 99.7902 52.5418C99.4855 52.9258 99.1508 53.3474 98.7419 53.7581C97.7674 54.7362 95.6693 56.4148 94.3673 56.7976C93.5688 57.0327 92.69 56.9694 91.8222 56.907C91.2915 56.8688 90.7649 56.8309 90.2633 56.8617C89.32 56.9196 88.3674 57.0797 87.4152 57.2397C84.9037 57.6618 82.3951 58.0834 80.0692 56.6272C78.9993 55.9576 78.1286 55.1542 77.2723 54.364C75.9821 53.1735 74.7245 52.0131 72.8675 51.386C71.496 50.9235 70.2845 50.1952 69.0668 49.4631L69.0664 49.4628C68.329 49.0195 67.5893 48.5749 66.8105 48.1871C63.9212 46.748 62.1596 44.8349 60.3329 42.1932C58.1186 38.9923 55.677 36.5261 52.5183 34.181C51.3157 33.2884 50.0859 32.4148 48.8532 31.5391L48.8527 31.5388L48.8526 31.5387C46.1303 29.6049 43.3939 27.6611 40.9041 25.4793C40.3105 24.9594 39.7368 24.4377 39.1702 23.9225C36.6239 21.6071 34.2226 19.4236 30.8081 18.1185C29.9742 17.7996 29.128 17.4924 28.2791 17.1842L28.2763 17.1831L28.2761 17.1831C26.1788 16.4217 24.0653 15.6544 22.0812 14.6902C18.6932 13.0436 15.874 10.2727 13.2541 7.62499C12.4528 6.81489 11.655 5.99429 10.8574 5.17385L10.8555 5.17198L10.8547 5.1712C9.61866 3.89976 8.38295 2.6287 7.13504 1.39762C7.04922 1.31303 6.96048 1.22088 6.86877 1.12565C6.45744 0.698526 5.98645 0.209436 5.45253 0.0627529C4.19334 -0.282294 3.14069 0.863778 2.24911 1.83448C1.92882 2.18321 1.6293 2.5093 1.34846 2.7355C0.899328 3.09699 0.449752 3.45744 0 3.81732V209.917Z" fill="url(#paint0_linear_376_226)"/>
<defs>
<linearGradient id="paint0_linear_376_226" x1="115.002" y1="-16.9277" x2="115.002" y2="162.527" gradientUnits="userSpaceOnUse">
<stop stop-color="#715B8F"/>
<stop offset="1" stop-color="#BC83A5"/>
</linearGradient>
</defs>
</svg>
