<svg width="360" height="698" viewBox="0 0 360 698" fill="none" xmlns="http://www.w3.org/2000/svg">
<g clip-path="url(#clip0_380_237)">
<path d="M-321 617.093C-321 613.219 -318.521 609.78 -314.846 608.555L-285.171 598.663C-284.253 598.357 -283.292 598.201 -282.325 598.201H-255.432H-227.837L-201.762 595.163H-180.136C-179.534 595.163 -178.933 595.224 -178.343 595.344L-164.294 598.201L-146.32 600.986L-132.143 604.53L-114.001 607.515C-112.776 607.717 -111.522 607.663 -110.318 607.356L-86.4014 601.264C-85.6754 601.079 -84.9291 600.986 -84.1799 600.986H-55.9416L-15.436 604.53H23.8038L85.5748 598.201H128.359L159.751 595.163H190.383L211.452 598.103C211.92 598.168 212.382 598.27 212.833 598.408L231.194 604.006C232.329 604.352 233.522 604.47 234.703 604.353L252.642 602.582C253.159 602.53 253.672 602.434 254.173 602.295L266.908 598.746C268.195 598.387 269.546 598.319 270.862 598.548L292.909 602.372C293.417 602.46 293.932 602.505 294.447 602.505H362.025L398.264 599.12C403.542 598.627 408.101 602.78 408.101 608.081V729.705C408.101 734.675 404.071 738.705 399.101 738.705H-312C-316.971 738.705 -321 734.675 -321 729.705V617.093Z" fill="black" stroke="black" stroke-width="3"/>
<path fill-rule="evenodd" clip-rule="evenodd" d="M282.861 603.516C282.713 603.517 282.567 603.486 282.433 603.424L277.65 601.219C277.369 601.09 277.164 600.837 277.095 600.536L276.046 595.997C275.986 595.736 276.033 595.461 276.177 595.235L278.714 591.252C278.82 591.086 278.972 590.955 279.152 590.875L282.341 589.46C282.533 589.374 282.747 589.352 282.953 589.395L288.793 590.623C289.565 590.785 290.212 590.032 289.935 589.293L289.567 588.315C289.42 587.921 289.534 587.477 289.853 587.204L291.974 585.388C292.15 585.237 292.268 585.031 292.309 584.803L295.588 566.375L297.185 561.27C297.41 560.554 296.794 559.856 296.055 559.987L286.601 561.674C286.221 561.741 285.914 562.022 285.812 562.395L284.78 566.175C284.744 566.307 284.681 566.43 284.596 566.537L283.191 568.291C283.101 568.404 283.036 568.534 283.001 568.674L282.725 569.778C282.669 570.002 282.517 570.191 282.311 570.294L282.136 570.381C281.936 570.481 281.694 570.442 281.536 570.284C281.438 570.186 281.383 570.054 281.383 569.915V569.297V568.452C281.383 568.191 281.487 567.941 281.671 567.757L282.072 567.357C282.349 567.079 282.273 566.611 281.922 566.436C281.842 566.396 281.754 566.375 281.665 566.375H281.547C280.995 566.375 280.547 566.823 280.547 567.375V567.627V568.106C280.547 568.27 280.376 568.376 280.229 568.303C280.048 568.213 279.852 568.394 279.927 568.582L280.47 569.939C280.517 570.055 280.49 570.189 280.401 570.278C280.26 570.418 280.027 570.395 279.917 570.23L279.817 570.081C279.604 569.761 279.117 569.827 278.996 570.191L278.947 570.337C278.902 570.473 278.912 570.62 278.976 570.748L279.199 571.193C279.256 571.307 279.233 571.444 279.143 571.534C279.008 571.669 278.781 571.641 278.682 571.477L277.766 569.952C277.672 569.796 277.623 569.618 277.623 569.437V567.864C277.623 567.708 277.659 567.555 277.729 567.416L278.771 565.335C278.84 565.196 278.876 565.042 278.876 564.887V564.286C278.876 564.02 278.982 563.766 279.17 563.578L284.124 558.629C284.245 558.509 284.393 558.422 284.557 558.375L287.13 557.64C287.198 557.621 287.264 557.595 287.326 557.561L293.218 554.423C293.401 554.325 293.549 554.173 293.642 553.988L293.72 553.831C293.846 553.581 294.071 553.394 294.34 553.317L299.632 551.807C299.721 551.782 299.813 551.769 299.906 551.769H305.86C305.971 551.769 306.077 551.813 306.156 551.891C306.319 552.054 306.583 552.054 306.747 551.891L306.991 551.647C307.155 551.484 307.155 551.219 306.991 551.056C306.913 550.978 306.869 550.872 306.869 550.761V550.218C306.869 549.883 306.702 549.571 306.423 549.385L305.944 549.066C305.739 548.929 305.616 548.699 305.616 548.453C305.616 548.308 305.658 548.166 305.739 548.045L306.501 546.898C306.724 546.562 306.723 546.125 306.499 545.79L306.29 545.477C306.127 545.232 306.08 544.929 306.161 544.646L306.83 542.305C306.856 542.216 306.869 542.123 306.869 542.03V541.154C306.869 540.999 306.905 540.846 306.975 540.707L307.657 539.344C307.688 539.281 307.705 539.212 307.705 539.142V538.579C307.705 538.503 307.625 538.454 307.557 538.488C307.451 538.541 307.356 538.4 307.444 538.321L310.53 535.581C310.595 535.523 310.672 535.479 310.755 535.451L311.773 535.112C311.846 535.088 311.921 535.072 311.998 535.065L316.334 534.671C316.43 534.663 316.526 534.668 316.621 534.687L318.568 535.076L320.895 535.851C321.014 535.89 321.123 535.951 321.219 536.031L323.42 537.863C323.526 537.951 323.613 538.061 323.675 538.184L324.762 540.356C324.81 540.452 324.842 540.555 324.858 540.662L325.242 543.352C325.249 543.399 325.252 543.446 325.252 543.493V545.41C325.252 545.476 325.246 545.541 325.233 545.606L324.861 547.464C324.843 547.551 324.814 547.636 324.775 547.715L323.977 549.309C323.751 549.761 323.897 550.309 324.317 550.589L324.752 550.879C324.807 550.916 324.858 550.958 324.905 551.004L328.177 554.273L330.216 556.717C330.249 556.757 330.279 556.799 330.306 556.843L332.716 560.856C332.754 560.918 332.784 560.985 332.808 561.054L334.415 565.872C334.434 565.929 334.448 565.988 334.457 566.047L335.27 571.73C335.276 571.777 335.28 571.824 335.28 571.872V577.226L334.444 583.486L332.827 589.945C332.791 590.089 332.788 590.239 332.817 590.384L334.026 596.423L335.386 601.858C335.544 602.489 335.067 603.1 334.416 603.1H331.806C331.384 603.1 331.007 602.835 330.864 602.437L329.608 598.924C329.353 598.21 328.405 598.066 327.95 598.673C327.826 598.838 327.759 599.039 327.759 599.245V600.319C327.759 600.501 327.71 600.679 327.616 600.834L326.569 602.577C326.527 602.648 326.476 602.712 326.419 602.77L326.377 602.812C326.192 602.997 325.941 603.102 325.68 603.104L282.861 603.516ZM307.534 585.136C307.643 584.882 307.642 584.594 307.531 584.341L304.78 578.061L303.96 585.023C303.95 585.111 303.928 585.197 303.895 585.278L302.273 589.328L306.067 587.813C306.313 587.714 306.51 587.522 306.615 587.278L307.534 585.136ZM311.465 562.619L308.54 560.95L310.211 564.289L311.465 562.619Z" fill="black" stroke="black"/>
<path d="M244.184 603.451L243.271 598.878H239.621V603.451L241.075 602.722C241.312 602.603 241.588 602.583 241.84 602.668L244.184 603.451Z" fill="#711A08"/>
<path d="M239.621 598.878L237.339 597.506L235.058 599.792L233.232 604.365L234.566 603.697C234.872 603.544 235.235 603.558 235.529 603.734L237.339 604.823L239.621 598.878Z" fill="#711A08"/>
<path d="M230.653 601.472C230.846 601.569 231.003 601.726 231.1 601.92L231.863 603.451L235.058 599.792L237.339 597.506C236.092 596.97 235.058 595.676 232.776 596.134L229.125 600.707L230.653 601.472Z" fill="#711A08"/>
<path d="M223.65 597.506H225.395C225.73 597.506 226.043 597.673 226.228 597.952L226.77 598.766C226.819 598.84 226.858 598.92 226.886 599.004L227.3 600.249L232.776 596.134L230.494 594.304L229.609 593.713C229.31 593.513 228.927 593.489 228.605 593.65L226.533 594.689C226.437 594.737 226.349 594.8 226.273 594.877L223.65 597.506Z" fill="#711A08"/>
<path d="M226.228 597.952C226.043 597.673 225.73 597.506 225.395 597.506H223.65L222.573 598.585C222.386 598.772 222.281 599.026 222.281 599.291V599.917C222.281 600.133 222.351 600.343 222.48 600.516L223.508 601.89C223.601 602.014 223.722 602.115 223.861 602.185L224.042 602.276C224.364 602.437 224.747 602.413 225.046 602.213L225.849 601.676C225.904 601.64 225.955 601.598 226.001 601.551L227.3 600.249L226.886 599.004C226.858 598.92 226.819 598.84 226.77 598.766L226.228 597.952Z" fill="#711A08"/>
<path d="M229.125 600.707L228.38 601.827C228.271 601.991 228.213 602.184 228.213 602.381V602.916C228.213 603.25 228.38 603.562 228.657 603.748L229.33 604.197C229.494 604.307 229.687 604.365 229.885 604.365H230.536C230.801 604.365 231.056 604.26 231.244 604.072L231.863 603.451L231.1 601.92C231.003 601.726 230.846 601.569 230.653 601.472L229.125 600.707Z" fill="#711A08"/>
<path d="M249.101 599.398C249.031 599.356 248.967 599.306 248.909 599.248L246.258 596.591L243.271 598.878L247.378 603.908L248.15 601.974C248.24 601.747 248.412 601.561 248.63 601.451L249.904 600.813C250.043 600.743 250.197 600.707 250.352 600.707H251.277L249.101 599.398Z" fill="#711A08"/>
<path d="M257.666 596.591L248.701 594.452C248.324 594.362 247.929 594.498 247.687 594.8L246.258 596.591L248.909 599.248C248.967 599.306 249.031 599.356 249.101 599.398L251.277 600.707L256.297 602.536L255.163 601.4C255.01 601.247 254.911 601.048 254.881 600.835L254.58 598.721C254.516 598.273 254.76 597.839 255.175 597.661L257.666 596.591Z" fill="#711A08"/>
<path d="M244.184 603.451L241.84 602.668C241.588 602.583 241.312 602.603 241.075 602.722L239.621 603.451V604.781C239.621 605.095 239.768 605.391 240.02 605.58L241.065 606.365C241.306 606.547 241.616 606.609 241.909 606.536L243.002 606.262C243.178 606.218 243.339 606.127 243.467 605.998L243.892 605.573C244.079 605.385 244.184 605.131 244.184 604.866V603.451Z" fill="#711A08"/>
<path d="M235.529 603.734C235.235 603.558 234.872 603.544 234.566 603.697L233.232 604.365V606.035C233.232 606.413 233.446 606.759 233.784 606.929L234.655 607.365C234.911 607.493 235.21 607.506 235.475 607.399L236.711 606.904C237.09 606.752 237.339 606.384 237.339 605.975V604.823L235.529 603.734Z" fill="#711A08"/>
<path d="M251.277 602.536V600.707H250.352C250.197 600.707 250.043 600.743 249.904 600.813L248.63 601.451C248.412 601.561 248.24 601.747 248.15 601.974L247.378 603.908L248.708 604.908C249.011 605.136 249.418 605.173 249.757 605.003L250.557 604.602C250.852 604.454 251.055 604.17 251.1 603.843L251.277 602.536Z" fill="#711A08"/>
<path d="M254.881 600.835C254.911 601.048 255.01 601.247 255.163 601.4L256.297 602.536L258.334 601.788C258.619 601.683 258.842 601.453 258.938 601.164L259.122 600.611C259.199 600.378 259.188 600.125 259.091 599.9L257.666 596.591L255.175 597.661C254.76 597.839 254.516 598.273 254.58 598.721L254.881 600.835Z" fill="#711A08"/>
<path d="M229.125 600.707L232.776 596.134L227.3 600.249L229.125 600.707Z" fill="#020000"/>
<path d="M247.378 603.908L243.271 598.878L244.184 603.451L247.378 603.908Z" fill="black"/>
<path d="M239.621 603.451V598.878L237.339 604.823L239.621 603.451Z" fill="black"/>
<path d="M233.232 604.365L235.058 599.792L231.863 603.451L233.232 604.365Z" fill="black"/>
<path d="M229.125 600.707L228.38 601.827C228.271 601.991 228.213 602.184 228.213 602.381V602.916C228.213 603.25 228.38 603.562 228.657 603.748L229.33 604.197C229.494 604.307 229.687 604.365 229.885 604.365H230.536C230.801 604.365 231.056 604.26 231.244 604.072L231.863 603.451M229.125 600.707L230.653 601.472C230.846 601.569 231.003 601.726 231.1 601.92L231.863 603.451M229.125 600.707L232.776 596.134M229.125 600.707L227.3 600.249M231.863 603.451L235.058 599.792M231.863 603.451L233.232 604.365M223.65 597.506H225.395C225.73 597.506 226.043 597.673 226.228 597.952L226.77 598.766C226.819 598.84 226.858 598.92 226.886 599.004L227.3 600.249M223.65 597.506L222.573 598.585C222.386 598.772 222.281 599.026 222.281 599.291V599.917C222.281 600.133 222.351 600.343 222.48 600.516L223.508 601.89C223.601 602.014 223.722 602.115 223.861 602.185L224.042 602.276C224.364 602.437 224.747 602.413 225.046 602.213L225.849 601.676C225.904 601.64 225.955 601.598 226.001 601.551L227.3 600.249M223.65 597.506L226.273 594.877C226.349 594.8 226.437 594.737 226.533 594.689L228.605 593.65C228.927 593.489 229.31 593.513 229.609 593.713L230.494 594.304L232.776 596.134M227.3 600.249L232.776 596.134M257.666 596.591L248.701 594.452C248.324 594.362 247.929 594.498 247.687 594.8L246.258 596.591M257.666 596.591L255.175 597.661C254.76 597.839 254.516 598.273 254.58 598.721L254.881 600.835C254.911 601.048 255.01 601.247 255.163 601.4L256.297 602.536M257.666 596.591L259.091 599.9C259.188 600.125 259.199 600.378 259.122 600.611L258.938 601.164C258.842 601.453 258.619 601.683 258.334 601.788L256.297 602.536M246.258 596.591L248.909 599.248C248.967 599.306 249.031 599.356 249.101 599.398L251.277 600.707M246.258 596.591L243.271 598.878M251.277 600.707V602.536L251.1 603.843C251.055 604.17 250.852 604.454 250.557 604.602L249.757 605.003C249.418 605.173 249.011 605.136 248.708 604.908L247.378 603.908M251.277 600.707H250.352C250.197 600.707 250.043 600.743 249.904 600.813L248.63 601.451C248.412 601.561 248.24 601.747 248.15 601.974L247.378 603.908M251.277 600.707L256.297 602.536M243.271 598.878L247.378 603.908M243.271 598.878L244.184 603.451M243.271 598.878H239.621M247.378 603.908L244.184 603.451M244.184 603.451L241.84 602.668C241.588 602.583 241.312 602.603 241.075 602.722L239.621 603.451M244.184 603.451V604.866C244.184 605.131 244.079 605.385 243.892 605.573L243.467 605.998C243.339 606.127 243.178 606.218 243.002 606.262L241.909 606.536C241.616 606.609 241.306 606.547 241.065 606.365L240.02 605.58C239.768 605.391 239.621 605.095 239.621 604.781V603.451M239.621 603.451V598.878M239.621 603.451L237.339 604.823M239.621 598.878L237.339 597.506M239.621 598.878L237.339 604.823M237.339 597.506L235.058 599.792M237.339 597.506C236.092 596.97 235.058 595.676 232.776 596.134M233.232 604.365L234.566 603.697C234.872 603.544 235.235 603.558 235.529 603.734L237.339 604.823M233.232 604.365L235.058 599.792M233.232 604.365V606.035C233.232 606.413 233.446 606.759 233.784 606.929L234.655 607.365C234.911 607.493 235.21 607.506 235.475 607.399L236.711 606.904C237.09 606.752 237.339 606.384 237.339 605.975V604.823" stroke="black"/>
<path d="M241.138 574.276L239.75 571.99V573.889C239.75 574.136 239.65 574.373 239.475 574.547C239.114 574.903 238.534 574.903 238.174 574.547L237.436 573.818V576.936C237.436 577.273 237.267 577.587 236.986 577.772L236.048 578.389L237.404 581.96C237.425 582.017 237.452 582.072 237.484 582.125L238.718 584.157C238.788 584.272 238.834 584.4 238.852 584.533C239.002 585.656 239.172 587.644 238.824 587.988L236.511 590.274V592.737C236.511 592.92 236.561 593.099 236.656 593.256L237.899 595.302L238.722 592.457C238.788 592.228 238.933 592.03 239.132 591.899L241.6 590.274L242.988 587.074L241.632 583.055C241.611 582.992 241.583 582.931 241.55 582.874L239.953 580.113C239.823 579.887 239.785 579.619 239.849 579.367L240.675 576.104L241.138 574.276Z" fill="#FF823C"/>
<path d="M244.839 579.761V577.475L244.308 577.999C243.863 578.44 243.126 578.366 242.776 577.846C242.617 577.61 242.565 577.317 242.635 577.041L242.92 575.917C242.965 575.74 243.057 575.579 243.186 575.451L244.178 574.471C244.308 574.343 244.4 574.182 244.445 574.005L244.759 572.764C244.811 572.558 244.796 572.341 244.716 572.144L244.056 570.514C243.964 570.287 243.792 570.102 243.572 569.993L242.62 569.523C242.279 569.354 242.063 569.007 242.063 568.626V568.115C242.063 567.958 242.1 567.803 242.171 567.663L242.988 566.048L241.36 568.058C241.216 568.236 241.138 568.458 241.138 568.687V570.201C241.138 570.468 241.245 570.725 241.435 570.912L241.964 571.435C242.293 571.76 242.356 572.269 242.115 572.665L241.138 574.276L240.675 576.104L239.849 579.367C239.785 579.619 239.823 579.887 239.953 580.113L241.55 582.874C241.583 582.931 241.611 582.992 241.632 583.055L242.988 587.074V582.809C242.988 582.61 243.048 582.415 243.159 582.25L244.839 579.761Z" fill="#FF823C"/>
<path d="M236.048 578.389L234.032 576.398C233.842 576.21 233.735 575.953 233.735 575.686V573.715C233.735 573.486 233.813 573.264 233.958 573.086L235.363 571.351C235.507 571.173 235.585 570.951 235.585 570.722V569.248L233.802 572.331C233.757 572.408 233.703 572.479 233.639 572.542L232.576 573.592C232.427 573.739 232.328 573.93 232.293 574.137L231.939 576.236C231.903 576.447 231.936 576.664 232.033 576.855L233.505 579.761L234.197 581.589L233.748 585.584C233.739 585.663 233.74 585.743 233.75 585.821L234.181 589.231C234.192 589.316 234.214 589.4 234.246 589.48L235.123 591.645L236.511 590.274L238.824 587.988C239.172 587.644 239.002 585.656 238.852 584.533C238.834 584.4 238.788 584.272 238.718 584.157L237.484 582.125C237.452 582.072 237.425 582.017 237.404 581.96L236.048 578.389Z" fill="#FF823C"/>
<path d="M234.197 581.589L232.347 584.332L231.075 588.519C231.001 588.765 231.024 589.031 231.14 589.261L232.142 591.24C232.272 591.497 232.285 591.799 232.176 592.066L231.421 593.931L232.347 596.216L233.966 596.673L235.123 591.645L234.246 589.48C234.214 589.4 234.192 589.316 234.181 589.231L233.75 585.821C233.74 585.743 233.739 585.663 233.748 585.584L234.197 581.589Z" fill="#FF823C"/>
<path d="M249.003 585.246L249.928 582.046L250.654 580.254C250.779 579.946 250.742 579.595 250.556 579.319L249.928 578.389L248.686 576.343C248.591 576.187 248.54 576.007 248.54 575.824V573.818L247.381 576.109C247.237 576.393 247.237 576.729 247.381 577.013L247.97 578.176C248.041 578.316 248.078 578.471 248.078 578.628V579.424C248.078 579.642 248.006 579.855 247.874 580.029L246.69 581.589V585.104C246.69 585.198 246.676 585.292 246.65 585.382L245.764 588.445L249.003 585.246Z" fill="#FF823C"/>
<path d="M235.497 597.105C235.556 597.122 235.613 597.144 235.668 597.171L237.354 598.004C237.409 598.031 237.466 598.053 237.525 598.069L238.361 598.306L237.899 595.302L236.656 593.256C236.561 593.099 236.511 592.92 236.511 592.737V590.274L235.123 591.645L233.966 596.673L235.497 597.105Z" fill="#FFA53C"/>
<path fill-rule="evenodd" clip-rule="evenodd" d="M226.795 593.016L226.346 590.356C226.337 590.301 226.332 590.246 226.332 590.19V588.64C226.332 588.512 226.357 588.384 226.405 588.265L227.218 586.257C227.244 586.193 227.277 586.131 227.316 586.073L228.087 584.931C228.15 584.837 228.229 584.754 228.32 584.687L229.798 583.592C229.952 583.478 230.07 583.322 230.137 583.143L231.421 579.761L231.884 582.046L232.347 584.332L231.075 588.519C231.001 588.765 231.024 589.031 231.14 589.261L232.142 591.24C232.272 591.497 232.285 591.799 232.176 592.066L231.421 593.931L230.074 592.267C229.78 591.903 229.273 591.792 228.854 591.999L226.795 593.016Z" fill="#FF823C"/>
<path d="M226.795 593.016L229.835 595.591C229.965 595.701 230.121 595.776 230.288 595.809L232.347 596.216L231.421 593.931L230.074 592.267C229.78 591.903 229.273 591.792 228.854 591.999L226.795 593.016Z" fill="#FFA53C"/>
<path fill-rule="evenodd" clip-rule="evenodd" d="M243.451 594.845V591.645L245.764 588.445L249.003 585.246C249.367 585.066 249.775 585.396 249.675 585.789L249.466 586.617L249.003 590.274V594.845L246.227 597.13V591.645L243.451 594.845Z" fill="#FF823C"/>
<path d="M243.451 598.959L246.227 597.13V591.645L243.451 594.845V598.959Z" fill="#FFA53C"/>
<path fill-rule="evenodd" clip-rule="evenodd" d="M243.451 591.645V594.845L241.064 594.059C240.814 593.977 240.543 593.996 240.308 594.112L237.899 595.302L238.722 592.457C238.788 592.228 238.933 592.03 239.132 591.899L241.6 590.274L242.988 587.074V582.809C242.988 582.61 243.048 582.415 243.159 582.25L244.839 579.761L246.69 581.589V585.104C246.69 585.198 246.676 585.292 246.65 585.382L245.764 588.445L243.451 591.645Z" fill="#FF823C"/>
<path d="M240.542 598.921C240.63 598.946 240.721 598.959 240.813 598.959H243.451V594.845L241.064 594.059C240.814 593.977 240.543 593.996 240.308 594.112L237.899 595.302L238.361 598.306L240.542 598.921Z" fill="#FFA53C"/>
<path d="M249.003 594.845H249.84C250.183 594.845 250.502 594.669 250.685 594.379L252.704 591.188C252.122 591.332 251.696 590.646 252.083 590.188L252.836 589.294C253.044 589.048 253.12 588.718 253.041 588.406L252.747 587.243C252.719 587.131 252.671 587.025 252.607 586.929L251.854 585.815C251.804 585.741 251.764 585.66 251.736 585.575L251.316 584.332V586.465C251.316 586.566 251.333 586.666 251.365 586.762L251.458 587.037C251.616 587.504 251.268 587.988 250.774 587.988C250.535 587.988 250.311 587.869 250.176 587.671L249.466 586.617L249.003 590.274V594.845Z" fill="#FFA53C"/>
<path d="M226.795 593.016L229.835 595.591C229.965 595.701 230.121 595.776 230.288 595.809L232.347 596.216M226.795 593.016L226.346 590.356C226.337 590.301 226.332 590.246 226.332 590.19V588.64C226.332 588.512 226.357 588.384 226.405 588.265L227.218 586.257C227.244 586.193 227.277 586.131 227.316 586.073L228.087 584.931C228.15 584.837 228.229 584.754 228.32 584.687L229.798 583.592C229.952 583.478 230.07 583.322 230.137 583.143L231.421 579.761L231.884 582.046L232.347 584.332M226.795 593.016L228.854 591.999C229.273 591.792 229.78 591.903 230.074 592.267L231.421 593.931M232.347 596.216L231.421 593.931M232.347 596.216L233.966 596.673M243.451 598.959H240.813C240.721 598.959 240.63 598.946 240.542 598.921L238.361 598.306M243.451 598.959L246.227 597.13M243.451 598.959V594.845M246.227 597.13L249.003 594.845M246.227 597.13V591.645L243.451 594.845M249.003 594.845H249.84C250.183 594.845 250.502 594.669 250.685 594.379L252.704 591.188V591.188C252.122 591.332 251.696 590.646 252.083 590.188L252.836 589.294C253.044 589.048 253.12 588.718 253.041 588.406L252.747 587.243C252.719 587.131 252.671 587.025 252.607 586.929L251.854 585.815C251.804 585.741 251.764 585.66 251.736 585.575L251.316 584.332M249.003 594.845V590.274L249.466 586.617M251.316 584.332L252.242 582.96M251.316 584.332V586.465C251.316 586.566 251.333 586.666 251.365 586.762L251.458 587.037C251.616 587.504 251.268 587.988 250.774 587.988V587.988C250.535 587.988 250.311 587.869 250.176 587.671L249.466 586.617M249.466 586.617L249.675 585.789C249.775 585.396 249.367 585.066 249.003 585.246V585.246M249.003 585.246L249.928 582.046L250.654 580.254C250.779 579.946 250.742 579.595 250.556 579.319L249.928 578.389L248.686 576.343C248.591 576.187 248.54 576.007 248.54 575.824V573.818L247.381 576.109C247.237 576.393 247.237 576.729 247.381 577.013L247.97 578.176C248.041 578.316 248.078 578.471 248.078 578.628V579.424C248.078 579.642 248.006 579.855 247.874 580.029L246.69 581.589M249.003 585.246L245.764 588.445M246.69 581.589L244.839 579.761M246.69 581.589V585.104C246.69 585.198 246.676 585.292 246.65 585.382L245.764 588.445M244.839 579.761V577.475L244.308 577.999C243.863 578.44 243.126 578.366 242.776 577.846V577.846C242.617 577.61 242.565 577.317 242.635 577.041L242.92 575.917C242.965 575.74 243.057 575.579 243.186 575.451L244.178 574.471C244.308 574.343 244.4 574.182 244.445 574.005L244.759 572.764C244.811 572.558 244.796 572.341 244.716 572.144L244.056 570.514C243.964 570.287 243.792 570.102 243.572 569.993L242.62 569.523C242.279 569.354 242.063 569.007 242.063 568.626V568.115C242.063 567.958 242.1 567.803 242.171 567.663L242.988 566.048L241.36 568.058C241.216 568.236 241.138 568.458 241.138 568.687V570.201C241.138 570.468 241.245 570.725 241.435 570.912L241.964 571.435C242.293 571.76 242.356 572.269 242.115 572.665L241.138 574.276M244.839 579.761L243.159 582.25C243.048 582.415 242.988 582.61 242.988 582.809V587.074M241.138 574.276L239.75 571.99V573.889C239.75 574.136 239.65 574.373 239.475 574.547V574.547C239.114 574.903 238.534 574.903 238.174 574.547L237.436 573.818V576.936C237.436 577.273 237.267 577.587 236.986 577.772L236.048 578.389M241.138 574.276L240.675 576.104L239.849 579.367C239.785 579.619 239.823 579.887 239.953 580.113L241.55 582.874C241.583 582.931 241.611 582.992 241.632 583.055L242.988 587.074M236.048 578.389L234.032 576.398C233.842 576.21 233.735 575.953 233.735 575.686V573.715C233.735 573.486 233.813 573.264 233.958 573.086L235.363 571.351C235.507 571.173 235.585 570.951 235.585 570.722V569.248L233.802 572.331C233.757 572.408 233.703 572.479 233.639 572.542L232.576 573.592C232.427 573.739 232.328 573.93 232.293 574.137L231.939 576.236C231.903 576.447 231.936 576.664 232.033 576.855L233.505 579.761L234.197 581.589M236.048 578.389L237.404 581.96C237.425 582.017 237.452 582.072 237.484 582.125L238.718 584.157C238.788 584.272 238.834 584.4 238.852 584.533C239.002 585.656 239.172 587.644 238.824 587.988M234.197 581.589L232.347 584.332M234.197 581.589L233.748 585.584C233.739 585.663 233.74 585.743 233.75 585.821L234.181 589.231C234.192 589.316 234.214 589.4 234.246 589.48L235.123 591.645M232.347 584.332L231.075 588.519C231.001 588.765 231.024 589.031 231.14 589.261L232.142 591.24C232.272 591.497 232.285 591.799 232.176 592.066L231.421 593.931M233.966 596.673L235.497 597.105C235.556 597.122 235.613 597.144 235.668 597.171L237.354 598.004C237.409 598.031 237.466 598.053 237.525 598.069L238.361 598.306M233.966 596.673L235.123 591.645M235.123 591.645C235.49 591.282 235.993 590.786 236.511 590.274M235.123 591.645L236.511 590.274M238.824 587.988C238.58 588.23 237.516 589.281 236.511 590.274M238.824 587.988L236.511 590.274M236.511 590.274V592.737C236.511 592.92 236.561 593.099 236.656 593.256L237.899 595.302M237.899 595.302L238.361 598.306M237.899 595.302L238.722 592.457C238.788 592.228 238.933 592.03 239.132 591.899L241.6 590.274M237.899 595.302L240.308 594.112C240.543 593.996 240.814 593.977 241.064 594.059L243.451 594.845M241.6 590.274L242.988 587.074M241.6 590.274L243.451 591.645M245.764 588.445L243.451 591.645M243.451 591.645V594.845" stroke="#FF612F"/>
<path d="M217.47 603.517L204.054 607.753L216.488 606.776L218.779 609.383L217.47 617.205L221.724 610.687L231.868 613.294L233.504 617.205L231.214 622.745L237.758 617.205H252.156L259.028 622.745L262.955 631.871V621.116L255.429 614.272L262.955 610.687L276.371 609.383L278.989 606.45H261.319L250.193 610.687H235.468L223.36 607.753L217.47 603.517Z" fill="#FF975D" stroke="#FF975D"/>
<path d="M-81.7637 602.504H-57.7135L-29.1064 605.289L-2.0183 607.314H30.8925C32.1077 607.314 54.5208 604.107 65.5754 602.504L84.5624 600.479H106.84H137.22L164.055 597.188L139.498 605.289H108.613H84.5624L65.5754 608.073L30.8925 611.871H-2.0183L-29.1064 610.352L-54.1692 607.82L-69.612 605.289L-81.7637 602.504Z" fill="#AF69FF" fill-opacity="0.4"/>
<path d="M-2.0183 607.314L-29.1064 605.289L-57.7135 602.504H-81.7637L-69.612 605.289L-54.1692 607.82L-29.1064 610.352L-2.0183 611.871H30.8925L65.5754 608.073L84.5624 605.289H108.613H139.498L164.055 597.188L137.22 600.479M-2.0183 607.314C8.44564 607.314 29.6773 607.314 30.8925 607.314M-2.0183 607.314H30.8925M30.8925 607.314C32.1077 607.314 54.5207 604.107 65.5754 602.504L84.5624 600.479M84.5624 600.479C91.3133 600.479 105.22 600.479 106.84 600.479M84.5624 600.479H106.84M106.84 600.479C108.461 600.479 127.768 600.479 137.22 600.479M106.84 600.479H137.22" stroke="black"/>
</g>
<defs>
<clipPath id="clip0_380_237">
<rect width="360" height="698" fill="white"/>
</clipPath>
</defs>
</svg>
