<svg width="360" height="698" viewBox="0 0 360 698" fill="none" xmlns="http://www.w3.org/2000/svg">
<g clip-path="url(#clip0_380_344)">
<g filter="url(#filter0_f_380_344)">
<path d="M32.01 450.038L-41.5571 393.47L-33.5843 363.698L32.01 336.902L97.6044 370.769L151.602 417.66L221.908 388.632L295.112 402.402L345.848 363.698L403.832 424.731L324.829 507.722L279.891 466.041L233.867 457.853L168.997 478.694C154.622 485.517 109.346 461.054 104.128 461.947C98.909 462.84 53.8748 454.38 32.01 450.038Z" fill="#BA6EFF" fill-opacity="0.2"/>
<path d="M32.01 450.038L-41.5571 393.47L-33.5843 363.698L32.01 336.902L97.6044 370.769L151.602 417.66L221.908 388.632L295.112 402.402L345.848 363.698L403.832 424.731L324.829 507.722L279.891 466.041L233.867 457.853L168.997 478.694C154.622 485.517 109.346 461.054 104.128 461.947C98.909 462.84 53.8748 454.38 32.01 450.038Z" stroke="black"/>
</g>
<path d="M140.139 353.636L133.347 357.154L128.045 363.855V371.394L135.5 367.038L140.139 361.677V353.636Z" fill="#E384FF" fill-opacity="0.7"/>
<path d="M148.091 332.191L142.459 327.835V336.045L145.606 341.071L151.239 345.091V338.222L148.091 332.191Z" fill="#E384FF" fill-opacity="0.7"/>
<path d="M140.139 475.768H142.459V442.261V432.46V389.153V380.608V336.045V327.835V290.643V283.104V240.885V233.514V188.782V183.756V143.381H140.139V157.956V163.987V206.374V212.07V256.299V262.162V303.04V310.579V353.636V361.677V409.089V417.131V455.496V463.203V475.768Z" fill="#E384FF" fill-opacity="0.7"/>
<path d="M148.091 286.455L142.459 283.104V290.643L145.606 294.999L151.239 297.847V291.816L148.091 286.455Z" fill="#E384FF" fill-opacity="0.7"/>
<path d="M140.139 303.04L134.175 305.721L130.696 311.25V317.783L135.169 315.605L140.139 310.579V303.04Z" fill="#E384FF" fill-opacity="0.7"/>
<path d="M140.139 256.299L134.506 259.482L131.193 265.01V270.539L136.66 266.853L140.139 262.162V256.299Z" fill="#E384FF" fill-opacity="0.7"/>
<path d="M147.76 236.027L142.459 233.514V240.885L146.6 245.074L151.073 247.252V240.885L147.76 236.027Z" fill="#E384FF" fill-opacity="0.7"/>
<path d="M140.139 206.374L134.506 209.222L131.193 213.745V219.441L135.832 216.761L140.139 212.07V206.374Z" fill="#E384FF" fill-opacity="0.7"/>
<path d="M147.76 185.264L142.459 183.756V188.782L146.6 192.803L151.073 194.814V189.788L147.76 185.264Z" fill="#E384FF" fill-opacity="0.7"/>
<path d="M140.139 157.956L134.838 160.637L130.862 166.165V172.029L135.997 169.181L140.139 163.987V157.956Z" fill="#E384FF" fill-opacity="0.7"/>
<path d="M148.091 385.132L142.459 380.608V389.153L147.097 395.016L151.239 398.702V390.66L148.091 385.132Z" fill="#E384FF" fill-opacity="0.7"/>
<path d="M140.139 409.089L133.844 412.105L130.033 417.131V425.172L135.5 422.827L140.139 417.131V409.089Z" fill="#E384FF" fill-opacity="0.7"/>
<path d="M148.92 437.737L142.459 432.46V442.261L145.938 447.622L150.079 449.8L151.239 445.276L148.92 437.737Z" fill="#E384FF" fill-opacity="0.7"/>
<path d="M140.139 455.496L133.844 457.674L130.033 463.203L128.377 470.071L135.5 468.564L140.139 463.203V455.496Z" fill="#E384FF" fill-opacity="0.7"/>
<path d="M142.459 475.768H140.139L138.151 480.626L140.139 485.987L143.95 487.998L146.932 484.312V480.626L142.459 475.768Z" fill="#E384FF" fill-opacity="0.7"/>
<path d="M205.34 426.591L198.972 429.973L194.002 436.414V443.66L200.991 439.473L205.34 434.32V426.591Z" fill="#E384FF" fill-opacity="0.5"/>
<path d="M212.795 405.981L207.514 401.794V409.684L210.465 414.515L215.746 418.379V411.778L212.795 405.981Z" fill="#E384FF" fill-opacity="0.5"/>
<path d="M205.34 531.899L207.514 511.771V502.352V460.728V452.516V409.684V401.794V366.048V358.802V318.225V311.14V268.147V263.317V224.511H205.34V238.52V244.316V285.054V290.529V333.039V338.674V377.963V385.209V426.591V434.32V479.889V487.618V524.492V531.899Z" fill="#E384FF" fill-opacity="0.5"/>
<path d="M212.795 362.022L207.514 358.802V366.048L210.465 370.234L215.746 372.972V367.175L212.795 362.022Z" fill="#E384FF" fill-opacity="0.5"/>
<path d="M205.34 377.963L199.749 380.54L196.487 385.853V392.133L200.68 390.04L205.34 385.209V377.963Z" fill="#E384FF" fill-opacity="0.5"/>
<path d="M205.34 333.039L200.059 336.098L196.953 341.412V346.725L202.078 343.183L205.34 338.674V333.039Z" fill="#E384FF" fill-opacity="0.5"/>
<path d="M212.484 313.555L207.514 311.14V318.225L211.397 322.25L215.591 324.343V318.225L212.484 313.555Z" fill="#E384FF" fill-opacity="0.5"/>
<path d="M205.34 285.054L200.059 287.792L196.953 292.139V297.614L201.302 295.038L205.34 290.529V285.054Z" fill="#E384FF" fill-opacity="0.5"/>
<path d="M212.484 264.766L207.514 263.317V268.147L211.397 272.012L215.591 273.944V269.113L212.484 264.766Z" fill="#E384FF" fill-opacity="0.5"/>
<path d="M205.34 238.52L200.37 241.096L196.642 246.41V252.045L201.457 249.308L205.34 244.316V238.52Z" fill="#E384FF" fill-opacity="0.5"/>
<path d="M212.795 456.863L207.514 452.516V460.728L211.863 466.363L215.746 469.906V462.177L212.795 456.863Z" fill="#E384FF" fill-opacity="0.5"/>
<path d="M205.34 479.889L199.438 482.788L195.866 487.618V495.347L200.991 493.093L205.34 487.618V479.889Z" fill="#E384FF" fill-opacity="0.5"/>
<path d="M213.572 507.424L207.514 502.352V511.771L210.776 516.924L214.659 519.017L215.746 514.67L213.572 507.424Z" fill="#E384FF" fill-opacity="0.5"/>
<path d="M205.34 524.492L199.438 526.585L195.866 531.899L194.313 538.501L200.991 537.051L205.34 531.899V524.492Z" fill="#E384FF" fill-opacity="0.5"/>
<path d="M88.2638 342.878L77.2261 346.752L68.6113 354.131V362.431L80.7258 357.635L88.2638 351.733V342.878Z" fill="#E384FF" fill-opacity="0.5"/>
<path d="M101.186 319.267L92.0327 314.471V323.51L97.1477 329.043L106.301 333.471V325.908L101.186 319.267Z" fill="#E384FF" fill-opacity="0.5"/>
<path d="M88.2638 487.498H92.0327V440.46V429.669V381.985V372.577V323.51V314.471V273.52V265.219V218.734V210.618V161.366V155.832V111.376H88.2638V127.424V134.065V180.734V187.006V235.705V242.161V287.17V295.471V342.878V351.733V403.936V412.79V455.032V463.518V487.498Z" fill="#E384FF" fill-opacity="0.5"/>
<path d="M101.186 268.908L92.0327 265.219V273.52L97.1477 278.316L106.301 281.452V274.811L101.186 268.908Z" fill="#E384FF" fill-opacity="0.5"/>
<path d="M88.2638 287.17L78.5721 290.122L72.9187 296.209V303.403L80.1874 301.005L88.2638 295.471V287.17Z" fill="#E384FF" fill-opacity="0.5"/>
<path d="M88.2638 235.705L79.1106 239.21L73.7263 245.297V251.384L82.6103 247.326L88.2638 242.161V235.705Z" fill="#E384FF" fill-opacity="0.5"/>
<path d="M100.647 213.385L92.0327 210.618V218.734L98.763 223.346L106.032 225.744V218.734L100.647 213.385Z" fill="#E384FF" fill-opacity="0.5"/>
<path d="M88.2638 180.734L79.1106 183.87L73.7263 188.851V195.123L81.2643 192.171L88.2638 187.006V180.734Z" fill="#E384FF" fill-opacity="0.5"/>
<path d="M100.647 157.492L92.0327 155.832V161.366L98.763 165.793L106.032 168.006V162.472L100.647 157.492Z" fill="#E384FF" fill-opacity="0.5"/>
<path d="M88.2638 127.424L79.649 130.376L73.1879 136.463V142.919L81.5335 139.783L88.2638 134.065V127.424Z" fill="#E384FF" fill-opacity="0.5"/>
<path d="M101.186 377.558L92.0327 372.577V381.985L99.5706 388.441L106.301 392.499V383.645L101.186 377.558Z" fill="#E384FF" fill-opacity="0.5"/>
<path d="M88.2638 403.936L78.0337 407.256L71.8419 412.79V421.644L80.7258 419.062L88.2638 412.79V403.936Z" fill="#E384FF" fill-opacity="0.5"/>
<path d="M102.532 435.479L92.0327 429.669V440.46L97.6861 446.363L104.416 448.761L106.301 443.78L102.532 435.479Z" fill="#E384FF" fill-opacity="0.5"/>
<path d="M88.2638 455.032L78.0337 457.43L71.8419 463.518L69.1498 471.081L80.7258 469.421L88.2638 463.518V455.032Z" fill="#E384FF" fill-opacity="0.5"/>
<path d="M92.0327 487.498H88.2638L85.0332 492.848V500.964L92.0327 510.327L96.4688 502.33V492.848L92.0327 487.498Z" fill="#E384FF" fill-opacity="0.5"/>
<path d="M114.17 298.804L105.68 301.803L99.0532 307.516V313.943L108.372 310.23L114.17 305.659V298.804Z" fill="#E384FF" fill-opacity="0.5"/>
<path d="M124.111 280.523L117.07 276.809V283.808L121.004 288.092L128.045 291.52V285.664L124.111 280.523Z" fill="#E384FF" fill-opacity="0.5"/>
<path d="M114.17 410.776H117.07V374.357V366.002V329.082V321.798V283.808V276.809V245.103V238.676V202.685V196.401V158.267V153.983V119.562H114.17V131.988V137.13V173.264V178.119V215.824V220.823V255.672V262.099V298.804V305.659V346.078V352.934V385.64V392.21V410.776Z" fill="#E384FF" fill-opacity="0.5"/>
<path d="M124.111 241.532L117.07 238.676V245.103L121.004 248.816L128.045 251.244V246.103L124.111 241.532Z" fill="#E384FF" fill-opacity="0.5"/>
<path d="M114.17 255.672L106.715 257.957L102.367 262.67V268.24L107.958 266.383L114.17 262.099V255.672Z" fill="#E384FF" fill-opacity="0.5"/>
<path d="M114.17 215.824L107.13 218.538L102.988 223.251V227.964L109.822 224.822L114.17 220.823V215.824Z" fill="#E384FF" fill-opacity="0.5"/>
<path d="M123.696 198.543L117.07 196.401V202.685L122.247 206.255L127.838 208.112V202.685L123.696 198.543Z" fill="#E384FF" fill-opacity="0.5"/>
<path d="M114.17 173.264L107.13 175.692L102.988 179.548V184.404L108.786 182.119L114.17 178.119V173.264Z" fill="#E384FF" fill-opacity="0.5"/>
<path d="M123.696 155.268L117.07 153.983V158.267L122.247 161.695L127.838 163.409V159.124L123.696 155.268Z" fill="#E384FF" fill-opacity="0.5"/>
<path d="M114.17 131.988L107.544 134.273L102.574 138.986V143.985L108.993 141.557L114.17 137.13V131.988Z" fill="#E384FF" fill-opacity="0.5"/>
<path d="M124.111 325.655L117.07 321.798V329.082L122.868 334.081L128.045 337.223V330.368L124.111 325.655Z" fill="#E384FF" fill-opacity="0.5"/>
<path d="M114.17 346.078L106.301 348.649L101.538 352.934V359.789L108.372 357.79L114.17 352.934V346.078Z" fill="#E384FF" fill-opacity="0.5"/>
<path d="M125.146 370.501L117.07 366.002V374.357L121.418 378.927L126.596 380.784L128.045 376.928L125.146 370.501Z" fill="#E384FF" fill-opacity="0.5"/>
<path d="M114.17 385.64L106.301 387.496L101.538 392.21L99.4674 398.065L108.372 396.78L114.17 392.21V385.64Z" fill="#E384FF" fill-opacity="0.5"/>
<path d="M117.07 410.776H114.17L111.685 414.918V421.202L117.07 428.452L120.482 422.26V414.918L117.07 410.776Z" fill="#E384FF" fill-opacity="0.5"/>
<g filter="url(#filter1_f_380_344)">
<path d="M67.5247 -9.20302L4.46712 -52.001L-57.5033 -27.4387L-102.803 3.82245L-129.258 47.7369L-172.746 86.4411L-205 152.685L-196.302 209.253L-187.242 258.005L-172.746 302.664L-164.774 346.951L-139.406 387.143L-102.803 400.913L-75.6233 431.802L-31.7729 419.893L-37.2089 378.956L-21.6257 332.809L-19.8137 298.198L-37.2089 272.891L-31.7729 231.954H10.2655L67.5247 277.729L121.522 282.94L148.702 321.644L191.465 298.198L213.572 321.644L228.068 340.996L249.812 369.28L287.139 378.956L343.673 387.143H376.652L388.611 369.28H418.69H451.669V-126.432L400.208 -183L329.902 -158.81L304.534 -101.87L257.422 -86.6115L228.068 -149.134L175.157 -170.719L97.2415 -126.432L67.5247 -70.2367V-9.20302Z" fill="#7548C2" fill-opacity="0.25"/>
<path d="M67.5247 -9.20302L4.46712 -52.001L-57.5033 -27.4387L-102.803 3.82245L-129.258 47.7369L-172.746 86.4411L-205 152.685L-196.302 209.253L-187.242 258.005L-172.746 302.664L-164.774 346.951L-139.406 387.143L-102.803 400.913L-75.6233 431.802L-31.7729 419.893L-37.2089 378.956L-21.6257 332.809L-19.8137 298.198L-37.2089 272.891L-31.7729 231.954H10.2655L67.5247 277.729L121.522 282.94L148.702 321.644L191.465 298.198L213.572 321.644L228.068 340.996L249.812 369.28L287.139 378.956L343.673 387.143H376.652L388.611 369.28H418.69H451.669V-126.432L400.208 -183L329.902 -158.81L304.534 -101.87L257.422 -86.6115L228.068 -149.134L175.157 -170.719L97.2415 -126.432L67.5247 -70.2367V-9.20302Z" stroke="black"/>
</g>
<g filter="url(#filter2_f_380_344)">
<path d="M392.598 281.823L454.206 295.221V-54.2338L417.966 -154.344L362.156 -166.625L323.017 -124.571V-54.2338L263.221 -45.3021L233.504 -117.5L195.09 -154.344L135.294 -139.83L111.738 -78.424L84.1957 -41.2084L122.248 40.666L104.853 54.0636L53.0293 -6.96999L10.991 -17.0182L-46.993 -31.9044L-82.1458 12.3821L-120.198 40.666L-153.176 82.7197L-177.819 153.801C-170.934 168.192 -156.365 198.088 -153.176 202.554C-149.987 207.02 -143.875 240.142 -141.217 256.144L-120.198 316.806C-93.9842 328.095 -40.2524 350.895 -35.0338 351.789C-29.8152 352.682 3.01817 360.348 24.0374 364.07L79.8469 331.692L122.248 295.221L150.877 331.692L195.09 316.806L233.504 281.823L286.415 256.144L348.023 268.426L392.598 281.823Z" fill="#9C63FF" fill-opacity="0.15"/>
<path d="M392.598 281.823L454.206 295.221V-54.2338L417.966 -154.344L362.156 -166.625L323.017 -124.571V-54.2338L263.221 -45.3021L233.504 -117.5L195.09 -154.344L135.294 -139.83L111.738 -78.424L84.1957 -41.2084L122.248 40.666L104.853 54.0636L53.0293 -6.96999L10.991 -17.0182L-46.993 -31.9044L-82.1458 12.3821L-120.198 40.666L-153.176 82.7197L-177.819 153.801C-170.934 168.192 -156.365 198.088 -153.176 202.554C-149.987 207.02 -143.875 240.142 -141.217 256.144L-120.198 316.806C-93.9842 328.095 -40.2524 350.895 -35.0338 351.789C-29.8152 352.682 3.01817 360.348 24.0374 364.07L79.8469 331.692L122.248 295.221L150.877 331.692L195.09 316.806L233.504 281.823L286.415 256.144L348.023 268.426L392.598 281.823Z" stroke="black"/>
</g>
<g filter="url(#filter3_f_380_344)">
<path d="M-70.5494 57.041L29.1105 68.95H84.1953C98.6913 77.5096 129.495 95.7453 136.743 100.211C143.991 104.677 166.822 123.657 177.332 132.589L204.874 191.762C197.022 213.223 180.521 257.261 177.332 261.727C173.346 267.309 115.724 285.917 109.201 285.917C103.982 285.917 53.6329 303.036 29.1105 311.596L-54.6038 340.996C-79.9718 339.26 -131.795 334.967 -136.144 331.692C-140.493 328.417 -161.391 299.811 -171.297 285.917L-188.329 229.349L-200.289 125.518L-162.237 68.95L-116.212 57.041H-70.5494Z" fill="#AF69FF" fill-opacity="0.15"/>
<path d="M-70.5494 57.041L29.1105 68.95H84.1953C98.6913 77.5096 129.495 95.7453 136.743 100.211C143.991 104.677 166.822 123.657 177.332 132.589L204.874 191.762C197.022 213.223 180.521 257.261 177.332 261.727C173.346 267.309 115.724 285.917 109.201 285.917C103.982 285.917 53.6329 303.036 29.1105 311.596L-54.6038 340.996C-79.9718 339.26 -131.795 334.967 -136.144 331.692C-140.493 328.417 -161.391 299.811 -171.297 285.917L-188.329 229.349L-200.289 125.518L-162.237 68.95L-116.212 57.041H-70.5494Z" stroke="black"/>
</g>
<g filter="url(#filter4_f_380_344)">
<path d="M292.938 -124.943H375.565L408.181 -83.2617L425.214 0.473434C420.019 22.9269 409.34 69.4712 408.181 76.0211C407.021 82.5711 391.027 112.741 383.175 127.007C342.586 141.397 259.307 169.358 250.899 166.083C240.39 161.989 148.702 132.589 136.743 127.007C127.176 122.541 97.7249 75.7731 84.1953 52.9475V-50.8841L136.743 -124.943L186.754 -142.435C218.646 -136.604 284.53 -124.943 292.938 -124.943Z" fill="#AF69FF" fill-opacity="0.15"/>
<path d="M292.938 -124.943H375.565L408.181 -83.2617L425.214 0.473434C420.019 22.9269 409.34 69.4712 408.181 76.0211C407.021 82.5711 391.027 112.741 383.175 127.007C342.586 141.397 259.307 169.358 250.899 166.083C240.39 161.989 148.702 132.589 136.743 127.007C127.176 122.541 97.7249 75.7731 84.1953 52.9475V-50.8841L136.743 -124.943L186.754 -142.435C218.646 -136.604 284.53 -124.943 292.938 -124.943Z" stroke="black"/>
</g>
<path d="M13.6193 321.348L41.8878 342.606L13.5478 352.806L-8.25432 344.706L-24.4352 332.152L-7.13972 320.48L13.6193 321.348Z" fill="#AF69FF" fill-opacity="0.5"/>
<path d="M10.2252 348.703L39.3474 337.538L32.9023 364.085L16.4316 376.739L-0.516602 382.941V364.085L10.2252 348.703Z" fill="#AF69FF" fill-opacity="0.5"/>
<path d="M59.6435 321.017L44.6353 348.972L32.6809 324.521L37.1473 303.902L46.0686 287.856L58.0323 302.16L59.6435 321.017Z" fill="#AF69FF" fill-opacity="0.5"/>
<path d="M91.1076 392.054L114.792 394.223L101.81 410.356L86.3772 413.503L72.6884 412.038L78.7502 399.026L91.1076 392.054Z" fill="#AF69FF" fill-opacity="0.5"/>
<path d="M124.129 362.015L114.89 392.495L98.3999 371.006L98.7448 349.885L104.348 332.328L118.864 343.874L124.129 362.015Z" fill="#AF69FF" fill-opacity="0.5"/>
<path d="M113.104 355.015L139.117 337.538L138.523 364.89L125.171 380.958L109.969 390.842L105.925 372.449L113.104 355.015Z" fill="#AF69FF" fill-opacity="0.5"/>
<path d="M192.939 377.361L188.781 345.725L212.565 358.054L220.936 377.349L223.076 395.695L205.169 391.522L192.939 377.361Z" fill="#AF69FF" fill-opacity="0.5"/>
<path d="M158.809 229.611L187.931 218.446L181.486 244.993L165.016 257.647L148.067 263.849V244.993L158.809 229.611Z" fill="#AF69FF" fill-opacity="0.5"/>
<path d="M177.574 207.496L204.962 192.397L202.065 219.595L187.409 234.415L171.431 242.91L168.952 224.227L177.574 207.496Z" fill="#AF69FF" fill-opacity="0.5"/>
<path d="M175.317 194.166L206.398 194.694L190.957 216.991L171.124 222.593L153.141 222.011L159.847 204.458L175.317 194.166Z" fill="#AF69FF" fill-opacity="0.5"/>
<path d="M22.8932 238.488L49.4633 255.057L25.1737 266.299L5.2995 260.853L-9.93798 251.028L4.47972 239.352L22.8932 238.488Z" fill="#AF69FF" fill-opacity="0.5"/>
<path d="M78.2622 131.856L93.9219 145.469L76.959 150.228L64.5487 144.575L55.6006 136.558L66.1713 130.471L78.2622 131.856Z" fill="#AF69FF" fill-opacity="0.5"/>
<path d="M89.4338 127.129L96.8618 147.562L79.1996 143.04L70.7812 131.484L66.6545 119.593L79.1996 119.593L89.4338 127.129Z" fill="#AF69FF" fill-opacity="0.5"/>
<path d="M103.015 123.849L101.896 146.788L86.6555 134.848L83.2105 120.068L84.0513 106.803L96.1812 112.177L103.015 123.849Z" fill="#AF69FF" fill-opacity="0.5"/>
<path d="M216.794 158.903L245.916 147.738L239.471 174.285L223 186.939L206.052 193.141V174.285L216.794 158.903Z" fill="#AF69FF" fill-opacity="0.5"/>
<path d="M123.963 167.155L152.393 180.063L129.72 194.431L109.328 191.665L92.9826 183.942L105.812 170.452L123.963 167.155Z" fill="#AF69FF" fill-opacity="0.5"/>
<path d="M286.075 237.586L287.097 269.491L264.649 254.756L258.22 234.691L257.898 216.217L275.301 222.228L286.075 237.586Z" fill="#AF69FF" fill-opacity="0.5"/>
<path d="M274.97 237.078L287.859 208.029L301.594 231.473L298.672 252.382L290.968 269.079L277.977 255.753L274.97 237.078Z" fill="#AF69FF" fill-opacity="0.5"/>
<path d="M346.212 274.635L371.213 255.664L372.138 283.007L359.699 299.831L345.071 310.588L340.013 292.461L346.212 274.635Z" fill="#AF69FF" fill-opacity="0.5"/>
<path d="M333.588 273.802L354.786 250.454L360.568 277.162L351.336 296.038L338.871 309.362L330.669 292.492L333.588 273.802Z" fill="#AF69FF" fill-opacity="0.5"/>
<path d="M303.77 3.3434L332.892 -7.82129L326.447 18.7259L309.976 31.3792L293.028 37.5818V18.7259L303.77 3.3434Z" fill="#AF69FF" fill-opacity="0.5"/>
<path d="M297.998 -1.83032L328.905 1.58671L311.561 22.3553L291.316 26.0898L273.457 23.8375L281.684 6.97989L297.998 -1.83032Z" fill="#AF69FF" fill-opacity="0.5"/>
<path d="M314.898 284.352L318.825 252.686L338.708 270.897L341.951 291.756L339.41 310.048L323.158 301.274L314.898 284.352Z" fill="#AF69FF" fill-opacity="0.5"/>
<path d="M9.32502 255.028L44.5018 256.425L26.4758 281.272L3.88453 287.104L-16.4618 285.983L-8.44133 266.281L9.32502 255.028Z" fill="#AF69FF" fill-opacity="0.5"/>
<path d="M319.121 409.265L314.625 377.678L338.54 389.739L347.116 408.938L349.452 427.259L331.502 423.288L319.121 409.265Z" fill="#AF69FF" fill-opacity="0.5"/>
<path d="M314.124 426.556L344.549 433.098L325.288 452.002L304.782 453.66L287.229 449.603L297.04 433.664L314.124 426.556Z" fill="#AF69FF" fill-opacity="0.5"/>
<path d="M320.122 420.346L343.823 441.001L318.114 448.179L299.322 439.59L285.779 427.426L301.806 418.224L320.122 420.346Z" fill="#AF69FF" fill-opacity="0.5"/>
<path fill-rule="evenodd" clip-rule="evenodd" d="M453.933 664.553V735H297.981C298.026 734.107 298.192 733.2 298.494 732.297L329.65 638.889C329.905 638.126 330.067 637.334 330.133 636.533L337.026 552.866L337.026 511.959L334.787 473.114C334.717 471.896 334.425 470.704 333.926 469.594L320.421 439.569C319.856 438.314 319.038 437.191 318.017 436.271L292.928 413.646C292.143 412.939 291.251 412.361 290.284 411.936L281.632 408.127C280.639 407.689 279.58 407.418 278.497 407.323L235.032 403.505L211.068 401.586C209.511 401.461 207.943 401.704 206.492 402.296L189.885 409.066L164.788 420.848C163.227 421.581 161.505 421.899 159.79 421.771L144.44 420.626C142.43 420.476 140.515 419.72 138.948 418.457L129.834 411.11L121.073 404.913C119.771 403.992 118.266 403.399 116.684 403.183L99.0136 400.772C98.6562 400.724 98.3101 400.614 97.9904 400.448C95.0028 398.896 96.2201 394.351 99.5911 394.472L102.051 394.56C105.45 394.681 107.235 390.541 104.805 388.171L97.4622 381.01C96.5095 380.08 95.3295 379.418 94.039 379.088L85.39 376.874C84.1154 376.547 82.9195 375.971 81.8709 375.179L63.1757 361.054C62.7112 360.703 62.2165 360.394 61.6975 360.13L48.4673 353.395C46.0028 352.141 43.1329 352.009 40.4579 352.751C36.2104 353.929 31.038 354.832 29.1733 353.329C26.8177 351.43 16.3459 348.684 10.207 347.265C9.21707 347.036 8.26856 346.669 7.38988 346.161L1.46724 342.735C0.159455 341.979 -0.713317 340.648 -0.889099 339.143C-1.31616 335.487 2.34464 332.696 5.74216 334.087L15.8441 338.226C17.4211 338.872 19.1396 339.101 20.8356 338.892L30.2503 337.733L34.4499 337.216C38.5824 336.707 41.0403 332.31 39.3032 328.535L38.3374 326.435C36.6485 322.765 39.8449 318.701 43.81 319.477C45.9088 319.888 47.4971 321.606 47.7457 323.734L48.586 330.929C48.9187 333.778 50.4579 336.339 52.8123 337.962L71.2162 350.645C71.6086 350.916 72.0201 351.158 72.4474 351.369L93.1647 361.612C93.6899 361.872 94.2372 362.085 94.8003 362.248L105.241 365.274C107.265 365.86 109.047 367.074 110.333 368.742L121.335 383.014L126.53 388.137C126.997 388.598 127.509 389.011 128.057 389.371L141.765 398.351C143.731 399.638 146.091 400.186 148.431 399.898L158.018 398.717C159.11 398.583 160.173 398.269 161.165 397.788L173.446 391.838C174.134 391.505 174.782 391.094 175.377 390.614L183.285 384.237C185.442 382.497 188.218 381.725 190.951 382.103L201.284 383.534C202.142 383.653 203.012 383.66 203.872 383.554L224.971 380.955C225.66 380.87 226.338 380.714 226.996 380.488L241.744 375.432C243.828 374.717 246.086 374.71 248.166 375.41L260.916 379.704C262.328 380.18 263.831 380.332 265.313 380.149L279.956 378.346C281.62 378.141 283.306 378.358 284.859 378.977L299.037 384.627C300.158 385.074 301.187 385.721 302.074 386.536L318.544 401.671C319.221 402.294 319.982 402.819 320.804 403.231L326.927 406.304C328.939 407.313 330.546 408.976 331.487 411.023L335.335 419.385C336.391 421.68 338.527 423.287 341.025 423.666C345.696 424.374 349.887 420.658 349.755 415.925L348.837 382.971C348.772 380.656 347.907 378.439 346.39 376.7L334.681 363.279L323.581 347.818C323.136 347.199 322.764 346.531 322.472 345.826L317.121 332.906C316.171 330.614 314.402 328.764 312.157 327.715L302.313 323.115C301.8 322.876 301.309 322.593 300.845 322.269L287.677 313.1C287.246 312.799 286.839 312.465 286.46 312.1L260.243 286.805L240.421 271.326C239.607 270.69 238.897 269.931 238.317 269.075L215.807 235.867C215.522 235.447 215.27 235.006 215.053 234.547L200.247 203.303C198.879 200.418 196.211 198.37 193.07 197.794L182.78 195.91C181.341 195.646 179.859 195.703 178.441 196.077L143.041 205.391C142.581 205.512 142.13 205.666 141.691 205.851L103.362 222.034C102.837 222.256 102.331 222.522 101.851 222.829L68.052 244.461L58.7302 250.273C54.0309 253.203 52.5709 259.379 55.4698 264.066L58.0815 268.289L60.986 274.122C62.4286 277.02 61.9257 280.52 59.7227 282.913C56.6813 286.218 51.5082 286.304 48.3988 283.101L43.3035 277.853C42.6277 277.157 42.2005 276.256 42.0876 275.29C41.6086 271.188 36.2823 269.939 33.9938 273.392L28.6922 281.39C27.8356 282.682 26.623 283.699 25.2027 284.316L-0.0118252 295.262C-0.854889 295.628 -1.79219 295.71 -2.68265 295.497C-6.57117 294.566 -7.08366 289.241 -3.44868 287.538L9.7287 281.364C10.8331 280.847 11.8269 280.118 12.6539 279.22L47.6292 241.215C48.1677 240.63 48.7733 240.111 49.4333 239.668L100.587 205.364L135.184 184.646C141.637 180.782 141.741 171.467 135.375 167.537L134.75 167.151C133.264 166.234 131.561 165.725 129.812 165.676L104.123 164.948C102.136 164.892 100.173 165.431 98.4862 166.497L81.9224 176.958C80.6688 177.75 79.2571 178.255 77.789 178.435L50.5614 181.789C48.8911 181.995 47.1985 181.775 45.6405 181.151L13.9579 168.455L-11.0382 157.477C-12.6755 156.758 -14.4784 156.494 -16.2581 156.714L-32.1377 158.669C-33.4417 158.83 -34.7028 159.246 -35.8491 159.894L-53.8431 170.066C-57.3713 172.06 -59.3657 175.979 -58.8966 179.996L-58.6131 182.424C-58.4531 183.793 -58.5779 185.183 -58.9797 186.506L-63.814 202.418L-66.4902 209.483C-67.0608 210.99 -67.2614 212.609 -67.075 214.205L-65.3173 229.255C-65.173 230.49 -64.7998 231.686 -64.2167 232.782L-59.7441 241.185C-59.3546 241.917 -58.8752 242.597 -58.3171 243.209L-46.686 255.964C-45.2843 257.501 -44.4004 259.442 -44.1584 261.514L-41.5474 283.87C-41.3054 285.942 -41.7172 288.043 -42.7252 289.877L-51.6936 306.194L-63.4534 323.848C-64.7769 325.835 -65.3522 328.225 -65.0762 330.589L-63.2715 346.041C-63.031 348.1 -62.1569 350.03 -60.7701 351.562L-59.4851 352.983C-58.2436 354.355 -57.461 356.083 -57.2457 357.926L-56.9713 360.276C-56.5493 363.889 -59.1342 367.179 -62.745 367.624C-65.0669 367.91 -67.3586 366.942 -68.7657 365.081L-73.667 358.598C-74.3645 357.676 -74.8957 356.638 -75.2369 355.531L-80.3755 338.858C-80.9495 336.996 -80.9659 335.003 -80.4228 333.124L-73.9372 310.692C-73.5889 309.487 -73.0182 308.357 -72.2549 307.361L-60.2571 291.697C-58.9966 290.052 -58.2737 288.058 -58.1879 285.992L-57.2941 264.471C-57.173 261.554 -58.3291 258.738 -60.4596 256.759L-67.7174 250.019C-69.2706 248.577 -71.2454 247.67 -73.3551 247.432L-84.0006 246.228C-86.4059 245.956 -88.8332 246.569 -90.8312 247.953L-105.27 257.953C-106.778 258.998 -107.974 260.436 -108.727 262.109L-112.753 271.06C-114.12 274.099 -113.894 277.611 -112.15 280.431L-107.82 287.431C-107.328 288.227 -106.725 288.95 -106.031 289.576L-101.862 293.339C-98.6419 296.246 -98.3567 301.214 -101.221 304.508C-103.355 306.962 -106.752 307.888 -109.815 306.85L-120.847 303.113C-122.933 302.407 -124.723 301.027 -125.937 299.19L-132.79 288.819C-134.402 286.38 -134.86 283.349 -134.042 280.527L-129.718 265.598C-129.073 263.372 -127.679 261.433 -125.772 260.113L-108.877 248.411L-88.0395 236.538C-84.5288 234.538 -82.548 230.629 -83.0157 226.625L-84.0179 218.044C-84.3216 215.443 -85.889 213.168 -88.2061 211.965C-90.5232 210.762 -92.0906 208.486 -92.3944 205.886L-92.4324 205.56C-92.8565 201.929 -90.9262 198.415 -87.6296 196.818L-81.9108 194.047C-78.7834 192.532 -76.9521 189.199 -77.3545 185.754C-77.5829 183.798 -78.5146 181.996 -79.9756 180.685L-87.7017 173.753C-88.7971 172.77 -90.0976 172.043 -91.51 171.625L-101.535 168.659C-103.76 168.001 -106.149 168.141 -108.291 169.056L-124.522 175.986C-125.833 176.546 -127.012 177.379 -127.979 178.43L-137.941 189.254C-138.549 189.916 -139.067 190.655 -139.48 191.454L-150.249 212.285C-150.535 212.838 -150.886 213.355 -151.295 213.825C-155.042 218.134 -161.972 217.09 -164.229 211.874C-165.171 209.698 -165.061 207.204 -163.932 205.106L-157.145 192.503L-150.196 176.981C-149.057 174.436 -146.914 172.475 -144.283 171.568L-118.874 162.81L-98.0719 157.275L-69.4976 153.755L-53.7061 151.81C-51.7077 151.564 -49.8264 150.72 -48.3083 149.388L-40.4204 142.469C-37.9303 140.285 -36.6702 137.017 -37.0533 133.736L-37.5562 129.431C-37.8516 126.902 -39.0999 124.586 -41.0466 122.957L-53.3395 112.671C-54.666 111.561 -56.2601 110.818 -57.9653 110.514L-64.9688 109.266C-66.4402 109.003 -67.9536 109.076 -69.3973 109.477L-88.989 114.927C-89.809 115.156 -90.5973 115.487 -91.3348 115.915L-107.996 125.571C-109.167 126.25 -110.461 126.685 -111.801 126.85L-129.151 128.987C-131.05 129.22 -132.971 128.905 -134.689 128.077L-145.312 122.957C-146.298 122.482 -147.356 122.173 -148.445 122.043L-160.297 120.625C-161.096 120.53 -161.903 120.531 -162.702 120.63L-164.345 120.832C-168.475 121.341 -172.469 119.225 -174.36 115.529L-175.679 112.95C-176.622 111.105 -176.417 108.874 -175.15 107.22C-173.948 105.652 -171.99 104.862 -170.047 105.163L-156.079 107.324L-135.825 112.979C-134.559 113.333 -133.234 113.432 -131.927 113.271L-117.906 111.544C-113.692 111.025 -111.868 105.899 -114.817 102.863L-118.211 99.366C-119.045 98.5069 -120.073 97.8608 -121.21 97.4816L-143.17 90.1529C-143.863 89.9216 -144.58 89.7674 -145.307 89.6931L-164.177 87.7665C-164.946 87.688 -165.702 87.5204 -166.431 87.267L-191.892 78.4173C-192.713 78.1321 -193.492 77.7404 -194.21 77.2524L-203.983 70.6104C-205.088 69.8593 -205.812 68.6641 -205.967 67.3329C-206.378 63.8113 -202.848 61.1262 -199.579 62.4741L-188.791 66.9226C-188.269 67.1378 -187.727 67.3017 -187.173 67.4119L-180.501 68.7392C-176.577 69.5199 -173.324 65.627 -174.788 61.9016L-175.772 59.3977C-177.124 55.9571 -173.505 52.6398 -170.205 54.2954C-169.528 54.6351 -168.962 55.1603 -168.572 55.8102L-162.063 66.6598C-161.063 68.3267 -159.597 69.6617 -157.845 70.5008L-137.81 80.0953L-121.522 86.6222C-121.029 86.8197 -120.553 87.0565 -120.098 87.3301L-108.128 94.533C-106.226 95.6775 -103.993 96.1512 -101.783 95.879L-90.9604 94.546C-89.0901 94.3156 -87.3735 93.3803 -86.1602 91.9307C-83.7527 89.0541 -83.8534 84.8444 -86.3948 82.1168L-88.8895 79.4392C-89.558 78.7218 -90.3292 78.1076 -91.178 77.6167L-108.549 67.5701L-117.097 63.8651L-136.502 57.8896C-139.088 57.093 -141.235 55.276 -142.448 52.8554L-150.048 37.6906C-150.266 37.2558 -150.516 36.8378 -150.794 36.4398L-154.887 30.602C-155.583 29.6085 -156.456 28.7517 -157.461 28.0737L-164.784 23.1361C-165.562 22.6117 -166.071 21.7733 -166.18 20.8387C-166.388 19.061 -165.116 17.4426 -163.34 17.2238L-157.953 16.5602C-154.802 16.1721 -151.702 17.5388 -149.871 20.1226L-137.544 37.5276C-136.647 38.7933 -135.467 39.8304 -134.097 40.5564L-120.467 47.7792C-119.416 48.336 -118.273 48.6995 -117.092 48.8524L-99.2143 51.1664C-98.2028 51.2973 -97.2182 51.5828 -96.2949 52.013L-83.7808 57.8424C-81.6749 58.8234 -79.9815 60.5122 -78.9931 62.6171L-71.1399 79.3426C-70.7098 80.2587 -70.1426 81.1031 -69.4578 81.8469L-58.1364 94.1436C-57.5232 94.8095 -56.8218 95.3882 -56.0516 95.8637L-41.2113 105.024C-40.6348 105.38 -40.0963 105.794 -39.6042 106.26L-23.4244 121.576C-22.1273 122.804 -20.5224 123.659 -18.7776 124.05L4.38042 129.245C5.41422 129.477 6.40353 129.872 7.31122 130.417L25.5122 141.33C26.1764 141.729 26.8853 142.048 27.6243 142.281L46.1161 148.124C47.4769 148.554 48.9158 148.686 50.3355 148.511L73.6478 145.64C75.3117 145.435 76.9001 144.815 78.2668 143.836L90.1536 135.324C91.5179 134.347 92.6176 133.044 93.352 131.535L99.9435 117.99C102.562 112.609 99.9361 106.172 94.3187 104.202L89.3083 102.446C88.7937 102.266 88.2949 102.043 87.817 101.781L72.7639 93.5174C70.9357 92.5139 68.8358 92.1116 66.7598 92.3673L46.5215 94.86L21.3762 97.9571L7.55359 99.6596C4.38809 100.049 1.23598 98.9049 -0.931717 96.5784L-16.0284 80.3755C-16.912 79.4272 -17.6014 78.3144 -18.058 77.0993L-29.9964 45.3315C-30.5369 43.8933 -30.6517 42.3271 -30.3272 40.82L-30.0853 39.6965C-29.1189 35.2081 -24.2321 32.7692 -20.0956 34.711C-18.2277 35.5878 -16.839 37.2387 -16.2922 39.2326L-7.82025 70.1251C-7.32103 71.9455 -6.31616 73.5839 -4.92209 74.8504L5.14032 83.9924C7.27957 85.936 10.1615 86.8489 13.0391 86.4945L30.2249 84.3778L45.3932 82.5095C52.5364 81.6297 56.4851 73.7134 52.8777 67.5047L51.8069 65.6617L48.9565 60.089C47.0571 56.3758 43.0451 54.2513 38.8971 54.7622L28.4788 56.0454C27.4577 56.1712 26.4243 56.1385 25.4152 55.9485L11.13 53.2597C10.2456 53.0933 9.4657 52.581 8.96217 51.8359C7.15686 49.1645 9.76054 45.6957 12.8309 46.6819L14.6423 47.2636C15.1989 47.4424 15.7884 47.4979 16.37 47.4263L32.8977 45.3906C34.6446 45.1754 35.8951 43.5839 35.691 41.8357C35.3106 38.5788 39.5014 36.9125 41.429 39.5543L44.6329 43.9452L55.4306 56.9028C56.9569 58.7344 59.6259 59.1055 61.6112 57.7621C63.8097 56.2744 66.791 56.9076 68.1766 59.1563L78.0148 75.1228C79.26 77.1438 81.1868 78.6494 83.4489 79.3692L105.813 86.4851C107.407 86.9923 108.845 87.8935 109.996 89.1058L120.759 100.443C123.577 103.411 124.286 107.815 122.548 111.547L118.862 119.459C116.468 124.598 120.62 130.339 126.231 129.648L126.517 129.612C127.642 129.474 128.781 129.647 129.81 130.113C134.999 132.462 140.363 127.097 138.025 121.897L136.44 118.372C136.245 117.939 136.092 117.489 135.981 117.027L128.244 84.7945L127.26 76.3688C126.968 73.8699 127.628 71.347 129.108 69.303L135.076 61.0636C135.551 60.4072 135.946 59.696 136.251 58.9455L140.674 48.0662C141.312 46.4978 141.543 44.7958 141.347 43.1186L140.221 33.4776C140.122 32.623 140.132 31.7584 140.254 30.9052L142.955 11.885C143.151 10.5056 143.632 9.18065 144.367 7.99467L153.706 -7.07317C155.411 -9.82356 155.691 -13.2206 154.459 -16.1961L149.769 -27.5182C149.363 -28.498 148.804 -29.4057 148.112 -30.2074L138.935 -40.8362C137.728 -42.234 136.156 -43.2663 134.392 -43.8181L118.49 -48.794C117.278 -49.1731 116.208 -49.9037 115.414 -50.8937C111.84 -55.348 115.433 -61.9421 121.124 -61.3735L133.997 -60.0875C134.732 -60.014 135.474 -60.0226 136.209 -60.1131L138.025 -60.3368C142.399 -60.8755 146.592 -58.4854 148.348 -54.4521L151.88 -46.3437C152.303 -45.3706 152.88 -44.4722 153.587 -43.6826L164.518 -31.484L163.712 -38.3832C163.611 -39.2522 163.396 -40.1033 163.073 -40.9149L155.021 -61.1475C154.698 -61.9591 154.483 -62.8102 154.381 -63.6792L153.471 -71.4684C153.314 -72.8153 153.432 -74.1819 153.818 -75.485L157.807 -88.9418L166.918 -122.658C167.05 -123.148 167.145 -123.647 167.202 -124.151L169.853 -147.602C170.112 -149.889 169.576 -152.191 168.336 -154.12L163.894 -161.032C162.974 -162.463 162.648 -164.198 162.983 -165.873C164.184 -171.876 172.189 -173.18 175.163 -167.858L176.047 -166.276C176.509 -165.448 176.804 -164.536 176.915 -163.592L179.019 -145.573C179.147 -144.475 179.093 -143.363 178.858 -142.281L169.787 -100.528L166.793 -74.2336C166.51 -71.7471 167.167 -69.2502 168.633 -67.2347L179.826 -51.8483C181.37 -49.7254 182.013 -47.0732 181.614 -44.467L178.825 -26.2319C178.69 -25.3444 178.674 -24.4435 178.778 -23.5533L179.371 -18.47C179.68 -15.8271 181.028 -13.4228 183.118 -11.7893L197.419 -0.610566C200.002 1.40814 203.418 2.02026 206.556 1.02664L226.141 -5.17394L253.546 -12.6103C254.006 -12.7349 254.473 -12.8266 254.945 -12.8848L278.592 -15.7974C279.869 -15.9545 281.161 -15.864 282.4 -15.5306L299.808 -10.8466C301.899 -10.2839 303.433 -8.50453 303.685 -6.34865C303.895 -4.55168 305.001 -2.98978 306.624 -2.20108L319.108 3.86758C320.106 4.35278 321.015 5.00194 321.798 5.7883L346.4 30.5019C350.981 35.103 358.687 34.1352 362.052 28.5363L387.458 -13.7429L398.972 -38.7646C399.905 -40.7933 402.903 -40.3324 403.162 -38.1205C403.303 -36.9106 404.398 -36.0504 405.607 -36.1993L424.021 -38.4673C427.218 -38.8611 429.731 -35.8156 428.746 -32.7408C428.216 -31.0843 426.77 -29.8849 425.048 -29.6728L412.115 -28.0799C410.824 -27.9208 409.574 -27.511 408.437 -26.8735L401.718 -23.1082C400.121 -22.2137 398.798 -20.9002 397.89 -19.31L370.033 29.4733C369.324 30.7147 368.888 32.0918 368.753 33.5124L366.604 56.1016C366.286 59.4399 367.657 62.7057 370.256 64.801L378.899 71.7681C382.613 74.7624 383.672 79.9855 381.425 84.227L364.394 116.372L351.634 135.954C350.35 137.924 349.795 140.28 350.067 142.609L350.404 145.488C351.044 150.974 356.007 154.873 361.489 154.198L363.78 153.916C366.885 153.533 369.641 151.719 371.228 149.013L375.476 141.77L378.192 137.281C380.484 133.492 386.247 134.717 386.759 139.102C386.855 139.927 386.729 140.764 386.392 141.526L379.533 157.051C378.389 159.641 376.208 161.632 373.529 162.533L362.455 166.259C361.492 166.583 360.583 167.051 359.76 167.648L343.174 179.667C341.894 180.594 340.85 181.811 340.125 183.216L328.924 204.959C328.62 205.548 328.376 206.165 328.194 206.801L319.822 236.051L313.429 259.405C313.089 260.648 312.991 261.942 313.14 263.219L315.589 284.186C315.81 286.078 316.566 287.865 317.77 289.335L327.044 300.668C327.296 300.976 327.517 301.308 327.704 301.659C330.052 306.071 336.47 305.814 338.641 301.286C339.148 300.228 339.352 299.036 339.216 297.874L339.188 297.631C338.908 295.24 337.423 293.167 335.253 292.14L333.363 291.245C331.744 290.479 330.636 288.932 330.427 287.148C329.964 283.179 333.937 280.15 337.625 281.661L341.94 283.428C342.503 283.659 343.037 283.954 343.532 284.306L351.025 289.648C353.048 291.09 355.54 291.72 358.013 291.416L363.33 290.761C365.886 290.446 368.229 289.156 369.87 287.16L381.489 273.022C382.185 272.174 383.015 271.446 383.945 270.867L406.316 256.919L421.92 249.518C424.878 248.115 426.973 245.358 427.533 242.133L428.67 235.579C428.93 234.08 428.846 232.544 428.425 231.087L422.487 210.549C422.334 210.021 422.225 209.481 422.161 208.934L420.603 195.593C420.519 194.874 420.513 194.148 420.586 193.427L422.065 178.718C422.254 176.84 421.909 174.95 421.071 173.266L417.842 166.782C417.336 165.765 417.247 164.589 417.595 163.503C418.648 160.214 422.905 159.363 425.104 162.002L425.639 162.645C426.343 163.49 427.429 163.919 428.524 163.784C430.57 163.532 431.883 161.466 431.241 159.51L425.137 140.906C424.19 138.018 425.534 134.863 428.278 133.533L429.836 132.779C433.846 130.835 438.271 134.447 437.172 138.767C436.142 142.815 440.005 146.363 443.945 144.989L445.11 144.583C447.003 143.923 448.439 142.351 448.926 140.405L450.418 134.452C450.733 133.193 451.555 132.118 452.688 131.484C453.099 131.253 453.517 131.091 453.933 130.991V150.017L453.822 150.282C453.392 151.304 452.788 152.244 452.037 153.06L444.854 160.866C444.229 161.544 443.701 162.305 443.283 163.127L437.784 173.943L430.673 192.087C430.357 192.893 430.244 193.764 430.345 194.621C430.908 199.442 437.146 200.942 439.882 196.915L451.727 179.478C452.077 178.962 452.379 178.416 452.628 177.845L453.933 174.855V189.69C453.717 190.196 453.46 190.685 453.165 191.15L440.36 211.286C439.119 213.238 438.587 215.556 438.854 217.847L440.224 229.576C441.009 236.294 447.984 240.102 453.933 237.599V268.976L449.083 270.683L423.361 278.309C422.215 278.649 421.138 279.191 420.18 279.91L404.573 291.628L400.36 294.206C399.923 294.473 399.507 294.773 399.116 295.104L387.363 305.03C386.797 305.507 386.182 305.92 385.526 306.263L371.005 313.847C370.417 314.154 369.861 314.519 369.344 314.935L361.741 321.067C359.374 322.976 358.149 325.966 358.501 328.979C358.94 332.739 361.736 335.78 365.44 336.527L374.146 338.283C378.36 339.133 381.54 342.594 382.04 346.872L382.504 350.847L383.619 360.388C383.994 363.599 385.896 366.42 388.725 367.962L395.654 371.739C397.477 372.732 399.566 373.13 401.632 372.875L404.086 372.573C407.036 372.209 409.987 373.179 412.138 375.217L413.915 376.902C418.79 381.523 426.769 380.063 429.76 374.004L431.091 371.306C431.766 369.939 433.084 369.001 434.594 368.815C437.786 368.422 440.325 371.413 439.428 374.508L435.583 387.782C435.013 389.751 433.855 391.501 432.264 392.796L420.944 402.018L407.145 412.098C404.722 413.868 403.211 416.627 403.028 419.617L401.92 437.666L403.318 480.915L408.743 511.959L414.588 546.132L418.999 583.898C419.116 584.903 419.385 585.884 419.797 586.806L438.804 629.387L453.933 664.553ZM453.933 -54.5962L449.641 -63.7036C448.966 -65.1345 447.961 -66.3823 446.708 -67.3442L421.233 -86.8925L397.275 -109.071C395.538 -110.68 394.433 -112.858 394.157 -115.217L390.116 -149.82C390.037 -150.496 389.815 -151.146 389.465 -151.728L387.852 -154.41C385.26 -158.719 378.627 -155.868 379.921 -151.002C380.155 -150.122 380.107 -149.189 379.783 -148.334L377.555 -142.452C377.052 -141.124 375.854 -140.182 374.448 -140.009C370.759 -139.555 369.821 -134.615 373.094 -132.877L376.079 -131.291C377.243 -130.673 378.102 -129.606 378.46 -128.335L385.408 -103.649C385.686 -102.661 386.115 -101.722 386.679 -100.867L396.008 -86.7265C397.174 -84.9592 398.873 -83.6127 400.86 -82.8819L414.704 -77.7906C415.547 -77.4807 416.343 -77.0581 417.072 -76.5341L432.417 -65.4957C433.673 -64.5917 434.701 -63.4057 435.417 -62.0317L446.279 -41.2088L453.933 -29.5366V-54.5962ZM453.933 42.0211L450.774 35.4129C449.577 32.9087 445.791 34.0258 446.113 36.788C446.153 37.1318 446.121 37.4806 446.017 37.8117L442.17 50.1139C441.749 51.4595 441.616 52.8772 441.779 54.2743L443.356 67.7752C443.507 69.0752 443.913 70.3311 444.549 71.4718L451.652 84.2138L453.933 88.1396V65.1873C453.561 63.9537 453.431 62.6553 453.552 61.3638L453.933 57.3078V42.0211ZM180.459 -1.30585L173.521 -11.4797L159.766 6.47797C159.049 7.4138 158.502 8.46785 158.149 9.59174L152.142 28.7374C151.719 30.0856 151.585 31.5064 151.749 32.9066L153.613 48.8708C153.926 51.5506 153.144 54.25 151.444 56.3559L145.683 63.4923C144.591 64.8461 144.088 66.5813 144.289 68.3039C144.856 73.1584 150.415 75.5967 154.394 72.7362L160.524 68.3292L176.657 53.3022C179.003 51.1168 180.172 47.9462 179.801 44.771L179.086 38.6534C179 37.917 179.182 37.1725 179.597 36.5558L181.833 33.2384C183.39 30.9283 186.963 32.5708 186.21 35.25C185.964 36.1222 186.218 37.0559 186.87 37.6781L189.384 40.0768C191.599 42.1903 194.81 42.8899 197.719 41.8926L210.855 37.3893C211.562 37.1465 212.324 37.1115 213.048 37.2883C216.567 38.1471 217.097 42.9313 213.856 44.582L182.699 60.4514C182.03 60.7921 181.401 61.2067 180.824 61.6875L160.668 78.4747C158.573 80.2191 157.273 82.7377 157.066 85.451L155.225 109.575C155.141 110.667 155.237 111.764 155.509 112.822L164.591 148.24C165.322 151.09 167.272 153.464 169.921 154.731L201.355 169.758L219.13 178.677C221.176 179.703 222.802 181.405 223.736 183.497L234.955 208.616C235.406 209.626 236.022 210.552 236.778 211.358L260.137 236.266L277.06 254.32C281.744 259.317 289.977 258.174 293.193 252.081L299.737 239.684C300.171 238.862 300.489 237.984 300.682 237.075L306.292 210.678C306.595 209.256 307.202 207.914 308.072 206.747L325.797 182.978L337.117 164.715C338.315 162.782 338.824 160.504 338.561 158.252L337.531 149.432C337.306 147.509 337.644 145.56 338.503 143.819L350.695 119.116C351.063 118.369 351.524 117.67 352.065 117.035L364.287 102.698C365.75 100.982 366.596 98.8259 366.688 96.5776L367.364 80.1393C367.511 76.5554 365.732 73.1784 362.702 71.2868L361.174 70.3333C359.651 69.3828 358.416 68.0366 357.597 66.4369L348.133 47.9352C347.28 46.2672 345.974 44.8763 344.364 43.9216L309.022 22.9643C307.67 22.1627 306.529 21.0512 305.691 19.7205L295.376 3.34079C293.326 0.0854335 289.582 -1.68776 285.755 -1.21634L264.017 1.46098L228.472 5.83905C227.787 5.92335 227.113 6.07828 226.46 6.30136L207.536 12.7614C204.619 13.7574 201.414 13.3546 198.848 11.6692L183.206 1.39384C182.122 0.682357 181.19 -0.23465 180.459 -1.30585Z" fill="#52088B"/>
</g>
<defs>
<filter id="filter0_f_380_344" x="-92.1265" y="286.353" width="546.648" height="272.071" filterUnits="userSpaceOnUse" color-interpolation-filters="sRGB">
<feFlood flood-opacity="0" result="BackgroundImageFix"/>
<feBlend mode="normal" in="SourceGraphic" in2="BackgroundImageFix" result="shape"/>
<feGaussianBlur stdDeviation="25" result="effect1_foregroundBlur_380_344"/>
</filter>
<filter id="filter1_f_380_344" x="-255" y="-233" width="756.668" height="714.802" filterUnits="userSpaceOnUse" color-interpolation-filters="sRGB">
<feFlood flood-opacity="0" result="BackgroundImageFix"/>
<feBlend mode="normal" in="SourceGraphic" in2="BackgroundImageFix" result="shape"/>
<feGaussianBlur stdDeviation="25" result="effect1_foregroundBlur_380_344"/>
</filter>
<filter id="filter2_f_380_344" x="-228.359" y="-217.175" width="733.065" height="631.769" filterUnits="userSpaceOnUse" color-interpolation-filters="sRGB">
<feFlood flood-opacity="0" result="BackgroundImageFix"/>
<feBlend mode="normal" in="SourceGraphic" in2="BackgroundImageFix" result="shape"/>
<feGaussianBlur stdDeviation="25" result="effect1_foregroundBlur_380_344"/>
</filter>
<filter id="filter3_f_380_344" x="-250.806" y="6.54102" width="506.221" height="384.961" filterUnits="userSpaceOnUse" color-interpolation-filters="sRGB">
<feFlood flood-opacity="0" result="BackgroundImageFix"/>
<feBlend mode="normal" in="SourceGraphic" in2="BackgroundImageFix" result="shape"/>
<feGaussianBlur stdDeviation="25" result="effect1_foregroundBlur_380_344"/>
</filter>
<filter id="filter4_f_380_344" x="33.6953" y="-192.95" width="442.03" height="409.798" filterUnits="userSpaceOnUse" color-interpolation-filters="sRGB">
<feFlood flood-opacity="0" result="BackgroundImageFix"/>
<feBlend mode="normal" in="SourceGraphic" in2="BackgroundImageFix" result="shape"/>
<feGaussianBlur stdDeviation="25" result="effect1_foregroundBlur_380_344"/>
</filter>
<clipPath id="clip0_380_344">
<rect width="360" height="698" fill="white"/>
</clipPath>
</defs>
</svg>
