<svg width="687" height="1050" viewBox="0 0 687 1050" fill="none" xmlns="http://www.w3.org/2000/svg">
<g clip-path="url(#clip0_380_559)">
<g filter="url(#filter0_f_380_559)">
<path d="M321.331 716.114L245.417 659.271L253.644 629.354L321.331 602.429L389.019 636.459L444.74 683.579L517.289 654.41L592.829 668.246L645.184 629.354L705.019 690.684L623.494 774.078L577.123 732.194L529.629 723.967L462.69 744.909C447.856 751.765 401.135 727.183 395.75 728.081C390.365 728.978 343.894 720.477 321.331 716.114Z" fill="#BA6EFF" fill-opacity="0.2"/>
<path d="M321.331 716.114L245.417 659.271L253.644 629.354L321.331 602.429L389.019 636.459L444.74 683.579L517.289 654.41L592.829 668.246L645.184 629.354L705.019 690.684L623.494 774.078L577.123 732.194L529.629 723.967L462.69 744.909C447.856 751.765 401.135 727.183 395.75 728.081C390.365 728.978 343.894 720.477 321.331 716.114Z" stroke="black"/>
</g>
<path d="M432.911 619.243L425.902 622.778L420.432 629.512V637.088L428.125 632.711L432.911 627.324V619.243Z" fill="#E384FF" fill-opacity="0.7"/>
<path d="M441.117 597.694L435.305 593.317V601.566L438.553 606.617L444.365 610.657V603.755L441.117 597.694Z" fill="#E384FF" fill-opacity="0.7"/>
<path d="M432.911 741.968H435.305V708.299V698.45V654.933V646.347V601.566V593.317V555.944V548.369V505.945V498.538V453.589V448.539V407.967H432.911V422.613V428.674V471.265V476.989V521.433V527.325V568.402V575.978V619.243V627.324V674.966V683.047V721.598V729.342V741.968Z" fill="#E384FF" fill-opacity="0.7"/>
<path d="M441.117 551.736L435.305 548.369V555.944L438.553 560.321L444.365 563.183V557.123L441.117 551.736Z" fill="#E384FF" fill-opacity="0.7"/>
<path d="M432.911 568.402L426.757 571.095L423.167 576.651V583.217L427.783 581.028L432.911 575.978V568.402Z" fill="#E384FF" fill-opacity="0.7"/>
<path d="M432.911 521.433L427.099 524.632L423.68 530.187V535.743L429.321 532.039L432.911 527.325V521.433Z" fill="#E384FF" fill-opacity="0.7"/>
<path d="M440.775 501.063L435.305 498.538V505.945L439.579 510.154L444.194 512.342V505.945L440.775 501.063Z" fill="#E384FF" fill-opacity="0.7"/>
<path d="M432.911 471.265L427.099 474.127L423.68 478.673V484.397L428.467 481.703L432.911 476.989V471.265Z" fill="#E384FF" fill-opacity="0.7"/>
<path d="M440.775 450.054L435.305 448.539V453.589L439.579 457.629L444.194 459.649V454.599L440.775 450.054Z" fill="#E384FF" fill-opacity="0.7"/>
<path d="M432.911 422.613L427.441 425.307L423.338 430.862V436.754L428.637 433.892L432.911 428.674V422.613Z" fill="#E384FF" fill-opacity="0.7"/>
<path d="M441.117 650.892L435.305 646.347V654.933L440.091 660.825L444.365 664.528V656.448L441.117 650.892Z" fill="#E384FF" fill-opacity="0.7"/>
<path d="M432.911 674.966L426.415 677.996L422.483 683.047V691.127L428.125 688.77L432.911 683.047V674.966Z" fill="#E384FF" fill-opacity="0.7"/>
<path d="M441.972 703.753L435.305 698.45V708.299L438.895 713.686L443.169 715.874L444.365 711.329L441.972 703.753Z" fill="#E384FF" fill-opacity="0.7"/>
<path d="M432.911 721.598L426.415 723.787L422.483 729.342L420.774 736.244L428.125 734.729L432.911 729.342V721.598Z" fill="#E384FF" fill-opacity="0.7"/>
<path d="M435.305 741.968H432.911L430.86 746.85L432.911 752.237L436.843 754.258L439.921 750.554V746.85L435.305 741.968Z" fill="#E384FF" fill-opacity="0.7"/>
<path d="M500.192 692.553L493.621 695.95L488.493 702.423V709.704L495.705 705.497L500.192 700.319V692.553Z" fill="#E384FF" fill-opacity="0.5"/>
<path d="M507.885 671.842L502.436 667.635V675.563L505.481 680.417L510.931 684.301V677.667L507.885 671.842Z" fill="#E384FF" fill-opacity="0.5"/>
<path d="M500.192 798.371L502.436 778.146V768.681V726.855V718.603V675.563V667.635V631.715V624.434V583.659V576.54V533.339V528.485V489.49H500.192V503.567V509.392V550.328V555.829V598.545V604.208V643.688V650.969V692.553V700.319V746.109V753.876V790.929V798.371Z" fill="#E384FF" fill-opacity="0.5"/>
<path d="M507.885 627.67L502.436 624.434V631.715L505.481 635.922L510.931 638.672V632.847L507.885 627.67Z" fill="#E384FF" fill-opacity="0.5"/>
<path d="M500.192 643.688L494.423 646.277L491.057 651.616V657.927L495.384 655.823L500.192 650.969V643.688Z" fill="#E384FF" fill-opacity="0.5"/>
<path d="M500.192 598.545L494.743 601.619L491.538 606.959V612.298L496.827 608.739L500.192 604.208V598.545Z" fill="#E384FF" fill-opacity="0.5"/>
<path d="M507.565 578.967L502.436 576.54V583.659L506.443 587.704L510.77 589.808V583.659L507.565 578.967Z" fill="#E384FF" fill-opacity="0.5"/>
<path d="M500.192 550.328L494.743 553.079L491.538 557.447V562.949L496.025 560.36L500.192 555.829V550.328Z" fill="#E384FF" fill-opacity="0.5"/>
<path d="M507.565 529.941L502.436 528.485V533.339L506.443 537.222L510.77 539.164V534.31L507.565 529.941Z" fill="#E384FF" fill-opacity="0.5"/>
<path d="M500.192 503.567L495.064 506.156L491.217 511.495V517.158L496.186 514.408L500.192 509.392V503.567Z" fill="#E384FF" fill-opacity="0.5"/>
<path d="M507.885 722.971L502.436 718.603V726.855L506.924 732.518L510.931 736.077V728.311L507.885 722.971Z" fill="#E384FF" fill-opacity="0.5"/>
<path d="M500.192 746.109L494.102 749.022L490.416 753.876V761.642L495.705 759.377L500.192 753.876V746.109Z" fill="#E384FF" fill-opacity="0.5"/>
<path d="M508.687 773.777L502.436 768.681V778.146L505.802 783.324L509.809 785.427L510.931 781.059L508.687 773.777Z" fill="#E384FF" fill-opacity="0.5"/>
<path d="M500.192 790.929L494.102 793.032L490.416 798.371L488.813 805.005L495.705 803.549L500.192 798.371V790.929Z" fill="#E384FF" fill-opacity="0.5"/>
<path d="M379.381 608.433L367.991 612.325L359.102 619.74V628.081L371.603 623.261L379.381 617.33V608.433Z" fill="#E384FF" fill-opacity="0.5"/>
<path d="M392.716 584.706L383.27 579.887V588.97L388.549 594.531L397.994 598.979V591.379L392.716 584.706Z" fill="#E384FF" fill-opacity="0.5"/>
<path d="M379.381 753.755H383.27V706.488V695.644V647.729V638.276V588.97V579.887V538.737V530.396V483.685V475.529V426.038V420.477V375.806H379.381V391.932V398.605V445.501V451.803V500.738V507.226V552.454V560.795V608.433V617.33V669.787V678.684V721.131V729.658V753.755Z" fill="#E384FF" fill-opacity="0.5"/>
<path d="M392.716 534.103L383.27 530.396V538.737L388.549 543.557L397.994 546.708V540.035L392.716 534.103Z" fill="#E384FF" fill-opacity="0.5"/>
<path d="M379.381 552.454L369.38 555.42L363.546 561.536V568.765L371.047 566.356L379.381 560.795V552.454Z" fill="#E384FF" fill-opacity="0.5"/>
<path d="M379.381 500.738L369.936 504.26L364.38 510.377V516.494L373.547 512.416L379.381 507.226V500.738Z" fill="#E384FF" fill-opacity="0.5"/>
<path d="M392.16 478.31L383.27 475.529V483.685L390.215 488.319L397.716 490.729V483.685L392.16 478.31Z" fill="#E384FF" fill-opacity="0.5"/>
<path d="M379.381 445.501L369.936 448.652L364.38 453.657V459.959L372.158 456.993L379.381 451.803V445.501Z" fill="#E384FF" fill-opacity="0.5"/>
<path d="M392.16 422.146L383.27 420.477V426.038L390.215 430.487L397.716 432.711V427.15L392.16 422.146Z" fill="#E384FF" fill-opacity="0.5"/>
<path d="M379.381 391.932L370.491 394.898L363.824 401.015V407.502L372.436 404.351L379.381 398.605V391.932Z" fill="#E384FF" fill-opacity="0.5"/>
<path d="M392.716 643.28L383.27 638.276V647.729L391.049 654.216L397.994 658.294V649.397L392.716 643.28Z" fill="#E384FF" fill-opacity="0.5"/>
<path d="M379.381 669.787L368.825 673.123L362.435 678.684V687.581L371.603 684.986L379.381 678.684V669.787Z" fill="#E384FF" fill-opacity="0.5"/>
<path d="M394.105 701.483L383.27 695.644V706.488L389.104 712.42L396.049 714.829L397.994 709.824L394.105 701.483Z" fill="#E384FF" fill-opacity="0.5"/>
<path d="M379.381 721.131L368.825 723.541L362.435 729.658L359.657 737.258L371.603 735.59L379.381 729.658V721.131Z" fill="#E384FF" fill-opacity="0.5"/>
<path d="M383.27 753.755H379.381L376.047 759.13V767.286L383.27 776.695L387.848 768.658V759.13L383.27 753.755Z" fill="#E384FF" fill-opacity="0.5"/>
<path d="M406.114 564.144L397.353 567.158L390.515 572.899V579.357L400.131 575.626L406.114 571.033V564.144Z" fill="#E384FF" fill-opacity="0.5"/>
<path d="M416.372 545.774L409.106 542.043V549.075L413.166 553.381L420.432 556.825V550.941L416.372 545.774Z" fill="#E384FF" fill-opacity="0.5"/>
<path d="M406.114 676.661H409.106V640.064V631.669V594.57V587.251V549.075V542.043V510.183V503.724V467.558V461.244V422.925V418.62V384.032H406.114V396.518V401.685V437.994V442.874V480.762V485.785V520.803V527.261V564.144V571.033V611.648V618.537V651.402V658.004V676.661Z" fill="#E384FF" fill-opacity="0.5"/>
<path d="M416.372 506.595L409.106 503.724V510.183L413.166 513.914L420.432 516.354V511.187L416.372 506.595Z" fill="#E384FF" fill-opacity="0.5"/>
<path d="M406.114 520.803L398.421 523.099L393.934 527.835V533.432L399.703 531.566L406.114 527.261V520.803Z" fill="#E384FF" fill-opacity="0.5"/>
<path d="M406.114 480.762L398.849 483.489L394.575 488.225V492.961L401.627 489.803L406.114 485.785V480.762Z" fill="#E384FF" fill-opacity="0.5"/>
<path d="M415.944 463.396L409.106 461.244V467.558L414.448 471.146L420.218 473.012V467.558L415.944 463.396Z" fill="#E384FF" fill-opacity="0.5"/>
<path d="M406.114 437.994L398.849 440.434L394.575 444.309V449.188L400.558 446.892L406.114 442.874V437.994Z" fill="#E384FF" fill-opacity="0.5"/>
<path d="M415.944 419.911L409.106 418.62V422.925L414.448 426.369L420.218 428.092V423.786L415.944 419.911Z" fill="#E384FF" fill-opacity="0.5"/>
<path d="M406.114 396.518L399.276 398.814L394.147 403.55V408.573L400.772 406.134L406.114 401.685V396.518Z" fill="#E384FF" fill-opacity="0.5"/>
<path d="M416.372 591.125L409.106 587.251V594.57L415.089 599.593L420.432 602.75V595.861L416.372 591.125Z" fill="#E384FF" fill-opacity="0.5"/>
<path d="M406.114 611.648L397.994 614.231L393.079 618.537V625.426L400.131 623.416L406.114 618.537V611.648Z" fill="#E384FF" fill-opacity="0.5"/>
<path d="M417.44 636.189L409.106 631.669V640.064L413.594 644.657L418.936 646.522L420.432 642.648L417.44 636.189Z" fill="#E384FF" fill-opacity="0.5"/>
<path d="M406.114 651.402L397.994 653.268L393.079 658.004L390.942 663.888L400.131 662.596L406.114 658.004V651.402Z" fill="#E384FF" fill-opacity="0.5"/>
<path d="M409.106 676.661H406.114L403.55 680.823V687.138L409.106 694.422L412.627 688.2V680.823L409.106 676.661Z" fill="#E384FF" fill-opacity="0.5"/>
<g filter="url(#filter1_f_380_559)">
<path d="M357.98 254.641L292.91 211.635L228.962 236.317L182.217 267.73L154.917 311.858L110.042 350.75L76.7588 417.316L85.7339 474.158L95.083 523.147L110.042 568.023L118.269 612.525L144.446 652.913L182.217 666.75L210.264 697.789L255.514 685.822L249.904 644.686L265.985 598.314L267.854 563.536L249.904 538.106L255.514 496.97H298.893L357.98 542.968L413.7 548.203L441.748 587.095L485.876 563.536L508.687 587.095L523.646 606.541L546.084 634.963L584.602 644.686L642.94 652.913H676.971L689.312 634.963H720.351H754.382V136.843L701.279 80L628.73 104.308L602.552 161.524L553.937 176.857L523.646 114.031L469.047 92.3408L388.645 136.843L357.98 193.311V254.641Z" fill="#7548C2" fill-opacity="0.25"/>
<path d="M357.98 254.641L292.91 211.635L228.962 236.317L182.217 267.73L154.917 311.858L110.042 350.75L76.7588 417.316L85.7339 474.158L95.083 523.147L110.042 568.023L118.269 612.525L144.446 652.913L182.217 666.75L210.264 697.789L255.514 685.822L249.904 644.686L265.985 598.314L267.854 563.536L249.904 538.106L255.514 496.97H298.893L357.98 542.968L413.7 548.203L441.748 587.095L485.876 563.536L508.687 587.095L523.646 606.541L546.084 634.963L584.602 644.686L642.94 652.913H676.971L689.312 634.963H720.351H754.382V136.843L701.279 80L628.73 104.308L602.552 161.524L553.937 176.857L523.646 114.031L469.047 92.3408L388.645 136.843L357.98 193.311V254.641Z" stroke="black"/>
</g>
<g filter="url(#filter2_f_380_559)">
<path d="M693.426 547.081L757 560.544V209.391L719.604 108.795L662.013 96.4541L621.625 138.712V209.391L559.921 218.366L529.256 145.817L489.616 108.795L427.912 123.38L403.604 185.084L375.183 222.48L414.449 304.752L396.499 318.215L343.022 256.885L299.642 246.788L239.808 231.829L203.533 276.331L164.267 304.752L130.236 347.01L104.807 418.437C111.912 432.897 126.946 462.939 130.236 467.426C133.527 471.914 139.835 505.197 142.577 521.277L164.267 582.233C191.317 593.577 246.764 616.489 252.149 617.386C257.534 618.284 291.415 625.987 313.105 629.727L370.695 597.192L414.449 560.544L443.992 597.192L489.616 582.233L529.256 547.081L583.855 521.277L647.429 533.618L693.426 547.081Z" fill="#9C63FF" fill-opacity="0.15"/>
<path d="M693.426 547.081L757 560.544V209.391L719.604 108.795L662.013 96.4541L621.625 138.712V209.391L559.921 218.366L529.256 145.817L489.616 108.795L427.912 123.38L403.604 185.084L375.183 222.48L414.449 304.752L396.499 318.215L343.022 256.885L299.642 246.788L239.808 231.829L203.533 276.331L164.267 304.752L130.236 347.01L104.807 418.437C111.912 432.897 126.946 462.939 130.236 467.426C133.527 471.914 139.835 505.197 142.577 521.277L164.267 582.233C191.317 593.577 246.764 616.489 252.149 617.386C257.534 618.284 291.415 625.987 313.105 629.727L370.695 597.192L414.449 560.544L443.992 597.192L489.616 582.233L529.256 547.081L583.855 521.277L647.429 533.618L693.426 547.081Z" stroke="black"/>
</g>
<g filter="url(#filter3_f_380_559)">
<path d="M215.5 321.207L318.34 333.174H375.182C390.141 341.775 421.928 360.099 429.407 364.587C436.887 369.074 460.446 388.147 471.291 397.122L499.712 456.582C491.61 478.147 474.582 522.4 471.291 526.887C467.178 532.497 407.717 551.195 400.986 551.195C395.601 551.195 343.645 568.397 318.34 576.998L231.954 606.542C205.777 604.797 152.3 600.483 147.812 597.193C143.325 593.902 121.759 565.156 111.538 551.195L93.9614 494.352L81.6206 390.016L120.887 333.174L168.38 321.207H215.5Z" fill="#AF69FF" fill-opacity="0.15"/>
<path d="M215.5 321.207L318.34 333.174H375.182C390.141 341.775 421.928 360.099 429.407 364.587C436.887 369.074 460.446 388.147 471.291 397.122L499.712 456.582C491.61 478.147 474.582 522.4 471.291 526.887C467.178 532.497 407.717 551.195 400.986 551.195C395.601 551.195 343.645 568.397 318.34 576.998L231.954 606.542C205.777 604.797 152.3 600.483 147.812 597.193C143.325 593.902 121.759 565.156 111.538 551.195L93.9614 494.352L81.6206 390.016L120.887 333.174L168.38 321.207H215.5Z" stroke="black"/>
</g>
<g filter="url(#filter4_f_380_559)">
<path d="M590.586 138.338H675.85L709.507 180.222L727.083 264.364C721.723 286.926 710.703 333.697 709.507 340.279C708.31 346.86 691.806 377.176 683.703 391.512C641.819 405.972 555.882 434.069 547.206 430.778C536.361 426.664 441.748 397.121 429.407 391.512C419.535 387.024 389.144 340.029 375.183 317.093V212.757L429.407 138.338L481.014 120.762C513.923 126.62 581.91 138.338 590.586 138.338Z" fill="#AF69FF" fill-opacity="0.15"/>
<path d="M590.586 138.338H675.85L709.507 180.222L727.083 264.364C721.723 286.926 710.703 333.697 709.507 340.279C708.31 346.86 691.806 377.176 683.703 391.512C641.819 405.972 555.882 434.069 547.206 430.778C536.361 426.664 441.748 397.121 429.407 391.512C419.535 387.024 389.144 340.029 375.183 317.093V212.757L429.407 138.338L481.014 120.762C513.923 126.62 581.91 138.338 590.586 138.338Z" stroke="black"/>
</g>
<path d="M302.634 634.026L331.805 655.387L302.561 665.636L280.063 657.498L263.366 644.882L281.213 633.153L302.634 634.026Z" fill="#AF69FF" fill-opacity="0.5"/>
<path d="M299.132 661.515L329.184 650.296L322.533 676.972L305.537 689.687L288.048 695.92V676.972L299.132 661.515Z" fill="#AF69FF" fill-opacity="0.5"/>
<path d="M350.128 633.694L334.641 661.785L322.305 637.215L326.914 616.496L336.12 600.373L348.465 614.746L350.128 633.694Z" fill="#AF69FF" fill-opacity="0.5"/>
<path d="M382.595 705.076L407.036 707.255L393.64 723.467L377.714 726.63L363.588 725.157L369.844 712.082L382.595 705.076Z" fill="#AF69FF" fill-opacity="0.5"/>
<path d="M416.67 674.891L407.137 705.519L390.121 683.926L390.477 662.703L396.259 645.06L411.238 656.663L416.67 674.891Z" fill="#AF69FF" fill-opacity="0.5"/>
<path d="M405.294 667.857L432.136 650.295L431.524 677.78L417.745 693.926L402.059 703.858L397.886 685.376L405.294 667.857Z" fill="#AF69FF" fill-opacity="0.5"/>
<path d="M487.676 690.312L483.385 658.522L507.928 670.912L516.567 690.3L518.775 708.735L500.297 704.542L487.676 690.312Z" fill="#AF69FF" fill-opacity="0.5"/>
<path d="M452.458 541.844L482.509 530.625L475.858 557.301L458.862 570.016L441.373 576.249V557.301L452.458 541.844Z" fill="#AF69FF" fill-opacity="0.5"/>
<path d="M471.821 519.622L500.083 504.449L497.094 531.779L481.969 546.672L465.482 555.208L462.924 536.434L471.821 519.622Z" fill="#AF69FF" fill-opacity="0.5"/>
<path d="M469.492 506.226L501.565 506.757L485.632 529.162L465.166 534.791L446.609 534.207L453.528 516.568L469.492 506.226Z" fill="#AF69FF" fill-opacity="0.5"/>
<path d="M312.204 550.764L339.622 567.414L314.558 578.71L294.049 573.238L278.326 563.365L293.203 551.632L312.204 550.764Z" fill="#AF69FF" fill-opacity="0.5"/>
<path d="M248.224 442.25L263.081 459.105L243.965 461.426L231.396 453.487L222.943 443.605L235.339 438.865L248.224 442.25Z" fill="#AF69FF" fill-opacity="0.5"/>
<path d="M242.788 449.926L268.681 459.481L249.369 473.142L231.149 471.891L216.247 466.138L226.883 453.783L242.788 449.926Z" fill="#AF69FF" fill-opacity="0.5"/>
<path d="M255.641 433.576L263.366 454.339L244.999 449.744L236.244 438.001L231.953 425.918L244.999 425.918L255.641 433.576Z" fill="#AF69FF" fill-opacity="0.5"/>
<path d="M369.34 443.613L385.5 457.292L367.996 462.075L355.189 456.394L345.956 448.338L356.864 442.221L369.34 443.613Z" fill="#AF69FF" fill-opacity="0.5"/>
<path d="M380.868 438.864L388.533 459.396L370.308 454.852L361.621 443.24L357.362 431.291L370.308 431.291L380.868 438.864Z" fill="#AF69FF" fill-opacity="0.5"/>
<path d="M394.882 435.568L393.728 458.618L378.001 446.621L374.446 431.769L375.314 418.439L387.831 423.84L394.882 435.568Z" fill="#AF69FF" fill-opacity="0.5"/>
<path d="M186.533 515.86L208.505 519.872L195.012 533.451L180.313 534.991L167.632 532.479L174.391 521.149L186.533 515.86Z" fill="#AF69FF" fill-opacity="0.5"/>
<path d="M177.369 360.606L186.66 329.904L203.847 351.362L203.658 372.587L198.015 390.275L182.945 378.791L177.369 360.606Z" fill="#AF69FF" fill-opacity="0.5"/>
<path d="M170.637 363.547L165.048 337.661L186.05 346.27L194.414 361.669L197.424 376.698L181.945 374.443L170.637 363.547Z" fill="#AF69FF" fill-opacity="0.5"/>
<path d="M149.697 448.844L127.243 446.386L139.872 431.713L154.587 429.097L167.56 430.713L161.562 442.631L149.697 448.844Z" fill="#AF69FF" fill-opacity="0.5"/>
<path d="M157.684 437.012L177.354 429.655L173 447.148L161.876 455.485L150.428 459.572V447.148L157.684 437.012Z" fill="#AF69FF" fill-opacity="0.5"/>
<path d="M120.346 495.338L142.202 487.246L137.365 506.488L125.004 515.659L112.285 520.155V506.488L120.346 495.338Z" fill="#AF69FF" fill-opacity="0.5"/>
<path d="M129.21 516.357L139.863 491.735L152.09 511.2L149.905 528.815L143.527 542.973L132.105 531.996L129.21 516.357Z" fill="#AF69FF" fill-opacity="0.5"/>
<path d="M185.618 525.44L208.02 517.164L203.062 536.843L190.392 546.223L177.354 550.821V536.843L185.618 525.44Z" fill="#AF69FF" fill-opacity="0.5"/>
<path d="M512.292 470.792L542.344 459.573L535.693 486.249L518.696 498.964L501.208 505.197V486.249L512.292 470.792Z" fill="#AF69FF" fill-opacity="0.5"/>
<path d="M416.499 479.084L445.837 492.055L422.44 506.493L401.397 503.714L384.531 495.953L397.769 482.398L416.499 479.084Z" fill="#AF69FF" fill-opacity="0.5"/>
<path d="M583.785 549.857L584.839 581.917L561.675 567.11L555.041 546.948L554.708 528.384L572.667 534.424L583.785 549.857Z" fill="#AF69FF" fill-opacity="0.5"/>
<path d="M572.325 549.347L585.625 520.157L599.799 543.714L596.783 564.725L588.833 581.503L575.428 568.113L572.325 549.347Z" fill="#AF69FF" fill-opacity="0.5"/>
<path d="M645.841 587.087L671.639 568.023L672.594 595.499L659.758 612.404L644.663 623.214L639.443 604.999L645.841 587.087Z" fill="#AF69FF" fill-opacity="0.5"/>
<path d="M632.813 586.25L654.688 562.788L660.654 589.625L651.128 608.594L638.265 621.982L629.801 605.031L632.813 586.25Z" fill="#AF69FF" fill-opacity="0.5"/>
<path d="M602.044 314.476L632.095 303.257L625.444 329.933L608.448 342.648L590.959 348.88V329.933L602.044 314.476Z" fill="#AF69FF" fill-opacity="0.5"/>
<path d="M596.088 309.278L627.981 312.712L610.084 333.581L589.192 337.334L570.764 335.071L579.253 318.131L596.088 309.278Z" fill="#AF69FF" fill-opacity="0.5"/>
<path d="M475.644 247.162L505.695 235.943L499.045 262.619L482.048 275.334L464.559 281.567V262.619L475.644 247.162Z" fill="#AF69FF" fill-opacity="0.5"/>
<path d="M461.571 239.357L483.287 215.748L489.434 242.544L480.036 261.576L467.264 275.052L458.686 258.157L461.571 239.357Z" fill="#AF69FF" fill-opacity="0.5"/>
<path d="M613.527 596.851L617.58 565.031L638.097 583.331L641.443 604.292L638.822 622.672L622.051 613.855L613.527 596.851Z" fill="#AF69FF" fill-opacity="0.5"/>
<path d="M298.203 567.384L334.502 568.789L315.901 593.756L292.589 599.616L271.593 598.489L279.87 578.692L298.203 567.384Z" fill="#AF69FF" fill-opacity="0.5"/>
<path d="M145.69 577.588L171.371 568.024L165.687 590.765L151.163 601.604L136.218 606.917V590.765L145.69 577.588Z" fill="#AF69FF" fill-opacity="0.5"/>
<path d="M143.948 597.252L164.364 572.51L171.942 598.938L163.58 618.447L151.551 632.589L142.077 616.18L143.948 597.252Z" fill="#AF69FF" fill-opacity="0.5"/>
<path d="M157.403 619.401L154.344 587.47L178.39 600.798L186.273 620.506L187.767 639.012L169.465 634.108L157.403 619.401Z" fill="#AF69FF" fill-opacity="0.5"/>
<path d="M677.942 183.069L702.579 203.611L676.113 211.055L656.646 202.593L642.566 190.491L659.023 181.102L677.942 183.069Z" fill="#AF69FF" fill-opacity="0.5"/>
<path d="M692.776 167.215L717.002 146.191L720.106 173.508L708.632 191.366L694.429 203.324L687.8 185.574L692.776 167.215Z" fill="#AF69FF" fill-opacity="0.5"/>
<path d="M672.543 156.406L686.438 127.495L700.126 151.338L696.68 172.282L688.388 188.894L675.26 175.232L672.543 156.406Z" fill="#AF69FF" fill-opacity="0.5"/>
<path d="M674.944 165.115L693.811 191.057L666.328 191.804L649.521 178.84L638.826 163.663L657.08 158.582L674.944 165.115Z" fill="#AF69FF" fill-opacity="0.5"/>
<path d="M617.884 722.37L613.245 690.63L637.923 702.749L646.773 722.042L649.183 740.452L630.66 736.461L617.884 722.37Z" fill="#AF69FF" fill-opacity="0.5"/>
<path d="M612.728 739.746L644.125 746.32L624.249 765.315L603.089 766.981L584.975 762.905L595.099 746.889L612.728 739.746Z" fill="#AF69FF" fill-opacity="0.5"/>
<path d="M618.919 733.506L643.376 754.262L616.846 761.475L597.454 752.844L583.479 740.62L600.018 731.374L618.919 733.506Z" fill="#AF69FF" fill-opacity="0.5"/>
<path fill-rule="evenodd" clip-rule="evenodd" d="M756.999 978.898V1049.69H596.081C596.126 1048.77 596.3 1047.84 596.616 1046.92L628.745 953.122C629.011 952.346 629.18 951.541 629.249 950.724L636.361 866.669V825.563L634.053 786.565C633.979 785.318 633.673 784.096 633.149 782.963L619.231 752.832C618.645 751.564 617.8 750.433 616.751 749.511L590.829 726.749C590.037 726.053 589.14 725.487 588.171 725.072L579.134 721.197C578.152 720.777 577.11 720.516 576.046 720.425L531.113 716.582L506.251 714.643C504.73 714.524 503.202 714.755 501.784 715.318L484.525 722.17L458.498 734.068C456.97 734.767 455.291 735.069 453.616 734.947L437.492 733.776C435.506 733.632 433.608 732.898 432.041 731.668L422.558 724.223L413.449 717.95C412.15 717.055 410.657 716.48 409.094 716.272L390.731 713.833C390.377 713.786 390.034 713.679 389.715 713.518C386.673 711.98 387.854 707.383 391.261 707.502L393.925 707.594C397.39 707.715 399.165 703.486 396.65 701.098L389.124 693.95C388.16 693.034 386.974 692.383 385.683 692.061L376.62 689.802C375.354 689.487 374.163 688.927 373.112 688.154L353.755 673.912C353.287 673.568 352.79 673.265 352.27 673.007L338.41 666.137C335.98 664.932 333.174 664.801 330.558 665.519C326.134 666.733 320.642 667.699 318.685 666.162C316.246 664.247 305.374 661.476 299.049 660.054C298.07 659.834 297.13 659.479 296.255 658.986L290.105 655.523C288.751 654.76 287.842 653.398 287.657 651.855C287.216 648.182 290.867 645.376 294.304 646.746L305.045 651.031C306.598 651.651 308.282 651.871 309.942 651.672L319.796 650.49L324.289 649.951C328.461 649.451 330.916 645.01 329.121 641.211L328.221 639.306C326.445 635.548 329.685 631.363 333.768 632.142C335.943 632.556 337.599 634.331 337.862 636.529L338.711 643.6C339.057 646.492 340.648 649.09 343.067 650.713L362.085 663.476C362.48 663.741 362.892 663.977 363.32 664.183L384.748 674.5C385.27 674.751 385.813 674.957 386.37 675.114L397.277 678.192C399.302 678.764 401.096 679.96 402.402 681.609L413.788 695.991L419.158 701.15C419.633 701.606 420.152 702.014 420.707 702.368L434.994 711.481C436.944 712.726 439.265 713.255 441.562 712.98L451.733 711.76C452.799 711.632 453.838 711.333 454.809 710.875L467.608 704.836C468.287 704.516 468.927 704.121 469.517 703.657L477.879 697.09C480.005 695.421 482.715 694.683 485.392 695.045L496.358 696.524C497.196 696.637 498.046 696.643 498.886 696.542L520.789 693.915C521.461 693.835 522.123 693.686 522.765 693.472L538.217 688.313C540.255 687.633 542.458 687.627 544.499 688.296L557.93 692.701C559.317 693.156 560.787 693.301 562.237 693.127L577.607 691.284C579.235 691.089 580.886 691.297 582.415 691.89L597.213 697.633C598.335 698.068 599.368 698.702 600.264 699.504L617.31 714.757C617.995 715.371 618.762 715.887 619.588 716.29L625.993 719.42C628.033 720.417 629.674 722.079 630.644 724.132L634.569 732.438C635.688 734.807 637.918 736.461 640.51 736.844C645.334 737.556 649.63 733.739 649.491 728.865L648.55 696.009C648.483 693.646 647.58 691.384 646.002 689.623L633.941 676.16L622.491 660.631C622.03 660.005 621.643 659.327 621.338 658.611L615.82 645.639C614.841 643.338 613.036 641.487 610.759 640.451L600.516 635.79C600.003 635.557 599.511 635.281 599.045 634.965L585.425 625.729C584.988 625.432 584.575 625.102 584.191 624.74L557.128 599.315L536.66 583.75C535.829 583.118 535.102 582.36 534.506 581.503L511.277 548.134C510.981 547.709 510.719 547.262 510.492 546.796L495.198 515.368C493.799 512.493 491.109 510.46 487.961 509.899L477.074 507.957C475.667 507.706 474.221 507.76 472.836 508.115L435.473 517.688L395.202 534.245C394.686 534.457 394.188 534.712 393.715 535.007L358.804 556.765L349.126 562.641C344.337 565.548 342.871 571.821 345.874 576.55L348.515 580.709L351.41 586.37C352.954 589.39 352.429 593.055 350.1 595.52C346.997 598.803 341.794 598.873 338.604 595.674L333.294 590.347C332.579 589.63 332.125 588.695 332.005 587.69C331.506 583.534 326.12 582.221 323.765 585.681L318.199 593.858C317.308 595.167 316.057 596.192 314.598 596.809L288.506 607.839C287.675 608.19 286.755 608.269 285.876 608.064C281.912 607.139 281.371 601.717 285.074 600.028L298.682 593.819C299.781 593.318 300.772 592.609 301.602 591.731L337.755 553.477C338.294 552.907 338.898 552.402 339.555 551.973L392.377 517.478L428.106 496.644C434.672 492.815 434.735 483.35 428.22 479.435L427.541 479.026C426.065 478.139 424.386 477.648 422.665 477.601L395.857 476.862C393.914 476.808 391.998 477.322 390.343 478.34L373.022 488.993C371.79 489.751 370.409 490.232 368.974 490.404L340.618 493.805C338.983 494.001 337.326 493.791 335.792 493.192L302.984 480.39L277.072 469.308C275.459 468.618 273.692 468.365 271.949 468.574L255.308 470.57C254.034 470.723 252.801 471.119 251.677 471.738L232.915 482.066C229.343 484.032 227.323 487.97 227.808 492.018L228.092 494.388C228.26 495.789 228.13 497.21 227.71 498.557L222.73 514.518L219.979 521.589C219.384 523.12 219.175 524.775 219.37 526.406L221.175 541.45C221.326 542.714 221.718 543.938 222.329 545.055L226.927 553.467C227.331 554.207 227.827 554.892 228.402 555.507L240.39 568.308C241.844 569.861 242.766 571.839 243.019 573.952L245.701 596.315C245.955 598.428 245.527 600.567 244.481 602.421L235.237 618.798L223.109 636.528C221.741 638.529 221.145 640.958 221.434 643.365L223.284 658.788C223.536 660.888 224.447 662.854 225.887 664.403L227.183 665.799C228.472 667.187 229.288 668.947 229.514 670.827L229.767 672.938C230.216 676.682 227.545 680.081 223.801 680.53C221.421 680.816 219.065 679.832 217.595 677.938L212.571 671.468C211.846 670.534 211.292 669.479 210.936 668.352L205.658 651.676C205.055 649.771 205.036 647.728 205.605 645.813L212.284 623.319C212.643 622.108 213.229 620.976 214.01 619.983L226.406 604.224C227.702 602.576 228.448 600.562 228.537 598.468L229.455 576.948C229.582 573.975 228.378 571.1 226.171 569.105L218.634 562.288C217.075 560.878 215.111 559.995 213.021 559.765L201.695 558.518C199.341 558.259 196.972 558.844 195.009 560.168L179.887 570.366C178.373 571.388 177.167 572.805 176.401 574.464L172.261 583.427C170.835 586.513 171.075 590.112 172.898 592.981L177.32 599.944C177.828 600.744 178.447 601.468 179.159 602.094L183.328 605.757C186.703 608.724 187.015 613.873 184.021 617.225C181.876 619.627 178.51 620.529 175.451 619.52L163.789 615.673C161.693 614.982 159.885 613.617 158.647 611.792L151.593 601.398C149.908 598.915 149.427 595.807 150.283 592.931L154.73 577.98C155.391 575.759 156.803 573.837 158.724 572.541L176.229 560.734L197.835 548.746C201.389 546.774 203.396 542.847 202.912 538.811L201.891 530.295C201.572 527.639 199.947 525.318 197.56 524.111C195.173 522.904 193.547 520.583 193.229 517.928L193.197 517.659C192.761 514.026 194.7 510.521 198.01 508.959L204.2 506.039C207.336 504.559 209.173 501.238 208.76 497.795C208.523 495.818 207.562 493.998 206.063 492.688L198.038 485.677C196.935 484.713 195.634 484.003 194.227 483.598L183.623 480.543C181.442 479.914 179.112 480.047 177.016 480.918L159.998 487.994C158.702 488.532 157.533 489.338 156.569 490.359L146.221 501.308C145.604 501.961 145.078 502.694 144.657 503.487L133.55 524.407C133.246 524.98 132.874 525.514 132.442 525.997L132.264 526.197C128.448 530.47 121.493 529.381 119.166 524.145C118.162 521.885 118.275 519.285 119.472 517.121L126.421 504.555L133.629 488.875C134.781 486.369 136.918 484.45 139.533 483.572L165.913 474.718L187.379 469.155L216.865 465.619L233.322 463.645C235.281 463.41 237.126 462.601 238.626 461.32L246.905 454.248C249.449 452.075 250.737 448.775 250.339 445.454L249.832 441.23C249.524 438.657 248.229 436.305 246.22 434.668L233.479 424.286C232.149 423.202 230.562 422.479 228.872 422.186L221.416 420.892C219.978 420.642 218.502 420.711 217.092 421.092L196.687 426.62C195.884 426.838 195.111 427.155 194.386 427.563L177.047 437.349C175.899 437.997 174.633 438.412 173.323 438.569L155.153 440.748C153.294 440.971 151.409 440.668 149.714 439.872L138.569 434.642C137.593 434.184 136.549 433.886 135.477 433.762L123.102 432.32C122.322 432.229 121.534 432.231 120.754 432.324L118.725 432.567C114.617 433.06 110.631 430.966 108.707 427.303L107.347 424.713C106.346 422.807 106.558 420.49 107.889 418.797C109.103 417.254 111.053 416.481 112.995 416.774L127.521 418.962L148.52 424.672C149.762 425.009 151.057 425.104 152.335 424.951L166.912 423.202C171.222 422.685 173.044 417.432 169.979 414.358L166.572 410.94C165.728 410.093 164.694 409.459 163.557 409.089L140.793 401.691C140.11 401.47 139.406 401.322 138.692 401.251L119.106 399.304C118.352 399.229 117.608 399.068 116.89 398.825L90.5192 389.899C89.7025 389.623 88.925 389.242 88.2061 388.766L78.1031 382.08C76.9551 381.32 76.1989 380.094 76.0349 378.727C75.6105 375.189 79.1319 372.489 82.4391 373.817L93.7745 378.368C94.3068 378.582 94.8582 378.744 95.4213 378.854L102.484 380.222C106.466 380.993 109.719 377.046 108.201 373.285L107.26 370.954C105.836 367.425 109.514 364 112.933 365.67C113.639 366.015 114.233 366.554 114.645 367.223L121.356 378.116C122.381 379.781 123.872 381.108 125.643 381.934L146.373 391.601L163.207 398.17C163.698 398.362 164.173 398.592 164.628 398.858L177.126 406.182C179.01 407.286 181.204 407.743 183.372 407.483L194.843 406.107C196.695 405.885 198.396 404.977 199.612 403.563C202.114 400.652 201.998 396.317 199.344 393.544L196.84 390.926C196.16 390.216 195.379 389.609 194.521 389.126L176.568 379.015L167.746 375.292L147.619 369.256C145.017 368.476 142.844 366.67 141.6 364.254L133.747 348.996C133.52 348.555 133.261 348.132 132.972 347.73L128.745 341.859C128.03 340.866 127.14 340.013 126.118 339.342L118.534 334.362C117.735 333.838 117.209 332.988 117.095 332.04C116.882 330.263 118.15 328.649 119.927 328.436L125.629 327.752C128.86 327.365 132.049 328.756 133.963 331.388L146.66 348.843C147.577 350.104 148.776 351.133 150.161 351.848L164.333 359.161C165.376 359.699 166.505 360.049 167.669 360.196L186.273 362.541C187.269 362.666 188.24 362.941 189.154 363.355L202.187 369.267C204.32 370.235 206.046 371.921 207.063 374.031L215.166 390.835C215.613 391.762 216.2 392.614 216.907 393.362L228.602 405.731C229.226 406.391 229.937 406.963 230.716 407.432L246.074 416.662C246.656 417.012 247.2 417.42 247.7 417.881L264.459 433.33C265.765 434.534 267.368 435.368 269.103 435.747L293.167 441.004C294.19 441.228 295.172 441.61 296.076 442.138L314.941 453.154C315.604 453.541 316.309 453.85 317.042 454.076L336.273 459.993C337.609 460.404 339.016 460.53 340.404 460.364L364.715 457.448C366.344 457.252 367.899 456.66 369.244 455.722L381.669 447.058C383.039 446.102 384.148 444.819 384.894 443.325L391.666 429.774C394.373 424.357 391.682 417.796 385.952 415.84L380.709 414.05C380.197 413.875 379.701 413.66 379.225 413.405L363.543 405.022C361.735 404.056 359.673 403.668 357.638 403.913L336.587 406.437L310.639 409.55L296.14 411.289C293.016 411.663 289.898 410.546 287.723 408.273L272.043 391.886C271.13 390.931 270.415 389.805 269.939 388.573L257.66 356.754C257.081 355.255 256.958 353.617 257.305 352.048L257.52 351.075C258.532 346.495 263.51 344.015 267.776 345.965C269.745 346.865 271.218 348.585 271.805 350.669L280.502 381.552C281.023 383.4 282.064 385.059 283.502 386.331L293.999 395.618C296.137 397.51 298.982 398.398 301.816 398.058L319.77 395.904L335.741 393.989C342.928 393.127 346.846 385.152 343.138 378.936L342.041 377.097L339.043 371.39C337.114 367.717 333.117 365.617 328.999 366.111L317.882 367.445C316.885 367.564 315.876 367.533 314.888 367.352L300.033 364.629C299.141 364.466 298.35 363.956 297.833 363.21C295.97 360.527 298.558 357.005 301.676 357.98L303.71 358.616C304.272 358.792 304.864 358.846 305.448 358.776L322.554 356.725C324.342 356.51 325.618 354.887 325.404 353.099C325.006 349.787 329.25 348.085 331.251 350.755L334.638 355.275L345.747 368.258C347.35 370.131 350.096 370.518 352.154 369.162C354.439 367.656 357.514 368.318 358.977 370.631L369.105 386.637C370.377 388.647 372.324 390.137 374.596 390.841L397.849 398.047C399.442 398.54 400.886 399.424 402.05 400.618L413.139 411.992C416.066 414.995 416.809 419.505 414.999 423.288L411.369 430.877C408.858 436.125 413.126 442.079 418.903 441.387L419.173 441.354C420.309 441.218 421.462 441.39 422.509 441.851C427.893 444.224 433.349 438.672 430.883 433.33L429.383 430.082C429.177 429.635 429.013 429.169 428.895 428.69L420.917 396.323L419.908 387.91C419.603 385.368 420.285 382.806 421.813 380.751L427.974 372.468C428.46 371.814 428.864 371.104 429.178 370.352L433.732 359.443C434.397 357.851 434.638 356.113 434.433 354.4L433.279 344.783C433.174 343.907 433.186 343.021 433.313 342.148L436.095 323.077C436.299 321.68 436.796 320.342 437.554 319.151L447.168 304.046C448.937 301.267 449.224 297.794 447.934 294.762L443.135 283.479C442.712 282.485 442.131 281.567 441.415 280.759L431.915 270.044C430.692 268.664 429.111 267.649 427.347 267.112L410.804 262.071C409.584 261.7 408.501 260.976 407.691 259.993C404.018 255.534 407.571 248.861 413.32 249.421L426.914 250.743C427.633 250.813 428.357 250.805 429.073 250.719L431.298 250.452C435.646 249.931 439.829 252.3 441.617 256.298L445.301 264.535C445.742 265.521 446.34 266.429 447.071 267.224L458.348 279.48L457.52 272.573C457.413 271.683 457.187 270.811 456.848 269.981L448.557 249.694C448.218 248.864 447.992 247.992 447.885 247.102L446.954 239.339C446.788 237.961 446.912 236.564 447.316 235.236L451.423 221.743L460.822 187.872C460.961 187.374 461.06 186.865 461.12 186.352L463.846 162.865C464.118 160.526 463.556 158.167 462.259 156.203L457.767 149.398C456.78 147.902 456.428 146.075 456.789 144.319C458.04 138.227 466.165 136.923 469.26 142.317L470.211 143.973C470.71 144.844 471.03 145.807 471.149 146.804L473.308 164.804C473.443 165.928 473.386 167.067 473.139 168.172L463.786 210.1L460.705 236.451C460.408 238.991 461.095 241.549 462.626 243.597L474.111 258.971C475.723 261.129 476.397 263.847 475.979 266.508L473.116 284.733C472.973 285.641 472.957 286.564 473.066 287.476L473.669 292.503C473.991 295.19 475.388 297.631 477.541 299.269L492.465 310.629C495.032 312.584 498.385 313.179 501.468 312.228L521.938 305.918L550.929 298.257L576.17 295.23C577.416 295.08 578.68 295.167 579.895 295.485L598.041 300.24C600.144 300.791 601.696 302.572 601.955 304.73C602.172 306.537 603.301 308.106 604.946 308.885L617.911 315.022C618.915 315.497 619.832 316.136 620.626 316.912L646.409 342.133C650.99 346.614 658.546 345.69 661.911 340.235L688.403 297.307L700.324 272.078C701.291 270.032 704.333 270.526 704.603 272.773C704.751 274.01 705.874 274.892 707.111 274.744L726.237 272.45C729.47 272.062 732.012 275.165 730.995 278.258C730.455 279.9 729.013 281.081 727.297 281.287L713.739 282.913C712.477 283.065 711.255 283.455 710.139 284.064L703.033 287.942C701.44 288.811 700.114 290.097 699.197 291.662L670.424 340.729C669.691 341.979 669.239 343.373 669.098 344.815L666.891 367.407C666.559 370.805 667.983 374.137 670.668 376.245L679.52 383.194C683.359 386.208 684.462 391.552 682.129 395.839L664.603 428.054L651.443 447.719C650.114 449.704 649.541 452.1 649.825 454.471L650.172 457.363C650.83 462.847 655.808 466.759 661.292 466.101L664.201 465.752C667.263 465.385 669.985 463.625 671.576 460.983L676.039 453.575L678.939 448.907C681.303 445.1 687.141 446.395 687.675 450.844C687.778 451.705 687.643 452.578 687.285 453.368L680.187 469.014C679.029 471.565 676.855 473.514 674.193 474.386L662.529 478.207C661.583 478.517 660.689 478.966 659.876 479.539L642.651 491.695C641.366 492.602 640.313 493.799 639.577 495.189L628.001 517.07C627.687 517.663 627.434 518.284 627.246 518.927L618.608 548.315L612.019 571.754C611.663 573.02 611.56 574.344 611.717 575.651L614.234 596.635C614.465 598.566 615.255 600.388 616.507 601.877L626.047 613.229C626.316 613.549 626.552 613.895 626.753 614.262C629.204 618.748 635.737 618.52 637.994 613.934C638.539 612.828 638.757 611.573 638.61 610.349L638.591 610.182C638.304 607.791 636.796 605.719 634.608 604.711L632.584 603.778C630.914 603.009 629.764 601.428 629.545 599.603C629.067 595.616 633.029 592.57 636.759 594.058L641.429 595.921C642.011 596.153 642.566 596.451 643.082 596.809L650.93 602.257C652.941 603.653 655.393 604.263 657.824 603.971L663.704 603.266C666.217 602.965 668.523 601.721 670.155 599.787L682.273 585.429C682.972 584.601 683.8 583.892 684.726 583.33L707.863 569.284L724.098 561.784C727.066 560.414 729.176 557.679 729.75 554.461L730.922 547.882C731.195 546.349 731.106 544.774 730.663 543.281L724.553 522.704C724.393 522.163 724.278 521.609 724.211 521.049L722.608 507.681C722.519 506.945 722.513 506.201 722.589 505.463L724.108 490.759C724.307 488.837 723.944 486.899 723.065 485.179L719.792 478.779C719.248 477.714 719.152 476.477 719.525 475.341C720.615 472.025 724.913 471.175 727.182 473.828L727.797 474.546C728.528 475.4 729.638 475.833 730.754 475.699C732.874 475.445 734.224 473.306 733.543 471.283L727.337 452.864C726.333 449.882 727.721 446.621 730.566 445.279L732.351 444.437C736.4 442.527 740.839 446.211 739.707 450.543C738.645 454.608 742.529 458.223 746.508 456.872L747.914 456.395C749.855 455.736 751.334 454.142 751.845 452.156L753.363 446.254C753.694 444.969 754.543 443.878 755.709 443.242C756.136 443.009 756.568 442.847 756.999 442.75V461.863L756.885 462.127C756.441 463.155 755.82 464.097 755.051 464.911L747.613 472.782C746.98 473.452 746.442 474.206 746.016 475.023L740.335 485.905L733.013 504.096C732.676 504.932 732.556 505.84 732.664 506.735C733.25 511.622 739.562 513.199 742.378 509.162L754.727 491.459C755.085 490.946 755.394 490.4 755.65 489.829L756.999 486.822V501.728C756.776 502.236 756.512 502.725 756.209 503.19L743.001 523.416C741.716 525.384 741.165 527.741 741.445 530.074L742.883 542.065C743.704 548.912 750.966 552.768 756.999 549.959V581.399L751.994 583.115L725.363 590.803C724.238 591.128 723.179 591.647 722.234 592.338L706.064 604.162L701.689 606.768C701.256 607.026 700.844 607.316 700.455 607.635L688.271 617.655C687.71 618.117 687.1 618.516 686.452 618.845L671.385 626.508C670.804 626.804 670.254 627.155 669.742 627.557L661.804 633.791C659.403 635.676 658.16 638.677 658.523 641.708C658.975 645.472 661.8 648.516 665.519 649.247L674.813 651.072C679.067 651.908 682.298 655.389 682.814 659.694L683.291 663.668L684.435 673.206C684.825 676.457 686.782 679.312 689.675 680.848L696.983 684.727C698.785 685.683 700.837 686.066 702.863 685.823L705.784 685.473C708.692 685.124 711.606 686.067 713.758 688.053L716.116 690.23C720.992 694.731 728.819 693.321 731.819 687.402L733.428 684.227C734.126 682.85 735.465 681.913 736.998 681.729C740.298 681.333 742.923 684.447 741.975 687.632L738.059 700.798C737.473 702.766 736.297 704.506 734.688 705.782L722.957 715.087L708.652 725.263C706.195 727.011 704.658 729.774 704.468 732.782L703.325 750.909L704.744 793.645C704.76 794.126 704.811 794.606 704.896 795.079L710.366 825.563L716.398 859.902L720.946 897.821C721.069 898.851 721.352 899.855 721.784 900.798L741.387 943.561L756.999 978.898ZM756.999 256.255L752.573 247.11C751.875 245.669 750.841 244.415 749.558 243.456L723.255 223.802L698.542 201.524C696.746 199.904 695.597 197.689 695.309 195.287L691.151 160.62C691.066 159.908 690.826 159.222 690.449 158.612L688.711 155.799C686.003 151.414 679.25 154.348 680.608 159.32C680.86 160.243 680.809 161.222 680.462 162.114L678.177 167.989C677.661 169.316 676.456 170.25 675.043 170.42C671.272 170.872 670.357 175.928 673.73 177.672L676.678 179.197C677.866 179.812 678.75 180.888 679.122 182.174L686.28 206.941C686.571 207.949 687.019 208.905 687.608 209.773L697.245 223.998C698.435 225.755 700.154 227.088 702.152 227.803L716.563 232.964C717.403 233.265 718.199 233.677 718.929 234.188L734.815 245.317C736.099 246.216 737.153 247.404 737.893 248.785L749.1 269.708L756.999 281.436V256.255ZM756.999 353.342L753.71 346.642C752.455 344.085 748.587 345.231 748.926 348.059C748.97 348.42 748.934 348.787 748.823 349.134L744.869 361.445C744.429 362.816 744.29 364.265 744.461 365.694L746.079 379.184C746.239 380.514 746.664 381.799 747.33 382.961L754.645 395.739L756.999 399.684V376.608C756.617 375.357 756.484 374.039 756.61 372.731L756.999 368.703V353.342ZM474.804 309.813L467.639 299.581L453.435 317.638C452.702 318.571 452.14 319.626 451.777 320.754L445.587 339.965C445.145 341.338 445.005 342.79 445.176 344.222L447.089 360.171C447.416 362.894 446.61 365.632 444.859 367.744L438.932 374.895C437.793 376.268 437.269 378.048 437.482 379.818C438.067 384.696 443.642 387.188 447.666 384.37L454.226 379.778L470.902 364.653C473.302 362.476 474.499 359.272 474.113 356.055L473.387 350.005C473.295 349.236 473.487 348.459 473.928 347.822L476.308 344.383C477.913 342.064 481.528 343.781 480.746 346.49C480.485 347.393 480.755 348.365 481.443 349.005L484.091 351.465C486.332 353.548 489.531 354.24 492.433 353.272L506.216 348.67C506.913 348.437 507.661 348.404 508.375 348.574C511.963 349.426 512.519 354.299 509.215 355.938L477.065 371.884C476.404 372.211 475.781 372.611 475.209 373.076L454.327 390.011C452.198 391.738 450.871 394.263 450.657 396.996L448.761 421.191C448.673 422.31 448.774 423.435 449.06 424.519L458.418 460.054C459.175 462.929 461.173 465.318 463.868 466.573L496.361 481.699L514.756 490.687C516.832 491.702 518.492 493.403 519.456 495.503L531.028 520.734C531.497 521.756 532.135 522.692 532.915 523.502L557.019 548.53L574.871 567.076C579.564 571.951 587.643 570.856 590.867 564.906L597.881 551.967C598.33 551.139 598.659 550.253 598.86 549.333L604.645 522.826C604.958 521.392 605.583 520.044 606.475 518.879L624.774 494.984L636.446 476.646C637.687 474.697 638.214 472.379 637.939 470.085L636.888 461.323C636.653 459.361 637.004 457.374 637.897 455.611L650.471 430.801C650.848 430.057 651.317 429.363 651.867 428.735L664.504 414.3C666.005 412.586 666.875 410.411 666.971 408.134L667.664 391.723C667.817 388.083 665.979 384.648 662.866 382.756L661.249 381.773C659.698 380.83 658.433 379.484 657.589 377.877L647.822 359.282C646.942 357.608 645.607 356.218 643.969 355.272L607.429 334.173C606.057 333.38 604.893 332.273 604.033 330.943L593.309 314.361C591.234 311.153 587.514 309.407 583.721 309.862L561.023 312.585L524.285 316.991C523.617 317.071 522.959 317.218 522.321 317.43L502.494 324.021C499.632 324.973 496.492 324.582 493.951 322.956L477.607 312.501C476.506 311.797 475.554 310.884 474.804 309.813Z" fill="#52088B"/>
</g>
<defs>
<filter id="filter0_f_380_559" x="194.844" y="551.881" width="560.873" height="272.891" filterUnits="userSpaceOnUse" color-interpolation-filters="sRGB">
<feFlood flood-opacity="0" result="BackgroundImageFix"/>
<feBlend mode="normal" in="SourceGraphic" in2="BackgroundImageFix" result="shape"/>
<feGaussianBlur stdDeviation="25" result="effect1_foregroundBlur_380_559"/>
</filter>
<filter id="filter1_f_380_559" x="26.7588" y="30" width="777.623" height="717.789" filterUnits="userSpaceOnUse" color-interpolation-filters="sRGB">
<feFlood flood-opacity="0" result="BackgroundImageFix"/>
<feBlend mode="normal" in="SourceGraphic" in2="BackgroundImageFix" result="shape"/>
<feGaussianBlur stdDeviation="25" result="effect1_foregroundBlur_380_559"/>
</filter>
<filter id="filter2_f_380_559" x="54.2651" y="45.9062" width="753.235" height="634.344" filterUnits="userSpaceOnUse" color-interpolation-filters="sRGB">
<feFlood flood-opacity="0" result="BackgroundImageFix"/>
<feBlend mode="normal" in="SourceGraphic" in2="BackgroundImageFix" result="shape"/>
<feGaussianBlur stdDeviation="25" result="effect1_foregroundBlur_380_559"/>
</filter>
<filter id="filter3_f_380_559" x="31.1018" y="270.707" width="519.154" height="386.34" filterUnits="userSpaceOnUse" color-interpolation-filters="sRGB">
<feFlood flood-opacity="0" result="BackgroundImageFix"/>
<feBlend mode="normal" in="SourceGraphic" in2="BackgroundImageFix" result="shape"/>
<feGaussianBlur stdDeviation="25" result="effect1_foregroundBlur_380_559"/>
</filter>
<filter id="filter4_f_380_559" x="324.683" y="70.2471" width="452.913" height="411.297" filterUnits="userSpaceOnUse" color-interpolation-filters="sRGB">
<feFlood flood-opacity="0" result="BackgroundImageFix"/>
<feBlend mode="normal" in="SourceGraphic" in2="BackgroundImageFix" result="shape"/>
<feGaussianBlur stdDeviation="25" result="effect1_foregroundBlur_380_559"/>
</filter>
<clipPath id="clip0_380_559">
<rect width="687" height="1050" fill="white"/>
</clipPath>
</defs>
</svg>
